<svg id="Layer_1" data-name="Layer 1" xmlns="http://www.w3.org/2000/svg" xmlns:xlink="http://www.w3.org/1999/xlink" width="179.91" height="168" viewBox="0 0 179.91 168">
  <defs>
    <linearGradient id="linear-gradient" x1="154" y1="123" x2="154" y2="15" gradientTransform="matrix(0, 1, 1, 0, 51, -40)" gradientUnits="userSpaceOnUse">
      <stop offset="0" stop-color="#f0b90b"/>
      <stop offset="1" stop-color="#f8d33a"/>
    </linearGradient>
    <linearGradient id="linear-gradient-2" x1="13.5" y1="175.5" x2="13.5" y2="76.5" gradientTransform="translate(106.5 -61.5)" xlink:href="#linear-gradient"/>
    <linearGradient id="linear-gradient-3" x1="120" y1="19.5" x2="120" y2="100.5" gradientTransform="matrix(1, 0, 0, -1, 0, 180)" gradientUnits="userSpaceOnUse">
      <stop offset="0" stop-color="#e6eafa"/>
      <stop offset="1" stop-color="#e4f5eb"/>
    </linearGradient>
  </defs>
  <title>beth-eth</title>
  <g>
    <path d="M79.4,156.5A70.41,70.41,0,1,0,53.7,50.1a31.33,31.33,0,0,1-17.3-5.5s-9.2-5.8-12.3-9.8S11.6,25.4,5,35.8L3.9,38.2,2.4,41.4,1.3,43.8C-2.5,55.5,7.6,59.4,12.7,59.2S28,62.4,28,62.4a32.39,32.39,0,0,1,14.6,9A70.32,70.32,0,0,0,79.4,156.5ZM7.9,43.2a5.57,5.57,0,1,1,2.7,7.4A5.4,5.4,0,0,1,7.9,43.2Z" transform="translate(0 -6)" fill="#aa8159"/>
    <path d="M0,48.5a16,16,0,0,1,.8-4.7h0l3.8-8h0c2.5-4,5.6-6,9.3-6.2,4.3-.2,8.4,2.6,10.4,5.2,3,4,12.1,9.7,12.2,9.7a32.16,32.16,0,0,0,17,5.5,70.31,70.31,0,0,1,86-21.1,70.53,70.53,0,0,1,40.4,64.8,69,69,0,0,1-6.8,29.2,70.64,70.64,0,0,1-93.9,33.9A70.53,70.53,0,0,1,38.8,92h0a72,72,0,0,1,3.3-20.5,32.51,32.51,0,0,0-14.3-8.8c-.1,0-10.3-3.4-15.3-3.2a14.1,14.1,0,0,1-9.6-3.6A10.1,10.1,0,0,1,0,48.5ZM1.5,44a15.28,15.28,0,0,0-.8,4.5,9,9,0,0,0,2.8,6.9,13.15,13.15,0,0,0,9.1,3.4c5.1-.2,15.1,3.1,15.5,3.3a32.53,32.53,0,0,1,14.7,9.1c.1.1.1.2.1.4A70.89,70.89,0,0,0,39.5,92h0A70.32,70.32,0,1,0,54,50.4a.37.37,0,0,1-.3.1,31.5,31.5,0,0,1-17.5-5.6c-.4-.2-9.3-5.8-12.4-9.9A12.68,12.68,0,0,0,14,30.1c-3.4.1-6.3,2.1-8.7,5.8ZM7,45.5A5.42,5.42,0,0,1,7.6,43,6.46,6.46,0,0,1,11,39.9a5.85,5.85,0,0,1,4.5.2,6,6,0,0,1,3.4,5.4,5.42,5.42,0,0,1-.6,2.5,6.46,6.46,0,0,1-3.4,3.1A5.89,5.89,0,0,1,7,45.5Zm11.1.1a5.28,5.28,0,0,0-3-4.8,5.07,5.07,0,0,0-4-.2,4.84,4.84,0,0,0-2.9,2.7,5.45,5.45,0,0,0-.5,2.2,5.28,5.28,0,0,0,3,4.8,5.07,5.07,0,0,0,4,.2,4.84,4.84,0,0,0,2.9-2.7A5.85,5.85,0,0,0,18.1,45.6Z" transform="translate(0 -6)" fill="#b68a4f"/>
  </g>
  <g>
    <g opacity="0.3">
      <path d="M25.2,41.1a3.78,3.78,0,0,0,2.1.4c.8-.2.6-1.4.5-2a8.8,8.8,0,0,0-.5-1.5,24.07,24.07,0,0,1-3.2-3.2,11.35,11.35,0,0,0-3.2-2.9,9.13,9.13,0,0,1,1.5,4.9.22.22,0,0,1-.2.2c-3.6-.9-6.9-3.1-9.8-5.3L11,30.6a8.11,8.11,0,0,0-1.8,1c3,2,6,4,9,5.9A46,46,0,0,0,25.2,41.1Z" transform="translate(0 -6)" fill="#c49776"/>
      <path d="M5,35.8l-.7,1.4c2.1,1.1,4.3,2.1,6.4,3.2a5.44,5.44,0,0,1,4.5.1,5.62,5.62,0,0,1,3.1,4.1c4,2.3,8,4.6,12,6.8,1.8,1,3.5,1.9,5.3,2.9A22.39,22.39,0,0,0,41,56.9c1.4.4,4.3.4,4.2-1.7,0-1.8-1.2-3.5-2-5.1-.5-.9-1-1.8-1.4-2.7a41.06,41.06,0,0,1-5.4-2.9,11.62,11.62,0,0,0-1.1-.7,4.87,4.87,0,0,1,.4,1.1,5,5,0,0,1,.4,2.7c-.4,1.7-2.3,1.3-3.5.9a35.3,35.3,0,0,1-7.4-4c-2.7-1.7-5.3-3.5-7.9-5.4A38.19,38.19,0,0,0,12.6,36c-1.9-1-3.7-2-5.6-3A28.32,28.32,0,0,0,5,35.8Z" transform="translate(0 -6)" fill="#c49776"/>
      <path d="M52.4,57.3c.4,1.6.6,3.9-.8,5.1-2,1.8-5.6,1-7.9.5-10-2.2-18.5-8.3-27.4-13A5.44,5.44,0,0,1,12,51c5.6,2.3,11.2,4.7,16.8,7,5.4,2.3,10.8,4.6,16.2,6.8,3.5,1.4,7.1,3,10.7,4.1a18.29,18.29,0,0,0,2.5.6c1.2.2,3.5.6,4.3-.6.7-1,.3-2.3,0-3.4a26.68,26.68,0,0,0-2-4.6,61.17,61.17,0,0,0-3.1-5.6,64.06,64.06,0,0,0-3.9-5.2,23.68,23.68,0,0,1-4.3-.4A31.49,31.49,0,0,1,52.4,57.3Z" transform="translate(0 -6)" fill="#c49776"/>
      <path d="M.5,46.6c3.1,1.1,6.1,2.3,9.2,3.5a5.68,5.68,0,0,1-2.4-4.5c-1.9-.8-3.9-1.7-5.8-2.5l-.3.7C.9,44.8.7,45.7.5,46.6Z" transform="translate(0 -6)" fill="#c49776"/>
      <path d="M27.6,62.3c-6-2.8-12-5.5-18.1-8.1C6.6,53,3.6,51.8.6,50.7c1.2,6.4,8.1,8.6,12,8.5C17.1,59,25.6,61.6,27.6,62.3Z" transform="translate(0 -6)" fill="#c49776"/>
      <path d="M159.5,43.4a36.17,36.17,0,0,1-13.7-5.1,96.24,96.24,0,0,1-11.4-8.8c-1.4-1.2-2.6-2.5-3.9-3.8a88.94,88.94,0,0,0-8.9-2.2c1.2,1.1,2.5,2.1,3.7,3.1A143.06,143.06,0,0,0,138.2,37a58.31,58.31,0,0,0,24.4,9.7C161.6,45.6,160.6,44.5,159.5,43.4Z" transform="translate(0 -6)" fill="#c49776"/>
      <path d="M166.4,51.6c-.4,0-.8-.1-1.2-.1a84.49,84.49,0,0,1-10.1-1.3,74.23,74.23,0,0,1-28.8-13.6A120.08,120.08,0,0,1,111,22.5c-2,0-4,0-6,.1,6.6,6.3,12.8,13,19.8,18.8a73,73,0,0,0,12.6,8.8,105,105,0,0,0,15.4,6.6c4.7,1.7,9.4,3.2,14.2,4.6,2.2.6,4.3,1.3,6.5,2.1A95.8,95.8,0,0,0,166.4,51.6Z" transform="translate(0 -6)" fill="#c49776"/>
      <path d="M175.9,70.2c-3.7-1.2-7.4-2.7-11.2-3.6a128.56,128.56,0,0,1-23.4-7.8c-4.8-2.2-9.5-4.8-14.2-7.4s-9.3-5.4-13.8-8.3A175,175,0,0,1,90,25.3c-2,.6-4.1,1.3-6,2,1.5,1,3,2,4.4,3.1,5,3.5,10,7.1,14.9,10.8S113,48.4,117.9,52c3.1,2.2,6.1,4.6,9.4,6.5a102.76,102.76,0,0,0,14,6.2c2.6,1,5.2,2,7.9,3,2.5.9,4.9,1.9,7.5,2.7,6.9,2.2,14.2,3.4,21,5.9C177.2,74.3,176.6,72.2,175.9,70.2Z" transform="translate(0 -6)" fill="#c49776"/>
      <path d="M179.6,92.6c-1.4-.6-2.8-1.3-4.2-2a47.24,47.24,0,0,1-10.9-7.3.19.19,0,0,1,.1-.3c5,.3,9.8,1.7,14.6,3.2-.1-1-.2-1.9-.3-2.9-2-.6-4-1.2-6-1.6-4.4-1-8.9-1.7-13.3-2.8-3.1-.7-6.1-2-9.2-2.9a34.85,34.85,0,0,0-5.6-1.2,7.38,7.38,0,0,0-3.9.4,28.63,28.63,0,0,0,9.3,6.4c3.6,1.8,7.4,3.2,11.2,4.8,4.3,1.8,8.5,3.9,12.7,5.8,1.8.8,3.5,1.6,5.3,2.4A7.14,7.14,0,0,0,179.6,92.6Z" transform="translate(0 -6)" fill="#c49776"/>
      <path d="M179.6,94.9c-1.8-.8-3.7-1.6-5.5-2.5-4.4-2-8.6-4.2-13.1-6-3.8-1.5-7.6-3-11.3-4.8-3.3-1.7-6.6-3.6-9.1-6.4a.19.19,0,0,1,0-.3c.2-.1.3-.2.5-.2a8.16,8.16,0,0,1,4.1-.2,30.21,30.21,0,0,1,5.2,1.2c3.2.9,6.2,2.2,9.4,2.9,4.5,1,9.1,1.7,13.6,2.8a44.44,44.44,0,0,1,5.2,1.5.6.6,0,0,0-.1-.4c-1.3-.4-2.5-.8-3.8-1.2-10-3.2-20.3-5.5-30.4-8.6a128.85,128.85,0,0,1-14.7-5.3,120.53,120.53,0,0,1-13.8-7.2,148.48,148.48,0,0,1-25-19c-3-2.8-6.1-5.4-9-8.4-1-1.1-2-2.2-3-3.4-1.8.9-3.6,1.8-5.3,2.8.9.8,1.8,1.6,2.7,2.5,3.5,3.4,7,6.7,10.3,10.3l5.4,6.3c1.7,2.1,3.4,4.2,5.2,6.2,6.9,7.6,15.7,13,24.8,17.4,10.6,5.1,21.5,9.5,32.4,13.9,8.3,3.4,16.3,7.6,24.4,11.4A16,16,0,0,0,179.6,94.9Z" transform="translate(0 -6)" fill="#c49776"/>
      <path d="M166.4,104.9a12.56,12.56,0,0,0,3.2,3.3,67,67,0,0,0,6,4.5l.9.6c.5-1.6.9-3.3,1.3-4.9C174.1,106.9,170.5,105,166.4,104.9Z" transform="translate(0 -6)" fill="#c49776"/>
      <path d="M175.6,116.2a73.1,73.1,0,0,1-7-4.3c-3.1-2.1-6.4-3.9-9.7-5.8-3.9-2.3-7.9-4.7-11.1-8a.19.19,0,0,1,.1-.3c3.1-1.1,6.6,0,9.5,1,3.1,1.1,6.2,2.2,9.4,3.2a97.31,97.31,0,0,1,11.5,3.9,14.16,14.16,0,0,1,.4-2c-4.8-1.7-9.6-3.2-14.4-4.7C154,96,143.6,93,133.7,88.8a110,110,0,0,1-14.2-7,112,112,0,0,1-12.9-8.7c-14.2-10.7-26.5-23.8-38.5-37-1.3,1-2.6,2-3.9,3.1.4.3.7.6,1.1.9C70.4,44.6,74,50.3,77.7,56a81.72,81.72,0,0,0,9.4,12.5A92.25,92.25,0,0,0,98.7,78.6a169.27,169.27,0,0,0,26.9,16.6c9.9,4.8,20.1,8.8,29.7,14.3,4.8,2.7,9.6,5.5,14.6,7.9,1.4.7,2.9,1.3,4.4,1.9A28.8,28.8,0,0,0,175.6,116.2Z" transform="translate(0 -6)" fill="#c49776"/>
      <path d="M156.1,127.2a68,68,0,0,0-8.6-3.1,22.13,22.13,0,0,0-8.1-1.2c1.5,2.4,4.3,4,6.8,5.2,2.8,1.4,5.7,2.6,8.6,3.8,3.1,1.3,6,2.8,8.9,4.3a4.88,4.88,0,0,0,.7.3c1-1.3,2-2.6,2.9-4-.5-.2-.9-.5-1.4-.7A67.45,67.45,0,0,0,156.1,127.2Z" transform="translate(0 -6)" fill="#c49776"/>
      <path d="M48.7,118.7c1.7.5,3.3,1.2,5,1.7,2.6.8,5.3,1.5,7.9,2.3,10.6,3,21.3,5.7,31.9,8.8,11.3,3.4,22.5,7,33.8,10.3,5.6,1.6,11.2,3.4,16.7,5.3,2.3.8,4.6,1.6,6.9,2.3a15.58,15.58,0,0,0,2-1.6c-1.1-.5-2.3-.9-3.4-1.4-4.9-1.9-9.9-3.4-14.9-5-11.1-3.7-22.2-7.6-33.1-11.7s-21.7-8.1-32.8-11.3c-9-2.6-17.8-6.4-27.1-7.4a64,64,0,0,0,2,6.2Z" transform="translate(0 -6)" fill="#c49776"/>
      <path d="M68.5,144.1c11.1,4,21.9,8.3,32.7,13,4.5,1.9,9,3.9,13.5,5.8a68.33,68.33,0,0,0,12-2l-6.3-2.7c-6.9-2.9-14-5.4-21.1-7.8-5.4-1.9-10.9-3.6-16.3-5.6-5.2-1.9-10.3-4.1-15.4-6.5l-15-7.2c-1-.5-2-1-3-1.4a67.9,67.9,0,0,0,7.9,10.6C61.2,141.4,64.9,142.8,68.5,144.1Z" transform="translate(0 -6)" fill="#c49776"/>
      <path d="M67.5,149.2c3.8,1.5,7.6,3,11.4,4.6q9.45,4,18.9,8.4c2,.3,4.1.6,6.1.7-7.5-3.6-15.1-7-22.7-10.5-4.6-2.1-9.2-4.3-14-6.1a41,41,0,0,0-5.9-2,65.74,65.74,0,0,0,5.7,4.8A2,2,0,0,1,67.5,149.2Z" transform="translate(0 -6)" fill="#c49776"/>
      <path d="M44,106.7a55.93,55.93,0,0,0,7.1,1.5c5.8,1.1,11.6,2.2,17.3,3.7,11.3,3.1,22.3,6.9,33.5,10.2s22.6,6.1,33.8,9.5a189,189,0,0,1,24.2,9.9c.8-.9,1.6-1.7,2.4-2.6-3.8-1.3-7.5-2.7-11.2-4.2-5.3-2.1-10.4-4.5-15.6-6.8-10.8-4.7-21.8-8.8-32.7-13.3-10.3-4.2-20.7-8.3-31.4-11.2a173.44,173.44,0,0,0-32-5.9,74.63,74.63,0,0,0,1,8.1C41.6,106,42.8,106.4,44,106.7Z" transform="translate(0 -6)" fill="#c49776"/>
      <path d="M105,99.3a7.27,7.27,0,0,0,2.1-.6c.3-.1.5-.3.8-.4.5-.3.5-.3.1-.6a21.53,21.53,0,0,0-4.8-3.6,50.42,50.42,0,0,0-12.1-4.6,83.46,83.46,0,0,0-12-2,133.23,133.23,0,0,1-16.6-2.6c-2.8-.6-5.6-1.3-8.3-2.1a58.94,58.94,0,0,1-5.9-2.1c-2.1-.8-4.2-1.6-6.3-2.2l-1.2-.3c-.2,1-.4,1.9-.6,2.9a35.88,35.88,0,0,1,8.3,3c.2.1.1.3-.1.3-2.9.2-5.8,0-8.7.1l-.3,3.3c7.4,1,14.8,2.3,22.2,3.7,4.5.9,9,1.7,13.5,2.6a85.72,85.72,0,0,1,8.8,1.8c3.5,1,6.9,1.9,10.5,2.7C97.7,99.3,101.5,100,105,99.3Z" transform="translate(0 -6)" fill="#c49776"/>
      <path d="M172.7,123.2a15.05,15.05,0,0,0-2.2-1.1c-5.6-2.6-11.3-4.7-17.1-6.9-10.2-3.9-20.4-7.7-30.2-12.5-9.5-4.6-18.8-10-26.6-17.2-7.5-7-13.7-15.2-20-23.2C71.5,55.6,66.6,48.4,60,43l-1.3,1.3c.5.9,1.1,1.9,1.7,2.8,3.1,5.1,6.3,10.1,9.1,15.2,1.3,2.4,2.5,4.8,3.6,7.3a21.28,21.28,0,0,1,1.7,6.1,5.13,5.13,0,0,1-1.1,4c-1.7,1.7-4.5,1.6-6.6,1.1C62.9,80,59.2,78,55.5,76c-4.7-2.5-9.5-4.7-14.2-7-1.2-.6-2.3-1.2-3.5-1.7a35.84,35.84,0,0,1,4.8,4.2c-.4,1.1-.7,2.3-1,3.4a92.42,92.42,0,0,1,8.9,2.9c.2.1.2.3,0,.3-3.2.7-6.3-.2-9.5-.6a.37.37,0,0,1-.1.3c1.6.4,3.2,1,4.7,1.5a109.31,109.31,0,0,0,11,3.7,145.62,145.62,0,0,0,17.2,3.5c4.3.6,8.6.9,12.9,1.7,7.7,1.4,16.5,3.7,22,9.7a.19.19,0,0,1,0,.3c-1.7,1.5-4.2,1.8-6.4,1.8a40.71,40.71,0,0,1-9.2-1.2Q88,97.6,82.9,96.1c-4.4-1.2-8.9-1.8-13.4-2.6-10-1.9-20-3.9-30.1-5.3-.1,1.6-.2,3.3-.2,4.9,4.3.4,8.7.7,12.9,1.2a281.78,281.78,0,0,1,34.1,6.8c11.3,3,22.6,6.3,33.7,9.9,10.6,3.4,21,7.3,31.6,10.8a184.84,184.84,0,0,1,18.4,6.7C170.9,126.7,171.8,125,172.7,123.2Z" transform="translate(0 -6)" fill="#c49776"/>
    </g>
    <g>
      <path d="M58.1,48.3c1.4-1.6,3.2-3,4.8-4.5,1.8-1.6,3.6-3.2,5.4-4.6A71.63,71.63,0,0,1,79.8,32,77.75,77.75,0,0,1,94,26.8c2.4-.6,4.7-1.4,7.1-1.8,2.6-.4,5.2-.5,7.7-.9.4-.1-.1-.7-.4-.6-2.4.2-4.9.3-7.3.5a69.31,69.31,0,0,0-7.9,1.7,76.51,76.51,0,0,0-13.9,4.9,71.78,71.78,0,0,0-12.1,7.5c-1.8,1.4-3.5,2.9-5.1,4.4s-3.8,3.2-4.9,5.1C57.2,48.1,57.9,48.6,58.1,48.3Z" transform="translate(0 -6)" fill="#c49776"/>
      <path d="M33.1,44.3c-2.6-2-5.2-3.9-7.7-6.1-2.2-1.9-3.9-4.3-6.3-5.9-4.5-3-9.6-.2-12.7,3.5-.2.2.4.7.6.6a31.72,31.72,0,0,1,5.4-3.6c3.3-1.6,6.1-.2,8.5,2.2,1.6,1.6,3.1,3.2,4.9,4.7,2.2,1.8,4.6,3.3,6.9,4.9C33.2,44.9,33.5,44.6,33.1,44.3Z" transform="translate(0 -6)" fill="#c49776"/>
      <path d="M12.7,57.8A30.08,30.08,0,0,1,7,55.7a11.13,11.13,0,0,1-4.3-4.8c-.2-.3-.9-.6-.8,0,1.2,4.8,6.5,6.9,10.9,7.5C13.3,58.5,12.9,57.9,12.7,57.8Z" transform="translate(0 -6)" fill="#c49776"/>
      <path d="M107.8,161.1a98.79,98.79,0,0,0,16.2-1.6c10.5-2,20.1-7,28.7-13.1.3-.2-.2-.7-.5-.5-8.6,5.2-17.7,10.1-27.6,12.3-10.5,2.3-22,2.9-32.5.4-.6-.1-.3.5.1.6C97.1,161,102.5,161.2,107.8,161.1Z" transform="translate(0 -6)" fill="#c49776"/>
    </g>
  </g>
  <circle cx="96" cy="40" r="40" fill="#fffefd"/>
  <circle cx="96" cy="40" r="37.9" fill="none" stroke="#191326" stroke-width="4" opacity="0.1" style="isolation: isolate"/>
  <g>
    <path d="M96,59.58V73l16.51-23.19Z" transform="translate(0 -6)" fill="#2f3030"/>
    <path d="M96,38.88V56.15l16.51-9.77Z" transform="translate(0 -6)" fill="#100c18"/>
    <path d="M96,19V38.88l16.51,7.5Z" transform="translate(0 -6)" fill="#2f3030"/>
    <path d="M96,59.58V73L79.49,49.81Z" transform="translate(0 -6)" fill="#828384"/>
    <path d="M96,38.88V56.15L79.49,46.38Z" transform="translate(0 -6)" fill="#343535"/>
    <path d="M96,19V38.88l-16.51,7.5Z" transform="translate(0 -6)" fill="#828384"/>
  </g>
  <circle cx="120" cy="114" r="54" fill="url(#linear-gradient)"/>
  <circle cx="120" cy="114" r="49.5" fill="url(#linear-gradient-2)"/>
  <circle cx="120.13" cy="114.13" r="45" fill="#fff"/>
  <path d="M148.64,91.36a40.5,40.5,0,1,0,0,57.28A40.52,40.52,0,0,0,148.64,91.36Z" transform="translate(0 -6)" fill="url(#linear-gradient-3)"/>
  <path d="M121.13,111.56l16.67,7.57-1.1,2.43L120,114Z" transform="translate(0 -6)" fill="#d48fcd" fill-rule="evenodd"/>
  <path d="M120,114l-16.68,7.57-1.1-2.43,16.68-7.57Z" transform="translate(0 -6)" fill="#a1dd71" fill-rule="evenodd"/>
  <path d="M120,151.5l19.26-27L120,135.85Zm9.81-18.36-7.15,4.23v5.8Z" transform="translate(0 -6)" fill="#5a9ded" fill-rule="evenodd"/>
  <path d="M120,88.5v43.34l19.26-11.39Zm2.66,9.57v29.1l12.94-7.65Z" transform="translate(0 -6)" fill="#ff9c92" fill-rule="evenodd"/>
  <path d="M117.34,137.37l-7.15-4.23,7.15,10Zm2.66-1.52-19.26-11.4L120,151.5Z" transform="translate(0 -6)" fill="#53d3e1" fill-rule="evenodd"/>
  <path d="M100.74,120.45,120,131.84V88.5Zm3.66-.93,12.94,7.65V98.07Z" transform="translate(0 -6)" fill="#f8d136" fill-rule="evenodd"/>
</svg>
