<svg id="Layer_1" data-name="Layer 1" xmlns="http://www.w3.org/2000/svg" xmlns:xlink="http://www.w3.org/1999/xlink" width="179.91" height="168.67" viewBox="0 0 179.91 168.67">
  <defs>
    <linearGradient id="linear-gradient" x1="160" y1="57" x2="160" y2="165" gradientTransform="translate(231 -45.33) rotate(90)" gradientUnits="userSpaceOnUse">
      <stop offset="0" stop-color="#f0b90b"/>
      <stop offset="1" stop-color="#f8d33a"/>
    </linearGradient>
    <linearGradient id="linear-gradient-2" x1="13.5" y1="-1.5" x2="13.5" y2="97.5" gradientTransform="matrix(1, 0, 0, -1, 106.5, 113.17)" xlink:href="#linear-gradient"/>
    <linearGradient id="linear-gradient-3" x1="120" y1="114.5" x2="120" y2="33.5" gradientTransform="translate(0 46)" gradientUnits="userSpaceOnUse">
      <stop offset="0" stop-color="#e6eafa"/>
      <stop offset="1" stop-color="#e4f5eb"/>
    </linearGradient>
  </defs>
  <title>beth-pizza</title>
  <g>
    <path d="M79.4,156.5A70.41,70.41,0,1,0,53.7,50.1a31.33,31.33,0,0,1-17.3-5.5s-9.2-5.8-12.3-9.8S11.6,25.4,5,35.8L3.9,38.2,2.4,41.4,1.3,43.8C-2.5,55.5,7.6,59.4,12.7,59.2S28,62.4,28,62.4a32.39,32.39,0,0,1,14.6,9A70.32,70.32,0,0,0,79.4,156.5ZM7.9,43.2a5.57,5.57,0,1,1,2.7,7.4A5.4,5.4,0,0,1,7.9,43.2Z" transform="translate(0 -5.33)" fill="#aa8159"/>
    <path d="M0,48.5a16,16,0,0,1,.8-4.7h0l3.8-8h0c2.5-4,5.6-6,9.3-6.2,4.3-.2,8.4,2.6,10.4,5.2,3,4,12.1,9.7,12.2,9.7a32.16,32.16,0,0,0,17,5.5,70.31,70.31,0,0,1,86-21.1,70.53,70.53,0,0,1,40.4,64.8,69,69,0,0,1-6.8,29.2,70.64,70.64,0,0,1-93.9,33.9A70.53,70.53,0,0,1,38.8,92h0a72,72,0,0,1,3.3-20.5,32.51,32.51,0,0,0-14.3-8.8c-.1,0-10.3-3.4-15.3-3.2a14.1,14.1,0,0,1-9.6-3.6A10.1,10.1,0,0,1,0,48.5ZM1.5,44a15.28,15.28,0,0,0-.8,4.5,9,9,0,0,0,2.8,6.9,13.15,13.15,0,0,0,9.1,3.4c5.1-.2,15.1,3.1,15.5,3.3a32.53,32.53,0,0,1,14.7,9.1c.1.1.1.2.1.4A70.89,70.89,0,0,0,39.5,92h0A70.32,70.32,0,1,0,54,50.4a.37.37,0,0,1-.3.1,31.5,31.5,0,0,1-17.5-5.6c-.4-.2-9.3-5.8-12.4-9.9A12.68,12.68,0,0,0,14,30.1c-3.4.1-6.3,2.1-8.7,5.8ZM7,45.5A5.42,5.42,0,0,1,7.6,43,6.46,6.46,0,0,1,11,39.9a5.85,5.85,0,0,1,4.5.2,6,6,0,0,1,3.4,5.4,5.42,5.42,0,0,1-.6,2.5,6.46,6.46,0,0,1-3.4,3.1A5.89,5.89,0,0,1,7,45.5Zm11.1.1a5.28,5.28,0,0,0-3-4.8,5.07,5.07,0,0,0-4-.2,4.84,4.84,0,0,0-2.9,2.7,5.45,5.45,0,0,0-.5,2.2,5.28,5.28,0,0,0,3,4.8,5.07,5.07,0,0,0,4,.2,4.84,4.84,0,0,0,2.9-2.7A5.85,5.85,0,0,0,18.1,45.6Z" transform="translate(0 -5.33)" fill="#b68a4f"/>
  </g>
  <g>
    <g opacity="0.3">
      <path d="M25.2,41.1a3.78,3.78,0,0,0,2.1.4c.8-.2.6-1.4.5-2a8.8,8.8,0,0,0-.5-1.5,24.07,24.07,0,0,1-3.2-3.2,11.35,11.35,0,0,0-3.2-2.9,9.13,9.13,0,0,1,1.5,4.9.22.22,0,0,1-.2.2c-3.6-.9-6.9-3.1-9.8-5.3L11,30.6a8.11,8.11,0,0,0-1.8,1c3,2,6,4,9,5.9A46,46,0,0,0,25.2,41.1Z" transform="translate(0 -5.33)" fill="#c49776"/>
      <path d="M5,35.8l-.7,1.4c2.1,1.1,4.3,2.1,6.4,3.2a5.44,5.44,0,0,1,4.5.1,5.62,5.62,0,0,1,3.1,4.1c4,2.3,8,4.6,12,6.8,1.8,1,3.5,1.9,5.3,2.9A22.39,22.39,0,0,0,41,56.9c1.4.4,4.3.4,4.2-1.7,0-1.8-1.2-3.5-2-5.1-.5-.9-1-1.8-1.4-2.7a41.06,41.06,0,0,1-5.4-2.9,11.62,11.62,0,0,0-1.1-.7,4.87,4.87,0,0,1,.4,1.1,5,5,0,0,1,.4,2.7c-.4,1.7-2.3,1.3-3.5.9a35.3,35.3,0,0,1-7.4-4c-2.7-1.7-5.3-3.5-7.9-5.4A38.19,38.19,0,0,0,12.6,36c-1.9-1-3.7-2-5.6-3A28.32,28.32,0,0,0,5,35.8Z" transform="translate(0 -5.33)" fill="#c49776"/>
      <path d="M52.4,57.3c.4,1.6.6,3.9-.8,5.1-2,1.8-5.6,1-7.9.5-10-2.2-18.5-8.3-27.4-13A5.44,5.44,0,0,1,12,51c5.6,2.3,11.2,4.7,16.8,7,5.4,2.3,10.8,4.6,16.2,6.8,3.5,1.4,7.1,3,10.7,4.1a18.29,18.29,0,0,0,2.5.6c1.2.2,3.5.6,4.3-.6.7-1,.3-2.3,0-3.4a26.68,26.68,0,0,0-2-4.6,61.17,61.17,0,0,0-3.1-5.6,64.06,64.06,0,0,0-3.9-5.2,23.68,23.68,0,0,1-4.3-.4A31.49,31.49,0,0,1,52.4,57.3Z" transform="translate(0 -5.33)" fill="#c49776"/>
      <path d="M.5,46.6c3.1,1.1,6.1,2.3,9.2,3.5a5.68,5.68,0,0,1-2.4-4.5c-1.9-.8-3.9-1.7-5.8-2.5l-.3.7C.9,44.8.7,45.7.5,46.6Z" transform="translate(0 -5.33)" fill="#c49776"/>
      <path d="M27.6,62.3c-6-2.8-12-5.5-18.1-8.1C6.6,53,3.6,51.8.6,50.7c1.2,6.4,8.1,8.6,12,8.5C17.1,59,25.6,61.6,27.6,62.3Z" transform="translate(0 -5.33)" fill="#c49776"/>
      <path d="M159.5,43.4a36.17,36.17,0,0,1-13.7-5.1,96.24,96.24,0,0,1-11.4-8.8c-1.4-1.2-2.6-2.5-3.9-3.8a88.94,88.94,0,0,0-8.9-2.2c1.2,1.1,2.5,2.1,3.7,3.1A143.06,143.06,0,0,0,138.2,37a58.31,58.31,0,0,0,24.4,9.7C161.6,45.6,160.6,44.5,159.5,43.4Z" transform="translate(0 -5.33)" fill="#c49776"/>
      <path d="M166.4,51.6c-.4,0-.8-.1-1.2-.1a84.49,84.49,0,0,1-10.1-1.3,74.23,74.23,0,0,1-28.8-13.6A120.08,120.08,0,0,1,111,22.5c-2,0-4,0-6,.1,6.6,6.3,12.8,13,19.8,18.8a73,73,0,0,0,12.6,8.8,105,105,0,0,0,15.4,6.6c4.7,1.7,9.4,3.2,14.2,4.6,2.2.6,4.3,1.3,6.5,2.1A95.8,95.8,0,0,0,166.4,51.6Z" transform="translate(0 -5.33)" fill="#c49776"/>
      <path d="M175.9,70.2c-3.7-1.2-7.4-2.7-11.2-3.6a128.56,128.56,0,0,1-23.4-7.8c-4.8-2.2-9.5-4.8-14.2-7.4s-9.3-5.4-13.8-8.3A175,175,0,0,1,90,25.3c-2,.6-4.1,1.3-6,2,1.5,1,3,2,4.4,3.1,5,3.5,10,7.1,14.9,10.8S113,48.4,117.9,52c3.1,2.2,6.1,4.6,9.4,6.5a102.76,102.76,0,0,0,14,6.2c2.6,1,5.2,2,7.9,3,2.5.9,4.9,1.9,7.5,2.7,6.9,2.2,14.2,3.4,21,5.9C177.2,74.3,176.6,72.2,175.9,70.2Z" transform="translate(0 -5.33)" fill="#c49776"/>
      <path d="M179.6,92.6c-1.4-.6-2.8-1.3-4.2-2a47.24,47.24,0,0,1-10.9-7.3.19.19,0,0,1,.1-.3c5,.3,9.8,1.7,14.6,3.2-.1-1-.2-1.9-.3-2.9-2-.6-4-1.2-6-1.6-4.4-1-8.9-1.7-13.3-2.8-3.1-.7-6.1-2-9.2-2.9a34.85,34.85,0,0,0-5.6-1.2,7.38,7.38,0,0,0-3.9.4,28.63,28.63,0,0,0,9.3,6.4c3.6,1.8,7.4,3.2,11.2,4.8,4.3,1.8,8.5,3.9,12.7,5.8,1.8.8,3.5,1.6,5.3,2.4A7.14,7.14,0,0,0,179.6,92.6Z" transform="translate(0 -5.33)" fill="#c49776"/>
      <path d="M179.6,94.9c-1.8-.8-3.7-1.6-5.5-2.5-4.4-2-8.6-4.2-13.1-6-3.8-1.5-7.6-3-11.3-4.8-3.3-1.7-6.6-3.6-9.1-6.4a.19.19,0,0,1,0-.3c.2-.1.3-.2.5-.2a8.16,8.16,0,0,1,4.1-.2,30.21,30.21,0,0,1,5.2,1.2c3.2.9,6.2,2.2,9.4,2.9,4.5,1,9.1,1.7,13.6,2.8a44.44,44.44,0,0,1,5.2,1.5.6.6,0,0,0-.1-.4c-1.3-.4-2.5-.8-3.8-1.2-10-3.2-20.3-5.5-30.4-8.6a128.85,128.85,0,0,1-14.7-5.3,120.53,120.53,0,0,1-13.8-7.2,148.48,148.48,0,0,1-25-19c-3-2.8-6.1-5.4-9-8.4-1-1.1-2-2.2-3-3.4-1.8.9-3.6,1.8-5.3,2.8.9.8,1.8,1.6,2.7,2.5,3.5,3.4,7,6.7,10.3,10.3l5.4,6.3c1.7,2.1,3.4,4.2,5.2,6.2,6.9,7.6,15.7,13,24.8,17.4,10.6,5.1,21.5,9.5,32.4,13.9,8.3,3.4,16.3,7.6,24.4,11.4A16,16,0,0,0,179.6,94.9Z" transform="translate(0 -5.33)" fill="#c49776"/>
      <path d="M166.4,104.9a12.56,12.56,0,0,0,3.2,3.3,67,67,0,0,0,6,4.5l.9.6c.5-1.6.9-3.3,1.3-4.9C174.1,106.9,170.5,105,166.4,104.9Z" transform="translate(0 -5.33)" fill="#c49776"/>
      <path d="M175.6,116.2a73.1,73.1,0,0,1-7-4.3c-3.1-2.1-6.4-3.9-9.7-5.8-3.9-2.3-7.9-4.7-11.1-8a.19.19,0,0,1,.1-.3c3.1-1.1,6.6,0,9.5,1,3.1,1.1,6.2,2.2,9.4,3.2a97.31,97.31,0,0,1,11.5,3.9,14.16,14.16,0,0,1,.4-2c-4.8-1.7-9.6-3.2-14.4-4.7C154,96,143.6,93,133.7,88.8a110,110,0,0,1-14.2-7,112,112,0,0,1-12.9-8.7c-14.2-10.7-26.5-23.8-38.5-37-1.3,1-2.6,2-3.9,3.1.4.3.7.6,1.1.9C70.4,44.6,74,50.3,77.7,56a81.72,81.72,0,0,0,9.4,12.5A92.25,92.25,0,0,0,98.7,78.6a169.27,169.27,0,0,0,26.9,16.6c9.9,4.8,20.1,8.8,29.7,14.3,4.8,2.7,9.6,5.5,14.6,7.9,1.4.7,2.9,1.3,4.4,1.9A28.8,28.8,0,0,0,175.6,116.2Z" transform="translate(0 -5.33)" fill="#c49776"/>
      <path d="M156.1,127.2a68,68,0,0,0-8.6-3.1,22.13,22.13,0,0,0-8.1-1.2c1.5,2.4,4.3,4,6.8,5.2,2.8,1.4,5.7,2.6,8.6,3.8,3.1,1.3,6,2.8,8.9,4.3a4.88,4.88,0,0,0,.7.3c1-1.3,2-2.6,2.9-4-.5-.2-.9-.5-1.4-.7A67.45,67.45,0,0,0,156.1,127.2Z" transform="translate(0 -5.33)" fill="#c49776"/>
      <path d="M48.7,118.7c1.7.5,3.3,1.2,5,1.7,2.6.8,5.3,1.5,7.9,2.3,10.6,3,21.3,5.7,31.9,8.8,11.3,3.4,22.5,7,33.8,10.3,5.6,1.6,11.2,3.4,16.7,5.3,2.3.8,4.6,1.6,6.9,2.3a15.58,15.58,0,0,0,2-1.6c-1.1-.5-2.3-.9-3.4-1.4-4.9-1.9-9.9-3.4-14.9-5-11.1-3.7-22.2-7.6-33.1-11.7s-21.7-8.1-32.8-11.3c-9-2.6-17.8-6.4-27.1-7.4a64,64,0,0,0,2,6.2Z" transform="translate(0 -5.33)" fill="#c49776"/>
      <path d="M68.5,144.1c11.1,4,21.9,8.3,32.7,13,4.5,1.9,9,3.9,13.5,5.8a68.33,68.33,0,0,0,12-2l-6.3-2.7c-6.9-2.9-14-5.4-21.1-7.8-5.4-1.9-10.9-3.6-16.3-5.6-5.2-1.9-10.3-4.1-15.4-6.5l-15-7.2c-1-.5-2-1-3-1.4a67.9,67.9,0,0,0,7.9,10.6C61.2,141.4,64.9,142.8,68.5,144.1Z" transform="translate(0 -5.33)" fill="#c49776"/>
      <path d="M67.5,149.2c3.8,1.5,7.6,3,11.4,4.6q9.45,4,18.9,8.4c2,.3,4.1.6,6.1.7-7.5-3.6-15.1-7-22.7-10.5-4.6-2.1-9.2-4.3-14-6.1a41,41,0,0,0-5.9-2,65.74,65.74,0,0,0,5.7,4.8A2,2,0,0,1,67.5,149.2Z" transform="translate(0 -5.33)" fill="#c49776"/>
      <path d="M44,106.7a55.93,55.93,0,0,0,7.1,1.5c5.8,1.1,11.6,2.2,17.3,3.7,11.3,3.1,22.3,6.9,33.5,10.2s22.6,6.1,33.8,9.5a189,189,0,0,1,24.2,9.9c.8-.9,1.6-1.7,2.4-2.6-3.8-1.3-7.5-2.7-11.2-4.2-5.3-2.1-10.4-4.5-15.6-6.8-10.8-4.7-21.8-8.8-32.7-13.3-10.3-4.2-20.7-8.3-31.4-11.2a173.44,173.44,0,0,0-32-5.9,74.63,74.63,0,0,0,1,8.1C41.6,106,42.8,106.4,44,106.7Z" transform="translate(0 -5.33)" fill="#c49776"/>
      <path d="M105,99.3a7.27,7.27,0,0,0,2.1-.6c.3-.1.5-.3.8-.4.5-.3.5-.3.1-.6a21.53,21.53,0,0,0-4.8-3.6,50.42,50.42,0,0,0-12.1-4.6,83.46,83.46,0,0,0-12-2,133.23,133.23,0,0,1-16.6-2.6c-2.8-.6-5.6-1.3-8.3-2.1a58.94,58.94,0,0,1-5.9-2.1c-2.1-.8-4.2-1.6-6.3-2.2l-1.2-.3c-.2,1-.4,1.9-.6,2.9a35.88,35.88,0,0,1,8.3,3c.2.1.1.3-.1.3-2.9.2-5.8,0-8.7.1l-.3,3.3c7.4,1,14.8,2.3,22.2,3.7,4.5.9,9,1.7,13.5,2.6a85.72,85.72,0,0,1,8.8,1.8c3.5,1,6.9,1.9,10.5,2.7C97.7,99.3,101.5,100,105,99.3Z" transform="translate(0 -5.33)" fill="#c49776"/>
      <path d="M172.7,123.2a15.05,15.05,0,0,0-2.2-1.1c-5.6-2.6-11.3-4.7-17.1-6.9-10.2-3.9-20.4-7.7-30.2-12.5-9.5-4.6-18.8-10-26.6-17.2-7.5-7-13.7-15.2-20-23.2C71.5,55.6,66.6,48.4,60,43l-1.3,1.3c.5.9,1.1,1.9,1.7,2.8,3.1,5.1,6.3,10.1,9.1,15.2,1.3,2.4,2.5,4.8,3.6,7.3a21.28,21.28,0,0,1,1.7,6.1,5.13,5.13,0,0,1-1.1,4c-1.7,1.7-4.5,1.6-6.6,1.1C62.9,80,59.2,78,55.5,76c-4.7-2.5-9.5-4.7-14.2-7-1.2-.6-2.3-1.2-3.5-1.7a35.84,35.84,0,0,1,4.8,4.2c-.4,1.1-.7,2.3-1,3.4a92.42,92.42,0,0,1,8.9,2.9c.2.1.2.3,0,.3-3.2.7-6.3-.2-9.5-.6a.37.37,0,0,1-.1.3c1.6.4,3.2,1,4.7,1.5a109.31,109.31,0,0,0,11,3.7,145.62,145.62,0,0,0,17.2,3.5c4.3.6,8.6.9,12.9,1.7,7.7,1.4,16.5,3.7,22,9.7a.19.19,0,0,1,0,.3c-1.7,1.5-4.2,1.8-6.4,1.8a40.71,40.71,0,0,1-9.2-1.2Q88,97.6,82.9,96.1c-4.4-1.2-8.9-1.8-13.4-2.6-10-1.9-20-3.9-30.1-5.3-.1,1.6-.2,3.3-.2,4.9,4.3.4,8.7.7,12.9,1.2a281.78,281.78,0,0,1,34.1,6.8c11.3,3,22.6,6.3,33.7,9.9,10.6,3.4,21,7.3,31.6,10.8a184.84,184.84,0,0,1,18.4,6.7C170.9,126.7,171.8,125,172.7,123.2Z" transform="translate(0 -5.33)" fill="#c49776"/>
    </g>
    <g>
      <path d="M58.1,48.3c1.4-1.6,3.2-3,4.8-4.5,1.8-1.6,3.6-3.2,5.4-4.6A71.63,71.63,0,0,1,79.8,32,77.75,77.75,0,0,1,94,26.8c2.4-.6,4.7-1.4,7.1-1.8,2.6-.4,5.2-.5,7.7-.9.4-.1-.1-.7-.4-.6-2.4.2-4.9.3-7.3.5a69.31,69.31,0,0,0-7.9,1.7,76.51,76.51,0,0,0-13.9,4.9,71.78,71.78,0,0,0-12.1,7.5c-1.8,1.4-3.5,2.9-5.1,4.4s-3.8,3.2-4.9,5.1C57.2,48.1,57.9,48.6,58.1,48.3Z" transform="translate(0 -5.33)" fill="#c49776"/>
      <path d="M33.1,44.3c-2.6-2-5.2-3.9-7.7-6.1-2.2-1.9-3.9-4.3-6.3-5.9-4.5-3-9.6-.2-12.7,3.5-.2.2.4.7.6.6a31.72,31.72,0,0,1,5.4-3.6c3.3-1.6,6.1-.2,8.5,2.2,1.6,1.6,3.1,3.2,4.9,4.7,2.2,1.8,4.6,3.3,6.9,4.9C33.2,44.9,33.5,44.6,33.1,44.3Z" transform="translate(0 -5.33)" fill="#c49776"/>
      <path d="M12.7,57.8A30.08,30.08,0,0,1,7,55.7a11.13,11.13,0,0,1-4.3-4.8c-.2-.3-.9-.6-.8,0,1.2,4.8,6.5,6.9,10.9,7.5C13.3,58.5,12.9,57.9,12.7,57.8Z" transform="translate(0 -5.33)" fill="#c49776"/>
      <path d="M107.8,161.1a98.79,98.79,0,0,0,16.2-1.6c10.5-2,20.1-7,28.7-13.1.3-.2-.2-.7-.5-.5-8.6,5.2-17.7,10.1-27.6,12.3-10.5,2.3-22,2.9-32.5.4-.6-.1-.3.5.1.6C97.1,161,102.5,161.2,107.8,161.1Z" transform="translate(0 -5.33)" fill="#c49776"/>
    </g>
  </g>
  <circle cx="96" cy="40.67" r="40" fill="#ffd283"/>
  <circle cx="96" cy="40.67" r="38.67" fill="none" stroke="#191326" stroke-width="4" opacity="0.1" style="isolation: isolate"/>
  <g>
    <g>
      <path d="M72.07,62.74s-1,3.26,6.6-1.41,26.66-8.22,35.77-7.11,2.67-20.37-4.07-23.78S82.74,41.93,72.07,62.74Z" transform="translate(0 -5.33)" fill="#f7af41"/>
      <g opacity="0.3">
        <path d="M72.67,62.07s-1.63,4,6-.66,26.66-8.22,35.77-7.11,2.67-20.37-4.07-23.78S83.33,41.26,72.67,62.07Z" transform="translate(0 -5.33)" fill="#6c184e"/>
      </g>
      <path d="M73.41,64a1.28,1.28,0,0,1-.89-.22c-.74-.59-.3-1.78-.3-1.78v-.07A78.11,78.11,0,0,1,87.85,41.19c5.71-5.34,11.56-9.26,16.37-10.75,2.74-.88,4.89-.88,6.45-.14,2.44,1.26,5,4.81,6.74,9.55s2.37,9.26,1.48,11.93a3.85,3.85,0,0,1-3.78,3,2.66,2.66,0,0,1-.74-.07c-9.26-1.18-28.15,2.59-35.48,7.11C76.37,63.26,74.59,64,73.41,64Zm-.67-1.85c-.07.15-.15.74.07,1s1.34.59,5.71-2.07c3.55-2.23,10-4.3,17.48-5.78,7.26-1.41,14.15-1.93,18.52-1.33a3.22,3.22,0,0,0,3.78-2.45c.81-2.59.22-7-1.49-11.48s-4.14-8-6.44-9.19c-1.33-.66-3.41-.66-5.93.15-4.66,1.48-10.51,5.34-16,10.6A75.41,75.41,0,0,0,72.74,62.15Z" transform="translate(0 -5.33)" fill="#6c184e"/>
      <g>
        <path d="M110.81,34.59c-1.11-.22.08-.66-1.33-2.07a2.15,2.15,0,0,0-2.89-.22,1.24,1.24,0,0,0,0-1.34c-1.18-1.63-4.44-.66-5.55-2s-3.93-.07-3.93-.07S80.52,38.81,75.78,50.15,71.33,65,73.41,64.22,77,61.63,78.52,63s-.37,4,1.41,5.33a1.74,1.74,0,0,0,2.22-2.52c-1.19-1.92-2.67-5.48-.08-7.48s8.45-3,8.08-.22c-.82,6.74,6.29,3.85,4.07,1-1.92-2.44-.15-6.67,4.08-4.3,3.48,2,3.11-.74,6.59-1.85a34.89,34.89,0,0,1,7.41-.89c3.33-2,.29-2.88.29-2.88s2.82-2.15,2.08-3.63-.3-3.86-.3-6.23C114.59,36.89,111.93,34.81,110.81,34.59Z" transform="translate(0 -5.33)" fill="#ffce00"/>
        <g opacity="0.3">
          <path d="M110.81,34.59c-1.11-.22.08-.66-1.33-2.07a2.15,2.15,0,0,0-2.89-.22,1.24,1.24,0,0,0,0-1.34c-1.18-1.63-4.44-.66-5.55-2s-3.93-.07-3.93-.07a11.25,11.25,0,0,0-1.11.67c5.19,1.33,15.93,5.77,13.93,21.25,0,0-20.67,1.49-26.45,5-4.07,2.59-8.15,7.34-11.41,7.93a.87.87,0,0,0,1.26.52c2.08-.74,3.56-2.6,5.11-1.19s-.37,4,1.41,5.33a1.74,1.74,0,0,0,2.22-2.51C80.89,64,79.41,60.44,82,58.44s8.44-3,8.07-.22c-.81,6.74,6.37,3.85,4.08,1-1.93-2.45-.15-6.67,4.07-4.3,3.48,2,3.11-.74,6.59-1.85a34.27,34.27,0,0,1,7.41-.89c3.34-2,.3-2.89.3-2.89s2.81-2.15,2.07-3.7-.29-3.86-.29-6.23C114.59,36.89,111.93,34.81,110.81,34.59Z" transform="translate(0 -5.33)" fill="#6c184e"/>
        </g>
        <g opacity="0.65">
          <path d="M111.78,35.19c.07,0,.15.07.29.07a3.47,3.47,0,0,0-.81-.52C111.26,34.89,111.33,35.11,111.78,35.19Z" transform="translate(0 -5.33)" fill="#fff"/>
          <path d="M113.56,49.78Z" transform="translate(0 -5.33)" fill="#fff"/>
          <path d="M107.48,32.81a2.33,2.33,0,0,1,2-.29,2,2,0,0,0-1.78-.59A1,1,0,0,1,107.48,32.81Z" transform="translate(0 -5.33)" fill="#fff"/>
          <path d="M106.44,30.67c-1.11-1-3-.74-4.29-1.19C103,30.52,105,30.15,106.44,30.67Z" transform="translate(0 -5.33)" fill="#fff"/>
          <path d="M97.19,28.81A81.09,81.09,0,0,0,83.48,39.56c-.07.07-.22.14-.37.29S83,40,83,40.07a35.59,35.59,0,0,0-7.11,10c-4.44,10.67-4.44,14.45-2.66,14.15-.6-1.33.14-5.48,3.55-13.7a30.17,30.17,0,0,1,5.85-8.74c.08.07.08.15.15.22A1.52,1.52,0,0,0,85,41.48a1.85,1.85,0,0,0,.3-2.37c-.07-.07-.07-.07-.15-.07a125.48,125.48,0,0,1,12.45-10.3,9.69,9.69,0,0,1,3.4,0C99.93,27.56,97.19,28.81,97.19,28.81Z" transform="translate(0 -5.33)" fill="#fff"/>
        </g>
        <path d="M80.74,68.89a1.65,1.65,0,0,1-.89-.22c-1.11-.74-1.11-2-1-3.11.07-.89.07-1.78-.52-2.23-.81-.74-1.63-.44-3,.45a10.14,10.14,0,0,1-1.78.81c-.74.22-1.19.08-1.41-.15-1.55-1.55.89-8.66,3.34-14.29C78.07,44.22,83.7,38.67,88.07,35A108.42,108.42,0,0,1,97,28.59h0c.08-.07,3-1.33,4.3.15a3.44,3.44,0,0,0,2.37.74c1.18.08,2.52.22,3.26,1.26a1.73,1.73,0,0,1,.22.89,2.6,2.6,0,0,1,2.67.67,2.76,2.76,0,0,1,.89,1.77v.15a.3.3,0,0,0,.22.08h0a6,6,0,0,1,3.92,5.11c0,.52-.07,1.11-.07,1.55a12.12,12.12,0,0,0,.3,4.52c.66,1.33-.89,3-1.78,3.78a1.38,1.38,0,0,1,.89,1.18c.07.75-.52,1.41-1.78,2.15-.07,0-.07.08-.15.08a31.23,31.23,0,0,0-7.26.81A7,7,0,0,0,102.37,55c-1.18,1-2,1.55-4.22.22-1.56-.82-2.89-.82-3.63.07a3.23,3.23,0,0,0,.07,3.78,2,2,0,0,1,.08,2.59,2.89,2.89,0,0,1-3.19.89c-.74-.29-2-1.26-1.55-4.37a.73.73,0,0,0-.45-.89c-1.33-.74-5.11.08-7.11,1.48-2.44,1.86-.67,5.49.15,7a2,2,0,0,1-.37,2.66A1.88,1.88,0,0,1,80.74,68.89Zm-3.33-6.74a1.84,1.84,0,0,1,1.4.59c.82.74.75,1.93.75,2.82s-.08,1.92.66,2.44a1.4,1.4,0,0,0,1.56-.3c.37-.22.66-.81.15-1.77-1-1.63-2.89-5.78,0-7.93,2-1.48,6.07-2.59,7.85-1.56a1.41,1.41,0,0,1,.74,1.63c-.22,1.93.15,3.26,1.18,3.56A2.22,2.22,0,0,0,94.07,61,1.39,1.39,0,0,0,94,59.19a3.69,3.69,0,0,1-.07-4.6c1-1.18,2.74-1.26,4.59-.22,2,1.11,2.52.67,3.48-.15a6.34,6.34,0,0,1,2.81-1.63,30,30,0,0,1,7.41-.89c1.19-.74,1.34-1.18,1.34-1.4-.08-.45-.75-.74-1-.82a.34.34,0,0,1-.22-.22.4.4,0,0,1,.15-.37c.67-.52,2.52-2.22,2-3.26a11,11,0,0,1-.45-4.82c0-.51.08-1,.08-1.55.07-2.15-2.37-4.07-3.34-4.3-.66-.15-.74-.44-.74-.81a1.55,1.55,0,0,0-.66-1.26,2,2,0,0,0-2.52-.22.51.51,0,0,1-.45,0,.45.45,0,0,1-.07-.45c.3-.66.15-.89.07-1a3.51,3.51,0,0,0-2.74-1,4,4,0,0,1-2.81-1c-.82-.89-2.74-.29-3.48,0a72.76,72.76,0,0,0-8.82,6.37c-4.22,3.49-9.92,8.89-12.37,14.74a56.66,56.66,0,0,0-3.41,9.93c-.59,2.74-.22,3.48,0,3.63s.23.22.67,0A8.14,8.14,0,0,0,75,63.19,4.72,4.72,0,0,1,77.41,62.15Z" transform="translate(0 -5.33)" fill="#6c184e"/>
      </g>
      <path d="M99.63,51.93c2-.37,4-.67,6.07-.89,1-.15,2-.23,3.11-.37s2-.15,3.12-.15a.34.34,0,0,1,.29.37.32.32,0,0,1-.29.3h-3c-1,0-2,.07-3,.14A59.48,59.48,0,0,0,99.63,51.93Z" transform="translate(0 -5.33)" fill="#6c184e"/>
    </g>
    <g opacity="0.3">
      <path d="M106.15,30.52Z" transform="translate(0 -5.33)" fill="#6c184e"/>
      <path d="M114,37.48c-.07,2.45-.44,4.74.3,6.22,0,.08.07.15.07.23-.15-1.34.07-3,.07-4.67a2.55,2.55,0,0,0-.44-1.78Z" transform="translate(0 -5.33)" fill="#6c184e"/>
      <path d="M114.44,44.22c0,1.41-2.22,3.19-2.22,3.19s1.19.37,1.26,1.18c.74-.74,1.78-2,1.33-3A4.58,4.58,0,0,1,114.44,44.22Z" transform="translate(0 -5.33)" fill="#6c184e"/>
    </g>
    <g>
      <ellipse cx="99.48" cy="35.92" rx="5.11" ry="4.07" transform="translate(-3.56 54.44) rotate(-32.89)" fill="#ee1822"/>
      <g opacity="0.65">
        <path d="M100.15,39.93c-2.52.66-4.67-.6-4.89-2.82a5.42,5.42,0,0,1,4.15-5.18,4,4,0,0,1,4.37,1.26A4.13,4.13,0,0,0,99,31.63c-2.67.67-4.67,3.18-4.45,5.48s2.6,3.63,5.19,3a6.28,6.28,0,0,0,1.92-.88A3.78,3.78,0,0,1,100.15,39.93Z" transform="translate(0 -5.33)" fill="#fff"/>
      </g>
      <path d="M99.85,32.67l.59,6.14A4.26,4.26,0,0,0,103,35,2.75,2.75,0,0,0,99.85,32.67Z" transform="translate(0 -5.33)" fill="#bd1622"/>
      <path d="M98.37,33a4.18,4.18,0,0,0-2.52,3.85A2.79,2.79,0,0,0,99,39.19Z" transform="translate(0 -5.33)" fill="#bd1622"/>
      <path d="M98.37,33a4.18,4.18,0,0,0-2.52,3.85A2.79,2.79,0,0,0,99,39.19Z" transform="translate(0 -5.33)" fill="#bd1622"/>
      <path d="M98.59,35.11a1.25,1.25,0,0,0-.81,1.26.83.83,0,0,0,1,.74Z" transform="translate(0 -5.33)" fill="#ee1822"/>
      <path d="M100,34.74c.52,0,1,.22,1,.74a1.31,1.31,0,0,1-.81,1.26Z" transform="translate(0 -5.33)" fill="#ee1822"/>
      <path d="M98.44,40.59a4.42,4.42,0,0,1-2.59-.74,3.37,3.37,0,0,1-1.48-2.66c-.22-2.52,1.85-5.12,4.67-5.78a4.77,4.77,0,0,1,4.07.59,3.39,3.39,0,0,1,1.48,2.67c.22,2.52-1.85,5.11-4.66,5.77A5.27,5.27,0,0,1,98.44,40.59Zm2-8.74a9.84,9.84,0,0,0-1.33.15c-2.52.67-4.44,3-4.15,5.19a2.91,2.91,0,0,0,1.26,2.22,4.47,4.47,0,0,0,3.56.52c2.52-.67,4.44-3,4.15-5.19a2.88,2.88,0,0,0-1.26-2.22A3.44,3.44,0,0,0,100.44,31.85Z" transform="translate(0 -5.33)" fill="#6c184e"/>
      <g>
        <path d="M97.85,37.85c0,.08.08.15.08.22v.23c0,.07-.08.14-.23.14s-.14-.07-.14-.22v-.07c0-.08.07-.15.14-.22S97.78,37.93,97.85,37.85Z" transform="translate(0 -5.33)" fill="#f6c547"/>
        <path d="M97.19,37.26a.26.26,0,0,1-.08.22c0,.08-.07.15-.07.22s-.15.08-.3.08-.07-.15-.07-.3v-.07a.25.25,0,0,1,.22-.08C96.89,37.26,97,37.26,97.19,37.26Z" transform="translate(0 -5.33)" fill="#f6c547"/>
        <path d="M96.89,36.22c-.08.08-.08.15-.15.15l-.15.15a.14.14,0,0,1-.22-.08c-.07-.07,0-.22.07-.22h.3C96.74,36.15,96.81,36.15,96.89,36.22Z" transform="translate(0 -5.33)" fill="#f6c547"/>
        <path d="M97.33,35.19a.29.29,0,0,0-.22.07h-.22c-.08,0-.15-.15-.15-.22s.15-.15.22-.15H97c.07,0,.07.07.15.15S97.26,35.19,97.33,35.19Z" transform="translate(0 -5.33)" fill="#f6c547"/>
        <path d="M98.15,34.52c-.08,0-.15-.08-.22-.08s-.15-.07-.15-.14a.18.18,0,0,1,.07-.3.19.19,0,0,1,.3.07v.45Z" transform="translate(0 -5.33)" fill="#f6c547"/>
      </g>
      <g>
        <path d="M101.26,36.89c.07.07.15.07.22.15l.15.15c.07.07,0,.22-.07.29s-.23,0-.3-.07v-.52Z" transform="translate(0 -5.33)" fill="#f6c547"/>
        <path d="M101.85,36h.45c.07,0,.14.15.14.22s-.14.15-.22.15h-.07l-.15-.15C101.93,36.15,101.85,36.07,101.85,36Z" transform="translate(0 -5.33)" fill="#f6c547"/>
        <path d="M101.85,34.89l.15-.15c.07-.07.07-.07.15-.07s.22,0,.22.07,0,.22-.07.22H102A.25.25,0,0,1,101.85,34.89Z" transform="translate(0 -5.33)" fill="#f6c547"/>
        <path d="M101.26,34.15c0-.08.07-.15.07-.22s.08-.15.08-.23.15-.07.29-.07.08.15.08.37l-.08.07a.25.25,0,0,1-.22.08A.13.13,0,0,0,101.26,34.15Z" transform="translate(0 -5.33)" fill="#f6c547"/>
        <path d="M100.3,33.93c0-.08-.08-.15-.08-.23v-.22c0-.07.08-.15.22-.15s.15.08.15.23v.07c0,.07-.07.15-.15.22C100.52,33.7,100.44,33.85,100.3,33.93Z" transform="translate(0 -5.33)" fill="#f6c547"/>
      </g>
      <path d="M100.44,39c-.07,0-.07,0-.14-.08s-.15-.15-.15-.22l-.59-6.15a.28.28,0,0,1,.07-.22c.07-.07.07-.07.15-.07a3,3,0,0,1,3.48,2.59A4.46,4.46,0,0,1,100.52,39Zm-.29-6.15.52,5.41A3.78,3.78,0,0,0,102.74,35a2.45,2.45,0,0,0-2.59-2.07Z" transform="translate(0 -5.33)" fill="#bd1622"/>
      <path d="M98.67,39.48a3.09,3.09,0,0,1-3.19-2.59,4.23,4.23,0,0,1,2.67-4.08h.22c.07.08.15.15.15.23l.59,6.15a.29.29,0,0,1-.07.22c-.08.07-.08.07-.15.07Zm-.6-6a3.84,3.84,0,0,0-2,3.33,2.3,2.3,0,0,0,2.52,2.08Z" transform="translate(0 -5.33)" fill="#bd1622"/>
    </g>
    <g>
      <ellipse cx="88.74" cy="46.89" rx="4.74" ry="3.85" transform="translate(-11.24 50.37) rotate(-32.89)" fill="#ee1822"/>
      <g opacity="0.65">
        <path d="M89.48,50.67c-2.37.59-4.44-.6-4.59-2.67a5,5,0,0,1,3.92-4.81,3.72,3.72,0,0,1,4.08,1.18C92.15,43,90.37,42.44,88.44,43a5.3,5.3,0,0,0-4.14,5.11c.14,2.15,2.44,3.41,4.81,2.74A5.65,5.65,0,0,0,91,50,3.81,3.81,0,0,1,89.48,50.67Z" transform="translate(0 -5.33)" fill="#fff"/>
      </g>
      <path d="M89.19,43.85l.51,5.78a3.84,3.84,0,0,0,2.45-3.56A2.53,2.53,0,0,0,89.19,43.85Z" transform="translate(0 -5.33)" fill="#bd1622"/>
      <path d="M87.78,44.22a3.77,3.77,0,0,0-2.37,3.56,2.41,2.41,0,0,0,2.89,2.15Z" transform="translate(0 -5.33)" fill="#bd1622"/>
      <path d="M87.78,44.22a3.77,3.77,0,0,0-2.37,3.56,2.41,2.41,0,0,0,2.89,2.15Z" transform="translate(0 -5.33)" fill="#bd1622"/>
      <path d="M88,46.15a1.1,1.1,0,0,0-.74,1.18.81.81,0,0,0,.89.74Z" transform="translate(0 -5.33)" fill="#ee1822"/>
      <path d="M89.33,45.85c.52,0,.89.22.89.74s-.29.89-.74,1.19Z" transform="translate(0 -5.33)" fill="#ee1822"/>
      <path d="M87.85,51.33a3.94,3.94,0,0,1-2.44-.74A3.34,3.34,0,0,1,84,48.07c-.22-2.37,1.78-4.74,4.3-5.4a4.6,4.6,0,0,1,3.85.59,3.4,3.4,0,0,1,1.41,2.52h0c.22,2.37-1.78,4.74-4.3,5.41A12.13,12.13,0,0,1,87.85,51.33Zm1.85-8.22a7.87,7.87,0,0,0-1.26.15,5,5,0,0,0-3.92,4.81,3,3,0,0,0,1.18,2.08,4.18,4.18,0,0,0,3.34.44A5,5,0,0,0,93,45.78h0a3,3,0,0,0-1.18-2.08A3.79,3.79,0,0,0,89.7,43.11Z" transform="translate(0 -5.33)" fill="#6c184e"/>
      <g>
        <path d="M87.7,48.81a.24.24,0,0,1,.08.15c0,.08.07.15.07.23a.15.15,0,0,1-.15.14.15.15,0,0,1-.14-.14v-.08a.38.38,0,0,1,.14-.3Z" transform="translate(0 -5.33)" fill="#f6c547"/>
        <path d="M86.89,48.52v.22a.26.26,0,0,1-.08.22.14.14,0,0,1-.22.08c-.07-.08-.15-.15-.07-.23h0l.15-.14C86.74,48.59,86.81,48.52,86.89,48.52Z" transform="translate(0 -5.33)" fill="#f6c547"/>
        <path d="M86.52,47.63c0,.07-.08.15-.08.22s-.07.15-.14.15a.15.15,0,0,1-.23,0,.14.14,0,0,1,0-.22h0c.08,0,.15-.08.23-.08S86.44,47.63,86.52,47.63Z" transform="translate(0 -5.33)" fill="#f6c547"/>
        <path d="M86.59,46.74a.23.23,0,0,1-.15.07.24.24,0,0,0-.14.08.15.15,0,0,1,0-.3h.07c.07,0,.15,0,.22.15C86.44,46.67,86.52,46.67,86.59,46.74Z" transform="translate(0 -5.33)" fill="#f6c547"/>
        <path d="M87.19,45.93a.27.27,0,0,1-.23-.08.25.25,0,0,1-.22-.29.26.26,0,0,1,.22-.08h0c.08.08.08.08.08.15A.57.57,0,0,1,87.19,45.93Z" transform="translate(0 -5.33)" fill="#f6c547"/>
      </g>
      <g>
        <path d="M90.52,47.85l.15.15.14.15c.08.07,0,.15-.07.22s-.15,0-.22-.07v-.45Z" transform="translate(0 -5.33)" fill="#f6c547"/>
        <path d="M91,47h.37c.08,0,.15.15.08.23s-.15.14-.22.07h-.08c-.07,0-.07-.07-.15-.15C91.11,47,91.11,47,91,47Z" transform="translate(0 -5.33)" fill="#f6c547"/>
        <path d="M91,46l.15-.15c.08-.07.08-.07.15-.07a.28.28,0,0,1,.22.07.27.27,0,0,1-.07.22h-.3C91.19,46.07,91.11,46,91,46Z" transform="translate(0 -5.33)" fill="#f6c547"/>
        <path d="M90.52,45.26c0-.07.07-.15.07-.22a.24.24,0,0,1,.08-.15c.07-.08.14-.08.22,0a.14.14,0,0,1,0,.22h0c-.08.08-.08.08-.15.08A.28.28,0,0,1,90.52,45.26Z" transform="translate(0 -5.33)" fill="#f6c547"/>
        <path d="M89.7,45a.28.28,0,0,0-.07-.22v-.22a.15.15,0,0,1,.15-.15.16.16,0,0,1,.15.15h0a.28.28,0,0,1-.08.15C89.78,44.89,89.78,45,89.7,45Z" transform="translate(0 -5.33)" fill="#f6c547"/>
      </g>
      <path d="M89.7,49.93c-.07,0-.07,0-.14-.08s-.15-.15-.15-.22l-.52-5.78a.28.28,0,0,1,.07-.22.3.3,0,0,1,.23-.07,2.87,2.87,0,0,1,3.33,2.51A4.13,4.13,0,0,1,89.93,50C89.78,49.93,89.78,49.93,89.7,49.93Zm-.22-5.78.52,5a3.35,3.35,0,0,0,1.85-3.12A2.22,2.22,0,0,0,89.48,44.15Z" transform="translate(0 -5.33)" fill="#bd1622"/>
      <path d="M88.07,50.3a2.8,2.8,0,0,1-3-2.52,4,4,0,0,1,2.59-3.85c.08-.08.15,0,.23,0s.14.14.14.22l.52,5.78a.25.25,0,0,1-.29.29A.27.27,0,0,1,88.07,50.3Zm-.59-5.56a3.51,3.51,0,0,0-1.85,3.11,2,2,0,0,0,2.22,1.93Z" transform="translate(0 -5.33)" fill="#bd1622"/>
    </g>
    <g>
      <g>
        <path d="M82.52,46.3c-3.26.14-3.33,1.77-2.22,4.29C82.15,49.85,83.41,48.3,82.52,46.3Z" transform="translate(0 -5.33)" fill="#48c75a"/>
        <path d="M80.07,51.19h0c-.14,0-.22-.08-.22-.15-.52-1.41-.81-2.89-.15-3.93.52-.67,1.41-1,2.82-1.11.07,0,.22.07.22.15A2.79,2.79,0,0,1,83,48.59a5,5,0,0,1-2.74,2.6Zm2.15-4.6c-1.11.08-1.78.37-2.07.82-.52.66-.22,1.92.15,3a4,4,0,0,0,2.07-2.07A2.19,2.19,0,0,0,82.22,46.59Z" transform="translate(0 -5.33)" fill="#661a47"/>
        <path d="M82.59,46.59A1.16,1.16,0,0,0,82,47a4.69,4.69,0,0,0-.59.59A5.25,5.25,0,0,0,80.59,49c0-.37.08-.6.08-.82a1.84,1.84,0,0,1,.37-.81l.52-.74a1.77,1.77,0,0,1,.81-.52.28.28,0,0,1,.37.22c0,.07-.07.15-.15.22Z" transform="translate(0 -5.33)" fill="#651b47"/>
      </g>
      <g>
        <path d="M88.37,37.41c2.82-1.48,3.78-.08,4.15,2.59C90.44,40.3,88.59,39.78,88.37,37.41Z" transform="translate(0 -5.33)" fill="#48c75a"/>
        <path d="M92,40.59a4.63,4.63,0,0,1-2.89-.89,2.79,2.79,0,0,1-1-2.14c0-.08.07-.23.15-.23a3.59,3.59,0,0,1,3-.52c1.11.52,1.48,2,1.85,3.49a.29.29,0,0,1-.07.22.3.3,0,0,1-.23.07Zm-3.33-3a2.19,2.19,0,0,0,.74,1.55,4.05,4.05,0,0,0,2.81.74c-.22-1.18-.66-2.37-1.41-2.66C90.3,37,89.7,37,88.67,37.56Z" transform="translate(0 -5.33)" fill="#661a47"/>
        <path d="M88.22,37.19a2,2,0,0,1,1,0,2.61,2.61,0,0,1,.81.37,1.25,1.25,0,0,1,.67.59c.14.22.44.44.52.66A6.79,6.79,0,0,0,89.78,38a2.78,2.78,0,0,0-.74-.15,2.62,2.62,0,0,0-.74,0h0c-.15,0-.3-.07-.3-.22C88.07,37.33,88.15,37.19,88.22,37.19Z" transform="translate(0 -5.33)" fill="#651b47"/>
      </g>
      <g>
        <path d="M101.11,47.63c-2.22-2.07-3.33-1-4.3,1.33C98.59,49.78,100.44,49.63,101.11,47.63Z" transform="translate(0 -5.33)" fill="#48c75a"/>
        <path d="M98.44,49.78a5.13,5.13,0,0,1-2-.45.15.15,0,0,1-.14-.14V49c.66-1.26,1.33-2.52,2.51-2.66.75-.15,1.56.22,2.6,1.18.07.08.07.15.07.37a2.84,2.84,0,0,1-1.41,1.78C99.48,49.63,99,49.78,98.44,49.78Zm-1.55-.89a4.23,4.23,0,0,0,2.74,0,2.36,2.36,0,0,0,1.11-1.26,2.52,2.52,0,0,0-1.93-.89C98.07,47,97.41,47.93,96.89,48.89Z" transform="translate(0 -5.33)" fill="#661a47"/>
        <path d="M101,47.93a1.7,1.7,0,0,0-.67-.15h-.74a5.36,5.36,0,0,0-1.48.37,5.43,5.43,0,0,1,.66-.52,3.36,3.36,0,0,1,.75-.3,3.28,3.28,0,0,1,.81-.14,2,2,0,0,1,.89.22c.15.07.15.22.07.44s-.14.08-.29.08Z" transform="translate(0 -5.33)" fill="#651b47"/>
      </g>
      <g>
        <path d="M75.78,52.81a1.37,1.37,0,0,1,.52.08c.14,0,.37.07.51.07s.3.08.52.08a2.83,2.83,0,0,1,.6.22h0a.57.57,0,0,1,.14.59c-.07.15-.44.22-.59.15a.07.07,0,0,1-.07-.07.38.38,0,0,0-.3-.15,2.23,2.23,0,0,0-.44-.15c-.15-.07-.37-.07-.45-.15s-.37-.07-.52-.07h0c-.14,0-.22-.15-.22-.3S75.56,52.81,75.78,52.81Z" transform="translate(0 -5.33)" fill="#48c75a"/>
        <g opacity="0.3">
          <path d="M75.78,52.81a1.37,1.37,0,0,1,.52.08c.14,0,.37.07.51.07s.3.08.52.08a2.83,2.83,0,0,1,.6.22h0a.57.57,0,0,1,.14.59c-.07.15-.44.22-.59.15a.07.07,0,0,1-.07-.07.38.38,0,0,0-.3-.15,2.23,2.23,0,0,0-.44-.15c-.15-.07-.37-.07-.45-.15s-.37-.07-.52-.07h0c-.14,0-.22-.15-.22-.3S75.56,52.81,75.78,52.81Z" transform="translate(0 -5.33)" fill="#6c184e"/>
        </g>
        <path d="M77.63,54.37a.86.86,0,0,1-.37-.07l-.07-.08a1.33,1.33,0,0,0-.23-.15c-.07-.07-.22-.07-.44-.14a2.13,2.13,0,0,0-.45-.15,1,1,0,0,0-.44-.08c-.15,0-.22-.07-.37-.22s-.07-.22-.07-.44a.54.54,0,0,1,.51-.45h0a1.18,1.18,0,0,1,.52.08c.15,0,.3.07.52.07s.45.07.59.07.45.08.6.23h0a.57.57,0,0,1,.22.89A.55.55,0,0,1,77.63,54.37ZM75.78,53h0a1.1,1.1,0,0,0,.52.15c.14.07.37.07.51.14s.3.08.45.15l.44.22h0c.08.08.15,0,.23-.07s0-.15-.08-.22h0a1,1,0,0,0-.52-.15,1.31,1.31,0,0,0-.52-.07c-.14,0-.37-.08-.51-.08s-.37-.07-.52-.07Z" transform="translate(0 -5.33)" fill="#661a47"/>
        <g>
          <path d="M76.15,53.19c-1-3.56-5.19-.67-5.19-.67S74.22,56.37,76.15,53.19Z" transform="translate(0 -5.33)" fill="#48c75a"/>
          <g opacity="0.65">
            <path d="M76.07,53.26h0c-1-3.63-5.11-.67-5.11-.67a.87.87,0,0,0,.37.3C72.07,52.3,75.11,50.67,76.07,53.26Z" transform="translate(0 -5.33)" fill="#fff"/>
          </g>
          <path d="M74.15,54.74c-1.85,0-3.56-1.93-3.63-2s-.08-.07-.08-.15a.28.28,0,0,1,.08-.15c.07-.07,2.59-1.7,4.29-1a2.32,2.32,0,0,1,1.49,1.85v.15a2.74,2.74,0,0,1-1.93,1.41C74.37,54.74,74.22,54.74,74.15,54.74Zm-3-2.15c.52.52,2,1.78,3.33,1.63a2,2,0,0,0,1.49-1.11,2,2,0,0,0-1.19-1.41C73.48,51.33,71.78,52.15,71.11,52.59Z" transform="translate(0 -5.33)" fill="#661a47"/>
          <g>
            <line x1="76.15" y1="47.85" x2="73.33" y2="47.48" fill="none"/>
            <path d="M76.07,53.41c-.22,0-.51-.08-.66-.08a2.29,2.29,0,0,1-.67-.14,4.18,4.18,0,0,1-1.33-.45h2.07c.22,0,.52.07.67.07s.22.15.15.3S76.22,53.41,76.07,53.41Z" transform="translate(0 -5.33)" fill="#651b47"/>
          </g>
        </g>
        <path d="M74.07,54.74a9,9,0,0,0,.89-.81c.23-.23.67-.52,1-.82.07-.07.22-.07.37.08a.18.18,0,0,1-.08.29h0a11.35,11.35,0,0,1-1.11.59C74.81,54.22,74.44,54.52,74.07,54.74Z" transform="translate(0 -5.33)" fill="#661a47"/>
        <g>
          <path d="M76.15,53.26s-2.08.15-2.59,3.78C73.56,57,77.85,55.63,76.15,53.26Z" transform="translate(0 -5.33)" fill="#48c75a"/>
          <g opacity="0.65">
            <path d="M74.15,56.67c.44-3,2.07-3.19,2.15-3.19-.08-.07-.08-.15-.15-.22s-2.08.15-2.59,3.78a11,11,0,0,0,1.77-.82A6.45,6.45,0,0,1,74.15,56.67Z" transform="translate(0 -5.33)" fill="#fff"/>
          </g>
          <path d="M73.56,57.26c-.08,0-.08,0-.15-.07a.27.27,0,0,1-.08-.23c.52-3.85,2.74-4,2.82-4a.26.26,0,0,1,.22.08,2,2,0,0,1,.37,1.85c-.59,1.48-3,2.37-3.18,2.37ZM76,53.48c-.44.08-1.78.59-2.15,3.19a4.08,4.08,0,0,0,2.45-1.93A1.39,1.39,0,0,0,76,53.48Z" transform="translate(0 -5.33)" fill="#661a47"/>
          <path d="M74.89,54.81a5.79,5.79,0,0,1,.52-.88,7.32,7.32,0,0,1,.52-.82c.07-.07.22-.15.29-.07s.15.22.08.29l-.08.08a5.13,5.13,0,0,0-.66.66A2.83,2.83,0,0,1,74.89,54.81Z" transform="translate(0 -5.33)" fill="#661a47"/>
        </g>
        <g>
          <path d="M76.07,53.26s-2-.74-1.33-4.45C74.81,48.81,78.52,51.48,76.07,53.26Z" transform="translate(0 -5.33)" fill="#48c75a"/>
          <g opacity="0.65">
            <path d="M75.41,49.33a2.05,2.05,0,0,0-.6-.52c-.66,3.71,1.34,4.45,1.34,4.45l.07-.07C75.85,52.81,74.81,51.85,75.41,49.33Z" transform="translate(0 -5.33)" fill="#fff"/>
          </g>
          <path d="M76.07,53.48h0c-.14,0-2.22-.89-1.48-4.67a.16.16,0,0,1,.15-.14H75c.08.07,2.15,1.55,2.15,3.18a2,2,0,0,1-.89,1.56C76.22,53.48,76.15,53.48,76.07,53.48Zm-1-4.22c-.3,2.59.74,3.41,1.11,3.63a1.24,1.24,0,0,0,.59-1.11C76.67,50.81,75.56,49.78,75,49.26Z" transform="translate(0 -5.33)" fill="#661a47"/>
          <path d="M75.48,51.33a3.1,3.1,0,0,0,.45.89,8.21,8.21,0,0,0,.44.89c.07.08,0,.22-.07.3s-.23,0-.3-.08v-.07c-.07-.3-.15-.67-.22-1A1.67,1.67,0,0,1,75.48,51.33Z" transform="translate(0 -5.33)" fill="#661a47"/>
        </g>
      </g>
    </g>
    <path d="M72.44,63.19h0a.07.07,0,0,1,.08.07h.22a1.56,1.56,0,0,0,.59-.15,5.72,5.72,0,0,0,1.19-.67c.74-.51,1.55-1,2.37-1.55S78.37,59.7,79,59.11a3.64,3.64,0,0,0,.52-.52l.51-.52.23-.22.22-.22.15-.07.14-.08.23-.22a20.47,20.47,0,0,1,5.11-2.59c.89-.3,1.85-.6,2.74-.82s1.85-.44,2.74-.59a29,29,0,0,0-5.41,1.55A16.89,16.89,0,0,0,83.63,56a20.36,20.36,0,0,0-2.44,1.48L81,57.7v.08l-.15.07-.22.22-.22.23a3.1,3.1,0,0,0-.52.51l-.52.52a25.46,25.46,0,0,1-2.14,1.86,13.66,13.66,0,0,1-2.38,1.62c-.44.23-.81.52-1.25.75-.23.07-.52.14-.75.22H72.3c-.08,0-.15-.08-.23-.08l-.22-.22a.48.48,0,0,1,.08-.44c.14-.15.37-.08.51.15Z" transform="translate(0 -5.33)" fill="#6c184e"/>
    <g>
      <g opacity="0.3">
        <ellipse cx="108" cy="48.66" rx="0.52" ry="0.3" transform="translate(-8.75 23.31) rotate(-14.53)" fill="#6c184e"/>
      </g>
      <g opacity="0.3">
        <ellipse cx="105.77" cy="47.33" rx="0.81" ry="0.59" transform="translate(-8.49 22.71) rotate(-14.53)" fill="#6c184e"/>
      </g>
      <g opacity="0.3">
        <ellipse cx="100.66" cy="43.92" rx="0.59" ry="0.52" transform="translate(-9.03 33.05) rotate(-20.68)" fill="#6c184e"/>
      </g>
      <g opacity="0.3">
        <ellipse cx="106.51" cy="38" rx="0.44" ry="0.3" transform="translate(-6.56 34.74) rotate(-20.68)" fill="#6c184e"/>
      </g>
      <g opacity="0.3">
        <ellipse cx="107.33" cy="42.37" rx="0.52" ry="0.44" transform="translate(-8.05 35.31) rotate(-20.68)" fill="#6c184e"/>
      </g>
      <g opacity="0.3">
        <path d="M102.67,41c.07.15-.08.3-.23.45a.45.45,0,0,1-.51-.15c-.08-.15.07-.37.22-.45S102.59,40.81,102.67,41Z" transform="translate(0 -5.33)" fill="#6c184e"/>
      </g>
      <g opacity="0.3">
        <ellipse cx="95.41" cy="46.66" rx="0.44" ry="0.3" transform="translate(-9.27 59.29) rotate(-35.8)" fill="#6c184e"/>
      </g>
      <g opacity="0.3">
        <ellipse cx="96.52" cy="42.37" rx="0.44" ry="0.3" transform="translate(-6.55 59.12) rotate(-35.8)" fill="#6c184e"/>
      </g>
      <g opacity="0.3">
        <ellipse cx="82.96" cy="53.63" rx="0.59" ry="0.52" transform="translate(-15.7 53.32) rotate(-35.8)" fill="#6c184e"/>
      </g>
      <g opacity="0.3">
        <ellipse cx="83.33" cy="50.45" rx="0.52" ry="0.44" transform="translate(-13.77 52.94) rotate(-35.8)" fill="#6c184e"/>
      </g>
      <g opacity="0.3">
        <ellipse cx="78.52" cy="56.52" rx="0.3" ry="0.22" transform="translate(-18.23 51.27) rotate(-35.8)" fill="#6c184e"/>
      </g>
      <g opacity="0.3">
        <ellipse cx="83.33" cy="44.81" rx="0.52" ry="0.44" transform="translate(-10.47 51.87) rotate(-35.8)" fill="#6c184e"/>
      </g>
      <g opacity="0.3">
        <ellipse cx="87.7" cy="41.63" rx="0.67" ry="0.52" transform="translate(-7.78 53.83) rotate(-35.8)" fill="#6c184e"/>
      </g>
    </g>
    <g>
      <g>
        <g>
          <path d="M112.22,49.56c-.59,3.48,7.41,4.07,7.41,4.07s5.11-11.93-3.11-22.07-19.41-8.67-20.59-6.23a2.41,2.41,0,0,0,1.18,3.48S115.56,30.52,112.22,49.56Z" transform="translate(0 -5.33)" fill="#eb984e"/>
          <g opacity="0.65">
            <path d="M116.59,31.56c-8.22-10.15-19.4-8.67-20.59-6.23a2.37,2.37,0,0,0,1.11,3.41,2,2,0,0,1-.22-2.59c.22-.52,1.11-1,2.15-1.34-.23.15-.45.38-.3.52.07.37.82.52,1.63.37s1.48-.59,1.48-.89c0-.14-.15-.22-.29-.37,4-.07,9.77,1.56,14.51,7.41C123.7,41.26,119,52.37,119,52.37s-5.33-.37-6.59-2.44c.15,3.11,7.41,3.55,7.41,3.55S124.74,41.78,116.59,31.56Z" transform="translate(0 -5.33)" fill="#fff"/>
          </g>
          <g opacity="0.3">
            <path d="M119.63,53.63a22.59,22.59,0,0,0,1.18-4.15,10.16,10.16,0,0,0-3.4-2,3,3,0,0,1-1.85-2.89c.22-3.26.22-7.4-2.6-10.89-6.44-7.92-15.11-6.81-16.22-5a2.44,2.44,0,0,0,.45.22s18.44,1.55,15.11,20.67C111.7,53,119.63,53.63,119.63,53.63Z" transform="translate(0 -5.33)" fill="#6c184e"/>
          </g>
          <path d="M119.63,54h0c-.22,0-5.56-.44-7.26-2.59a2.7,2.7,0,0,1-.52-1.93c1-5.7.15-10.29-2.59-13.85C105,29.93,97.11,29.19,97,29.19H97a3.11,3.11,0,0,1-1.55-1.78,3,3,0,0,1,.22-2.22c.52-.89,2.07-1.63,4.22-1.93,4.67-.52,11.56,1.33,16.89,8.07a22.26,22.26,0,0,1,4.74,15.11,22.17,22.17,0,0,1-1.55,7.34C119.93,53.93,119.85,54,119.63,54Zm-7.41-4.44.3.07a1.7,1.7,0,0,0,.29,1.33c1.34,1.63,5.41,2.15,6.52,2.3a24.28,24.28,0,0,0,1.41-6.89,21.08,21.08,0,0,0-4.59-14.59c-5.26-6.52-11.85-8.22-16.37-7.85-2.08.22-3.41.88-3.63,1.48a2.06,2.06,0,0,0,1,3,16.29,16.29,0,0,1,4.59,1.12,16.89,16.89,0,0,1,8.08,5.55c2.81,3.63,3.78,8.52,2.66,14.45Z" transform="translate(0 -5.33)" fill="#6c184e"/>
        </g>
        <path d="M119.63,53.63s-1.56,1.78-4.67.81-3.85-3.11-2.74-4.88S121.93,50,119.63,53.63Z" transform="translate(0 -5.33)" fill="#f7af41"/>
        <g opacity="0.3">
          <path d="M119.63,53.63s-1.56,1.78-4.67.81-3.85-3.11-2.74-4.88S121.93,50,119.63,53.63Z" transform="translate(0 -5.33)" fill="#6c184e"/>
        </g>
        <path d="M116.81,55.11a6.18,6.18,0,0,1-1.92-.3c-2.15-.66-3-1.77-3.26-2.59a3.42,3.42,0,0,1,.3-2.81,2.57,2.57,0,0,1,2.37-.74c2.07.07,5,1.18,5.85,2.74a2.26,2.26,0,0,1-.15,2.52V54A5.72,5.72,0,0,1,116.81,55.11Zm-2.74-5.85c-.74,0-1.33.15-1.48.52a2.09,2.09,0,0,0-.22,2.15,3.86,3.86,0,0,0,2.82,2.14,4.11,4.11,0,0,0,4.22-.66,1.73,1.73,0,0,0,.07-1.78c-.74-1.33-3.33-2.37-5.26-2.44C114.15,49.26,114.15,49.26,114.07,49.26Zm5.56,4.37Z" transform="translate(0 -5.33)" fill="#6c184e"/>
      </g>
      <g>
        <path d="M101.48,27.33a1.31,1.31,0,0,1-.07-.52,1.29,1.29,0,0,1,.07-.51l.22-.45a.68.68,0,0,1,.45-.22,2,2,0,0,0-.22.44c-.08.23-.15.23-.15.45a2.23,2.23,0,0,0-.15.44C101.56,27,101.56,27.19,101.48,27.33Z" transform="translate(0 -5.33)" fill="#6d184e"/>
        <path d="M102.52,27.93a1.87,1.87,0,0,1,0-.67,1.19,1.19,0,0,1,.22-.67,1.11,1.11,0,0,1,.45-.59c.07,0,.07-.07.14-.07s.08-.08.15-.08.08-.07.15-.07.07,0,.15-.08c-.15.15-.3.37-.45.52a1.94,1.94,0,0,0-.29.52,2.58,2.58,0,0,0-.23.59A.68.68,0,0,0,102.52,27.93Z" transform="translate(0 -5.33)" fill="#6d184e"/>
      </g>
      <g>
        <path d="M115.56,42.89c.14-.15.44-.22.66-.37a2.34,2.34,0,0,1,.74-.08,2.71,2.71,0,0,1,.74.15c.08,0,.08.08.15.08s.08.07.15.07.07.07.15.07.07.08.07.15a3,3,0,0,0-.66-.15,2.22,2.22,0,0,0-.67-.07h-.67C116.07,42.81,115.85,42.81,115.56,42.89Z" transform="translate(0 -5.33)" fill="#6d184e"/>
        <path d="M115.26,44.52a4.52,4.52,0,0,1,1-.3,2.22,2.22,0,0,1,1,0,.26.26,0,0,1,.22.08c.08,0,.15.07.22.07s.15.07.23.07l.07.08.07.07c.08.08.15.08.23.15s.14.07.14.15l.08.07.07.08c.08.07.08.15.15.15a4.65,4.65,0,0,0-.89-.45l-.07-.07h-.08c-.07,0-.14-.08-.22-.08a.28.28,0,0,1-.22-.07c-.07-.08-.15,0-.22-.08a4.86,4.86,0,0,0-1-.07C115.93,44.52,115.56,44.52,115.26,44.52Z" transform="translate(0 -5.33)" fill="#6d184e"/>
      </g>
    </g>
    <g>
      <path d="M105.19,41.78c2.51-1.34,3.25-.08,3.55,2.22C106.89,44.15,105.33,43.63,105.19,41.78Z" transform="translate(0 -5.33)" fill="#48c75a"/>
      <path d="M108.37,44.44a3.63,3.63,0,0,1-2.59-.81,2.92,2.92,0,0,1-.89-1.93c0-.07.07-.14.15-.22a2.94,2.94,0,0,1,2.59-.44c.89.44,1.33,1.63,1.56,3a.26.26,0,0,1-.08.22c-.07.08-.07.08-.15.08A.92.92,0,0,1,108.37,44.44Zm-3-2.59a2.12,2.12,0,0,0,.66,1.34,3.33,3.33,0,0,0,2.52.66,3.66,3.66,0,0,0-1.26-2.37A2.52,2.52,0,0,0,105.41,41.85Z" transform="translate(0 -5.33)" fill="#661a47"/>
      <path d="M105.11,41.41a1.43,1.43,0,0,1,.82,0,3.43,3.43,0,0,1,.74.29,4.45,4.45,0,0,1,.59.52c.15.15.3.45.52.59a5.66,5.66,0,0,0-1.26-.66,2,2,0,0,0-.67-.15h-.59c-.15,0-.22-.07-.3-.22S105,41.48,105.11,41.41Z" transform="translate(0 -5.33)" fill="#651b47"/>
    </g>
  </g>
  <circle cx="120" cy="114.67" r="54" fill="url(#linear-gradient)"/>
  <circle cx="120" cy="114.67" r="49.5" fill="url(#linear-gradient-2)"/>
  <circle cx="120.13" cy="114.8" r="45" fill="#fff"/>
  <path d="M148.64,91.36a40.5,40.5,0,1,0,0,57.28A40.51,40.51,0,0,0,148.64,91.36Z" transform="translate(0 -5.33)" fill="url(#linear-gradient-3)"/>
  <path d="M121.13,111.56l16.67,7.57-1.1,2.43L120,114Z" transform="translate(0 -5.33)" fill="#d48fcd" fill-rule="evenodd"/>
  <path d="M120,114l-16.68,7.57-1.1-2.43,16.68-7.57Z" transform="translate(0 -5.33)" fill="#a1dd71" fill-rule="evenodd"/>
  <path d="M120,151.5l19.26-27L120,135.85Zm9.81-18.36-7.15,4.23v5.8Z" transform="translate(0 -5.33)" fill="#5a9ded" fill-rule="evenodd"/>
  <path d="M120,88.5v43.34l19.26-11.39Zm2.66,9.57v29.1l12.94-7.65Z" transform="translate(0 -5.33)" fill="#ff9c92" fill-rule="evenodd"/>
  <path d="M117.34,137.37l-7.15-4.23,7.15,10Zm2.66-1.52-19.26-11.4L120,151.5Z" transform="translate(0 -5.33)" fill="#53d3e1" fill-rule="evenodd"/>
  <path d="M100.74,120.45,120,131.84V88.5Zm3.66-.93,12.94,7.65V98.07Z" transform="translate(0 -5.33)" fill="#f8d136" fill-rule="evenodd"/>
</svg>
