<svg xmlns="http://www.w3.org/2000/svg" xmlns:v="https://vecta.io/nano" xmlns:xlink="http://www.w3.org/1999/xlink" style="enable-background:new 0 0 180 180" id="Layer_1" x="0" y="0" version="1.1" viewBox="0 0 180 180" xml:space="preserve"><style type="text/css">.st0{fill:#aa8159}.st1{fill:#b68a4f}.st2{opacity:.3}.st3{fill:#c49776}.st4{fill:#ffd283}.st5{opacity:.1;fill:none;stroke:#191326;stroke-width:4;enable-background:new}.st6{fill:#f7af41}.st7{fill:#6c184e}.st8{fill:#ffce00}.st9{opacity:.65}.st10{fill:#fff}.st11{fill:#ee1822}.st12{fill:#bd1622}.st13{fill:#f6c547}.st14{fill:#48c75a}.st15{fill:#661a47}.st16{fill:#651b47}.st17{fill:none}.st18{fill:#eb984e}.st19{fill:#6d184e}.st20{fill:url(#SVGID_1_)}.st21{fill:url(#SVGID_2_)}.st22{fill:url(#SVGID_3_)}.st23{fill:#d48fcd}.st23,.st24,.st25,.st26,.st27,.st28{fill-rule:evenodd;clip-rule:evenodd}.st24{fill:#a1dd71}.st25{fill:#5a9ded}.st26{fill:#ff9c92}.st27{fill:#53d3e1}.st28{fill:#f8d136}</style><title>beth-pizza</title><g><path d="M79.3,156.5c35.1,16.7,77.1,1.7,93.7-33.4s1.7-77.1-33.4-93.8c-30-14.3-65.9-5.6-86.1,20.8 c-6.2-0.1-12.2-2-17.3-5.5c0,0-9.2-5.8-12.3-9.8s-12.5-9.4-19.1,1l-1.1,2.4l-1.5,3.2l-1.1,2.4c-3.8,11.7,6.3,15.6,11.4,15.4 C17.8,59,28,62.4,28,62.4c5.6,1.6,10.6,4.7,14.6,9C31.8,105,47.5,141.4,79.3,156.5z M7.9,43.2c1.3-2.8,4.6-4,7.4-2.7 c2.8,1.3,4,4.6,2.7,7.4c-1.3,2.8-4.6,4-7.4,2.7c-2.7-1.2-4-4.3-2.8-7.1C7.8,43.4,7.8,43.3,7.9,43.2z" class="st0"/><path d="M0,48.5c0-1.6,0.3-3.2,0.8-4.7l0,0l3.8-8l0,0c2.5-4,5.6-6,9.3-6.2c4.3-0.2,8.4,2.6,10.4,5.2 c3,4,12.1,9.7,12.2,9.7c5,3.4,10.9,5.3,17,5.5c20.1-26.5,55.9-35.3,85.9-21.1c25,11.8,40.8,37.1,40.4,64.8 c-0.1,10.1-2.4,20.1-6.8,29.2c-16.6,35.3-58.6,50.4-93.8,33.9C54.2,145,38.4,119.7,38.8,92l0,0c0.1-7,1.2-13.9,3.3-20.5 c-3.9-4.1-8.8-7.2-14.3-8.8c-0.1,0-10.3-3.4-15.3-3.2c-3.5,0-7-1.2-9.6-3.6C1,53.9-0.1,51.3,0,48.5z M1.5,44 c-0.5,1.5-0.8,3-0.8,4.5c-0.1,2.6,0.9,5.1,2.8,6.9c2.5,2.3,5.7,3.5,9.1,3.4c5.1-0.2,15.1,3.1,15.5,3.3c5.6,1.7,10.7,4.8,14.7,9.1 c0.1,0.1,0.1,0.2,0.1,0.4c-2.1,6.6-3.3,13.5-3.4,20.4l0,0c-0.7,38.8,30.3,70.8,69.1,71.5c38.8,0.7,70.8-30.3,71.4-69.1 s-30.3-70.8-69.1-71.5C88.6,22.5,67.5,32.7,54,50.4c-0.1,0.1-0.2,0.1-0.3,0.1c-6.3-0.1-12.3-2-17.5-5.6c-0.4-0.2-9.3-5.8-12.4-9.9 c-2.4-3-6-4.8-9.8-4.9c-3.4,0.1-6.3,2.1-8.7,5.8L1.5,44z M7,45.5c0-0.9,0.2-1.7,0.6-2.5c0.7-1.4,1.9-2.5,3.4-3.1 c1.5-0.5,3.1-0.5,4.5,0.2c2.1,1,3.4,3.1,3.4,5.4c0,0.9-0.2,1.7-0.6,2.5c-0.7,1.4-1.9,2.5-3.4,3.1c-3.1,1.1-6.4-0.5-7.5-3.5 C7.1,46.9,7,46.2,7,45.5z M18.1,45.6c0-2-1.2-3.9-3-4.8c-1.2-0.6-2.7-0.7-4-0.2C9.8,41,8.7,42,8.2,43.3c-0.3,0.7-0.5,1.4-0.5,2.2 c0,2,1.2,3.9,3,4.8c1.2,0.6,2.7,0.7,4,0.2c1.3-0.4,2.4-1.4,2.9-2.7C17.9,47.1,18.1,46.4,18.1,45.6z" class="st1"/></g><g><g class="st2"><path d="M25.2,41.1c0.6,0.3,1.4,0.5,2.1,0.4c0.8-0.2,0.6-1.4,0.5-2c-0.1-0.5-0.3-1-0.5-1.5c-1.2-1-2.2-2-3.2-3.2 c-0.9-1.2-2-2.1-3.2-2.9c1,1.5,1.5,3.2,1.5,4.9c0,0.1-0.1,0.2-0.2,0.2c-3.6-0.9-6.9-3.1-9.8-5.3L11,30.6c-0.6,0.3-1.2,0.6-1.8,1 c3,2,6,4,9,5.9C20.4,38.9,22.8,40.1,25.2,41.1z" class="st3"/><path d="M5,35.8l-0.7,1.4c2.1,1.1,4.3,2.1,6.4,3.2c1.4-0.6,3.1-0.6,4.5,0.1c1.6,0.8,2.8,2.3,3.1,4.1 c4,2.3,8,4.6,12,6.8c1.8,1,3.5,1.9,5.3,2.9c1.7,1.1,3.5,2,5.4,2.6c1.4,0.4,4.3,0.4,4.2-1.7c0-1.8-1.2-3.5-2-5.1 c-0.5-0.9-1-1.8-1.4-2.7c-1.9-0.8-3.7-1.8-5.4-2.9c-0.4-0.3-0.7-0.5-1.1-0.7c0.2,0.3,0.3,0.7,0.4,1.1c0.4,0.8,0.5,1.8,0.4,2.7 c-0.4,1.7-2.3,1.3-3.5,0.9c-2.6-1-5.1-2.4-7.4-4c-2.7-1.7-5.3-3.5-7.9-5.4c-1.5-1.1-3.1-2.2-4.7-3.1c-1.9-1-3.7-2-5.6-3 C6.3,33.9,5.6,34.8,5,35.8z" class="st3"/><path d="M52.4,57.3c0.4,1.6,0.6,3.9-0.8,5.1c-2,1.8-5.6,1-7.9,0.5c-10-2.2-18.5-8.3-27.4-13c-1.2,1-2.8,1.4-4.3,1.1 c5.6,2.3,11.2,4.7,16.8,7c5.4,2.3,10.8,4.6,16.2,6.8c3.5,1.4,7.1,3,10.7,4.1c0.8,0.3,1.7,0.5,2.5,0.6c1.2,0.2,3.5,0.6,4.3-0.6 c0.7-1,0.3-2.3,0-3.4c-0.5-1.6-1.2-3.1-2-4.6c-0.9-1.9-2-3.8-3.1-5.6c-1.2-1.8-2.5-3.5-3.9-5.2c-1.4,0-2.9-0.1-4.3-0.4 C50.6,52.1,51.6,54.6,52.4,57.3z" class="st3"/><path d="M0.5,46.6c3.1,1.1,6.1,2.3,9.2,3.5c-1.5-1-2.4-2.7-2.4-4.5c-1.9-0.8-3.9-1.7-5.8-2.5l-0.3,0.7 C0.9,44.8,0.7,45.7,0.5,46.6z" class="st3"/><path d="M27.6,62.3c-6-2.8-12-5.5-18.1-8.1c-2.9-1.2-5.9-2.4-8.9-3.5c1.2,6.4,8.1,8.6,12,8.5 C17.1,59,25.6,61.6,27.6,62.3z" class="st3"/><path d="M159.4,43.4c-4.9-0.7-9.5-2.5-13.7-5.1c-4-2.6-7.8-5.6-11.4-8.8c-1.4-1.2-2.6-2.5-3.9-3.8 c-2.9-0.9-5.9-1.6-8.9-2.2c1.2,1.1,2.5,2.1,3.7,3.1c4.1,3.7,8.4,7.2,12.9,10.4c7.3,5,15.6,8.4,24.4,9.7 C161.5,45.6,160.5,44.5,159.4,43.4z" class="st3"/><path d="M166.3,51.6c-0.4,0-0.8-0.1-1.2-0.1c-3.4-0.2-6.8-0.7-10.1-1.3c-10.5-2.4-20.3-7-28.8-13.6 c-5.5-4.2-10.6-9-15.3-14.1c-2,0-4,0-6,0.1c6.6,6.3,12.8,13,19.8,18.8c3.9,3.4,8.1,6.3,12.6,8.8c4.9,2.6,10.1,4.8,15.4,6.6 c4.7,1.7,9.4,3.2,14.2,4.6c2.2,0.6,4.3,1.3,6.5,2.1C171.3,59.4,168.9,55.4,166.3,51.6z" class="st3"/><path d="M175.8,70.2c-3.7-1.2-7.4-2.7-11.2-3.6c-8-1.8-15.9-4.5-23.4-7.8c-4.8-2.2-9.5-4.8-14.2-7.4 c-4.7-2.6-9.3-5.4-13.8-8.3c-8.2-5.3-16-11.2-23.3-17.8c-2,0.6-4.1,1.3-6,2c1.5,1,3,2,4.4,3.1c5,3.5,10,7.1,14.9,10.8 c4.9,3.7,9.7,7.2,14.6,10.8c3.1,2.2,6.1,4.6,9.4,6.5c4.5,2.4,9.2,4.5,14,6.2c2.6,1,5.2,2,7.9,3c2.5,0.9,4.9,1.9,7.5,2.7 c6.9,2.2,14.2,3.4,21,5.9C177.1,74.3,176.5,72.2,175.8,70.2z" class="st3"/><path d="M179.5,92.6c-1.4-0.6-2.8-1.3-4.2-2c-4-1.9-7.6-4.4-10.9-7.3c-0.1-0.1,0-0.2,0-0.3c0,0,0,0,0.1,0 c5,0.3,9.8,1.7,14.6,3.2c-0.1-1-0.2-1.9-0.3-2.9c-2-0.6-4-1.2-6-1.6c-4.4-1-8.9-1.7-13.3-2.8c-3.1-0.7-6.1-2-9.2-2.9 c-1.8-0.6-3.7-1-5.6-1.2c-1.3-0.2-2.7-0.1-3.9,0.4c2.6,2.7,5.8,4.9,9.3,6.4c3.6,1.8,7.4,3.2,11.2,4.8c4.3,1.8,8.5,3.9,12.7,5.8 c1.8,0.8,3.5,1.6,5.3,2.4C179.4,93.9,179.5,93.3,179.5,92.6z" class="st3"/><path d="M179.5,94.9c-1.8-0.8-3.7-1.6-5.5-2.5c-4.4-2-8.6-4.2-13.1-6c-3.8-1.5-7.6-3-11.3-4.8 c-3.3-1.7-6.6-3.6-9.1-6.4c-0.1-0.1-0.1-0.2,0-0.3c0,0,0,0,0,0c0.2-0.1,0.3-0.2,0.5-0.2c1.3-0.4,2.7-0.5,4.1-0.2 c1.8,0.2,3.5,0.6,5.2,1.2c3.2,0.9,6.2,2.2,9.4,2.9c4.5,1,9.1,1.7,13.6,2.8c1.8,0.4,3.5,0.9,5.2,1.5c0-0.1,0-0.3-0.1-0.4 c-1.3-0.4-2.5-0.8-3.8-1.2c-10-3.2-20.3-5.5-30.4-8.6c-5-1.5-9.9-3.2-14.7-5.3c-4.7-2.1-9.4-4.5-13.8-7.2c-9-5.4-17.3-11.8-25-19 c-3-2.8-6.1-5.4-9-8.4c-1-1.1-2-2.2-3-3.4c-1.8,0.9-3.6,1.8-5.3,2.8c0.9,0.8,1.8,1.6,2.7,2.5c3.5,3.4,7,6.7,10.3,10.3l5.4,6.3 c1.7,2.1,3.4,4.2,5.2,6.2c6.9,7.6,15.7,13,24.8,17.4c10.6,5.1,21.5,9.5,32.4,13.9c8.3,3.4,16.3,7.6,24.4,11.4 C179.2,98.5,179.5,96.7,179.5,94.9z" class="st3"/><path d="M166.3,104.9c0.9,1.3,1.9,2.4,3.2,3.3c1.9,1.6,3.9,3.1,6,4.5l0.9,0.6c0.5-1.6,0.9-3.3,1.3-4.9 C174,106.9,170.4,105,166.3,104.9z" class="st3"/><path d="M175.5,116.2c-2.4-1.3-4.7-2.7-7-4.3c-3.1-2.1-6.4-3.9-9.7-5.8c-3.9-2.3-7.9-4.7-11.1-8c-0.1-0.1,0-0.2,0-0.3 c0,0,0,0,0.1,0c3.1-1.1,6.6,0,9.5,1c3.1,1.1,6.2,2.2,9.4,3.2c3.9,1.1,7.7,2.4,11.5,3.9c0.1-0.7,0.2-1.3,0.4-2 c-4.8-1.7-9.6-3.2-14.4-4.7c-10.3-3.2-20.7-6.2-30.6-10.4c-4.9-2-9.6-4.3-14.2-7c-4.5-2.6-8.8-5.5-12.9-8.7 C92.3,62.4,80,49.3,68.1,36.1c-1.3,1-2.6,2-3.9,3.1c0.4,0.3,0.7,0.6,1.1,0.9c5.1,4.5,8.7,10.2,12.4,15.9c2.7,4.5,5.9,8.6,9.4,12.5 c3.6,3.7,7.5,7.1,11.6,10.1c8.4,6.4,17.4,11.9,26.9,16.6c9.9,4.8,20.1,8.8,29.7,14.3c4.8,2.7,9.6,5.5,14.6,7.9 c1.4,0.7,2.9,1.3,4.4,1.9C174.7,118.3,175.1,117.3,175.5,116.2z" class="st3"/><path d="M156,127.2c-2.8-1.2-5.7-2.3-8.6-3.1c-2.6-0.9-5.3-1.3-8.1-1.2c1.5,2.4,4.3,4,6.8,5.2 c2.8,1.4,5.7,2.6,8.6,3.8c3.1,1.3,6,2.8,8.9,4.3c0.2,0.1,0.5,0.2,0.7,0.3c1-1.3,2-2.6,2.9-4c-0.5-0.2-0.9-0.5-1.4-0.7 C162.6,130,159.4,128.5,156,127.2z" class="st3"/><path d="M48.7,118.7c1.7,0.5,3.3,1.2,5,1.7c2.6,0.8,5.3,1.5,7.9,2.3c10.6,3,21.3,5.7,31.9,8.8 c11.3,3.4,22.5,7,33.8,10.3c5.6,1.6,11.2,3.4,16.7,5.3c2.3,0.8,4.6,1.6,6.9,2.3c0.7-0.5,1.4-1,2-1.6c-1.1-0.5-2.3-0.9-3.4-1.4 c-4.9-1.9-9.9-3.4-14.9-5c-11.1-3.7-22.2-7.6-33.1-11.7s-21.7-8.1-32.8-11.3c-9-2.6-17.8-6.4-27.1-7.4c0.6,2.1,1.2,4.2,2,6.2 L48.7,118.7z" class="st3"/><path d="M68.5,144.1c11.1,4,21.9,8.3,32.7,13c4.5,1.9,9,3.9,13.5,5.8c4-0.3,8.1-1,12-2l-6.3-2.7 c-6.9-2.9-14-5.4-21.1-7.8c-5.4-1.9-10.9-3.6-16.3-5.6c-5.2-1.9-10.3-4.1-15.4-6.5l-15-7.2c-1-0.5-2-1-3-1.4 c2.3,3.8,4.9,7.3,7.9,10.6C61.2,141.4,64.9,142.8,68.5,144.1z" class="st3"/><path d="M67.5,149.2c3.8,1.5,7.6,3,11.4,4.6c6.3,2.7,12.6,5.5,18.9,8.4c2,0.3,4.1,0.6,6.1,0.7 c-7.5-3.6-15.1-7-22.7-10.5c-4.6-2.1-9.2-4.3-14-6.1c-1.9-0.8-3.9-1.5-5.9-2c1.8,1.7,3.7,3.3,5.7,4.8 C67.1,149.1,67.3,149.1,67.5,149.2z" class="st3"/><path d="M44,106.7c2.3,0.7,4.7,1.2,7.1,1.5c5.8,1.1,11.6,2.2,17.3,3.7c11.3,3.1,22.3,6.9,33.5,10.2s22.6,6.1,33.8,9.5 c8.3,2.7,16.4,6,24.2,9.9c0.8-0.9,1.6-1.7,2.4-2.6c-3.8-1.3-7.5-2.7-11.2-4.2c-5.3-2.1-10.4-4.5-15.6-6.8 c-10.8-4.7-21.8-8.8-32.7-13.3c-10.3-4.2-20.7-8.3-31.4-11.2c-10.5-3-21.2-4.9-32-5.9c0.2,2.7,0.5,5.4,1,8.1 C41.6,106,42.8,106.4,44,106.7z" class="st3"/><path d="M104.9,99.3c0.7-0.1,1.4-0.3,2.1-0.6c0.3-0.1,0.5-0.3,0.8-0.4c0.5-0.3,0.5-0.3,0.1-0.6 c-1.4-1.4-3-2.6-4.8-3.6c-3.8-2-7.9-3.6-12.1-4.6c-3.9-1-8-1.6-12-2c-5.6-0.5-11.1-1.4-16.6-2.6c-2.8-0.6-5.6-1.3-8.3-2.1 c-2-0.6-4-1.3-5.9-2.1c-2.1-0.8-4.2-1.6-6.3-2.2l-1.2-0.3c-0.2,1-0.4,1.9-0.6,2.9c2.9,0.7,5.7,1.7,8.3,3c0.2,0.1,0.1,0.3-0.1,0.3 c-2.9,0.2-5.8,0-8.7,0.1l-0.3,3.3c7.4,1,14.8,2.3,22.2,3.7c4.5,0.9,9,1.7,13.5,2.6c3,0.4,5.9,1,8.8,1.8c3.5,1,6.9,1.9,10.5,2.7 C97.6,99.3,101.4,100,104.9,99.3z" class="st3"/><path d="M172.6,123.2c-0.7-0.4-1.4-0.8-2.2-1.1c-5.6-2.6-11.3-4.7-17.1-6.9c-10.2-3.9-20.4-7.7-30.2-12.5 c-9.5-4.6-18.8-10-26.6-17.2c-7.5-7-13.7-15.2-20-23.2C71.5,55.6,66.6,48.4,60,43l-1.3,1.3c0.5,0.9,1.1,1.9,1.7,2.8 c3.1,5.1,6.3,10.1,9.1,15.2c1.3,2.4,2.5,4.8,3.6,7.3c0.9,1.9,1.4,4,1.7,6.1c0.2,1.4-0.2,2.9-1.1,4c-1.7,1.7-4.5,1.6-6.6,1.1 C62.9,80,59.2,78,55.5,76c-4.7-2.5-9.5-4.7-14.2-7c-1.2-0.6-2.3-1.2-3.5-1.7c1.7,1.3,3.3,2.7,4.8,4.2c-0.4,1.1-0.7,2.3-1,3.4 c3,0.8,6,1.8,8.9,2.9c0.2,0.1,0.2,0.3,0,0.3c-3.2,0.7-6.3-0.2-9.5-0.6c0,0.1,0,0.2-0.1,0.3c1.6,0.4,3.2,1,4.7,1.5 c3.6,1.4,7.3,2.7,11,3.7c5.7,1.5,11.4,2.7,17.2,3.5c4.3,0.6,8.6,0.9,12.9,1.7c7.7,1.4,16.5,3.7,22,9.7c0.1,0.1,0.1,0.2,0,0.3 c0,0,0,0,0,0c-1.7,1.5-4.2,1.8-6.4,1.8c-3.1,0-6.2-0.5-9.2-1.2c-3.4-0.8-6.8-1.7-10.2-2.7c-4.4-1.2-8.9-1.8-13.4-2.6 c-10-1.9-20-3.9-30.1-5.3c-0.1,1.6-0.2,3.3-0.2,4.9c4.3,0.4,8.7,0.7,12.9,1.2c11.5,1.6,22.9,3.8,34.1,6.8 c11.3,3,22.6,6.3,33.7,9.9c10.6,3.4,21,7.3,31.6,10.8c6.2,1.9,12.4,4.1,18.4,6.7C170.8,126.7,171.7,125,172.6,123.2z" class="st3"/></g><g><path d="M58.1,48.3c1.4-1.6,3.2-3,4.8-4.5c1.8-1.6,3.6-3.2,5.4-4.6c3.6-2.8,7.4-5.2,11.5-7.2 c4.5-2.2,9.3-3.9,14.2-5.2c2.4-0.6,4.7-1.4,7.1-1.8c2.6-0.4,5.2-0.5,7.7-0.9c0.4-0.1-0.1-0.7-0.4-0.6c-2.4,0.2-4.9,0.3-7.3,0.5 c-2.7,0.4-5.3,1-7.9,1.7c-4.8,1.2-9.4,2.8-13.9,4.9c-4.3,2.1-8.3,4.6-12.1,7.5c-1.8,1.4-3.5,2.9-5.1,4.4c-1.6,1.5-3.8,3.2-4.9,5.1 C57.2,48.1,57.9,48.6,58.1,48.3z" class="st3"/><path d="M33.1,44.3c-2.6-2-5.2-3.9-7.7-6.1c-2.2-1.9-3.9-4.3-6.3-5.9c-4.5-3-9.6-0.2-12.7,3.5C6.2,36,6.8,36.5,7,36.4 c1.7-1.4,3.5-2.6,5.4-3.6c3.3-1.6,6.1-0.2,8.5,2.2c1.6,1.6,3.1,3.2,4.9,4.7c2.2,1.8,4.6,3.3,6.9,4.9 C33.2,44.9,33.5,44.6,33.1,44.3z" class="st3"/><path d="M12.7,57.8c-2-0.5-3.9-1.2-5.7-2.1c-1.9-1.1-3.4-2.8-4.3-4.8c-0.2-0.3-0.9-0.6-0.8,0 c1.2,4.8,6.5,6.9,10.9,7.5C13.3,58.5,12.9,57.9,12.7,57.8z" class="st3"/><path d="M107.7,161.1c5.4-0.1,10.8-0.6,16.2-1.6c10.5-2,20.1-7,28.7-13.1c0.3-0.2-0.2-0.7-0.5-0.5 c-8.6,5.2-17.7,10.1-27.6,12.3c-10.5,2.3-22,2.9-32.5,0.4c-0.6-0.1-0.3,0.5,0.1,0.6C97,161,102.4,161.2,107.7,161.1z" class="st3"/></g></g><ellipse cx="95.9" cy="46" class="st4" rx="40" ry="40"/><ellipse cx="95.9" cy="46" class="st5" rx="38.6" ry="38.7"/><g><g><path d="M72,62.7c0,0-1,3.3,6.6-1.4s26.6-8.2,35.7-7.1s2.7-20.4-4.1-23.8C103.6,27,82.7,41.9,72,62.7z" class="st6"/><g class="st2"><path d="M72.6,62.1c0,0-1.6,4,6-0.7c7.6-4.7,26.6-8.2,35.7-7.1s2.7-20.4-4.1-23.8C103.6,27.1,83.3,41.3,72.6,62.1z" class="st7"/></g><path d="M73.4,64c-0.3,0-0.6,0-0.9-0.2c-0.7-0.6-0.3-1.8-0.3-1.8v-0.1c4-7.7,9.3-14.7,15.6-20.7 c5.7-5.3,11.6-9.3,16.4-10.8c2.7-0.9,4.9-0.9,6.4-0.1c2.4,1.3,5,4.8,6.7,9.5s2.4,9.3,1.5,11.9c-0.4,1.8-2,3-3.8,3 c-0.2,0-0.5,0-0.7-0.1c-9.3-1.2-28.1,2.6-35.5,7.1C76.3,63.3,74.5,64,73.4,64z M72.7,62.2c-0.1,0.2-0.1,0.7,0.1,1 c0.2,0.3,1.3,0.6,5.7-2.1c3.5-2.2,10-4.3,17.5-5.8c7.3-1.4,14.1-1.9,18.5-1.3c1.7,0.3,3.4-0.7,3.8-2.4c0.8-2.6,0.2-7-1.5-11.5 c-1.7-4.5-4.1-8-6.4-9.2c-1.3-0.7-3.4-0.7-5.9,0.1c-4.7,1.5-10.5,5.3-16,10.6C82,47.5,76.7,54.4,72.7,62.2z" class="st7"/><g><path d="M110.7,34.6c-1.1-0.2,0.1-0.7-1.3-2.1c-0.8-0.8-2-0.9-2.9-0.2c0.3-0.4,0.3-0.9,0-1.3c-1.2-1.6-4.4-0.7-5.5-2 S97,28.9,97,28.9s-16.6,9.9-21.3,21.3S71.3,65,73.4,64.2c2.1-0.8,3.6-2.6,5.1-1.2c1.5,1.4-0.4,4,1.4,5.3c0.9,0.4,1.9,0.1,2.3-0.8 c0.3-0.6,0.2-1.2-0.1-1.7c-1.2-1.9-2.7-5.5-0.1-7.5s8.4-3,8.1-0.2c-0.8,6.7,6.3,3.8,4.1,1c-1.9-2.4-0.1-6.7,4.1-4.3 c3.5,2,3.1-0.7,6.6-1.8c2.4-0.6,4.9-0.9,7.4-0.9c3.3-2,0.3-2.9,0.3-2.9s2.8-2.2,2.1-3.6c-0.7-1.5-0.3-3.9-0.3-6.2 C114.5,36.9,111.9,34.8,110.7,34.6z" class="st8"/><g class="st2"><path d="M110.7,34.6c-1.1-0.2,0.1-0.7-1.3-2.1c-0.8-0.8-2-0.9-2.9-0.2c0.3-0.4,0.3-0.9,0-1.3 c-1.2-1.6-4.4-0.7-5.5-2S97,28.9,97,28.9c-0.4,0.2-0.8,0.4-1.1,0.7c5.2,1.3,15.9,5.8,13.9,21.2c0,0-20.7,1.5-26.4,5 c-4.1,2.6-8.1,7.3-11.4,7.9c0.1,0.5,0.6,0.7,1.1,0.6c0.1,0,0.1,0,0.2-0.1c2.1-0.7,3.6-2.6,5.1-1.2c1.5,1.4-0.4,4,1.4,5.3 c0.9,0.4,1.9,0.1,2.3-0.8c0.3-0.5,0.2-1.2-0.1-1.7c-1.2-1.9-2.7-5.4-0.1-7.4c2.6-2,8.4-3,8.1-0.2c-0.8,6.7,6.4,3.8,4.1,1 c-1.9-2.5-0.1-6.7,4.1-4.3c3.5,2,3.1-0.7,6.6-1.8c2.4-0.6,4.9-0.9,7.4-0.9c3.3-2,0.3-2.9,0.3-2.9s2.8-2.2,2.1-3.7 c-0.7-1.6-0.3-3.9-0.3-6.2C114.5,36.9,111.9,34.8,110.7,34.6z" class="st7"/></g><g class="st9"><path d="M111.7,35.2c0.1,0,0.1,0.1,0.3,0.1c-0.2-0.2-0.5-0.4-0.8-0.5C111.2,34.9,111.3,35.1,111.7,35.2z" class="st10"/><path d="M113.5,49.8" class="st10"/><path d="M107.4,32.8c0.6-0.4,1.3-0.5,2-0.3c-0.5-0.5-1.1-0.7-1.8-0.6C107.7,32.2,107.6,32.6,107.4,32.8z" class="st10"/><path d="M106.4,30.7c-1.1-1-3-0.7-4.3-1.2C102.9,30.5,104.9,30.2,106.4,30.7z" class="st10"/><path d="M97.1,28.8c-4.9,3.1-9.5,6.7-13.7,10.8c-0.1,0.1-0.2,0.1-0.4,0.3c-0.1,0.1-0.1,0.1-0.1,0.2 c-2.9,2.9-5.3,6.3-7.1,10c-4.4,10.7-4.4,14.4-2.7,14.2c-0.6-1.3,0.1-5.5,3.5-13.7c1.4-3.2,3.4-6.2,5.8-8.7 c0.1,0.1,0.1,0.2,0.1,0.2c0.7,0.5,1.6,0.3,2.1-0.4c0-0.1,0.1-0.1,0.1-0.2c0.7-0.6,0.8-1.6,0.3-2.4C85.2,39,85.2,39,85.1,39 c3.9-3.7,8.1-7.1,12.4-10.3c1.1-0.2,2.3-0.2,3.4,0C99.9,27.6,97.1,28.8,97.1,28.8z" class="st10"/></g><path d="M80.7,68.9c-0.3,0-0.6-0.1-0.9-0.2c-1.1-0.7-1.1-2-1-3.1c0.1-0.9,0.1-1.8-0.5-2.2c-0.8-0.7-1.6-0.4-3,0.4 c-0.6,0.3-1.2,0.6-1.8,0.8c-0.7,0.2-1.2,0.1-1.4-0.2c-1.5-1.5,0.9-8.7,3.3-14.3C78,44.2,83.6,38.7,88,35c2.9-2.3,5.8-4.4,8.9-6.4 l0,0c0.1-0.1,3-1.3,4.3,0.1c0.7,0.5,1.5,0.8,2.4,0.7c1.2,0.1,2.5,0.2,3.3,1.3c0.2,0.3,0.2,0.6,0.2,0.9c0.9-0.3,2,0,2.7,0.7 c0.5,0.5,0.8,1.1,0.9,1.8v0.2c0.1,0.1,0.1,0.1,0.2,0.1l0,0c2.2,0.8,3.7,2.8,3.9,5.1c0,0.5-0.1,1.1-0.1,1.6 c-0.2,1.5-0.1,3,0.3,4.5c0.7,1.3-0.9,3-1.8,3.8c0.5,0.2,0.8,0.6,0.9,1.2c0.1,0.8-0.5,1.4-1.8,2.2c-0.1,0-0.1,0.1-0.1,0.1 c-2.4,0-4.9,0.3-7.3,0.8c-1,0.3-1.9,0.8-2.6,1.5c-1.2,1-2,1.6-4.2,0.2c-1.6-0.8-2.9-0.8-3.6,0.1c-0.8,1.1-0.8,2.7,0.1,3.8 c0.7,0.7,0.7,1.8,0.1,2.6c-0.8,0.9-2,1.3-3.2,0.9c-0.7-0.3-2-1.3-1.5-4.4c0.1-0.4-0.1-0.8-0.4-0.9c-1.3-0.7-5.1,0.1-7.1,1.5 c-2.4,1.9-0.7,5.5,0.1,7c0.6,0.8,0.4,2-0.4,2.7C81.7,68.8,81.2,68.9,80.7,68.9z M77.4,62.2c0.5,0,1,0.2,1.4,0.6 c0.8,0.7,0.7,1.9,0.7,2.8s-0.1,1.9,0.7,2.4c0.5,0.2,1.2,0.1,1.6-0.3c0.4-0.2,0.7-0.8,0.1-1.8c-1-1.6-2.9-5.8,0-7.9 c2-1.5,6.1-2.6,7.8-1.6c0.6,0.3,0.9,1,0.7,1.6c-0.2,1.9,0.1,3.3,1.2,3.6c0.8,0.3,1.8,0,2.4-0.6c0.4-0.5,0.4-1.3-0.1-1.8 c-1.1-1.3-1.1-3.2-0.1-4.6c1-1.2,2.7-1.3,4.6-0.2c2,1.1,2.5,0.7,3.5-0.2c0.8-0.8,1.7-1.3,2.8-1.6c2.4-0.6,4.9-0.9,7.4-0.9 c1.2-0.7,1.3-1.2,1.3-1.4c-0.1-0.4-0.7-0.7-1-0.8c-0.1,0-0.2-0.1-0.2-0.2c0-0.1,0-0.3,0.1-0.4c0.7-0.5,2.5-2.2,2-3.3 c-0.5-1.6-0.7-3.2-0.4-4.8c0-0.5,0.1-1,0.1-1.5c0.1-2.2-2.4-4.1-3.3-4.3c-0.7-0.2-0.7-0.4-0.7-0.8c0-0.5-0.2-1-0.7-1.3 c-0.7-0.7-1.7-0.8-2.5-0.2c-0.1,0.1-0.3,0.1-0.4,0c-0.1-0.1-0.1-0.3-0.1-0.4c0.3-0.7,0.1-0.9,0.1-1c-0.7-0.7-1.7-1.1-2.7-1 c-1,0-2-0.3-2.8-1c-0.8-0.9-2.7-0.3-3.5,0c-3.1,1.9-6,4-8.8,6.4c-4.2,3.5-9.9,8.9-12.4,14.7c-1.4,3.2-2.6,6.5-3.4,9.9 c-0.6,2.7-0.2,3.5,0,3.6c0.2,0.1,0.2,0.2,0.7,0c0.5-0.2,1.1-0.4,1.5-0.7C75.6,62.6,76.5,62.3,77.4,62.2z" class="st7"/></g><path d="M99.6,51.9c2-0.4,4-0.7,6.1-0.9c1-0.2,2-0.2,3.1-0.4s2-0.2,3.1-0.2c0.2,0,0.3,0.2,0.3,0.4 c0,0.2-0.1,0.3-0.3,0.3h-3c-1,0-2,0.1-3,0.1C103.7,51.4,101.6,51.6,99.6,51.9z" class="st7"/></g><g class="st2"><path d="M106.1,30.5" class="st7"/><path d="M113.9,37.5c-0.1,2.4-0.4,4.7,0.3,6.2c0,0.1,0.1,0.2,0.1,0.2c-0.1-1.3,0.1-3,0.1-4.7 C114.4,38.6,114.3,38,113.9,37.5z" class="st7"/><path d="M114.4,44.2c0,1.4-2.2,3.2-2.2,3.2s1.2,0.4,1.3,1.2c0.7-0.7,1.8-2,1.3-3C114.5,45.2,114.4,44.7,114.4,44.2z" class="st7"/></g><g><ellipse cx="99.4" cy="35.9" class="st11" rx="5.1" ry="4.1" transform="matrix(0.8389 -0.5443 0.5443 0.8389 -3.5306 59.8966)"/><g class="st9"><path d="M100.1,39.9c-2.5,0.7-4.7-0.6-4.9-2.8c0-2.5,1.7-4.6,4.1-5.2c1.6-0.5,3.3,0,4.4,1.3c-1.1-1.5-3-2.2-4.8-1.6 c-2.7,0.7-4.7,3.2-4.4,5.5c0.2,2.3,2.6,3.6,5.2,3c0.7-0.2,1.3-0.5,1.9-0.9C101.1,39.6,100.6,39.8,100.1,39.9z" class="st10"/></g><path d="M99.8,32.7l0.6,6.1c1.5-0.7,2.5-2.1,2.6-3.8C102.7,33.5,101.3,32.5,99.8,32.7C99.8,32.7,99.8,32.7,99.8,32.7 z" class="st12"/><path d="M98.3,33c-1.5,0.7-2.5,2.2-2.5,3.8c0.2,1.5,1.6,2.6,3.1,2.3L98.3,33z" class="st12"/><path d="M98.3,33c-1.5,0.7-2.5,2.2-2.5,3.8c0.2,1.5,1.6,2.6,3.1,2.3L98.3,33z" class="st12"/><path d="M98.5,35.1c-0.5,0.2-0.8,0.7-0.8,1.3c0,0.5,0.4,0.8,0.9,0.8c0,0,0.1,0,0.1,0L98.5,35.1z" class="st11"/><path d="M99.9,34.7c0.5,0,1,0.2,1,0.7c0,0.5-0.3,1.1-0.8,1.3L99.9,34.7z" class="st11"/><path d="M98.4,40.6c-0.9,0-1.8-0.2-2.6-0.7c-0.9-0.6-1.4-1.6-1.5-2.7c-0.2-2.5,1.8-5.1,4.7-5.8 c1.4-0.4,2.9-0.2,4.1,0.6c0.9,0.6,1.4,1.6,1.5,2.7c0.2,2.5-1.8,5.1-4.7,5.8C99.4,40.6,98.9,40.6,98.4,40.6z M100.4,31.9 c-0.4,0-0.9,0.1-1.3,0.1c-2.5,0.7-4.4,3-4.1,5.2c0.1,0.9,0.5,1.7,1.3,2.2c1.1,0.7,2.4,0.9,3.6,0.5c2.5-0.7,4.4-3,4.1-5.2 c-0.1-0.9-0.5-1.7-1.3-2.2C102,32,101.2,31.8,100.4,31.9z" class="st7"/><g><path d="M97.8,37.8c0,0.1,0.1,0.2,0.1,0.2v0.2c0,0.1-0.1,0.1-0.2,0.1s-0.1-0.1-0.1-0.2v-0.1c0-0.1,0.1-0.2,0.1-0.2 C97.7,37.9,97.7,37.9,97.8,37.8z" class="st13"/><path d="M97.1,37.3c0,0.1,0,0.2-0.1,0.2c0,0.1-0.1,0.2-0.1,0.2s-0.1,0.1-0.3,0.1c-0.1,0-0.1-0.2-0.1-0.3v-0.1 c0.1-0.1,0.1-0.1,0.2-0.1C96.8,37.3,96.9,37.3,97.1,37.3z" class="st13"/><path d="M96.8,36.2c-0.1,0.1-0.1,0.2-0.1,0.2l-0.1,0.2c-0.1,0-0.1,0-0.2,0c0,0,0,0,0-0.1c-0.1-0.1,0-0.2,0.1-0.2 h0.3C96.7,36.2,96.7,36.2,96.8,36.2z" class="st13"/><path d="M97.3,35.2c-0.1,0-0.2,0-0.2,0.1h-0.2c-0.1,0-0.1-0.1-0.1-0.2s0.1-0.2,0.2-0.2h0c0.1,0,0.1,0.1,0.1,0.2 S97.2,35.2,97.3,35.2z" class="st13"/><path d="M98.1,34.5c-0.1,0-0.1-0.1-0.2-0.1c-0.1,0-0.1-0.1-0.1-0.1c-0.1-0.1-0.1-0.2,0-0.3c0,0,0,0,0.1,0 c0.1-0.1,0.2-0.1,0.3,0c0,0,0,0,0,0.1V34.5z" class="st13"/></g><g><path d="M101.2,36.9c0.1,0.1,0.1,0.1,0.2,0.2l0.1,0.2c0.1,0.1,0,0.2-0.1,0.3c-0.1,0.1-0.2,0-0.3-0.1 C101.2,37.4,101.2,36.9,101.2,36.9z" class="st13"/><path d="M101.8,36h0.4c0.1,0,0.1,0.2,0.1,0.2s-0.1,0.2-0.2,0.2h-0.1l-0.1-0.2C101.9,36.2,101.8,36.1,101.8,36z" class="st13"/><path d="M101.8,34.9l0.1-0.2c0.1-0.1,0.1-0.1,0.1-0.1c0.1,0,0.2,0,0.2,0.1s0,0.2-0.1,0.2h-0.3 C101.9,35,101.8,34.9,101.8,34.9z" class="st13"/><path d="M101.2,34.2c0-0.1,0.1-0.2,0.1-0.2s0.1-0.2,0.1-0.2c0-0.1,0.1-0.1,0.3-0.1s0.1,0.2,0.1,0.4l-0.1,0.1 c-0.1,0.1-0.1,0.1-0.2,0.1C101.4,34.1,101.3,34.1,101.2,34.2C101.2,34.1,101.2,34.1,101.2,34.2z" class="st13"/><path d="M100.2,33.9c0-0.1-0.1-0.2-0.1-0.2v-0.2c0-0.1,0.1-0.2,0.2-0.2c0.1,0,0.1,0.1,0.1,0.2v0.1 c0,0.1-0.1,0.2-0.1,0.2C100.4,33.7,100.4,33.8,100.2,33.9z" class="st13"/></g><path d="M100.4,39c-0.1,0-0.1,0-0.1-0.1c-0.1-0.1-0.1-0.2-0.1-0.2l-0.6-6.2c0-0.1,0-0.2,0.1-0.2 c0.1-0.1,0.1-0.1,0.1-0.1c1.6-0.3,3.2,0.8,3.5,2.5c0,0,0,0.1,0,0.1C103.2,36.7,102.1,38.3,100.4,39L100.4,39z M100.1,32.8l0.5,5.4 c1.2-0.6,2-1.9,2.1-3.3C102.5,33.7,101.3,32.8,100.1,32.8L100.1,32.8z" class="st12"/><path d="M98.6,39.5c-1.6,0.1-2.9-1-3.2-2.6c-0.1-1.8,1-3.4,2.7-4.1h0.2c0.1,0.1,0.1,0.2,0.1,0.2l0.6,6.2 c0,0.1,0,0.2-0.1,0.2c-0.1,0.1-0.1,0.1-0.1,0.1H98.6z M98,33.5c-1.2,0.7-2,1.9-2,3.3c0.1,1.3,1.2,2.2,2.5,2.1c0,0,0,0,0,0L98,33.5 z" class="st12"/></g><g><ellipse cx="88.7" cy="46.9" class="st11" rx="4.7" ry="3.8" transform="matrix(0.8388 -0.5444 0.5444 0.8388 -11.2319 55.8363)"/><g class="st9"><path d="M89.4,50.7C87,51.3,85,50.1,84.8,48c0-2.3,1.7-4.3,3.9-4.8c1.5-0.5,3.1,0,4.1,1.2c-0.7-1.4-2.5-1.9-4.4-1.4 c-2.4,0.5-4.1,2.7-4.1,5.1c0.1,2.2,2.4,3.4,4.8,2.7c0.7-0.2,1.3-0.5,1.9-0.9C90.5,50.3,90,50.6,89.4,50.7z" class="st10"/></g><path d="M89.1,43.8l0.5,5.8c1.5-0.6,2.4-2,2.4-3.6c-0.1-1.4-1.4-2.4-2.8-2.2C89.2,43.8,89.2,43.8,89.1,43.8z" class="st12"/><path d="M87.7,44.2c-1.5,0.6-2.4,2-2.4,3.6c0.1,1.3,1.3,2.3,2.6,2.2c0.1,0,0.2,0,0.3,0L87.7,44.2z" class="st12"/><path d="M87.7,44.2c-1.5,0.6-2.4,2-2.4,3.6c0.1,1.3,1.3,2.3,2.6,2.2c0.1,0,0.2,0,0.3,0L87.7,44.2z" class="st12"/><path d="M87.9,46.2c-0.5,0.2-0.8,0.7-0.7,1.2c0,0.4,0.4,0.8,0.9,0.7c0,0,0,0,0,0L87.9,46.2z" class="st11"/><path d="M89.3,45.8c0.5,0,0.9,0.2,0.9,0.7c0,0.5-0.3,0.9-0.7,1.2L89.3,45.8z" class="st11"/><path d="M87.8,51.3c-0.9,0-1.7-0.2-2.4-0.7c-0.8-0.6-1.3-1.5-1.4-2.5c-0.2-2.4,1.8-4.7,4.3-5.4 c1.3-0.4,2.7-0.2,3.8,0.6c0.8,0.6,1.3,1.5,1.4,2.5l0,0c0.2,2.4-1.8,4.7-4.3,5.4C88.7,51.3,88.3,51.3,87.8,51.3z M89.6,43.1 c-0.4,0-0.8,0.1-1.3,0.2c-2.3,0.5-3.9,2.5-3.9,4.8c0.1,0.8,0.5,1.6,1.2,2.1c1,0.6,2.2,0.8,3.3,0.4c2.3-0.5,3.9-2.5,4-4.8l0,0 c-0.1-0.8-0.5-1.6-1.2-2.1C91.1,43.3,90.4,43.1,89.6,43.1z" class="st7"/><g><path d="M87.6,48.8c0,0,0.1,0.1,0.1,0.2c0,0.1,0.1,0.2,0.1,0.2c0,0.1-0.1,0.1-0.1,0.1c-0.1,0-0.1-0.1-0.1-0.1v-0.1 C87.5,49,87.5,48.9,87.6,48.8z" class="st13"/><path d="M86.8,48.5v0.2c0,0.1,0,0.2-0.1,0.2c0,0.1-0.1,0.1-0.2,0.1c0,0,0,0-0.1,0c-0.1-0.1-0.1-0.2-0.1-0.2l0,0 l0.1-0.1C86.7,48.6,86.7,48.5,86.8,48.5z" class="st13"/><path d="M86.5,47.6c0,0.1-0.1,0.2-0.1,0.2S86.3,48,86.2,48c-0.1,0.1-0.1,0.1-0.2,0c0,0,0,0,0,0 c-0.1,0-0.1-0.1,0-0.2c0,0,0,0,0,0l0,0c0.1,0,0.1-0.1,0.2-0.1S86.4,47.6,86.5,47.6z" class="st13"/><path d="M86.5,46.7c0,0-0.1,0.1-0.1,0.1c-0.1,0-0.1,0-0.1,0.1c-0.1,0-0.1-0.1-0.1-0.2c0-0.1,0.1-0.1,0.1-0.1h0.1 C86.4,46.6,86.5,46.6,86.5,46.7C86.4,46.7,86.5,46.7,86.5,46.7z" class="st13"/><path d="M87.1,45.9c-0.1,0-0.2,0-0.2-0.1c-0.1,0-0.2-0.1-0.2-0.3c0,0,0,0,0,0c0.1-0.1,0.1-0.1,0.2-0.1l0,0 c0.1,0.1,0.1,0.1,0.1,0.2C87.1,45.7,87.1,45.8,87.1,45.9z" class="st13"/></g><g><path d="M90.5,47.8l0.1,0.2l0.1,0.2c0.1,0.1,0,0.2-0.1,0.2c-0.1,0.1-0.1,0-0.2-0.1C90.5,48.3,90.5,47.9,90.5,47.8z" class="st13"/><path d="M90.9,47h0.4c0.1,0,0.1,0.2,0.1,0.2c-0.1,0.1-0.1,0.1-0.2,0.1h-0.1c-0.1,0-0.1-0.1-0.1-0.2 C91,47,91,47,90.9,47z" class="st13"/><path d="M90.9,46l0.1-0.2c0.1-0.1,0.1-0.1,0.1-0.1c0.1,0,0.2,0,0.2,0.1c0,0.1,0,0.2-0.1,0.2h-0.3 C91.1,46.1,91,46,90.9,46z" class="st13"/><path d="M90.5,45.3c0-0.1,0.1-0.2,0.1-0.2c0-0.1,0-0.1,0.1-0.2c0.1-0.1,0.1-0.1,0.2,0c0.1,0,0.1,0.1,0,0.2 c0,0,0,0,0,0l0,0c-0.1,0.1-0.1,0.1-0.1,0.1C90.6,45.2,90.5,45.3,90.5,45.3z" class="st13"/><path d="M89.6,45c0-0.1,0-0.2-0.1-0.2v-0.2c0-0.1,0.1-0.2,0.1-0.2l0,0c0.1,0,0.1,0.1,0.1,0.2l0,0 c0,0.1,0,0.1-0.1,0.2C89.7,44.9,89.7,45,89.6,45z" class="st13"/></g><path d="M89.6,49.9c-0.1,0-0.1,0-0.1-0.1c-0.1-0.1-0.1-0.2-0.1-0.2l-0.5-5.8c0-0.1,0-0.2,0.1-0.2 c0.1-0.1,0.1-0.1,0.2-0.1c1.6-0.3,3,0.8,3.3,2.4c0,0.1,0,0.1,0,0.2c0,1.7-1,3.3-2.6,3.9C89.7,49.9,89.7,49.9,89.6,49.9z M89.4,44.2l0.5,5c1.2-0.6,1.9-1.8,1.8-3.1C91.6,44.9,90.6,44.1,89.4,44.2z" class="st12"/><path d="M88,50.3c-1.5,0.1-2.8-1-3-2.5c0-1.7,1-3.2,2.6-3.8c0.1-0.1,0.1,0,0.2,0c0.1,0,0.1,0.1,0.1,0.2l0.5,5.8 c0,0.1-0.1,0.3-0.2,0.3c0,0-0.1,0-0.1,0C88.1,50.3,88.1,50.3,88,50.3z M87.4,44.7c-1.1,0.6-1.9,1.8-1.8,3.1c0,1.1,1,2,2.1,1.9 c0.1,0,0.1,0,0.2,0L87.4,44.7z" class="st12"/></g><g><g><path d="M82.5,46.3c-3.3,0.1-3.3,1.8-2.2,4.3C82.1,49.8,83.4,48.3,82.5,46.3z" class="st14"/><path d="M80,51.2L80,51.2c-0.1,0-0.2-0.1-0.2-0.2c-0.5-1.4-0.8-2.9-0.1-3.9c0.5-0.7,1.4-1,2.8-1.1 c0.1,0,0.2,0.1,0.2,0.2c0.5,0.7,0.6,1.6,0.3,2.4c-0.5,1.2-1.5,2.1-2.7,2.6H80z M82.2,46.6c-1.1,0.1-1.8,0.4-2.1,0.8 c-0.5,0.7-0.2,1.9,0.1,3c0.9-0.4,1.7-1.1,2.1-2.1C82.5,47.8,82.5,47.1,82.2,46.6z" class="st15"/><path d="M82.5,46.6c-0.2,0.1-0.4,0.2-0.6,0.4c-0.2,0.2-0.4,0.4-0.6,0.6C81,48,80.7,48.5,80.5,49 c0-0.4,0.1-0.6,0.1-0.8c0.1-0.3,0.2-0.6,0.4-0.8l0.5-0.7c0.2-0.2,0.5-0.4,0.8-0.5c0.1-0.1,0.3,0,0.4,0.2c0,0,0,0,0,0 C82.7,46.4,82.6,46.5,82.5,46.6L82.5,46.6z" class="st16"/></g><g><path d="M88.3,37.4c2.8-1.5,3.8-0.1,4.1,2.6C90.4,40.3,88.5,39.8,88.3,37.4z" class="st14"/><path d="M91.9,40.6c-1,0-2.1-0.3-2.9-0.9c-0.6-0.5-1-1.3-1-2.1c0-0.1,0.1-0.2,0.1-0.2c0.9-0.6,2-0.8,3-0.5 c1.1,0.5,1.5,2,1.8,3.5c0,0.1,0,0.2-0.1,0.2c-0.1,0.1-0.1,0.1-0.2,0.1L91.9,40.6z M88.6,37.6c0,0.6,0.3,1.2,0.7,1.5 c0.8,0.6,1.8,0.8,2.8,0.7c-0.2-1.2-0.7-2.4-1.4-2.7C90.2,37,89.6,37,88.6,37.6L88.6,37.6z" class="st15"/><path d="M88.2,37.2c0.3-0.1,0.7-0.1,1,0c0.3,0.1,0.6,0.2,0.8,0.4c0.3,0.1,0.5,0.3,0.7,0.6c0.1,0.2,0.4,0.4,0.5,0.7 c-0.4-0.3-0.9-0.6-1.4-0.8c-0.2-0.1-0.5-0.1-0.7-0.2c-0.2,0-0.5,0-0.7,0l0,0c-0.1,0-0.3-0.1-0.3-0.2C88,37.3,88.1,37.2,88.2,37.2 z" class="st16"/></g><g><path d="M101,47.6c-2.2-2.1-3.3-1-4.3,1.3C98.5,49.8,100.4,49.6,101,47.6z" class="st14"/><path d="M98.4,49.8c-0.7,0-1.4-0.2-2-0.4c-0.1,0-0.1-0.1-0.1-0.1V49c0.7-1.3,1.3-2.5,2.5-2.7 c0.7-0.2,1.6,0.2,2.6,1.2c0.1,0.1,0.1,0.2,0.1,0.4c-0.2,0.8-0.7,1.4-1.4,1.8C99.4,49.6,98.9,49.8,98.4,49.8z M96.8,48.9 c0.9,0.3,1.9,0.3,2.7,0c0.5-0.3,0.9-0.7,1.1-1.3c-0.5-0.6-1.2-0.9-1.9-0.9C98,47,97.3,47.9,96.8,48.9z" class="st15"/><path d="M100.9,47.9c-0.2-0.1-0.4-0.1-0.7-0.2h-0.7c-0.5,0.1-1,0.2-1.5,0.4c0.2-0.2,0.4-0.4,0.7-0.5 c0.2-0.1,0.5-0.2,0.7-0.3c0.3-0.1,0.5-0.1,0.8-0.1c0.3,0,0.6,0.1,0.9,0.2c0.1,0.1,0.1,0.2,0.1,0.4 C101.1,48.1,101.1,47.9,100.9,47.9z" class="st16"/></g><g><path d="M75.7,52.8c0.2,0,0.4,0,0.5,0.1c0.1,0,0.4,0.1,0.5,0.1s0.3,0.1,0.5,0.1c0.2,0.1,0.4,0.1,0.6,0.2l0,0 c0.2,0.2,0.2,0.4,0.1,0.6c-0.1,0.2-0.4,0.2-0.6,0.2c0,0-0.1,0-0.1-0.1c-0.1-0.1-0.2-0.1-0.3-0.2c-0.1-0.1-0.3-0.1-0.4-0.2 c-0.1-0.1-0.4-0.1-0.4-0.2s-0.4-0.1-0.5-0.1l0,0c-0.1,0-0.2-0.2-0.2-0.3C75.4,53,75.5,52.8,75.7,52.8z" class="st14"/><g class="st2"><path d="M75.7,52.8c0.2,0,0.4,0,0.5,0.1c0.1,0,0.4,0.1,0.5,0.1s0.3,0.1,0.5,0.1c0.2,0.1,0.4,0.1,0.6,0.2l0,0 c0.2,0.2,0.2,0.4,0.1,0.6c-0.1,0.2-0.4,0.2-0.6,0.2c0,0-0.1,0-0.1-0.1c-0.1-0.1-0.2-0.1-0.3-0.2c-0.1-0.1-0.3-0.1-0.4-0.2 c-0.1-0.1-0.4-0.1-0.4-0.2s-0.4-0.1-0.5-0.1l0,0c-0.1,0-0.2-0.2-0.2-0.3C75.4,53,75.5,52.8,75.7,52.8z" class="st7"/></g><path d="M77.6,54.4c-0.1,0-0.3,0-0.4-0.1l-0.1-0.1c-0.1-0.1-0.1-0.1-0.2-0.2c-0.1-0.1-0.2-0.1-0.4-0.1 c-0.1-0.1-0.3-0.1-0.4-0.2c-0.1-0.1-0.3-0.1-0.4-0.1c-0.1,0-0.2-0.1-0.4-0.2c-0.1-0.2-0.1-0.2-0.1-0.4c0-0.3,0.3-0.4,0.5-0.4l0,0 c0.2,0,0.4,0,0.5,0.1c0.1,0,0.3,0.1,0.5,0.1s0.4,0.1,0.6,0.1s0.4,0.1,0.6,0.2l0,0c0.3,0.1,0.4,0.5,0.3,0.7c0,0.1-0.1,0.1-0.1,0.1 C78,54.2,77.8,54.4,77.6,54.4z M75.7,53L75.7,53c0.2,0.1,0.3,0.1,0.5,0.2c0.1,0.1,0.4,0.1,0.5,0.1s0.3,0.1,0.4,0.2l0.4,0.2l0,0 c0.1,0.1,0.1,0,0.2-0.1s0-0.2-0.1-0.2l0,0c-0.2-0.1-0.3-0.1-0.5-0.2c-0.2-0.1-0.3-0.1-0.5-0.1c-0.1,0-0.4-0.1-0.5-0.1 S75.9,53,75.7,53z" class="st15"/><g><path d="M76.1,53.2c-1-3.6-5.2-0.7-5.2-0.7S74.2,56.4,76.1,53.2z" class="st14"/><g class="st9"><path d="M76,53.3L76,53.3c-1-3.6-5.1-0.7-5.1-0.7c0.1,0.1,0.2,0.2,0.4,0.3C72,52.3,75.1,50.7,76,53.3z" class="st10"/></g><path d="M74.1,54.7c-1.8,0-3.6-1.9-3.6-2c-0.1-0.1-0.1-0.1-0.1-0.2c0-0.1,0-0.1,0.1-0.2c0.1-0.1,2.6-1.7,4.3-1 c0.8,0.3,1.4,1,1.5,1.8v0.2c-0.4,0.7-1.1,1.3-1.9,1.4C74.3,54.7,74.2,54.7,74.1,54.7z M71.1,52.6c0.5,0.5,2,1.8,3.3,1.6 c0.6-0.1,1.2-0.5,1.5-1.1c-0.1-0.6-0.6-1.2-1.2-1.4C73.4,51.3,71.7,52.2,71.1,52.6L71.1,52.6z" class="st15"/><g><line x1="76.1" x2="73.3" y1="53.2" y2="52.8" class="st17"/><path d="M76,53.4c-0.2,0-0.5-0.1-0.7-0.1c-0.2,0-0.5-0.1-0.7-0.1c-0.5-0.1-0.9-0.2-1.3-0.5h2.1 c0.2,0,0.5,0.1,0.7,0.1s0.2,0.2,0.1,0.3C76.2,53.3,76.2,53.4,76,53.4z" class="st16"/></g></g><path d="M74,54.7c0.3-0.2,0.6-0.5,0.9-0.8c0.2-0.2,0.7-0.5,1-0.8c0.1-0.1,0.2-0.1,0.4,0.1c0.1,0.1,0.1,0.2,0,0.3 c0,0,0,0-0.1,0l0,0c-0.4,0.2-0.7,0.4-1.1,0.6C74.8,54.2,74.4,54.5,74,54.7z" class="st15"/><g><path d="M76.1,53.3c0,0-2.1,0.2-2.6,3.8C73.5,57,77.8,55.6,76.1,53.3z" class="st14"/><g class="st9"><path d="M74.1,56.7c0.4-3,2.1-3.2,2.1-3.2c-0.1-0.1-0.1-0.2-0.1-0.2S74,53.4,73.5,57c0.6-0.2,1.2-0.5,1.8-0.8 C74.9,56.4,74.5,56.6,74.1,56.7z" class="st10"/></g><path d="M73.5,57.3c-0.1,0-0.1,0-0.1-0.1c-0.1-0.1-0.1-0.1-0.1-0.2c0.5-3.8,2.7-4,2.8-4c0.1,0,0.2,0,0.2,0.1 c0.4,0.5,0.6,1.2,0.4,1.8C76.1,56.4,73.7,57.3,73.5,57.3z M75.9,53.5c-0.4,0.1-1.8,0.6-2.1,3.2c1-0.3,1.9-1,2.4-1.9 C76.4,54.3,76.2,53.8,75.9,53.5z" class="st15"/><path d="M74.8,54.8c0.1-0.3,0.3-0.6,0.5-0.9c0.2-0.3,0.3-0.6,0.5-0.8c0.1-0.1,0.2-0.2,0.3-0.1s0.1,0.2,0.1,0.3 l-0.1,0.1c-0.2,0.2-0.5,0.4-0.7,0.7C75.3,54.4,75.1,54.6,74.8,54.8z" class="st15"/></g><g><path d="M76,53.3c0,0-2-0.7-1.3-4.5C74.8,48.8,78.5,51.5,76,53.3z" class="st14"/><g class="st9"><path d="M75.4,49.3c-0.2-0.2-0.4-0.4-0.6-0.5c-0.7,3.7,1.3,4.4,1.3,4.4l0.1-0.1C75.8,52.8,74.8,51.8,75.4,49.3z" class="st10"/></g><path d="M76,53.5L76,53.5c-0.1,0-2.2-0.9-1.5-4.7c0-0.1,0.1-0.1,0.1-0.1h0.3c0.1,0.1,2.1,1.6,2.1,3.2 c0,0.6-0.4,1.2-0.9,1.6C76.2,53.5,76.1,53.5,76,53.5z M75,49.3c-0.3,2.6,0.7,3.4,1.1,3.6c0.4-0.2,0.6-0.7,0.6-1.1 C76.6,50.8,75.5,49.8,75,49.3L75,49.3z" class="st15"/><path d="M75.4,51.3c0.1,0.3,0.3,0.6,0.4,0.9c0.1,0.3,0.3,0.6,0.4,0.9c0.1,0.1,0,0.2-0.1,0.3 c-0.1,0.1-0.2,0-0.3-0.1v-0.1c-0.1-0.3-0.1-0.7-0.2-1C75.5,52,75.4,51.7,75.4,51.3z" class="st15"/></g></g></g><path d="M72.4,63.2L72.4,63.2C72.4,63.2,72.5,63.2,72.4,63.2C72.5,63.3,72.5,63.3,72.4,63.2l0.3,0.1 c0.2,0,0.4-0.1,0.6-0.2c0.4-0.2,0.8-0.4,1.2-0.7c0.7-0.5,1.5-1,2.4-1.6c0.8-0.5,1.5-1.2,2.1-1.8c0.2-0.2,0.4-0.3,0.5-0.5l0.5-0.5 l0.2-0.2l0.2-0.2l0.1-0.1l0.1-0.1l0.2-0.2c1.6-1.1,3.3-2,5.1-2.6c0.9-0.3,1.8-0.6,2.7-0.8c0.9-0.2,1.8-0.4,2.7-0.6 c-1.8,0.3-3.7,0.9-5.4,1.5c-0.9,0.3-1.7,0.7-2.5,1.2c-0.8,0.4-1.7,0.9-2.4,1.5l-0.2,0.2v0.1l-0.1,0.1l-0.2,0.2l-0.2,0.2 c-0.2,0.1-0.4,0.3-0.5,0.5l-0.5,0.5c-0.7,0.7-1.4,1.3-2.1,1.9c-0.7,0.6-1.5,1.2-2.4,1.6c-0.4,0.2-0.8,0.5-1.2,0.8 c-0.2,0.1-0.5,0.1-0.7,0.2h-0.5c-0.1,0-0.1-0.1-0.2-0.1l-0.2-0.2c0-0.2,0-0.3,0.1-0.4C72,62.9,72.3,63,72.4,63.2z" class="st7"/><g><g class="st2"><ellipse cx="107.9" cy="48.6" class="st7" rx=".5" ry=".3" transform="matrix(0.9679 -0.2512 0.2512 0.9679 -8.7605 28.6761)"/></g><g class="st2"><ellipse cx="105.7" cy="47.3" class="st7" rx=".8" ry=".6" transform="matrix(0.9679 -0.2515 0.2515 0.9679 -8.5028 28.0995)"/></g><g class="st2"><ellipse cx="100.6" cy="43.9" class="st7" rx=".6" ry=".5" transform="matrix(0.9349 -0.355 0.355 0.9349 -9.041 38.5683)"/></g><g class="st2"><ellipse cx="106.4" cy="38" class="st7" rx=".4" ry=".3" transform="matrix(0.9353 -0.3538 0.3538 0.9353 -6.5633 40.112)"/></g><g class="st2"><ellipse cx="107.3" cy="42.4" class="st7" rx=".5" ry=".4" transform="matrix(0.935 -0.3546 0.3546 0.935 -8.0572 40.7795)"/></g><g class="st2"><path d="M102.6,41c0.1,0.2-0.1,0.3-0.2,0.5c-0.2,0.1-0.4,0-0.5-0.2c-0.1-0.2,0.1-0.4,0.2-0.5 C102.2,40.8,102.5,40.8,102.6,41z" class="st7"/></g><g class="st2"><ellipse cx="95.3" cy="46.7" class="st7" rx=".4" ry=".3" transform="matrix(0.8105 -0.5857 0.5857 0.8105 -9.2594 64.687)"/></g><g class="st2"><ellipse cx="96.5" cy="42.4" class="st7" rx=".4" ry=".3" transform="matrix(0.8105 -0.5857 0.5857 0.8105 -6.531 64.5225)"/></g><g class="st2"><ellipse cx="82.9" cy="53.6" class="st7" rx=".6" ry=".5" transform="matrix(0.8094 -0.5873 0.5873 0.8094 -15.6876 58.9034)"/></g><g class="st2"><ellipse cx="83.3" cy="50.4" class="st7" rx=".5" ry=".4" transform="matrix(0.8098 -0.5867 0.5867 0.8098 -13.7578 58.4487)"/></g><g class="st2"><ellipse cx="78.5" cy="56.5" class="st7" rx=".3" ry=".2" transform="matrix(0.8104 -0.5859 0.5859 0.8104 -18.2317 56.6887)"/></g><g class="st2"><ellipse cx="83.3" cy="44.8" class="st7" rx=".5" ry=".4" transform="matrix(0.8098 -0.5867 0.5867 0.8098 -10.446 57.3757)"/></g><g class="st2"><ellipse cx="87.6" cy="41.6" class="st7" rx=".7" ry=".5" transform="matrix(0.8102 -0.5861 0.5861 0.8102 -7.7643 59.2676)"/></g></g><g><g><g><path d="M112.1,49.6c-0.6,3.5,7.4,4.1,7.4,4.1s5.1-11.9-3.1-22.1S97,22.9,95.9,25.3c-0.7,1.1-0.3,2.6,0.8,3.3 c0.1,0.1,0.2,0.1,0.4,0.2C97,28.8,115.5,30.5,112.1,49.6z" class="st18"/><g class="st9"><path d="M116.5,31.6c-8.2-10.1-19.4-8.7-20.6-6.2c-0.7,1.1-0.3,2.6,0.8,3.3c0.1,0.1,0.2,0.1,0.3,0.2 c-0.7-0.7-0.8-1.8-0.2-2.6c0.2-0.5,1.1-1,2.1-1.3c-0.2,0.1-0.4,0.4-0.3,0.5c0.1,0.4,0.8,0.5,1.6,0.4c0.8-0.1,1.5-0.6,1.5-0.9 c0-0.1-0.1-0.2-0.3-0.4c4-0.1,9.8,1.6,14.5,7.4c7.6,9.4,2.9,20.5,2.9,20.5s-5.3-0.4-6.6-2.4c0.1,3.1,7.4,3.6,7.4,3.6 S124.7,41.8,116.5,31.6z" class="st10"/></g><g class="st2"><path d="M119.5,53.6c0.5-1.3,0.9-2.7,1.2-4.2c-1-0.9-2.1-1.6-3.4-2c-1.2-0.5-1.9-1.6-1.8-2.9 c0.2-3.3,0.2-7.4-2.6-10.9c-6.4-7.9-15.1-6.8-16.2-5c0.1,0.1,0.3,0.2,0.4,0.2c0,0,18.4,1.5,15.1,20.7 C111.6,53,119.5,53.6,119.5,53.6z" class="st7"/></g><path d="M119.5,54L119.5,54c-0.2,0-5.6-0.4-7.3-2.6c-0.4-0.6-0.6-1.2-0.5-1.9c1-5.7,0.1-10.3-2.6-13.9 c-4.3-5.7-12.1-6.4-12.3-6.4l0,0c-0.7-0.4-1.3-1-1.5-1.8c-0.2-0.7-0.1-1.5,0.2-2.2c0.5-0.9,2.1-1.6,4.2-1.9 c4.7-0.5,11.6,1.3,16.9,8.1c3.4,4.3,5.1,9.7,4.7,15.1c-0.1,2.5-0.6,5-1.5,7.3C119.8,53.9,119.8,54,119.5,54z M112.1,49.6 l0.3,0.1c-0.1,0.5,0,0.9,0.3,1.3c1.3,1.6,5.4,2.2,6.5,2.3c0.8-2.2,1.3-4.5,1.4-6.9c0.4-5.3-1.3-10.5-4.6-14.6 c-5.3-6.5-11.8-8.2-16.4-7.9c-2.1,0.2-3.4,0.9-3.6,1.5c-0.6,1-0.3,2.2,0.7,2.8c0.1,0.1,0.2,0.1,0.3,0.2c1.6,0.1,3.1,0.5,4.6,1.1 c3.2,1,6,2.9,8.1,5.5c2.8,3.6,3.8,8.5,2.7,14.5L112.1,49.6z" class="st7"/></g><path d="M119.5,53.6c0,0-1.6,1.8-4.7,0.8c-3.1-1-3.8-3.1-2.7-4.9C113.2,47.8,121.8,50,119.5,53.6z" class="st6"/><g class="st2"><path d="M119.5,53.6c0,0-1.6,1.8-4.7,0.8c-3.1-1-3.8-3.1-2.7-4.9C113.2,47.8,121.8,50,119.5,53.6z" class="st7"/></g><path d="M116.7,55.1c-0.7,0-1.3-0.1-1.9-0.3c-2.1-0.7-3-1.8-3.3-2.6c-0.3-0.9-0.2-2,0.3-2.8c0.6-0.6,1.5-0.9,2.4-0.7 c2.1,0.1,5,1.2,5.8,2.7c0.5,0.8,0.4,1.8-0.1,2.5V54C119,54.7,117.9,55.1,116.7,55.1z M114,49.3c-0.7,0-1.3,0.2-1.5,0.5 c-0.5,0.6-0.6,1.4-0.2,2.2c0.5,1.1,1.6,1.9,2.8,2.1c1.4,0.6,3,0.3,4.2-0.7c0.4-0.5,0.4-1.2,0.1-1.8c-0.7-1.3-3.3-2.4-5.3-2.4 C114.1,49.3,114.1,49.3,114,49.3z" class="st7"/></g><g><path d="M101.4,27.3c-0.1-0.2-0.1-0.3-0.1-0.5c0-0.2,0-0.3,0.1-0.5l0.2-0.5c0.1-0.1,0.3-0.2,0.4-0.2 c-0.1,0.1-0.2,0.3-0.2,0.4c-0.1,0.2-0.1,0.2-0.1,0.5c-0.1,0.1-0.1,0.3-0.1,0.4C101.5,27,101.5,27.2,101.4,27.3z" class="st19"/><path d="M102.4,27.9c0-0.2,0-0.4,0-0.7c0-0.2,0.1-0.5,0.2-0.7c0.1-0.2,0.2-0.5,0.4-0.6c0.1,0,0.1-0.1,0.1-0.1 c0.1,0,0.1-0.1,0.1-0.1s0.1-0.1,0.1-0.1s0.1,0,0.1-0.1c-0.1,0.1-0.3,0.4-0.4,0.5c-0.1,0.2-0.2,0.3-0.3,0.5 c-0.1,0.2-0.2,0.4-0.2,0.6C102.5,27.5,102.4,27.7,102.4,27.9z" class="st19"/></g><g><path d="M115.5,42.9c0.1-0.2,0.4-0.2,0.7-0.4c0.2-0.1,0.5-0.1,0.7-0.1c0.3,0,0.5,0.1,0.7,0.2c0.1,0,0.1,0.1,0.1,0.1 s0.1,0.1,0.1,0.1s0.1,0.1,0.1,0.1s0.1,0.1,0.1,0.2c-0.2-0.1-0.4-0.1-0.7-0.2c-0.2-0.1-0.4-0.1-0.7-0.1h-0.7 C116,42.8,115.8,42.8,115.5,42.9z" class="st19"/><path d="M115.2,44.5c0.3-0.1,0.7-0.2,1-0.3c0.3-0.1,0.7-0.1,1,0c0.1,0,0.2,0,0.2,0.1c0.1,0,0.1,0.1,0.2,0.1 c0.1,0,0.1,0.1,0.2,0.1l0.1,0.1l0.1,0.1c0.1,0.1,0.1,0.1,0.2,0.2c0.1,0.1,0.1,0.1,0.1,0.2l0.1,0.1l0.1,0.1 c0.1,0.1,0.1,0.2,0.1,0.2c-0.3-0.2-0.6-0.3-0.9-0.4l-0.1-0.1h-0.1c-0.1,0-0.1-0.1-0.2-0.1c-0.1,0-0.2,0-0.2-0.1 c-0.1-0.1-0.1,0-0.2-0.1c-0.3-0.1-0.7-0.1-1-0.1C115.8,44.5,115.5,44.5,115.2,44.5z" class="st19"/></g></g><g><path d="M105.1,41.8c2.5-1.3,3.2-0.1,3.5,2.2C106.8,44.2,105.3,43.6,105.1,41.8z" class="st14"/><path d="M108.3,44.4c-0.9,0.1-1.9-0.2-2.6-0.8c-0.5-0.5-0.8-1.2-0.9-1.9c0-0.1,0.1-0.1,0.1-0.2 c0.7-0.5,1.7-0.7,2.6-0.4c0.9,0.4,1.3,1.6,1.6,3c0,0.1,0,0.2-0.1,0.2c-0.1,0.1-0.1,0.1-0.1,0.1C108.7,44.4,108.5,44.5,108.3,44.4z M105.3,41.8c0.1,0.5,0.3,1,0.7,1.3c0.7,0.6,1.6,0.8,2.5,0.7c-0.1-0.9-0.6-1.8-1.3-2.4C106.6,41.4,105.9,41.5,105.3,41.8 L105.3,41.8z" class="st15"/><path d="M105,41.4c0.3-0.1,0.6-0.1,0.8,0c0.3,0.1,0.5,0.2,0.7,0.3c0.2,0.2,0.4,0.3,0.6,0.5c0.1,0.2,0.3,0.5,0.5,0.6 c-0.4-0.3-0.8-0.5-1.3-0.7c-0.2-0.1-0.4-0.1-0.7-0.2h-0.6c-0.1,0-0.2-0.1-0.3-0.2S104.9,41.5,105,41.4z" class="st16"/></g></g><linearGradient id="SVGID_1_" x1="165.33" x2="165.33" y1="70.874" y2="-37.045" gradientTransform="matrix(6.123234e-17 1 1 -6.123234e-17 103 -45.33)" gradientUnits="userSpaceOnUse"><stop style="stop-color:#f0b90b" offset="0"/><stop style="stop-color:#f8d33a" offset="1"/></linearGradient><ellipse cx="119.9" cy="120" class="st20" rx="54" ry="54"/><linearGradient id="SVGID_2_" x1="13.415" x2="13.415" y1="134.83" y2="35.83" gradientTransform="matrix(1 0 0 1 106.5 -14.83)" gradientUnits="userSpaceOnUse"><stop style="stop-color:#f0b90b" offset="0"/><stop style="stop-color:#f8d33a" offset="1"/></linearGradient><ellipse cx="119.9" cy="120" class="st21" rx="49.5" ry="49.5"/><ellipse cx="120" cy="120.1" class="st10" rx="45" ry="45"/><linearGradient id="SVGID_3_" x1="119.917" x2="119.917" y1="60.17" y2="141.17" gradientTransform="matrix(1 0 0 -1 0 220.67)" gradientUnits="userSpaceOnUse"><stop style="stop-color:#e6eafa" offset="0"/><stop style="stop-color:#e4f5eb" offset="1"/></linearGradient><path d="M148.5,91.4c-15.8-15.8-41.4-15.8-57.2,0s-15.8,41.5,0,57.3c15.8,15.8,41.4,15.8,57.2,0	C164.3,132.8,164.3,107.2,148.5,91.4z" class="st22"/><path d="M121,111.6l16.7,7.6l-1.1,2.4l-16.7-7.6L121,111.6z" class="st23"/><path d="M119.9,114l-16.7,7.6l-1.1-2.4l16.7-7.6L119.9,114z" class="st24"/><path d="M119.9,151.5l19.2-27l-19.2,11.4V151.5z M129.7,133.1l-7.1,4.2v5.8L129.7,133.1z" class="st25"/><path d="M119.9,88.5v43.3l19.2-11.4L119.9,88.5z M122.6,98.1v29.1l12.9-7.7L122.6,98.1z" class="st26"/><path d="M117.3,137.4l-7.1-4.2l7.1,10V137.4z M119.9,135.8l-19.2-11.4l19.2,27.1V135.8z" class="st27"/><path d="M100.7,120.4l19.2,11.4V88.5L100.7,120.4z M104.3,119.5l12.9,7.7V98.1L104.3,119.5z" class="st28"/></svg>