<svg xmlns="http://www.w3.org/2000/svg" xmlns:v="https://vecta.io/nano" xmlns:xlink="http://www.w3.org/1999/xlink" style="enable-background:new 0 0 180 180" id="Layer_1" x="0" y="0" version="1.1" viewBox="0 0 180 180" xml:space="preserve"><style type="text/css">.st0{fill:#aa8159}.st1{fill:#b68a4f}.st2{opacity:.3}.st3{fill:#c49776}.st4{fill:#e5e5e5}.st5{fill:#fff}.st6{fill:#2f3030}.st7{fill:#100c18}.st8{fill:#828384}.st9{fill:#343535}.st10{fill:url(#SVGID_1_)}.st11{fill:url(#SVGID_2_)}.st12{fill:url(#SVGID_3_)}.st13{fill:#d48fcd}.st13,.st14,.st15,.st16,.st17,.st18{fill-rule:evenodd;clip-rule:evenodd}.st14{fill:#a1dd71}.st15{fill:#5a9ded}.st16{fill:#ff9c92}.st17{fill:#53d3e1}.st18{fill:#f8d136}</style><title>beth-pizza</title><g><path d="M79.3,156.5c35.1,16.7,77.1,1.7,93.7-33.4s1.7-77.1-33.4-93.8c-30-14.3-65.9-5.6-86.1,20.8 c-6.2-0.1-12.2-2-17.3-5.5c0,0-9.2-5.8-12.3-9.8s-12.5-9.4-19.1,1l-1.1,2.4l-1.5,3.2l-1.1,2.4c-3.8,11.7,6.3,15.6,11.4,15.4 C17.8,59,28,62.4,28,62.4c5.6,1.6,10.6,4.7,14.6,9C31.8,105,47.5,141.4,79.3,156.5z M7.9,43.2c1.3-2.8,4.6-4,7.4-2.7 c2.8,1.3,4,4.6,2.7,7.4c-1.3,2.8-4.6,4-7.4,2.7c-2.7-1.2-4-4.3-2.8-7.1C7.8,43.4,7.8,43.3,7.9,43.2z" class="st0"/><path d="M0,48.5c0-1.6,0.3-3.2,0.8-4.7l0,0l3.8-8l0,0c2.5-4,5.6-6,9.3-6.2c4.3-0.2,8.4,2.6,10.4,5.2 c3,4,12.1,9.7,12.2,9.7c5,3.4,10.9,5.3,17,5.5c20.1-26.5,55.9-35.3,85.9-21.1c25,11.8,40.8,37.1,40.4,64.8 c-0.1,10.1-2.4,20.1-6.8,29.2c-16.6,35.3-58.6,50.4-93.8,33.9C54.2,145,38.4,119.7,38.8,92l0,0c0.1-7,1.2-13.9,3.3-20.5 c-3.9-4.1-8.8-7.2-14.3-8.8c-0.1,0-10.3-3.4-15.3-3.2c-3.5,0-7-1.2-9.6-3.6C1,53.9-0.1,51.3,0,48.5z M1.5,44 c-0.5,1.5-0.8,3-0.8,4.5c-0.1,2.6,0.9,5.1,2.8,6.9c2.5,2.3,5.7,3.5,9.1,3.4c5.1-0.2,15.1,3.1,15.5,3.3c5.6,1.7,10.7,4.8,14.7,9.1 c0.1,0.1,0.1,0.2,0.1,0.4c-2.1,6.6-3.3,13.5-3.4,20.4l0,0c-0.7,38.8,30.3,70.8,69.1,71.5c38.8,0.7,70.8-30.3,71.4-69.1 s-30.3-70.8-69.1-71.5C88.6,22.5,67.5,32.7,54,50.4c-0.1,0.1-0.2,0.1-0.3,0.1c-6.3-0.1-12.3-2-17.5-5.6c-0.4-0.2-9.3-5.8-12.4-9.9 c-2.4-3-6-4.8-9.8-4.9c-3.4,0.1-6.3,2.1-8.7,5.8L1.5,44z M7,45.5c0-0.9,0.2-1.7,0.6-2.5c0.7-1.4,1.9-2.5,3.4-3.1 c1.5-0.5,3.1-0.5,4.5,0.2c2.1,1,3.4,3.1,3.4,5.4c0,0.9-0.2,1.7-0.6,2.5c-0.7,1.4-1.9,2.5-3.4,3.1c-3.1,1.1-6.4-0.5-7.5-3.5 C7.1,46.9,7,46.2,7,45.5z M18.1,45.6c0-2-1.2-3.9-3-4.8c-1.2-0.6-2.7-0.7-4-0.2C9.8,41,8.7,42,8.2,43.3c-0.3,0.7-0.5,1.4-0.5,2.2 c0,2,1.2,3.9,3,4.8c1.2,0.6,2.7,0.7,4,0.2c1.3-0.4,2.4-1.4,2.9-2.7C17.9,47.1,18.1,46.4,18.1,45.6z" class="st1"/></g><g><g class="st2"><path d="M25.2,41.1c0.6,0.3,1.4,0.5,2.1,0.4c0.8-0.2,0.6-1.4,0.5-2c-0.1-0.5-0.3-1-0.5-1.5c-1.2-1-2.2-2-3.2-3.2 c-0.9-1.2-2-2.1-3.2-2.9c1,1.5,1.5,3.2,1.5,4.9c0,0.1-0.1,0.2-0.2,0.2c-3.6-0.9-6.9-3.1-9.8-5.3L11,30.6c-0.6,0.3-1.2,0.6-1.8,1 c3,2,6,4,9,5.9C20.4,38.9,22.8,40.1,25.2,41.1z" class="st3"/><path d="M5,35.8l-0.7,1.4c2.1,1.1,4.3,2.1,6.4,3.2c1.4-0.6,3.1-0.6,4.5,0.1c1.6,0.8,2.8,2.3,3.1,4.1 c4,2.3,8,4.6,12,6.8c1.8,1,3.5,1.9,5.3,2.9c1.7,1.1,3.5,2,5.4,2.6c1.4,0.4,4.3,0.4,4.2-1.7c0-1.8-1.2-3.5-2-5.1 c-0.5-0.9-1-1.8-1.4-2.7c-1.9-0.8-3.7-1.8-5.4-2.9c-0.4-0.3-0.7-0.5-1.1-0.7c0.2,0.3,0.3,0.7,0.4,1.1c0.4,0.8,0.5,1.8,0.4,2.7 c-0.4,1.7-2.3,1.3-3.5,0.9c-2.6-1-5.1-2.4-7.4-4c-2.7-1.7-5.3-3.5-7.9-5.4c-1.5-1.1-3.1-2.2-4.7-3.1c-1.9-1-3.7-2-5.6-3 C6.3,33.9,5.6,34.8,5,35.8z" class="st3"/><path d="M52.4,57.3c0.4,1.6,0.6,3.9-0.8,5.1c-2,1.8-5.6,1-7.9,0.5c-10-2.2-18.5-8.3-27.4-13c-1.2,1-2.8,1.4-4.3,1.1 c5.6,2.3,11.2,4.7,16.8,7c5.4,2.3,10.8,4.6,16.2,6.8c3.5,1.4,7.1,3,10.7,4.1c0.8,0.3,1.7,0.5,2.5,0.6c1.2,0.2,3.5,0.6,4.3-0.6 c0.7-1,0.3-2.3,0-3.4c-0.5-1.6-1.2-3.1-2-4.6c-0.9-1.9-2-3.8-3.1-5.6c-1.2-1.8-2.5-3.5-3.9-5.2c-1.4,0-2.9-0.1-4.3-0.4 C50.6,52.1,51.6,54.6,52.4,57.3z" class="st3"/><path d="M0.5,46.6c3.1,1.1,6.1,2.3,9.2,3.5c-1.5-1-2.4-2.7-2.4-4.5c-1.9-0.8-3.9-1.7-5.8-2.5l-0.3,0.7 C0.9,44.8,0.7,45.7,0.5,46.6z" class="st3"/><path d="M27.6,62.3c-6-2.8-12-5.5-18.1-8.1c-2.9-1.2-5.9-2.4-8.9-3.5c1.2,6.4,8.1,8.6,12,8.5 C17.1,59,25.6,61.6,27.6,62.3z" class="st3"/><path d="M159.4,43.4c-4.9-0.7-9.5-2.5-13.7-5.1c-4-2.6-7.8-5.6-11.4-8.8c-1.4-1.2-2.6-2.5-3.9-3.8 c-2.9-0.9-5.9-1.6-8.9-2.2c1.2,1.1,2.5,2.1,3.7,3.1c4.1,3.7,8.4,7.2,12.9,10.4c7.3,5,15.6,8.4,24.4,9.7 C161.5,45.6,160.5,44.5,159.4,43.4z" class="st3"/><path d="M166.3,51.6c-0.4,0-0.8-0.1-1.2-0.1c-3.4-0.2-6.8-0.7-10.1-1.3c-10.5-2.4-20.3-7-28.8-13.6 c-5.5-4.2-10.6-9-15.3-14.1c-2,0-4,0-6,0.1c6.6,6.3,12.8,13,19.8,18.8c3.9,3.4,8.1,6.3,12.6,8.8c4.9,2.6,10.1,4.8,15.4,6.6 c4.7,1.7,9.4,3.2,14.2,4.6c2.2,0.6,4.3,1.3,6.5,2.1C171.3,59.4,168.9,55.4,166.3,51.6z" class="st3"/><path d="M175.8,70.2c-3.7-1.2-7.4-2.7-11.2-3.6c-8-1.8-15.9-4.5-23.4-7.8c-4.8-2.2-9.5-4.8-14.2-7.4 c-4.7-2.6-9.3-5.4-13.8-8.3c-8.2-5.3-16-11.2-23.3-17.8c-2,0.6-4.1,1.3-6,2c1.5,1,3,2,4.4,3.1c5,3.5,10,7.1,14.9,10.8 c4.9,3.7,9.7,7.2,14.6,10.8c3.1,2.2,6.1,4.6,9.4,6.5c4.5,2.4,9.2,4.5,14,6.2c2.6,1,5.2,2,7.9,3c2.5,0.9,4.9,1.9,7.5,2.7 c6.9,2.2,14.2,3.4,21,5.9C177.1,74.3,176.5,72.2,175.8,70.2z" class="st3"/><path d="M179.5,92.6c-1.4-0.6-2.8-1.3-4.2-2c-4-1.9-7.6-4.4-10.9-7.3c-0.1-0.1,0-0.2,0-0.3c0,0,0,0,0.1,0 c5,0.3,9.8,1.7,14.6,3.2c-0.1-1-0.2-1.9-0.3-2.9c-2-0.6-4-1.2-6-1.6c-4.4-1-8.9-1.7-13.3-2.8c-3.1-0.7-6.1-2-9.2-2.9 c-1.8-0.6-3.7-1-5.6-1.2c-1.3-0.2-2.7-0.1-3.9,0.4c2.6,2.7,5.8,4.9,9.3,6.4c3.6,1.8,7.4,3.2,11.2,4.8c4.3,1.8,8.5,3.9,12.7,5.8 c1.8,0.8,3.5,1.6,5.3,2.4C179.4,93.9,179.5,93.3,179.5,92.6z" class="st3"/><path d="M179.5,94.9c-1.8-0.8-3.7-1.6-5.5-2.5c-4.4-2-8.6-4.2-13.1-6c-3.8-1.5-7.6-3-11.3-4.8 c-3.3-1.7-6.6-3.6-9.1-6.4c-0.1-0.1-0.1-0.2,0-0.3c0,0,0,0,0,0c0.2-0.1,0.3-0.2,0.5-0.2c1.3-0.4,2.7-0.5,4.1-0.2 c1.8,0.2,3.5,0.6,5.2,1.2c3.2,0.9,6.2,2.2,9.4,2.9c4.5,1,9.1,1.7,13.6,2.8c1.8,0.4,3.5,0.9,5.2,1.5c0-0.1,0-0.3-0.1-0.4 c-1.3-0.4-2.5-0.8-3.8-1.2c-10-3.2-20.3-5.5-30.4-8.6c-5-1.5-9.9-3.2-14.7-5.3c-4.7-2.1-9.4-4.5-13.8-7.2c-9-5.4-17.3-11.8-25-19 c-3-2.8-6.1-5.4-9-8.4c-1-1.1-2-2.2-3-3.4c-1.8,0.9-3.6,1.8-5.3,2.8c0.9,0.8,1.8,1.6,2.7,2.5c3.5,3.4,7,6.7,10.3,10.3l5.4,6.3 c1.7,2.1,3.4,4.2,5.2,6.2c6.9,7.6,15.7,13,24.8,17.4c10.6,5.1,21.5,9.5,32.4,13.9c8.3,3.4,16.3,7.6,24.4,11.4 C179.2,98.5,179.5,96.7,179.5,94.9z" class="st3"/><path d="M166.3,104.9c0.9,1.3,1.9,2.4,3.2,3.3c1.9,1.6,3.9,3.1,6,4.5l0.9,0.6c0.5-1.6,0.9-3.3,1.3-4.9 C174,106.9,170.4,105,166.3,104.9z" class="st3"/><path d="M175.5,116.2c-2.4-1.3-4.7-2.7-7-4.3c-3.1-2.1-6.4-3.9-9.7-5.8c-3.9-2.3-7.9-4.7-11.1-8c-0.1-0.1,0-0.2,0-0.3 c0,0,0,0,0.1,0c3.1-1.1,6.6,0,9.5,1c3.1,1.1,6.2,2.2,9.4,3.2c3.9,1.1,7.7,2.4,11.5,3.9c0.1-0.7,0.2-1.3,0.4-2 c-4.8-1.7-9.6-3.2-14.4-4.7c-10.3-3.2-20.7-6.2-30.6-10.4c-4.9-2-9.6-4.3-14.2-7c-4.5-2.6-8.8-5.5-12.9-8.7 C92.3,62.4,80,49.3,68.1,36.1c-1.3,1-2.6,2-3.9,3.1c0.4,0.3,0.7,0.6,1.1,0.9c5.1,4.5,8.7,10.2,12.4,15.9c2.7,4.5,5.9,8.6,9.4,12.5 c3.6,3.7,7.5,7.1,11.6,10.1c8.4,6.4,17.4,11.9,26.9,16.6c9.9,4.8,20.1,8.8,29.7,14.3c4.8,2.7,9.6,5.5,14.6,7.9 c1.4,0.7,2.9,1.3,4.4,1.9C174.7,118.3,175.1,117.3,175.5,116.2z" class="st3"/><path d="M156,127.2c-2.8-1.2-5.7-2.3-8.6-3.1c-2.6-0.9-5.3-1.3-8.1-1.2c1.5,2.4,4.3,4,6.8,5.2 c2.8,1.4,5.7,2.6,8.6,3.8c3.1,1.3,6,2.8,8.9,4.3c0.2,0.1,0.5,0.2,0.7,0.3c1-1.3,2-2.6,2.9-4c-0.5-0.2-0.9-0.5-1.4-0.7 C162.6,130,159.4,128.5,156,127.2z" class="st3"/><path d="M48.7,118.7c1.7,0.5,3.3,1.2,5,1.7c2.6,0.8,5.3,1.5,7.9,2.3c10.6,3,21.3,5.7,31.9,8.8 c11.3,3.4,22.5,7,33.8,10.3c5.6,1.6,11.2,3.4,16.7,5.3c2.3,0.8,4.6,1.6,6.9,2.3c0.7-0.5,1.4-1,2-1.6c-1.1-0.5-2.3-0.9-3.4-1.4 c-4.9-1.9-9.9-3.4-14.9-5c-11.1-3.7-22.2-7.6-33.1-11.7s-21.7-8.1-32.8-11.3c-9-2.6-17.8-6.4-27.1-7.4c0.6,2.1,1.2,4.2,2,6.2 L48.7,118.7z" class="st3"/><path d="M68.5,144.1c11.1,4,21.9,8.3,32.7,13c4.5,1.9,9,3.9,13.5,5.8c4-0.3,8.1-1,12-2l-6.3-2.7 c-6.9-2.9-14-5.4-21.1-7.8c-5.4-1.9-10.9-3.6-16.3-5.6c-5.2-1.9-10.3-4.1-15.4-6.5l-15-7.2c-1-0.5-2-1-3-1.4 c2.3,3.8,4.9,7.3,7.9,10.6C61.2,141.4,64.9,142.8,68.5,144.1z" class="st3"/><path d="M67.5,149.2c3.8,1.5,7.6,3,11.4,4.6c6.3,2.7,12.6,5.5,18.9,8.4c2,0.3,4.1,0.6,6.1,0.7 c-7.5-3.6-15.1-7-22.7-10.5c-4.6-2.1-9.2-4.3-14-6.1c-1.9-0.8-3.9-1.5-5.9-2c1.8,1.7,3.7,3.3,5.7,4.8 C67.1,149.1,67.3,149.1,67.5,149.2z" class="st3"/><path d="M44,106.7c2.3,0.7,4.7,1.2,7.1,1.5c5.8,1.1,11.6,2.2,17.3,3.7c11.3,3.1,22.3,6.9,33.5,10.2s22.6,6.1,33.8,9.5 c8.3,2.7,16.4,6,24.2,9.9c0.8-0.9,1.6-1.7,2.4-2.6c-3.8-1.3-7.5-2.7-11.2-4.2c-5.3-2.1-10.4-4.5-15.6-6.8 c-10.8-4.7-21.8-8.8-32.7-13.3c-10.3-4.2-20.7-8.3-31.4-11.2c-10.5-3-21.2-4.9-32-5.9c0.2,2.7,0.5,5.4,1,8.1 C41.6,106,42.8,106.4,44,106.7z" class="st3"/><path d="M104.9,99.3c0.7-0.1,1.4-0.3,2.1-0.6c0.3-0.1,0.5-0.3,0.8-0.4c0.5-0.3,0.5-0.3,0.1-0.6 c-1.4-1.4-3-2.6-4.8-3.6c-3.8-2-7.9-3.6-12.1-4.6c-3.9-1-8-1.6-12-2c-5.6-0.5-11.1-1.4-16.6-2.6c-2.8-0.6-5.6-1.3-8.3-2.1 c-2-0.6-4-1.3-5.9-2.1c-2.1-0.8-4.2-1.6-6.3-2.2l-1.2-0.3c-0.2,1-0.4,1.9-0.6,2.9c2.9,0.7,5.7,1.7,8.3,3c0.2,0.1,0.1,0.3-0.1,0.3 c-2.9,0.2-5.8,0-8.7,0.1l-0.3,3.3c7.4,1,14.8,2.3,22.2,3.7c4.5,0.9,9,1.7,13.5,2.6c3,0.4,5.9,1,8.8,1.8c3.5,1,6.9,1.9,10.5,2.7 C97.6,99.3,101.4,100,104.9,99.3z" class="st3"/><path d="M172.6,123.2c-0.7-0.4-1.4-0.8-2.2-1.1c-5.6-2.6-11.3-4.7-17.1-6.9c-10.2-3.9-20.4-7.7-30.2-12.5 c-9.5-4.6-18.8-10-26.6-17.2c-7.5-7-13.7-15.2-20-23.2C71.5,55.6,66.6,48.4,60,43l-1.3,1.3c0.5,0.9,1.1,1.9,1.7,2.8 c3.1,5.1,6.3,10.1,9.1,15.2c1.3,2.4,2.5,4.8,3.6,7.3c0.9,1.9,1.4,4,1.7,6.1c0.2,1.4-0.2,2.9-1.1,4c-1.7,1.7-4.5,1.6-6.6,1.1 C62.9,80,59.2,78,55.5,76c-4.7-2.5-9.5-4.7-14.2-7c-1.2-0.6-2.3-1.2-3.5-1.7c1.7,1.3,3.3,2.7,4.8,4.2c-0.4,1.1-0.7,2.3-1,3.4 c3,0.8,6,1.8,8.9,2.9c0.2,0.1,0.2,0.3,0,0.3c-3.2,0.7-6.3-0.2-9.5-0.6c0,0.1,0,0.2-0.1,0.3c1.6,0.4,3.2,1,4.7,1.5 c3.6,1.4,7.3,2.7,11,3.7c5.7,1.5,11.4,2.7,17.2,3.5c4.3,0.6,8.6,0.9,12.9,1.7c7.7,1.4,16.5,3.7,22,9.7c0.1,0.1,0.1,0.2,0,0.3 c0,0,0,0,0,0c-1.7,1.5-4.2,1.8-6.4,1.8c-3.1,0-6.2-0.5-9.2-1.2c-3.4-0.8-6.8-1.7-10.2-2.7c-4.4-1.2-8.9-1.8-13.4-2.6 c-10-1.9-20-3.9-30.1-5.3c-0.1,1.6-0.2,3.3-0.2,4.9c4.3,0.4,8.7,0.7,12.9,1.2c11.5,1.6,22.9,3.8,34.1,6.8 c11.3,3,22.6,6.3,33.7,9.9c10.6,3.4,21,7.3,31.6,10.8c6.2,1.9,12.4,4.1,18.4,6.7C170.8,126.7,171.7,125,172.6,123.2z" class="st3"/></g><g><path d="M58.1,48.3c1.4-1.6,3.2-3,4.8-4.5c1.8-1.6,3.6-3.2,5.4-4.6c3.6-2.8,7.4-5.2,11.5-7.2 c4.5-2.2,9.3-3.9,14.2-5.2c2.4-0.6,4.7-1.4,7.1-1.8c2.6-0.4,5.2-0.5,7.7-0.9c0.4-0.1-0.1-0.7-0.4-0.6c-2.4,0.2-4.9,0.3-7.3,0.5 c-2.7,0.4-5.3,1-7.9,1.7c-4.8,1.2-9.4,2.8-13.9,4.9c-4.3,2.1-8.3,4.6-12.1,7.5c-1.8,1.4-3.5,2.9-5.1,4.4c-1.6,1.5-3.8,3.2-4.9,5.1 C57.2,48.1,57.9,48.6,58.1,48.3z" class="st3"/><path d="M33.1,44.3c-2.6-2-5.2-3.9-7.7-6.1c-2.2-1.9-3.9-4.3-6.3-5.9c-4.5-3-9.6-0.2-12.7,3.5C6.2,36,6.8,36.5,7,36.4 c1.7-1.4,3.5-2.6,5.4-3.6c3.3-1.6,6.1-0.2,8.5,2.2c1.6,1.6,3.1,3.2,4.9,4.7c2.2,1.8,4.6,3.3,6.9,4.9 C33.2,44.9,33.5,44.6,33.1,44.3z" class="st3"/><path d="M12.7,57.8c-2-0.5-3.9-1.2-5.7-2.1c-1.9-1.1-3.4-2.8-4.3-4.8c-0.2-0.3-0.9-0.6-0.8,0 c1.2,4.8,6.5,6.9,10.9,7.5C13.3,58.5,12.9,57.9,12.7,57.8z" class="st3"/><path d="M107.7,161.1c5.4-0.1,10.8-0.6,16.2-1.6c10.5-2,20.1-7,28.7-13.1c0.3-0.2-0.2-0.7-0.5-0.5 c-8.6,5.2-17.7,10.1-27.6,12.3c-10.5,2.3-22,2.9-32.5,0.4c-0.6-0.1-0.3,0.5,0.1,0.6C97,161,102.4,161.2,107.7,161.1z" class="st3"/></g></g><circle cx="96" cy="46" r="40" class="st4"/><circle cx="96" cy="46" r="37.1" class="st5"/><path d="M96.1,60.9v14.7l18.1-25.4L96.1,60.9z" class="st6"/><path d="M96.1,38.2v19l18.1-10.7L96.1,38.2z" class="st7"/><path d="M96.1,16.4v21.8l18.1,8.2L96.1,16.4z" class="st6"/><path d="M96.1,60.9v14.7L77.9,50.2L96.1,60.9z" class="st8"/><path d="M96.1,38.2v19L77.9,46.4L96.1,38.2z" class="st9"/><path d="M96.1,16.4v21.8l-18.1,8.2L96.1,16.4z" class="st8"/><linearGradient id="SVGID_1_" x1="165.33" x2="165.33" y1="71" y2="-37" gradientTransform="matrix(6.123234e-17 1 1 -6.123234e-17 103 -45.33)" gradientUnits="userSpaceOnUse"><stop style="stop-color:#f0b90b" offset="0"/><stop style="stop-color:#f8d33a" offset="1"/></linearGradient><circle cx="120" cy="120" r="54" class="st10"/><linearGradient id="SVGID_2_" x1="13.5" x2="13.5" y1="134.83" y2="35.83" gradientTransform="matrix(1 0 0 1 106.5 -14.83)" gradientUnits="userSpaceOnUse"><stop style="stop-color:#f0b90b" offset="0"/><stop style="stop-color:#f8d33a" offset="1"/></linearGradient><circle cx="120" cy="120" r="49.5" class="st11"/><circle cx="120.1" cy="120.1" r="45" class="st5"/><linearGradient id="SVGID_3_" x1="120.002" x2="120.002" y1="60.17" y2="141.17" gradientTransform="matrix(1 0 0 -1 0 220.67)" gradientUnits="userSpaceOnUse"><stop style="stop-color:#e6eafa" offset="0"/><stop style="stop-color:#e4f5eb" offset="1"/></linearGradient><path d="M148.6,91.4c-15.8-15.8-41.5-15.8-57.3,0s-15.8,41.5,0,57.3c15.8,15.8,41.5,15.8,57.3,0	C164.5,132.8,164.5,107.2,148.6,91.4z" class="st12"/><path d="M121.1,111.6l16.7,7.6l-1.1,2.4L120,114L121.1,111.6z" class="st13"/><path d="M120,114l-16.7,7.6l-1.1-2.4l16.7-7.6L120,114z" class="st14"/><path d="M120,151.5l19.3-27L120,135.9V151.5z M129.8,133.1l-7.2,4.2v5.8L129.8,133.1z" class="st15"/><path d="M120,88.5v43.3l19.3-11.4L120,88.5z M122.7,98.1v29.1l12.9-7.7L122.7,98.1z" class="st16"/><path d="M117.3,137.4l-7.2-4.2l7.2,10V137.4z M120,135.8l-19.3-11.4l19.3,27.1V135.8z" class="st17"/><path d="M100.7,120.4l19.3,11.4V88.5L100.7,120.4z M104.4,119.5l12.9,7.7V98.1L104.4,119.5z" class="st18"/></svg>