<svg xmlns="http://www.w3.org/2000/svg" xmlns:v="https://vecta.io/nano" xmlns:xlink="http://www.w3.org/1999/xlink" id="Layer_1" x="0" y="0" version="1.1" viewBox="0 0 180 180" xml:space="preserve" style="enable-background:new 0 0 180 180"><style type="text/css">.st0{fill:#aa8159}.st1{fill:#b68a4f}.st2{opacity:.3}.st3{fill:#c49776}.st4{fill:#f0b90b}.st5{fill:#fffdfa}.st6{opacity:.1;fill:none;stroke:#191326;stroke-width:4;enable-background:new}.st7,.st8{fill-rule:evenodd;clip-rule:evenodd;fill:url(#SVGID_1_)}.st8{fill:#633001}.st9{fill:#fedc90}.st10{fill-rule:evenodd;clip-rule:evenodd;fill:#d1884f}.st11{fill:#633001}.st12{fill:#ffd283}.st13{fill:#f7af41}.st14{fill:#6c184e}.st15{fill:#ffce00}.st16{opacity:.65}.st17{fill:#fff}.st18{fill:#ee1822}.st19{fill:#bd1622}.st20{fill:#f6c547}.st21{fill:#48c75a}.st22{fill:#661a47}.st23{fill:#651b47}.st24{fill:none}.st25{fill:#eb984e}.st26{fill:#6d184e}</style><g><path d="M79.4,156.5c35.1,16.5,76.9,1.4,93.5-33.8s1.6-77.1-33.5-93.6c-30.5-14.3-66-4.8-85.7,21 c-3.9,0-10.4-0.9-17.3-5.5c0,0-9.2-5.8-12.3-9.8c-3.1-4.1-12.5-9.4-19.1,1l-1.1,2.4l-1.5,3.2l-1.1,2.4 c-3.8,11.7,6.3,15.6,11.4,15.4c5-0.2,15.3,3.2,15.3,3.2c7.3,2.2,11.9,6.1,14.6,9C31.9,104.6,47.2,141.3,79.4,156.5z M7.9,43.2 c1.3-2.8,4.6-4,7.4-2.7s4,4.6,2.7,7.4c-1.3,2.8-4.6,4-7.4,2.7C7.7,49.3,6.5,46,7.9,43.2z" class="st0"/><path d="M0,48.5c0-1.5,0.3-3.1,0.8-4.7l0,0l3.8-8l0,0c2.5-4,5.6-6,9.3-6.2c4.3-0.2,8.4,2.6,10.4,5.2 c3,4,12.1,9.7,12.2,9.7c6.7,4.4,12.9,5.4,17,5.5C63.2,37.2,77,28.2,92.4,24.3c15.7-4,32.5-2.3,47.1,4.6c12.5,5.9,22.9,15.2,30,26.9 c7,11.4,10.6,24.5,10.4,37.9c-0.1,10.1-2.4,20-6.8,29.2c-8.1,17.1-22.3,30-40,36.4s-36.9,5.5-53.9-2.5c-12.5-5.9-22.9-15.2-30-26.9 c-7-11.4-10.6-24.5-10.4-37.9l0,0c0.1-6.9,1.2-13.8,3.3-20.5c-2.6-2.8-7.2-6.6-14.3-8.8c-0.1,0-10.3-3.4-15.3-3.2 c-2.8,0.1-6.9-1-9.6-3.6C1,54,0,51.5,0,48.5z M1.5,44c-0.5,1.6-0.8,3.1-0.8,4.5c0,2.8,0.9,5.1,2.8,6.9c2.6,2.5,6.4,3.5,9.1,3.4 c5.1-0.2,15.1,3.1,15.5,3.3c7.4,2.3,12.1,6.2,14.7,9.1c0.1,0.1,0.1,0.2,0.1,0.4c-2.1,6.6-3.3,13.5-3.4,20.4l0,0 c-0.2,13.2,3.4,26.2,10.3,37.5c7.1,11.6,17.4,20.8,29.7,26.6c16.9,7.9,35.8,8.8,53.4,2.5s31.6-19.2,39.6-36.1 c4.3-9.2,6.6-18.9,6.7-28.9c0.2-13.2-3.4-26.2-10.3-37.5c-7.1-11.6-17.4-20.8-29.7-26.6c-14.5-6.8-31.1-8.5-46.6-4.5 c-15.3,3.8-29,12.9-38.6,25.4c-0.1,0.1-0.2,0.1-0.3,0.1c-4.2,0-10.6-1-17.5-5.6c-0.4-0.2-9.3-5.8-12.4-9.9c-1.9-2.5-5.7-5-9.8-4.9 c-3.4,0.1-6.3,2.1-8.7,5.8L1.5,44z M7,45.5c0-0.9,0.2-1.7,0.6-2.5c0.7-1.4,1.9-2.5,3.4-3.1c1.5-0.5,3.1-0.5,4.5,0.2 c2.1,1,3.4,3.1,3.4,5.4c0,0.9-0.2,1.7-0.6,2.5c-0.7,1.4-1.9,2.5-3.4,3.1c-1.5,0.5-3.1,0.5-4.5-0.2C8.3,49.9,6.9,47.8,7,45.5z M18.1,45.6c0-2-1.1-3.9-3-4.8c-1.3-0.6-2.7-0.7-4-0.2S8.7,42,8.2,43.3c-0.3,0.7-0.5,1.4-0.5,2.2c0,2,1.1,3.9,3,4.8 c1.3,0.6,2.7,0.7,4,0.2s2.4-1.4,2.9-2.7C17.9,47.1,18.1,46.3,18.1,45.6z" class="st1"/></g><g><g class="st2"><path d="M25.2,41.1c0.6,0.2,1.4,0.6,2.1,0.4c0.8-0.2,0.6-1.4,0.5-2c-0.1-0.5-0.3-1-0.5-1.5c-1.3-1.1-2.4-2.2-3.2-3.2 c-0.7-1-1.9-2.1-3.2-2.9c0.9,1.5,1.5,3,1.5,4.9c0,0.1-0.1,0.2-0.2,0.2c-3.6-0.9-6.9-3.1-9.8-5.3c-0.5-0.4-0.9-0.7-1.4-1.1 c-0.6,0.2-1.2,0.6-1.8,1c3,2,6,4,9,5.9C20.3,38.7,22.7,40.2,25.2,41.1z" class="st3"/><path d="M5,35.8l-0.7,1.4c2.1,1.1,4.3,2.1,6.4,3.2c1.4-0.6,3.1-0.6,4.5,0.1c1.7,0.8,2.8,2.4,3.1,4.1 c4,2.3,8,4.6,12,6.8c1.8,1,3.5,1.9,5.3,2.9c1.7,1,3.5,2.1,5.4,2.6c1.4,0.4,4.3,0.4,4.2-1.7c0-1.8-1.2-3.5-2-5.1 c-0.5-0.9-1-1.8-1.4-2.7c-1.7-0.8-3.6-1.7-5.4-2.9c0,0-0.4-0.3-1.1-0.7c0.2,0.4,0.3,0.7,0.4,1.1c0.3,0.8,0.6,1.8,0.4,2.7 c-0.4,1.7-2.3,1.3-3.5,0.9c-2.6-0.9-5.1-2.5-7.4-4c-2.7-1.7-5.3-3.5-7.9-5.4c-1.5-1.1-3-2.2-4.7-3.1c-1.9-1-3.7-2-5.6-3 C6.3,33.9,5.6,34.8,5,35.8z" class="st3"/><path d="M52.4,57.3c0.4,1.6,0.6,3.9-0.8,5.1c-2,1.8-5.6,1-7.9,0.5c-10-2.2-18.5-8.3-27.4-13c-1.2,0.9-2.7,1.4-4.3,1.1 c5.6,2.3,11.2,4.7,16.8,7c5.4,2.3,10.8,4.6,16.2,6.8c3.5,1.4,7.1,3,10.7,4.1c0.8,0.2,1.6,0.5,2.5,0.6c1.2,0.2,3.5,0.6,4.3-0.6 c0.7-1,0.3-2.3,0-3.4c-0.5-1.6-1.2-3.1-2-4.6c-1-1.9-1.9-3.8-3.1-5.6c-1.2-1.8-2.5-3.5-3.9-5.2c-1.2,0-2.7-0.1-4.3-0.4 C50.5,52.1,51.8,54.7,52.4,57.3z" class="st3"/><path d="M0.5,46.6c3.1,1.1,6.1,2.3,9.2,3.5c-1.5-1-2.3-2.7-2.4-4.5c-1.9-0.8-3.9-1.7-5.8-2.5l-0.3,0.7 C0.9,44.8,0.7,45.7,0.5,46.6z" class="st3"/><path d="M27.6,62.3c-6-2.8-12-5.5-18.1-8.1c-2.9-1.2-5.9-2.4-8.9-3.5c1.2,6.4,8.1,8.6,12,8.5 C17.1,59,25.6,61.6,27.6,62.3z" class="st3"/><path d="M159.5,43.4c-4.8-0.8-9.5-2.4-13.7-5.1c-4-2.6-7.8-5.6-11.4-8.8c-1.4-1.2-2.6-2.5-3.9-3.8 c-2.9-0.9-5.9-1.6-8.9-2.2c1.2,1.1,2.5,2.1,3.7,3.1c4.2,3.6,8.3,7.3,12.9,10.4c7.3,4.9,15.6,8.5,24.4,9.7 C161.6,45.6,160.6,44.5,159.5,43.4z" class="st3"/><path d="M166.4,51.6c-0.4,0-0.8-0.1-1.2-0.1c-3.4-0.3-6.8-0.6-10.1-1.3c-10.4-2.3-20.3-7.1-28.8-13.6 c-5.5-4.2-10.6-9-15.3-14.1c-2,0-4,0-6,0.1c6.6,6.3,12.8,13,19.8,18.8c3.9,3.3,8.1,6.4,12.6,8.8c4.9,2.7,10.1,4.7,15.4,6.6 c4.7,1.7,9.4,3.2,14.2,4.6c2.2,0.6,4.3,1.3,6.5,2.1C171.4,59.4,169.1,55.4,166.4,51.6z" class="st3"/><path d="M175.9,70.2c-3.7-1.2-7.4-2.7-11.2-3.6c-8-1.9-15.9-4.4-23.4-7.8c-4.8-2.2-9.5-4.8-14.2-7.4 c-4.7-2.6-9.3-5.4-13.8-8.3c-8.2-5.3-16.1-11.2-23.3-17.8c-2,0.6-4.1,1.3-6,2c1.5,1,3,2,4.4,3.1c5,3.5,10,7.1,14.9,10.8 c4.9,3.6,9.7,7.2,14.6,10.8c3.1,2.2,6.1,4.6,9.4,6.5c4.4,2.5,9.3,4.4,14,6.2c2.6,1,5.2,2,7.9,3c2.5,0.9,4.9,1.9,7.5,2.7 c6.9,2.2,14.2,3.4,21,5.9C177.2,74.3,176.6,72.2,175.9,70.2z" class="st3"/><path d="M179.6,92.6c-1.4-0.6-2.8-1.3-4.2-2c-3.8-2-7.8-4.3-10.9-7.3c-0.1-0.1,0-0.3,0.1-0.3c5,0.3,9.8,1.7,14.6,3.2 c-0.1-1-0.2-1.9-0.3-2.9c-2-0.6-4-1.2-6-1.6c-4.4-1-8.9-1.7-13.3-2.8c-3.1-0.7-6.1-2-9.2-2.9c-1.8-0.5-3.7-1-5.6-1.2 c-1.3-0.1-2.7-0.2-3.9,0.4c2.5,2.8,5.9,4.8,9.3,6.4c3.6,1.8,7.4,3.2,11.2,4.8c4.3,1.8,8.5,3.9,12.7,5.8c1.8,0.8,3.5,1.6,5.3,2.4 C179.6,93.9,179.6,93.2,179.6,92.6z" class="st3"/><path d="M179.6,94.9c-1.8-0.8-3.7-1.6-5.5-2.5c-4.4-2-8.6-4.2-13.1-6c-3.8-1.5-7.6-3-11.3-4.8 c-3.3-1.7-6.6-3.6-9.1-6.4c-0.1-0.1-0.1-0.2,0-0.3c0.2-0.1,0.3-0.2,0.5-0.2c1.3-0.5,2.8-0.4,4.1-0.2c1.8,0.2,3.5,0.7,5.2,1.2 c3.2,0.9,6.2,2.2,9.4,2.9c4.5,1,9.1,1.7,13.6,2.8c1.8,0.4,3.5,0.9,5.2,1.5c0-0.1,0-0.3-0.1-0.4c-1.3-0.4-2.5-0.8-3.8-1.2 c-10-3.2-20.3-5.5-30.4-8.6c-5-1.5-9.9-3.2-14.7-5.3c-4.8-2.1-9.3-4.5-13.8-7.2c-9-5.4-17.3-11.8-25-19c-3-2.8-6.1-5.4-9-8.4 c-1-1.1-2-2.2-3-3.4c-1.8,0.9-3.6,1.8-5.3,2.8c0.9,0.8,1.8,1.6,2.7,2.5c3.5,3.4,7,6.7,10.3,10.3c1.8,2.1,3.6,4.2,5.4,6.3 c1.7,2.1,3.4,4.2,5.2,6.2c6.9,7.6,15.7,13,24.8,17.4c10.6,5.1,21.5,9.5,32.4,13.9c8.3,3.4,16.3,7.6,24.4,11.4 C179.4,98.5,179.5,96.7,179.6,94.9z" class="st3"/><path d="M166.4,104.9c0.7,1.3,2.1,2.4,3.2,3.3c1.9,1.6,3.9,3.1,6,4.5c0.3,0.2,0.6,0.4,0.9,0.6 c0.5-1.6,0.9-3.3,1.3-4.9C174.1,106.9,170.5,105,166.4,104.9z" class="st3"/><path d="M175.6,116.2c-2.4-1.2-4.7-2.8-7-4.3c-3.1-2.1-6.4-3.9-9.7-5.8c-3.9-2.3-7.9-4.7-11.1-8 c-0.1-0.1,0-0.3,0.1-0.3c3.1-1.1,6.6,0,9.5,1c3.1,1.1,6.2,2.2,9.4,3.2c3.8,1.1,7.8,2.3,11.5,3.9c0.1-0.7,0.2-1.3,0.4-2 c-4.8-1.7-9.6-3.2-14.4-4.7C154,96,143.6,93,133.7,88.8c-4.9-2-9.6-4.3-14.2-7c-4.5-2.6-8.8-5.5-12.9-8.7 c-14.2-10.7-26.5-23.8-38.5-37c-1.3,1-2.6,2-3.9,3.1c0.4,0.3,0.7,0.6,1.1,0.9C70.4,44.6,74,50.3,77.7,56c2.8,4.4,5.8,8.7,9.4,12.5 c3.6,3.7,7.5,7.1,11.6,10.1c8.5,6.3,17.4,12,26.9,16.6c9.9,4.8,20.1,8.8,29.7,14.3c4.8,2.7,9.6,5.5,14.6,7.9 c1.4,0.7,2.9,1.3,4.4,1.9C174.8,118.3,175.2,117.3,175.6,116.2z" class="st3"/><path d="M156.1,127.2c-2.8-1.2-5.7-2.3-8.6-3.1c-2.6-0.8-5.3-1.4-8.1-1.2c1.5,2.4,4.3,4,6.8,5.2 c2.8,1.4,5.7,2.6,8.6,3.8c3.1,1.3,6,2.8,8.9,4.3c0.2,0.1,0.4,0.2,0.7,0.3c1-1.3,2-2.6,2.9-4c-0.5-0.2-0.9-0.5-1.4-0.7 C162.8,130,159.5,128.5,156.1,127.2z" class="st3"/><path d="M48.7,118.7c1.7,0.5,3.3,1.2,5,1.7c2.6,0.8,5.3,1.5,7.9,2.3c10.6,3,21.3,5.7,31.9,8.8 c11.3,3.4,22.5,7,33.8,10.3c5.6,1.6,11.2,3.4,16.7,5.3c2.3,0.8,4.6,1.6,6.9,2.3c0.7-0.5,1.4-1,2-1.6c-1.1-0.5-2.3-0.9-3.4-1.4 c-4.9-1.9-9.9-3.4-14.9-5c-11.1-3.7-22.2-7.6-33.1-11.7c-10.8-4-21.7-8.1-32.8-11.3c-9-2.6-17.8-6.4-27.1-7.4 c0.6,2.1,1.2,4.2,2,6.2C45.3,117.7,47,118.2,48.7,118.7z" class="st3"/><path d="M68.5,144.1c11.1,4,21.9,8.3,32.7,13c4.5,1.9,9,3.9,13.5,5.8c4.1-0.3,8.1-1,12-2c-2.1-0.9-4.2-1.8-6.3-2.7 c-6.9-2.9-14-5.4-21.1-7.8c-5.4-1.9-10.9-3.6-16.3-5.6c-5.2-1.9-10.3-4.1-15.4-6.5c-5-2.4-10-4.8-15-7.2c-1-0.5-2-1-3-1.4 c2.3,3.8,4.9,7.3,7.9,10.6C61.2,141.4,64.9,142.8,68.5,144.1z" class="st3"/><path d="M67.5,149.2c3.8,1.5,7.6,3,11.4,4.6c6.3,2.7,12.6,5.5,18.9,8.4c2,0.3,4.1,0.6,6.1,0.7 c-7.5-3.6-15.1-7-22.7-10.5c-4.6-2.1-9.2-4.3-14-6.1c-1.9-0.8-3.9-1.5-5.9-2c1.8,1.7,3.7,3.3,5.7,4.8 C67.3,149.1,67.4,149.2,67.5,149.2z" class="st3"/><path d="M44,106.7c2.3,0.7,4.7,1.1,7.1,1.5c5.8,1.1,11.6,2.2,17.3,3.7c11.3,3.1,22.3,6.9,33.5,10.2 c11.2,3.3,22.6,6.1,33.8,9.5c8.4,2.6,16.3,6.2,24.2,9.9c0.8-0.9,1.6-1.7,2.4-2.6c-3.8-1.3-7.5-2.7-11.2-4.2 c-5.3-2.1-10.4-4.5-15.6-6.8c-10.8-4.7-21.8-8.8-32.7-13.3c-10.3-4.2-20.7-8.3-31.4-11.2c-10.5-2.9-21.1-5-32-5.9 c0.2,2.7,0.5,5.4,1,8.1C41.6,106,42.8,106.4,44,106.7z" class="st3"/><path d="M105,99.3c0.7-0.1,1.5-0.3,2.1-0.6c0.3-0.1,0.5-0.3,0.8-0.4c0.5-0.3,0.5-0.3,0.1-0.6c-1.4-1.4-3-2.6-4.8-3.6 c-3.7-2.1-7.9-3.5-12.1-4.6c-4-1-8-1.6-12-2C73.5,87,68,86.1,62.5,84.9c-2.8-0.6-5.6-1.3-8.3-2.1c-2-0.6-4-1.3-5.9-2.1 c-2.1-0.8-4.2-1.6-6.3-2.2c-0.4-0.1-0.8-0.2-1.2-0.3c-0.2,1-0.4,1.9-0.6,2.9c2.9,0.6,5.6,1.7,8.3,3c0.2,0.1,0.1,0.3-0.1,0.3 c-2.9,0.2-5.8,0-8.7,0.1c-0.1,1.1-0.2,2.2-0.3,3.3c7.4,1,14.8,2.3,22.2,3.7c4.5,0.9,9,1.7,13.5,2.6c3,0.5,5.9,1,8.8,1.8 c3.5,1,6.9,1.9,10.5,2.7C97.7,99.3,101.5,100,105,99.3z" class="st3"/><path d="M172.7,123.2c-0.7-0.4-1.4-0.8-2.2-1.1c-5.6-2.6-11.3-4.7-17.1-6.9c-10.2-3.9-20.4-7.7-30.2-12.5 c-9.5-4.6-18.8-10-26.6-17.2c-7.5-7-13.7-15.2-20-23.2C71.5,55.6,66.6,48.4,60,43c-0.4,0.4-0.8,0.8-1.3,1.3 c0.5,0.9,1.1,1.9,1.7,2.8c3.1,5.1,6.3,10.1,9.1,15.2c1.3,2.4,2.5,4.8,3.6,7.3c0.8,1.9,1.5,4,1.7,6.1c0.1,1.4-0.1,3-1.1,4 c-1.7,1.7-4.5,1.6-6.6,1.1C62.9,80,59.2,78,55.5,76c-4.7-2.5-9.5-4.7-14.2-7c-1.2-0.6-2.3-1.2-3.5-1.7c2,1.5,3.6,2.9,4.8,4.2 c-0.4,1.1-0.7,2.3-1,3.4c3,0.8,6,1.8,8.9,2.9c0.2,0.1,0.2,0.3,0,0.3c-3.2,0.7-6.3-0.2-9.5-0.6c0,0.1,0,0.2-0.1,0.3 c1.6,0.4,3.2,1,4.7,1.5c3.7,1.3,7.2,2.8,11,3.7c5.7,1.5,11.4,2.7,17.2,3.5c4.3,0.6,8.6,0.9,12.9,1.7c7.7,1.4,16.5,3.7,22,9.7 c0.1,0.1,0.1,0.2,0,0.3c-1.7,1.5-4.2,1.8-6.4,1.8c-3.1,0-6.2-0.5-9.2-1.2c-3.4-0.8-6.8-1.7-10.2-2.7c-4.4-1.2-8.9-1.8-13.4-2.6 c-10-1.9-20-3.9-30.1-5.3c-0.1,1.6-0.2,3.3-0.2,4.9c4.3,0.4,8.7,0.7,12.9,1.2c11.5,1.5,22.9,3.9,34.1,6.8 c11.3,3,22.6,6.3,33.7,9.9c10.6,3.4,21,7.3,31.6,10.8c6.1,2,12.4,4,18.4,6.7C170.9,126.7,171.8,125,172.7,123.2z" class="st3"/></g><g><path d="M58.1,48.3c1.4-1.6,3.2-3,4.8-4.5c1.8-1.6,3.6-3.2,5.4-4.6c3.6-2.8,7.4-5.1,11.5-7.2 c4.5-2.3,9.3-3.8,14.2-5.2c2.4-0.6,4.7-1.4,7.1-1.8c2.6-0.4,5.2-0.5,7.7-0.9c0.4-0.1-0.1-0.7-0.4-0.6c-2.4,0.2-4.9,0.3-7.3,0.5 c-2.7,0.3-5.3,1.1-7.9,1.7c-4.8,1.3-9.4,2.7-13.9,4.9c-4.3,2.1-8.3,4.6-12.1,7.5c-1.8,1.4-3.5,2.9-5.1,4.4s-3.8,3.2-4.9,5.1 C57.2,48.1,57.9,48.6,58.1,48.3z" class="st3"/><path d="M33.1,44.3c-2.6-2-5.2-3.9-7.7-6.1c-2.2-1.9-3.9-4.3-6.3-5.9c-4.5-3-9.6-0.2-12.7,3.5C6.2,36,6.8,36.5,7,36.4 c1.7-1.3,3.5-2.7,5.4-3.6c3.3-1.6,6.1-0.2,8.5,2.2c1.6,1.6,3.1,3.2,4.9,4.7c2.2,1.8,4.6,3.3,6.9,4.9 C33.2,44.9,33.5,44.6,33.1,44.3z" class="st3"/><path d="M12.7,57.8c-1.9-0.6-3.9-1.1-5.7-2.1c-2-1.1-3.2-2.8-4.3-4.8c-0.2-0.3-0.9-0.6-0.8,0 c1.2,4.8,6.5,6.9,10.9,7.5C13.3,58.5,12.9,57.9,12.7,57.8z" class="st3"/><path d="M107.8,161.1c5.4-0.1,10.8-0.6,16.2-1.6c10.5-2,20.1-7,28.7-13.1c0.3-0.2-0.2-0.7-0.5-0.5 c-8.6,5.2-17.7,10.1-27.6,12.3c-10.5,2.3-22,2.9-32.5,0.4c-0.6-0.1-0.3,0.5,0.1,0.6C97.1,161,102.5,161.2,107.8,161.1z" class="st3"/></g></g><circle cx="96" cy="46" r="40" class="st4"/><path d="M81.2,46l-6.1,6.1L68.8,46l6.1-6.1L81.2,46z M96.1,31.1l10.5,10.5l6.1-6.1L102.2,25l-6.1-6.2L79.4,35.5l6.1,6.1	L96.1,31.1z M117.1,39.9L111,46l6.1,6.1l6.1-6.1L117.1,39.9z M96.1,60.9L85.6,50.4l-6.1,6.1l16.6,16.8l16.8-16.8l-6.1-6.1L96.1,60.9	z M96.1,52.1l6.1-6.1l-6.1-6.1L89.9,46L96.1,52.1z" class="st5"/><circle cx="96" cy="46" r="37.9" class="st6"/><linearGradient id="SVGID_1_" x1="66" x2="174" y1="120" y2="120" gradientUnits="userSpaceOnUse"><stop offset="0" style="stop-color:#54dade"/><stop offset=".762" style="stop-color:#24c7d6"/></linearGradient><circle cx="120" cy="120" r="54" class="st7"/><circle cx="120" cy="120" r="52.2" class="st6"/><g><path d="M108.3,81.9c-0.6-3,1.7-5.8,4.8-5.8c2.7,0,4.9,2.2,4.9,4.9v6.1c0.7,0,1.4-0.1,2.1-0.1c0.7,0,1.3,0,2,0.1V81 c0-2.7,2.2-4.9,4.9-4.9c3.1,0,5.4,2.8,4.8,5.8l-1.3,7.2c4.5,2,8,5.5,8,9.8v2.6c0,3.6-2.4,6.6-5.6,8.6c-3.3,2-7.8,3.3-12.7,3.3 s-9.4-1.2-12.7-3.3c-3.3-2-5.6-5-5.6-8.6v-2.6c0-4.3,3.4-7.8,7.9-9.8L108.3,81.9z M128.6,90l1.5-8.4c0.4-2.1-1.2-4.1-3.3-4.1 c-1.9,0-3.4,1.5-3.4,3.4v7.7c-0.5-0.1-1-0.1-1.5-0.2c-0.7,0-1.3-0.1-2-0.1c-0.7,0-1.4,0-2.1,0.1c-0.5,0-1,0.1-1.5,0.2V81 c0-1.9-1.5-3.4-3.4-3.4c-2.1,0-3.7,1.9-3.3,4.1l1.6,8.4c-4.9,1.8-8.1,5.1-8.1,8.9v2.6c0,5.7,7.5,10.4,16.8,10.4s16.8-4.6,16.8-10.4 v-2.6C136.8,95.1,133.5,91.8,128.6,90L128.6,90z" class="st8"/><path d="M136.8,101.5c0,5.7-7.5,10.4-16.8,10.4s-16.8-4.6-16.8-10.4v-2.6h33.6V101.5z" class="st9"/><path d="M109.7,81.6c-0.4-2.1,1.2-4.1,3.3-4.1c1.9,0,3.4,1.5,3.4,3.4v7.8c1.1-0.2,2.3-0.2,3.6-0.2 c1.2,0,2.4,0.1,3.5,0.2V81c0-1.9,1.5-3.4,3.4-3.4c2.1,0,3.7,1.9,3.3,4.1l-1.5,8.4c4.9,1.8,8.2,5.1,8.2,8.9 c0,5.7-7.5,10.4-16.8,10.4s-16.8-4.6-16.8-10.4c0-3.8,3.2-7.1,8.1-8.9L109.7,81.6z" class="st10"/><path d="M115.3,98.1c0,1.6-0.8,2.8-1.9,2.8s-1.9-1.3-1.9-2.8c0-1.6,0.8-2.8,1.9-2.8C114.5,95.3,115.3,96.6,115.3,98.1 z M128.2,98.1c0,1.6-0.8,2.8-1.9,2.8c-1,0-1.9-1.3-1.9-2.8c0-1.6,0.8-2.8,1.9-2.8C127.4,95.3,128.2,96.6,128.2,98.1z" class="st11"/></g><circle cx="142.7" cy="131.4" r="28.6" class="st4"/><path d="M132.1,131.4l-4.4,4.4l-4.5-4.4l4.4-4.4L132.1,131.4z M142.8,120.7l7.5,7.5l4.4-4.4l-7.5-7.5l-4.4-4.4	l-11.9,11.9l4.4,4.4L142.8,120.7z M157.8,127l-4.4,4.4l4.4,4.4l4.4-4.4L157.8,127z M142.8,142l-7.5-7.5l-4.4,4.4l11.9,12l12-12	l-4.4-4.4L142.8,142z M142.8,135.7l4.4-4.4l-4.4-4.4l-4.4,4.4L142.8,135.7z" class="st5"/><circle cx="97.3" cy="131.4" r="28.6" class="st12"/><g><g><g><path d="M80.2,143.3c0,0-0.7,2.3,4.7-1c5.5-3.3,19.1-5.9,25.6-5.1c6.5,0.8,1.9-14.6-2.9-17 C102.7,117.9,87.8,128.4,80.2,143.3z" class="st13"/></g><g class="st2"><path d="M80.6,142.9c0,0-1.2,2.9,4.3-0.5s19.1-5.9,25.6-5.1c6.5,0.8,1.9-14.6-2.9-17 C102.7,117.9,88.3,128,80.6,142.9z" class="st14"/></g><g><path d="M81.2,144.2c-0.3,0-0.5-0.1-0.6-0.2c-0.5-0.4-0.2-1.3-0.2-1.3s0,0,0-0.1c3.5-6.8,8.1-11.9,11.2-14.8 c4.1-3.8,8.3-6.6,11.7-7.7c2-0.6,3.5-0.6,4.6-0.1c1.7,0.9,3.6,3.4,4.8,6.8c1.3,3.3,1.7,6.6,1.1,8.5c-0.4,1.4-1.4,2.2-2.7,2.2 c-0.2,0-0.4,0-0.5-0.1c-6.6-0.8-20.1,1.9-25.4,5.1C83.3,143.7,82,144.2,81.2,144.2z M80.7,142.9c-0.1,0.1-0.1,0.5,0.1,0.7 c0.2,0.1,1,0.4,4.1-1.5c2.5-1.6,7.2-3.1,12.5-4.1c5.2-1,10.1-1.4,13.2-1c1.4,0.2,2.3-0.4,2.7-1.7c0.6-1.9,0.2-5-1.1-8.2 c-1.3-3.2-3-5.7-4.6-6.6c-1-0.5-2.4-0.5-4.2,0.1c-3.3,1.1-7.5,3.8-11.4,7.6C88.7,131.2,84.2,136.1,80.7,142.9z" class="st14"/></g><g><g><path d="M107.9,123.2c-0.8-0.2,0.1-0.5-1-1.5c-1-1-2.1-0.2-2.1-0.2c0.2-0.4,0.2-0.7,0-1c-0.8-1.2-3.2-0.5-4-1.4 c-0.8-1-2.8-0.1-2.8-0.1s-11.9,7.1-15.3,15.2c-3.4,8.1-3.2,10.7-1.7,10.1c1.5-0.5,2.5-1.9,3.7-0.8c1.1,1-0.3,2.9,1,3.8 c0.7,0.5,2.4-0.4,1.6-1.8c-0.8-1.4-1.9-3.9-0.1-5.4c1.9-1.4,6-2.2,5.8-0.2c-0.6,4.8,4.5,2.8,2.9,0.7c-1.4-1.7-0.1-4.8,2.9-3.1 c2.5,1.4,2.2-0.5,4.7-1.3c1.9-0.6,5.3-0.6,5.3-0.6c2.4-1.4,0.2-2.1,0.2-2.1s2-1.5,1.5-2.6c-0.5-1.1-0.2-2.8-0.2-4.5 C110.6,124.8,108.7,123.4,107.9,123.2z" class="st15"/></g><g class="st2"><path d="M107.9,123.2c-0.8-0.2,0.1-0.5-1-1.5c-1-1-2.1-0.2-2.1-0.2c0.2-0.4,0.2-0.7,0-1c-0.8-1.2-3.2-0.5-4-1.4 c-0.8-1-2.8-0.1-2.8-0.1s-0.3,0.2-0.8,0.5c3.7,1,11.4,4.1,10,15.2c0,0-14.8,1.1-18.9,3.6c-2.9,1.9-5.8,5.2-8.2,5.7 c0.2,0.4,0.5,0.5,0.9,0.4c1.5-0.5,2.5-1.9,3.7-0.8c1.1,1-0.3,2.9,1,3.8c0.7,0.5,2.4-0.4,1.6-1.8c-0.8-1.4-1.9-3.9-0.1-5.4 c1.9-1.4,6-2.2,5.8-0.2c-0.6,4.8,4.6,2.8,2.9,0.7c-1.4-1.7-0.1-4.8,2.9-3.1c2.5,1.4,2.2-0.5,4.7-1.3c1.9-0.6,5.3-0.6,5.3-0.6 c2.4-1.4,0.2-2.1,0.2-2.1s2-1.5,1.5-2.6c-0.5-1.1-0.2-2.8-0.2-4.5C110.6,124.8,108.7,123.4,107.9,123.2z" class="st14"/></g><g class="st16"><g><path d="M108.6,123.6c0.1,0,0.1,0.1,0.2,0.1c-0.2-0.2-0.4-0.3-0.6-0.4C108.2,123.4,108.3,123.6,108.6,123.6z" class="st17"/></g><g><path d="M109.9,134.1L109.9,134.1L109.9,134.1L109.9,134.1z" class="st17"/></g><g><path d="M105.5,121.9c0,0,0.6-0.5,1.4-0.2c-0.4-0.4-0.9-0.5-1.3-0.4C105.7,121.5,105.7,121.7,105.5,121.9z" class="st17"/></g><g><path d="M104.8,120.4c-0.8-0.7-2.2-0.5-3.1-0.8C102.3,120.3,103.8,120,104.8,120.4z" class="st17"/></g><g><path d="M98.2,119.1c0,0-5.3,3.2-9.8,7.7c-0.1,0.1-0.2,0.1-0.3,0.2c-0.1,0.1-0.1,0.1-0.1,0.2 c-2.1,2.1-4,4.6-5.1,7.2c-3.2,7.6-3.2,10.3-1.9,10.1c-0.4-1,0.1-3.9,2.5-9.8c0.9-2.2,2.4-4.3,4.2-6.3c0.1,0.1,0.1,0.1,0.1,0.2 c0.4,0.4,1.1,0.3,1.6-0.4c0.5-0.6,0.6-1.3,0.2-1.7c-0.1-0.1-0.1-0.1-0.1-0.1c4.4-4.2,8.9-7.4,8.9-7.4s1.5-0.3,2.4,0 C100.1,118.2,98.2,119.1,98.2,119.1z" class="st17"/></g></g><g><path d="M86.4,147.7c-0.3,0-0.5-0.1-0.6-0.2c-0.8-0.5-0.8-1.4-0.7-2.2c0.1-0.6,0.1-1.3-0.4-1.6 c-0.6-0.5-1.2-0.3-2.1,0.3c-0.4,0.2-0.8,0.4-1.3,0.6c-0.5,0.2-0.8,0.1-1-0.1c-1.1-1.1,0.6-6.2,2.4-10.2c1.8-4.2,5.8-8.2,9-10.8 c3.3-2.8,6.4-4.6,6.4-4.6l0,0c0.1-0.1,2.2-1,3.1,0.1c0.3,0.4,1,0.5,1.7,0.5c0.8,0.1,1.8,0.2,2.3,0.9c0.1,0.2,0.2,0.4,0.2,0.6 c0.5-0.2,1.3-0.2,1.9,0.5c0.6,0.6,0.6,1,0.6,1.3c0,0.1,0,0.1,0,0.1c0,0,0.1,0.1,0.2,0.1l0,0c0.9,0.2,2.8,1.8,2.8,3.7 c0,0.4-0.1,0.8-0.1,1.1c-0.1,1.3-0.1,2.4,0.2,3.2c0.5,1-0.6,2.2-1.3,2.7c0.3,0.2,0.6,0.4,0.6,0.8c0.1,0.5-0.4,1-1.3,1.5 c-0.1,0-0.1,0.1-0.1,0.1c-0.1,0-3.4,0-5.2,0.6c-0.9,0.3-1.4,0.7-1.9,1.1c-0.8,0.7-1.4,1.1-3,0.2c-1.1-0.6-2.1-0.6-2.6,0.1 c-0.6,0.7-0.5,1.9,0.1,2.7c0.5,0.6,0.5,1.3,0.1,1.9c-0.5,0.6-1.5,1-2.3,0.6c-0.5-0.2-1.4-0.9-1.1-3.1c0.1-0.3-0.1-0.5-0.3-0.6 c-1-0.5-3.7,0.1-5.1,1.1c-1.7,1.3-0.5,3.9,0.1,5c0.4,0.6,0.3,1.4-0.3,1.9C87.2,147.6,86.8,147.7,86.4,147.7z M84,142.9 c0.4,0,0.7,0.1,1,0.4c0.6,0.5,0.5,1.4,0.5,2c-0.1,0.7-0.1,1.4,0.5,1.7c0.3,0.2,0.8,0.1,1.1-0.2c0.3-0.2,0.5-0.6,0.1-1.3 c-0.7-1.2-2.1-4.1,0-5.7c1.4-1.1,4.3-1.9,5.6-1.1c0.4,0.2,0.6,0.6,0.5,1.2c-0.2,1.4,0.1,2.3,0.8,2.5c0.5,0.2,1.3,0,1.7-0.5 c0.2-0.2,0.4-0.6-0.1-1.3c-0.8-1-0.8-2.4-0.1-3.3c0.7-0.8,2-0.9,3.3-0.2c1.4,0.8,1.8,0.5,2.5-0.1c0.5-0.4,1-0.9,2-1.2 c1.7-0.6,4.8-0.6,5.3-0.6c0.8-0.5,1-0.8,1-1c-0.1-0.3-0.5-0.5-0.7-0.6c-0.1,0-0.2-0.1-0.2-0.2c0-0.1,0-0.2,0.1-0.3 c0.5-0.4,1.8-1.6,1.4-2.3c-0.4-0.9-0.4-2.1-0.3-3.4c0-0.4,0.1-0.7,0.1-1.1c0.1-1.5-1.7-2.9-2.4-3.1c-0.5-0.1-0.5-0.3-0.5-0.6 c0-0.2,0-0.5-0.5-0.9c-0.8-0.8-1.7-0.2-1.8-0.2c-0.1,0.1-0.2,0.1-0.3,0c-0.1-0.1-0.1-0.2-0.1-0.3c0.2-0.5,0.1-0.6,0.1-0.7 c-0.4-0.5-1.1-0.6-2-0.7c-0.8-0.1-1.5-0.2-2-0.7c-0.6-0.6-2-0.2-2.5,0c-0.2,0.1-3.1,1.9-6.3,4.6c-3,2.5-7.1,6.4-8.8,10.5 c-1.3,3-2.1,5.4-2.4,7.1c-0.4,2-0.2,2.5,0,2.6c0.1,0.1,0.2,0.2,0.5,0c0.4-0.2,0.8-0.4,1.1-0.6C82.9,143.3,83.4,142.9,84,142.9z" class="st14"/></g></g><g><path d="M99.9,135.6c1.4-0.3,2.9-0.5,4.3-0.6c0.7-0.1,1.4-0.2,2.2-0.3c0.7-0.1,1.4-0.1,2.2-0.1 c0.1,0,0.2,0.1,0.2,0.3c0,0.1-0.1,0.2-0.2,0.2l0,0l0,0c-0.7,0-1.4,0-2.2,0c-0.7,0-1.4,0.1-2.2,0.1 C102.9,135.2,101.4,135.4,99.9,135.6z" class="st14"/></g></g><g class="st2"><g><path d="M104.6,120.3L104.6,120.3L104.6,120.3L104.6,120.3z" class="st14"/></g><g><path d="M110.2,125.3c-0.1,1.7-0.3,3.4,0.2,4.5c0,0.1,0.1,0.1,0.1,0.2c-0.1-1,0.1-2.1,0.1-3.3 C110.6,126.1,110.5,125.6,110.2,125.3C110.2,125.2,110.2,125.3,110.2,125.3z" class="st14"/></g><g><path d="M110.5,130.1c0,1-1.6,2.3-1.6,2.3s0.8,0.3,0.9,0.8c0.5-0.5,1.3-1.4,1-2.1 C110.6,130.8,110.6,130.5,110.5,130.1z" class="st14"/></g></g><g><g><ellipse cx="99.8" cy="124.2" class="st18" rx="3.7" ry="2.9" transform="matrix(0.8397 -0.543 0.543 0.8397 -51.4215 74.0999)"/></g><g class="st16"><path d="M100.3,127c-1.8,0.5-3.3-0.4-3.5-2c-0.1-1.5,1.2-3.2,3-3.7c1.3-0.4,2.5,0.1,3.1,0.9c-0.6-1-1.9-1.5-3.4-1.1 c-1.9,0.5-3.3,2.3-3.2,3.9c0.2,1.7,1.9,2.6,3.7,2.1c0.5-0.1,1-0.4,1.4-0.6C101.1,126.8,100.7,126.9,100.3,127z" class="st17"/></g><g><path d="M100.1,121.8l0.4,4.4c1.1-0.5,2-1.7,1.9-2.8C102.2,122.4,101.2,121.7,100.1,121.8z" class="st19"/></g><g><path d="M99,122c-1.1,0.5-1.9,1.7-1.8,2.8c0.1,1.1,1.1,1.7,2.2,1.7L99,122z" class="st19"/></g><g><path d="M99,122c-1.1,0.5-1.9,1.7-1.8,2.8c0.1,1.1,1.1,1.7,2.2,1.7L99,122z" class="st19"/></g><g><path d="M99.2,123.6c-0.4,0.2-0.6,0.5-0.6,0.9c0.1,0.4,0.4,0.6,0.7,0.5L99.2,123.6z" class="st18"/></g><g><path d="M100.2,123.3c0.4,0,0.7,0.2,0.7,0.5c0.1,0.4-0.2,0.7-0.6,0.9L100.2,123.3z" class="st18"/></g><g><path d="M99.1,127.5c-0.7,0-1.3-0.2-1.9-0.5c-0.6-0.4-1-1.1-1.1-1.9c-0.2-1.8,1.3-3.7,3.3-4.1 c1.1-0.3,2.2-0.1,2.9,0.4c0.6,0.4,1,1.1,1.1,1.9c0.2,1.8-1.3,3.7-3.3,4.1C99.8,127.5,99.4,127.5,99.1,127.5z M100.5,121.2 c-0.3,0-0.6,0.1-1,0.1c-1.8,0.5-3.2,2.2-3,3.7c0.1,0.6,0.4,1.3,0.9,1.6c0.6,0.5,1.6,0.6,2.5,0.4c1.8-0.5,3.2-2.1,3-3.7 c-0.1-0.6-0.4-1.3-0.9-1.6C101.6,121.3,101.1,121.2,100.5,121.2z" class="st14"/></g><g><g><path d="M98.6,125.5c0,0.1,0.1,0.1,0.1,0.2c0,0.1,0,0.1,0,0.2c0,0.1-0.1,0.1-0.2,0.1c-0.1,0-0.1-0.1-0.1-0.2 c0,0,0,0,0-0.1c0-0.1,0.1-0.1,0.1-0.2C98.5,125.6,98.6,125.6,98.6,125.5z" class="st20"/></g><g><path d="M98.2,125.1c0,0.1,0,0.1-0.1,0.2c0,0.1-0.1,0.1-0.1,0.2c-0.1,0.1-0.1,0.1-0.2,0.1 c-0.1-0.1-0.1-0.1-0.1-0.2c0,0,0,0,0-0.1c0.1-0.1,0.1-0.1,0.2-0.1C98,125.1,98,125.1,98.2,125.1z" class="st20"/></g><g><path d="M98,124.4c-0.1,0.1-0.1,0.1-0.1,0.1c-0.1,0.1-0.1,0.1-0.1,0.1c-0.1,0.1-0.2,0-0.2-0.1 c-0.1-0.1,0-0.2,0.1-0.2h0.1c0.1,0,0.1,0,0.2,0C97.8,124.3,97.9,124.3,98,124.4z" class="st20"/></g><g><path d="M98.3,123.6c-0.1,0-0.1,0-0.2,0.1c-0.1,0-0.1,0-0.2,0c-0.1,0-0.1-0.1-0.1-0.2s0.1-0.1,0.2-0.1h0.1 c0.1,0,0.1,0.1,0.1,0.1C98.2,123.6,98.2,123.6,98.3,123.6z" class="st20"/></g><g><path d="M98.9,123.2c-0.1,0-0.1-0.1-0.2-0.1c-0.1-0.1-0.1-0.1-0.1-0.1c-0.1-0.1-0.1-0.2,0.1-0.2 c0.1-0.1,0.2-0.1,0.2,0.1c0,0,0,0,0,0.1c0,0.1,0,0.1,0,0.2C98.9,123,98.9,123,98.9,123.2z" class="st20"/></g></g><g><g><path d="M101.1,124.8c0.1,0.1,0.1,0.1,0.2,0.1c0.1,0.1,0.1,0.1,0.1,0.1c0.1,0.1,0,0.2-0.1,0.2 c-0.1,0.1-0.2,0-0.2-0.1c0,0,0,0,0-0.1c0-0.1,0-0.1,0-0.2C101.1,125,101.1,124.9,101.1,124.8z" class="st20"/></g><g><path d="M101.5,124.2c0.1,0,0.1,0,0.2,0c0.1,0,0.1,0,0.2,0s0.1,0.1,0.1,0.2c0,0.1-0.1,0.1-0.2,0.1h-0.1 c-0.1-0.1-0.1-0.1-0.1-0.1C101.6,124.3,101.5,124.3,101.5,124.2z" class="st20"/></g><g><path d="M101.5,123.4c0.1-0.1,0.1-0.1,0.1-0.1c0.1-0.1,0.1-0.1,0.1-0.1c0.1-0.1,0.2,0,0.2,0.1c0,0.1,0,0.2-0.1,0.2 h-0.1c-0.1,0-0.1,0-0.2,0C101.6,123.5,101.6,123.5,101.5,123.4z" class="st20"/></g><g><path d="M101.1,122.9c0-0.1,0.1-0.1,0.1-0.2s0.1-0.1,0.1-0.2c0.1-0.1,0.1-0.1,0.2-0.1c0.1,0.1,0.1,0.1,0.1,0.3 c0,0,0,0-0.1,0.1c-0.1,0.1-0.1,0.1-0.2,0.1C101.2,122.8,101.1,122.8,101.1,122.9z" class="st20"/></g><g><path d="M100.4,122.7c0-0.1-0.1-0.1-0.1-0.2c0-0.1,0-0.1,0-0.2c0-0.1,0.1-0.1,0.2-0.1s0.1,0.1,0.1,0.2 c0,0,0,0,0,0.1c0,0.1-0.1,0.1-0.1,0.2C100.5,122.6,100.5,122.7,100.4,122.7z" class="st20"/></g></g><g><path d="M100.5,126.4c-0.1,0-0.1,0-0.1-0.1c-0.1-0.1-0.1-0.1-0.1-0.2l-0.4-4.4c0-0.1,0-0.1,0.1-0.2 c0.1-0.1,0.1-0.1,0.1-0.1c1.3-0.1,2.4,0.6,2.5,1.9C102.6,124.5,101.8,125.8,100.5,126.4C100.5,126.4,100.5,126.4,100.5,126.4z M100.3,122l0.4,3.9c1-0.5,1.5-1.5,1.5-2.4C102,122.6,101.2,122,100.3,122L100.3,122z" class="st19"/></g><g><path d="M99.2,126.7c-1.2,0-2.2-0.8-2.3-1.9c-0.1-1.1,0.6-2.4,1.9-2.9c0.1,0,0.1,0,0.2,0c0.1,0.1,0.1,0.1,0.1,0.2 l0.4,4.4c0,0.1,0,0.1-0.1,0.2s-0.1,0.1-0.1,0.1C99.3,126.7,99.3,126.7,99.2,126.7z M98.8,122.4c-0.9,0.5-1.5,1.5-1.4,2.4 c0.1,0.9,0.8,1.5,1.8,1.5L98.8,122.4z" class="st19"/></g></g><g><g><ellipse cx="92.1" cy="132" class="st18" rx="3.4" ry="2.8" transform="matrix(0.8397 -0.543 0.543 0.8397 -56.9155 71.1799)"/></g><g class="st16"><path d="M92.7,134.7c-1.7,0.4-3.2-0.4-3.3-1.9c-0.1-1.5,1.1-3,2.8-3.4c1.3-0.3,2.3,0.1,2.9,0.8 c-0.5-1-1.8-1.4-3.2-1c-1.8,0.5-3.1,2.1-3,3.7c0.1,1.5,1.7,2.4,3.4,2c0.5-0.1,0.9-0.3,1.3-0.6C93.4,134.4,93,134.6,92.7,134.7z" class="st17"/></g><g><path d="M92.4,129.8l0.4,4.1c1.1-0.5,1.9-1.5,1.7-2.5C94.5,130.4,93.6,129.7,92.4,129.8z" class="st19"/></g><g><path d="M91.4,130.1c-1.1,0.5-1.8,1.5-1.7,2.5c0.1,1,1,1.7,2.1,1.5L91.4,130.1z" class="st19"/></g><g><path d="M91.4,130.1c-1.1,0.5-1.8,1.5-1.7,2.5c0.1,1,1,1.7,2.1,1.5L91.4,130.1z" class="st19"/></g><g><path d="M91.6,131.5c-0.4,0.2-0.6,0.5-0.5,0.8c0.1,0.4,0.3,0.5,0.6,0.5L91.6,131.5z" class="st18"/></g><g><path d="M92.5,131.3c0.4,0,0.6,0.2,0.6,0.5c0.1,0.4-0.2,0.6-0.5,0.8L92.5,131.3z" class="st18"/></g><g><path d="M91.5,135.2c-0.6,0-1.3-0.2-1.7-0.5c-0.6-0.4-1-1.1-1-1.8c-0.2-1.7,1.3-3.4,3.1-3.9c1-0.3,2-0.1,2.8,0.4 c0.6,0.4,1,1.1,1,1.8l0,0c0.2,1.7-1.3,3.4-3.1,3.9C92.1,135.1,91.8,135.2,91.5,135.2z M92.8,129.3c-0.3,0-0.6,0.1-0.9,0.1 c-1.7,0.4-2.9,2-2.8,3.4c0.1,0.6,0.4,1.1,0.8,1.5c0.6,0.4,1.5,0.5,2.4,0.3c1.7-0.4,2.9-2,2.8-3.4l0,0c-0.1-0.6-0.4-1.1-0.8-1.5 C93.9,129.5,93.4,129.3,92.8,129.3z" class="st14"/></g><g><g><path d="M91.4,133.4c0.1,0.1,0.1,0.1,0.1,0.1c0,0.1,0.1,0.1,0.1,0.2s-0.1,0.1-0.1,0.1s-0.1-0.1-0.1-0.1 c0,0,0,0,0-0.1C91.3,133.5,91.3,133.5,91.4,133.4C91.4,133.4,91.4,133.4,91.4,133.4z" class="st20"/></g><g><path d="M90.8,133.2c0,0.1,0,0.1,0,0.2s0,0.1-0.1,0.2c0,0.1-0.1,0.1-0.2,0.1c-0.1-0.1-0.1-0.1-0.1-0.2l0,0 c0.1-0.1,0.1-0.1,0.1-0.1C90.7,133.2,90.7,133.2,90.8,133.2z" class="st20"/></g><g><path d="M90.5,132.5c0,0.1-0.1,0.1-0.1,0.2c-0.1,0.1-0.1,0.1-0.1,0.1c-0.1,0.1-0.1,0.1-0.2,0 c-0.1-0.1-0.1-0.1,0-0.2l0,0c0.1,0,0.1-0.1,0.2-0.1C90.4,132.6,90.5,132.5,90.5,132.5z" class="st20"/></g><g><path d="M90.6,131.9c-0.1,0.1-0.1,0.1-0.1,0.1c-0.1,0-0.1,0.1-0.1,0.1c-0.1,0-0.1-0.1-0.1-0.1 c0-0.1,0.1-0.1,0.1-0.1c0,0,0,0,0.1,0C90.5,131.8,90.5,131.8,90.6,131.9C90.5,131.8,90.5,131.8,90.6,131.9z" class="st20"/></g><g><path d="M91,131.3c-0.1,0-0.1,0-0.2-0.1c-0.1,0-0.1-0.1-0.1-0.1c-0.1-0.1-0.1-0.1-0.1-0.2c0.1-0.1,0.1-0.1,0.2-0.1 l0,0c0.1,0.1,0.1,0.1,0.1,0.1C91,131.2,91,131.3,91,131.3z" class="st20"/></g></g><g><g><path d="M93.4,132.7c0.1,0.1,0.1,0.1,0.1,0.1c0.1,0.1,0.1,0.1,0.1,0.1c0.1,0.1,0,0.1-0.1,0.2 c-0.1,0.1-0.1,0-0.2-0.1c0,0,0,0,0-0.1c0-0.1,0-0.1,0-0.2C93.4,132.8,93.4,132.7,93.4,132.7z" class="st20"/></g><g><path d="M93.7,132.1c0.1,0,0.1,0,0.2,0s0.1,0,0.1,0c0.1,0,0.1,0.1,0.1,0.2c0,0.1-0.1,0.1-0.2,0.1c0,0,0,0-0.1,0 c-0.1,0-0.1-0.1-0.1-0.1C93.8,132.1,93.8,132.1,93.7,132.1z" class="st20"/></g><g><path d="M93.7,131.4c0.1-0.1,0.1-0.1,0.1-0.1c0.1-0.1,0.1-0.1,0.1-0.1c0.1,0,0.1,0,0.2,0.1c0,0.1,0,0.1-0.1,0.2 c0,0,0,0-0.1,0s-0.1,0-0.2,0C93.9,131.4,93.8,131.4,93.7,131.4z" class="st20"/></g><g><path d="M93.4,130.8c0-0.1,0.1-0.1,0.1-0.2s0.1-0.1,0.1-0.1c0.1-0.1,0.1-0.1,0.2,0s0.1,0.1,0,0.2l0,0 c-0.1,0.1-0.1,0.1-0.1,0.1C93.5,130.8,93.4,130.8,93.4,130.8z" class="st20"/></g><g><path d="M92.8,130.6c0-0.1,0-0.1-0.1-0.2c0-0.1,0-0.1,0-0.2s0.1-0.1,0.1-0.1c0.1,0,0.1,0.1,0.1,0.1l0,0 c0,0.1-0.1,0.1-0.1,0.1C92.9,130.6,92.9,130.6,92.8,130.6z" class="st20"/></g></g><g><path d="M92.8,134.2c-0.1,0-0.1,0-0.1-0.1c-0.1-0.1-0.1-0.1-0.1-0.2l-0.4-4.1c0-0.1,0-0.1,0.1-0.2 c0.1-0.1,0.1-0.1,0.2-0.1c1.3-0.1,2.3,0.6,2.4,1.8c0.1,1.1-0.6,2.3-1.9,2.8C92.9,134.2,92.9,134.2,92.8,134.2z M92.7,130l0.4,3.6 c0.8-0.5,1.4-1.4,1.3-2.2C94.2,130.6,93.6,130,92.7,130z" class="st19"/></g><g><path d="M91.6,134.4c-1.1,0-2-0.7-2.1-1.8c-0.1-1.1,0.6-2.2,1.9-2.8c0.1-0.1,0.1,0,0.2,0c0.1,0.1,0.1,0.1,0.1,0.2 l0.4,4.1c0,0.1,0,0.1-0.1,0.2c-0.1,0.1-0.1,0.1-0.2,0.1C91.8,134.4,91.7,134.4,91.6,134.4z M91.2,130.5c-0.8,0.5-1.4,1.4-1.3,2.2 c0.1,0.8,0.7,1.4,1.6,1.4L91.2,130.5z" class="st19"/></g></g><g><g><g><path d="M87.7,131.6c-2.3,0.1-2.4,1.3-1.6,3.1C87.4,134.1,88.3,133,87.7,131.6z" class="st21"/></g><g><path d="M85.9,135.1C85.9,135.1,85.9,135.1,85.9,135.1c-0.1,0-0.2-0.1-0.2-0.1c-0.4-1-0.6-2.1-0.1-2.8 c0.4-0.5,1-0.7,2-0.8c0.1,0,0.2,0.1,0.2,0.1c0.3,0.6,0.4,1.1,0.2,1.7c-0.3,0.7-1,1.4-2,1.9C86,135.1,86,135.1,85.9,135.1z M87.5,131.8c-0.8,0.1-1.3,0.3-1.5,0.6c-0.4,0.5-0.2,1.4,0.1,2.2c0.8-0.4,1.3-1,1.5-1.5C87.7,132.7,87.7,132.3,87.5,131.8z" class="st22"/></g><g><path d="M87.7,131.8c-0.2,0.1-0.3,0.2-0.4,0.3c-0.1,0.1-0.3,0.3-0.4,0.4c-0.3,0.3-0.4,0.6-0.6,1 c0-0.3,0.1-0.4,0.1-0.6c0.1-0.2,0.1-0.4,0.3-0.6c0.1-0.2,0.3-0.4,0.4-0.5c0.2-0.2,0.4-0.3,0.6-0.4c0.1-0.1,0.3,0.1,0.3,0.2 C87.8,131.7,87.8,131.7,87.7,131.8L87.7,131.8z" class="st23"/></g></g><g><g><path d="M91.9,125.2c2-1.1,2.7-0.1,3,1.9C93.3,127.3,92,126.9,91.9,125.2z" class="st21"/></g><g><path d="M94.5,127.5c-0.9,0-1.6-0.3-2.1-0.6c-0.4-0.4-0.7-0.9-0.7-1.5c0-0.1,0.1-0.2,0.1-0.2 c0.9-0.5,1.5-0.6,2.1-0.4c0.8,0.4,1.1,1.4,1.3,2.5c0,0.1,0,0.1-0.1,0.2c-0.1,0.1-0.1,0.1-0.2,0.1 C94.8,127.5,94.6,127.5,94.5,127.5z M92.1,125.3c0.1,0.5,0.2,0.8,0.5,1.1c0.5,0.4,1.2,0.6,2,0.5c-0.2-0.8-0.5-1.7-1-1.9 C93.2,124.9,92.8,125,92.1,125.3z" class="st22"/></g><g><path d="M91.8,125.1c0.2-0.1,0.5-0.1,0.7,0c0.2,0.1,0.4,0.2,0.6,0.3c0.2,0.1,0.4,0.2,0.5,0.4 c0.1,0.2,0.3,0.3,0.4,0.5c-0.4-0.3-0.6-0.4-1-0.6c-0.2-0.1-0.4-0.1-0.5-0.1c-0.2,0-0.4-0.1-0.5,0l0,0c-0.1,0-0.2-0.1-0.2-0.2 C91.6,125.2,91.7,125.1,91.8,125.1z" class="st23"/></g></g><g><g><path d="M101,132.5c-1.6-1.5-2.4-0.7-3.1,1C99.2,134.1,100.5,134,101,132.5z" class="st21"/></g><g><path d="M99.1,134.1c-0.4,0-1-0.1-1.4-0.3c-0.1,0-0.1-0.1-0.1-0.1c0-0.1,0-0.1,0-0.2c0.5-0.9,1-1.8,1.8-1.9 c0.5-0.1,1.1,0.2,1.9,0.8c0.1,0.1,0.1,0.1,0.1,0.3c-0.2,0.6-0.5,1-1,1.3C99.8,134,99.5,134.1,99.1,134.1z M98,133.4 c0.8,0.2,1.5,0.2,2,0c0.4-0.2,0.6-0.5,0.8-0.9c-0.5-0.5-1-0.7-1.4-0.6C98.8,132.1,98.3,132.7,98,133.4z" class="st22"/></g><g><path d="M100.9,132.7c-0.1-0.1-0.3-0.1-0.5-0.1c-0.2,0-0.4,0-0.5,0c-0.4,0.1-0.7,0.1-1.1,0.3 c0.1-0.1,0.3-0.3,0.5-0.4c0.2-0.1,0.4-0.2,0.5-0.2c0.2-0.1,0.4-0.1,0.6-0.1c0.2,0,0.4,0.1,0.6,0.2c0.1,0.1,0.1,0.2,0.1,0.3 C101.1,132.7,101,132.7,100.9,132.7L100.9,132.7z" class="st23"/></g></g><g><g><path d="M82.8,136.2c0.1,0,0.2,0,0.4,0.1c0.1,0,0.3,0.1,0.4,0.1s0.2,0.1,0.4,0.1c0.1,0.1,0.3,0.1,0.4,0.2l0,0 c0.1,0.1,0.2,0.3,0.1,0.4c-0.1,0.1-0.3,0.2-0.4,0.1c0,0-0.1,0-0.1-0.1c-0.1-0.1-0.1-0.1-0.2-0.1c-0.1-0.1-0.2-0.1-0.3-0.1 c-0.1-0.1-0.3-0.1-0.3-0.1c-0.1-0.1-0.3-0.1-0.4-0.1l0,0c-0.1,0-0.2-0.1-0.2-0.2C82.6,136.3,82.7,136.2,82.8,136.2z" class="st21"/></g><g class="st2"><path d="M82.8,136.2c0.1,0,0.2,0,0.4,0.1c0.1,0,0.3,0.1,0.4,0.1s0.2,0.1,0.4,0.1c0.1,0.1,0.3,0.1,0.4,0.2l0,0 c0.1,0.1,0.2,0.3,0.1,0.4c-0.1,0.1-0.3,0.2-0.4,0.1c0,0-0.1,0-0.1-0.1c-0.1-0.1-0.1-0.1-0.2-0.1c-0.1-0.1-0.2-0.1-0.3-0.1 c-0.1-0.1-0.3-0.1-0.3-0.1c-0.1-0.1-0.3-0.1-0.4-0.1l0,0c-0.1,0-0.2-0.1-0.2-0.2C82.6,136.3,82.7,136.2,82.8,136.2z" class="st14"/></g><g><path d="M84.2,137.4c-0.1,0-0.2,0-0.3-0.1l-0.1-0.1c0,0-0.1-0.1-0.2-0.1c-0.1-0.1-0.2-0.1-0.3-0.1 c-0.1-0.1-0.2-0.1-0.3-0.1c-0.1-0.1-0.3-0.1-0.3-0.1c-0.1,0-0.2-0.1-0.3-0.2c-0.1-0.1-0.1-0.2-0.1-0.3c0.1-0.2,0.2-0.3,0.4-0.3 l0,0c0.1,0,0.3,0,0.4,0.1c0.1,0,0.2,0.1,0.4,0.1c0.2,0,0.3,0.1,0.4,0.1c0.2,0.1,0.3,0.1,0.4,0.2l0,0c0.3,0.1,0.3,0.4,0.2,0.6 C84.5,137.2,84.3,137.4,84.2,137.4z M82.8,136.4C82.8,136.4,82.7,136.4,82.8,136.4C82.7,136.5,82.7,136.5,82.8,136.4 C82.7,136.5,82.7,136.5,82.8,136.4c0.1,0.1,0.2,0.1,0.4,0.1c0.1,0.1,0.3,0.1,0.4,0.1c0.1,0.1,0.2,0.1,0.3,0.1 c0.1,0.1,0.2,0.1,0.3,0.2l0,0c0.1,0.1,0.1,0,0.2-0.1s0-0.1-0.1-0.2l0,0c-0.1-0.1-0.2-0.1-0.4-0.1c-0.1-0.1-0.3-0.1-0.4-0.1 c-0.1,0-0.3-0.1-0.4-0.1C83.1,136.5,83,136.4,82.8,136.4L82.8,136.4z" class="st22"/></g><g><g><path d="M83.1,136.5c-0.7-2.5-3.7-0.5-3.7-0.5S81.7,138.8,83.1,136.5z" class="st21"/></g><g class="st16"><path d="M83.1,136.6L83.1,136.6c-0.7-2.6-3.7-0.5-3.7-0.5s0.1,0.1,0.3,0.2C80.2,135.9,82.4,134.7,83.1,136.6z" class="st17"/></g><g><path d="M81.7,137.6c-1.3,0-2.5-1.4-2.6-1.4c-0.1-0.1-0.1-0.1-0.1-0.1c0-0.1,0.1-0.1,0.1-0.1 c0.1-0.1,1.9-1.2,3.1-0.7c0.5,0.2,0.9,0.6,1.1,1.3c0,0.1,0,0.1,0,0.1c-0.4,0.6-0.8,1-1.4,1C81.8,137.6,81.7,137.6,81.7,137.6z M79.5,136.1c0.4,0.4,1.4,1.3,2.4,1.2c0.4-0.1,0.8-0.3,1.1-0.8c-0.2-0.5-0.4-0.8-0.8-1C81.2,135.2,80,135.8,79.5,136.1z" class="st22"/></g><g><g><line x1="83.1" x2="81.1" y1="136.5" y2="136.2" class="st24"/></g><g><path d="M83.1,136.7c-0.2,0-0.4-0.1-0.5-0.1s-0.4-0.1-0.5-0.1c-0.4-0.1-0.6-0.2-1-0.3c0.4,0,0.6,0,1,0 c0.2,0,0.4,0,0.5,0c0.2,0,0.4,0.1,0.5,0.1s0.2,0.1,0.1,0.2C83.3,136.6,83.2,136.7,83.1,136.7z" class="st23"/></g></g></g><g><path d="M81.6,137.6c0.2-0.2,0.5-0.4,0.6-0.6c0.2-0.2,0.5-0.4,0.7-0.6c0.1-0.1,0.2-0.1,0.3,0.1 c0.1,0.1,0.1,0.2-0.1,0.2l0,0l0,0c-0.2,0.1-0.5,0.3-0.8,0.4C82.2,137.2,81.9,137.5,81.6,137.6z" class="st22"/></g><g><g><path d="M83.1,136.6c0,0-1.5,0.1-1.9,2.7C81.3,139.2,84.3,138.3,83.1,136.6z" class="st21"/></g><g class="st16"><path d="M81.7,139c0.3-2.2,1.5-2.3,1.5-2.3c-0.1-0.1-0.1-0.1-0.1-0.2c0,0-1.5,0.1-1.9,2.7c0,0,0.6-0.2,1.3-0.6 C82.1,138.9,81.7,139,81.7,139z" class="st17"/></g><g><path d="M81.3,139.4c-0.1,0-0.1,0-0.1-0.1c-0.1-0.1-0.1-0.1-0.1-0.2c0.4-2.8,2-2.9,2-2.9s0.1,0,0.2,0.1 c0.3,0.4,0.4,0.9,0.3,1.3C83.1,138.8,81.4,139.4,81.3,139.4L81.3,139.4z M83,136.7c-0.3,0.1-1.3,0.4-1.5,2.3 c0.5-0.2,1.5-0.6,1.7-1.4C83.3,137.3,83.3,137,83,136.7z" class="st22"/></g><g><path d="M82.2,137.7c0.1-0.2,0.2-0.4,0.4-0.6c0.1-0.2,0.3-0.4,0.4-0.6c0.1-0.1,0.2-0.1,0.2-0.1 c0.1,0.1,0.1,0.2,0.1,0.2c0,0,0,0-0.1,0.1c-0.2,0.2-0.4,0.3-0.5,0.5C82.6,137.3,82.4,137.5,82.2,137.7z" class="st22"/></g></g><g><g><path d="M83.1,136.6c0,0-1.4-0.5-1-3.2C82.2,133.4,84.8,135.3,83.1,136.6z" class="st21"/></g><g class="st16"><path d="M82.6,133.7c-0.2-0.3-0.4-0.4-0.4-0.4c-0.5,2.6,1,3.2,1,3.2l0.1-0.1C82.9,136.2,82.2,135.6,82.6,133.7z" class="st17"/></g><g><path d="M83.1,136.7L83.1,136.7c-0.1,0-1.6-0.6-1.1-3.3c0-0.1,0.1-0.1,0.1-0.1c0.1,0,0.1,0,0.2,0 c0.1,0.1,1.5,1.1,1.5,2.3c0,0.4-0.3,0.8-0.6,1.1C83.2,136.7,83.1,136.7,83.1,136.7z M82.3,133.7c-0.2,1.9,0.5,2.4,0.8,2.6 c0.3-0.2,0.4-0.5,0.4-0.8C83.5,134.8,82.7,134.1,82.3,133.7z" class="st22"/></g><g><path d="M82.6,135.2c0.1,0.3,0.2,0.4,0.3,0.6c0.1,0.3,0.2,0.4,0.3,0.6c0.1,0.1,0,0.2-0.1,0.2 c-0.1,0.1-0.2,0-0.2-0.1c0,0,0,0,0-0.1c-0.1-0.2-0.1-0.5-0.2-0.7C82.7,135.7,82.6,135.4,82.6,135.2z" class="st22"/></g></g></g></g><g><path d="M80.5,143.7L80.5,143.7C80.5,143.7,80.5,143.7,80.5,143.7c0.1,0.1,0.2,0.1,0.2,0.1c0.1,0,0.3-0.1,0.4-0.1 c0.3-0.1,0.6-0.3,0.8-0.5c0.5-0.4,1.1-0.7,1.7-1.1c0.5-0.4,1.1-0.8,1.5-1.3c0.1-0.1,0.3-0.2,0.4-0.4c0.1-0.1,0.2-0.2,0.4-0.4 c0.1-0.1,0.1-0.1,0.2-0.2l0.2-0.2l0.1-0.1l0.1-0.1l0.2-0.2c1.1-0.8,2.3-1.4,3.7-1.9c0.6-0.2,1.3-0.4,2-0.6c0.6-0.2,1.3-0.3,2-0.4 c-1.3,0.2-2.6,0.6-3.9,1.1c-0.6,0.2-1.3,0.5-1.9,0.8c-0.6,0.3-1.2,0.6-1.7,1.1l-0.2,0.2v0.1l-0.1,0.1l-0.2,0.2 c-0.1,0.1-0.1,0.1-0.2,0.2c-0.1,0.1-0.3,0.2-0.4,0.4c-0.1,0.1-0.2,0.2-0.4,0.4c-0.5,0.5-1,0.9-1.5,1.3s-1.1,0.8-1.7,1.2 c-0.3,0.2-0.6,0.4-0.9,0.5c-0.2,0.1-0.4,0.1-0.5,0.2c-0.1,0-0.3,0-0.4,0c-0.1,0-0.1-0.1-0.2-0.1c-0.1-0.1-0.1-0.1-0.2-0.2 c-0.1-0.1,0-0.2,0.1-0.3C80.2,143.4,80.4,143.5,80.5,143.7L80.5,143.7z" class="st14"/></g><g><g class="st2"><ellipse cx="105.9" cy="133.3" class="st14" rx=".4" ry=".2" transform="matrix(0.968 -0.2508 0.2508 0.968 -30.0408 30.8193)"/></g><g class="st2"><ellipse cx="104.3" cy="132.3" class="st14" rx=".6" ry=".4" transform="matrix(0.968 -0.2508 0.2508 0.968 -29.8517 30.3899)"/></g><g class="st2"><ellipse cx="100.6" cy="129.9" class="st14" rx=".4" ry=".4" transform="matrix(0.9355 -0.3532 0.3532 0.9355 -39.3866 43.9212)"/></g><g class="st2"><ellipse cx="104.8" cy="125.6" class="st14" rx=".3" ry=".2" transform="matrix(0.9355 -0.3532 0.3532 0.9355 -37.6193 45.1268)"/></g><g class="st2"><ellipse cx="105.4" cy="128.8" class="st14" rx=".4" ry=".3" transform="matrix(0.9355 -0.3532 0.3532 0.9355 -38.6857 45.5344)"/></g><g class="st2"><path d="M102.1,127.8c0.1,0.1-0.1,0.2-0.2,0.3c-0.1,0.1-0.3,0-0.4-0.1c-0.1-0.1,0.1-0.3,0.2-0.3 C101.9,127.6,102,127.7,102.1,127.8z" class="st14"/></g><g class="st2"><ellipse cx="96.9" cy="131.9" class="st14" rx=".3" ry=".2" transform="matrix(0.8111 -0.5849 0.5849 0.8111 -58.8186 81.5756)"/></g><g class="st2"><ellipse cx="97.7" cy="128.8" class="st14" rx=".3" ry=".2" transform="matrix(0.8111 -0.5849 0.5849 0.8111 -56.8579 81.4605)"/></g><g class="st2"><ellipse cx="88" cy="136.8" class="st14" rx=".4" ry=".4" transform="matrix(0.8111 -0.5849 0.5849 0.8111 -63.4063 77.3162)"/></g><g class="st2"><ellipse cx="88.3" cy="134.5" class="st14" rx=".4" ry=".3" transform="matrix(0.8111 -0.5849 0.5849 0.8111 -62.0176 77.0342)"/></g><g class="st2"><ellipse cx="84.8" cy="138.9" class="st14" rx=".2" ry=".2" transform="matrix(0.8111 -0.5849 0.5849 0.8111 -65.2173 75.8337)"/></g><g class="st2"><ellipse cx="88.3" cy="130.5" class="st14" rx=".4" ry=".3" transform="matrix(0.8111 -0.5849 0.5849 0.8111 -59.6737 76.276)"/></g><g class="st2"><ellipse cx="91.4" cy="128.2" class="st14" rx=".5" ry=".4" transform="matrix(0.8111 -0.5849 0.5849 0.8111 -57.7431 77.6675)"/></g></g><g><g><g><g><path d="M108.9,133.9c-0.4,2.5,5.3,2.9,5.3,2.9s3.7-8.5-2.2-15.8c-5.8-7.3-13.9-6.2-14.7-4.5 c-0.9,1.7,0.8,2.5,0.8,2.5S111.3,120.3,108.9,133.9z" class="st25"/></g><g class="st16"><path d="M112,121c-5.9-7.3-13.9-6.2-14.7-4.5c-0.8,1.5,0.5,2.3,0.8,2.4c-0.4-0.4-0.6-1-0.2-1.9 c0.2-0.4,0.8-0.7,1.5-1c-0.2,0.1-0.3,0.3-0.2,0.4c0.1,0.3,0.6,0.4,1.2,0.3c0.6-0.1,1.1-0.4,1.1-0.6c0-0.1-0.1-0.2-0.2-0.3 c2.9-0.1,7,1.1,10.4,5.3c5.5,6.7,2.1,14.7,2.1,14.7s-3.8-0.3-4.7-1.7c0.1,2.2,5.3,2.5,5.3,2.5S117.9,128.3,112,121z" class="st17"/></g><g class="st2"><path d="M114.2,136.8c0,0,0.5-1.1,0.8-3c-0.6-0.6-1.5-1.1-2.4-1.4c-0.8-0.4-1.4-1.2-1.3-2.1 c0.2-2.3,0.2-5.3-1.9-7.8c-4.6-5.7-10.8-4.9-11.6-3.6c0.2,0.1,0.3,0.2,0.3,0.2s13.2,1.1,10.8,14.8 C108.5,136.4,114.2,136.8,114.2,136.8z" class="st14"/></g><g><path d="M114.2,137.1L114.2,137.1c-0.2,0-4-0.3-5.2-1.9c-0.3-0.4-0.4-0.9-0.4-1.4c0.7-4.1,0.1-7.4-1.9-9.9 c-3.1-4.1-8.7-4.6-8.7-4.6H98c-0.1,0-0.8-0.4-1.1-1.3c-0.2-0.5-0.1-1.1,0.2-1.6c0.4-0.6,1.5-1.2,3-1.4c3.3-0.4,8.3,1,12.1,5.8 c3.1,3.8,3.5,8,3.4,10.8c-0.2,3-1.1,5.2-1.1,5.2C114.4,137,114.4,137.1,114.2,137.1z M108.9,133.9l0.2,0.1 c-0.1,0.4,0,0.6,0.2,1c1,1.2,3.9,1.5,4.7,1.6c0.2-0.5,0.8-2.4,1-4.9c0.2-2.8-0.3-6.7-3.3-10.4c-3.8-4.7-8.5-5.9-11.7-5.6 c-1.5,0.2-2.4,0.6-2.6,1.1c-0.2,0.4-0.3,0.8-0.2,1.3c0.2,0.5,0.7,0.8,0.8,0.9c0.3,0,1.6,0.2,3.3,0.8c1.7,0.6,4.1,1.8,5.8,4 c2,2.6,2.7,6.1,1.9,10.3H108.9z" class="st14"/></g></g><g><path d="M114.2,136.8c0,0-1.1,1.3-3.3,0.6c-2.2-0.7-2.8-2.2-2-3.5C109.7,132.6,115.9,134.2,114.2,136.8z" class="st13"/></g><g class="st2"><path d="M114.2,136.8c0,0-1.1,1.3-3.3,0.6c-2.2-0.7-2.8-2.2-2-3.5C109.7,132.6,115.9,134.2,114.2,136.8z" class="st14"/></g><g><path d="M112.2,137.9c-0.4,0-0.8-0.1-1.4-0.2c-1.5-0.5-2.2-1.3-2.3-1.9c-0.2-0.6-0.2-1.4,0.2-2 c0.3-0.5,1.1-0.6,1.7-0.5c1.5,0.1,3.6,0.8,4.2,2c0.3,0.5,0.3,1.2-0.1,1.8c0,0,0,0,0,0.1C114.4,137,113.6,137.9,112.2,137.9z M110.2,133.7c-0.5,0-1,0.1-1.1,0.4c-0.3,0.5-0.4,1.1-0.2,1.5c0.2,0.6,1,1.3,2,1.5c1.9,0.6,2.9-0.4,3-0.5 c0.2-0.4,0.3-0.8,0.1-1.3c-0.5-1-2.4-1.7-3.8-1.7C110.3,133.7,110.3,133.7,110.2,133.7z M114.2,136.8L114.2,136.8L114.2,136.8z" class="st14"/></g></g><g><g><path d="M101.2,118c-0.1-0.1-0.1-0.3-0.1-0.4c0-0.1,0-0.3,0.1-0.4c0.1-0.1,0.1-0.2,0.2-0.3 c0.1-0.1,0.2-0.2,0.3-0.2c-0.1,0.1-0.1,0.2-0.2,0.3c-0.1,0.2-0.1,0.2-0.1,0.3c-0.1,0.1-0.1,0.2-0.1,0.3 C101.3,117.7,101.3,117.9,101.2,118z" class="st26"/></g><g><path d="M102,118.4c-0.1-0.2,0-0.4,0-0.5c0-0.2,0.1-0.3,0.2-0.5c0.1-0.2,0.2-0.3,0.3-0.4c0.1,0,0.1-0.1,0.1-0.1 s0.1-0.1,0.1-0.1c0.1,0,0.1-0.1,0.1-0.1c0.1,0,0.1,0,0.1-0.1c-0.1,0.1-0.2,0.3-0.3,0.4s-0.2,0.3-0.2,0.4 c-0.1,0.1-0.1,0.2-0.2,0.4C102,118.1,102,118.3,102,118.4z" class="st26"/></g></g><g><g><path d="M111.3,129.1c0.1-0.1,0.3-0.2,0.5-0.3c0.2-0.1,0.4-0.1,0.5-0.1s0.4,0.1,0.5,0.1c0.1,0,0.1,0.1,0.1,0.1 s0.1,0.1,0.1,0.1c0.1,0,0.1,0.1,0.1,0.1c0.1,0.1,0.1,0.1,0.1,0.1c-0.2-0.1-0.4-0.1-0.5-0.1c-0.2-0.1-0.3-0.1-0.5-0.1 c-0.2,0-0.3,0-0.5,0C111.7,129.1,111.5,129.1,111.3,129.1z" class="st26"/></g><g><path d="M111.1,130.3c0.2-0.1,0.5-0.2,0.7-0.2c0.2-0.1,0.5-0.1,0.7,0c0.1,0,0.1,0,0.2,0.1c0.1,0,0.1,0.1,0.2,0.1 s0.1,0.1,0.2,0.1l0.1,0.1l0.1,0.1c0.1,0.1,0.1,0.1,0.2,0.1s0.1,0.1,0.1,0.1l0.1,0.1l0.1,0.1c0.1,0.1,0.1,0.1,0.1,0.1 c-0.2-0.1-0.4-0.3-0.6-0.3l-0.1-0.1h-0.1c-0.1,0-0.1-0.1-0.2-0.1s-0.1,0-0.2-0.1c-0.1-0.1-0.1,0-0.2-0.1 c-0.2-0.1-0.5-0.1-0.7-0.1C111.6,130.3,111.3,130.3,111.1,130.3z" class="st26"/></g></g></g><g><g><path d="M103.9,128.3c1.8-1,2.3-0.1,2.5,1.6C105.1,130,104,129.7,103.9,128.3z" class="st21"/></g><g><path d="M106.2,130.3c-0.8,0-1.4-0.2-1.9-0.6c-0.4-0.4-0.6-0.8-0.6-1.4c0-0.1,0.1-0.1,0.1-0.2 c0.8-0.4,1.4-0.5,1.9-0.3c0.6,0.3,1,1.2,1.1,2.1c0,0.1,0,0.1-0.1,0.2s-0.1,0.1-0.1,0.1C106.4,130.3,106.3,130.3,106.2,130.3z M104,128.4c0.1,0.4,0.2,0.7,0.5,1c0.4,0.4,1,0.5,1.8,0.5c-0.2-0.7-0.4-1.4-0.9-1.7C105.1,128,104.6,128.1,104,128.4z" class="st22"/></g><g><path d="M103.8,128.1c0.2-0.1,0.4-0.1,0.6,0c0.2,0.1,0.4,0.1,0.5,0.2c0.2,0.1,0.3,0.3,0.4,0.4 c0.1,0.1,0.2,0.3,0.4,0.4c-0.3-0.2-0.6-0.4-0.9-0.5c-0.2-0.1-0.3-0.1-0.5-0.1s-0.3,0-0.4,0l0,0c-0.1,0-0.2-0.1-0.2-0.2 C103.7,128.2,103.8,128.1,103.8,128.1z" class="st23"/></g></g></g></svg>