<svg xmlns="http://www.w3.org/2000/svg" xmlns:v="https://vecta.io/nano" xmlns:xlink="http://www.w3.org/1999/xlink" id="Layer_1" x="0" y="0" version="1.1" viewBox="0 0 180 180" xml:space="preserve" style="enable-background:new 0 0 180 180"><style type="text/css">.st0{fill:#aa8159}.st1{fill:#b68a4f}.st2{opacity:.3}.st3{fill:#c49776}.st4{fill:#e5e5e5}.st5{fill:#fff}.st6{fill:#2f3030}.st7{fill:#100c18}.st8{fill:#828384}.st9{fill:#343535}.st10{fill:#ffd283}.st11{opacity:.1;fill:none;stroke:#191326;stroke-width:4;enable-background:new}.st12{fill:#f7af41}.st13{fill:#6c184e}.st14{fill:#ffce00}.st15{opacity:.65}.st16{fill:#ee1822}.st17{fill:#bd1622}.st18{fill:#f6c547}.st19{fill:#48c75a}.st20{fill:#661a47}.st21{fill:#651b47}.st22{fill:none}.st23{fill:#eb984e}.st24{fill:#6d184e}</style><g><path d="M79.4,156.5c35.1,16.5,76.9,1.4,93.5-33.8s1.6-77.1-33.5-93.6c-30.5-14.3-66-4.8-85.7,21 c-3.9,0-10.4-0.9-17.3-5.5c0,0-9.2-5.8-12.3-9.8c-3.1-4.1-12.5-9.4-19.1,1l-1.1,2.4l-1.5,3.2l-1.1,2.4 c-3.8,11.7,6.3,15.6,11.4,15.4c5-0.2,15.3,3.2,15.3,3.2c7.3,2.2,11.9,6.1,14.6,9C31.9,104.6,47.2,141.3,79.4,156.5z M7.9,43.2 c1.3-2.8,4.6-4,7.4-2.7s4,4.6,2.7,7.4c-1.3,2.8-4.6,4-7.4,2.7C7.7,49.3,6.5,46,7.9,43.2z" class="st0"/><path d="M0,48.5c0-1.5,0.3-3.1,0.8-4.7l0,0l3.8-8l0,0c2.5-4,5.6-6,9.3-6.2c4.3-0.2,8.4,2.6,10.4,5.2 c3,4,12.1,9.7,12.2,9.7c6.7,4.4,12.9,5.4,17,5.5C63.2,37.2,77,28.2,92.4,24.3c15.7-4,32.5-2.3,47.1,4.6c12.5,5.9,22.9,15.2,30,26.9 c7,11.4,10.6,24.5,10.4,37.9c-0.1,10.1-2.4,20-6.8,29.2c-8.1,17.1-22.3,30-40,36.4s-36.9,5.5-53.9-2.5c-12.5-5.9-22.9-15.2-30-26.9 c-7-11.4-10.6-24.5-10.4-37.9l0,0c0.1-6.9,1.2-13.8,3.3-20.5c-2.6-2.8-7.2-6.6-14.3-8.8c-0.1,0-10.3-3.4-15.3-3.2 c-2.8,0.1-6.9-1-9.6-3.6C1,54,0,51.5,0,48.5z M1.5,44c-0.5,1.6-0.8,3.1-0.8,4.5c0,2.8,0.9,5.1,2.8,6.9c2.6,2.5,6.4,3.5,9.1,3.4 c5.1-0.2,15.1,3.1,15.5,3.3c7.4,2.3,12.1,6.2,14.7,9.1c0.1,0.1,0.1,0.2,0.1,0.4c-2.1,6.6-3.3,13.5-3.4,20.4l0,0 c-0.2,13.2,3.4,26.2,10.3,37.5c7.1,11.6,17.4,20.8,29.7,26.6c16.9,7.9,35.8,8.8,53.4,2.5s31.6-19.2,39.6-36.1 c4.3-9.2,6.6-18.9,6.7-28.9c0.2-13.2-3.4-26.2-10.3-37.5c-7.1-11.6-17.4-20.8-29.7-26.6c-14.5-6.8-31.1-8.5-46.6-4.5 c-15.3,3.8-29,12.9-38.6,25.4c-0.1,0.1-0.2,0.1-0.3,0.1c-4.2,0-10.6-1-17.5-5.6c-0.4-0.2-9.3-5.8-12.4-9.9c-1.9-2.5-5.7-5-9.8-4.9 c-3.4,0.1-6.3,2.1-8.7,5.8L1.5,44z M7,45.5c0-0.9,0.2-1.7,0.6-2.5c0.7-1.4,1.9-2.5,3.4-3.1c1.5-0.5,3.1-0.5,4.5,0.2 c2.1,1,3.4,3.1,3.4,5.4c0,0.9-0.2,1.7-0.6,2.5c-0.7,1.4-1.9,2.5-3.4,3.1c-1.5,0.5-3.1,0.5-4.5-0.2C8.3,49.9,6.9,47.8,7,45.5z M18.1,45.6c0-2-1.1-3.9-3-4.8c-1.3-0.6-2.7-0.7-4-0.2S8.7,42,8.2,43.3c-0.3,0.7-0.5,1.4-0.5,2.2c0,2,1.1,3.9,3,4.8 c1.3,0.6,2.7,0.7,4,0.2s2.4-1.4,2.9-2.7C17.9,47.1,18.1,46.3,18.1,45.6z" class="st1"/></g><g><g class="st2"><path d="M25.2,41.1c0.6,0.2,1.4,0.6,2.1,0.4c0.8-0.2,0.6-1.4,0.5-2c-0.1-0.5-0.3-1-0.5-1.5c-1.3-1.1-2.4-2.2-3.2-3.2 c-0.7-1-1.9-2.1-3.2-2.9c0.9,1.5,1.5,3,1.5,4.9c0,0.1-0.1,0.2-0.2,0.2c-3.6-0.9-6.9-3.1-9.8-5.3c-0.5-0.4-0.9-0.7-1.4-1.1 c-0.6,0.2-1.2,0.6-1.8,1c3,2,6,4,9,5.9C20.3,38.7,22.7,40.2,25.2,41.1z" class="st3"/><path d="M5,35.8l-0.7,1.4c2.1,1.1,4.3,2.1,6.4,3.2c1.4-0.6,3.1-0.6,4.5,0.1c1.7,0.8,2.8,2.4,3.1,4.1 c4,2.3,8,4.6,12,6.8c1.8,1,3.5,1.9,5.3,2.9c1.7,1,3.5,2.1,5.4,2.6c1.4,0.4,4.3,0.4,4.2-1.7c0-1.8-1.2-3.5-2-5.1 c-0.5-0.9-1-1.8-1.4-2.7c-1.7-0.8-3.6-1.7-5.4-2.9c0,0-0.4-0.3-1.1-0.7c0.2,0.4,0.3,0.7,0.4,1.1c0.3,0.8,0.6,1.8,0.4,2.7 c-0.4,1.7-2.3,1.3-3.5,0.9c-2.6-0.9-5.1-2.5-7.4-4c-2.7-1.7-5.3-3.5-7.9-5.4c-1.5-1.1-3-2.2-4.7-3.1c-1.9-1-3.7-2-5.6-3 C6.3,33.9,5.6,34.8,5,35.8z" class="st3"/><path d="M52.4,57.3c0.4,1.6,0.6,3.9-0.8,5.1c-2,1.8-5.6,1-7.9,0.5c-10-2.2-18.5-8.3-27.4-13c-1.2,0.9-2.7,1.4-4.3,1.1 c5.6,2.3,11.2,4.7,16.8,7c5.4,2.3,10.8,4.6,16.2,6.8c3.5,1.4,7.1,3,10.7,4.1c0.8,0.2,1.6,0.5,2.5,0.6c1.2,0.2,3.5,0.6,4.3-0.6 c0.7-1,0.3-2.3,0-3.4c-0.5-1.6-1.2-3.1-2-4.6c-1-1.9-1.9-3.8-3.1-5.6c-1.2-1.8-2.5-3.5-3.9-5.2c-1.2,0-2.7-0.1-4.3-0.4 C50.5,52.1,51.8,54.7,52.4,57.3z" class="st3"/><path d="M0.5,46.6c3.1,1.1,6.1,2.3,9.2,3.5c-1.5-1-2.3-2.7-2.4-4.5c-1.9-0.8-3.9-1.7-5.8-2.5l-0.3,0.7 C0.9,44.8,0.7,45.7,0.5,46.6z" class="st3"/><path d="M27.6,62.3c-6-2.8-12-5.5-18.1-8.1c-2.9-1.2-5.9-2.4-8.9-3.5c1.2,6.4,8.1,8.6,12,8.5 C17.1,59,25.6,61.6,27.6,62.3z" class="st3"/><path d="M159.5,43.4c-4.8-0.8-9.5-2.4-13.7-5.1c-4-2.6-7.8-5.6-11.4-8.8c-1.4-1.2-2.6-2.5-3.9-3.8 c-2.9-0.9-5.9-1.6-8.9-2.2c1.2,1.1,2.5,2.1,3.7,3.1c4.2,3.6,8.3,7.3,12.9,10.4c7.3,4.9,15.6,8.5,24.4,9.7 C161.6,45.6,160.6,44.5,159.5,43.4z" class="st3"/><path d="M166.4,51.6c-0.4,0-0.8-0.1-1.2-0.1c-3.4-0.3-6.8-0.6-10.1-1.3c-10.4-2.3-20.3-7.1-28.8-13.6 c-5.5-4.2-10.6-9-15.3-14.1c-2,0-4,0-6,0.1c6.6,6.3,12.8,13,19.8,18.8c3.9,3.3,8.1,6.4,12.6,8.8c4.9,2.7,10.1,4.7,15.4,6.6 c4.7,1.7,9.4,3.2,14.2,4.6c2.2,0.6,4.3,1.3,6.5,2.1C171.4,59.4,169.1,55.4,166.4,51.6z" class="st3"/><path d="M175.9,70.2c-3.7-1.2-7.4-2.7-11.2-3.6c-8-1.9-15.9-4.4-23.4-7.8c-4.8-2.2-9.5-4.8-14.2-7.4 c-4.7-2.6-9.3-5.4-13.8-8.3c-8.2-5.3-16.1-11.2-23.3-17.8c-2,0.6-4.1,1.3-6,2c1.5,1,3,2,4.4,3.1c5,3.5,10,7.1,14.9,10.8 c4.9,3.6,9.7,7.2,14.6,10.8c3.1,2.2,6.1,4.6,9.4,6.5c4.4,2.5,9.3,4.4,14,6.2c2.6,1,5.2,2,7.9,3c2.5,0.9,4.9,1.9,7.5,2.7 c6.9,2.2,14.2,3.4,21,5.9C177.2,74.3,176.6,72.2,175.9,70.2z" class="st3"/><path d="M179.6,92.6c-1.4-0.6-2.8-1.3-4.2-2c-3.8-2-7.8-4.3-10.9-7.3c-0.1-0.1,0-0.3,0.1-0.3c5,0.3,9.8,1.7,14.6,3.2 c-0.1-1-0.2-1.9-0.3-2.9c-2-0.6-4-1.2-6-1.6c-4.4-1-8.9-1.7-13.3-2.8c-3.1-0.7-6.1-2-9.2-2.9c-1.8-0.5-3.7-1-5.6-1.2 c-1.3-0.1-2.7-0.2-3.9,0.4c2.5,2.8,5.9,4.8,9.3,6.4c3.6,1.8,7.4,3.2,11.2,4.8c4.3,1.8,8.5,3.9,12.7,5.8c1.8,0.8,3.5,1.6,5.3,2.4 C179.6,93.9,179.6,93.2,179.6,92.6z" class="st3"/><path d="M179.6,94.9c-1.8-0.8-3.7-1.6-5.5-2.5c-4.4-2-8.6-4.2-13.1-6c-3.8-1.5-7.6-3-11.3-4.8 c-3.3-1.7-6.6-3.6-9.1-6.4c-0.1-0.1-0.1-0.2,0-0.3c0.2-0.1,0.3-0.2,0.5-0.2c1.3-0.5,2.8-0.4,4.1-0.2c1.8,0.2,3.5,0.7,5.2,1.2 c3.2,0.9,6.2,2.2,9.4,2.9c4.5,1,9.1,1.7,13.6,2.8c1.8,0.4,3.5,0.9,5.2,1.5c0-0.1,0-0.3-0.1-0.4c-1.3-0.4-2.5-0.8-3.8-1.2 c-10-3.2-20.3-5.5-30.4-8.6c-5-1.5-9.9-3.2-14.7-5.3c-4.8-2.1-9.3-4.5-13.8-7.2c-9-5.4-17.3-11.8-25-19c-3-2.8-6.1-5.4-9-8.4 c-1-1.1-2-2.2-3-3.4c-1.8,0.9-3.6,1.8-5.3,2.8c0.9,0.8,1.8,1.6,2.7,2.5c3.5,3.4,7,6.7,10.3,10.3c1.8,2.1,3.6,4.2,5.4,6.3 c1.7,2.1,3.4,4.2,5.2,6.2c6.9,7.6,15.7,13,24.8,17.4c10.6,5.1,21.5,9.5,32.4,13.9c8.3,3.4,16.3,7.6,24.4,11.4 C179.4,98.5,179.5,96.7,179.6,94.9z" class="st3"/><path d="M166.4,104.9c0.7,1.3,2.1,2.4,3.2,3.3c1.9,1.6,3.9,3.1,6,4.5c0.3,0.2,0.6,0.4,0.9,0.6 c0.5-1.6,0.9-3.3,1.3-4.9C174.1,106.9,170.5,105,166.4,104.9z" class="st3"/><path d="M175.6,116.2c-2.4-1.2-4.7-2.8-7-4.3c-3.1-2.1-6.4-3.9-9.7-5.8c-3.9-2.3-7.9-4.7-11.1-8 c-0.1-0.1,0-0.3,0.1-0.3c3.1-1.1,6.6,0,9.5,1c3.1,1.1,6.2,2.2,9.4,3.2c3.8,1.1,7.8,2.3,11.5,3.9c0.1-0.7,0.2-1.3,0.4-2 c-4.8-1.7-9.6-3.2-14.4-4.7C154,96,143.6,93,133.7,88.8c-4.9-2-9.6-4.3-14.2-7c-4.5-2.6-8.8-5.5-12.9-8.7 c-14.2-10.7-26.5-23.8-38.5-37c-1.3,1-2.6,2-3.9,3.1c0.4,0.3,0.7,0.6,1.1,0.9C70.4,44.6,74,50.3,77.7,56c2.8,4.4,5.8,8.7,9.4,12.5 c3.6,3.7,7.5,7.1,11.6,10.1c8.5,6.3,17.4,12,26.9,16.6c9.9,4.8,20.1,8.8,29.7,14.3c4.8,2.7,9.6,5.5,14.6,7.9 c1.4,0.7,2.9,1.3,4.4,1.9C174.8,118.3,175.2,117.3,175.6,116.2z" class="st3"/><path d="M156.1,127.2c-2.8-1.2-5.7-2.3-8.6-3.1c-2.6-0.8-5.3-1.4-8.1-1.2c1.5,2.4,4.3,4,6.8,5.2 c2.8,1.4,5.7,2.6,8.6,3.8c3.1,1.3,6,2.8,8.9,4.3c0.2,0.1,0.4,0.2,0.7,0.3c1-1.3,2-2.6,2.9-4c-0.5-0.2-0.9-0.5-1.4-0.7 C162.8,130,159.5,128.5,156.1,127.2z" class="st3"/><path d="M48.7,118.7c1.7,0.5,3.3,1.2,5,1.7c2.6,0.8,5.3,1.5,7.9,2.3c10.6,3,21.3,5.7,31.9,8.8 c11.3,3.4,22.5,7,33.8,10.3c5.6,1.6,11.2,3.4,16.7,5.3c2.3,0.8,4.6,1.6,6.9,2.3c0.7-0.5,1.4-1,2-1.6c-1.1-0.5-2.3-0.9-3.4-1.4 c-4.9-1.9-9.9-3.4-14.9-5c-11.1-3.7-22.2-7.6-33.1-11.7c-10.8-4-21.7-8.1-32.8-11.3c-9-2.6-17.8-6.4-27.1-7.4 c0.6,2.1,1.2,4.2,2,6.2C45.3,117.7,47,118.2,48.7,118.7z" class="st3"/><path d="M68.5,144.1c11.1,4,21.9,8.3,32.7,13c4.5,1.9,9,3.9,13.5,5.8c4.1-0.3,8.1-1,12-2c-2.1-0.9-4.2-1.8-6.3-2.7 c-6.9-2.9-14-5.4-21.1-7.8c-5.4-1.9-10.9-3.6-16.3-5.6c-5.2-1.9-10.3-4.1-15.4-6.5c-5-2.4-10-4.8-15-7.2c-1-0.5-2-1-3-1.4 c2.3,3.8,4.9,7.3,7.9,10.6C61.2,141.4,64.9,142.8,68.5,144.1z" class="st3"/><path d="M67.5,149.2c3.8,1.5,7.6,3,11.4,4.6c6.3,2.7,12.6,5.5,18.9,8.4c2,0.3,4.1,0.6,6.1,0.7 c-7.5-3.6-15.1-7-22.7-10.5c-4.6-2.1-9.2-4.3-14-6.1c-1.9-0.8-3.9-1.5-5.9-2c1.8,1.7,3.7,3.3,5.7,4.8 C67.3,149.1,67.4,149.2,67.5,149.2z" class="st3"/><path d="M44,106.7c2.3,0.7,4.7,1.1,7.1,1.5c5.8,1.1,11.6,2.2,17.3,3.7c11.3,3.1,22.3,6.9,33.5,10.2 c11.2,3.3,22.6,6.1,33.8,9.5c8.4,2.6,16.3,6.2,24.2,9.9c0.8-0.9,1.6-1.7,2.4-2.6c-3.8-1.3-7.5-2.7-11.2-4.2 c-5.3-2.1-10.4-4.5-15.6-6.8c-10.8-4.7-21.8-8.8-32.7-13.3c-10.3-4.2-20.7-8.3-31.4-11.2c-10.5-2.9-21.1-5-32-5.9 c0.2,2.7,0.5,5.4,1,8.1C41.6,106,42.8,106.4,44,106.7z" class="st3"/><path d="M105,99.3c0.7-0.1,1.5-0.3,2.1-0.6c0.3-0.1,0.5-0.3,0.8-0.4c0.5-0.3,0.5-0.3,0.1-0.6c-1.4-1.4-3-2.6-4.8-3.6 c-3.7-2.1-7.9-3.5-12.1-4.6c-4-1-8-1.6-12-2C73.5,87,68,86.1,62.5,84.9c-2.8-0.6-5.6-1.3-8.3-2.1c-2-0.6-4-1.3-5.9-2.1 c-2.1-0.8-4.2-1.6-6.3-2.2c-0.4-0.1-0.8-0.2-1.2-0.3c-0.2,1-0.4,1.9-0.6,2.9c2.9,0.6,5.6,1.7,8.3,3c0.2,0.1,0.1,0.3-0.1,0.3 c-2.9,0.2-5.8,0-8.7,0.1c-0.1,1.1-0.2,2.2-0.3,3.3c7.4,1,14.8,2.3,22.2,3.7c4.5,0.9,9,1.7,13.5,2.6c3,0.5,5.9,1,8.8,1.8 c3.5,1,6.9,1.9,10.5,2.7C97.7,99.3,101.5,100,105,99.3z" class="st3"/><path d="M172.7,123.2c-0.7-0.4-1.4-0.8-2.2-1.1c-5.6-2.6-11.3-4.7-17.1-6.9c-10.2-3.9-20.4-7.7-30.2-12.5 c-9.5-4.6-18.8-10-26.6-17.2c-7.5-7-13.7-15.2-20-23.2C71.5,55.6,66.6,48.4,60,43c-0.4,0.4-0.8,0.8-1.3,1.3 c0.5,0.9,1.1,1.9,1.7,2.8c3.1,5.1,6.3,10.1,9.1,15.2c1.3,2.4,2.5,4.8,3.6,7.3c0.8,1.9,1.5,4,1.7,6.1c0.1,1.4-0.1,3-1.1,4 c-1.7,1.7-4.5,1.6-6.6,1.1C62.9,80,59.2,78,55.5,76c-4.7-2.5-9.5-4.7-14.2-7c-1.2-0.6-2.3-1.2-3.5-1.7c2,1.5,3.6,2.9,4.8,4.2 c-0.4,1.1-0.7,2.3-1,3.4c3,0.8,6,1.8,8.9,2.9c0.2,0.1,0.2,0.3,0,0.3c-3.2,0.7-6.3-0.2-9.5-0.6c0,0.1,0,0.2-0.1,0.3 c1.6,0.4,3.2,1,4.7,1.5c3.7,1.3,7.2,2.8,11,3.7c5.7,1.5,11.4,2.7,17.2,3.5c4.3,0.6,8.6,0.9,12.9,1.7c7.7,1.4,16.5,3.7,22,9.7 c0.1,0.1,0.1,0.2,0,0.3c-1.7,1.5-4.2,1.8-6.4,1.8c-3.1,0-6.2-0.5-9.2-1.2c-3.4-0.8-6.8-1.7-10.2-2.7c-4.4-1.2-8.9-1.8-13.4-2.6 c-10-1.9-20-3.9-30.1-5.3c-0.1,1.6-0.2,3.3-0.2,4.9c4.3,0.4,8.7,0.7,12.9,1.2c11.5,1.5,22.9,3.9,34.1,6.8 c11.3,3,22.6,6.3,33.7,9.9c10.6,3.4,21,7.3,31.6,10.8c6.1,2,12.4,4,18.4,6.7C170.9,126.7,171.8,125,172.7,123.2z" class="st3"/></g><g><path d="M58.1,48.3c1.4-1.6,3.2-3,4.8-4.5c1.8-1.6,3.6-3.2,5.4-4.6c3.6-2.8,7.4-5.1,11.5-7.2 c4.5-2.3,9.3-3.8,14.2-5.2c2.4-0.6,4.7-1.4,7.1-1.8c2.6-0.4,5.2-0.5,7.7-0.9c0.4-0.1-0.1-0.7-0.4-0.6c-2.4,0.2-4.9,0.3-7.3,0.5 c-2.7,0.3-5.3,1.1-7.9,1.7c-4.8,1.3-9.4,2.7-13.9,4.9c-4.3,2.1-8.3,4.6-12.1,7.5c-1.8,1.4-3.5,2.9-5.1,4.4s-3.8,3.2-4.9,5.1 C57.2,48.1,57.9,48.6,58.1,48.3z" class="st3"/><path d="M33.1,44.3c-2.6-2-5.2-3.9-7.7-6.1c-2.2-1.9-3.9-4.3-6.3-5.9c-4.5-3-9.6-0.2-12.7,3.5C6.2,36,6.8,36.5,7,36.4 c1.7-1.3,3.5-2.7,5.4-3.6c3.3-1.6,6.1-0.2,8.5,2.2c1.6,1.6,3.1,3.2,4.9,4.7c2.2,1.8,4.6,3.3,6.9,4.9 C33.2,44.9,33.5,44.6,33.1,44.3z" class="st3"/><path d="M12.7,57.8c-1.9-0.6-3.9-1.1-5.7-2.1c-2-1.1-3.2-2.8-4.3-4.8c-0.2-0.3-0.9-0.6-0.8,0 c1.2,4.8,6.5,6.9,10.9,7.5C13.3,58.5,12.9,57.9,12.7,57.8z" class="st3"/><path d="M107.8,161.1c5.4-0.1,10.8-0.6,16.2-1.6c10.5-2,20.1-7,28.7-13.1c0.3-0.2-0.2-0.7-0.5-0.5 c-8.6,5.2-17.7,10.1-27.6,12.3c-10.5,2.3-22,2.9-32.5,0.4c-0.6-0.1-0.3,0.5,0.1,0.6C97.1,161,102.5,161.2,107.8,161.1z" class="st3"/></g></g><circle cx="96" cy="46" r="40" class="st4"/><circle cx="96" cy="46" r="37.1" class="st5"/><path d="M96.1,60.9v14.7l18.1-25.4L96.1,60.9z" class="st6"/><path d="M96.1,38.2v19l18.1-10.7L96.1,38.2z" class="st7"/><path d="M96.1,16.4v21.8l18.1,8.2L96.1,16.4z" class="st6"/><path d="M96.1,60.9v14.7L77.9,50.2L96.1,60.9z" class="st8"/><path d="M96.1,38.2v19L77.9,46.4L96.1,38.2z" class="st9"/><path d="M96.1,16.4v21.8L78,46.4L96.1,16.4z" class="st8"/><circle cx="120" cy="120" r="54" class="st10"/><circle cx="120" cy="120" r="52.2" class="st11"/><g><g><g><path d="M87.7,142.6c0,0-1.3,4.4,8.9-1.9c10.3-6.3,36-11.1,48.3-9.6c12.3,1.6,3.6-27.5-5.5-32.1 C130.2,94.5,102.1,114.5,87.7,142.6z" class="st12"/></g><g class="st2"><path d="M88.5,141.7c0,0-2.2,5.4,8.1-0.9s36-11.1,48.3-9.6s3.6-27.5-5.5-32.1C130.2,94.6,102.9,113.6,88.5,141.7z" class="st13"/></g><g><path d="M89.5,144.3c-0.6,0-1-0.1-1.2-0.3c-1-0.8-0.4-2.4-0.4-2.4s0,0,0-0.1c6.6-12.9,15.2-22.4,21.1-28 c7.7-7.2,15.6-12.5,22.1-14.5c3.7-1.2,6.6-1.2,8.7-0.2c3.3,1.7,6.8,6.5,9.1,12.9c2.4,6.3,3.2,12.5,2,16.1 c-0.8,2.6-2.6,4.1-5.1,4.1c-0.3,0-0.7,0-1-0.1c-12.5-1.6-38,3.5-47.9,9.6C93.5,143.3,91.1,144.3,89.5,144.3z M88.6,141.8 c-0.1,0.2-0.2,1,0.1,1.3c0.3,0.2,1.8,0.8,7.7-2.8c4.8-3,13.5-5.8,23.6-7.8c9.8-1.9,19.1-2.6,25-1.8c2.6,0.3,4.3-0.8,5.1-3.3 c1.1-3.5,0.3-9.4-2-15.5c-2.4-6.1-5.6-10.8-8.7-12.4c-1.8-0.9-4.6-0.9-8,0.2c-6.3,2-14.2,7.2-21.6,14.3 C103.7,119.6,95.2,129,88.6,141.8z" class="st13"/></g><g><g><path d="M140,104.6c-1.5-0.3,0.1-0.9-1.8-2.8c-1.9-1.9-3.9-0.3-3.9-0.3c0.3-0.7,0.4-1.3,0-1.8 c-1.6-2.2-6-0.9-7.5-2.7c-1.6-1.8-5.3-0.1-5.3-0.1s-22.4,13.4-28.8,28.7s-6,20.1-3.2,19c2.8-1,4.8-3.5,6.9-1.6 c2,1.9-0.5,5.4,1.9,7.2c1.3,1,4.6-0.8,3-3.4c-1.6-2.6-3.6-7.4-0.1-10.1c3.5-2.7,11.4-4.1,10.9-0.3c-1.1,9.1,8.5,5.2,5.5,1.3 c-2.6-3.3-0.2-9,5.5-5.8c4.7,2.7,4.2-1,8.9-2.5c3.5-1.1,10-1.2,10-1.2c4.5-2.7,0.4-3.9,0.4-3.9s3.8-2.9,2.8-4.9 c-0.9-2-0.4-5.2-0.4-8.4C145.1,107.7,141.5,104.9,140,104.6z" class="st14"/></g><g class="st2"><path d="M140,104.6c-1.5-0.3,0.1-0.9-1.8-2.8c-1.9-1.9-3.9-0.3-3.9-0.3c0.3-0.7,0.4-1.3,0-1.8 c-1.6-2.2-6-0.9-7.5-2.7c-1.6-1.8-5.3-0.1-5.3-0.1s-0.6,0.3-1.5,0.9c7,1.8,21.5,7.8,18.8,28.7c0,0-27.9,2-35.7,6.8 c-5.5,3.5-11,9.9-15.4,10.7c0.3,0.8,0.9,1,1.7,0.7c2.8-1,4.8-3.5,6.9-1.6c2,1.9-0.5,5.4,1.9,7.2c1.3,1,4.6-0.8,3-3.4 c-1.6-2.6-3.6-7.4-0.1-10.1c3.5-2.7,11.4-4.1,10.9-0.3c-1.1,9.1,8.6,5.2,5.5,1.3c-2.6-3.3-0.2-9,5.5-5.8c4.7,2.7,4.2-1,8.9-2.5 c3.5-1.1,10-1.2,10-1.2c4.5-2.7,0.4-3.9,0.4-3.9s3.8-2.9,2.8-5c-0.9-2-0.4-5.2-0.4-8.4C145.1,107.7,141.5,104.9,140,104.6z" class="st13"/></g><g class="st15"><g><path d="M141.3,105.4c0.1,0,0.2,0.1,0.4,0.1c-0.4-0.3-0.8-0.6-1.1-0.7C140.6,105,140.7,105.3,141.3,105.4z" class="st5"/></g><g><path d="M143.7,125.1L143.7,125.1L143.7,125.1L143.7,125.1z" class="st5"/></g><g><path d="M135.5,102.2c0,0,1.2-0.9,2.7-0.4c-0.8-0.8-1.7-0.9-2.4-0.8C135.9,101.3,135.8,101.8,135.5,102.2z" class="st5"/></g><g><path d="M134.1,99.3c-1.5-1.3-4.1-1-5.8-1.6C129.4,99.1,132.2,98.6,134.1,99.3z" class="st5"/></g><g><path d="M121.6,96.8c0,0-10,6-18.5,14.5c-0.1,0.1-0.3,0.2-0.5,0.4c-0.1,0.1-0.2,0.2-0.2,0.3 c-3.9,4-7.5,8.7-9.6,13.5c-6,14.4-6,19.5-3.6,19.1c-0.8-1.8,0.2-7.4,4.8-18.5c1.7-4.2,4.6-8.2,7.9-11.8 c0.1,0.1,0.1,0.2,0.2,0.3c0.7,0.7,2.1,0.5,3-0.7c0.9-1.1,1.1-2.5,0.4-3.2c-0.1-0.1-0.1-0.1-0.2-0.1 c8.3-7.9,16.8-13.9,16.8-13.9s2.9-0.5,4.6,0C125.3,95.1,121.6,96.8,121.6,96.8z" class="st5"/></g></g><g><path d="M99.4,150.9c-0.5,0-0.9-0.1-1.2-0.3c-1.5-1-1.5-2.7-1.3-4.2c0.1-1.2,0.1-2.4-0.7-3c-1.1-1-2.2-0.6-4,0.6 c-0.7,0.4-1.5,0.8-2.4,1.1c-1,0.3-1.6,0.1-1.9-0.2c-2.1-2.1,1.2-11.7,4.5-19.3c3.4-8,11-15.5,16.9-20.4c6.3-5.2,12-8.6,12-8.7 l0,0c0.1-0.1,4.1-1.8,5.8,0.2c0.6,0.7,1.8,0.9,3.2,1c1.6,0.1,3.4,0.3,4.4,1.7c0.2,0.3,0.3,0.8,0.3,1.2c1-0.3,2.4-0.3,3.6,0.9 c1.1,1.1,1.1,1.9,1.2,2.4c0,0.1,0,0.1,0,0.2c0,0,0.1,0.1,0.3,0.1l0,0c1.7,0.3,5.3,3.4,5.3,6.9c0,0.7-0.1,1.5-0.1,2.1 c-0.1,2.4-0.2,4.6,0.4,6.1c0.9,1.8-1.2,4.1-2.4,5.1c0.6,0.3,1.2,0.8,1.2,1.6c0.1,1-0.7,1.9-2.4,2.9c-0.1,0-0.1,0.1-0.2,0.1 c-0.1,0-6.4,0-9.8,1.1c-1.7,0.6-2.6,1.3-3.5,2.1c-1.6,1.3-2.7,2.1-5.7,0.3c-2.1-1.1-3.9-1.1-4.9,0.1c-1.1,1.4-1,3.5,0.1,5.1 c0.9,1.1,0.9,2.4,0.1,3.5c-1,1.2-2.8,1.8-4.3,1.2c-1-0.4-2.7-1.7-2.1-5.9c0.1-0.6-0.1-1-0.6-1.2c-1.8-1-6.9,0.1-9.6,2 c-3.3,2.5-0.9,7.4,0.2,9.4c0.8,1.2,0.6,2.6-0.5,3.6C101,150.7,100.2,150.9,99.4,150.9z M94.9,141.8c0.7,0,1.3,0.2,1.9,0.8 c1.1,1,1,2.6,1,3.8c-0.1,1.3-0.1,2.6,0.9,3.3c0.6,0.3,1.5,0.2,2.1-0.4c0.5-0.3,0.9-1.1,0.2-2.4c-1.3-2.2-3.9-7.8,0-10.7 c2.7-2,8.2-3.5,10.6-2.1c0.8,0.4,1.2,1.2,1,2.2c-0.3,2.6,0.2,4.4,1.6,4.8c1,0.4,2.5,0,3.2-0.9c0.3-0.4,0.7-1.2-0.1-2.4 c-1.5-1.8-1.5-4.6-0.1-6.2c1.4-1.6,3.7-1.7,6.2-0.3c2.7,1.5,3.4,0.9,4.7-0.2c0.9-0.8,1.9-1.7,3.8-2.2c3.3-1.1,9-1.2,10-1.2 c1.6-1,1.8-1.6,1.8-1.9c-0.1-0.6-1-1-1.3-1.1c-0.1,0-0.3-0.2-0.3-0.3c0-0.2,0-0.3,0.2-0.5c0.9-0.7,3.4-3,2.7-4.4 c-0.8-1.7-0.7-4-0.6-6.5c0-0.7,0.1-1.3,0.1-2.1c0.1-2.9-3.2-5.5-4.5-5.8c-0.9-0.2-1-0.6-1-1.1c0-0.3,0-0.9-0.9-1.7 c-1.6-1.6-3.3-0.3-3.4-0.3c-0.2,0.1-0.4,0.1-0.6,0c-0.1-0.1-0.2-0.3-0.1-0.6c0.4-0.9,0.2-1.2,0.1-1.3c-0.8-1-2.1-1.2-3.7-1.3 c-1.5-0.1-2.9-0.3-3.8-1.3c-1.1-1.2-3.7-0.4-4.7,0c-0.4,0.2-5.8,3.5-11.9,8.6c-5.7,4.7-13.4,12-16.7,19.9 c-2.4,5.6-3.9,10.1-4.6,13.4c-0.8,3.7-0.3,4.7,0,4.9c0.1,0.1,0.3,0.3,0.9,0c0.8-0.3,1.5-0.7,2.1-1.1 C92.8,142.5,93.8,141.8,94.9,141.8z" class="st13"/></g></g><g><path d="M124.9,128c2.7-0.5,5.4-0.9,8.2-1.2c1.4-0.2,2.7-0.3,4.2-0.5c1.3-0.1,2.7-0.2,4.2-0.2 c0.2,0,0.4,0.2,0.4,0.5c0,0.2-0.2,0.4-0.4,0.4l0,0l0,0c-1.3,0-2.7,0-4.1,0c-1.4,0-2.7,0.1-4.1,0.2 C130.5,127.3,127.7,127.6,124.9,128z" class="st13"/></g></g><g class="st2"><g><path d="M133.7,99.1L133.7,99.1L133.7,99.1L133.7,99.1z" class="st13"/></g><g><path d="M144.3,108.5c-0.1,3.3-0.6,6.4,0.4,8.4c0,0.1,0.1,0.2,0.1,0.3c-0.2-1.8,0.1-4,0.1-6.3 C145,110.1,144.8,109.2,144.3,108.5C144.3,108.4,144.3,108.5,144.3,108.5z" class="st13"/></g><g><path d="M144.9,117.6c0,1.9-3,4.3-3,4.3s1.6,0.5,1.7,1.6c1-1,2.4-2.7,1.8-4C145.1,118.9,145,118.3,144.9,117.6z" class="st13"/></g></g><g><g><ellipse cx="124.7" cy="106.4" class="st16" rx="6.9" ry="5.5" transform="matrix(0.8397 -0.543 0.543 0.8397 -37.7876 84.7762)"/></g><g class="st15"><path d="M125.6,111.8c-3.4,0.9-6.3-0.8-6.6-3.8c-0.2-2.9,2.2-6.1,5.6-7c2.5-0.7,4.7,0.1,5.9,1.7 c-1.1-1.9-3.6-2.8-6.4-2.1c-3.6,0.9-6.3,4.3-6,7.4c0.3,3.2,3.5,4.9,7,4c0.9-0.2,1.8-0.7,2.6-1.2 C127.1,111.3,126.4,111.6,125.6,111.8z" class="st5"/></g><g><path d="M125.2,102l0.8,8.3c2.1-1,3.7-3.2,3.5-5.2C129.2,103,127.4,101.8,125.2,102z" class="st17"/></g><g><path d="M123.2,102.4c-2.1,1-3.6,3.2-3.4,5.2s2,3.3,4.2,3.2L123.2,102.4z" class="st17"/></g><g><path d="M123.2,102.4c-2.1,1-3.6,3.2-3.4,5.2s2,3.3,4.2,3.2L123.2,102.4z" class="st17"/></g><g><path d="M123.5,105.3c-0.7,0.3-1.2,1-1.1,1.7s0.7,1.1,1.3,1L123.5,105.3z" class="st16"/></g><g><path d="M125.4,104.8c0.7,0,1.3,0.3,1.3,1c0.1,0.7-0.4,1.3-1.1,1.7L125.4,104.8z" class="st16"/></g><g><path d="M123.3,112.7c-1.3,0-2.5-0.3-3.5-1c-1.2-0.8-1.9-2.1-2-3.6c-0.3-3.4,2.5-6.9,6.3-7.8c2-0.6,4.1-0.2,5.5,0.8 c1.2,0.8,1.9,2.1,2,3.6c0.3,3.4-2.5,6.9-6.3,7.8C124.6,112.7,123.9,112.7,123.3,112.7z M126,100.9c-0.6,0-1.1,0.1-1.8,0.2 c-3.4,0.9-6,4.1-5.6,7c0.1,1.2,0.7,2.4,1.7,3c1.2,0.9,3,1.1,4.8,0.7c3.4-0.9,6-4,5.6-7c-0.1-1.2-0.7-2.4-1.7-3 C128.1,101.1,127.1,100.9,126,100.9z" class="st13"/></g><g><g><path d="M122.5,109c0,0.1,0.1,0.2,0.1,0.3c0,0.1,0,0.2,0,0.3c0,0.1-0.1,0.2-0.3,0.2c-0.1,0-0.2-0.1-0.2-0.3 c0,0,0,0,0-0.1s0.1-0.2,0.2-0.3C122.2,109.2,122.4,109.1,122.5,109z" class="st18"/></g><g><path d="M121.6,108.2c0,0.1,0,0.2-0.1,0.3c0,0.1-0.1,0.2-0.1,0.3c-0.1,0.1-0.2,0.1-0.4,0.1 c-0.1-0.1-0.1-0.2-0.1-0.4c0,0,0,0,0-0.1c0.1-0.1,0.2-0.1,0.3-0.1C121.2,108.2,121.3,108.2,121.6,108.2z" class="st18"/></g><g><path d="M121.2,106.8c-0.1,0.1-0.1,0.2-0.2,0.2c-0.1,0.1-0.1,0.1-0.2,0.2s-0.3,0-0.3-0.1c-0.1-0.1,0-0.3,0.1-0.3 h0.1c0.1,0,0.2,0,0.3,0C121,106.7,121.1,106.7,121.2,106.8z" class="st18"/></g><g><path d="M121.8,105.4c-0.1,0-0.2,0-0.3,0.1c-0.1,0-0.2,0-0.3,0s-0.2-0.2-0.2-0.3s0.2-0.2,0.3-0.2h0.1 c0.1,0,0.1,0.1,0.2,0.2S121.7,105.4,121.8,105.4z" class="st18"/></g><g><path d="M122.9,104.5c-0.1,0-0.2-0.1-0.3-0.1c-0.1-0.1-0.2-0.1-0.2-0.2c-0.1-0.1-0.1-0.3,0.1-0.4 c0.1-0.1,0.3-0.1,0.4,0.1c0,0,0,0,0,0.1s0,0.2,0,0.3C122.9,104.2,122.9,104.3,122.9,104.5z" class="st18"/></g></g><g><g><path d="M127.1,107.7c0.1,0.1,0.2,0.1,0.3,0.2c0.1,0.1,0.1,0.1,0.2,0.2s0,0.3-0.1,0.4s-0.3,0-0.4-0.1 c0,0,0,0,0-0.1s0-0.2,0-0.3C127.1,107.9,127.1,107.8,127.1,107.7z" class="st18"/></g><g><path d="M127.9,106.5c0.1,0,0.2,0,0.3,0c0.1,0,0.2,0,0.3,0s0.2,0.2,0.2,0.3c0,0.1-0.2,0.2-0.3,0.2h-0.1 c-0.1-0.1-0.1-0.1-0.2-0.2C128,106.7,127.9,106.6,127.9,106.5z" class="st18"/></g><g><path d="M127.9,105c0.1-0.1,0.1-0.1,0.2-0.2s0.1-0.1,0.2-0.1c0.1-0.1,0.3,0,0.3,0.1s0,0.3-0.1,0.3h-0.1 c-0.1,0-0.2,0-0.3,0C128.1,105.1,128,105.1,127.9,105z" class="st18"/></g><g><path d="M127.1,104c0-0.1,0.1-0.2,0.1-0.3s0.1-0.2,0.1-0.3c0.1-0.1,0.2-0.1,0.4-0.1c0.1,0.1,0.1,0.2,0.1,0.5 c0,0,0,0-0.1,0.1s-0.2,0.1-0.3,0.1C127.3,103.9,127.2,103.9,127.1,104z" class="st18"/></g><g><path d="M125.8,103.7c0-0.1-0.1-0.2-0.1-0.3c0-0.1,0-0.2,0-0.3c0-0.1,0.1-0.2,0.3-0.2c0.2,0,0.2,0.1,0.2,0.3 c0,0,0,0,0,0.1s-0.1,0.2-0.2,0.3C126.1,103.4,126,103.6,125.8,103.7z" class="st18"/></g></g><g><path d="M126,110.6c-0.1,0-0.1,0-0.2-0.1s-0.2-0.2-0.2-0.3l-0.8-8.3c0-0.1,0-0.2,0.1-0.3c0.1-0.1,0.1-0.1,0.2-0.1 c2.5-0.2,4.5,1.2,4.7,3.5c0.2,2.1-1.3,4.5-3.7,5.6C126.1,110.6,126,110.6,126,110.6z M125.6,102.3l0.7,7.3c1.8-1,2.9-2.8,2.8-4.5 C128.9,103.4,127.4,102.3,125.6,102.3L125.6,102.3z" class="st17"/></g><g><path d="M123.6,111.2c-2.2,0-4.1-1.5-4.3-3.5c-0.2-2.1,1.2-4.5,3.6-5.5c0.1,0,0.2,0,0.3,0c0.1,0.1,0.2,0.2,0.2,0.3 l0.8,8.3c0,0.1,0,0.2-0.1,0.3c-0.1,0.1-0.1,0.1-0.2,0.1C123.8,111.2,123.7,111.2,123.6,111.2z M122.8,103.1 c-1.7,1-2.8,2.8-2.7,4.5c0.1,1.7,1.5,2.8,3.4,2.8L122.8,103.1z" class="st17"/></g></g><g><g><ellipse cx="110.2" cy="121.2" class="st16" rx="6.4" ry="5.2" transform="matrix(0.8397 -0.543 0.543 0.8397 -48.1558 79.2658)"/></g><g class="st15"><path d="M111.2,126.3c-3.2,0.8-6-0.8-6.2-3.6s2.1-5.7,5.3-6.5c2.4-0.6,4.4,0.1,5.5,1.6c-1-1.8-3.4-2.6-6-1.9 c-3.4,0.9-5.8,3.9-5.6,6.9c0.2,2.9,3.3,4.6,6.5,3.7c0.9-0.2,1.7-0.6,2.5-1.1C112.6,125.8,111.9,126.2,111.2,126.3z" class="st5"/></g><g><path d="M110.8,117.1l0.7,7.8c2-0.9,3.5-2.9,3.3-4.8C114.6,118.1,112.9,116.9,110.8,117.1z" class="st17"/></g><g><path d="M108.9,117.6c-2,0.9-3.4,2.9-3.2,4.8c0.2,1.9,1.8,3.2,3.9,2.9L108.9,117.6z" class="st17"/></g><g><path d="M108.9,117.6c-2,0.9-3.4,2.9-3.2,4.8c0.2,1.9,1.8,3.2,3.9,2.9L108.9,117.6z" class="st17"/></g><g><path d="M109.2,120.2c-0.7,0.3-1.1,0.9-1,1.6s0.6,1,1.2,1L109.2,120.2z" class="st16"/></g><g><path d="M111,119.8c0.7,0,1.2,0.3,1.2,1c0.1,0.7-0.4,1.2-1,1.6L111,119.8z" class="st16"/></g><g><path d="M109,127.2c-1.2,0-2.4-0.3-3.3-1c-1.1-0.8-1.8-2-1.9-3.4c-0.3-3.2,2.4-6.4,5.8-7.3c1.9-0.5,3.8-0.2,5.2,0.8 c1.1,0.8,1.8,2,1.9,3.4l0,0c0.3,3.2-2.4,6.4-5.8,7.3C110.2,127.1,109.5,127.2,109,127.2z M111.5,116.1c-0.6,0-1.1,0.1-1.7,0.2 c-3.2,0.8-5.5,3.7-5.3,6.5c0.1,1.1,0.7,2.1,1.6,2.8c1.1,0.8,2.8,1,4.5,0.6c3.2-0.8,5.5-3.7,5.3-6.5l0,0c-0.1-1.1-0.7-2.1-1.6-2.8 C113.5,116.4,112.6,116.1,111.5,116.1z" class="st13"/></g><g><g><path d="M108.8,123.8c0.1,0.1,0.1,0.2,0.1,0.2c0,0.1,0.1,0.2,0.1,0.3s-0.1,0.2-0.2,0.2s-0.2-0.1-0.2-0.2 c0,0,0,0,0-0.1S108.6,124,108.8,123.8C108.8,123.9,108.8,123.9,108.8,123.8z" class="st18"/></g><g><path d="M107.7,123.4c0,0.1,0,0.2,0,0.3c0,0.1,0,0.2-0.1,0.3c0,0.1-0.2,0.2-0.3,0.1c-0.1-0.1-0.2-0.2-0.1-0.3l0,0 c0.1-0.1,0.1-0.1,0.2-0.2C107.5,123.5,107.6,123.4,107.7,123.4z" class="st18"/></g><g><path d="M107.2,122.2c0,0.1-0.1,0.2-0.1,0.3c-0.1,0.1-0.1,0.2-0.2,0.2c-0.1,0.1-0.2,0.1-0.3,0 c-0.1-0.1-0.1-0.2,0-0.3l0,0c0.1,0,0.2-0.1,0.3-0.1S107.1,122.2,107.2,122.2z" class="st18"/></g><g><path d="M107.3,121c-0.1,0.1-0.2,0.1-0.2,0.1c-0.1,0-0.2,0.1-0.2,0.1c-0.1,0-0.2-0.1-0.2-0.2s0.1-0.2,0.2-0.2 c0,0,0,0,0.1,0S107.2,120.8,107.3,121C107.1,120.9,107.2,120.9,107.3,121z" class="st18"/></g><g><path d="M108.1,119.9c-0.1,0-0.2,0-0.3-0.1c-0.1,0-0.2-0.1-0.2-0.1c-0.1-0.1-0.1-0.2-0.1-0.3 c0.1-0.1,0.2-0.1,0.3-0.1l0,0c0.1,0.1,0.1,0.1,0.1,0.2C108,119.6,108.1,119.8,108.1,119.9z" class="st18"/></g></g><g><g><path d="M112.6,122.5c0.1,0.1,0.1,0.1,0.2,0.2s0.1,0.1,0.2,0.2s0,0.2-0.1,0.3c-0.1,0.1-0.2,0-0.3-0.1 c0,0,0,0,0-0.1s0-0.2,0-0.3C112.6,122.7,112.6,122.6,112.6,122.5z" class="st18"/></g><g><path d="M113.2,121.3c0.1,0,0.2,0,0.3,0s0.2,0,0.2,0c0.1,0,0.2,0.2,0.1,0.3c0,0.1-0.2,0.2-0.3,0.1c0,0,0,0-0.1,0 s-0.1-0.1-0.2-0.2C113.4,121.4,113.4,121.4,113.2,121.3z" class="st18"/></g><g><path d="M113.2,120c0.1-0.1,0.1-0.1,0.2-0.2s0.1-0.1,0.2-0.1s0.2,0,0.3,0.1c0,0.1,0,0.2-0.1,0.3c0,0,0,0-0.1,0 s-0.2,0-0.3,0C113.5,120.1,113.4,120,113.2,120z" class="st18"/></g><g><path d="M112.6,119c0-0.1,0.1-0.2,0.1-0.3s0.1-0.2,0.1-0.2c0.1-0.1,0.2-0.1,0.3,0c0.1,0.1,0.1,0.2,0,0.3l0,0 c-0.1,0.1-0.1,0.1-0.2,0.1C112.8,119,112.7,119,112.6,119z" class="st18"/></g><g><path d="M111.5,118.6c0-0.1,0-0.2-0.1-0.3c0-0.1,0-0.2,0-0.3c0-0.1,0.1-0.2,0.2-0.2s0.2,0.1,0.2,0.2l0,0 c0,0.1-0.1,0.2-0.1,0.2C111.6,118.5,111.6,118.6,111.5,118.6z" class="st18"/></g></g><g><path d="M111.5,125.3c-0.1,0-0.1,0-0.2-0.1s-0.2-0.2-0.2-0.3l-0.7-7.8c0-0.1,0-0.2,0.1-0.3c0.1-0.1,0.2-0.1,0.3-0.1 c2.4-0.2,4.3,1.2,4.5,3.4c0.2,2-1.2,4.3-3.5,5.3C111.6,125.3,111.6,125.3,111.5,125.3z M111.2,117.5l0.7,6.8 c1.6-0.9,2.7-2.6,2.5-4.2C114.2,118.5,112.9,117.5,111.2,117.5z" class="st17"/></g><g><path d="M109.3,125.8c-2.1,0-3.8-1.3-4-3.4c-0.2-2,1.2-4.2,3.5-5.2c0.1-0.1,0.2,0,0.3,0c0.1,0.1,0.2,0.2,0.2,0.3 l0.7,7.8c0,0.1,0,0.2-0.1,0.3c-0.1,0.1-0.2,0.1-0.3,0.1C109.5,125.8,109.4,125.8,109.3,125.8z M108.5,118.3 c-1.6,0.9-2.6,2.6-2.5,4.2s1.3,2.6,3,2.6L108.5,118.3z" class="st17"/></g></g><g><g><g><path d="M101.8,120.4c-4.4,0.2-4.5,2.4-3,5.8C101.3,125.2,103,123.1,101.8,120.4z" class="st19"/></g><g><path d="M98.5,127C98.4,127,98.4,127,98.5,127c-0.2,0-0.3-0.1-0.3-0.2c-0.7-1.9-1.1-3.9-0.2-5.3 c0.7-0.9,1.9-1.3,3.8-1.5c0.1,0,0.3,0.1,0.3,0.2c0.6,1.1,0.7,2.1,0.3,3.3c-0.5,1.3-1.8,2.7-3.7,3.5C98.6,127,98.6,127,98.5,127z M101.4,120.8c-1.5,0.1-2.4,0.5-2.8,1.1c-0.7,0.9-0.3,2.6,0.2,4.1c1.5-0.8,2.5-1.8,2.8-2.8C101.9,122.5,101.8,121.7,101.4,120.8 z" class="st20"/></g><g><path d="M101.9,120.8c-0.3,0.1-0.6,0.3-0.8,0.6c-0.2,0.2-0.6,0.5-0.8,0.8c-0.5,0.6-0.8,1.2-1.1,1.9 c0-0.5,0.1-0.8,0.1-1.1c0.1-0.3,0.2-0.8,0.5-1.1c0.2-0.3,0.5-0.7,0.7-1c0.3-0.3,0.7-0.6,1.1-0.7c0.2-0.1,0.5,0.1,0.5,0.3 C102.1,120.6,102,120.7,101.9,120.8L101.9,120.8z" class="st21"/></g></g><g><g><path d="M109.7,108.4c3.8-2,5.1-0.1,5.6,3.5C112.5,112.3,110,111.6,109.7,108.4z" class="st19"/></g><g><path d="M114.6,112.7c-1.7,0-3-0.5-3.9-1.2c-0.8-0.7-1.3-1.7-1.3-2.9c0-0.1,0.1-0.3,0.2-0.3c1.7-0.9,2.9-1.1,4-0.7 c1.5,0.7,2,2.7,2.5,4.7c0,0.1,0,0.2-0.1,0.3c-0.1,0.1-0.2,0.1-0.3,0.1C115.3,112.7,114.9,112.7,114.6,112.7z M110.1,108.6 c0.1,0.9,0.4,1.6,1,2.1c0.9,0.7,2.2,1.1,3.8,1c-0.3-1.6-0.9-3.2-1.9-3.6C112.3,107.8,111.5,107.9,110.1,108.6z" class="st20"/></g><g><path d="M109.5,108.1c0.4-0.1,0.9-0.1,1.3,0s0.8,0.3,1.1,0.5c0.3,0.1,0.7,0.4,0.9,0.8c0.2,0.3,0.6,0.6,0.7,0.9 c-0.7-0.5-1.2-0.8-1.9-1.1c-0.3-0.1-0.7-0.2-1-0.2s-0.7-0.1-1,0l0,0c-0.2,0-0.4-0.1-0.4-0.3 C109.3,108.3,109.4,108.1,109.5,108.1z" class="st21"/></g></g><g><g><path d="M126.9,122.2c-3-2.8-4.5-1.3-5.8,1.8C123.5,125.1,126,124.9,126.9,122.2z" class="st19"/></g><g><path d="M123.3,125.1c-0.8,0-1.8-0.2-2.7-0.6c-0.1,0-0.2-0.1-0.2-0.2s0-0.2,0-0.3c0.9-1.7,1.8-3.4,3.4-3.6 c1-0.2,2.1,0.3,3.5,1.6c0.1,0.1,0.1,0.2,0.1,0.5c-0.3,1.1-1,1.9-1.9,2.4C124.7,124.9,124.1,125.1,123.3,125.1z M121.2,123.9 c1.5,0.4,2.8,0.4,3.7,0c0.7-0.3,1.1-0.9,1.5-1.7c-1-0.9-1.8-1.3-2.6-1.2C122.8,121.3,121.9,122.6,121.2,123.9z" class="st20"/></g><g><path d="M126.8,122.6c-0.2-0.1-0.6-0.2-0.9-0.2s-0.7,0-1,0c-0.7,0.1-1.3,0.2-2,0.5c0.2-0.2,0.6-0.5,0.9-0.7 s0.7-0.3,1-0.4s0.8-0.2,1.1-0.2c0.4,0,0.8,0.1,1.2,0.3c0.2,0.1,0.2,0.3,0.1,0.6C127.1,122.6,127,122.6,126.8,122.6L126.8,122.6z" class="st21"/></g></g><g><g><path d="M92.7,129.2c0.2,0,0.4,0,0.7,0.1c0.2,0,0.5,0.1,0.7,0.1s0.4,0.1,0.7,0.1c0.2,0.1,0.5,0.1,0.8,0.3l0,0 c0.2,0.1,0.3,0.6,0.2,0.8c-0.1,0.2-0.6,0.3-0.8,0.2c0,0-0.1,0-0.1-0.1c-0.1-0.1-0.2-0.2-0.4-0.2c-0.2-0.1-0.3-0.1-0.6-0.2 c-0.2-0.1-0.5-0.1-0.6-0.2c-0.1-0.1-0.5-0.1-0.7-0.1l0,0c-0.2,0-0.3-0.2-0.3-0.4C92.3,129.3,92.4,129.2,92.7,129.2z" class="st19"/></g><g class="st2"><path d="M92.7,129.2c0.2,0,0.4,0,0.7,0.1c0.2,0,0.5,0.1,0.7,0.1s0.4,0.1,0.7,0.1c0.2,0.1,0.5,0.1,0.8,0.3l0,0 c0.2,0.1,0.3,0.6,0.2,0.8c-0.1,0.2-0.6,0.3-0.8,0.2c0,0-0.1,0-0.1-0.1c-0.1-0.1-0.2-0.2-0.4-0.2c-0.2-0.1-0.3-0.1-0.6-0.2 c-0.2-0.1-0.5-0.1-0.6-0.2c-0.1-0.1-0.5-0.1-0.7-0.1l0,0c-0.2,0-0.3-0.2-0.3-0.4C92.3,129.3,92.4,129.2,92.7,129.2z" class="st13"/></g><g><path d="M95.2,131.3c-0.1,0-0.3,0-0.5-0.1l-0.1-0.1c0,0-0.1-0.1-0.3-0.2c-0.1-0.1-0.3-0.1-0.6-0.2 c-0.2-0.1-0.3-0.1-0.6-0.2c-0.2-0.1-0.5-0.1-0.6-0.1c-0.2,0-0.3-0.1-0.5-0.3c-0.1-0.1-0.1-0.3-0.1-0.6c0.1-0.3,0.3-0.6,0.7-0.6 l0,0c0.2,0,0.5,0,0.7,0.1c0.2,0,0.4,0.1,0.7,0.1s0.6,0.1,0.8,0.1c0.3,0.1,0.6,0.1,0.8,0.3l0,0c0.5,0.2,0.6,0.8,0.3,1.2 C95.8,131.1,95.5,131.3,95.2,131.3z M92.7,129.5C92.7,129.5,92.5,129.5,92.7,129.5C92.5,129.7,92.5,129.7,92.7,129.5 C92.5,129.7,92.5,129.7,92.7,129.5c0.2,0.1,0.4,0.2,0.7,0.2c0.2,0.1,0.5,0.1,0.7,0.2c0.2,0.1,0.4,0.1,0.6,0.2 c0.2,0.1,0.4,0.2,0.6,0.3l0,0c0.1,0.1,0.2,0,0.3-0.1c0.1-0.1,0-0.2-0.1-0.3l0,0c-0.2-0.1-0.4-0.2-0.7-0.2 c-0.2-0.1-0.5-0.1-0.7-0.1s-0.5-0.1-0.7-0.1C93.1,129.7,92.9,129.5,92.7,129.5L92.7,129.5z" class="st20"/></g><g><g><path d="M93.2,129.7c-1.3-4.8-7-0.9-7-0.9S90.6,134,93.2,129.7z" class="st19"/></g><g class="st15"><path d="M93.1,129.8L93.1,129.8c-1.3-4.9-6.9-0.9-6.9-0.9s0.1,0.2,0.5,0.4C87.7,128.5,91.8,126.3,93.1,129.8z" class="st5"/></g><g><path d="M90.5,131.8c-2.5,0-4.8-2.6-4.9-2.7c-0.1-0.1-0.1-0.1-0.1-0.2s0.1-0.2,0.1-0.2c0.1-0.1,3.5-2.3,5.8-1.3 c1,0.3,1.7,1.2,2,2.5c0,0.1,0,0.2,0,0.2c-0.7,1.1-1.6,1.8-2.6,1.9C90.8,131.8,90.6,131.8,90.5,131.8z M86.4,128.9 c0.7,0.7,2.7,2.4,4.5,2.2c0.8-0.1,1.5-0.6,2-1.5c-0.3-1-0.8-1.6-1.6-1.9C89.6,127.2,87.3,128.3,86.4,128.9z" class="st20"/></g><g><g><line x1="93.2" x2="89.4" y1="129.7" y2="129.2" class="st22"/></g><g><path d="M93.1,130c-0.3,0-0.7-0.1-0.9-0.1s-0.7-0.1-0.9-0.2c-0.7-0.1-1.2-0.3-1.8-0.6c0.7,0,1.2,0,1.9,0 c0.3,0,0.7,0,0.9,0c0.3,0,0.7,0.1,0.9,0.1c0.2,0,0.3,0.2,0.2,0.4C93.5,129.9,93.3,130,93.1,130z" class="st21"/></g></g></g><g><path d="M90.4,131.8c0.4-0.3,0.9-0.8,1.2-1.1c0.3-0.3,0.9-0.7,1.3-1.1c0.1-0.1,0.3-0.1,0.5,0.1 c0.1,0.1,0.1,0.3-0.1,0.4l0,0l0,0c-0.4,0.2-1,0.6-1.5,0.8C91.4,131.1,90.9,131.5,90.4,131.8z" class="st20"/></g><g><g><path d="M93.2,129.8c0,0-2.8,0.2-3.5,5.1C89.7,134.8,95.5,133,93.2,129.8z" class="st19"/></g><g class="st15"><path d="M90.5,134.4c0.6-4.1,2.8-4.3,2.9-4.3c-0.1-0.1-0.1-0.2-0.2-0.3c0,0-2.8,0.2-3.5,5.1c0,0,1.2-0.4,2.4-1.1 C91.3,134.2,90.5,134.4,90.5,134.4z" class="st5"/></g><g><path d="M89.7,135.2c-0.1,0-0.1,0-0.2-0.1s-0.1-0.2-0.1-0.3c0.7-5.2,3.7-5.4,3.8-5.4c0.1,0,0.2,0,0.3,0.1 c0.6,0.8,0.8,1.7,0.5,2.5C93.2,134,90,135.2,89.7,135.2L89.7,135.2z M93,130.1c-0.6,0.1-2.4,0.8-2.9,4.3 c0.9-0.3,2.8-1.2,3.3-2.6C93.5,131.2,93.5,130.7,93,130.1z" class="st20"/></g><g><path d="M91.5,131.9c0.2-0.4,0.4-0.8,0.7-1.2c0.2-0.4,0.5-0.8,0.7-1.1c0.1-0.1,0.3-0.2,0.4-0.1 c0.1,0.1,0.2,0.3,0.1,0.4c0,0,0,0-0.1,0.1c-0.3,0.3-0.7,0.6-0.9,0.9C92.2,131.2,91.9,131.6,91.5,131.9z" class="st20"/></g></g><g><g><path d="M93.1,129.8c0,0-2.7-1-1.8-6C91.4,123.8,96.4,127.4,93.1,129.8z" class="st19"/></g><g class="st15"><path d="M92.2,124.5c-0.4-0.5-0.8-0.7-0.8-0.7c-0.9,5,1.8,6,1.8,6l0.1-0.1C92.8,129.2,91.4,127.9,92.2,124.5z" class="st5"/></g><g><path d="M93.1,130.1L93.1,130.1c-0.2,0-3-1.2-2-6.3c0-0.1,0.1-0.2,0.2-0.2s0.2,0,0.3,0c0.1,0.1,2.9,2.1,2.9,4.3 c0,0.8-0.5,1.6-1.2,2.1C93.3,130.1,93.2,130.1,93.1,130.1z M91.7,124.4c-0.4,3.5,1,4.6,1.5,4.9c0.6-0.4,0.8-0.9,0.8-1.5 C93.9,126.5,92.4,125.1,91.7,124.4z" class="st20"/></g><g><path d="M92.3,127.2c0.2,0.5,0.3,0.8,0.6,1.2c0.2,0.5,0.4,0.8,0.6,1.2c0.1,0.1,0,0.3-0.1,0.4 c-0.1,0.1-0.3,0-0.4-0.1c0,0,0,0,0-0.1c-0.1-0.4-0.2-0.9-0.3-1.3C92.4,128.1,92.3,127.6,92.3,127.2z" class="st20"/></g></g></g></g><g><path d="M88.2,143.2L88.2,143.2c0.1,0,0.1,0.1,0.1,0.1c0.1,0,0.2,0,0.3,0c0.2,0,0.6-0.1,0.8-0.2 c0.6-0.2,1.1-0.6,1.6-0.9c1-0.7,2.1-1.3,3.2-2.1c1-0.8,2-1.6,2.9-2.4c0.2-0.2,0.5-0.4,0.7-0.7c0.2-0.2,0.4-0.4,0.7-0.7 c0.1-0.1,0.2-0.2,0.3-0.3l0.3-0.3l0.2-0.1l0.2-0.1l0.3-0.3c2.1-1.5,4.4-2.6,6.9-3.5c1.2-0.4,2.5-0.8,3.7-1.1s2.5-0.6,3.7-0.8 c-2.5,0.4-4.9,1.2-7.3,2.1c-1.2,0.4-2.4,1-3.5,1.6s-2.2,1.2-3.3,2l-0.3,0.3v0.1l-0.2,0.1l-0.3,0.3c-0.1,0.1-0.2,0.2-0.3,0.3 c-0.2,0.2-0.5,0.4-0.7,0.7c-0.2,0.2-0.4,0.4-0.7,0.7c-0.9,0.9-1.9,1.7-2.9,2.5s-2,1.6-3.2,2.2c-0.6,0.3-1.1,0.7-1.7,1 c-0.3,0.1-0.7,0.2-1,0.3c-0.2,0-0.5,0-0.7,0c-0.1,0-0.2-0.1-0.3-0.1c-0.1-0.1-0.2-0.2-0.3-0.3c-0.1-0.2,0-0.4,0.1-0.6 C87.7,142.8,88,142.9,88.2,143.2L88.2,143.2z" class="st13"/></g><g><g class="st2"><ellipse cx="136.2" cy="123.6" class="st13" rx=".7" ry=".4" transform="matrix(0.968 -0.2508 0.2508 0.968 -26.6465 38.1092)"/></g><g class="st2"><ellipse cx="133.2" cy="121.8" class="st13" rx="1.1" ry=".8" transform="matrix(0.968 -0.2508 0.2508 0.968 -26.2896 37.2987)"/></g><g class="st2"><ellipse cx="126.3" cy="117.2" class="st13" rx=".8" ry=".7" transform="matrix(0.9355 -0.3532 0.3532 0.9355 -33.2534 52.1602)"/></g><g class="st2"><ellipse cx="134.2" cy="109.2" class="st13" rx=".6" ry=".4" transform="matrix(0.9355 -0.3532 0.3532 0.9355 -29.9182 54.4354)"/></g><g class="st2"><ellipse cx="135.3" cy="115.1" class="st13" rx=".7" ry=".6" transform="matrix(0.9355 -0.3532 0.3532 0.9355 -31.9308 55.2047)"/></g><g class="st2"><path d="M129,113.2c0.1,0.2-0.1,0.4-0.3,0.6c-0.2,0.1-0.6,0-0.7-0.2c-0.1-0.2,0.1-0.5,0.3-0.6 C128.7,112.9,128.9,113,129,113.2z" class="st13"/></g><g class="st2"><ellipse cx="119.2" cy="120.9" class="st13" rx=".6" ry=".4" transform="matrix(0.8111 -0.5849 0.5849 0.8111 -48.2111 92.5574)"/></g><g class="st2"><ellipse cx="120.7" cy="115.1" class="st13" rx=".6" ry=".4" transform="matrix(0.8111 -0.5849 0.5849 0.8111 -44.511 92.3402)"/></g><g class="st2"><ellipse cx="102.4" cy="130.3" class="st13" rx=".8" ry=".7" transform="matrix(0.8111 -0.5849 0.5849 0.8111 -56.8688 84.5192)"/></g><g class="st2"><ellipse cx="102.9" cy="126" class="st13" rx=".7" ry=".6" transform="matrix(0.8111 -0.5849 0.5849 0.8111 -54.248 83.9871)"/></g><g class="st2"><ellipse cx="96.4" cy="134.2" class="st13" rx=".4" ry=".3" transform="matrix(0.8111 -0.5849 0.5849 0.8111 -60.2864 81.7217)"/></g><g class="st2"><ellipse cx="102.9" cy="118.4" class="st13" rx=".7" ry=".6" transform="matrix(0.8111 -0.5849 0.5849 0.8111 -49.8249 82.5564)"/></g><g class="st2"><ellipse cx="108.8" cy="114.1" class="st13" rx=".9" ry=".7" transform="matrix(0.8111 -0.5849 0.5849 0.8111 -46.1815 85.1822)"/></g></g><g><g><g><g><path d="M141.9,124.8c-0.8,4.7,10,5.5,10,5.5s6.9-16.1-4.2-29.8c-11-13.7-26.2-11.7-27.8-8.4 c-1.7,3.3,1.6,4.7,1.6,4.7S146.4,99.1,141.9,124.8z" class="st23"/></g><g class="st15"><path d="M147.8,100.5c-11.1-13.7-26.2-11.7-27.8-8.4c-1.5,2.9,1,4.4,1.5,4.6c-0.7-0.7-1.2-1.9-0.3-3.5 c0.3-0.7,1.5-1.3,2.9-1.8c-0.3,0.2-0.6,0.5-0.4,0.7c0.1,0.5,1.1,0.7,2.2,0.5c1.2-0.2,2-0.8,2-1.2c0-0.2-0.2-0.3-0.4-0.5 c5.4-0.1,13.2,2.1,19.6,10c10.3,12.7,3.9,27.7,3.9,27.7s-7.2-0.5-8.9-3.3c0.2,4.2,10,4.8,10,4.8S158.8,114.3,147.8,100.5z" class="st5"/></g><g class="st2"><path d="M151.9,130.3c0,0,0.9-2.1,1.6-5.6c-1.1-1.1-2.8-2-4.6-2.7c-1.6-0.7-2.6-2.2-2.5-3.9 c0.3-4.4,0.3-10-3.5-14.7c-8.7-10.7-20.4-9.2-21.9-6.8c0.3,0.2,0.6,0.3,0.6,0.3s24.9,2.1,20.4,27.9 C141.2,129.5,151.9,130.3,151.9,130.3z" class="st13"/></g><g><path d="M151.9,130.8L151.9,130.8c-0.3,0-7.5-0.6-9.8-3.5c-0.6-0.8-0.8-1.7-0.7-2.6c1.4-7.7,0.2-13.9-3.5-18.7 c-5.8-7.7-16.4-8.7-16.5-8.7h-0.1c-0.1,0-1.6-0.8-2.1-2.4c-0.3-0.9-0.2-2,0.3-3c0.7-1.2,2.8-2.2,5.7-2.6 c6.3-0.7,15.6,1.8,22.8,10.9c5.8,7.2,6.6,15.1,6.4,20.4c-0.3,5.7-2,9.8-2.1,9.9C152.3,130.7,152.2,130.8,151.9,130.8z M141.9,124.8l0.4,0.1c-0.1,0.7,0,1.2,0.4,1.8c1.8,2.2,7.3,2.9,8.8,3.1c0.4-1,1.6-4.6,1.9-9.3c0.3-5.2-0.6-12.7-6.2-19.7 c-7.1-8.8-16-11.1-22.1-10.6c-2.8,0.3-4.6,1.2-4.9,2c-0.4,0.8-0.6,1.6-0.3,2.4c0.3,1,1.3,1.6,1.6,1.7c0.6,0,3,0.3,6.2,1.5 c3.3,1.1,7.8,3.4,10.9,7.5c3.8,4.9,5.1,11.5,3.6,19.5H141.9z" class="st13"/></g></g><g><path d="M151.9,130.3c0,0-2.1,2.4-6.3,1.1c-4.2-1.3-5.2-4.2-3.7-6.6C143.4,122.3,155,125.4,151.9,130.3z" class="st12"/></g><g class="st2"><path d="M151.9,130.3c0,0-2.1,2.4-6.3,1.1c-4.2-1.3-5.2-4.2-3.7-6.6C143.4,122.3,155,125.4,151.9,130.3z" class="st13"/></g><g><path d="M148.1,132.3c-0.8,0-1.6-0.1-2.6-0.4c-2.9-0.9-4.1-2.4-4.4-3.5c-0.4-1.2-0.3-2.6,0.4-3.8 c0.6-0.9,2-1.1,3.2-1c2.8,0.1,6.8,1.6,7.9,3.7c0.6,1,0.6,2.3-0.2,3.4c0,0,0,0,0,0.1C152.3,130.7,150.8,132.3,148.1,132.3z M144.4,124.4c-1,0-1.8,0.2-2,0.7c-0.6,1-0.8,2-0.3,2.9c0.4,1.2,1.8,2.4,3.8,2.9c3.6,1.1,5.5-0.7,5.7-0.9 c0.4-0.8,0.6-1.6,0.1-2.4c-1-1.8-4.5-3.2-7.1-3.3C144.5,124.4,144.5,124.4,144.4,124.4z M151.9,130.3L151.9,130.3L151.9,130.3z" class="st13"/></g></g><g><g><path d="M127.4,94.8c-0.1-0.2-0.1-0.5-0.1-0.7s0-0.5,0.1-0.7s0.2-0.4,0.3-0.6c0.1-0.1,0.3-0.3,0.6-0.3 c-0.1,0.2-0.2,0.3-0.3,0.6c-0.1,0.3-0.2,0.3-0.2,0.6c-0.1,0.2-0.1,0.3-0.2,0.6C127.5,94.3,127.5,94.6,127.4,94.8z" class="st24"/></g><g><path d="M128.8,95.6c-0.1-0.3,0-0.7,0-0.9c0-0.3,0.1-0.6,0.3-0.9c0.1-0.3,0.3-0.6,0.6-0.8c0.1,0,0.1-0.1,0.2-0.1 s0.1-0.1,0.2-0.1c0.1,0,0.1-0.1,0.2-0.1c0.1,0,0.1,0,0.2-0.1c-0.2,0.2-0.4,0.5-0.6,0.7c-0.2,0.2-0.3,0.5-0.4,0.7 c-0.1,0.2-0.2,0.4-0.3,0.8C128.9,95,128.8,95.3,128.8,95.6z" class="st24"/></g></g><g><g><path d="M146.4,115.8c0.2-0.2,0.6-0.3,0.9-0.5c0.3-0.1,0.7-0.1,1-0.1s0.7,0.1,1,0.2c0.1,0,0.1,0.1,0.2,0.1 s0.1,0.1,0.2,0.1s0.1,0.1,0.2,0.1c0.1,0.1,0.1,0.1,0.1,0.2c-0.3-0.1-0.7-0.2-0.9-0.2c-0.3-0.1-0.6-0.1-0.9-0.1 c-0.3,0-0.6,0-0.9,0C147.1,115.7,146.8,115.7,146.4,115.8z" class="st24"/></g><g><path d="M146,118c0.4-0.2,0.9-0.3,1.4-0.4c0.4-0.1,0.9-0.1,1.3,0c0.1,0,0.2,0,0.3,0.1c0.1,0,0.2,0.1,0.3,0.1 s0.2,0.1,0.3,0.1l0.1,0.1l0.1,0.1c0.1,0.1,0.2,0.1,0.3,0.2s0.2,0.1,0.2,0.2l0.1,0.1l0.1,0.1c0.1,0.1,0.1,0.2,0.2,0.2 c-0.4-0.2-0.8-0.5-1.2-0.6l-0.1-0.1h-0.1c-0.1,0-0.2-0.1-0.3-0.1s-0.2,0-0.3-0.1s-0.2,0-0.3-0.1c-0.4-0.1-0.9-0.1-1.4-0.1 C146.9,118,146.4,118,146,118z" class="st24"/></g></g></g><g><g><path d="M132.4,114.3c3.4-1.8,4.4-0.1,4.8,3C134.7,117.5,132.6,116.8,132.4,114.3z" class="st19"/></g><g><path d="M136.7,117.9c-1.5,0-2.6-0.3-3.5-1.1c-0.7-0.7-1.1-1.5-1.2-2.6c0-0.1,0.1-0.2,0.2-0.3 c1.5-0.8,2.6-1,3.5-0.6c1.2,0.6,1.8,2.2,2.1,4c0,0.1,0,0.2-0.1,0.3c-0.1,0.1-0.1,0.1-0.2,0.1C137.2,117.9,137,117.9,136.7,117.9z M132.7,114.4c0.1,0.8,0.4,1.3,0.9,1.8c0.8,0.7,1.9,1,3.4,0.9c-0.3-1.3-0.8-2.7-1.7-3.2C134.7,113.7,133.8,113.8,132.7,114.4z" class="st20"/></g><g><path d="M132.3,113.8c0.3-0.1,0.8-0.1,1.1,0s0.7,0.2,1,0.4c0.3,0.2,0.6,0.5,0.8,0.7s0.4,0.6,0.7,0.8 c-0.6-0.4-1.1-0.7-1.7-0.9c-0.3-0.1-0.6-0.2-0.9-0.2c-0.3,0-0.6,0-0.8,0l0,0c-0.2,0-0.3-0.1-0.4-0.3 C132,114,132.2,113.9,132.3,113.8z" class="st21"/></g></g></g></svg>