<?xml version="1.0" encoding="utf-8"?>
<!-- Generator: Adobe Illustrator 23.0.5, SVG Export Plug-In . SVG Version: 6.00 Build 0)  -->
<svg version="1.1" id="Layer_1" xmlns:v="https://vecta.io/nano"
	 xmlns="http://www.w3.org/2000/svg" xmlns:xlink="http://www.w3.org/1999/xlink" x="0px" y="0px" viewBox="0 0 180 180"
	 style="enable-background:new 0 0 180 180;" xml:space="preserve">
<style type="text/css">
	.st0{fill:#AA8159;}
	.st1{fill:#B68A4F;}
	.st2{opacity:0.3;}
	.st3{fill:#C49776;}
	.st4{fill:#988430;}
	.st5{fill:#7A6A2A;}
	.st6{fill:#BA9F33;}
	.st7{fill-rule:evenodd;clip-rule:evenodd;fill:#CFB66C;}
	.st8{fill-rule:evenodd;clip-rule:evenodd;fill:#E2CC85;}
	.st9{fill-rule:evenodd;clip-rule:evenodd;fill:#F1D789;}
	.st10{fill-rule:evenodd;clip-rule:evenodd;fill:#F4ECB4;}
	.st11{fill-rule:evenodd;clip-rule:evenodd;fill:#F3E19D;}
	.st12{fill-rule:evenodd;clip-rule:evenodd;fill:#F2E8B0;}
	.st13{fill-rule:evenodd;clip-rule:evenodd;fill:#F5EEC0;}
	.st14{fill-rule:evenodd;clip-rule:evenodd;fill:#E6DB9D;}
	.st15{fill-rule:evenodd;clip-rule:evenodd;fill:#E5CB7A;}
	.st16{fill-rule:evenodd;clip-rule:evenodd;fill:#D8C173;}
	.st17{fill-rule:evenodd;clip-rule:evenodd;fill:#E0CD81;}
	.st18{fill-rule:evenodd;clip-rule:evenodd;fill:#DFC57C;}
	.st19{fill-rule:evenodd;clip-rule:evenodd;fill:#E5CC7C;}
	.st20{fill-rule:evenodd;clip-rule:evenodd;fill:#D2C281;}
	.st21{fill-rule:evenodd;clip-rule:evenodd;fill:#E2C270;}
	.st22{fill-rule:evenodd;clip-rule:evenodd;fill:#CCB360;}
	.st23{fill-rule:evenodd;clip-rule:evenodd;fill:#D5B457;}
	.st24{fill-rule:evenodd;clip-rule:evenodd;fill:#D2B257;}
	.st25{fill-rule:evenodd;clip-rule:evenodd;fill:#D2B159;}
	.st26{fill-rule:evenodd;clip-rule:evenodd;fill:#C2A44D;}
	.st27{fill-rule:evenodd;clip-rule:evenodd;fill:#CAA13E;}
	.st28{fill-rule:evenodd;clip-rule:evenodd;fill:#B59544;}
	.st29{fill-rule:evenodd;clip-rule:evenodd;fill:#C89D3A;}
	.st30{fill-rule:evenodd;clip-rule:evenodd;fill:#CEB052;}
	.st31{fill-rule:evenodd;clip-rule:evenodd;fill:#CCA847;}
	.st32{fill-rule:evenodd;clip-rule:evenodd;fill:#C39D3C;}
	.st33{fill-rule:evenodd;clip-rule:evenodd;fill:#D2BA6B;}
	.st34{fill-rule:evenodd;clip-rule:evenodd;fill:#C0993A;}
	.st35{fill-rule:evenodd;clip-rule:evenodd;fill:#A88F33;}
	.st36{fill-rule:evenodd;clip-rule:evenodd;fill:#E3C571;}
	.st37{fill-rule:evenodd;clip-rule:evenodd;fill:#D8B65B;}
	.st38{fill-rule:evenodd;clip-rule:evenodd;fill:#D3AE4D;}
	.st39{fill-rule:evenodd;clip-rule:evenodd;fill:#F4EFC8;}
	.st40{fill-rule:evenodd;clip-rule:evenodd;fill:#EBCC73;}
	.st41{fill-rule:evenodd;clip-rule:evenodd;fill:#E5C66B;}
	.st42{fill-rule:evenodd;clip-rule:evenodd;fill:#E6BD62;}
	.st43{fill-rule:evenodd;clip-rule:evenodd;fill:#B6933F;}
	.st44{fill-rule:evenodd;clip-rule:evenodd;fill:#C49937;}
	.st45{fill-rule:evenodd;clip-rule:evenodd;fill:#DFC068;}
	.st46{fill-rule:evenodd;clip-rule:evenodd;fill:#C99E3D;}
	.st47{fill-rule:evenodd;clip-rule:evenodd;fill:#B58634;}
	.st48{fill-rule:evenodd;clip-rule:evenodd;fill:#E6C367;}
	.st49{fill-rule:evenodd;clip-rule:evenodd;fill:#DCBA5A;}
	.st50{fill-rule:evenodd;clip-rule:evenodd;fill:#E9CE77;}
	.st51{fill-rule:evenodd;clip-rule:evenodd;fill:#CDAE50;}
	.st52{fill-rule:evenodd;clip-rule:evenodd;fill:#D2A83E;}
	.st53{fill-rule:evenodd;clip-rule:evenodd;fill:#C29637;}
	.st54{fill-rule:evenodd;clip-rule:evenodd;fill:#AC8132;}
	.st55{fill-rule:evenodd;clip-rule:evenodd;fill:#A67A2E;}
	.st56{fill-rule:evenodd;clip-rule:evenodd;fill:#8C6228;}
	.st57{fill-rule:evenodd;clip-rule:evenodd;fill:#CBA94C;}
	.st58{fill-rule:evenodd;clip-rule:evenodd;fill:#BE9C44;}
	.st59{fill-rule:evenodd;clip-rule:evenodd;fill:#A17C34;}
	.st60{fill-rule:evenodd;clip-rule:evenodd;fill:#92723A;}
	.st61{fill-rule:evenodd;clip-rule:evenodd;fill:#B18E3E;}
	.st62{fill-rule:evenodd;clip-rule:evenodd;fill:#543E26;}
	.st63{fill-rule:evenodd;clip-rule:evenodd;fill:#806031;}
	.st64{fill-rule:evenodd;clip-rule:evenodd;fill:#B6903C;}
	.st65{fill-rule:evenodd;clip-rule:evenodd;fill:#685026;}
	.st66{fill-rule:evenodd;clip-rule:evenodd;fill:#D4B968;}
	.st67{fill-rule:evenodd;clip-rule:evenodd;fill:#CCA849;}
	.st68{fill-rule:evenodd;clip-rule:evenodd;fill:#585136;}
	.st69{fill-rule:evenodd;clip-rule:evenodd;fill:#252211;}
	.st70{fill-rule:evenodd;clip-rule:evenodd;fill:#C3B378;}
	.st71{fill-rule:evenodd;clip-rule:evenodd;fill:#E6D89C;}
	.st72{fill-rule:evenodd;clip-rule:evenodd;fill:#6F674D;}
	.st73{fill-rule:evenodd;clip-rule:evenodd;fill:#AC924C;}
	.st74{fill-rule:evenodd;clip-rule:evenodd;fill:#9F8E57;}
	.st75{fill-rule:evenodd;clip-rule:evenodd;fill:#EAC970;}
	.st76{fill-rule:evenodd;clip-rule:evenodd;fill:#D7BC6B;}
	.st77{fill-rule:evenodd;clip-rule:evenodd;fill:#453A25;}
	.st78{fill-rule:evenodd;clip-rule:evenodd;fill:#84754B;}
	.st79{fill-rule:evenodd;clip-rule:evenodd;fill:#F7F7E7;}
	.st80{fill-rule:evenodd;clip-rule:evenodd;fill:#F8F6DE;}
	.st81{fill-rule:evenodd;clip-rule:evenodd;fill:#D4C38B;}
	.st82{fill-rule:evenodd;clip-rule:evenodd;fill:#E2D59D;}
	.st83{fill-rule:evenodd;clip-rule:evenodd;fill:#CBAC5A;}
	.st84{fill-rule:evenodd;clip-rule:evenodd;fill:#D6BC6F;}
	.st85{fill-rule:evenodd;clip-rule:evenodd;fill:#DFC677;}
	.st86{fill-rule:evenodd;clip-rule:evenodd;fill:#C4A859;}
	.st87{fill-rule:evenodd;clip-rule:evenodd;fill:#927D49;}
	.st88{fill-rule:evenodd;clip-rule:evenodd;fill:#6E6342;}
	.st89{fill-rule:evenodd;clip-rule:evenodd;fill:#39331F;}
	.st90{fill-rule:evenodd;clip-rule:evenodd;fill:#292311;}
	.st91{fill-rule:evenodd;clip-rule:evenodd;fill:#3F3824;}
	.st92{fill-rule:evenodd;clip-rule:evenodd;fill:#2D2815;}
	.st93{fill-rule:evenodd;clip-rule:evenodd;fill:#82764F;}
	.st94{fill-rule:evenodd;clip-rule:evenodd;fill:#2D2816;}
	.st95{fill-rule:evenodd;clip-rule:evenodd;fill:#574F35;}
	.st96{fill:none;}
	.st97{fill-rule:evenodd;clip-rule:evenodd;fill:#DEC270;}
	.st98{fill-rule:evenodd;clip-rule:evenodd;fill:#CBAF59;}
	.st99{fill-rule:evenodd;clip-rule:evenodd;fill:#E3C677;}
	.st100{fill-rule:evenodd;clip-rule:evenodd;fill:#ECD592;}
	.st101{fill:#FFD283;}
	.st102{opacity:0.1;fill:none;stroke:#191326;stroke-width:4;enable-background:new    ;}
	.st103{fill:#F7AF41;}
	.st104{fill:#6C184E;}
	.st105{fill:#FFCE00;}
	.st106{opacity:0.65;}
	.st107{fill:#FFFFFF;}
	.st108{fill:#EE1822;}
	.st109{fill:#BD1622;}
	.st110{fill:#F6C547;}
	.st111{fill:#48C75A;}
	.st112{fill:#661A47;}
	.st113{fill:#651B47;}
	.st114{fill:#EB984E;}
	.st115{fill:#6D184E;}
</style>
<g>
	<path class="st0" d="M79.4,156.5c35.1,16.5,76.9,1.4,93.5-33.8s1.6-77.1-33.5-93.6c-30.5-14.3-66-4.8-85.7,21
		c-3.9,0-10.4-0.9-17.3-5.5c0,0-9.2-5.8-12.3-9.8c-3.1-4.1-12.5-9.4-19.1,1l-1.1,2.4l-1.5,3.2l-1.1,2.4
		c-3.8,11.7,6.3,15.6,11.4,15.4c5-0.2,15.3,3.2,15.3,3.2c7.3,2.2,11.9,6.1,14.6,9C31.9,104.6,47.2,141.3,79.4,156.5z M7.9,43.2
		c1.3-2.8,4.6-4,7.4-2.7s4,4.6,2.7,7.4c-1.3,2.8-4.6,4-7.4,2.7C7.7,49.3,6.5,46,7.9,43.2z"/>
	<path class="st1" d="M0,48.5c0-1.5,0.3-3.1,0.8-4.7l0,0l3.8-8l0,0c2.5-4,5.6-6,9.3-6.2c4.3-0.2,8.4,2.6,10.4,5.2
		c3,4,12.1,9.7,12.2,9.7c6.7,4.4,12.9,5.4,17,5.5C63.2,37.2,77,28.2,92.4,24.3c15.7-4,32.5-2.3,47.1,4.6c12.5,5.9,22.9,15.2,30,26.9
		c7,11.4,10.6,24.5,10.4,37.9c-0.1,10.1-2.4,20-6.8,29.2c-8.1,17.1-22.3,30-40,36.4s-36.9,5.5-53.9-2.5c-12.5-5.9-22.9-15.2-30-26.9
		c-7-11.4-10.6-24.5-10.4-37.9l0,0c0.1-6.9,1.2-13.8,3.3-20.5c-2.6-2.8-7.2-6.6-14.3-8.8c-0.1,0-10.3-3.4-15.3-3.2
		c-2.8,0.1-6.9-1-9.6-3.6C1,54,0,51.5,0,48.5z M1.5,44c-0.5,1.6-0.8,3.1-0.8,4.5c0,2.8,0.9,5.1,2.8,6.9c2.6,2.5,6.4,3.5,9.1,3.4
		c5.1-0.2,15.1,3.1,15.5,3.3c7.4,2.3,12.1,6.2,14.7,9.1c0.1,0.1,0.1,0.2,0.1,0.4c-2.1,6.6-3.3,13.5-3.4,20.4l0,0
		c-0.2,13.2,3.4,26.2,10.3,37.5c7.1,11.6,17.4,20.8,29.7,26.6c16.9,7.9,35.8,8.8,53.4,2.5s31.6-19.2,39.6-36.1
		c4.3-9.2,6.6-18.9,6.7-28.9c0.2-13.2-3.4-26.2-10.3-37.5c-7.1-11.6-17.4-20.8-29.7-26.6c-14.5-6.8-31.1-8.5-46.6-4.5
		c-15.3,3.8-29,12.9-38.6,25.4c-0.1,0.1-0.2,0.1-0.3,0.1c-4.2,0-10.6-1-17.5-5.6c-0.4-0.2-9.3-5.8-12.4-9.9c-1.9-2.5-5.7-5-9.8-4.9
		c-3.4,0.1-6.3,2.1-8.7,5.8L1.5,44z M7,45.5c0-0.9,0.2-1.7,0.6-2.5c0.7-1.4,1.9-2.5,3.4-3.1c1.5-0.5,3.1-0.5,4.5,0.2
		c2.1,1,3.4,3.1,3.4,5.4c0,0.9-0.2,1.7-0.6,2.5c-0.7,1.4-1.9,2.5-3.4,3.1c-1.5,0.5-3.1,0.5-4.5-0.2C8.3,49.9,6.9,47.8,7,45.5z
		 M18.1,45.6c0-2-1.1-3.9-3-4.8c-1.3-0.6-2.7-0.7-4-0.2S8.7,42,8.2,43.3c-0.3,0.7-0.5,1.4-0.5,2.2c0,2,1.1,3.9,3,4.8
		c1.3,0.6,2.7,0.7,4,0.2s2.4-1.4,2.9-2.7C17.9,47.1,18.1,46.3,18.1,45.6z"/>
</g>
<g>
	<g class="st2">
		<path class="st3" d="M25.2,41.1c0.6,0.2,1.4,0.6,2.1,0.4c0.8-0.2,0.6-1.4,0.5-2c-0.1-0.5-0.3-1-0.5-1.5c-1.3-1.1-2.4-2.2-3.2-3.2
			c-0.7-1-1.9-2.1-3.2-2.9c0.9,1.5,1.5,3,1.5,4.9c0,0.1-0.1,0.2-0.2,0.2c-3.6-0.9-6.9-3.1-9.8-5.3c-0.5-0.4-0.9-0.7-1.4-1.1
			c-0.6,0.2-1.2,0.6-1.8,1c3,2,6,4,9,5.9C20.3,38.7,22.7,40.2,25.2,41.1z"/>
		<path class="st3" d="M5,35.8l-0.7,1.4c2.1,1.1,4.3,2.1,6.4,3.2c1.4-0.6,3.1-0.6,4.5,0.1c1.7,0.8,2.8,2.4,3.1,4.1
			c4,2.3,8,4.6,12,6.8c1.8,1,3.5,1.9,5.3,2.9c1.7,1,3.5,2.1,5.4,2.6c1.4,0.4,4.3,0.4,4.2-1.7c0-1.8-1.2-3.5-2-5.1
			c-0.5-0.9-1-1.8-1.4-2.7c-1.7-0.8-3.6-1.7-5.4-2.9c0,0-0.4-0.3-1.1-0.7c0.2,0.4,0.3,0.7,0.4,1.1c0.3,0.8,0.6,1.8,0.4,2.7
			c-0.4,1.7-2.3,1.3-3.5,0.9c-2.6-0.9-5.1-2.5-7.4-4c-2.7-1.7-5.3-3.5-7.9-5.4c-1.5-1.1-3-2.2-4.7-3.1c-1.9-1-3.7-2-5.6-3
			C6.3,33.9,5.6,34.8,5,35.8z"/>
		<path class="st3" d="M52.4,57.3c0.4,1.6,0.6,3.9-0.8,5.1c-2,1.8-5.6,1-7.9,0.5c-10-2.2-18.5-8.3-27.4-13c-1.2,0.9-2.7,1.4-4.3,1.1
			c5.6,2.3,11.2,4.7,16.8,7c5.4,2.3,10.8,4.6,16.2,6.8c3.5,1.4,7.1,3,10.7,4.1c0.8,0.2,1.6,0.5,2.5,0.6c1.2,0.2,3.5,0.6,4.3-0.6
			c0.7-1,0.3-2.3,0-3.4c-0.5-1.6-1.2-3.1-2-4.6c-1-1.9-1.9-3.8-3.1-5.6c-1.2-1.8-2.5-3.5-3.9-5.2c-1.2,0-2.7-0.1-4.3-0.4
			C50.5,52.1,51.8,54.7,52.4,57.3z"/>
		<path class="st3" d="M0.5,46.6c3.1,1.1,6.1,2.3,9.2,3.5c-1.5-1-2.3-2.7-2.4-4.5c-1.9-0.8-3.9-1.7-5.8-2.5l-0.3,0.7
			C0.9,44.8,0.7,45.7,0.5,46.6z"/>
		<path class="st3" d="M27.6,62.3c-6-2.8-12-5.5-18.1-8.1c-2.9-1.2-5.9-2.4-8.9-3.5c1.2,6.4,8.1,8.6,12,8.5
			C17.1,59,25.6,61.6,27.6,62.3z"/>
		<path class="st3" d="M159.5,43.4c-4.8-0.8-9.5-2.4-13.7-5.1c-4-2.6-7.8-5.6-11.4-8.8c-1.4-1.2-2.6-2.5-3.9-3.8
			c-2.9-0.9-5.9-1.6-8.9-2.2c1.2,1.1,2.5,2.1,3.7,3.1c4.2,3.6,8.3,7.3,12.9,10.4c7.3,4.9,15.6,8.5,24.4,9.7
			C161.6,45.6,160.6,44.5,159.5,43.4z"/>
		<path class="st3" d="M166.4,51.6c-0.4,0-0.8-0.1-1.2-0.1c-3.4-0.3-6.8-0.6-10.1-1.3c-10.4-2.3-20.3-7.1-28.8-13.6
			c-5.5-4.2-10.6-9-15.3-14.1c-2,0-4,0-6,0.1c6.6,6.3,12.8,13,19.8,18.8c3.9,3.3,8.1,6.4,12.6,8.8c4.9,2.7,10.1,4.7,15.4,6.6
			c4.7,1.7,9.4,3.2,14.2,4.6c2.2,0.6,4.3,1.3,6.5,2.1C171.4,59.4,169.1,55.4,166.4,51.6z"/>
		<path class="st3" d="M175.9,70.2c-3.7-1.2-7.4-2.7-11.2-3.6c-8-1.9-15.9-4.4-23.4-7.8c-4.8-2.2-9.5-4.8-14.2-7.4
			c-4.7-2.6-9.3-5.4-13.8-8.3c-8.2-5.3-16.1-11.2-23.3-17.8c-2,0.6-4.1,1.3-6,2c1.5,1,3,2,4.4,3.1c5,3.5,10,7.1,14.9,10.8
			c4.9,3.6,9.7,7.2,14.6,10.8c3.1,2.2,6.1,4.6,9.4,6.5c4.4,2.5,9.3,4.4,14,6.2c2.6,1,5.2,2,7.9,3c2.5,0.9,4.9,1.9,7.5,2.7
			c6.9,2.2,14.2,3.4,21,5.9C177.2,74.3,176.6,72.2,175.9,70.2z"/>
		<path class="st3" d="M179.6,92.6c-1.4-0.6-2.8-1.3-4.2-2c-3.8-2-7.8-4.3-10.9-7.3c-0.1-0.1,0-0.3,0.1-0.3c5,0.3,9.8,1.7,14.6,3.2
			c-0.1-1-0.2-1.9-0.3-2.9c-2-0.6-4-1.2-6-1.6c-4.4-1-8.9-1.7-13.3-2.8c-3.1-0.7-6.1-2-9.2-2.9c-1.8-0.5-3.7-1-5.6-1.2
			c-1.3-0.1-2.7-0.2-3.9,0.4c2.5,2.8,5.9,4.8,9.3,6.4c3.6,1.8,7.4,3.2,11.2,4.8c4.3,1.8,8.5,3.9,12.7,5.8c1.8,0.8,3.5,1.6,5.3,2.4
			C179.6,93.9,179.6,93.2,179.6,92.6z"/>
		<path class="st3" d="M179.6,94.9c-1.8-0.8-3.7-1.6-5.5-2.5c-4.4-2-8.6-4.2-13.1-6c-3.8-1.5-7.6-3-11.3-4.8
			c-3.3-1.7-6.6-3.6-9.1-6.4c-0.1-0.1-0.1-0.2,0-0.3c0.2-0.1,0.3-0.2,0.5-0.2c1.3-0.5,2.8-0.4,4.1-0.2c1.8,0.2,3.5,0.7,5.2,1.2
			c3.2,0.9,6.2,2.2,9.4,2.9c4.5,1,9.1,1.7,13.6,2.8c1.8,0.4,3.5,0.9,5.2,1.5c0-0.1,0-0.3-0.1-0.4c-1.3-0.4-2.5-0.8-3.8-1.2
			c-10-3.2-20.3-5.5-30.4-8.6c-5-1.5-9.9-3.2-14.7-5.3c-4.8-2.1-9.3-4.5-13.8-7.2c-9-5.4-17.3-11.8-25-19c-3-2.8-6.1-5.4-9-8.4
			c-1-1.1-2-2.2-3-3.4c-1.8,0.9-3.6,1.8-5.3,2.8c0.9,0.8,1.8,1.6,2.7,2.5c3.5,3.4,7,6.7,10.3,10.3c1.8,2.1,3.6,4.2,5.4,6.3
			c1.7,2.1,3.4,4.2,5.2,6.2c6.9,7.6,15.7,13,24.8,17.4c10.6,5.1,21.5,9.5,32.4,13.9c8.3,3.4,16.3,7.6,24.4,11.4
			C179.4,98.5,179.5,96.7,179.6,94.9z"/>
		<path class="st3" d="M166.4,104.9c0.7,1.3,2.1,2.4,3.2,3.3c1.9,1.6,3.9,3.1,6,4.5c0.3,0.2,0.6,0.4,0.9,0.6
			c0.5-1.6,0.9-3.3,1.3-4.9C174.1,106.9,170.5,105,166.4,104.9z"/>
		<path class="st3" d="M175.6,116.2c-2.4-1.2-4.7-2.8-7-4.3c-3.1-2.1-6.4-3.9-9.7-5.8c-3.9-2.3-7.9-4.7-11.1-8
			c-0.1-0.1,0-0.3,0.1-0.3c3.1-1.1,6.6,0,9.5,1c3.1,1.1,6.2,2.2,9.4,3.2c3.8,1.1,7.8,2.3,11.5,3.9c0.1-0.7,0.2-1.3,0.4-2
			c-4.8-1.7-9.6-3.2-14.4-4.7C154,96,143.6,93,133.7,88.8c-4.9-2-9.6-4.3-14.2-7c-4.5-2.6-8.8-5.5-12.9-8.7
			c-14.2-10.7-26.5-23.8-38.5-37c-1.3,1-2.6,2-3.9,3.1c0.4,0.3,0.7,0.6,1.1,0.9C70.4,44.6,74,50.3,77.7,56c2.8,4.4,5.8,8.7,9.4,12.5
			c3.6,3.7,7.5,7.1,11.6,10.1c8.5,6.3,17.4,12,26.9,16.6c9.9,4.8,20.1,8.8,29.7,14.3c4.8,2.7,9.6,5.5,14.6,7.9
			c1.4,0.7,2.9,1.3,4.4,1.9C174.8,118.3,175.2,117.3,175.6,116.2z"/>
		<path class="st3" d="M156.1,127.2c-2.8-1.2-5.7-2.3-8.6-3.1c-2.6-0.8-5.3-1.4-8.1-1.2c1.5,2.4,4.3,4,6.8,5.2
			c2.8,1.4,5.7,2.6,8.6,3.8c3.1,1.3,6,2.8,8.9,4.3c0.2,0.1,0.4,0.2,0.7,0.3c1-1.3,2-2.6,2.9-4c-0.5-0.2-0.9-0.5-1.4-0.7
			C162.8,130,159.5,128.5,156.1,127.2z"/>
		<path class="st3" d="M48.7,118.7c1.7,0.5,3.3,1.2,5,1.7c2.6,0.8,5.3,1.5,7.9,2.3c10.6,3,21.3,5.7,31.9,8.8
			c11.3,3.4,22.5,7,33.8,10.3c5.6,1.6,11.2,3.4,16.7,5.3c2.3,0.8,4.6,1.6,6.9,2.3c0.7-0.5,1.4-1,2-1.6c-1.1-0.5-2.3-0.9-3.4-1.4
			c-4.9-1.9-9.9-3.4-14.9-5c-11.1-3.7-22.2-7.6-33.1-11.7c-10.8-4-21.7-8.1-32.8-11.3c-9-2.6-17.8-6.4-27.1-7.4
			c0.6,2.1,1.2,4.2,2,6.2C45.3,117.7,47,118.2,48.7,118.7z"/>
		<path class="st3" d="M68.5,144.1c11.1,4,21.9,8.3,32.7,13c4.5,1.9,9,3.9,13.5,5.8c4.1-0.3,8.1-1,12-2c-2.1-0.9-4.2-1.8-6.3-2.7
			c-6.9-2.9-14-5.4-21.1-7.8c-5.4-1.9-10.9-3.6-16.3-5.6c-5.2-1.9-10.3-4.1-15.4-6.5c-5-2.4-10-4.8-15-7.2c-1-0.5-2-1-3-1.4
			c2.3,3.8,4.9,7.3,7.9,10.6C61.2,141.4,64.9,142.8,68.5,144.1z"/>
		<path class="st3" d="M67.5,149.2c3.8,1.5,7.6,3,11.4,4.6c6.3,2.7,12.6,5.5,18.9,8.4c2,0.3,4.1,0.6,6.1,0.7
			c-7.5-3.6-15.1-7-22.7-10.5c-4.6-2.1-9.2-4.3-14-6.1c-1.9-0.8-3.9-1.5-5.9-2c1.8,1.7,3.7,3.3,5.7,4.8
			C67.3,149.1,67.4,149.2,67.5,149.2z"/>
		<path class="st3" d="M44,106.7c2.3,0.7,4.7,1.1,7.1,1.5c5.8,1.1,11.6,2.2,17.3,3.7c11.3,3.1,22.3,6.9,33.5,10.2
			c11.2,3.3,22.6,6.1,33.8,9.5c8.4,2.6,16.3,6.2,24.2,9.9c0.8-0.9,1.6-1.7,2.4-2.6c-3.8-1.3-7.5-2.7-11.2-4.2
			c-5.3-2.1-10.4-4.5-15.6-6.8c-10.8-4.7-21.8-8.8-32.7-13.3c-10.3-4.2-20.7-8.3-31.4-11.2c-10.5-2.9-21.1-5-32-5.9
			c0.2,2.7,0.5,5.4,1,8.1C41.6,106,42.8,106.4,44,106.7z"/>
		<path class="st3" d="M105,99.3c0.7-0.1,1.5-0.3,2.1-0.6c0.3-0.1,0.5-0.3,0.8-0.4c0.5-0.3,0.5-0.3,0.1-0.6c-1.4-1.4-3-2.6-4.8-3.6
			c-3.7-2.1-7.9-3.5-12.1-4.6c-4-1-8-1.6-12-2C73.5,87,68,86.1,62.5,84.9c-2.8-0.6-5.6-1.3-8.3-2.1c-2-0.6-4-1.3-5.9-2.1
			c-2.1-0.8-4.2-1.6-6.3-2.2c-0.4-0.1-0.8-0.2-1.2-0.3c-0.2,1-0.4,1.9-0.6,2.9c2.9,0.6,5.6,1.7,8.3,3c0.2,0.1,0.1,0.3-0.1,0.3
			c-2.9,0.2-5.8,0-8.7,0.1c-0.1,1.1-0.2,2.2-0.3,3.3c7.4,1,14.8,2.3,22.2,3.7c4.5,0.9,9,1.7,13.5,2.6c3,0.5,5.9,1,8.8,1.8
			c3.5,1,6.9,1.9,10.5,2.7C97.7,99.3,101.5,100,105,99.3z"/>
		<path class="st3" d="M172.7,123.2c-0.7-0.4-1.4-0.8-2.2-1.1c-5.6-2.6-11.3-4.7-17.1-6.9c-10.2-3.9-20.4-7.7-30.2-12.5
			c-9.5-4.6-18.8-10-26.6-17.2c-7.5-7-13.7-15.2-20-23.2C71.5,55.6,66.6,48.4,60,43c-0.4,0.4-0.8,0.8-1.3,1.3
			c0.5,0.9,1.1,1.9,1.7,2.8c3.1,5.1,6.3,10.1,9.1,15.2c1.3,2.4,2.5,4.8,3.6,7.3c0.8,1.9,1.5,4,1.7,6.1c0.1,1.4-0.1,3-1.1,4
			c-1.7,1.7-4.5,1.6-6.6,1.1C62.9,80,59.2,78,55.5,76c-4.7-2.5-9.5-4.7-14.2-7c-1.2-0.6-2.3-1.2-3.5-1.7c2,1.5,3.6,2.9,4.8,4.2
			c-0.4,1.1-0.7,2.3-1,3.4c3,0.8,6,1.8,8.9,2.9c0.2,0.1,0.2,0.3,0,0.3c-3.2,0.7-6.3-0.2-9.5-0.6c0,0.1,0,0.2-0.1,0.3
			c1.6,0.4,3.2,1,4.7,1.5c3.7,1.3,7.2,2.8,11,3.7c5.7,1.5,11.4,2.7,17.2,3.5c4.3,0.6,8.6,0.9,12.9,1.7c7.7,1.4,16.5,3.7,22,9.7
			c0.1,0.1,0.1,0.2,0,0.3c-1.7,1.5-4.2,1.8-6.4,1.8c-3.1,0-6.2-0.5-9.2-1.2c-3.4-0.8-6.8-1.7-10.2-2.7c-4.4-1.2-8.9-1.8-13.4-2.6
			c-10-1.9-20-3.9-30.1-5.3c-0.1,1.6-0.2,3.3-0.2,4.9c4.3,0.4,8.7,0.7,12.9,1.2c11.5,1.5,22.9,3.9,34.1,6.8
			c11.3,3,22.6,6.3,33.7,9.9c10.6,3.4,21,7.3,31.6,10.8c6.1,2,12.4,4,18.4,6.7C170.9,126.7,171.8,125,172.7,123.2z"/>
	</g>
	<g>
		<path class="st3" d="M58.1,48.3c1.4-1.6,3.2-3,4.8-4.5c1.8-1.6,3.6-3.2,5.4-4.6c3.6-2.8,7.4-5.1,11.5-7.2
			c4.5-2.3,9.3-3.8,14.2-5.2c2.4-0.6,4.7-1.4,7.1-1.8c2.6-0.4,5.2-0.5,7.7-0.9c0.4-0.1-0.1-0.7-0.4-0.6c-2.4,0.2-4.9,0.3-7.3,0.5
			c-2.7,0.3-5.3,1.1-7.9,1.7c-4.8,1.3-9.4,2.7-13.9,4.9c-4.3,2.1-8.3,4.6-12.1,7.5c-1.8,1.4-3.5,2.9-5.1,4.4s-3.8,3.2-4.9,5.1
			C57.2,48.1,57.9,48.6,58.1,48.3z"/>
		<path class="st3" d="M33.1,44.3c-2.6-2-5.2-3.9-7.7-6.1c-2.2-1.9-3.9-4.3-6.3-5.9c-4.5-3-9.6-0.2-12.7,3.5C6.2,36,6.8,36.5,7,36.4
			c1.7-1.3,3.5-2.7,5.4-3.6c3.3-1.6,6.1-0.2,8.5,2.2c1.6,1.6,3.1,3.2,4.9,4.7c2.2,1.8,4.6,3.3,6.9,4.9
			C33.2,44.9,33.5,44.6,33.1,44.3z"/>
		<path class="st3" d="M12.7,57.8c-1.9-0.6-3.9-1.1-5.7-2.1c-2-1.1-3.2-2.8-4.3-4.8c-0.2-0.3-0.9-0.6-0.8,0
			c1.2,4.8,6.5,6.9,10.9,7.5C13.3,58.5,12.9,57.9,12.7,57.8z"/>
		<path class="st3" d="M107.8,161.1c5.4-0.1,10.8-0.6,16.2-1.6c10.5-2,20.1-7,28.7-13.1c0.3-0.2-0.2-0.7-0.5-0.5
			c-8.6,5.2-17.7,10.1-27.6,12.3c-10.5,2.3-22,2.9-32.5,0.4c-0.6-0.1-0.3,0.5,0.1,0.6C97.1,161,102.5,161.2,107.8,161.1z"/>
	</g>
</g>
<g>
	<g id="Layer_1-2">
		<g id="Layer_1-3">
			<circle class="st4" cx="96" cy="46" r="40"/>
			<circle class="st5" cx="96" cy="46" r="38.7"/>
			<circle class="st6" cx="96" cy="46" r="37.9"/>
			<path class="st7" d="M73.5,41.7c-0.2-0.2-0.5-0.4-0.7-0.6c-0.2-0.2-0.4-0.4-0.7-0.6l-0.7-0.6c-0.1-0.1-0.2-0.2-0.3-0.3
				c-0.1-0.1-0.2-0.2-0.3-0.3c-0.9-0.8-1.8-1.7-2.7-2.5c0.9,0.8,1.8,1.7,2.7,2.5l0.3,0.3c0.1,0.1,0.2,0.2,0.3,0.3l0.7,0.6
				c0.2,0.2,0.4,0.4,0.7,0.6C73,41.3,73.3,41.5,73.5,41.7L73.5,41.7z M61.6,41.6c0,0,3.2,0.3,4.8,0.6c1.5,0.2,6.1,0.9,6.1,0.9
				L61.6,41.6z M61.6,41.6c0.9,0.1,1.8,0.2,2.7,0.3c0.5,0,0.9,0.1,1.4,0.1l0.7,0.1c0.2,0,0.4,0.1,0.7,0.1l2.7,0.4l1.4,0.2
				c0.4,0.1,0.9,0.2,1.4,0.2c-0.4,0-0.9-0.1-1.4-0.2l-1.4-0.2l-2.7-0.4c-0.2,0-0.4-0.1-0.7-0.1l-0.7-0.1c-0.4,0-0.9-0.1-1.4-0.2
				C63.5,41.9,62.5,41.7,61.6,41.6L61.6,41.6z M72.2,43.9c0,0-3.5,0.9-4.6,1.2c-1.2,0.3-4.6,1.4-4.6,1.4L72.2,43.9L72.2,43.9z"/>
			<path class="st7" d="M72.2,43.9c-0.8,0.2-1.5,0.4-2.3,0.7l-2.3,0.6c-0.8,0.2-1.5,0.4-2.3,0.7l-1.2,0.3c-0.4,0.1-0.8,0.2-1.2,0.3
				c0.4-0.1,0.8-0.3,1.2-0.4l1.2-0.4c0.8-0.2,1.5-0.5,2.3-0.7c0.8-0.2,1.6-0.4,2.3-0.6C70.6,44.3,71.4,44.1,72.2,43.9L72.2,43.9
				L72.2,43.9z M63.4,48.7c0.4-0.1,4.8-2.2,5.8-2.7c0.5-0.2,2-0.8,2-0.8L63.4,48.7z"/>
			<path class="st7" d="M63.4,48.7c0.3-0.1,0.7-0.3,1-0.4l1-0.4l1.9-0.9c0.6-0.3,1.3-0.6,1.9-0.9c0.3-0.1,0.7-0.3,1-0.4l0.5-0.2
				c0.2,0,0.3-0.1,0.5-0.1c-0.6,0.3-1.3,0.6-2,0.9c-0.6,0.3-1.3,0.6-2,0.9l-2,0.9C64.7,48.1,64.1,48.4,63.4,48.7L63.4,48.7
				L63.4,48.7z M63.8,50.4c0,0,4-2.3,5.4-3.1c0.7-0.4,3-1.6,3-1.6L63.8,50.4z"/>
			<path class="st7" d="M63.8,50.4c0.7-0.4,1.4-0.8,2-1.3l1-0.6c0.3-0.2,0.7-0.4,1-0.6c0.3-0.2,0.7-0.4,1-0.6
				c0.2-0.1,0.3-0.2,0.5-0.3l0.5-0.3c0.7-0.3,1.4-0.7,2.2-1c-0.7,0.4-1.4,0.8-2.1,1.2c-0.3,0.2-0.7,0.4-1.1,0.6
				c-0.3,0.2-0.7,0.4-1,0.6c-0.3,0.2-0.7,0.4-1,0.6L66,49.3L63.8,50.4L63.8,50.4L63.8,50.4z M72.2,46.3c0,0-2.5,1.9-3.3,2.5
				c-0.8,0.6-3.2,2.3-3.2,2.3L72.2,46.3z"/>
			<polygon class="st8" points="86.4,61.7 85.2,59.3 85.9,56.3 91.2,54.2 88.9,49.6 90,45 92.1,40.8 98.5,39.8 103.2,35.3 
				113.4,36.1 115.4,47 111.6,60.7 109.4,67.8 100.5,68.1 96.4,65.3 91.5,63.3 			"/>
			<path class="st9" d="M102,61.6c0,0-1.2,0.6-3.3,0.4c-0.6-0.8-4.9-1.2-4.9-1.2s-0.5-0.2-1.5,0.2c-0.9,0.4-1.8,0.3-2.7,0.5
				c-0.8,0.2-1.7-0.9-2.3-1.1c-0.6-0.2-1.5-0.8-1.5-0.8l-1.8-0.2L80.5,58l-5.7-5.7l-1.6,2.4l-0.5,3l1.7,3.6l4.7,4.2l9.1,2.3l5.4-1.6
				l6.7-2.8L102,61.6L102,61.6z"/>
			<polygon class="st10" points="69.8,41.5 70.9,38 72.3,35.7 76.7,35.3 75.4,39.2 71.7,45.8 73.2,51.7 70.5,53 69.7,51.7 69,48.8 
				69,45.5 			"/>
			<path class="st11" d="M74.8,61.3l-0.8-1.2c0,0-0.2-0.6-0.1-1.1c0.1-0.5,0.1-0.5,0-0.7c-0.1-0.2-0.6-0.8-0.6-1.4
				c0-0.6,0-0.8,0.4-1.2c0.4-0.4,0.3-1.2,0.3-1.2l0.6,0.3l0.1-0.2c0,0,0.2,0.2,0.2,0.4c0-0.3-0.1-2,0.3-2.3s1.2,1.7,1.2,1.7l-0.5-3
				l-1.2-3.1l-2.1-2.8l-0.1-3.1v-0.3c0,0-1,1.5-1.2,2.7c-0.2,0.8,0.3,1.8,0.2,3c-0.1,1.2-0.2,1.1,0.1,1.5c0.3,0.5,1,1.4,0.7,2.1
				c-0.2,0.6-1.1,0.2-1.1,0.2s-0.2,0.5-0.4,0.7c-0.1-0.3-0.2-0.5-0.3-0.6c0,0.1,0,0.3,0,0.3s-0.1-0.4-0.3-1
				c-0.2-0.8-0.4-1.7-0.6-2.3c-0.1,0.3-0.3,1.2-0.3,1.2l0.1,1.4l0.5,2l0.5,1.3l0.5,1.6l0.4,1.1l0.3,0.8l0.3,1.8l1.5,1.6l0.8,0.3
				L74.8,61.3L74.8,61.3L74.8,61.3z"/>
			<path class="st12" d="M70.6,38.6c0,0-1.1,1.8-1.4,3.6c-0.3,1.8-0.6,3.7-0.4,6.2c0.2,2.5,0.6,4,0.9,5.1c0.5,1.8,1.8,4.3,1.8,4.3
				l0-0.1c-0.2-0.4-0.4-0.9-0.5-1.3c-0.2-0.7-0.2-1.5-0.4-1.9c-0.1-0.4-0.4-0.7-0.5-1.1c-0.1-0.4-0.1-1.1-0.5-1.6
				c-0.1-0.2-0.3-0.8-0.4-1.3c-0.1-0.8,0-1.7,0-2.5c-0.1-1.2-0.2-2.1-0.1-2.8c0.1-0.7,0.8-2.5,1.2-4c0.3-0.9,0.1-1.7,0.6-2.6
				c0.5-0.8,0.8-1.5,0.9-2C72,36.2,70.6,38.6,70.6,38.6L70.6,38.6L70.6,38.6z"/>
			<path class="st13" d="M75.6,37.9c0,0-0.5,0.2-0.8,0.4c-0.3,0.3-0.4,0.5-0.7,1c-0.3,0.5-0.4,0.8-0.7,1.4c-0.3,0.6-0.9,1.4-1,1.7
				s-0.2,1.7-0.4,2.4c-0.1,0.7,0.2,1.5,0.2,1.5l0.4-0.1c0,0,0,0.5,0.4,0.8c0.4,0.3,0.4-1.1,0.4-1.1l1.4-4.7l2.1-1.4l0.2-1.1
				L75.6,37.9L75.6,37.9L75.6,37.9z"/>
			<path class="st14" d="M76.6,40c0,0-1,0.1-1.5,0.4c-0.2,0.1-0.3,0.3-0.5,0.4c-0.4,0.3-0.8,0.6-1,1c-0.2,0.4-0.4,1-0.6,2.2
				c-0.1,0.5-0.1,1-0.1,1.4c-0.1,0.5-0.2,1-0.1,1.3c0.1,0.6,0.7,0.9,0.8,1.7l1.3-0.7l1.2-4.9l2.7-1.7l-1.5-1.7L76.6,40L76.6,40
				L76.6,40z"/>
			<path class="st15" d="M69.6,73.2c0,0,0-0.1,0-0.1c0.2-1.7,0.2-2.9,0.4-3.7c0.2-1.1,0.3-1.5,0.3-2c0-0.7-0.1-1.2,0-1.7
				c0.1-0.7,0.8-1.5,0.8-2.1c0-0.4-0.2-0.7-0.4-1c-0.2-0.3-0.3-0.5-0.3-0.5s1.3-0.9,1.3-4.6c0,0,0.1,0,0.1,0l0.7,1.9l0.4,0.5
				l1.7,3.2l2.2,2.1l3.3,2.2l2,2.2l0.2,5.9l-2.7,3.5L79,79.9C75.6,78.2,72.4,75.9,69.6,73.2L69.6,73.2z"/>
			<path class="st16" d="M77.7,78.8c0,0,0-0.7,0.7-1.2c0.1,0.2,0.2,0.3,0.1,0.4c0.1-0.2,0.9-1.4,2.6-1.8c1.7-0.3,2.2-1.6,2.2-1.6
				l3.7-3.4l4.2-3.9l5.1-1.8l2.4-0.6c0,0,0,0.2,0,0.6c0.4,0,1.4-0.3,2.5-0.6c0.4-0.2,0.8-0.2,1,0c0.3,0.3,0.3,1,0.4,1.4
				c0.5-0.1,1.1-0.6,1.5-0.5c0.7,0.1,1.4,0.9,2.1,0.9c1,0,1.4-0.6,2.1-1.1c0.4-0.3,1-0.6,1.3-0.9c0.8-0.6,9.3-3.2,9.3-3.2l3,0.2
				l0.5,3.2l-0.3,8.4c0,0-0.1,0.1-0.1,0.1l-13.5,7.1l-18.8,2.9c-4.2-0.7-8.3-2.1-12-4.1L77.7,78.8L77.7,78.8L77.7,78.8z"/>
			<path class="st9" d="M70.7,74.2c0.3-0.6,0.5-1,0.5-1.2c0,0.3,0.1,1.1,0.2,1.9C71.2,74.7,71,74.5,70.7,74.2L70.7,74.2z"/>
			<path class="st17" d="M84.4,82.1l2.4-0.7l0.2,0.1c0,0,0.1,0.1,0.1,0.3c0.3-0.2,0.6-0.1,0.8-0.3c0.1,0.2,0.2,0.9,0.6,1
				c0.4,0.1,0.9-0.2,1.4-0.6c0.5-0.4,1-0.9,1.4-1.1c0.2,0.3,0.3,0.6,0.4,0.9c0.5-0.4,1.5-2.2,2.8-2.2c0.4-0.9,1-1.7,1.9-2.3
				c1.2-0.8,2-0.9,3-0.8c0.4-0.5,0.9-0.9,1.4-1.3c0.2,0.1,0.6,0.3,1.2,0.1c0.6-0.3,1.2-1.3,2-1.4c0.4-0.1,0.9,0,1.3,0.3
				c0,0,2.4-2.4,4.1-3.2c-0.1-0.2-0.2-0.9,1.8-2.5c0.1,0.1,0,0.4,0.1,0.4c0,0,0.5-0.2,1.1-0.7c0.8-0.6,1.7-1.2,2.2-1.3
				c1-0.3,2.1,0.3,2.1,0.3c0.1-0.1,0.2-0.1,0.3-0.1c0.3,0,0.4-0.1,0.6-0.1c0,0.3,0.2,0.9,0,1.4c0.2,0.1,0.4,0.2,0.6,0.3
				c-0.1,0.2-0.3,0.8-0.8,1.1c0.3,0.2,0.4,0.3,0.9,0.5c-0.2,0.3-0.5,0.7-0.7,1c-0.1,0.3-0.7,1.6-0.9,2c-0.2,0.5-0.6,1.4-0.7,1.5
				c-0.2,0.2-0.7,0.9-1.2,1.3c0.4-0.1,2-0.6,2.6-0.8c-0.2,0.3-1.2,1.8-2.2,3.2C106.1,84.1,94.8,85.4,84.4,82.1L84.4,82.1z"/>
			<path class="st18" d="M76.7,39.8c0,0-0.6,0-0.7,0.1c-0.1,0.1,0.6,0.2,0.8,0.3s0.7,0.4,0.8,0.7c0.1,0.3,4,1.9,4,1.9l2.8-0.1l1-1.3
				l-1.8-1.6l1.3-3.8l-1.7,0.3l-4.1,2.4l-2,0.8L76.7,39.8L76.7,39.8z"/>
			<path class="st19" d="M82.8,41.1c0.1,0.1,0.2,0.2,0.4,0.2c0.6,0,1.1,0.1,1.3,0.4c0.4,0.5,1.4,2,1.4,2l2.4,0.9l0.2-2.9l-2.7-1.9
				l-3,1.1L82.8,41.1L82.8,41.1L82.8,41.1z"/>
			<path class="st20" d="M82.4,42.1c0,0,0.4,0,1-0.2c0.6-0.2,1.5-0.7,1.9-0.5c0.6,0.2,0.4,1,1.1,1.7c0.4,0.4,1,0.4,1.4,0.8
				c0.4,0.4,1.7,0.2,1.7,0.2l0.5,2.7l-2,2.6l-0.7,3.2h-2.7l-2.5-1l-1.2-2.9l0.6-3L82.4,42.1L82.4,42.1z"/>
			<path class="st21" d="M87.6,42.3c0.1,0,0.1,0,0.2,0c-0.1,0.1-0.2,0.2-0.2,0.6c0.1,0.4,0.3,0.8,0.1,1.1c0.1,0.2,0.2,0.3,0.3,0.5
				c0.1,0.3,0.1,0.6,0.9,0.7c-0.1,0.1-0.2,0.1-0.3,0.2c0,0,0.5,0.4,0.8,0.8c0.3,0,0.9-0.2,0.9-0.2l0.1,0.1l0.3-0.1
				c0,0-0.3-0.1-0.1-0.8c0.2-0.6,0.4-0.6,0.4-0.6c0,0,0.1-0.7,0.1-0.9c0.1-0.3,0.2-1.4,0.2-1.4L91.2,40L90,39.3l-0.9-0.9l-0.9,1.7
				l-0.6,0.6l0,1.5L87.6,42.3L87.6,42.3z"/>
			<path class="st22" d="M90.4,40.4c0,0,0.2,0.6,0.3,1c0-0.1,0-0.2,0-0.3c0,0,0.2,0.9,0.2,1.3c0.1,0,0.1,0,0.1,0
				c0,0.1,0.2,0.8,0.1,1.2c0.3-0.4,0.6-0.8,1.1-1.1c0.3-0.2,0.6-0.3,0.9-0.3c0.5,0,0.9,0.3,1.5,0.3c1.4,0,2.7-1.1,3.7-1.4
				c0.7-0.2,1.3-0.4,1.7-0.8c0.2-0.2,0.6-0.6,0.9-1.1c0.4-0.8,0.9-1.4,1.4-1.5c-0.2,0-0.4,0.1-0.6,0c0,0,0.1-0.1,0.4-0.3
				s0.5-0.4,0.9-0.4c0.7,0,1.1,0.1,1.5,0.1c0.4,0,0.7-0.1,0.7-0.1s0.4,0.3,1.4,0.3c1,0,1.6,0.1,2.1,0.1c0.5,0,2.2-0.1,2.7-0.1
				c0.3,0,0.6,0.1,0.9,0.2l-1.6-4.6l-5.7-5l-3.4,2.4l-5.2,5.2l-5,1.9l-1.1,1.2L90.4,40.4L90.4,40.4z"/>
			<path class="st23" d="M101.7,37.7c0,0,0.1-0.1,0.4-0.3c0.2-0.2,0.5-0.4,0.9-0.4c0.7,0,1.1,0.1,1.5,0.1c0.4,0,0.7-0.1,0.7-0.1
				s0.4,0.3,1.4,0.3c1,0,1.6,0.1,2.1,0.1c0.5,0,2.2-0.1,2.7-0.1c0.3,0,0.6,0.1,0.9,0.2l-0.7-2.1l-0.8-1.6l-2.4-2.6
				c0,0-2.9-1.7-2.9-1.7c0,0-1-0.3-1-0.3l-2.6,1.6l-2.3,6.1l0,1.3l1.5,0.7c0.4-0.6,0.8-1.2,1.2-1.2C102,37.7,101.7,37.7,101.7,37.7
				L101.7,37.7L101.7,37.7z"/>
			<path class="st24" d="M101.7,38.2c-0.2,0-0.4,0-0.5-0.2c-0.2-0.5-0.3-0.6-0.5-0.6s-0.4,0.3-0.5,0.4c-0.1,0-0.3-0.4-0.3-0.4
				l-0.1-0.1c0,0-0.8,0.5-1.4,1.2c-0.6,0.6-1.6,1.7-2,1.9c-0.4,0.2-1.9,0.3-2.4,0.4s-1.1,0.5-1.2,0.6s0.2,0.2,0.3,0.3
				c0,0.1-0.5,0-0.5,0.1c0,0.1,0.1,0.4,0.2,0.6c0.1-0.1,0.3-0.1,0.4-0.1c0.5,0,0.9,0.3,1.5,0.3c1.4,0,2.7-1.1,3.7-1.4
				c0.7-0.2,1.3-0.4,1.7-0.8c0.2-0.2,0.6-0.6,0.9-1.1C101.2,38.8,101.5,38.4,101.7,38.2L101.7,38.2L101.7,38.2z"/>
			<path class="st25" d="M81.1,70.2c0,0-0.1-0.5-1.3-1.7c-0.3-0.3-0.5-0.6-0.8-0.8c-0.6-0.5-0.9-0.7-1.3-1c-0.9-0.7-1.8-0.7-2.6-1.5
				c-0.7-0.8-1.6-2.3-2.2-3.9c-0.6-1.6-0.8-2.1-0.8-2.1c0,0,0.2-0.3,0.4-0.3c0.2,0,0.2,0.4,0.3,0.5c0.1,0.2,0.2,0.3,0.3,0.4
				c0.3,0.3,0.7,0.8,1,1.4c0-0.5-0.2-1.1-0.2-1.1s1.1,0.7,2.1,1.5c1,0.8,1.4,1,1.7,1.5c0.3,0.5,1,1.7,1.3,2.1
				c0.3,0.4,4.7,1.8,4.7,1.8l2.1,1.6l1,2.3L86,72.1l-1.6,0.3l-2.5-1.1L81.1,70.2L81.1,70.2L81.1,70.2z"/>
			<path class="st26" d="M75.4,62.3c0,0,0.5,0.8,1.8,1.7c1.2,0.7,3,1.3,4.7,1.7c0.9,0.2,1.9,0.4,2.7,0.4c2.3,0,3.9-0.6,5.8-0.8
				c1.1-0.1,2.3-0.2,3.7-0.5c1.7-0.4,2.8-0.9,4.1-1.5c1-0.5,1.9-0.8,2.7-1.3c1.1-0.6,1.8-1.3,2.7-1.5c-0.1,0.3-0.2,0.8-1.1,1.4
				c0.5,0,1.1,0,1.1,0s-0.6,0.4-1.7,1.2c-0.7,0.5-1.6,1.4-2.5,2c-0.6,0.4-1.2,0.6-1.7,0.9c-1,0.6-1.4,0.8-2.1,1.5c0.2,0,0.3,0,0.3,0
				s-0.8,0.1-1.5,0.4c-0.1,0-0.3,0-0.7,0.1c-0.3,0.1-0.7,0.3-1.1,0.4c-0.6,0.2-0.8,0.1-0.8,0.1l0.1,0.2c0,0-0.8,0-1,0c0,0,0,0,0,0
				c0,0-0.1,0-0.1,0c-0.1,0.1-0.3,0.1-0.4,0.2c-0.1,0-0.1,0-0.2,0c0,0.1,0.3,0.5,0.4,0.8c-0.1,0.1-1.6,1.2-1.6,1.2
				c0,0.1,0.1,0.1,0.1,0.2c0,0.1,0.1,0.3,0.1,0.4c0.1,0.2,0.2,0.2,0.2,0.2s-0.2,0-0.5,0.1c-0.3,0.1-0.6,0.2-1,0.2
				c-0.1,0-0.3,0-0.4,0c0.1,0.1,0.3,0.7-0.2,1.3s-0.7,0.7-0.8,1.1c-0.1-0.1-0.2-0.1-0.3-0.2c-0.2-0.1-0.4-0.2-0.5-0.3
				c0,0.2-0.1,0.4-0.2,0.6c-0.2,0.4-0.4,0.9-0.4,1.2c-0.2-0.2-0.5-0.6-0.9-0.5c-0.4,0.1-0.8,0.7-0.9,0.9c0-0.1-0.1-0.2-0.1-0.1
				c0,0.1-0.3,1.6-1.6,2.8c0-0.3,0-1,0-1.2c-0.1,0.1-0.3,0.3-1.2,0.7c-0.9,0.4-0.8,0.8-0.8,0.8S79.5,78.6,80,78c0.5-0.7,0.8-1,0.8-1
				c0-0.1,0-0.1-0.1-0.1c-0.1-0.1-0.2-0.1-0.2-0.2c0.1,0,0.8-0.4,0.8-1.2c0-0.7-0.3-1-0.5-1.3c0,0,0.3-0.3,0.3-0.3
				c0,0-0.4-0.3-0.5-0.5c0-0.1,0-0.2,0.1-0.3c0-0.1,0.1-0.2,0.1-0.3c0-0.2-0.2-0.6-0.3-0.7c0,0,0.4,0,0.4,0s-0.3-0.4-0.3-0.6
				s-0.1-0.7-0.2-0.8c0.1,0,0.4,0,0.4,0c0-0.1-0.2-0.3-0.1-0.4c0.1,0,0.2,0.1,0.4,0.3c-0.1-0.2-0.2-0.6-0.5-0.8
				c0.1,0,0.6-0.2,0.9,0.1c0.4,0.2,0.5,0.5,0.5,0.5s0.2,0.2,0.6,0.4c0.4,0.3,0.9,0.8,1.7,1.1c0.2,0.1,0.6,0.1,0.9,0
				c0.1,0,0.3-0.1,0.4-0.2c0,0,0.1,0,0.1-0.1c-0.1-0.1-0.1-0.3-0.2-0.4c0.1,0,0.2,0,0.2,0s0.1-0.2-0.3-0.5c0.1-0.1,0.2-0.1,0.2-0.3
				c-0.1,0-0.3-0.2-0.3-0.2c0.1,0,0.2-0.2,0.3-0.2c-0.1-0.1-0.3-0.4-0.4-0.4c0.1,0,0.2-0.1,0.3-0.1c0,0-0.5-0.1-0.7-0.3
				c-0.2-0.1-0.4-0.3-0.6-0.4c-0.2-0.1-0.4-0.1-0.6-0.2c0.1,0,0.3,0,0.4,0c0.1,0,0.1,0,0.2,0c0,0,0-0.1,0.2-0.2
				c0.1,0,0.2-0.1,0.3-0.1c0,0-0.2,0-0.5-0.3c-0.3-0.3-0.5-0.5-0.7-0.5c-0.2,0-0.5,0.1-0.7,0.1c-0.3,0-0.4-0.2-0.4-0.2
				s-0.9,0.1-2.8-1.1c-1.7-1-2.4-1.9-2.4-1.9c-0.2-0.1-0.3-0.1-0.4-0.2C76.3,63.9,75.4,63.2,75.4,62.3L75.4,62.3L75.4,62.3z"/>
			<path class="st27" d="M99.2,23.5c0.1,0,0.3,0.1,0.4,0.3c0.3,0.3,0.5,1-0.2,1.7c0.3,0.1,0.4,0.1,0.6,0.1c-0.2,0.3-0.8,0.9-0.8,1.4
				c0,0.4,0.2,0.6,0.2,0.6s-0.4,0.5-0.4,1.3c0.2-0.2,0.4-0.4,0.6-0.6c0.5-0.4,1.1-0.8,1.6-1.1c0,0.1,0,0.2,0,0.3
				c0,0,0.8-0.7,1.5-0.4c0.3,0.1,0.2,0.6,0.2,0.6s0.4-0.2,0.7,0.1c0.3,0.3,0.7,1.1,1,1.4c0.1,0.1,0.3,0.4,0.6,0.8
				c0.4,0.6,0.6,1.2,0.9,1.9c0-0.3,0.1-0.9,1.1-0.5c1,0.3,2,1,3,2.4c0.9,1.4,1.1,3,1.6,3.6c0.5,0.6,0.9,1.5,1,1.9
				c0,0.4-0.1,1.7,0.8,5.2c0.3-1.1,0.7-3.5,0.7-3.5l0.2-2.1l0.3-6.6l-6.9-5.7l-5.4-3.9L99,23L99.2,23.5L99.2,23.5L99.2,23.5z"/>
			<path class="st28" d="M112,33.3c0,0-0.1-0.6-1.7-1.7c-1.6-1.1-2.9-1.1-4-2c-0.9-0.7-1.8-2.4-2.4-2.9c-0.6-0.5-0.7-2.1-0.7-2.1
				l2-1.7l3-4.3l2.5-2.8l1.2,1.7l1.7,2l0.9,3.9l0.3,5.7L112,33.3L112,33.3z"/>
			<path class="st29" d="M114,40.2c0-0.9-0.1-1.7-0.3-2.6c-0.4-1.3-1.4-3.7-1.8-4.6c-0.2-1,0-1.1,0.1-1.2c0.2-0.1,0.9-0.5,1.3-1.9
				c0.4-1.4,1.6-1.5,1.6-1.5l0.7-0.5l1.1,2.8l1,2.5l0.3,1.9l0.2,1.7l-0.5,3.5l-2.6,2.4L114,40.2L114,40.2L114,40.2z"/>
			<path class="st30" d="M77.5,79.1L77.5,79.1c0.1-0.1,0.1-0.1,0.1-0.2c0-0.1,0.1-0.1,0.1-0.2c0.1,0,0.4-0.1,0.5-0.1
				s0.6,0.2,0.8,0.2c0.5,0,1-0.4,1.9-0.2c1.3,0.2,1.6,1.1,2.3,1.6c0.5,0.3,1,0.2,1.1,0.2h0.2c0,0,0.3-0.3,0.4-0.3
				c0.3,0,0.3,0.2,0.4,0.2c0.4,0,1.1-0.2,1.5-0.1c0.2,0.1,0.4,0.2,0.5,0.5c0.1,0.2,0,0.5-0.2,0.7c-0.4,0.4-0.8,0.7-0.9,1
				c0.1,0.1,0.2,0.2,0.3,0.2C83.4,81.9,80.3,80.7,77.5,79.1L77.5,79.1z"/>
			<path class="st31" d="M111.9,66.1c0,0,1-1.3,1.4-2c0.3-0.7-1.1-9.4-1.1-9.4l2.9-9.6L115,42c0,0,0.1-2.9,0.5-4.1
				c0.4,0.7,1.7,1.6,1.9,2c0.1-0.9,0.6-2.7,0.5-4.7c0.2,0.4,0.8,4.1,0.8,4.1l0.6,2.5l0.8,2.7l0.8,2.8l0.5,1.9l0.3,0.5l0.2,0.8
				l0.2,0.9l0.7,2.1l0.4,1.7l0.3,3.1c0.1,0.2,0.1,0.5,0.1,0.7c0,0.3,0,0.5,0,0.6c0,0.1,0.1,0.7,0.1,1.2c-0.1,0.5-0.1,0.9-0.5,1.3
				c-0.4,0.4-0.7,2.6-0.7,2.6l-0.7-0.5c0,0,0.1-0.7-0.2-1.2c-0.3-0.6-1-0.7-1.4-0.6c-0.4,0.1-1.1,0.2-1.3,0.4
				c-0.2,0.2-0.8,0.8-1.3,1.1c-0.6,0.4-1.7,0.4-2.2,0.5c-0.6,0.1-1.2,0.5-1.8,1C113,65.6,112.5,65.9,111.9,66.1L111.9,66.1
				L111.9,66.1z"/>
			<path class="st32" d="M111.9,80.3c0,0,0,0,0.1,0.1c4.6-2.2,8.7-5.2,12.1-9c0-1.3-0.1-2.7-0.1-3.2c-0.1-1.1,0-2.1-0.1-2.8
				c0-0.6-0.4-3.2-0.5-3.8c-0.2-0.7-0.5-1-0.6-1c0,0-0.3,1.2-0.3,1.5c0,0.3-0.1,1-0.1,1.2c0,0-0.1-0.1-0.1-0.2
				c-0.1,0.2-0.1,0.4-0.2,0.5c0,0,0-0.3,0-0.3c0-0.1-0.1,0-0.1-0.2c0-0.1,0-0.2,0-0.3c0,0-0.2,0.3-0.3,1c-0.1,0.7-0.1,0.7-0.2,0.8
				c0,0.1-0.3,0.3-0.3,0.4c0,0.2,0.2,0.3,0.3,0.4c0,0.2-0.2,0.9-0.3,1.3c-0.1,0.4,0,1.1-0.1,1.5c-0.1,0.3-0.1,0.5-0.3,0.7
				c0.2,0,0.3,0.1,0.3,0.1s0.2,1-0.3,1.8c-0.2,0.3-0.3,0.4-0.5,0.7c-0.4,0.5-0.8,1-0.8,1.4c0-0.1,0-0.2,0-0.3c0,0-0.7,0.8-1,1.2
				c-0.4,0.6-0.9,0.5-1,0.7c-0.1,0.1-0.2,0.4-0.1,0.6c-0.1,0-0.4,0.1-0.5,0.6c-0.1,0.3-0.3,0.5-0.6,0.7s-0.7,0.2-0.9,0.3
				c0.2,0,0.2,0,0.3,0.1c-0.1,0.2-0.5,0.4-1,0.7c-0.5,0.3-0.7,0.8-0.9,1c-0.1,0.3-0.3,0.4-0.6,0.5c0.1,0.1,0.3,0.3,0.4,0.3
				c-0.1,0-0.4,0-0.8,0.4C112.3,80.1,112.1,80.2,111.9,80.3L111.9,80.3L111.9,80.3z"/>
			<path class="st33" d="M102.9,83.3c0.2-0.2,0.5-0.3,0.8-0.4c1-0.4,2.1-0.5,2.5-0.6c0.4-0.1,0.7-0.3,1.2-0.4c0,0.1,0,0.2,0,0.3
				C105.9,82.6,104.4,83,102.9,83.3L102.9,83.3z"/>
			<path class="st34" d="M121.5,56.7c0,0-0.2,1.1-0.6,1.8c-0.4,0.7-0.8,1.7-0.8,1.7c0-0.2,0-0.4,0.1-0.7c-0.5,0.3-1.6,0.9-1.9,1.2
				c-0.3,0.3-0.8,0.8-0.9,1c0.3-0.9,0.6-1.7,0.7-2.1c-0.5,0.3-2.6,2.1-3.8,3.3l-3.5,2.9c-0.4,0.2-0.8,0.4-1.3,0.6
				c-0.6,0.3-1.3,0.5-1.9,0.7c0.1-0.4,0.4-0.7,0.7-1c0.3-0.3,1.3-1.4,1.5-1.9c0.1-0.5,0.2-0.8,0-1.3c-0.2,0-0.6,0.1-0.8,0.1
				c-0.3,0.1-0.6,0.4-0.6,0.4s0.2-1.2,0.7-2.3c-0.3,0-0.9,0.1-0.9,0.1s0.8-1.3,2.2-2.3c-0.4,0.1-0.8,0.2-1.2,0.4
				c-0.8,0.3-1.7,0.8-2.3,1.1c0.4-0.5,3-4.2,4.5-7.7c1.5-3.4,2.1-4.3,2.4-6.2c0.2-0.9,0.1-2.3,0.2-3.5c0-1.2,0.2-2.3,0.1-3
				c0.4,0.5,1.9,1.9,2,5c0,3.1-1.4,7.4-3,9.7c0.4,0.1,1.4,0.2,2.4-1.5c1-1.8,1-2.3,1.4-3c0,0.4,0,0.5,0,0.5s1.5-1.8,2.2-4.1
				c0.1,1,0.6,1.8-0.1,3.6c-0.6,1.6-1.4,2-1.4,2s0.4-0.1,0.9-0.4c0.1,0.2,0.1,0.5,0.2,0.6c0.2,0.1,0.4,0.3,0.4,0.4
				c0.2-0.3,0.4-0.6,0.5-0.8c-0.1,0.5-0.1,2.8,0.1,3.9c0.5,0,1-0.1,1.4-1c-0.2,0.9-0.2,1.4-0.1,2.2C121.3,57,121.5,56.7,121.5,56.7
				L121.5,56.7L121.5,56.7z"/>
			<path class="st35" d="M104.7,21c0,0-0.5,0.2-1.3,0.2c-0.7,0-0.5-0.3-1.7-0.3c-1.8,0-8,1-9.1,1c-0.7,0,2.4,0.3,2.4,0.3l7.9,0.1
				l1.6-0.1l0.6-1.2L104.7,21z"/>
			<path class="st36" d="M84.3,36.5c0,0-1,0.8-1.4,1.4s-0.7,1-1.1,1.5c0.1,0,0.2,0,0.3,0c0,0,0,0.1-0.1,0.2c0.1,0,0.3,0,0.4,0.1
				c-0.1,0.1-0.5,0.5-0.2,0.9c0.2,0.3,0.7,0.4,0.7,0.4s-0.1,0.3,0.3,0.3c1,0,2.1-0.5,2.6-0.4c0.5,0.1,0.8,0.2,1.2,0.8
				c0.4,0.6,0.7,0.7,0.7,0.7s0.2-0.6,0.2-1.4c0.2-0.5,0.3-1,0.3-1.5l-0.3-2.5L86.3,35l-1.9,1.1L84.3,36.5L84.3,36.5z"/>
			<path class="st37" d="M86.1,36.1c0,0,0.1,0.3,0.7,0.4c-0.1,0.1-0.1,0.2,0,0.3c0,0.1,0,0.3,0,0.3c0.1,0,0.1-0.1,0.2-0.1
				c0,0.1,0,0.4,0,0.5c0,0.1,0.1,0.2,0.1,0.3c0,0,0,0,0-0.1c0,0,0.1,0.3,0.4,0.6c0,0,0-0.1,0-0.1c0,0.1,0,0.2,0.1,0.2c0,0,0,0-0.1,0
				c0,0,0,1,0.2,1.6c0,0,0.1-0.1,0.1-0.1c0,0,0,0.3,0,0.5c0,0.2,0,0.5,0,0.5c0.1-0.1,0.2-0.2,0.4-0.2c0.2-0.1,0.5-0.3,0.7-0.8
				c0.1-0.3,0.2-0.6,0.3-0.9c0.1,0.1,0.1,0.3,0.1,0.4c0,0.2,0.3,0.1,0.3,0.1l0.1-0.7l0.4-1.6l0.3-1l1.7-2.6l3-2.3l2.7,0.6l2.2-3
				l-3.9-2.3l-3.7,0.4l-3.3,4.6l-2.7,4.2L86.1,36.1L86.1,36.1L86.1,36.1z"/>
			<path class="st38" d="M105.2,29.5c0,0-0.2,0-0.9,0.4s-1.1,0.4-1.4,0.9s-0.3,0.9-0.3,0.9s0.4-0.2,0.7-0.3c0.3-0.1,0.6,0,0.5,0.1
				c0,0.1-0.1,0.1-0.1,0.2c0,0,0.5,0,0.5,0.2c0,0.3-0.1,0.5-0.2,0.7c-0.1,0.1-0.5,0.3-0.5,0.5c-0.1,0.3,0,0.3,0,0.6
				c0,0.2-0.3,0.7-1,1.5c-0.7,0.8-1,1.4-1,1.4s-0.3-0.7-0.5-1.2c-0.1,0.1-0.8,0.4-0.8,0.4l-1.6-5.5l0-0.4c0,0,0.1-0.2,0.2-0.5
				c-0.2-0.1-0.3-0.1-0.6-0.4c-0.3-0.3-0.6-0.7-1.1-0.9c-0.1-0.1-0.2-0.3-0.6-0.4s-0.6-0.1-0.6-0.1s0.2-0.1,0.3-0.2
				c-0.2,0-0.4,0.1-1,0.1c-0.5,0-0.6,0-0.9,0c-0.3,0-0.6,0.2-0.8-0.3c-0.1-0.1-0.4,0-0.7,0.4c-0.3,0.4-0.3,0.7-0.8,0.8
				c0,0.2-0.1,0.4-0.2,0.6c-0.1,0.2-0.4,0.5-0.7,0.8c-0.5,0.6-0.4,1.5-1.2,2.2c-0.8,0.7,0.1-2,0.1-2l1.2-2.9l3.5-3.4l5.4-0.4
				l0.5,2.8l2.7,0.9L105.2,29.5L105.2,29.5L105.2,29.5z"/>
			<path class="st27" d="M106,30.1l-2.3-3.3l-1.6-1.2c0,0-1.1-2.1-1.2-2.2c-0.1,0-1.1-0.2-1.8-0.2l0.1,0.3c0.1,0,0.3,0.1,0.4,0.3
				c0.3,0.3,0.5,1-0.2,1.7c0.3,0.1,0.4,0.1,0.6,0.1c-0.2,0.3-0.8,0.9-0.8,1.4c0,0.4,0.2,0.6,0.2,0.6S99.1,28,99,28.8
				c0.2-0.2,0.4-0.4,0.6-0.6c0.5-0.4,1.1-0.8,1.6-1.1c0,0.1,0,0.2,0,0.3c0,0,0.8-0.7,1.5-0.4c0.3,0.1,0.2,0.6,0.2,0.6
				s0.4-0.2,0.7,0.1c0.3,0.3,0.7,1.1,1,1.4c0.1,0.1,0.3,0.4,0.6,0.8c0.4,0.6,0.6,1.2,0.9,1.9c0-0.3,0.1-0.6,0.5-0.6L106,30.1
				L106,30.1z"/>
			<path class="st39" d="M71.8,39.4c0,0-0.2-0.4,0-1.2s0.4-1.2,0.5-2.3s0.8-2.6,0.8-2.6l2.1-0.9l1.5,0.4l0.4,2l-1.9,1
				c0,0-0.1,0.4-0.6,0.8c-0.5,0.3-1.2,0.6-1.4,1C73.1,37.8,73,38,73,38.3c0,0-0.5-0.1-0.8,0.2C71.8,38.8,71.8,39.2,71.8,39.4
				L71.8,39.4z"/>
			<path class="st40" d="M76,38.9c0,0-0.2,0.1-0.3,0.4c-0.1-0.2-0.4-1.4-0.4-2.5s-0.1-1.4,0.2-1.8c0.3-0.4,1.3-0.8,1.1-1.5
				c-0.1-0.7-0.7-0.9-1.5-0.7c-0.5,0.1-0.9,1.2-1.4,1.8c-0.4,0.4-0.9,0.3-1,0.6c-0.2,0.3,0,0.6-0.1,0.8c0,0.1-0.2,0.4-0.5,0.8
				c-0.6,0.8-1.6,2-1.7,3.1c0-0.6,0-0.6,0.2-1.3l-0.1-0.2l0.6-2.1l0.4-1.7l0.9-2.9l1.6-3l1.6-1.8l1.7,0.1l0.2,2.5l0.9,4.7l2,2.4
				l-3.2,2.1L76,38.9L76,38.9L76,38.9z"/>
			<path class="st41" d="M77,39.8c0,0-0.3,0.1-0.4,0c-0.1-0.1-0.2-0.1-0.2-0.2c0-0.1,0.2-0.2,0.2-0.2c0-0.1-0.1-0.2-0.2-0.2
				c-0.1,0-0.2,0.1-0.2,0.1s-0.1-0.1-0.3-0.1c0.1,0,0.1,0,0.2,0c-0.2-0.1-0.4-0.1-0.6-0.2c0.2-0.1,0.5-0.4,0.7-0.4s0.3,0,0.3-0.1
				s-0.2-0.3-0.4-0.3c0.1-0.1,0.1-0.2,0-0.5c-0.2-0.3-0.1-0.5,0-0.6c0-0.1,0.2-0.3,0.3-0.4s0.1-0.3,0.3-0.3c0.1,0,0.3-0.1,0.5-0.2
				c0.2-0.1,0.4-0.2,0.5-0.1c0.1,0.1,0.1,0.2,0.1,0.2s0.4-0.2,0.8,0c0.4,0.2,1.4,0.3,1.4,0.3l0.4,0.7l-2.3,2l-1,0.5L77,39.8L77,39.8
				L77,39.8z"/>
			<path class="st42" d="M80.2,36.5c0,0-0.7,0.5-0.9,0.7c0.1,0,0.3,0.1,0.2,0.2c-0.1,0.1-0.5,0.4-0.8,0.8c-0.3,0.3-0.5,0.7-0.6,0.9
				c-0.1,0.2-0.8,0.7-1.1,0.8c0.5,0,1.6-0.7,2-0.7c0,0.2,0.1,0.4,0.3,0.4c0.2,0,0.9,0.1,1.8-0.4c0.9-0.5,0.6-0.9,1-1.2
				c0.7-0.5,1-0.9,1.4-1.1c0.4-0.3,0.6-0.3,0.6-0.3s0-0.2,0.1-0.2c0.1,0,0.1,0,0.1,0.1c0,0,0.7-0.5,1.5-0.6c0,0,0,0,0,0
				c0,0,0.1,0,0.1-0.1c0,0,0-0.1,0.1,0c0,0,0.1,0.3,0.1,0.4c0.1-0.1,0.4-0.7,0.4-0.7l0.7-1.9v-1.7l-0.5,0.1l-3.8,1.6L80.5,36
				L80.2,36.5L80.2,36.5z"/>
			<path class="st43" d="M91.2,28.2c0.2-0.1,0.4-0.1,0.6-0.2c-0.1,0.2-0.1,0.4-0.4,0.9c-0.3,0.5-0.3,0.6-0.6,1.1
				c-0.3,0.5-0.3,1.3-0.6,1.6c0.1-0.1,0.2-0.1,0.4-0.1c0,0-0.3,0.2-0.4,0.5c-0.1,0.2-0.3,0.7-0.8,1c-0.5,0.3-1.1,0.5-1.7,1.2
				c-0.7,0.7-1.3,1.6-1.7,1.9c0.2-0.3,0.4-0.9,0.5-1.3c0.1-0.4,0-0.9,0.1-1.4c0.1-0.5,0.1-0.9,0.6-1.8c0.5-0.9,1.4-4.1,1.4-4.1
				l2-0.6L91.2,28.2L91.2,28.2L91.2,28.2z"/>
			<path class="st44" d="M89.8,27c0,0-0.6,0.8-0.8,1.6c-0.2,0.8,0,0.7-0.1,1.1c-0.1,0.2-0.1,0.5,0,0.7c0.2-0.3,0.5-0.6,0.8-0.8
				c0.6-0.3,1-0.6,1.3-0.9c0.3-0.3,0.5-0.8,1.1-1.2c-0.2,0-0.6-0.1-0.6-0.1c0.2-0.3,1-0.7,1.7-1.2c0.7-0.5,0.7-0.7,1.8-1.2
				c-0.4,0.1-0.6,0-0.9,0c0.1-0.3,0.6-0.4,1-0.8c0.4-0.4-0.3-1.1-0.3-1.1L91.5,25L89.8,27L89.8,27z"/>
			<polygon class="st45" points="80.6,25.4 80.7,24.8 81.6,23.2 82.7,20.5 82.7,16.7 82.6,14.6 82.7,13.1 82.9,12.7 83,12.5 
				83.8,12.9 85,14.5 85.1,17.5 84,22.3 80.8,25.8 			"/>
			<path class="st35" d="M83.1,12.3c0,0-0.5,0-0.6,2.1c-0.1,2.1-0.2,3.2-0.2,4.3s-0.3,1.7-0.3,2.3s-0.1,1.5-0.4,2
				c-0.1,0.2-0.4,1-1,1.6c-0.7,0.6-1.8,1.1-2,1.1c-0.3,0.1-1.7,0.2-2.3,0.5c-0.2,0.1-0.6,0.2-1,0.6c-0.8,0.7-1.8,2-2.6,3.5
				c-1.2,2.3-2.3,8.7-2.3,8.7l0.3-0.4c0,0,0-0.6,0.6-1.6c0.6-1,0.4-2.1,1.2-4.1c0.3-0.7,0.7-1.7,1.2-2.5c0.7-1.3,1.6-2.5,2.5-3.1
				c1.5-1,3.1-1.2,3.1-1.2l1.7-1.2c0,0,0.3-0.6,0.7-1.3c0.6-0.9,1.3-2,1.4-3.5c0.2-2.3-0.3-3.8-0.3-5.1c0-1.3,0-2.3,0.3-2.6
				C83.3,12.2,83.1,12.3,83.1,12.3L83.1,12.3L83.1,12.3z"/>
			<path class="st46" d="M83.1,22.5c0,0,0.8-1.9,1.1-3.6c0.1-0.3,0.2-0.7,0.2-0.9c0.2-1.6,0.2-2.2,0-3.1c-0.2-0.6-0.8-1.2-1.1-1.7
				c-0.3-0.5-0.5-0.6-0.4-0.7c0.1-0.1,0.3-0.3,0.6-0.2c0.5,0,1,0.2,1.4,0.6c0.5,0.6,0.9,2.5,0.9,2.5l0.4,2.6l1.1,3.2L83.1,22.5
				L83.1,22.5L83.1,22.5z"/>
			<path class="st47" d="M90.3,20.5c0,0-0.1,0.1-0.4,0c0,0.2-0.1,0.4-0.3,0.5c-0.3-0.1-2.8,0.1-2.8,0.1s-1.2-0.2-1.6-1.8
				c-0.3-1,0.2-2.5,0-3.4c-0.2-1.4-0.5-1.7-0.6-2.1s-0.1-0.5-0.1-0.8c-0.1,0-0.2-0.1-0.4-0.1c0-0.1,0-0.2-0.1-0.5
				c0.1,0,0.6,0.1,1.2,0.7c0.5,0.5,0.5,0.7,0.6,0.8c0.1,0.1,0.9,0.8,1.2,1.4c0.3,0.7,1,2.8,1.1,3.2c0,0.1,0.1,0.3,0.4,0.6
				C89.2,19.6,89.7,20.4,90.3,20.5L90.3,20.5L90.3,20.5z"/>
			<path class="st35" d="M86.1,14c0.4,0.6,0.7,1.3,1.1,2c0.4,0.9,0.6,1.6,1.1,2.1c-0.3-0.8-0.7-2.2-1-2.8C87,14.8,86.4,14.2,86.1,14
				L86.1,14L86.1,14z"/>
			<path class="st48" d="M81.7,24.6c0,0-0.7,0.2-1.9,0.8c-0.4,0.2-0.8,0.4-1.2,0.5c-1,0.4-2,0.8-2.8,1.1c0.1,0.1,0.1,0.1,0.1,0.1
				s0,0.3,0.2,0.5c-0.1,0.1-1.4,1-1,3.9c0.3-0.1,0.6-0.2,0.6-0.2c0.1,0,0.1,0.2,0.2,0.2c0.1,0,0.4-0.1,0.8-0.6
				c0,0.2-0.2,1.9,0.8,3.1c0.2-0.2,0.7-1,0.7-1l0-0.2c0,0,0-0.8,0.3-1.6c0.3-0.8,0.8-1.3,0.8-1.3l2.8-4L81.7,24.6L81.7,24.6
				L81.7,24.6z"/>
			<path class="st49" d="M79.2,30.4c-0.1,0.1-0.3,0.2-0.4,0.2c0-0.2-0.1-0.7,0.3-1.3c0.4-0.7,1.4-1.5,1.7-2.2
				c0.2-0.4,0.1-1.5,1.7-2.9c1.6-1.4,2.2-1.9,2.2-1.9l2.5-1.3l3.1,1.2l-1.5,6l-1.2,2.8l-4.7-0.9L79.2,30.4L79.2,30.4L79.2,30.4z"/>
			<path class="st50" d="M81,28.8l0.6-0.7v-0.5c0,0,0.7-0.2,1.4-0.9s1.7-2.1,2.5-2c0.9,0.1,0.9,1.9,1,2.4c0,0.5,0.1,1.6,0.3,2.2
				c0.2,0.6-2.1,2.9-2.1,2.9l-1.6,1.2L81,28.8L81,28.8z"/>
			<path class="st51" d="M82.8,35c0,0,0.5-0.8,0.1-0.9c0.2-0.5,0.6-1,0.6-1s0.3-0.7,1.2-1.5c0.9-0.8,1.4-1.4,1.6-1.9
				c0.1-0.4,0.1-0.7,0.1-1.1c0.1,0.1,0.2,0.1,0.3,0.2c0.1,0.1,0.8,0.6,0.7,1.7s-0.5,1.6-0.5,1.6s-0.4,0.4-0.7,0.6
				c-0.3,0.2-0.4,0.4-0.9,0.5c0.1,0,0.1-0.1,0.2-0.1c0,0-0.5-0.1-0.8,0.2s-0.9,1.1-1.2,1.3C83.1,34.7,82.8,35,82.8,35L82.8,35
				L82.8,35z"/>
			<path class="st52" d="M104.3,22.4c-0.8-0.3-1.6-0.4-2.4-0.5c-1.4,0-3.3,0-5.3,0c-2.1,0-4-0.7-6.6-0.8c-0.4-0.3-1.5-1.4-5,1
				c0.2,0,2.5-0.5,3.3,0.5c0.8,1,0.6,2.7,0.5,3.1c-0.2,0.9-0.9,2.2-1.2,3.1c-0.3,0.9-0.2,1.4-0.4,2c-0.2,0.6-0.6,1-0.4,1.7
				c0.3-0.2,0.5-0.2,1.1-1.5c0.6-1.3,0.4-2.2,1.4-3.2c0.9-1.1,2.4-2.5,3-2.9c0.6-0.4,5.2-2.8,10-0.5
				C103.4,24.3,104.3,22.4,104.3,22.4L104.3,22.4L104.3,22.4z"/>
			<path class="st53" d="M86.9,21.5c0,0,0-0.1,0-0.1c0-0.1-0.1-0.2-0.2-0.3c0,0-1.1-0.2-1.7-0.1c-1,0.1-1.9,1.4-2.3,2
				s-1,1.6-1.5,2.1c0,0,0-0.1,0-0.1c0,0,0,0,0,0.1c-0.1,0.1-0.1,0.1,0,0.1l0.1,0.1c0,0,0.9-0.4,2.1-1.5c1.3-1.2,2.3-1.8,2.8-2
				C86.4,21.6,86.6,21.5,86.9,21.5L86.9,21.5L86.9,21.5z"/>
			<path class="st54" d="M109,16.6c0,0-0.2,0.3-0.5,0.5c-0.6,0.6-1.3,1.3-2,2c-0.6,0.7-1.3,1.2-2.1,2.1c-0.8,0.9-1.7,1.9-1.9,2.1
				c-0.2,0.3-0.4,0.8-0.4,1c-0.1-0.1-0.2-0.2-0.2-0.2c0.1,0.1,0.1,0.2,0.2,0.3c0.2,0.2,0.4,0.5,0.5,0.7c0.2,0.2,0.3,0.5,0.3,0.7
				c0.1,0,0.6,0.1,1.2-0.9c0.6-1,1.4-2.1,1.4-2.1l1.3-1.9l0.8-1.6l1-1.8L109,16.6L109,16.6L109,16.6z"/>
			<path class="st35" d="M110.4,15.3c0,0-0.8,0.6-1.1,1c-0.3,0.4-1,1.4-1,1.4l0.3,0l1.3-1.2l0.5-0.9L110.4,15.3L110.4,15.3z"/>
			<path class="st55" d="M110.1,66.8c0,0,0-0.5,0.3-0.8c0.3-0.3,1.1-0.8,1.8-2.5s0.8-2.1,0.8-2.1s-1.3,1.2-2.2,1.4
				c0.2-0.4,0.3-0.7,0.4-0.9c-0.1-0.1-0.6-0.2-0.6-0.3c0.3-0.3,0.4-0.9,0.9-1.3c0.7-0.5,1.9-1.4,2.9-2.2s2.8-2.6,3.1-3.1
				c0.1,0.2,0.2,0.3,0.2,0.3s-0.9,1.2-1.4,2c-0.4,0.7-0.4,1.1-0.4,1.1l0.9-0.4c0,0,0.3,1-0.9,2.4c0.5-0.2,0.7-0.1,1-0.2
				c-0.5,0.3-1.1,0.7-1.8,1.9c-0.6,1.1-1.4,2.5-2.8,3.3C110.9,66.1,110.1,66.7,110.1,66.8L110.1,66.8L110.1,66.8z"/>
			<path class="st56" d="M106.6,23c0,0-0.5,1.1-0.6,2c0,0.2-0.1,0.4-0.1,0.6c0,0.8,0,1.6-0.1,2c-0.1-0.2-0.1-0.3-0.2-0.3
				c-0.1,0.3-0.3,1.1-0.4,1.4c-0.1-0.2-0.2-0.9-0.2-1.8c0-0.8,0-1,0-1.2c0,0.3-0.2,0.6-0.3,0.8c-0.1-0.2-0.2-0.4-0.3-0.6
				c-0.1,0.1-0.2,0.3-0.3,0.4c0-0.1,0-0.3-0.1-0.6c0-0.3,0-0.8,0-0.9c0-0.2,0.3-0.9,0.9-1.5c0.7-0.8,1.4-2.2,1.6-2.6
				c0.2-0.4,1.1-2.3,1.1-2.3h0.7l-1,2.2c0,0-0.6,1.2-0.9,1.7s-0.9,1.7-1.2,2.2c0.2-0.3,0.4-0.4,0.6-0.7
				C106.1,23.8,106.6,23,106.6,23L106.6,23L106.6,23z"/>
			<path class="st57" d="M110.4,15.2c-0.1,0.3-0.3,0.7-0.5,0.9c-0.4,0.5-1.3,1.1-1.7,1.6c-0.4,0.5-1.2,1.9-0.8,3.5
				c0.1-0.3,0.4-1,1-1.8c0.6-0.8,1.3-1.7,1.7-2.4c0.3-0.7,0.4-1.3,0.4-1.3l0.1-0.2l-0.1-0.4L110.4,15.2L110.4,15.2z"/>
			<path class="st35" d="M123.5,58.2c0,0-0.3-0.7-0.3-1.3c-0.1-0.6,0.1-0.8-0.1-1.5c-0.1-0.4-0.4-0.4-0.5-0.4
				c-0.1-0.1-0.1-0.7-0.1-1.1c0-0.4,0-0.8-0.1-1.1c-0.1-0.1-0.2-0.1-0.3-0.6c-0.2-0.5-0.2-0.7-0.3-0.9s-0.3-0.3-0.3-0.4
				c0-0.3,0.3-0.4,0.3-0.5c0-0.2-0.2,0-0.3-0.1c-0.1-0.1,0.2-0.5,0.1-0.6c0,0-0.3,0.2-0.3,0.2c-0.1-0.1-0.1-0.8-0.3-1.4
				c-0.1-0.5-0.2-0.9-0.2-1c0-0.1-0.9-2.7-1.1-3.3c-0.2-0.5-0.3-1-0.4-1.6c-0.1-0.3-0.1-0.9-0.1-0.9c0,0.1,0,0.4-0.1,0.4
				c0,0-0.2-1.1-0.3-1.3c0-0.2-0.3-0.8-0.4-1.2c-0.1-0.4-0.2-1.6-0.3-2.3c-0.1-0.8-0.1-1.1-0.1-1.3c0-0.5,0-0.9-0.1-1.4
				c-0.1-0.8-0.4-1.8-0.6-2.4c-0.4-1.1-1.6-3.9-1.8-4.6c0-0.2,0.2-0.1,0.2-0.1s0.6,1.4,1,2.5c0.4,1.1,0.8,2,0.9,2.1
				c0.1,0.1,0.7,1.2,1,2.9s0.4,3.4,0.5,4.4c0.1,0.5,0.1,1.1,0.3,1.6c0.2,0.6,0.4,1.2,0.8,2.1c0.3,0.8,0.5,1.4,0.7,2
				c0.1,0.7,0.1,1.3,0.2,1.6c0.1,0.3,0.2,0.9,0.5,1.8c0.3,0.9,0.7,2,0.9,2.7c0.5,1.4,0.8,2.6,0.8,3.2
				C123.3,55.3,123.6,57.5,123.5,58.2L123.5,58.2L123.5,58.2z"/>
			<path class="st58" d="M110.4,15.2L110.4,15.2c0,0.1,0.1,0.1,0,0.2c0,0.2,0,0.4,0,0.5c0,0.2-0.1,0.4-0.1,0.5c0,0.3,0,0.7-0.4,1.5
				c-0.1,0.2-0.2,0.4-0.3,0.6c-0.2,0.3-0.2,0.4-0.3,0.6c0.2-0.1,1-0.6,1.5-0.6c-0.3,0.2-0.7,0.5-1,0.9c0.1,0,0.3,0.1,0.8,0
				c0.7-0.1,1.5-0.4,2.2-0.3c0.8,0,0.5-0.9,0.5-0.9l-0.9-2l-1.7-1.2L110.4,15.2L110.4,15.2z"/>
			<path class="st59" d="M114.8,29.8c0,0-0.8-0.8-1.1-3.3c-0.3-2.6-0.2-6.4-0.2-6.4l-0.6-1.5c0,0-0.1-1-0.4-1.4s-0.9-1-1.2-1.3
				c-0.3-0.3-0.6-0.7-0.8-0.8c0.1-0.2,0.5-1.1,2.2-1.1c1.7,0,2.2,0.9,2.3,1.2c0.2,0.3,1,1.8,1.2,4.6c0.3,2.8,0.3,3,0.2,3.9
				c0,0.5-0.2,1.8-0.5,3.1C115.7,28,115.4,29.2,114.8,29.8L114.8,29.8z"/>
			<path class="st56" d="M112.4,32c0.3,0,0.5,0,0.7-0.2c0.2,0,1.1,0.1,1.8-0.8c0,0.2,0.2,0.7-0.1,1.2c0.2-0.2,0.4-0.2,0.4-0.3
				c0,0.2,0.2,1-0.7,2.8c0.3-0.3,0.6-0.3,0.8-0.3c0,0.3,0.2,1.5-0.3,2.1c-0.3,0.4-0.8,0.3-0.8,0.3c0-0.1,0-0.2,0-0.3
				c0-0.2-0.1-0.3,0-0.5c-0.3-0.1-0.5-0.3-0.7-0.5c-0.6-0.5-1.3-1.4-1.3-2.1c-0.1-0.8,0.6-0.9,0.6-0.9c-0.1-0.1-0.1-0.1-0.1-0.2
				C112.6,32.3,112.6,32.1,112.4,32L112.4,32L112.4,32z"/>
			<path class="st60" d="M107.5,23.9c0,0,0,0-0.2,0.2c0-0.2,0.1-0.4,0.1-0.6c0.1-0.2,0.2-0.3,0.3-0.5c-0.1,0.2-0.2,0.4-0.2,0.4
				s0.2-0.4,0.6-0.7c0.2-0.2,0.5-0.3,0.7-0.5c0.1-0.2,0.1-0.2,0.1-0.3c0,0,0.3-0.2,0.8-0.8c0.1-0.1,0.2-0.2,0.2-0.2
				c0.1,0,0.4-0.2,0.7-0.3c0.3-0.2,0.7-0.4,0.9-0.5c0.4-0.2,0.9-0.2,1.1-0.5c0.2,0,0.3-0.5,0.3-0.9c0.2,0.1,1.5,0.9,1.9,2.5
				c0.3,1.2-0.2,3-0.5,3.9c-0.2,0.9-0.3,1.5-0.6,1.9c-0.4,0.5-1.7,1.3-2,1.7c-0.3,0.3-1.1,1.1-1.1,1.6c0,0.4,0.5,0.6,0.7,0.7
				c0.1,0.1,0.1,0.2,0.3,0.1s0.3-0.1,0.4-0.1c0.1,0,0.1,0,0.1,0c0,0,0.1,0,0.1,0c0,0,0,0.6-1.4,0.8c-0.1,0-0.2,0-0.3,0.1
				c0.2-0.1,0.3-0.1,0.4-0.3c-0.2,0-0.8-0.1-0.9-0.1c0-0.1,0.2-0.3,0.3-0.4c0.1-0.1,0-0.1-0.1-0.1c-0.2,0.1-0.3,0.2-0.5,0.4
				c-0.2,0.1-0.3,0.3-0.6,0.5c-0.1-0.3-0.1-0.8,0.2-1.1c-0.1,0-0.2,0.2-0.4,0.2c0-0.2,0-0.5,0-0.7c0.1-0.3,0.5-0.8,0.5-0.8l2-3.6
				l0.4-2.8L107.5,23.9L107.5,23.9L107.5,23.9z"/>
			<path class="st61" d="M107.3,24c0,0-0.1,0.1,0.1,0.2c0,0-0.1,0.2-0.2,0.3c-0.1,0.1-0.2,0.2-0.3,0.3c-0.1,0.2-0.2,0.4-0.2,0.5
				c0,0.1,0,0.7-0.3,1.1c-0.1,0.1-0.2,0.4-0.3,0.5c-0.2,0.3-0.3,0.5-0.3,0.6c-0.1,0.2-0.1,0.8-0.1,0.8s0.1-0.2,0.2-0.2
				c-0.1,0.2-0.2,0.3-0.3,0.5c0.1-0.1,0.3-0.2,0.7-0.6c0.5-0.4,1.4-1.2,2.4-1.8c-0.3,0.1-0.6,0.1-0.8,0.1c0.2-0.2,1.6-1.9,2.4-2
				c0-0.1,0.1-0.1,0.1-0.2l-0.7-0.1l-1.3,0.3l-0.2-1L107.3,24L107.3,24z"/>
			<path class="st62" d="M109.5,29.8c0,0-0.2,0.2-0.3,0.6c-0.1-0.1-0.2-0.3-0.3-0.4c-0.2-0.4-0.6-0.9-1.5-0.6c0-0.3,0-0.4,0-0.6
				c0.1,0,0.6-0.4,1-0.9c0.3-0.3,0.6-0.8,0.8-1.3c0.1-0.1,0.3-0.3,0.6-0.4c0.4-0.3,0.9-0.7,1-1.1c-0.2,0.1-0.6,0.3-1.2,0.2
				c0.2-0.1,0.6-0.2,0.6-0.7c0.1-0.1,0.2-0.1,0.2-0.1c-0.1,0-0.1,0-0.2,0c0,0,0-0.1-0.1-0.1c-0.1,0-0.1,0-0.1,0.1c0,0-0.2,0-0.3,0.1
				s-0.4,0.3-0.5,0.4c0-0.1,0.1-0.2,0.1-0.2s-0.3,0-0.5,0.1c-0.4,0.1-0.9,0.4-1.4,0.7c0-0.1,0.1-0.1,0.1-0.1c0,0,0.1,0,0.1,0
				c0,0,0-0.1,0-0.2c0.1-0.3,0.3-0.6,0.5-0.9c0.2-0.3,0.3-0.7,0.3-0.7l1-0.5l2.8-0.6l1.8,0.1l-0.2,1.2l-1.1,2.2l-0.9,2l-1,1.2
				L109.5,29.8L109.5,29.8L109.5,29.8z"/>
			<path class="st63" d="M114,24.4c0,0-1.1,1.3-1.4,1.6c0.2-0.4,1.4-2.9,1.8-3.6c-0.1-0.1-0.2-0.1,0.1-1.3c-0.3,0.6-0.3,0.9-0.6,1.1
				s-0.2,0.1-0.4,0.1c0,0,0-0.1,0-0.2c0,0-0.9-0.1-1.5-0.1s-1.9,0.3-2.5,0.6c-0.5,0.2-0.8,0.2-1,0.4c-0.2,0.2-0.3,0.3-0.4,0.4
				c-0.1,0-0.4,0.2-0.5,0.3c-0.1,0.1-0.2,0.3-0.2,0.3s0,0.1,0.1,0c0,0,0.3-0.1,0.5-0.3c0.4-0.2,0.8-0.4,1.1-0.6
				c0.9-0.4,1.2-0.3,1.6-0.4c0.4-0.1,1.1-0.3,1.5-0.3c0.4,0,1.2,0,1.4,0c-0.1,0.1-0.1,0.1-0.1,0.4c0,0.1-0.1,0.2-0.1,0.3
				c-0.2,0.5-0.6,1.4-0.8,1.9c-0.3,0.6-0.6,1.1-0.8,1.4c-0.2,0.3-0.5,1.2-0.9,1.6c-0.3,0.4-0.5,0.7-0.6,0.8
				c-0.1,0.1-0.9,0.7-0.8,0.9c0.1,0,1-0.4,1.7-1.1c0.7-0.7,0.8-1.2,1.3-1.6c0.5-0.4,0.9-1.1,1.2-1.6C113.8,25.1,113.7,24.9,114,24.4
				L114,24.4L114,24.4z"/>
			<path class="st64" d="M90.5,34.5c0,0-0.1,0.6-0.5,0.9c-0.3,0.3-0.9,0.5-0.9,1c-0.1,0.5,0.6,0.7,0.6,0.7s-0.3,0.6-0.3,1
				c0,0.4,0,0.5,0,1c-0.1,0-0.1,0.1-0.1,0.1c0,0,0,0.4,0.3,0.7c0.3,0.3,0.6,0.4,0.8,0.3c0,0.1,0,0.1,0.1,0.2c0,0,0.2-0.6,0.4-1.1
				c0.2-0.5,0.3-0.5,0.4-1.2c0.1-0.7,0.8-2,0.8-2l0.5-1.1l-0.8-0.6L90.5,34.5L90.5,34.5z"/>
			<path class="st65" d="M92,35.5c-0.2,0.2-0.3,0.3-0.4,0.5c-0.2,0.3-0.4,0.5-0.7,0.7c-0.3,0.1-0.5,0.1-0.5,0.4
				c0,0.3,0.3,0.4,0.5,0.6c0.2,0.2,0.3,0.4,0.2,0.7c0.1,0,0.3-0.1,0.4-0.4s1.3-2.5,1.3-2.5L92,35.5L92,35.5z"/>
			<path class="st66" d="M96.4,30.6c0,0,0.1-0.3,0-0.4c-0.1-0.2-0.7-0.3-1-0.5c-0.3-0.2-0.7-0.4-1-0.3c0-0.1,0.2-0.3,0.1-0.4
				c-0.1,0-0.7,0.2-0.8,0.3s-0.5,0.2-0.5,0.3c-0.1,0.1-0.2,0.2-0.2,0.2c-0.1,0-0.1-0.2-0.2-0.1c-0.1,0.1-0.6,0.5-0.7,0.8
				c-0.1,0.3-0.3,0.8-1,1.5c-0.7,0.6-0.9,1.1-0.8,1.3c0.2,0.2,0.3,0.1,0.3,0.3c0,0.2,0,0.4,0,0.6c-0.1,0.3-0.2,0.7,0,0.7
				c0.4,0.1,0.9-0.1,1,0c0.2,0.2-0.1,0.8,0.3,0.9c0.5,0.1,0.9-0.1,0.9-0.1l1.7-0.9l1.6-0.9l0.8-1.7l-0.4-1.4L96.4,30.6L96.4,30.6z"
				/>
			<path class="st67" d="M94.8,34.6c0,0-0.3-0.4,0.1-0.8c0.3-0.4,0.8-0.5,1-0.8c0,0-0.1-0.1-0.1-0.1c0.1-0.2,0.3-0.4,0.6-0.5
				c-0.1-0.1-0.2-0.2-0.4-0.2c-0.3,0-0.5,0.2-0.8,0.2c-0.3,0-0.3-0.1-0.3-0.1s0.5,0,0.4-0.3c0-0.2-0.1-0.2-0.1-0.2s0.9-0.4,1.1-0.6
				s0.1-0.4,0.2-0.5c0.1,0,0.8-0.3,1-0.2c0.3,0.1,0.1,0.5,0.1,0.5s0.8-0.6,1.2-1.2c0.3,0,0.5-0.2,0.8-0.2c0.3,0,0.8,0.4,0.9,1.4
				c0.1,0.5,0.2,0.8,0.1,1.8c0,0.5,0,1.7,0.1,2.2c0.1,0.4,0.4,0.4,0.4,0.4c0,0.1-0.1,0.3-0.2,0.3c-0.2,0.2-0.2,0.6-0.2,0.8
				c0,0.1,0.1,0.2,0.1,0.3c0,0-0.2,0.2-0.3,0.4c0,0.2-0.3,0.3-0.4,0.3c-0.2,0-0.1,0-0.3,0c-0.2,0-0.3,0-0.4,0
				c-0.1,0-0.2-0.1-0.2-0.5c0-0.4-1.6-1.4-1.6-1.4L94.8,34.6L94.8,34.6L94.8,34.6z"/>
			<path class="st68" d="M91.8,38.7c0,0,0.6,0.8,3,0.8c1.2,0,1.6-0.1,1.8-0.2c0.3-0.1,1.2-0.4,2.2-1.6c0.9-1,0.7-1.5,0.7-1.5
				l-0.5-0.1l-1.7,0.2l-4.9,2.1L91.8,38.7L91.8,38.7z"/>
			<path class="st69" d="M93.6,38.8c0,0-2.1,0.5-2.1-0.9c0-1.3,1.3-2.7,1.6-2.9c0.3-0.2,1.1-0.5,1.1-0.5h1.9l0.4,1l-0.2,2.1
				L93.6,38.8L93.6,38.8z"/>
			<path class="st70" d="M95.5,35c0,0-0.4-0.4-1.3,0.1c-0.9,0.5-1.7,1.5-1.7,2.5c0,0.8,0.7,1.5,1.8,1.5c0.8,0,1.4-0.1,1.6-0.1
				c-0.1-0.1-0.4-0.5-0.4-0.5L95.5,35L95.5,35L95.5,35z"/>
			<path class="st71" d="M95.1,35.2c0,0-0.1-0.1-0.4,0.1c-0.2,0.1-0.6,0.5-0.9,0.7c-0.2,0.1-0.3,0.2-0.4,0.3
				c-0.4,0.5-0.7,1.3-0.5,1.7c0.2,0.4,0.8,0.8,2.5,0.5L95.1,35.2L95.1,35.2L95.1,35.2z"/>
			<path class="st69" d="M94.6,36c0,0-0.3,0.4-0.3,1c0,0.7,0.4,1.7,1.7,1.8c1,0.1,1.7-1.5,2.5-2.1c0.6-0.5,0.9-0.5,0.9-0.5
				s-0.6-0.6-2.2-1.5c-1.6-0.8-3.3-0.9-4.2,0.3c0.4,0,1.9-0.4,1.9-0.4l0.7,0.2L94.6,36L94.6,36L94.6,36z"/>
			<path class="st72" d="M96.6,36.8c0-0.1-0.1-0.2,0.1-0.3c0.2,0,0.3,0,0.3,0.1c0.1,0.1,0.1,0.3,0,0.3C97,37.1,96.7,37,96.6,36.8
				L96.6,36.8z M96.3,35.9C96.3,35.9,96.2,36,96.3,35.9c0-0.2,0.1-0.3,0.3-0.3c0.2,0,0.2,0.3,0.1,0.3s-0.2,0.2-0.3,0.1
				C96.3,36.1,96.3,36,96.3,35.9C96.3,35.9,96.3,35.9,96.3,35.9L96.3,35.9z"/>
			<path class="st73" d="M78.8,36.3c0,0,0.5,0.4,1.1,0.4c0.6,0,1.3-0.6,1.7-1c0.2-0.2,0.4-0.5,0.6-0.7c0.2-0.2,0.3-0.2,0.3-0.3
				c0.1-0.1,0.2-0.4,0.3-0.4c-0.1,0.1-0.3,0.3-0.6,0.4c-0.2,0.1-0.7,0.4-0.8,0.4c-0.2,0.1-2,1-2,1L78.8,36.3L78.8,36.3z"/>
			<path class="st74" d="M79.6,31.6c0,0,0.3-0.2,0.8-0.3C80.9,31.1,82,31,82,31l0.9,0.4l0.3,1.3l-0.6,1.4l-0.8,0.5l-0.9-1.5
				L79.6,31.6L79.6,31.6L79.6,31.6z"/>
			<path class="st75" d="M78.4,32.7L78.1,33c0,0,0.1-0.1,0.1-0.6c0.1-0.4,0.4-1.5,0.9-2.1c0.5-0.6,0.5-0.6,0.5-0.6
				c-0.1,0-0.2,0-0.3,0.1c0.1-0.1,0.5-0.7,0.9-0.9s0.6-0.3,1-0.1s0.5,0.3,0.9,0.3c0.3,0,0.6-0.3,0.6-0.3s0.1,0.2-0.2,0.7
				c-0.2,0.5-1.2,1.5-1.2,1.5l-2,1.3L78.4,32.7L78.4,32.7L78.4,32.7z"/>
			<path class="st76" d="M79.9,31.4c0,0,1.4,0.2,1.9-0.2c0,0,0.1,0,0.1,0.1c0,0,0,0,0,0.1c0,0,0.1,0,0.1,0c0.1,0,0.1,0,0.2,0
				c0,0,0.1,0,0.1,0c0,0.1,0,0.1-0.1,0.2c0.1,0,0.1,0,0.1,0.1c0,0.1,0,0.2-0.1,0.2c-0.1,0-0.1,0-0.2,0c0,0.1,0,0.2,0.1,0.3
				c0.1,0.2,0.4,0.5,0.8,0.4c0,0,0.2,0.5-0.6,1.5c-0.1,0.1-0.2,0.3-0.4,0.5c-0.1,0.1-0.1,0.3-0.1,0.4c0,0,1.4-0.5,1.8-1.7
				c0.4-1.2,0.5-2.4,0.4-3.5c0-0.3-0.1-0.5-0.1-0.7c-0.2-0.4-0.7-0.3-1-0.1c-0.3,0.3-0.8,1.1-1.6,1.7C80.5,31.1,80.4,31.2,79.9,31.4
				L79.9,31.4L79.9,31.4z"/>
			<path class="st68" d="M78.2,33.1c0,0-0.3,0.2-0.4,0.8c-0.1,0.6,0.1,1.4,0.3,1.6c0.2,0.2,0.5,0.9,1.2,0.9c0.2,0,0.4,0,0.5-0.1
				c0.3-0.1,0.5-0.3,0.7-0.4c0.3-0.2,0.6-0.4,0.5-0.5c-0.1,0-2-1.6-2-1.6l-0.7-0.8L78.2,33.1L78.2,33.1z"/>
			<path class="st77" d="M79.9,35.7c0,0,0.4,0,0.6-0.2c0.2-0.1-1.3-1.7-1.3-1.7l0.1,1.7L79.9,35.7z"/>
			<path class="st78" d="M78.3,33c0,0-0.2,0.4-0.2,0.5c0,0.3,0.1,1.3,0.1,1.6c0.1,0.3,0.5,0.8,1,0.8c0.3,0,0.8-0.2,0.8-0.3
				c0-0.1-0.5-0.1-0.6-0.4c-0.1-0.1-0.1-0.4-0.1-0.8c0-0.2,0-0.4,0.1-0.5c0.2-0.2,0.2-0.8,0.2-0.8l0.6-1.2h-0.8l-1,0.6L78.3,33z"/>
			<path class="st69" d="M78,33.4c0,0,0.6-0.8,1.2-1c0.6-0.2,0.8-0.1,0.8-0.1l-0.3,0.9l-0.5,0.5l0,0.3c0,0-0.1,0.7,0.4,1.2
				c0.5,0.5,0.8,0.5,1,0.5s0.8-0.2,1.1-0.9c0.3-0.7,0.5-1.5,0-2.4c-0.5-0.9-1.5-0.9-1.7-0.9S78.6,31.5,78,33.4L78,33.4L78,33.4z"/>
			<path class="st79" d="M94.5,36.3c-0.2-0.1,0-0.8,0.2-1c0.2-0.2,0.5-0.4,1.1-0.5c0.2,0,0.4,0.1,0.3,0.2c0,0.2-0.4,0.6-0.7,0.8
				C95,36.2,94.8,36.4,94.5,36.3z"/>
			<path class="st80" d="M81.5,32.6c0.2,0,0.4,0.1,0.4,0.3c0,0.2-0.1,0.6-0.4,0.6c-0.3,0-0.4-0.3-0.4-0.4c0-0.1,0-0.2,0.1-0.2
				C81.2,32.8,81.2,32.6,81.5,32.6z"/>
			<path class="st81" d="M79,32.7c0,0-0.4,0.2-0.7,0.6c-0.1,0.3-0.2,0.7-0.1,1c0,0.2,0.2,0.6,0.3,0.7c0.1,0.1,0.3,0.2,0.4,0.2
				c0.1,0,0.3-0.3,0.3-0.5c0-0.2,0-0.9,0.2-1.3C79.7,33.1,79,32.7,79,32.7L79,32.7L79,32.7z"/>
			<path class="st82" d="M79.1,32.7c-0.1,0-0.2,0.1-0.2,0.2c0,0.1,0.3,0.1,0.4,0.3c0.1,0.2,0.1,0.4,0.1,0.5c0.1,0,0.2-0.1,0.2-0.2
				c0.1-0.2,0.3-0.4,0.5-0.4c0.1,0,0.2,0,0.3,0c0.1,0,0.3,0,0.3-0.2c0-0.2-0.3-0.4-0.4-0.3c0-0.1,0.1-0.3-0.1-0.4
				c-0.1-0.1-0.6,0.1-0.7,0.2C79.4,32.5,79.1,32.7,79.1,32.7L79.1,32.7L79.1,32.7z"/>
			<path class="st83" d="M89.4,46.3l1-0.3l0.3,0.2c0,0,0.2,0.4,0.5,0.5c-0.1,0.2-0.3,0.4-0.3,0.5c0,0.1,0.1,0.3,0.1,0.3
				s-0.9,1.4,0.8,2.9c-0.4,0.2-0.9,0.4-1.2,0.5c0.2,0,0.6,0.1,0.8,0.3c0.2,0.2,0.2,0.2,0.3,0.3c0.2,0.1,0.3,0.2,0.2,0.3
				c-0.1-0.1-0.5-0.3-0.5-0.1c-0.1,0.2-1.6,0.1-1.6,0.1l-2.6,0.5c0,0,0.1-0.3-0.2-0.5c-0.3-0.3-0.7,0-1.1-0.3
				c-0.5-0.4-0.6-0.9-0.7-1.1c0.2-0.1,0.5-0.3,1.4-0.4c0-0.1-0.1-0.3-0.1-0.4c0.1-0.2,0.4-0.4,0.3-0.6c0.1,0,0.2,0,0.6-0.5
				c0.3-0.4,0.5-0.5,0.8-0.6c0.3,0,0.4,0,0.9-0.4c0.3-0.3,0.2-0.6,0.2-0.6S89.4,46.8,89.4,46.3L89.4,46.3L89.4,46.3z"/>
			<path class="st84" d="M86.5,46.4c0-0.1,0.1-0.1,0.4-0.1c0.3,0,2.6-0.2,3.2-0.2c0.6,0,2.8,0,3.8,0.2c1,0.2,2.1,0.5,2.6,0.6
				c0.5,0.1,0.7,0.2,0.7,0.3c0,0.1-0.1,0.1-0.2,0.1c-0.1,0-1.8-0.5-2.3-0.6c-0.5-0.1-2.3-0.4-3.3-0.4c-0.9,0-1.3,0-2.1,0.1
				c-0.8,0.1-2.1,0.2-2.5,0.2C86.4,46.5,86.5,46.5,86.5,46.4L86.5,46.4L86.5,46.4z"/>
			<path class="st85" d="M91.7,51.5c0,0,1.3,0.7,1.8,1.6c0.3,0.7-0.2,1-0.2,1s0.8,0,0.7,0.4c0,0.3-1.3,1-2.1,1.3
				c-0.8,0.4-0.8,0.3-1.2,0.4c-0.4,0.1-1.5-0.1-1.7,0.2s-0.1,0.7-0.1,0.7c0.1,0,0.6,0.1,0.6,0.1s-0.1,0.3-1.2,0.3
				c-1.1,0-1.4,0.1-1.4,0.2c-0.1,0.1,0.2,0,0.7,0.1c0.5,0.1,1.2,0.1,1.2,0.1s-0.2,0.2-0.8,0.3c-0.7,0.2-1.7,0.3-2,0.5
				c0.2,0.1,0.4,0.3,0.5,0.3c-0.3,0.1-0.7,0.2-0.7,0.3c0.1,0.1,0.2,0.1,0.2,0.1s-0.5,0.7-0.9,0.8c-0.3,0.2-2.1,1-2.8,0.8
				c-1.6-0.4-1.8-2.1-2.1-2.3c-0.6-0.2-0.8,0.2-1.4-0.1c0.2-0.2,0.3-0.3,0.6-0.4c-0.3-0.1-1.6-1-1.6-1c-0.1-0.3-0.3-0.6-0.5-0.9
				c-0.3-0.4-0.6-1-0.9-1.6c-0.6-1.2-0.7-1.7-1.2-2.3c0.1-0.1,0.4-0.1,0.4-0.1l4.7,1.6l8.4,0.2l2.2-3.1L91.7,51.5L91.7,51.5z"/>
			<path class="st86" d="M79.3,56.3c0.1,0.1,0.1,0.1,0.2,0.1c0.2,0.1,0.4,0.2,0.6,0.4c0.1-0.1,0.2-0.3,0.5,0s0.6,0.1,0.9,0.1
				c0.2,0.1,0.2,0.1,0.2,0.1s0.1-0.1,0.4-0.2c0.2-0.1,0.4-0.1,0.6-0.2c0.2,0,0.4-0.1,0.6-0.1c0.1,0.1,0.7,0.6,2.7-0.2
				c1.9-0.8,2.4-0.8,2.7-0.7c0-0.1,0.1-0.2,0.6-0.2c0-0.2-0.4-0.9-0.4-0.9l-2.3-0.8h-1.2l-3.7,0.7l-2.1,1.2L79.3,56.3L79.3,56.3z"/>
			<path class="st87" d="M78.1,54.9c0,0,0,0.3,0.6,0.7c0.5,0.4,0.7,0.6,0.7,0.6s0.1-0.1,0.2-0.3c0.1-0.1,0.1-0.3,0.3-0.3
				c0.3-0.1,0.8,0.1,1,0.1c0.1,0,0.1-0.3,0.2-0.3c0.3,0,0.4,0.2,0.5,0.2c0.1,0,0.3,0,0.4-0.1c0-0.1,0-0.6,0.4-0.8
				c0.4-0.3,0.9-0.2,1-0.1c0,0.1,0,0.3,0.3,0.3s0.3,0,0.5,0c0.2,0.1,0.5,0,0.6,0.4c0.1,0,0.4-0.1,0.3-0.4c0.1-0.1,0.2-0.2,0.5-0.5
				c0.1-0.1,0.2-0.2,0.3-0.3c0.2,0,0.5,0,0.9,0.3c-0.1,0.1-0.2,0.1-0.2,0.2c0.1,0.1,0.2,0.2,0.3,0.3c0.1,0.1,0.2,0.3,0.3,0.3
				c0.3,0.1,0.7,0,1.2,0c0.5,0,0.9,0.2,1.1,0.3c0.1,0,0.1,0,0.2,0c0.2,0,0.3,0,0.1-0.2c0.1,0,0.2,0.1,0.3,0c0.1-0.1,0.2-0.2,0.4-0.3
				c0.3,0,0.4,0,0.5-0.3c0.1-0.3-0.3-0.3-0.3-0.3s0.2-0.2,0.5-0.5c0.3-0.3,0.7-0.7,0.7-1.1c0.1-0.8-0.7-0.9-0.7-0.9l-4,1.2l-4.8-0.2
				L78.1,54.9L78.1,54.9L78.1,54.9z"/>
			<path class="st88" d="M74.5,43.5c0,0-0.1,0.2-0.2,0.5s0,0.3-0.1,0.6c-0.1,0.3-0.9,3-0.6,3.9c0.3,0.9,0.8,1.2,1.1,2
				c0.1,0.2,0.1,0.3,0.2,0.4c0.1,0.5,0,0.8,0.1,1.3c0,0.2,0.2,0.3,0.3,0.5c0.4,0.4,1,0.8,1.3,1.1c0.4,0.4,0.9,1.2,1.6,1.3
				c0.4,0,0.9-0.1,1.3-0.4c0.4-0.2,0.6-0.6,1-0.8c0.3-0.1,0.6-0.2,0.9-0.3c0.6-0.1,1.1-0.1,1.4-0.1c0.5,0.1,1.6,0.4,2.2,0.4
				c0.5,0,1-0.1,1.4-0.2c0.9-0.3,2-0.7,2.8-0.9c0.4-0.1,0.8-0.2,1.1-0.2c0.6-0.1,1.1-0.3,1.4-0.7c-0.2-0.2-0.4-0.6-1.7-0.6
				c-1.5,0-3.2,0.8-4,1c-0.8,0.1-1.2,0.2-2.1-0.1c-0.9-0.3-0.9-0.6-0.9-0.6s-1-0.7-1.4-2.4s0-3,1-4.1c0.3-0.3,0.2-0.6,0.2-0.6
				s0.7-0.9,0.5-1.8c-0.2-0.9-1.5-0.7-1.5-0.7L74.5,43.5L74.5,43.5L74.5,43.5z"/>
			<path class="st89" d="M75.7,46.4c-0.1,0.1-0.1,0.2-0.1,0.3c0,0.2,0.1,0.4,0.6,0.9c0.4,0.4,0.3,0.9,0.3,0.9s0.2,0,0.8-0.2
				c0.5-0.2,0.6,0.2,0.6,0.2c0.1-0.1,0.3-0.1,0.4-0.1c0.1,0,0.3-0.1,0.4-0.1c0,0,0.6,0.6,1.1,0.8c0.4,0.2,0.7,0.4,0.9,0.2
				c0.2-0.1,0.2-0.4,0.2-0.6c-0.1-0.1-0.1-0.2-0.2-0.3c-0.1-0.2-0.4-0.4-0.4-0.6c0-0.4,0.3-1,0.3-1.1s-0.4-0.2-1.1,0.1
				C78.9,47.1,75.6,46.4,75.7,46.4L75.7,46.4L75.7,46.4z"/>
			<path class="st90" d="M77.3,49.3c0,0-0.4-0.3-0.2-2c0.2,0,0.3,0,0.5,0C77.6,47.3,77.8,48.6,77.3,49.3z"/>
			<path class="st69" d="M74.7,42.2c0.1,0,0.1-0.1,0.1-0.1c-0.1,0.2-0.7,1.2-0.2,2.7c0.5,1.5,1.7,2.6,3.2,2.7s2.3-0.7,3.2-1.8
				c0.3-0.4,0.8-1,1.1-1.3c0.5-0.6,0.9-0.7,0.9-1.3c0-1.1-1.2-1.7-2.9-2.2c-1.7-0.5-3.3-0.4-4.1-0.1C75.3,41.2,74.9,41.6,74.7,42.2
				L74.7,42.2L74.7,42.2z"/>
			<path class="st91" d="M80.2,49.8l0.1-0.1c0,0,0-0.5,0.2-0.5c0.2,0,0.3,0.3,0.3,0.4c0,0.1-0.1,0.3-0.3,0.2
				C80.3,49.9,80.2,49.8,80.2,49.8L80.2,49.8z"/>
			<path class="st92" d="M79.7,47.6c0,0,0.1,0,0.3,0.1c0.1,0,0.7-0.1,0.9,0S81,48,81,48s-0.7,0.1-1,0C79.7,47.9,79.7,47.6,79.7,47.6
				z"/>
			<path class="st93" d="M82.5,47.7c0,0-0.3-0.3-0.7-0.3c-0.1,0-0.1,0-0.1,0c0,0,0-0.1,0-0.1l-0.2,0.1c0,0,0,0,0.1,0.1
				c0.1,0.1,0.3,0.1,0.3,0.3c0,0.1,0,0.2,0.1,0.2c0,0,0.2,0,0.3-0.1C82.3,47.9,82.5,47.8,82.5,47.7L82.5,47.7L82.5,47.7z"/>
			<path class="st94" d="M79.3,49c0,0,0.1-0.4,0.5-0.5c0.4,0,0.5,0.4,0.5,0.4L80,49.2C80,49.2,79.8,49,79.3,49L79.3,49z"/>
			<path class="st95" d="M82.1,47.1c0,0-0.2,0.3-0.8,0.3c0-0.1-0.1-0.2,0-0.4c0.1-0.2,0.3-0.3,0.5-0.2C81.9,46.9,82,47,82.1,47.1z"
				/>
			<path class="st93" d="M83.1,47.4c0-0.1,0-0.1,0-0.1c0,0,0.2-0.1,0.2-0.1c0,0,0,0.1,0,0.1c0,0.1,0,0.1,0,0.2
				c0,0.1-0.2,0.1-0.2,0.1c-0.1,0-0.1-0.1-0.1-0.1C83,47.5,83.1,47.5,83.1,47.4z M84.2,46.7c0,0,0.1-0.1,0.2-0.1
				c0.1,0,0.1,0.1,0.1,0.1c0,0,0,0,0.1,0c0,0.1,0.1,0.2,0,0.2c0,0.1-0.2,0.1-0.2,0.1C84.3,47.1,84.2,46.8,84.2,46.7z"/>
			<path class="st88" d="M81.9,47.6c0,0,0.1,0,0.3,0.2c-0.1,0-0.2,0.1-0.2,0.1S82.1,47.7,81.9,47.6L81.9,47.6z"/>
			<path class="st68" d="M81.6,46.2c0,0,0.1-0.1,0.2-0.1c0.1,0,0.1,0.1,0.2,0.1s0.1,0,0.1-0.1c0,0,0.1,0,0.2,0c0,0,0,0,0,0
				c0,0,0-0.1,0.1-0.1c0.1,0,0.1,0,0.2,0c0,0,0.1,0.2,0.1,0.2c0,0-0.2,0.1-0.2,0c0,0.1,0.2,0.2,0.2,0.3c0,0-0.1,0.1-0.2,0.1
				C82.3,46.6,81.7,46.3,81.6,46.2L81.6,46.2z M82.5,45.1C82.5,45.1,82.4,45,82.5,45.1c-0.1-0.1-0.3-0.1-0.3,0
				c0,0.1,0.1,0.5,0.3,0.7c0.2,0.2,0.3,0.4,0.4,0.5c0.1,0,0.2,0,0.2-0.1c0,0,0-0.3,0-0.8c0-0.6,0-1.1-0.1-1.1c0,0-0.2,0-0.2,0
				S82.5,45,82.5,45.1L82.5,45.1L82.5,45.1z"/>
			<path class="st95" d="M81.9,48.4c0,0-0.2-0.1-0.4,0c-0.2,0.1-0.2,0.5-0.2,0.5c0.1,0,0.2,0,0.3,0C81.7,48.7,81.9,48.5,81.9,48.4
				L81.9,48.4z"/>
			<path class="st93" d="M82.3,48.9c0-0.1-0.1-0.1-0.1-0.2c0-0.1,0.1-0.1,0.1-0.1c0.1,0,0.1,0.1,0.2,0.1c0.1,0,0.2,0.1,0.2,0.2
				s-0.1,0.4-0.3,0.4S82.4,49,82.3,48.9L82.3,48.9z M83.6,48.7c0,0-0.3,0.1-0.2,0C83.3,48.7,83.4,48.6,83.6,48.7
				c0-0.1,0-0.2,0.1-0.2c0,0,0.1,0,0.1,0c0,0,0.2-0.1,0.2,0s0,0,0,0.1c0,0.1,0.1,0.1,0.1,0.2c0,0.1-0.2,0.2-0.3,0.1
				C83.6,49,83.6,48.8,83.6,48.7z M85.1,48.4C85.1,48.4,85.2,48.5,85.1,48.4c0,0.1-0.3,0.2-0.5,0.2c-0.2,0-0.4,0-0.4,0
				s0.2-0.2,0.3-0.2c0,0,0.1-0.1,0.2-0.1c0.1,0,0.4,0,0.5,0c0.1,0,0.1,0,0.1,0.1C85.2,48.4,85.1,48.4,85.1,48.4L85.1,48.4z
				 M85.5,46.4c0,0-0.1,0.2-0.2,0.2c-0.1,0-0.1,0-0.1-0.1c0,0,0.1-0.2,0.1-0.2c0,0-0.1,0-0.1-0.1c0-0.1,0.1-0.1,0.2-0.1
				c0.1-0.1,0.2-0.1,0.3-0.1c0.1,0,0.2,0,0.2,0.1c0,0.1-0.1,0.2-0.2,0.2C85.7,46.5,85.6,46.5,85.5,46.4L85.5,46.4z M84,50.3
				c0,0-0.1,0-0.1,0.1C83.9,50.4,83.9,50.4,84,50.3C84,50.4,84,50.4,84,50.3c0,0.1,0,0.2,0.1,0.2c0.1,0,0.2,0,0.2-0.1
				c0.1,0,0.1-0.1,0.1-0.1c0-0.1-0.1-0.2-0.2-0.2c0,0-0.1,0-0.1,0c0,0,0-0.1-0.1,0C84,50.2,84,50.2,84,50.3
				C84.1,50.2,84,50.3,84,50.3L84,50.3z M83.3,50.9c0,0,0.2-0.1,0.2-0.1c0,0,0.2,0.3,0.2,0.3c0,0-0.2,0.1-0.2,0.1
				c-0.1,0-0.2-0.1-0.2-0.1c0,0,0.1,0,0.1,0C83.4,51.1,83.3,51,83.3,50.9L83.3,50.9z M82.8,50C82.8,50,82.8,50,82.8,50
				c0.1-0.1,0.1-0.1,0.2-0.1c0,0,0.1-0.1,0.1-0.1c0.1,0,0.1,0,0.1,0c0,0.1,0.1,0.2,0.1,0.2c0,0.1,0,0.2-0.2,0.2c-0.2,0-0.4,0-0.4,0
				s-0.1-0.1,0-0.2S82.7,50,82.8,50L82.8,50L82.8,50z"/>
			<path class="st88" d="M83,50c0,0-0.1,0.1-0.1,0.1c0,0,0,0.1,0,0.1c0,0,0.1,0,0.2,0C83.1,50.2,83,50.1,83,50z"/>
			<path class="st68" d="M82,49.7c0.1,0,0.2,0,0.3,0c0.1,0,0.1,0.1,0,0.2c-0.1,0.1-0.1,0.2-0.3,0.2c-0.2,0-0.3-0.1-0.3-0.2
				c0-0.1,0-0.2,0.1-0.2C81.9,49.7,81.9,49.7,82,49.7L82,49.7L82,49.7z"/>
			<path class="st95" d="M82,49.8c0,0-0.2,0.2-0.3,0.2c-0.1,0.1-0.4,0.5-0.5,0.6c0-0.1,0.1-0.1,0.1-0.2c-0.1,0.1-0.2,0.2-0.3,0.3
				c-0.1,0.2,0.4,0.4,0.8,0.5c0.3,0.1,0.5,0.1,0.5,0.1c-0.1-0.2-0.2-0.4-0.3-0.6c-0.1-0.3-0.2-0.3-0.1-0.5c0.1-0.1,0.2-0.2,0.2-0.3
				C82,49.9,82,49.8,82,49.8z"/>
			<path class="st69" d="M74.6,50.3c0,0,0.1,0,0.1,0c0.1,0,1.1-0.4,2.2-0.3c0.8,0,1.6,0.2,2.3,0.4c1.3,0.3,3,1,4,1.4
				c0.3,0.1,0.6,0.3,0.8,0.4c0.8,0.3,0.8,0.3,1.3,0.4c0.6,0.1,1.1-0.1,1.7-0.2c0.7-0.2,2-0.2,3.1-0.4c0.4,0,0.7-0.1,1.1-0.2
				c0,0-0.9,0.9-3,1.2c-0.9,0.1-1.7,0.1-2.6,0c-0.7-0.1-1.1-0.2-1.5-0.3c-0.4-0.1-1.2-0.4-2.1-0.6c-0.7-0.2-1.4-0.3-2.3-0.5
				C77.7,51.2,75.4,50.8,74.6,50.3L74.6,50.3z"/>
			<line class="st96" x1="73.5" y1="42.1" x2="68.1" y2="37.1"/>
			<path class="st7" d="M72.2,46.3c-0.5,0.4-1.1,0.8-1.6,1.2L69,48.8c-0.5,0.4-1.1,0.8-1.6,1.2c-0.5,0.4-1.1,0.8-1.7,1.2
				c0.5-0.4,1.1-0.8,1.6-1.2c0.5-0.4,1.1-0.8,1.6-1.2l1.6-1.2C71.1,47.1,71.7,46.7,72.2,46.3L72.2,46.3z M69.4,50.8
				c0,0,0.6-0.5,1.3-1.2c0.9-0.8,2-1.9,2.3-2.1L69.4,50.8L69.4,50.8z"/>
			<path class="st7" d="M69.4,50.8c0.3-0.3,0.6-0.6,0.9-0.8l0.5-0.4c0.1-0.1,0.3-0.3,0.4-0.4c0.3-0.3,0.6-0.6,0.8-0.9
				c0.1-0.1,0.3-0.3,0.4-0.4c0.1-0.1,0.2-0.1,0.3-0.2c0.1,0,0.2-0.1,0.3-0.1c-0.1,0.1-0.1,0.1-0.2,0.2c-0.1,0.1-0.1,0.1-0.2,0.2
				c-0.1,0.1-0.3,0.3-0.4,0.4c-0.3,0.3-0.6,0.5-0.9,0.8c-0.3,0.3-0.6,0.6-0.9,0.8C70,50.3,69.7,50.6,69.4,50.8L69.4,50.8z
				 M73.2,48.3c0,0-2.1,2.1-2.5,2.4L73.2,48.3z"/>
			<path class="st7" d="M73.2,48.3c-0.2,0.2-0.4,0.4-0.6,0.6L72,49.5c-0.2,0.2-0.4,0.4-0.6,0.6c-0.2,0.2-0.4,0.4-0.7,0.6l0.6-0.6
				c0.2-0.2,0.4-0.4,0.7-0.6l0.6-0.6C72.8,48.7,73,48.4,73.2,48.3z M73.3,49.4c-0.2,0.5-0.4,1.1-0.7,1.6c-0.5,1.1-1.4,2.4-1.7,3.1
				L73.3,49.4L73.3,49.4z"/>
			<path class="st7" d="M73.3,49.4c0,0.2-0.1,0.4-0.1,0.7c-0.1,0.2-0.2,0.4-0.3,0.6c-0.1,0.2-0.2,0.4-0.3,0.6
				c-0.1,0.2-0.2,0.4-0.3,0.6L71.6,53c-0.2,0.4-0.4,0.8-0.7,1.1c0.2-0.4,0.4-0.8,0.6-1.2c0.2-0.4,0.4-0.8,0.6-1.2
				c0.1-0.2,0.2-0.4,0.3-0.6c0.1-0.2,0.2-0.4,0.3-0.6c0.1-0.2,0.2-0.4,0.3-0.6C73.1,49.8,73.2,49.6,73.3,49.4L73.3,49.4z"/>
			<path class="st97" d="M75.7,54.7c0,0-0.6,0.8-0.6,1.9C75.2,56,75.5,55.2,75.7,54.7z M76.3,55.5c0,0-0.2,2.3-0.4,3.4
				C76.1,57.7,76.2,57.8,76.3,55.5z M80.5,59.1c0,0-1,2.8-1,3.6C79.7,61.9,80.1,60.3,80.5,59.1L80.5,59.1z"/>
			<path class="st98" d="M82.7,54.5c0,0,1.6,2.6,2.7,4.8C85.1,58.2,84.4,56.1,82.7,54.5z"/>
			<path class="st99" d="M86.9,58.3c0.9,1.5,1.6,3.1,2.3,4.7C89.1,61.8,88.7,60,86.9,58.3z"/>
			<path class="st100" d="M99.2,62.1c0.3-0.2,0.8-1,1.2-1.3c0.4-0.2,0.8-0.3,1.2-0.7c0.4-0.5,0.5-0.8,1.4-1.1
				c1.2-0.5,0.4-1.2,0.4-1.2c0.1-0.1,0.3-0.3,0.4-0.4c0.3-0.2,0.7-0.5,0.7-1c0-0.9-0.2-2.1-0.9-2.8c0.7-0.1,2-0.2,2.8-0.4
				c0.9-0.2,1.4-0.6,1.4-0.6s-0.5-0.9,0.3-1.9c0.9-0.9,1.6-1.5,2.1-2.5c-0.6-0.1-1.5-0.4-3.9,0.5c0.1,0.1,0.3,0.1,0.4,0.2
				c0,0-1.5,0.4-2,0.8c-0.9,0.8-1,1.4-2,1.9c-1,0.5-2,0.3-2.8,0.7s-1,0.7-1.3,0.9c0.1,0.1,0,0.2,0.1,0.3c-0.1,0.1-0.5,0.8-1,0.8
				c0,0.2,0.4,0.3,0.4,0.3s-0.3,0.2-1,0.3c0.4,0.4,0.7,0.8,1.7,1.4c-0.1,0.2-0.4,0.4-0.3,0.7c0.1,0.3,0.5,0.7,2,1.1
				c-0.8,0-1.6,0.2-2.8,0c-1.2-0.1-1.4-0.2-2.1,0c0.1,0.1,0.3,0.1,0.5,0.3c-0.2,0-1.4-0.1-1.8,0.4c-0.4,0.6-0.6,1.5-0.6,2.1
				c-0.2,0.1-0.4,0.3-0.3,0.7c0.1,0.4,0.7,0.5,1.1,0.8c0.4,0.3,0.4,0.4,0.8,0.3c0.4-0.1,0.9-0.4,1.2-0.4c0.3,0,0.5,0.2,0.5,0.2
				s0.9-0.4,0.9-0.3c0.1,0.1,0,0.6,0.1,0.7C98,62.8,98.9,62.2,99.2,62.1L99.2,62.1z"/>
		</g>
	</g>
</g>
<circle class="st101" cx="120" cy="120" r="54"/>
<circle class="st102" cx="120" cy="120" r="52.2"/>
<g>
	<g>
		<g>
			<path class="st103" d="M87.7,142.6c0,0-1.3,4.4,8.9-1.9c10.3-6.3,36-11.1,48.3-9.6c12.3,1.6,3.6-27.5-5.5-32.1
				C130.2,94.5,102.1,114.5,87.7,142.6z"/>
		</g>
		<g class="st2">
			<path class="st104" d="M88.5,141.7c0,0-2.2,5.4,8.1-0.9s36-11.1,48.3-9.6s3.6-27.5-5.5-32.1C130.2,94.6,102.9,113.6,88.5,141.7z"
				/>
		</g>
		<g>
			<path class="st104" d="M89.5,144.3c-0.6,0-1-0.1-1.2-0.3c-1-0.8-0.4-2.4-0.4-2.4s0,0,0-0.1c6.6-12.9,15.2-22.4,21.1-28
				c7.7-7.2,15.6-12.5,22.1-14.5c3.7-1.2,6.6-1.2,8.7-0.2c3.3,1.7,6.8,6.5,9.1,12.9c2.4,6.3,3.2,12.5,2,16.1
				c-0.8,2.6-2.6,4.1-5.1,4.1c-0.3,0-0.7,0-1-0.1c-12.5-1.6-38,3.5-47.9,9.6C93.5,143.3,91.1,144.3,89.5,144.3z M88.6,141.8
				c-0.1,0.2-0.2,1,0.1,1.3c0.3,0.2,1.8,0.8,7.7-2.8c4.8-3,13.5-5.8,23.6-7.8c9.8-1.9,19.1-2.6,25-1.8c2.6,0.3,4.3-0.8,5.1-3.3
				c1.1-3.5,0.3-9.4-2-15.5c-2.4-6.1-5.6-10.8-8.7-12.4c-1.8-0.9-4.6-0.9-8,0.2c-6.3,2-14.2,7.2-21.6,14.3
				C103.7,119.6,95.2,129,88.6,141.8z"/>
		</g>
		<g>
			<g>
				<path class="st105" d="M140,104.6c-1.5-0.3,0.1-0.9-1.8-2.8c-1.9-1.9-3.9-0.3-3.9-0.3c0.3-0.7,0.4-1.3,0-1.8
					c-1.6-2.2-6-0.9-7.5-2.7c-1.6-1.8-5.3-0.1-5.3-0.1s-22.4,13.4-28.8,28.7s-6,20.1-3.2,19c2.8-1,4.8-3.5,6.9-1.6
					c2,1.9-0.5,5.4,1.9,7.2c1.3,1,4.6-0.8,3-3.4c-1.6-2.6-3.6-7.4-0.1-10.1c3.5-2.7,11.4-4.1,10.9-0.3c-1.1,9.1,8.5,5.2,5.5,1.3
					c-2.6-3.3-0.2-9,5.5-5.8c4.7,2.7,4.2-1,8.9-2.5c3.5-1.1,10-1.2,10-1.2c4.5-2.7,0.4-3.9,0.4-3.9s3.8-2.9,2.8-4.9
					c-0.9-2-0.4-5.2-0.4-8.4C145.1,107.7,141.5,104.9,140,104.6z"/>
			</g>
			<g class="st2">
				<path class="st104" d="M140,104.6c-1.5-0.3,0.1-0.9-1.8-2.8c-1.9-1.9-3.9-0.3-3.9-0.3c0.3-0.7,0.4-1.3,0-1.8
					c-1.6-2.2-6-0.9-7.5-2.7c-1.6-1.8-5.3-0.1-5.3-0.1s-0.6,0.3-1.5,0.9c7,1.8,21.5,7.8,18.8,28.7c0,0-27.9,2-35.7,6.8
					c-5.5,3.5-11,9.9-15.4,10.7c0.3,0.8,0.9,1,1.7,0.7c2.8-1,4.8-3.5,6.9-1.6c2,1.9-0.5,5.4,1.9,7.2c1.3,1,4.6-0.8,3-3.4
					c-1.6-2.6-3.6-7.4-0.1-10.1c3.5-2.7,11.4-4.1,10.9-0.3c-1.1,9.1,8.6,5.2,5.5,1.3c-2.6-3.3-0.2-9,5.5-5.8c4.7,2.7,4.2-1,8.9-2.5
					c3.5-1.1,10-1.2,10-1.2c4.5-2.7,0.4-3.9,0.4-3.9s3.8-2.9,2.8-5c-0.9-2-0.4-5.2-0.4-8.4C145.1,107.7,141.5,104.9,140,104.6z"/>
			</g>
			<g class="st106">
				<g>
					<path class="st107" d="M141.3,105.4c0.1,0,0.2,0.1,0.4,0.1c-0.4-0.3-0.8-0.6-1.1-0.7C140.6,105,140.7,105.3,141.3,105.4z"/>
				</g>
				<g>
					<path class="st107" d="M143.7,125.1L143.7,125.1L143.7,125.1L143.7,125.1z"/>
				</g>
				<g>
					<path class="st107" d="M135.5,102.2c0,0,1.2-0.9,2.7-0.4c-0.8-0.8-1.7-0.9-2.4-0.8C135.9,101.3,135.8,101.8,135.5,102.2z"/>
				</g>
				<g>
					<path class="st107" d="M134.1,99.3c-1.5-1.3-4.1-1-5.8-1.6C129.4,99.1,132.2,98.6,134.1,99.3z"/>
				</g>
				<g>
					<path class="st107" d="M121.6,96.8c0,0-10,6-18.5,14.5c-0.1,0.1-0.3,0.2-0.5,0.4c-0.1,0.1-0.2,0.2-0.2,0.3
						c-3.9,4-7.5,8.7-9.6,13.5c-6,14.4-6,19.5-3.6,19.1c-0.8-1.8,0.2-7.4,4.8-18.5c1.7-4.2,4.6-8.2,7.9-11.8
						c0.1,0.1,0.1,0.2,0.2,0.3c0.7,0.7,2.1,0.5,3-0.7c0.9-1.1,1.1-2.5,0.4-3.2c-0.1-0.1-0.1-0.1-0.2-0.1
						c8.3-7.9,16.8-13.9,16.8-13.9s2.9-0.5,4.6,0C125.3,95.1,121.6,96.8,121.6,96.8z"/>
				</g>
			</g>
			<g>
				<path class="st104" d="M99.4,150.9c-0.5,0-0.9-0.1-1.2-0.3c-1.5-1-1.5-2.7-1.3-4.2c0.1-1.2,0.1-2.4-0.7-3c-1.1-1-2.2-0.6-4,0.6
					c-0.7,0.4-1.5,0.8-2.4,1.1c-1,0.3-1.6,0.1-1.9-0.2c-2.1-2.1,1.2-11.7,4.5-19.3c3.4-8,11-15.5,16.9-20.4c6.3-5.2,12-8.6,12-8.7
					l0,0c0.1-0.1,4.1-1.8,5.8,0.2c0.6,0.7,1.8,0.9,3.2,1c1.6,0.1,3.4,0.3,4.4,1.7c0.2,0.3,0.3,0.8,0.3,1.2c1-0.3,2.4-0.3,3.6,0.9
					c1.1,1.1,1.1,1.9,1.2,2.4c0,0.1,0,0.1,0,0.2c0,0,0.1,0.1,0.3,0.1l0,0c1.7,0.3,5.3,3.4,5.3,6.9c0,0.7-0.1,1.5-0.1,2.1
					c-0.1,2.4-0.2,4.6,0.4,6.1c0.9,1.8-1.2,4.1-2.4,5.1c0.6,0.3,1.2,0.8,1.2,1.6c0.1,1-0.7,1.9-2.4,2.9c-0.1,0-0.1,0.1-0.2,0.1
					c-0.1,0-6.4,0-9.8,1.1c-1.7,0.6-2.6,1.3-3.5,2.1c-1.6,1.3-2.7,2.1-5.7,0.3c-2.1-1.1-3.9-1.1-4.9,0.1c-1.1,1.4-1,3.5,0.1,5.1
					c0.9,1.1,0.9,2.4,0.1,3.5c-1,1.2-2.8,1.8-4.3,1.2c-1-0.4-2.7-1.7-2.1-5.9c0.1-0.6-0.1-1-0.6-1.2c-1.8-1-6.9,0.1-9.6,2
					c-3.3,2.5-0.9,7.4,0.2,9.4c0.8,1.2,0.6,2.6-0.5,3.6C101,150.7,100.2,150.9,99.4,150.9z M94.9,141.8c0.7,0,1.3,0.2,1.9,0.8
					c1.1,1,1,2.6,1,3.8c-0.1,1.3-0.1,2.6,0.9,3.3c0.6,0.3,1.5,0.2,2.1-0.4c0.5-0.3,0.9-1.1,0.2-2.4c-1.3-2.2-3.9-7.8,0-10.7
					c2.7-2,8.2-3.5,10.6-2.1c0.8,0.4,1.2,1.2,1,2.2c-0.3,2.6,0.2,4.4,1.6,4.8c1,0.4,2.5,0,3.2-0.9c0.3-0.4,0.7-1.2-0.1-2.4
					c-1.5-1.8-1.5-4.6-0.1-6.2c1.4-1.6,3.7-1.7,6.2-0.3c2.7,1.5,3.4,0.9,4.7-0.2c0.9-0.8,1.9-1.7,3.8-2.2c3.3-1.1,9-1.2,10-1.2
					c1.6-1,1.8-1.6,1.8-1.9c-0.1-0.6-1-1-1.3-1.1c-0.1,0-0.3-0.2-0.3-0.3c0-0.2,0-0.3,0.2-0.5c0.9-0.7,3.4-3,2.7-4.4
					c-0.8-1.7-0.7-4-0.6-6.5c0-0.7,0.1-1.3,0.1-2.1c0.1-2.9-3.2-5.5-4.5-5.8c-0.9-0.2-1-0.6-1-1.1c0-0.3,0-0.9-0.9-1.7
					c-1.6-1.6-3.3-0.3-3.4-0.3c-0.2,0.1-0.4,0.1-0.6,0c-0.1-0.1-0.2-0.3-0.1-0.6c0.4-0.9,0.2-1.2,0.1-1.3c-0.8-1-2.1-1.2-3.7-1.3
					c-1.5-0.1-2.9-0.3-3.8-1.3c-1.1-1.2-3.7-0.4-4.7,0c-0.4,0.2-5.8,3.5-11.9,8.6c-5.7,4.7-13.4,12-16.7,19.9
					c-2.4,5.6-3.9,10.1-4.6,13.4c-0.8,3.7-0.3,4.7,0,4.9c0.1,0.1,0.3,0.3,0.9,0c0.8-0.3,1.5-0.7,2.1-1.1
					C92.8,142.5,93.8,141.8,94.9,141.8z"/>
			</g>
		</g>
		<g>
			<path class="st104" d="M124.9,128c2.7-0.5,5.4-0.9,8.2-1.2c1.4-0.2,2.7-0.3,4.2-0.5c1.3-0.1,2.7-0.2,4.2-0.2
				c0.2,0,0.4,0.2,0.4,0.5c0,0.2-0.2,0.4-0.4,0.4l0,0l0,0c-1.3,0-2.7,0-4.1,0c-1.4,0-2.7,0.1-4.1,0.2
				C130.5,127.3,127.7,127.6,124.9,128z"/>
		</g>
	</g>
	<g class="st2">
		<g>
			<path class="st104" d="M133.7,99.1L133.7,99.1L133.7,99.1L133.7,99.1z"/>
		</g>
		<g>
			<path class="st104" d="M144.3,108.5c-0.1,3.3-0.6,6.4,0.4,8.4c0,0.1,0.1,0.2,0.1,0.3c-0.2-1.8,0.1-4,0.1-6.3
				C145,110.1,144.8,109.2,144.3,108.5C144.3,108.4,144.3,108.5,144.3,108.5z"/>
		</g>
		<g>
			<path class="st104" d="M144.9,117.6c0,1.9-3,4.3-3,4.3s1.6,0.5,1.7,1.6c1-1,2.4-2.7,1.8-4C145.1,118.9,145,118.3,144.9,117.6z"/>
		</g>
	</g>
	<g>
		<g>
			
				<ellipse transform="matrix(0.8397 -0.543 0.543 0.8397 -37.7876 84.7762)" class="st108" cx="124.7" cy="106.4" rx="6.9" ry="5.5"/>
		</g>
		<g class="st106">
			<path class="st107" d="M125.6,111.8c-3.4,0.9-6.3-0.8-6.6-3.8c-0.2-2.9,2.2-6.1,5.6-7c2.5-0.7,4.7,0.1,5.9,1.7
				c-1.1-1.9-3.6-2.8-6.4-2.1c-3.6,0.9-6.3,4.3-6,7.4c0.3,3.2,3.5,4.9,7,4c0.9-0.2,1.8-0.7,2.6-1.2
				C127.1,111.3,126.4,111.6,125.6,111.8z"/>
		</g>
		<g>
			<path class="st109" d="M125.2,102l0.8,8.3c2.1-1,3.7-3.2,3.5-5.2C129.2,103,127.4,101.8,125.2,102z"/>
		</g>
		<g>
			<path class="st109" d="M123.2,102.4c-2.1,1-3.6,3.2-3.4,5.2s2,3.3,4.2,3.2L123.2,102.4z"/>
		</g>
		<g>
			<path class="st109" d="M123.2,102.4c-2.1,1-3.6,3.2-3.4,5.2s2,3.3,4.2,3.2L123.2,102.4z"/>
		</g>
		<g>
			<path class="st108" d="M123.5,105.3c-0.7,0.3-1.2,1-1.1,1.7s0.7,1.1,1.3,1L123.5,105.3z"/>
		</g>
		<g>
			<path class="st108" d="M125.4,104.8c0.7,0,1.3,0.3,1.3,1c0.1,0.7-0.4,1.3-1.1,1.7L125.4,104.8z"/>
		</g>
		<g>
			<path class="st104" d="M123.3,112.7c-1.3,0-2.5-0.3-3.5-1c-1.2-0.8-1.9-2.1-2-3.6c-0.3-3.4,2.5-6.9,6.3-7.8
				c2-0.6,4.1-0.2,5.5,0.8c1.2,0.8,1.9,2.1,2,3.6c0.3,3.4-2.5,6.9-6.3,7.8C124.6,112.7,123.9,112.7,123.3,112.7z M126,100.9
				c-0.6,0-1.1,0.1-1.8,0.2c-3.4,0.9-6,4.1-5.6,7c0.1,1.2,0.7,2.4,1.7,3c1.2,0.9,3,1.1,4.8,0.7c3.4-0.9,6-4,5.6-7
				c-0.1-1.2-0.7-2.4-1.7-3C128.1,101.1,127.1,100.9,126,100.9z"/>
		</g>
		<g>
			<g>
				<path class="st110" d="M122.5,109c0,0.1,0.1,0.2,0.1,0.3c0,0.1,0,0.2,0,0.3c0,0.1-0.1,0.2-0.3,0.2c-0.1,0-0.2-0.1-0.2-0.3
					c0,0,0,0,0-0.1s0.1-0.2,0.2-0.3C122.2,109.2,122.4,109.1,122.5,109z"/>
			</g>
			<g>
				<path class="st110" d="M121.6,108.2c0,0.1,0,0.2-0.1,0.3c0,0.1-0.1,0.2-0.1,0.3c-0.1,0.1-0.2,0.1-0.4,0.1
					c-0.1-0.1-0.1-0.2-0.1-0.4c0,0,0,0,0-0.1c0.1-0.1,0.2-0.1,0.3-0.1C121.2,108.2,121.3,108.2,121.6,108.2z"/>
			</g>
			<g>
				<path class="st110" d="M121.2,106.8c-0.1,0.1-0.1,0.2-0.2,0.2c-0.1,0.1-0.1,0.1-0.2,0.2s-0.3,0-0.3-0.1c-0.1-0.1,0-0.3,0.1-0.3
					h0.1c0.1,0,0.2,0,0.3,0C121,106.7,121.1,106.7,121.2,106.8z"/>
			</g>
			<g>
				<path class="st110" d="M121.8,105.4c-0.1,0-0.2,0-0.3,0.1c-0.1,0-0.2,0-0.3,0s-0.2-0.2-0.2-0.3s0.2-0.2,0.3-0.2h0.1
					c0.1,0,0.1,0.1,0.2,0.2S121.7,105.4,121.8,105.4z"/>
			</g>
			<g>
				<path class="st110" d="M122.9,104.5c-0.1,0-0.2-0.1-0.3-0.1c-0.1-0.1-0.2-0.1-0.2-0.2c-0.1-0.1-0.1-0.3,0.1-0.4
					c0.1-0.1,0.3-0.1,0.4,0.1c0,0,0,0,0,0.1s0,0.2,0,0.3C122.9,104.2,122.9,104.3,122.9,104.5z"/>
			</g>
		</g>
		<g>
			<g>
				<path class="st110" d="M127.1,107.7c0.1,0.1,0.2,0.1,0.3,0.2c0.1,0.1,0.1,0.1,0.2,0.2s0,0.3-0.1,0.4s-0.3,0-0.4-0.1
					c0,0,0,0,0-0.1s0-0.2,0-0.3C127.1,107.9,127.1,107.8,127.1,107.7z"/>
			</g>
			<g>
				<path class="st110" d="M127.9,106.5c0.1,0,0.2,0,0.3,0c0.1,0,0.2,0,0.3,0s0.2,0.2,0.2,0.3c0,0.1-0.2,0.2-0.3,0.2h-0.1
					c-0.1-0.1-0.1-0.1-0.2-0.2C128,106.7,127.9,106.6,127.9,106.5z"/>
			</g>
			<g>
				<path class="st110" d="M127.9,105c0.1-0.1,0.1-0.1,0.2-0.2s0.1-0.1,0.2-0.1c0.1-0.1,0.3,0,0.3,0.1s0,0.3-0.1,0.3h-0.1
					c-0.1,0-0.2,0-0.3,0C128.1,105.1,128,105.1,127.9,105z"/>
			</g>
			<g>
				<path class="st110" d="M127.1,104c0-0.1,0.1-0.2,0.1-0.3s0.1-0.2,0.1-0.3c0.1-0.1,0.2-0.1,0.4-0.1c0.1,0.1,0.1,0.2,0.1,0.5
					c0,0,0,0-0.1,0.1s-0.2,0.1-0.3,0.1C127.3,103.9,127.2,103.9,127.1,104z"/>
			</g>
			<g>
				<path class="st110" d="M125.8,103.7c0-0.1-0.1-0.2-0.1-0.3c0-0.1,0-0.2,0-0.3c0-0.1,0.1-0.2,0.3-0.2c0.2,0,0.2,0.1,0.2,0.3
					c0,0,0,0,0,0.1s-0.1,0.2-0.2,0.3C126.1,103.4,126,103.6,125.8,103.7z"/>
			</g>
		</g>
		<g>
			<path class="st109" d="M126,110.6c-0.1,0-0.1,0-0.2-0.1s-0.2-0.2-0.2-0.3l-0.8-8.3c0-0.1,0-0.2,0.1-0.3c0.1-0.1,0.1-0.1,0.2-0.1
				c2.5-0.2,4.5,1.2,4.7,3.5c0.2,2.1-1.3,4.5-3.7,5.6C126.1,110.6,126,110.6,126,110.6z M125.6,102.3l0.7,7.3c1.8-1,2.9-2.8,2.8-4.5
				C128.9,103.4,127.4,102.3,125.6,102.3L125.6,102.3z"/>
		</g>
		<g>
			<path class="st109" d="M123.6,111.2c-2.2,0-4.1-1.5-4.3-3.5c-0.2-2.1,1.2-4.5,3.6-5.5c0.1,0,0.2,0,0.3,0c0.1,0.1,0.2,0.2,0.2,0.3
				l0.8,8.3c0,0.1,0,0.2-0.1,0.3c-0.1,0.1-0.1,0.1-0.2,0.1C123.8,111.2,123.7,111.2,123.6,111.2z M122.8,103.1
				c-1.7,1-2.8,2.8-2.7,4.5c0.1,1.7,1.5,2.8,3.4,2.8L122.8,103.1z"/>
		</g>
	</g>
	<g>
		<g>
			
				<ellipse transform="matrix(0.8397 -0.543 0.543 0.8397 -48.1558 79.2658)" class="st108" cx="110.2" cy="121.2" rx="6.4" ry="5.2"/>
		</g>
		<g class="st106">
			<path class="st107" d="M111.2,126.3c-3.2,0.8-6-0.8-6.2-3.6s2.1-5.7,5.3-6.5c2.4-0.6,4.4,0.1,5.5,1.6c-1-1.8-3.4-2.6-6-1.9
				c-3.4,0.9-5.8,3.9-5.6,6.9c0.2,2.9,3.3,4.6,6.5,3.7c0.9-0.2,1.7-0.6,2.5-1.1C112.6,125.8,111.9,126.2,111.2,126.3z"/>
		</g>
		<g>
			<path class="st109" d="M110.8,117.1l0.7,7.8c2-0.9,3.5-2.9,3.3-4.8C114.6,118.1,112.9,116.9,110.8,117.1z"/>
		</g>
		<g>
			<path class="st109" d="M108.9,117.6c-2,0.9-3.4,2.9-3.2,4.8c0.2,1.9,1.8,3.2,3.9,2.9L108.9,117.6z"/>
		</g>
		<g>
			<path class="st109" d="M108.9,117.6c-2,0.9-3.4,2.9-3.2,4.8c0.2,1.9,1.8,3.2,3.9,2.9L108.9,117.6z"/>
		</g>
		<g>
			<path class="st108" d="M109.2,120.2c-0.7,0.3-1.1,0.9-1,1.6s0.6,1,1.2,1L109.2,120.2z"/>
		</g>
		<g>
			<path class="st108" d="M111,119.8c0.7,0,1.2,0.3,1.2,1c0.1,0.7-0.4,1.2-1,1.6L111,119.8z"/>
		</g>
		<g>
			<path class="st104" d="M109,127.2c-1.2,0-2.4-0.3-3.3-1c-1.1-0.8-1.8-2-1.9-3.4c-0.3-3.2,2.4-6.4,5.8-7.3
				c1.9-0.5,3.8-0.2,5.2,0.8c1.1,0.8,1.8,2,1.9,3.4l0,0c0.3,3.2-2.4,6.4-5.8,7.3C110.2,127.1,109.5,127.2,109,127.2z M111.5,116.1
				c-0.6,0-1.1,0.1-1.7,0.2c-3.2,0.8-5.5,3.7-5.3,6.5c0.1,1.1,0.7,2.1,1.6,2.8c1.1,0.8,2.8,1,4.5,0.6c3.2-0.8,5.5-3.7,5.3-6.5l0,0
				c-0.1-1.1-0.7-2.1-1.6-2.8C113.5,116.4,112.6,116.1,111.5,116.1z"/>
		</g>
		<g>
			<g>
				<path class="st110" d="M108.8,123.8c0.1,0.1,0.1,0.2,0.1,0.2c0,0.1,0.1,0.2,0.1,0.3s-0.1,0.2-0.2,0.2s-0.2-0.1-0.2-0.2
					c0,0,0,0,0-0.1S108.6,124,108.8,123.8C108.8,123.9,108.8,123.9,108.8,123.8z"/>
			</g>
			<g>
				<path class="st110" d="M107.7,123.4c0,0.1,0,0.2,0,0.3c0,0.1,0,0.2-0.1,0.3c0,0.1-0.2,0.2-0.3,0.1c-0.1-0.1-0.2-0.2-0.1-0.3l0,0
					c0.1-0.1,0.1-0.1,0.2-0.2C107.5,123.5,107.6,123.4,107.7,123.4z"/>
			</g>
			<g>
				<path class="st110" d="M107.2,122.2c0,0.1-0.1,0.2-0.1,0.3c-0.1,0.1-0.1,0.2-0.2,0.2c-0.1,0.1-0.2,0.1-0.3,0
					c-0.1-0.1-0.1-0.2,0-0.3l0,0c0.1,0,0.2-0.1,0.3-0.1S107.1,122.2,107.2,122.2z"/>
			</g>
			<g>
				<path class="st110" d="M107.3,121c-0.1,0.1-0.2,0.1-0.2,0.1c-0.1,0-0.2,0.1-0.2,0.1c-0.1,0-0.2-0.1-0.2-0.2s0.1-0.2,0.2-0.2
					c0,0,0,0,0.1,0S107.2,120.8,107.3,121C107.1,120.9,107.2,120.9,107.3,121z"/>
			</g>
			<g>
				<path class="st110" d="M108.1,119.9c-0.1,0-0.2,0-0.3-0.1c-0.1,0-0.2-0.1-0.2-0.1c-0.1-0.1-0.1-0.2-0.1-0.3
					c0.1-0.1,0.2-0.1,0.3-0.1l0,0c0.1,0.1,0.1,0.1,0.1,0.2C108,119.6,108.1,119.8,108.1,119.9z"/>
			</g>
		</g>
		<g>
			<g>
				<path class="st110" d="M112.6,122.5c0.1,0.1,0.1,0.1,0.2,0.2s0.1,0.1,0.2,0.2s0,0.2-0.1,0.3c-0.1,0.1-0.2,0-0.3-0.1
					c0,0,0,0,0-0.1s0-0.2,0-0.3C112.6,122.7,112.6,122.6,112.6,122.5z"/>
			</g>
			<g>
				<path class="st110" d="M113.2,121.3c0.1,0,0.2,0,0.3,0s0.2,0,0.2,0c0.1,0,0.2,0.2,0.1,0.3c0,0.1-0.2,0.2-0.3,0.1c0,0,0,0-0.1,0
					s-0.1-0.1-0.2-0.2C113.4,121.4,113.4,121.4,113.2,121.3z"/>
			</g>
			<g>
				<path class="st110" d="M113.2,120c0.1-0.1,0.1-0.1,0.2-0.2s0.1-0.1,0.2-0.1s0.2,0,0.3,0.1c0,0.1,0,0.2-0.1,0.3c0,0,0,0-0.1,0
					s-0.2,0-0.3,0C113.5,120.1,113.4,120,113.2,120z"/>
			</g>
			<g>
				<path class="st110" d="M112.6,119c0-0.1,0.1-0.2,0.1-0.3s0.1-0.2,0.1-0.2c0.1-0.1,0.2-0.1,0.3,0c0.1,0.1,0.1,0.2,0,0.3l0,0
					c-0.1,0.1-0.1,0.1-0.2,0.1C112.8,119,112.7,119,112.6,119z"/>
			</g>
			<g>
				<path class="st110" d="M111.5,118.6c0-0.1,0-0.2-0.1-0.3c0-0.1,0-0.2,0-0.3c0-0.1,0.1-0.2,0.2-0.2s0.2,0.1,0.2,0.2l0,0
					c0,0.1-0.1,0.2-0.1,0.2C111.6,118.5,111.6,118.6,111.5,118.6z"/>
			</g>
		</g>
		<g>
			<path class="st109" d="M111.5,125.3c-0.1,0-0.1,0-0.2-0.1s-0.2-0.2-0.2-0.3l-0.7-7.8c0-0.1,0-0.2,0.1-0.3
				c0.1-0.1,0.2-0.1,0.3-0.1c2.4-0.2,4.3,1.2,4.5,3.4c0.2,2-1.2,4.3-3.5,5.3C111.6,125.3,111.6,125.3,111.5,125.3z M111.2,117.5
				l0.7,6.8c1.6-0.9,2.7-2.6,2.5-4.2C114.2,118.5,112.9,117.5,111.2,117.5z"/>
		</g>
		<g>
			<path class="st109" d="M109.3,125.8c-2.1,0-3.8-1.3-4-3.4c-0.2-2,1.2-4.2,3.5-5.2c0.1-0.1,0.2,0,0.3,0c0.1,0.1,0.2,0.2,0.2,0.3
				l0.7,7.8c0,0.1,0,0.2-0.1,0.3c-0.1,0.1-0.2,0.1-0.3,0.1C109.5,125.8,109.4,125.8,109.3,125.8z M108.5,118.3
				c-1.6,0.9-2.6,2.6-2.5,4.2s1.3,2.6,3,2.6L108.5,118.3z"/>
		</g>
	</g>
	<g>
		<g>
			<g>
				<path class="st111" d="M101.8,120.4c-4.4,0.2-4.5,2.4-3,5.8C101.3,125.2,103,123.1,101.8,120.4z"/>
			</g>
			<g>
				<path class="st112" d="M98.5,127C98.4,127,98.4,127,98.5,127c-0.2,0-0.3-0.1-0.3-0.2c-0.7-1.9-1.1-3.9-0.2-5.3
					c0.7-0.9,1.9-1.3,3.8-1.5c0.1,0,0.3,0.1,0.3,0.2c0.6,1.1,0.7,2.1,0.3,3.3c-0.5,1.3-1.8,2.7-3.7,3.5C98.6,127,98.6,127,98.5,127z
					 M101.4,120.8c-1.5,0.1-2.4,0.5-2.8,1.1c-0.7,0.9-0.3,2.6,0.2,4.1c1.5-0.8,2.5-1.8,2.8-2.8C101.9,122.5,101.8,121.7,101.4,120.8
					z"/>
			</g>
			<g>
				<path class="st113" d="M101.9,120.8c-0.3,0.1-0.6,0.3-0.8,0.6c-0.2,0.2-0.6,0.5-0.8,0.8c-0.5,0.6-0.8,1.2-1.1,1.9
					c0-0.5,0.1-0.8,0.1-1.1c0.1-0.3,0.2-0.8,0.5-1.1c0.2-0.3,0.5-0.7,0.7-1c0.3-0.3,0.7-0.6,1.1-0.7c0.2-0.1,0.5,0.1,0.5,0.3
					C102.1,120.6,102,120.7,101.9,120.8L101.9,120.8z"/>
			</g>
		</g>
		<g>
			<g>
				<path class="st111" d="M109.7,108.4c3.8-2,5.1-0.1,5.6,3.5C112.5,112.3,110,111.6,109.7,108.4z"/>
			</g>
			<g>
				<path class="st112" d="M114.6,112.7c-1.7,0-3-0.5-3.9-1.2c-0.8-0.7-1.3-1.7-1.3-2.9c0-0.1,0.1-0.3,0.2-0.3
					c1.7-0.9,2.9-1.1,4-0.7c1.5,0.7,2,2.7,2.5,4.7c0,0.1,0,0.2-0.1,0.3c-0.1,0.1-0.2,0.1-0.3,0.1
					C115.3,112.7,114.9,112.7,114.6,112.7z M110.1,108.6c0.1,0.9,0.4,1.6,1,2.1c0.9,0.7,2.2,1.1,3.8,1c-0.3-1.6-0.9-3.2-1.9-3.6
					C112.3,107.8,111.5,107.9,110.1,108.6z"/>
			</g>
			<g>
				<path class="st113" d="M109.5,108.1c0.4-0.1,0.9-0.1,1.3,0s0.8,0.3,1.1,0.5c0.3,0.1,0.7,0.4,0.9,0.8c0.2,0.3,0.6,0.6,0.7,0.9
					c-0.7-0.5-1.2-0.8-1.9-1.1c-0.3-0.1-0.7-0.2-1-0.2s-0.7-0.1-1,0l0,0c-0.2,0-0.4-0.1-0.4-0.3
					C109.3,108.3,109.4,108.1,109.5,108.1z"/>
			</g>
		</g>
		<g>
			<g>
				<path class="st111" d="M126.9,122.2c-3-2.8-4.5-1.3-5.8,1.8C123.5,125.1,126,124.9,126.9,122.2z"/>
			</g>
			<g>
				<path class="st112" d="M123.3,125.1c-0.8,0-1.8-0.2-2.7-0.6c-0.1,0-0.2-0.1-0.2-0.2s0-0.2,0-0.3c0.9-1.7,1.8-3.4,3.4-3.6
					c1-0.2,2.1,0.3,3.5,1.6c0.1,0.1,0.1,0.2,0.1,0.5c-0.3,1.1-1,1.9-1.9,2.4C124.7,124.9,124.1,125.1,123.3,125.1z M121.2,123.9
					c1.5,0.4,2.8,0.4,3.7,0c0.7-0.3,1.1-0.9,1.5-1.7c-1-0.9-1.8-1.3-2.6-1.2C122.8,121.3,121.9,122.6,121.2,123.9z"/>
			</g>
			<g>
				<path class="st113" d="M126.8,122.6c-0.2-0.1-0.6-0.2-0.9-0.2s-0.7,0-1,0c-0.7,0.1-1.3,0.2-2,0.5c0.2-0.2,0.6-0.5,0.9-0.7
					s0.7-0.3,1-0.4s0.8-0.2,1.1-0.2c0.4,0,0.8,0.1,1.2,0.3c0.2,0.1,0.2,0.3,0.1,0.6C127.1,122.6,127,122.6,126.8,122.6L126.8,122.6z
					"/>
			</g>
		</g>
		<g>
			<g>
				<path class="st111" d="M92.7,129.2c0.2,0,0.4,0,0.7,0.1c0.2,0,0.5,0.1,0.7,0.1s0.4,0.1,0.7,0.1c0.2,0.1,0.5,0.1,0.8,0.3l0,0
					c0.2,0.1,0.3,0.6,0.2,0.8c-0.1,0.2-0.6,0.3-0.8,0.2c0,0-0.1,0-0.1-0.1c-0.1-0.1-0.2-0.2-0.4-0.2c-0.2-0.1-0.3-0.1-0.6-0.2
					c-0.2-0.1-0.5-0.1-0.6-0.2c-0.1-0.1-0.5-0.1-0.7-0.1l0,0c-0.2,0-0.3-0.2-0.3-0.4C92.3,129.3,92.4,129.2,92.7,129.2z"/>
			</g>
			<g class="st2">
				<path class="st104" d="M92.7,129.2c0.2,0,0.4,0,0.7,0.1c0.2,0,0.5,0.1,0.7,0.1s0.4,0.1,0.7,0.1c0.2,0.1,0.5,0.1,0.8,0.3l0,0
					c0.2,0.1,0.3,0.6,0.2,0.8c-0.1,0.2-0.6,0.3-0.8,0.2c0,0-0.1,0-0.1-0.1c-0.1-0.1-0.2-0.2-0.4-0.2c-0.2-0.1-0.3-0.1-0.6-0.2
					c-0.2-0.1-0.5-0.1-0.6-0.2c-0.1-0.1-0.5-0.1-0.7-0.1l0,0c-0.2,0-0.3-0.2-0.3-0.4C92.3,129.3,92.4,129.2,92.7,129.2z"/>
			</g>
			<g>
				<path class="st112" d="M95.2,131.3c-0.1,0-0.3,0-0.5-0.1l-0.1-0.1c0,0-0.1-0.1-0.3-0.2c-0.1-0.1-0.3-0.1-0.6-0.2
					c-0.2-0.1-0.3-0.1-0.6-0.2c-0.2-0.1-0.5-0.1-0.6-0.1c-0.2,0-0.3-0.1-0.5-0.3c-0.1-0.1-0.1-0.3-0.1-0.6c0.1-0.3,0.3-0.6,0.7-0.6
					l0,0c0.2,0,0.5,0,0.7,0.1c0.2,0,0.4,0.1,0.7,0.1s0.6,0.1,0.8,0.1c0.3,0.1,0.6,0.1,0.8,0.3l0,0c0.5,0.2,0.6,0.8,0.3,1.2
					C95.8,131.1,95.5,131.3,95.2,131.3z M92.7,129.5C92.7,129.5,92.5,129.5,92.7,129.5C92.5,129.7,92.5,129.7,92.7,129.5
					C92.5,129.7,92.5,129.7,92.7,129.5c0.2,0.1,0.4,0.2,0.7,0.2c0.2,0.1,0.5,0.1,0.7,0.2c0.2,0.1,0.4,0.1,0.6,0.2
					c0.2,0.1,0.4,0.2,0.6,0.3l0,0c0.1,0.1,0.2,0,0.3-0.1c0.1-0.1,0-0.2-0.1-0.3l0,0c-0.2-0.1-0.4-0.2-0.7-0.2
					c-0.2-0.1-0.5-0.1-0.7-0.1s-0.5-0.1-0.7-0.1C93.1,129.7,92.9,129.5,92.7,129.5L92.7,129.5z"/>
			</g>
			<g>
				<g>
					<path class="st111" d="M93.2,129.7c-1.3-4.8-7-0.9-7-0.9S90.6,134,93.2,129.7z"/>
				</g>
				<g class="st106">
					<path class="st107" d="M93.1,129.8L93.1,129.8c-1.3-4.9-6.9-0.9-6.9-0.9s0.1,0.2,0.5,0.4C87.7,128.5,91.8,126.3,93.1,129.8z"/>
				</g>
				<g>
					<path class="st112" d="M90.5,131.8c-2.5,0-4.8-2.6-4.9-2.7c-0.1-0.1-0.1-0.1-0.1-0.2s0.1-0.2,0.1-0.2c0.1-0.1,3.5-2.3,5.8-1.3
						c1,0.3,1.7,1.2,2,2.5c0,0.1,0,0.2,0,0.2c-0.7,1.1-1.6,1.8-2.6,1.9C90.8,131.8,90.6,131.8,90.5,131.8z M86.4,128.9
						c0.7,0.7,2.7,2.4,4.5,2.2c0.8-0.1,1.5-0.6,2-1.5c-0.3-1-0.8-1.6-1.6-1.9C89.6,127.2,87.3,128.3,86.4,128.9z"/>
				</g>
				<g>
					<g>
						<line class="st96" x1="93.2" y1="129.7" x2="89.4" y2="129.2"/>
					</g>
					<g>
						<path class="st113" d="M93.1,130c-0.3,0-0.7-0.1-0.9-0.1s-0.7-0.1-0.9-0.2c-0.7-0.1-1.2-0.3-1.8-0.6c0.7,0,1.2,0,1.9,0
							c0.3,0,0.7,0,0.9,0c0.3,0,0.7,0.1,0.9,0.1c0.2,0,0.3,0.2,0.2,0.4C93.5,129.9,93.3,130,93.1,130z"/>
					</g>
				</g>
			</g>
			<g>
				<path class="st112" d="M90.4,131.8c0.4-0.3,0.9-0.8,1.2-1.1c0.3-0.3,0.9-0.7,1.3-1.1c0.1-0.1,0.3-0.1,0.5,0.1
					c0.1,0.1,0.1,0.3-0.1,0.4l0,0l0,0c-0.4,0.2-1,0.6-1.5,0.8C91.4,131.1,90.9,131.5,90.4,131.8z"/>
			</g>
			<g>
				<g>
					<path class="st111" d="M93.2,129.8c0,0-2.8,0.2-3.5,5.1C89.7,134.8,95.5,133,93.2,129.8z"/>
				</g>
				<g class="st106">
					<path class="st107" d="M90.5,134.4c0.6-4.1,2.8-4.3,2.9-4.3c-0.1-0.1-0.1-0.2-0.2-0.3c0,0-2.8,0.2-3.5,5.1c0,0,1.2-0.4,2.4-1.1
						C91.3,134.2,90.5,134.4,90.5,134.4z"/>
				</g>
				<g>
					<path class="st112" d="M89.7,135.2c-0.1,0-0.1,0-0.2-0.1s-0.1-0.2-0.1-0.3c0.7-5.2,3.7-5.4,3.8-5.4c0.1,0,0.2,0,0.3,0.1
						c0.6,0.8,0.8,1.7,0.5,2.5C93.2,134,90,135.2,89.7,135.2L89.7,135.2z M93,130.1c-0.6,0.1-2.4,0.8-2.9,4.3
						c0.9-0.3,2.8-1.2,3.3-2.6C93.5,131.2,93.5,130.7,93,130.1z"/>
				</g>
				<g>
					<path class="st112" d="M91.5,131.9c0.2-0.4,0.4-0.8,0.7-1.2c0.2-0.4,0.5-0.8,0.7-1.1c0.1-0.1,0.3-0.2,0.4-0.1
						c0.1,0.1,0.2,0.3,0.1,0.4c0,0,0,0-0.1,0.1c-0.3,0.3-0.7,0.6-0.9,0.9C92.2,131.2,91.9,131.6,91.5,131.9z"/>
				</g>
			</g>
			<g>
				<g>
					<path class="st111" d="M93.1,129.8c0,0-2.7-1-1.8-6C91.4,123.8,96.4,127.4,93.1,129.8z"/>
				</g>
				<g class="st106">
					<path class="st107" d="M92.2,124.5c-0.4-0.5-0.8-0.7-0.8-0.7c-0.9,5,1.8,6,1.8,6l0.1-0.1C92.8,129.2,91.4,127.9,92.2,124.5z"/>
				</g>
				<g>
					<path class="st112" d="M93.1,130.1L93.1,130.1c-0.2,0-3-1.2-2-6.3c0-0.1,0.1-0.2,0.2-0.2s0.2,0,0.3,0c0.1,0.1,2.9,2.1,2.9,4.3
						c0,0.8-0.5,1.6-1.2,2.1C93.3,130.1,93.2,130.1,93.1,130.1z M91.7,124.4c-0.4,3.5,1,4.6,1.5,4.9c0.6-0.4,0.8-0.9,0.8-1.5
						C93.9,126.5,92.4,125.1,91.7,124.4z"/>
				</g>
				<g>
					<path class="st112" d="M92.3,127.2c0.2,0.5,0.3,0.8,0.6,1.2c0.2,0.5,0.4,0.8,0.6,1.2c0.1,0.1,0,0.3-0.1,0.4
						c-0.1,0.1-0.3,0-0.4-0.1c0,0,0,0,0-0.1c-0.1-0.4-0.2-0.9-0.3-1.3C92.4,128.1,92.3,127.6,92.3,127.2z"/>
				</g>
			</g>
		</g>
	</g>
	<g>
		<path class="st104" d="M88.2,143.2L88.2,143.2c0.1,0,0.1,0.1,0.1,0.1c0.1,0,0.2,0,0.3,0c0.2,0,0.6-0.1,0.8-0.2
			c0.6-0.2,1.1-0.6,1.6-0.9c1-0.7,2.1-1.3,3.2-2.1c1-0.8,2-1.6,2.9-2.4c0.2-0.2,0.5-0.4,0.7-0.7c0.2-0.2,0.4-0.4,0.7-0.7
			c0.1-0.1,0.2-0.2,0.3-0.3l0.3-0.3l0.2-0.1l0.2-0.1l0.3-0.3c2.1-1.5,4.4-2.6,6.9-3.5c1.2-0.4,2.5-0.8,3.7-1.1s2.5-0.6,3.7-0.8
			c-2.5,0.4-4.9,1.2-7.3,2.1c-1.2,0.4-2.4,1-3.5,1.6s-2.2,1.2-3.3,2l-0.3,0.3v0.1l-0.2,0.1l-0.3,0.3c-0.1,0.1-0.2,0.2-0.3,0.3
			c-0.2,0.2-0.5,0.4-0.7,0.7c-0.2,0.2-0.4,0.4-0.7,0.7c-0.9,0.9-1.9,1.7-2.9,2.5s-2,1.6-3.2,2.2c-0.6,0.3-1.1,0.7-1.7,1
			c-0.3,0.1-0.7,0.2-1,0.3c-0.2,0-0.5,0-0.7,0c-0.1,0-0.2-0.1-0.3-0.1c-0.1-0.1-0.2-0.2-0.3-0.3c-0.1-0.2,0-0.4,0.1-0.6
			C87.7,142.8,88,142.9,88.2,143.2L88.2,143.2z"/>
	</g>
	<g>
		<g class="st2">
			
				<ellipse transform="matrix(0.968 -0.2508 0.2508 0.968 -26.6465 38.1092)" class="st104" cx="136.2" cy="123.6" rx="0.7" ry="0.4"/>
		</g>
		<g class="st2">
			
				<ellipse transform="matrix(0.968 -0.2508 0.2508 0.968 -26.2896 37.2987)" class="st104" cx="133.2" cy="121.8" rx="1.1" ry="0.8"/>
		</g>
		<g class="st2">
			
				<ellipse transform="matrix(0.9355 -0.3532 0.3532 0.9355 -33.2534 52.1602)" class="st104" cx="126.3" cy="117.2" rx="0.8" ry="0.7"/>
		</g>
		<g class="st2">
			
				<ellipse transform="matrix(0.9355 -0.3532 0.3532 0.9355 -29.9182 54.4354)" class="st104" cx="134.2" cy="109.2" rx="0.6" ry="0.4"/>
		</g>
		<g class="st2">
			
				<ellipse transform="matrix(0.9355 -0.3532 0.3532 0.9355 -31.9308 55.2047)" class="st104" cx="135.3" cy="115.1" rx="0.7" ry="0.6"/>
		</g>
		<g class="st2">
			<path class="st104" d="M129,113.2c0.1,0.2-0.1,0.4-0.3,0.6c-0.2,0.1-0.6,0-0.7-0.2c-0.1-0.2,0.1-0.5,0.3-0.6
				C128.7,112.9,128.9,113,129,113.2z"/>
		</g>
		<g class="st2">
			
				<ellipse transform="matrix(0.8111 -0.5849 0.5849 0.8111 -48.2111 92.5574)" class="st104" cx="119.2" cy="120.9" rx="0.6" ry="0.4"/>
		</g>
		<g class="st2">
			
				<ellipse transform="matrix(0.8111 -0.5849 0.5849 0.8111 -44.511 92.3402)" class="st104" cx="120.7" cy="115.1" rx="0.6" ry="0.4"/>
		</g>
		<g class="st2">
			
				<ellipse transform="matrix(0.8111 -0.5849 0.5849 0.8111 -56.8688 84.5192)" class="st104" cx="102.4" cy="130.3" rx="0.8" ry="0.7"/>
		</g>
		<g class="st2">
			
				<ellipse transform="matrix(0.8111 -0.5849 0.5849 0.8111 -54.248 83.9871)" class="st104" cx="102.9" cy="126" rx="0.7" ry="0.6"/>
		</g>
		<g class="st2">
			
				<ellipse transform="matrix(0.8111 -0.5849 0.5849 0.8111 -60.2864 81.7217)" class="st104" cx="96.4" cy="134.2" rx="0.4" ry="0.3"/>
		</g>
		<g class="st2">
			
				<ellipse transform="matrix(0.8111 -0.5849 0.5849 0.8111 -49.8249 82.5564)" class="st104" cx="102.9" cy="118.4" rx="0.7" ry="0.6"/>
		</g>
		<g class="st2">
			
				<ellipse transform="matrix(0.8111 -0.5849 0.5849 0.8111 -46.1815 85.1822)" class="st104" cx="108.8" cy="114.1" rx="0.9" ry="0.7"/>
		</g>
	</g>
	<g>
		<g>
			<g>
				<g>
					<path class="st114" d="M141.9,124.8c-0.8,4.7,10,5.5,10,5.5s6.9-16.1-4.2-29.8c-11-13.7-26.2-11.7-27.8-8.4
						c-1.7,3.3,1.6,4.7,1.6,4.7S146.4,99.1,141.9,124.8z"/>
				</g>
				<g class="st106">
					<path class="st107" d="M147.8,100.5c-11.1-13.7-26.2-11.7-27.8-8.4c-1.5,2.9,1,4.4,1.5,4.6c-0.7-0.7-1.2-1.9-0.3-3.5
						c0.3-0.7,1.5-1.3,2.9-1.8c-0.3,0.2-0.6,0.5-0.4,0.7c0.1,0.5,1.1,0.7,2.2,0.5c1.2-0.2,2-0.8,2-1.2c0-0.2-0.2-0.3-0.4-0.5
						c5.4-0.1,13.2,2.1,19.6,10c10.3,12.7,3.9,27.7,3.9,27.7s-7.2-0.5-8.9-3.3c0.2,4.2,10,4.8,10,4.8S158.8,114.3,147.8,100.5z"/>
				</g>
				<g class="st2">
					<path class="st104" d="M151.9,130.3c0,0,0.9-2.1,1.6-5.6c-1.1-1.1-2.8-2-4.6-2.7c-1.6-0.7-2.6-2.2-2.5-3.9
						c0.3-4.4,0.3-10-3.5-14.7c-8.7-10.7-20.4-9.2-21.9-6.8c0.3,0.2,0.6,0.3,0.6,0.3s24.9,2.1,20.4,27.9
						C141.2,129.5,151.9,130.3,151.9,130.3z"/>
				</g>
				<g>
					<path class="st104" d="M151.9,130.8L151.9,130.8c-0.3,0-7.5-0.6-9.8-3.5c-0.6-0.8-0.8-1.7-0.7-2.6c1.4-7.7,0.2-13.9-3.5-18.7
						c-5.8-7.7-16.4-8.7-16.5-8.7h-0.1c-0.1,0-1.6-0.8-2.1-2.4c-0.3-0.9-0.2-2,0.3-3c0.7-1.2,2.8-2.2,5.7-2.6
						c6.3-0.7,15.6,1.8,22.8,10.9c5.8,7.2,6.6,15.1,6.4,20.4c-0.3,5.7-2,9.8-2.1,9.9C152.3,130.7,152.2,130.8,151.9,130.8z
						 M141.9,124.8l0.4,0.1c-0.1,0.7,0,1.2,0.4,1.8c1.8,2.2,7.3,2.9,8.8,3.1c0.4-1,1.6-4.6,1.9-9.3c0.3-5.2-0.6-12.7-6.2-19.7
						c-7.1-8.8-16-11.1-22.1-10.6c-2.8,0.3-4.6,1.2-4.9,2c-0.4,0.8-0.6,1.6-0.3,2.4c0.3,1,1.3,1.6,1.6,1.7c0.6,0,3,0.3,6.2,1.5
						c3.3,1.1,7.8,3.4,10.9,7.5c3.8,4.9,5.1,11.5,3.6,19.5H141.9z"/>
				</g>
			</g>
			<g>
				<path class="st103" d="M151.9,130.3c0,0-2.1,2.4-6.3,1.1c-4.2-1.3-5.2-4.2-3.7-6.6C143.4,122.3,155,125.4,151.9,130.3z"/>
			</g>
			<g class="st2">
				<path class="st104" d="M151.9,130.3c0,0-2.1,2.4-6.3,1.1c-4.2-1.3-5.2-4.2-3.7-6.6C143.4,122.3,155,125.4,151.9,130.3z"/>
			</g>
			<g>
				<path class="st104" d="M148.1,132.3c-0.8,0-1.6-0.1-2.6-0.4c-2.9-0.9-4.1-2.4-4.4-3.5c-0.4-1.2-0.3-2.6,0.4-3.8
					c0.6-0.9,2-1.1,3.2-1c2.8,0.1,6.8,1.6,7.9,3.7c0.6,1,0.6,2.3-0.2,3.4c0,0,0,0,0,0.1C152.3,130.7,150.8,132.3,148.1,132.3z
					 M144.4,124.4c-1,0-1.8,0.2-2,0.7c-0.6,1-0.8,2-0.3,2.9c0.4,1.2,1.8,2.4,3.8,2.9c3.6,1.1,5.5-0.7,5.7-0.9
					c0.4-0.8,0.6-1.6,0.1-2.4c-1-1.8-4.5-3.2-7.1-3.3C144.5,124.4,144.5,124.4,144.4,124.4z M151.9,130.3L151.9,130.3L151.9,130.3z"
					/>
			</g>
		</g>
		<g>
			<g>
				<path class="st115" d="M127.4,94.8c-0.1-0.2-0.1-0.5-0.1-0.7s0-0.5,0.1-0.7s0.2-0.4,0.3-0.6c0.1-0.1,0.3-0.3,0.6-0.3
					c-0.1,0.2-0.2,0.3-0.3,0.6c-0.1,0.3-0.2,0.3-0.2,0.6c-0.1,0.2-0.1,0.3-0.2,0.6C127.5,94.3,127.5,94.6,127.4,94.8z"/>
			</g>
			<g>
				<path class="st115" d="M128.8,95.6c-0.1-0.3,0-0.7,0-0.9c0-0.3,0.1-0.6,0.3-0.9c0.1-0.3,0.3-0.6,0.6-0.8c0.1,0,0.1-0.1,0.2-0.1
					s0.1-0.1,0.2-0.1c0.1,0,0.1-0.1,0.2-0.1c0.1,0,0.1,0,0.2-0.1c-0.2,0.2-0.4,0.5-0.6,0.7c-0.2,0.2-0.3,0.5-0.4,0.7
					c-0.1,0.2-0.2,0.4-0.3,0.8C128.9,95,128.8,95.3,128.8,95.6z"/>
			</g>
		</g>
		<g>
			<g>
				<path class="st115" d="M146.4,115.8c0.2-0.2,0.6-0.3,0.9-0.5c0.3-0.1,0.7-0.1,1-0.1s0.7,0.1,1,0.2c0.1,0,0.1,0.1,0.2,0.1
					s0.1,0.1,0.2,0.1s0.1,0.1,0.2,0.1c0.1,0.1,0.1,0.1,0.1,0.2c-0.3-0.1-0.7-0.2-0.9-0.2c-0.3-0.1-0.6-0.1-0.9-0.1
					c-0.3,0-0.6,0-0.9,0C147.1,115.7,146.8,115.7,146.4,115.8z"/>
			</g>
			<g>
				<path class="st115" d="M146,118c0.4-0.2,0.9-0.3,1.4-0.4c0.4-0.1,0.9-0.1,1.3,0c0.1,0,0.2,0,0.3,0.1c0.1,0,0.2,0.1,0.3,0.1
					s0.2,0.1,0.3,0.1l0.1,0.1l0.1,0.1c0.1,0.1,0.2,0.1,0.3,0.2s0.2,0.1,0.2,0.2l0.1,0.1l0.1,0.1c0.1,0.1,0.1,0.2,0.2,0.2
					c-0.4-0.2-0.8-0.5-1.2-0.6l-0.1-0.1h-0.1c-0.1,0-0.2-0.1-0.3-0.1s-0.2,0-0.3-0.1s-0.2,0-0.3-0.1c-0.4-0.1-0.9-0.1-1.4-0.1
					C146.9,118,146.4,118,146,118z"/>
			</g>
		</g>
	</g>
	<g>
		<g>
			<path class="st111" d="M132.4,114.3c3.4-1.8,4.4-0.1,4.8,3C134.7,117.5,132.6,116.8,132.4,114.3z"/>
		</g>
		<g>
			<path class="st112" d="M136.7,117.9c-1.5,0-2.6-0.3-3.5-1.1c-0.7-0.7-1.1-1.5-1.2-2.6c0-0.1,0.1-0.2,0.2-0.3
				c1.5-0.8,2.6-1,3.5-0.6c1.2,0.6,1.8,2.2,2.1,4c0,0.1,0,0.2-0.1,0.3c-0.1,0.1-0.1,0.1-0.2,0.1C137.2,117.9,137,117.9,136.7,117.9z
				 M132.7,114.4c0.1,0.8,0.4,1.3,0.9,1.8c0.8,0.7,1.9,1,3.4,0.9c-0.3-1.3-0.8-2.7-1.7-3.2C134.7,113.7,133.8,113.8,132.7,114.4z"/>
		</g>
		<g>
			<path class="st113" d="M132.3,113.8c0.3-0.1,0.8-0.1,1.1,0s0.7,0.2,1,0.4c0.3,0.2,0.6,0.5,0.8,0.7s0.4,0.6,0.7,0.8
				c-0.6-0.4-1.1-0.7-1.7-0.9c-0.3-0.1-0.6-0.2-0.9-0.2c-0.3,0-0.6,0-0.8,0l0,0c-0.2,0-0.3-0.1-0.4-0.3
				C132,114,132.2,113.9,132.3,113.8z"/>
		</g>
	</g>
</g>
</svg>
