<svg xmlns="http://www.w3.org/2000/svg" xmlns:v="https://vecta.io/nano" xmlns:xlink="http://www.w3.org/1999/xlink" id="Layer_1" x="0" y="0" version="1.1" viewBox="0 0 180 180" xml:space="preserve" style="enable-background:new 0 0 180 180"><style type="text/css">.st0{fill:#aa8159}.st1{fill:#b68a4f}.st2{opacity:.3}.st3{fill:#c49776}.st4{fill:#fff5d8}.st5{opacity:.1;fill:none;stroke:#191326;stroke-width:4;enable-background:new}.st6{fill:#ffc31a}.st7{fill:#ffd538}.st8{fill:#fccd35}.st9{fill:#ffeedc}.st10{fill:#f99338}.st11{fill:#ffa45a}.st12{fill:#fc9d4f}</style><g><path d="M79.4,156.5c35.1,16.5,76.9,1.4,93.5-33.8s1.6-77.1-33.5-93.6c-30.5-14.3-66-4.8-85.7,21 c-3.9,0-10.4-0.9-17.3-5.5c0,0-9.2-5.8-12.3-9.8c-3.1-4.1-12.5-9.4-19.1,1l-1.1,2.4l-1.5,3.2l-1.1,2.4 c-3.8,11.7,6.3,15.6,11.4,15.4c5-0.2,15.3,3.2,15.3,3.2c7.3,2.2,11.9,6.1,14.6,9C31.9,104.6,47.2,141.3,79.4,156.5z M7.9,43.2 c1.3-2.8,4.6-4,7.4-2.7s4,4.6,2.7,7.4c-1.3,2.8-4.6,4-7.4,2.7C7.7,49.3,6.5,46,7.9,43.2z" class="st0"/><path d="M0,48.5c0-1.5,0.3-3.1,0.8-4.7l0,0l3.8-8l0,0c2.5-4,5.6-6,9.3-6.2c4.3-0.2,8.4,2.6,10.4,5.2 c3,4,12.1,9.7,12.2,9.7c6.7,4.4,12.9,5.4,17,5.5C63.2,37.2,77,28.2,92.4,24.3c15.7-4,32.5-2.3,47.1,4.6c12.5,5.9,22.9,15.2,30,26.9 c7,11.4,10.6,24.5,10.4,37.9c-0.1,10.1-2.4,20-6.8,29.2c-8.1,17.1-22.3,30-40,36.4s-36.9,5.5-53.9-2.5c-12.5-5.9-22.9-15.2-30-26.9 c-7-11.4-10.6-24.5-10.4-37.9l0,0c0.1-6.9,1.2-13.8,3.3-20.5c-2.6-2.8-7.2-6.6-14.3-8.8c-0.1,0-10.3-3.4-15.3-3.2 c-2.8,0.1-6.9-1-9.6-3.6C1,54,0,51.5,0,48.5z M1.5,44c-0.5,1.6-0.8,3.1-0.8,4.5c0,2.8,0.9,5.1,2.8,6.9c2.6,2.5,6.4,3.5,9.1,3.4 c5.1-0.2,15.1,3.1,15.5,3.3c7.4,2.3,12.1,6.2,14.7,9.1c0.1,0.1,0.1,0.2,0.1,0.4c-2.1,6.6-3.3,13.5-3.4,20.4l0,0 c-0.2,13.2,3.4,26.2,10.3,37.5c7.1,11.6,17.4,20.8,29.7,26.6c16.9,7.9,35.8,8.8,53.4,2.5s31.6-19.2,39.6-36.1 c4.3-9.2,6.6-18.9,6.7-28.9c0.2-13.2-3.4-26.2-10.3-37.5c-7.1-11.6-17.4-20.8-29.7-26.6c-14.5-6.8-31.1-8.5-46.6-4.5 c-15.3,3.8-29,12.9-38.6,25.4c-0.1,0.1-0.2,0.1-0.3,0.1c-4.2,0-10.6-1-17.5-5.6c-0.4-0.2-9.3-5.8-12.4-9.9c-1.9-2.5-5.7-5-9.8-4.9 c-3.4,0.1-6.3,2.1-8.7,5.8L1.5,44z M7,45.5c0-0.9,0.2-1.7,0.6-2.5c0.7-1.4,1.9-2.5,3.4-3.1c1.5-0.5,3.1-0.5,4.5,0.2 c2.1,1,3.4,3.1,3.4,5.4c0,0.9-0.2,1.7-0.6,2.5c-0.7,1.4-1.9,2.5-3.4,3.1c-1.5,0.5-3.1,0.5-4.5-0.2C8.3,49.9,6.9,47.8,7,45.5z M18.1,45.6c0-2-1.1-3.9-3-4.8c-1.3-0.6-2.7-0.7-4-0.2S8.7,42,8.2,43.3c-0.3,0.7-0.5,1.4-0.5,2.2c0,2,1.1,3.9,3,4.8 c1.3,0.6,2.7,0.7,4,0.2s2.4-1.4,2.9-2.7C17.9,47.1,18.1,46.3,18.1,45.6z" class="st1"/></g><g><g class="st2"><path d="M25.2,41.1c0.6,0.2,1.4,0.6,2.1,0.4c0.8-0.2,0.6-1.4,0.5-2c-0.1-0.5-0.3-1-0.5-1.5c-1.3-1.1-2.4-2.2-3.2-3.2 c-0.7-1-1.9-2.1-3.2-2.9c0.9,1.5,1.5,3,1.5,4.9c0,0.1-0.1,0.2-0.2,0.2c-3.6-0.9-6.9-3.1-9.8-5.3c-0.5-0.4-0.9-0.7-1.4-1.1 c-0.6,0.2-1.2,0.6-1.8,1c3,2,6,4,9,5.9C20.3,38.7,22.7,40.2,25.2,41.1z" class="st3"/><path d="M5,35.8l-0.7,1.4c2.1,1.1,4.3,2.1,6.4,3.2c1.4-0.6,3.1-0.6,4.5,0.1c1.7,0.8,2.8,2.4,3.1,4.1 c4,2.3,8,4.6,12,6.8c1.8,1,3.5,1.9,5.3,2.9c1.7,1,3.5,2.1,5.4,2.6c1.4,0.4,4.3,0.4,4.2-1.7c0-1.8-1.2-3.5-2-5.1 c-0.5-0.9-1-1.8-1.4-2.7c-1.7-0.8-3.6-1.7-5.4-2.9c0,0-0.4-0.3-1.1-0.7c0.2,0.4,0.3,0.7,0.4,1.1c0.3,0.8,0.6,1.8,0.4,2.7 c-0.4,1.7-2.3,1.3-3.5,0.9c-2.6-0.9-5.1-2.5-7.4-4c-2.7-1.7-5.3-3.5-7.9-5.4c-1.5-1.1-3-2.2-4.7-3.1c-1.9-1-3.7-2-5.6-3 C6.3,33.9,5.6,34.8,5,35.8z" class="st3"/><path d="M52.4,57.3c0.4,1.6,0.6,3.9-0.8,5.1c-2,1.8-5.6,1-7.9,0.5c-10-2.2-18.5-8.3-27.4-13c-1.2,0.9-2.7,1.4-4.3,1.1 c5.6,2.3,11.2,4.7,16.8,7c5.4,2.3,10.8,4.6,16.2,6.8c3.5,1.4,7.1,3,10.7,4.1c0.8,0.2,1.6,0.5,2.5,0.6c1.2,0.2,3.5,0.6,4.3-0.6 c0.7-1,0.3-2.3,0-3.4c-0.5-1.6-1.2-3.1-2-4.6c-1-1.9-1.9-3.8-3.1-5.6c-1.2-1.8-2.5-3.5-3.9-5.2c-1.2,0-2.7-0.1-4.3-0.4 C50.5,52.1,51.8,54.7,52.4,57.3z" class="st3"/><path d="M0.5,46.6c3.1,1.1,6.1,2.3,9.2,3.5c-1.5-1-2.3-2.7-2.4-4.5c-1.9-0.8-3.9-1.7-5.8-2.5l-0.3,0.7 C0.9,44.8,0.7,45.7,0.5,46.6z" class="st3"/><path d="M27.6,62.3c-6-2.8-12-5.5-18.1-8.1c-2.9-1.2-5.9-2.4-8.9-3.5c1.2,6.4,8.1,8.6,12,8.5 C17.1,59,25.6,61.6,27.6,62.3z" class="st3"/><path d="M159.5,43.4c-4.8-0.8-9.5-2.4-13.7-5.1c-4-2.6-7.8-5.6-11.4-8.8c-1.4-1.2-2.6-2.5-3.9-3.8 c-2.9-0.9-5.9-1.6-8.9-2.2c1.2,1.1,2.5,2.1,3.7,3.1c4.2,3.6,8.3,7.3,12.9,10.4c7.3,4.9,15.6,8.5,24.4,9.7 C161.6,45.6,160.6,44.5,159.5,43.4z" class="st3"/><path d="M166.4,51.6c-0.4,0-0.8-0.1-1.2-0.1c-3.4-0.3-6.8-0.6-10.1-1.3c-10.4-2.3-20.3-7.1-28.8-13.6 c-5.5-4.2-10.6-9-15.3-14.1c-2,0-4,0-6,0.1c6.6,6.3,12.8,13,19.8,18.8c3.9,3.3,8.1,6.4,12.6,8.8c4.9,2.7,10.1,4.7,15.4,6.6 c4.7,1.7,9.4,3.2,14.2,4.6c2.2,0.6,4.3,1.3,6.5,2.1C171.4,59.4,169.1,55.4,166.4,51.6z" class="st3"/><path d="M175.9,70.2c-3.7-1.2-7.4-2.7-11.2-3.6c-8-1.9-15.9-4.4-23.4-7.8c-4.8-2.2-9.5-4.8-14.2-7.4 c-4.7-2.6-9.3-5.4-13.8-8.3c-8.2-5.3-16.1-11.2-23.3-17.8c-2,0.6-4.1,1.3-6,2c1.5,1,3,2,4.4,3.1c5,3.5,10,7.1,14.9,10.8 c4.9,3.6,9.7,7.2,14.6,10.8c3.1,2.2,6.1,4.6,9.4,6.5c4.4,2.5,9.3,4.4,14,6.2c2.6,1,5.2,2,7.9,3c2.5,0.9,4.9,1.9,7.5,2.7 c6.9,2.2,14.2,3.4,21,5.9C177.2,74.3,176.6,72.2,175.9,70.2z" class="st3"/><path d="M179.6,92.6c-1.4-0.6-2.8-1.3-4.2-2c-3.8-2-7.8-4.3-10.9-7.3c-0.1-0.1,0-0.3,0.1-0.3c5,0.3,9.8,1.7,14.6,3.2 c-0.1-1-0.2-1.9-0.3-2.9c-2-0.6-4-1.2-6-1.6c-4.4-1-8.9-1.7-13.3-2.8c-3.1-0.7-6.1-2-9.2-2.9c-1.8-0.5-3.7-1-5.6-1.2 c-1.3-0.1-2.7-0.2-3.9,0.4c2.5,2.8,5.9,4.8,9.3,6.4c3.6,1.8,7.4,3.2,11.2,4.8c4.3,1.8,8.5,3.9,12.7,5.8c1.8,0.8,3.5,1.6,5.3,2.4 C179.6,93.9,179.6,93.2,179.6,92.6z" class="st3"/><path d="M179.6,94.9c-1.8-0.8-3.7-1.6-5.5-2.5c-4.4-2-8.6-4.2-13.1-6c-3.8-1.5-7.6-3-11.3-4.8 c-3.3-1.7-6.6-3.6-9.1-6.4c-0.1-0.1-0.1-0.2,0-0.3c0.2-0.1,0.3-0.2,0.5-0.2c1.3-0.5,2.8-0.4,4.1-0.2c1.8,0.2,3.5,0.7,5.2,1.2 c3.2,0.9,6.2,2.2,9.4,2.9c4.5,1,9.1,1.7,13.6,2.8c1.8,0.4,3.5,0.9,5.2,1.5c0-0.1,0-0.3-0.1-0.4c-1.3-0.4-2.5-0.8-3.8-1.2 c-10-3.2-20.3-5.5-30.4-8.6c-5-1.5-9.9-3.2-14.7-5.3c-4.8-2.1-9.3-4.5-13.8-7.2c-9-5.4-17.3-11.8-25-19c-3-2.8-6.1-5.4-9-8.4 c-1-1.1-2-2.2-3-3.4c-1.8,0.9-3.6,1.8-5.3,2.8c0.9,0.8,1.8,1.6,2.7,2.5c3.5,3.4,7,6.7,10.3,10.3c1.8,2.1,3.6,4.2,5.4,6.3 c1.7,2.1,3.4,4.2,5.2,6.2c6.9,7.6,15.7,13,24.8,17.4c10.6,5.1,21.5,9.5,32.4,13.9c8.3,3.4,16.3,7.6,24.4,11.4 C179.4,98.5,179.5,96.7,179.6,94.9z" class="st3"/><path d="M166.4,104.9c0.7,1.3,2.1,2.4,3.2,3.3c1.9,1.6,3.9,3.1,6,4.5c0.3,0.2,0.6,0.4,0.9,0.6 c0.5-1.6,0.9-3.3,1.3-4.9C174.1,106.9,170.5,105,166.4,104.9z" class="st3"/><path d="M175.6,116.2c-2.4-1.2-4.7-2.8-7-4.3c-3.1-2.1-6.4-3.9-9.7-5.8c-3.9-2.3-7.9-4.7-11.1-8 c-0.1-0.1,0-0.3,0.1-0.3c3.1-1.1,6.6,0,9.5,1c3.1,1.1,6.2,2.2,9.4,3.2c3.8,1.1,7.8,2.3,11.5,3.9c0.1-0.7,0.2-1.3,0.4-2 c-4.8-1.7-9.6-3.2-14.4-4.7C154,96,143.6,93,133.7,88.8c-4.9-2-9.6-4.3-14.2-7c-4.5-2.6-8.8-5.5-12.9-8.7 c-14.2-10.7-26.5-23.8-38.5-37c-1.3,1-2.6,2-3.9,3.1c0.4,0.3,0.7,0.6,1.1,0.9C70.4,44.6,74,50.3,77.7,56c2.8,4.4,5.8,8.7,9.4,12.5 c3.6,3.7,7.5,7.1,11.6,10.1c8.5,6.3,17.4,12,26.9,16.6c9.9,4.8,20.1,8.8,29.7,14.3c4.8,2.7,9.6,5.5,14.6,7.9 c1.4,0.7,2.9,1.3,4.4,1.9C174.8,118.3,175.2,117.3,175.6,116.2z" class="st3"/><path d="M156.1,127.2c-2.8-1.2-5.7-2.3-8.6-3.1c-2.6-0.8-5.3-1.4-8.1-1.2c1.5,2.4,4.3,4,6.8,5.2 c2.8,1.4,5.7,2.6,8.6,3.8c3.1,1.3,6,2.8,8.9,4.3c0.2,0.1,0.4,0.2,0.7,0.3c1-1.3,2-2.6,2.9-4c-0.5-0.2-0.9-0.5-1.4-0.7 C162.8,130,159.5,128.5,156.1,127.2z" class="st3"/><path d="M48.7,118.7c1.7,0.5,3.3,1.2,5,1.7c2.6,0.8,5.3,1.5,7.9,2.3c10.6,3,21.3,5.7,31.9,8.8 c11.3,3.4,22.5,7,33.8,10.3c5.6,1.6,11.2,3.4,16.7,5.3c2.3,0.8,4.6,1.6,6.9,2.3c0.7-0.5,1.4-1,2-1.6c-1.1-0.5-2.3-0.9-3.4-1.4 c-4.9-1.9-9.9-3.4-14.9-5c-11.1-3.7-22.2-7.6-33.1-11.7c-10.8-4-21.7-8.1-32.8-11.3c-9-2.6-17.8-6.4-27.1-7.4 c0.6,2.1,1.2,4.2,2,6.2C45.3,117.7,47,118.2,48.7,118.7z" class="st3"/><path d="M68.5,144.1c11.1,4,21.9,8.3,32.7,13c4.5,1.9,9,3.9,13.5,5.8c4.1-0.3,8.1-1,12-2c-2.1-0.9-4.2-1.8-6.3-2.7 c-6.9-2.9-14-5.4-21.1-7.8c-5.4-1.9-10.9-3.6-16.3-5.6c-5.2-1.9-10.3-4.1-15.4-6.5c-5-2.4-10-4.8-15-7.2c-1-0.5-2-1-3-1.4 c2.3,3.8,4.9,7.3,7.9,10.6C61.2,141.4,64.9,142.8,68.5,144.1z" class="st3"/><path d="M67.5,149.2c3.8,1.5,7.6,3,11.4,4.6c6.3,2.7,12.6,5.5,18.9,8.4c2,0.3,4.1,0.6,6.1,0.7 c-7.5-3.6-15.1-7-22.7-10.5c-4.6-2.1-9.2-4.3-14-6.1c-1.9-0.8-3.9-1.5-5.9-2c1.8,1.7,3.7,3.3,5.7,4.8 C67.3,149.1,67.4,149.2,67.5,149.2z" class="st3"/><path d="M44,106.7c2.3,0.7,4.7,1.1,7.1,1.5c5.8,1.1,11.6,2.2,17.3,3.7c11.3,3.1,22.3,6.9,33.5,10.2 c11.2,3.3,22.6,6.1,33.8,9.5c8.4,2.6,16.3,6.2,24.2,9.9c0.8-0.9,1.6-1.7,2.4-2.6c-3.8-1.3-7.5-2.7-11.2-4.2 c-5.3-2.1-10.4-4.5-15.6-6.8c-10.8-4.7-21.8-8.8-32.7-13.3c-10.3-4.2-20.7-8.3-31.4-11.2c-10.5-2.9-21.1-5-32-5.9 c0.2,2.7,0.5,5.4,1,8.1C41.6,106,42.8,106.4,44,106.7z" class="st3"/><path d="M105,99.3c0.7-0.1,1.5-0.3,2.1-0.6c0.3-0.1,0.5-0.3,0.8-0.4c0.5-0.3,0.5-0.3,0.1-0.6c-1.4-1.4-3-2.6-4.8-3.6 c-3.7-2.1-7.9-3.5-12.1-4.6c-4-1-8-1.6-12-2C73.5,87,68,86.1,62.5,84.9c-2.8-0.6-5.6-1.3-8.3-2.1c-2-0.6-4-1.3-5.9-2.1 c-2.1-0.8-4.2-1.6-6.3-2.2c-0.4-0.1-0.8-0.2-1.2-0.3c-0.2,1-0.4,1.9-0.6,2.9c2.9,0.6,5.6,1.7,8.3,3c0.2,0.1,0.1,0.3-0.1,0.3 c-2.9,0.2-5.8,0-8.7,0.1c-0.1,1.1-0.2,2.2-0.3,3.3c7.4,1,14.8,2.3,22.2,3.7c4.5,0.9,9,1.7,13.5,2.6c3,0.5,5.9,1,8.8,1.8 c3.5,1,6.9,1.9,10.5,2.7C97.7,99.3,101.5,100,105,99.3z" class="st3"/><path d="M172.7,123.2c-0.7-0.4-1.4-0.8-2.2-1.1c-5.6-2.6-11.3-4.7-17.1-6.9c-10.2-3.9-20.4-7.7-30.2-12.5 c-9.5-4.6-18.8-10-26.6-17.2c-7.5-7-13.7-15.2-20-23.2C71.5,55.6,66.6,48.4,60,43c-0.4,0.4-0.8,0.8-1.3,1.3 c0.5,0.9,1.1,1.9,1.7,2.8c3.1,5.1,6.3,10.1,9.1,15.2c1.3,2.4,2.5,4.8,3.6,7.3c0.8,1.9,1.5,4,1.7,6.1c0.1,1.4-0.1,3-1.1,4 c-1.7,1.7-4.5,1.6-6.6,1.1C62.9,80,59.2,78,55.5,76c-4.7-2.5-9.5-4.7-14.2-7c-1.2-0.6-2.3-1.2-3.5-1.7c2,1.5,3.6,2.9,4.8,4.2 c-0.4,1.1-0.7,2.3-1,3.4c3,0.8,6,1.8,8.9,2.9c0.2,0.1,0.2,0.3,0,0.3c-3.2,0.7-6.3-0.2-9.5-0.6c0,0.1,0,0.2-0.1,0.3 c1.6,0.4,3.2,1,4.7,1.5c3.7,1.3,7.2,2.8,11,3.7c5.7,1.5,11.4,2.7,17.2,3.5c4.3,0.6,8.6,0.9,12.9,1.7c7.7,1.4,16.5,3.7,22,9.7 c0.1,0.1,0.1,0.2,0,0.3c-1.7,1.5-4.2,1.8-6.4,1.8c-3.1,0-6.2-0.5-9.2-1.2c-3.4-0.8-6.8-1.7-10.2-2.7c-4.4-1.2-8.9-1.8-13.4-2.6 c-10-1.9-20-3.9-30.1-5.3c-0.1,1.6-0.2,3.3-0.2,4.9c4.3,0.4,8.7,0.7,12.9,1.2c11.5,1.5,22.9,3.9,34.1,6.8 c11.3,3,22.6,6.3,33.7,9.9c10.6,3.4,21,7.3,31.6,10.8c6.1,2,12.4,4,18.4,6.7C170.9,126.7,171.8,125,172.7,123.2z" class="st3"/></g><g><path d="M58.1,48.3c1.4-1.6,3.2-3,4.8-4.5c1.8-1.6,3.6-3.2,5.4-4.6c3.6-2.8,7.4-5.1,11.5-7.2 c4.5-2.3,9.3-3.8,14.2-5.2c2.4-0.6,4.7-1.4,7.1-1.8c2.6-0.4,5.2-0.5,7.7-0.9c0.4-0.1-0.1-0.7-0.4-0.6c-2.4,0.2-4.9,0.3-7.3,0.5 c-2.7,0.3-5.3,1.1-7.9,1.7c-4.8,1.3-9.4,2.7-13.9,4.9c-4.3,2.1-8.3,4.6-12.1,7.5c-1.8,1.4-3.5,2.9-5.1,4.4s-3.8,3.2-4.9,5.1 C57.2,48.1,57.9,48.6,58.1,48.3z" class="st3"/><path d="M33.1,44.3c-2.6-2-5.2-3.9-7.7-6.1c-2.2-1.9-3.9-4.3-6.3-5.9c-4.5-3-9.6-0.2-12.7,3.5C6.2,36,6.8,36.5,7,36.4 c1.7-1.3,3.5-2.7,5.4-3.6c3.3-1.6,6.1-0.2,8.5,2.2c1.6,1.6,3.1,3.2,4.9,4.7c2.2,1.8,4.6,3.3,6.9,4.9 C33.2,44.9,33.5,44.6,33.1,44.3z" class="st3"/><path d="M12.7,57.8c-1.9-0.6-3.9-1.1-5.7-2.1c-2-1.1-3.2-2.8-4.3-4.8c-0.2-0.3-0.9-0.6-0.8,0 c1.2,4.8,6.5,6.9,10.9,7.5C13.3,58.5,12.9,57.9,12.7,57.8z" class="st3"/><path d="M107.8,161.1c5.4-0.1,10.8-0.6,16.2-1.6c10.5-2,20.1-7,28.7-13.1c0.3-0.2-0.2-0.7-0.5-0.5 c-8.6,5.2-17.7,10.1-27.6,12.3c-10.5,2.3-22,2.9-32.5,0.4c-0.6-0.1-0.3,0.5,0.1,0.6C97.1,161,102.5,161.2,107.8,161.1z" class="st3"/></g></g><circle cx="96" cy="46" r="40" class="st4"/><circle cx="96" cy="46" r="37.9" class="st5"/><g id="layer102"><path d="M98.4,46.5c-3,0.2-6.3,0-9.5-0.4c-9.8-1.1-17-4.5-18.8-8.8C70,37,69.9,36.8,69.9,37c-0.2,0.2-0.6,5-0.8,6.8 c-0.2,1.8-0.2,5.8,0,7.1c0.5,3.7,1.7,6.3,3.9,8.6c3.9,3.9,10.5,6.2,19.7,6.8c2.8,0.2,9.8,0.2,10.8-0.2h0.2V54.9 c0.4-3,0.8-5.9,1.1-8.8C103.8,46.1,100.5,46.3,98.4,46.5z" class="st6"/><path d="M122.9,40.9c-0.2-1.1-0.4-3.1-0.5-3.2c0,0-5.2,0-11.4,0H99.6l2.7,4c1.5,2.2,2.7,4.1,2.7,4.1 c-0.4,3-0.8,5.9-1.1,8.8h9c7.3,0,9.2,0,9.2-0.2c0.2-0.2,0.5-3.2,0.6-5.1C123,47.4,123.1,42.8,122.9,40.9z M110.9,52.1 c-0.2,0.2-0.6,0.2-0.9,0.2c-2.1,0-2.8-2.8-1.1-4c0.8-0.4,1.7-0.4,2.3,0.2c0.4,0.2,0.8,1.1,0.8,1.5C112.1,51,111.5,51.9,110.9,52.1z M116,46c-0.2,0.2-0.6,0.2-1.1,0.2c-2.4,0-3.6-3.1-1.8-4.9c1.3-1.1,3.4-0.8,4.1,0.9c0.2,0.4,0.2,0.6,0.2,1.3 C117.6,44.7,117.2,45.5,116,46z M119.2,51.1c-0.6,0.4-1.7,0.2-1.9-0.4c-0.2-0.4-0.2-1.1,0-1.5c0.5-0.8,1.8-0.8,2.3,0 C119.9,49.8,119.8,50.8,119.2,51.1z" class="st7"/><path d="M92.2,44.7c-10.1-0.6-18.5-3.9-20.4-7.9c-0.2-0.6-0.2-0.8-0.2-1.5c0-0.6,0-0.9,0.4-1.5 c1.7-3.5,8.2-6.4,16.7-7.6c3.7-0.5,9-0.6,12.2-0.2c7.3,0.8,13.8,2.8,17.8,5.6c1.1,0.8,2.7,2.3,3.1,3.2c0.2,0.4,0.4,0.8,0.4,0.9v0.2 h-12.7H96.7l2.8,4.3c1.5,2.3,2.8,4.3,2.8,4.3C102,44.7,94.5,45,92.2,44.7z M95.8,42.1c0.8-0.4,0.8-0.9-0.2-1.1 c-1.1-0.4-3-0.2-3,0.5c0,0.2,0.2,0.6,0.6,0.8C94.1,42.4,95.4,42.4,95.8,42.1z M82.7,39.4c0.4-0.2,0.8-0.4,1.1-0.6 c0.5-0.5,0.5-0.9,0-1.4c-1.1-1.1-4.3-1.1-5.6-0.2c-0.9,0.9-0.2,1.9,1.7,2.3C80.6,39.8,82.1,39.8,82.7,39.4z M97.9,33 c0.5-0.2,0.5-0.6,0-0.9c-0.5-0.4-2.3-0.4-2.8-0.2c-0.5,0.2-0.6,0.5-0.4,0.8C95.2,33.2,97.1,33.4,97.9,33z M106.6,33 c0.8-0.2,1.3-0.8,1.3-1.3s-0.2-0.9-1.1-1.1c-0.6-0.2-2.3-0.4-3.2-0.2c-0.8,0.2-1.4,0.9-1.4,1.3s0.6,1,1.3,1.3 C104.4,33.1,105.9,33.1,106.6,33z M88.5,31.3c0.6-0.2,1.3-0.8,1.3-1.1c0-0.2-0.2-0.4-0.4-0.6c-1.1-0.9-3.7-1-4.9-0.2 c-0.4,0.2-0.4,0.4-0.4,0.6c0,0.6,0.9,1.1,2.2,1.4C86.8,31.5,88,31.5,88.5,31.3z" class="st8"/></g><circle cx="120" cy="120" r="54" class="st9"/><circle cx="120" cy="120" r="52.2" class="st5"/><g id="layer102_1_"><path d="M123.2,120.5c-3.8,0.2-8.2,0-12.3-0.4c-12.7-1.5-21.9-5.8-24.3-11.4c-0.2-0.5-0.3-0.7-0.4-0.5 c-0.1,0.3-0.8,6.4-1.1,8.9c-0.2,2.3-0.2,7.5,0,9.1c0.6,4.8,2.1,8.2,5.1,11.1c5,5,13.7,8.1,25.5,8.9c3.7,0.2,12.7,0.1,14-0.2 l0.3-0.1v-14.5c0.5-3.8,1-7.7,1.5-11.5C130.2,120,125.8,120.3,123.2,120.5z" class="st10"/><path d="M154.8,113.4c-0.2-1.5-0.5-4-0.6-4.1c0,0-6.7,0-14.7,0l-14.7,0l3.6,5.2c2,2.9,3.5,5.3,3.5,5.3 c-0.5,3.8-1,7.7-1.5,11.5h11.6c9.4,0,12,0,12-0.2c0.1-0.4,0.6-4.2,0.8-6.6C155,121.6,155.1,115.7,154.8,113.4z M139.3,127.9 c-0.3,0.1-0.8,0.3-1.1,0.3c-2.7,0-3.7-3.7-1.4-5.1c0.9-0.6,2.1-0.5,3,0.2c0.5,0.4,1,1.5,1,2.1C140.8,126.4,140.2,127.4,139.3,127.9 z M146.1,119.9c-0.4,0.2-0.8,0.3-1.5,0.3c-3.2,0-4.7-4-2.3-6.3c1.6-1.5,4.3-1,5.4,1.1c0.2,0.4,0.3,0.8,0.3,1.6 C148,118.2,147.4,119.2,146.1,119.9z M150,126.6c-0.9,0.5-2.1,0.3-2.5-0.6c-0.3-0.5-0.3-1.5,0-2c0.7-1,2.3-1,3,0.1 C151,124.9,150.8,126.1,150,126.6z" class="st11"/><path d="M115.2,118.2c-13-0.8-24-5-26.5-10.2c-0.4-0.8-0.5-1.1-0.5-2s0.1-1.2,0.5-2c2.2-4.5,10.6-8.4,21.7-9.8 c4.8-0.6,11.7-0.8,15.8-0.3c9.5,1,17.8,3.7,23,7.2c1.5,1.1,3.4,3.1,3.9,4.2c0.2,0.5,0.5,1.1,0.5,1.2l0.1,0.3l-16.5,0l-16.5,0 l3.7,5.4c2,3,3.7,5.5,3.7,5.5C127.8,118.2,118.1,118.4,115.2,118.2z M119.9,114.9c1.1-0.4,1-1.1-0.1-1.6c-1.4-0.6-3.9-0.1-3.9,0.7 c0,0.4,0.4,0.8,0.9,1C117.5,115.2,119.3,115.1,119.9,114.9z M102.9,111.4c0.4-0.2,1-0.5,1.3-0.8c0.6-0.7,0.6-1.2-0.1-1.9 c-1.4-1.5-5.6-1.5-7.1-0.1c-1.1,1.1-0.1,2.6,2.2,3.1C100.1,111.9,102,111.7,102.9,111.4z M122.6,102.9c0.7-0.3,0.7-0.8,0-1.2 c-0.7-0.4-3-0.5-3.7-0.1s-0.8,0.7-0.5,1C119,103.3,121.4,103.5,122.6,102.9z M133.8,102.9c1-0.3,1.6-1,1.6-1.7 c0-0.6-0.4-1.1-1.3-1.5c-0.9-0.4-3-0.5-4.1-0.2c-1,0.3-1.8,1.1-1.8,1.7c0,0.5,0.9,1.4,1.7,1.7C130.9,103.2,132.9,103.2,133.8,102.9 z M110.4,100.8c0.8-0.2,1.6-1,1.6-1.5c0-0.2-0.2-0.5-0.5-0.8c-1.3-1.2-4.8-1.4-6.4-0.2c-0.5,0.3-0.6,0.5-0.6,0.9 c0,0.8,1.1,1.6,2.8,1.8C108.1,101.2,109.7,101,110.4,100.8z" class="st12"/></g></svg>