<svg xmlns="http://www.w3.org/2000/svg" xmlns:xlink="http://www.w3.org/1999/xlink" id="Layer_1" x="0" y="0" enable-background="new 0 0 1080 602.7" version="1.0" viewBox="0 0 1080 602.7" xml:space="preserve"><g><g><g><path fill="#732A13" d="M1039.7,491.8c8.7,76.8-208,164.4-484,195.7c-276,31.3-506.8-5.6-515.5-82.4 c-8.7-76.8,208-164.4,484-195.7C800.2,378.2,1031,415,1039.7,491.8z"/><path fill="#6C151C" d="M991.2,465.9c8,70.6-191.2,151.2-445,179.9c-253.8,28.8-466-5.1-474-75.8c-8-70.6,191.2-151.2,445-180 C771,361.3,983.2,395.2,991.2,465.9z"/><path fill="#6F4026" d="M58.3,586.1c0,0-18.8,8.7,3.9,43.9c22.7,35.2,256.5,84.2,468.4,50.2c0,0,148.4-13.8,148.1-25.8 c-0.3-11.9-57.8-7.1-57.8-7.1s-67.1,8.4-96.3,11.3C495.3,661.6,116.2,700.2,58.3,586.1z"/></g><g><path fill="#F6C073" d="M983.4,454.4c-1.6-13.7-10.8-26-26.4-36.8c-5,0.1-9.8,0.9-13.3,4c-1.9,1.7-2.8,5-4.7,6.4 c-1.2,0.9-4,0.9-5.5,1.3c-4.2,1.2-8.5,2.7-12.9,2.7c-9,0-18-1.3-26.9-1.7c-8.5-0.4-17.1-0.6-25.6-0.8c-18-0.4-36.1-0.8-54.1-1.3 c-36.1-1-72.1-1.8-108.2,0.2c-36.4,1.9-72.7,4.3-109.1,6.7c-7.6,0.5-15.3,0.7-22.9,0.9c-2.9,0.3-5.8,0.6-8.8,0.9 c-6.1,0.6-12.1,1.8-18.2,2.4c-4.3,0.4-8.5,0.7-12.7,1.9c-4.5,1.3-13.4,5.5-18.1,3.3c-4.1-2-6.4-8.3-8-12.2 c-2.8-6.6-5.2-13.3-7.1-20.2c-1.7-6-2.7-11-2-17.2c0.7-6-1.6-10.4-5.3-13.7c-238,30.5-421.1,107.5-413.4,175.6 c8,70.3,216.6,104.3,466,76.1C795.7,604.6,991.4,524.7,983.4,454.4z"/><path fill="#F1A12E" d="M501,396.5c-0.2,3-0.5,6,0.2,8.8c1.7,7.2,3.9,14.3,6.6,21.2c1.9,4.8,4,12,8.2,15.5 c0.1,0.1,0.3,0.2,0.5,0.3c-3-6-5.8-12.2-8.3-18.4c-2.4-6-5.4-12.6-6.2-19c-0.4-2.9-0.3-5.6,0.1-8.4 C501.7,396.4,501.4,396.5,501,396.5z"/><path fill="#F1A12E" d="M945.3,439.4c-0.5-4.3-2.3-8.3-5.3-12.2c-0.3,0.3-0.5,0.6-0.9,0.9c-1.2,0.9-4,0.9-5.5,1.3 c-4.2,1.2-8.5,2.7-12.9,2.7c-9,0-18-1.3-26.9-1.7c-8.5-0.4-17.1-0.6-25.6-0.8c-18-0.4-36.1-0.8-54.1-1.3 c-36.1-1-72.1-1.8-108.2,0.2c-36.4,1.9-72.7,4.3-109.1,6.7c-7.6,0.5-15.3,0.7-22.9,0.9c-2.9,0.3-5.8,0.6-8.8,0.9 c-6.1,0.6-12.1,1.8-18.2,2.4c-4.3,0.4-8.5,0.7-12.7,1.9c-4.5,1.3-13.4,5.5-18.1,3.3c-4.1-2-6.4-8.3-8-12.2 c-2.8-6.6-5.2-13.3-7.1-20.2c-1.5-5.3-2.5-10-2.1-15.4C279,424.1,108.4,484.2,114,533.6c5.8,50.9,196.5,71.1,426.1,45.1 C769.6,552.7,951,490.3,945.3,439.4z"/><path fill="#F1A12E" d="M927.9,445.4c-0.5-4.7-2.7-9.1-6.4-13.3c-0.3,0-0.5,0-0.8,0c-9,0-18-1.3-26.9-1.7 c-8.5-0.4-17.1-0.6-25.6-0.8c-18-0.4-36.1-0.8-54.1-1.3c-36.1-1-72.1-1.8-108.2,0.2c-36.4,1.9-72.7,4.3-109.1,6.7 c-7.6,0.5-15.3,0.7-22.9,0.9c-2.9,0.3-5.8,0.6-8.8,0.9c-6.1,0.6-12.1,1.8-18.2,2.4c-4.3,0.4-8.5,0.7-12.7,1.9 c-4.5,1.3-13.4,5.5-18.1,3.3c-4.1-2-6.4-8.3-8-12.2c-2.8-6.6-5.2-13.3-7.1-20.2c-0.7-2.6-1.3-5-1.7-7.4 C289.5,431,126.9,488.4,132.3,535.6c5.5,48.7,188.1,68.1,407.8,43.1C759.8,553.8,933.4,494.1,927.9,445.4z"/><path fill="#FBE0BA" d="M927.9,445.4c-0.5-4.7-2.7-9.1-6.4-13.3c-0.3,0-0.5,0-0.8,0c-9,0-18-1.3-26.9-1.7 c-8.5-0.4-17.1-0.6-25.6-0.8c-18-0.4-36.1-0.8-54.1-1.3c-36.1-1-72.1-1.8-108.2,0.2c-20.1,1.1-40.3,2.3-60.4,3.5 c14.7,0.1,29.7,2.2,44.2,1.9c15.6-0.3,31.4,0.5,47,1.7c9.7,0.8,80.5,3.5,66.8,26.7c-10.2,17.2-40.5,16.9-57.5,17.2 c-32.6,0.5-64.6-1.1-96.6-7.7c-10.7-2.2-53.1-5.2-56.3-18.8c-1.6-6.6,5.7-10.7,14-13.2c6.8-3.5,13.8-5.6,21.1-6.7 c-10.4,0.7-20.8,1.3-31.2,2c-7.6,0.5-15.3,0.7-22.9,0.9c-2.9,0.3-5.8,0.6-8.8,0.9c-6.1,0.6-12.1,1.8-18.2,2.4 c-4.3,0.4-8.5,0.7-12.7,1.9c-4.5,1.3-13.4,5.5-18.1,3.3c-4.1-2-6.4-8.3-8-12.2c-2.8-6.6-5.2-13.3-7.1-20.2 c-0.7-2.6-1.3-5-1.7-7.4C289.5,431,126.9,488.4,132.3,535.6c5.5,48.7,188.1,68.1,407.8,43.1C759.8,553.8,933.4,494.1,927.9,445.4 z M161.6,518.5c-1.3-0.3-1.5-1.9-1.2-3c6.4-26.8,43-27.3,62.3-39.6c0.8-0.5,1.6-0.7,2.2-0.6c41.5-18.3,84.4-30.3,130.5-37.6 c25.6-4,51.6-6.5,77.4-9.4c15-1.6,34.5-4.6,47.1,6c1.9,1.6,0.2,4.2-1.4,5.2c-22,12.7-48.3,11.9-72.6,16.3 c-31.2,5.7-62.4,13.7-92.9,22.7c-30.6,9-62.6,15.5-92.6,26.3C201.8,511.5,181.8,523.7,161.6,518.5z M466,562.9 c-18.8,7.1-39.6,8.6-59.5,10.6c-25.9,2.5-51.8,4.6-77.7,7.2c-16,1.6-36.9,3.5-50.5-7.1c-14.2-11-27.2-8.1-43.8-6.4 c-13,1.3-51.2,5.6-50.9-16.4c0.2-15.6,27.9-24.1,38.8-28.1c22.5-8.2,46.3-13.9,69.8-18c10.7-1.8,21.1-3.6,31.5-6.3 c0.4-0.3,0.7-0.6,1.2-0.7c34.5-10.3,69.6-18.2,105.3-23.2c23.1-3.3,62.4-11.1,66.6,21.4C500.1,522.8,494.3,552.4,466,562.9z M693.4,509.5c-3.4,12.7-20.2,18.6-31.3,21.9c-19.8,5.9-41.2,11.8-61.5,15.7c-19.8,3.7-36.3,0-47.2-18.1 c-4.9-8.2-23.6-44.1-16.1-57.5c0.1-0.4,0.4-0.8,0.7-1.2c1-1.4,2.5-2.3,4.3-3c5.6-2.9,11.6-2.7,18.6-1.3c15.3,3.2,31,4,46.4,6.8 c20.5,3.7,41.8,8.5,61.6,15.1C677.5,490.7,696.9,496.7,693.4,509.5z" opacity=".3"/><path fill="#F6C278" d="M102.7,524.6c0,0-9.8,0.3-15.7,20c-6,19.7,28.9,63.3,166.2,80.2c137.3,16.9,332.5,5,431.6-22.7 c99.2-27.7,47.6-48-1-36.9c-48.6,11.1-48.6,11.1-48.6,11.1s-244.6,30.6-369.8,18.8C146.9,584,105.2,573.4,102.7,524.6z"/><g opacity=".4"><path fill="#F09717" d="M898.2,433.7c-82.1-5.6-163.7-6.5-244.6-2.2c-13.7,0.8-27.4,1.7-41.1,2.6c-27,2-54,4.7-80.9,7.9 c-4.8,1.7-11.8,4.4-15.7,2.5c-4.1-2-6.4-8.3-8-12.2c-2.8-6.6-5.2-13.3-7.1-20.2c-0.2-0.8-0.4-1.6-0.6-2.3c-1-0.9-2-1.8-3.1-2.5 c-1.2-0.9-3.5,1.4-2.3,2.5c8.8,7.7,13,21.3,16,35c-122,16.2-242.3,45.2-360.1,89.4c-1.1,0.4-1.8,3-0.1,2.5 c119-37.4,236.4-71.1,360.5-87c0.3,0,0.5-0.1,0.8-0.1c1.7,8.1,3,15.9,4.8,22.2c8.2,28.5,15.3,57.4,25.1,85.5 c0.6,1.8,3.7-0.6,3.4-2c-6.6-29.4-14.8-58.4-23.1-87.4c-1.6-5.5-3-12.2-4.6-19c126.9-15.7,251.7-13.7,379.2-11.5 C898.5,437.4,900.6,433.9,898.2,433.7z"/><path fill="#F1A12E" d="M419.6,501.2c-28.1,18.9-54.3,40.1-80.7,61.2c-1.8,1.5-1.1,4.6,1.3,2.8c26.9-20.3,53.8-40.7,81-60.5 C423.5,502.9,422.6,499.2,419.6,501.2z"/><path fill="#F1A12E" d="M759.6,495.6c-31.6-7.7-63.5-13.5-95.6-18.6c-32.7-5.2-69.2-4.7-100.3-16.5c-1.6-0.6-3.9,2.5-2.1,3.3 c24.3,10.8,50.3,11.3,76.2,15.3c39.9,6.2,79.5,13.9,119.2,21.5C759.1,500.9,762.1,496.2,759.6,495.6z"/></g><g><path fill="#F6C278" d="M432.1,436.7c-18.3-4.7-35.1,0.4-53.4,3.7c-2.2,0.4-4.4,0.8-6.7,1.2 c-5.2,0.4-10.4,0.8-15.4,1.5c-26.2,3.7-51.6,11.6-76.8,19.4c-25.1,7.8-65,12.2-83.1,32.6c-1.5,1.6-3.3,6.7,0.7,6.7 c19.5-0.1,36.9-8.8,55.2-15.1c26.3-9,53-15,80.1-21c20.8-4.7,41.9-9.1,63.1-12.3c12.5-1.9,23.9-1.8,34.9-8.5 C432.6,443.6,436,437.7,432.1,436.7z" opacity=".7"/><path fill="#F6C278" d="M380.8,489c-19.9,0.7-39.8,6.3-58.9,14c-12.8,2.9-25.4,6.5-38.1,11.1 c-17.9,6.5-43.6,12.3-52.4,31.2c-0.6,1.3-0.7,3.2,0.4,4.2c4.7,4.2,9.8,3.9,16.1,2.9c25.5-4,50.9-2.2,76.2-8.1 c24.6-5.8,55.3-22.9,74.2-40.2C412.4,491.4,388,488.7,380.8,489z" opacity=".7"/><path fill="#F6C278" d="M473.3,493.2c-14.8-23.2-58.9,23.2-72,32.8c-6.7,4.9-18.5,14.9-16.6,24.7 c6,30.4,53,11,67.5-0.5C465.7,539.4,484.2,510.4,473.3,493.2z" opacity=".7"/><path fill="#F6C278" d="M588.7,471.3c-12.6-1.4-22.3,2.6-27.8,8.9c-0.1,0-0.1,0-0.2,0 c-24.9,4.5,5.8,42.8,14.5,48.5c24.1,15.9,72.6,12,84.2-17.9C670.5,482.5,603.8,472.9,588.7,471.3z" opacity=".7"/><path fill="#F6C278" d="M689.2,502.8c-2.4-4.2-6.7-3.8-10.7-2.2c-3.9,1.6-7.5,6.3-7.1,10.7 c0.3,3.1,2.6,4.3,5.1,4.2c1.5,1.9,4.7,2.2,7.4,0C686.9,513,691.8,507.3,689.2,502.8z" opacity=".7"/><path fill="#F6C278" d="M523.7,540.4c-8.1-0.5-15.3,5.8-19.8,11.7c-4.4,5.7-5.7,16.1,2.3,19.3 c0.2,0.1,0.4,0.1,0.6,0.2c2.9,1.4,6.6,1.5,9.6,0.9c8.2-1.5,15.8-9,17.4-17.2C535.2,548.1,531.5,540.9,523.7,540.4z" opacity=".7"/><path fill="#F6C278" d="M523.5,522.2c-0.1-0.1-0.2-0.1-0.3-0.2c-1.8-1.3-3.8-0.7-5.4,0.4 c-1.8,0.9-3.3,2.4-4.1,4.4c-1.1,2.6-0.3,5,2.6,5.6c0.2,0,0.4,0.1,0.5,0.1c2.9,0.5,6.2-2.8,7.1-5.3c0-0.1,0.1-0.1,0.1-0.2 C524.5,525.7,524.9,523.2,523.5,522.2z" opacity=".7"/><path fill="#F6C278" d="M746.6,455.1c-12.2-13.9-33.2-13.7-50.2-13.5c-14.7,0.2-29.9-0.3-43.5,5.2 c-8.6,0.1-17.4,2.3-21.2,9.2c-1,1.9-1.8,4-0.2,5.8c8.8,10.6,35.8,10.9,48.5,12.2c21.2,2.2,42.2-0.5,62.1-8.1 C745.8,464.6,749.8,458.7,746.6,455.1z" opacity=".7"/><path fill="#F6C278" d="M779.3,456.3c-0.4-4.9-6.5-2.7-8.6-0.5c-2.1,2.2-4.1,8.4,0.9,8.6l0.3,0 c3.8,0.1,7.8-4,7.5-7.8L779.3,456.3z" opacity=".7"/><path fill="#F6C278" d="M910.2,456.6c-1.1-4.4-6.7-6.5-10.6-7.1c-3.6-0.5-7.3,0-10.9,1 c-7.3-0.1-14.5,2.4-19.8,7.5c-6.6,6.3-9.1,16.5-0.1,21.6c6,3.3,14.5,2.8,21,1.8C901.5,479.7,913.4,469.3,910.2,456.6z" opacity=".7"/></g><path fill="#FCECD4" d="M348.2,499.5c-5.1-3.1-12-0.9-17.1,2.9c-0.8,0.4-1.6,0.7-2.1,1c-5.2,2.6-9.6,7.8-7.5,13.8 c1.9,5.5,9.9,3.4,13.8,2c5.2-1.9,11-5.6,13.9-10.5C351.2,505.5,351.9,501.7,348.2,499.5z"/><path fill="#FCECD4" d="M293,528.9C292.9,528.9,292.9,528.8,293,528.9c-0.1-0.4-0.3-0.8-0.5-1.1c-1.5-2.3-5.2-0.3-6.6,1.8 c-1.9,3-0.2,6.4,3.4,4.8c0.1,0,0.1,0,0.2-0.1c1.7-0.7,3.9-3.2,3.5-5.2C293,529,293,528.9,293,528.9z"/><path fill="#FCECD4" d="M442.2,517.2c-2-9.3-12.3-3.8-16.3,0.7c-1.9,2.1-3.5,4.9-3.3,7.9c0.1,0.5,0.3,1,0.5,1.4 c0.3,1.6,1,3.1,2,4.4c1.8,2.4,6.1,1.5,8.4,0.6C438.6,529.9,443.5,522.9,442.2,517.2z"/><path fill="#FCECD4" d="M440.4,537.7c-0.3-1-1.7-1.2-2.5-1c-0.1,0-0.3,0.1-0.4,0.1c-2.6,0.8-5.4,3.6-4.3,6.5 c0,0.1,0.1,0.2,0.1,0.3c0.9,2.6,4.6,0.7,5.8-0.5c0.1-0.2,0.3-0.3,0.4-0.4C440.6,541.6,441.2,538.9,440.4,537.7z"/><path fill="#FCECD4" d="M573.8,481.2c-2.9,0.8-5.4,3-6.6,5.8c-0.6,1.5-0.6,3.1-0.1,4.3c0.4,1.9,1.7,3.5,4.4,4 c5,1,9.9-4.4,10.9-8.7C583.8,481,577.9,480.1,573.8,481.2z"/><path fill="#FCECD4" d="M600,483.5c-1.8-0.7-4.8,2.3-5.1,3.9c0,0.2-0.1,0.4-0.1,0.6c-0.2,1.3,0.4,2.6,1.9,2.6c1.7,0,2.8-1,4-2.1 C603.2,486.2,602,483.7,600,483.5z"/><path fill="#FCECD4" d="M670.2,449.1c-2.2-1.2-5.3,0-7.5,1.1c-2.7,0.7-5.1,2.4-6.3,4.6c-1.5,2.8-1.9,5.4-0.5,8.3 c1,2,3.1,3.4,5.4,3.2c5.8-0.5,10.6-5.7,11.6-11.3C673.4,452.5,672.5,450.3,670.2,449.1z"/><path fill="#FCECD4" d="M715.5,453.8c-4.3,0.1-9.1,9-3.6,8.9C716.2,462.5,721.1,453.6,715.5,453.8z"/><path fill="#FCECD4" d="M852.2,477.7c-3.2,0.4-6.1,1.9-7.8,4.7c0,0,0,0,0,0c-1.9,3-0.8,6.6,3,5.9c1.1,0.2,1.9,0.2,3-0.1 c2.9-1,5.5-3.2,6.1-6.4C857,478.9,854.9,477.3,852.2,477.7z"/><path fill="#FCECD4" d="M899.5,455.5c-7.7-5.3-18-2.4-23.8,4.5c-0.4,0.5-0.8,1-1.1,1.5c-0.9,0.7-1.7,1.4-2.4,2.3 c-1.9,2.1-3.9,5.6-2.5,8.6c2.5,5.2,8.4,5.8,13.5,4.8c6.4-1.3,12.8-5.8,16-11.4C900.5,463.3,902.7,457.8,899.5,455.5z"/></g><path fill="#6F4026" d="M877.9,420.5c-11.5-25-86.1-27.1-107.4-28.7c-49.1-3.7-85-1.4-134.2-1.1c-23,0.1-52.5,5-75.4,5.5 c-11.5,0.2-25.3,0.3-35.5,6.5c-12.8,7.8-14.3,24.3-1.1,30.1c15.1,6.7,37.1-2.2,52.4-4.1c56.8-6.7,113.4-7,170.5-7 c32.8,0,63.9-1,96.3,2.2c11.1,1.1,24.2,0.5,34.7-2.9C878.1,420.9,878,420.7,877.9,420.5z"/><g><path fill="#A36707" d="M638.7,495.8c-2.8-0.7-5.6-1.3-8.4-1.8c-15.8-2.8-32.2-2.1-47.4,2.9c-7.6,2.5-15.8,9.4-18.2,17.3 c-1.4,4.5-1.1,8.2,0.3,11.5c0.3,8.5,7.3,14,15.7,17.8c21.1,9.6,60.5,5.8,76.7-12.4c5.9-6.6,6.6-12.2,4.3-16.7 C662.1,504.8,650.1,498.7,638.7,495.8z"/><path fill="#A36707" d="M911.9,456.2c0.3-8.7-10.6-14.3-21-17c-2.5-0.6-5.1-1.2-7.7-1.6c-14.4-2.5-29.4-1.9-43.2,2.7 c-6.9,2.3-14.4,8.6-16.6,15.8c-1.2,4.1-1,7.5,0.3,10.5c0.2,7.8,6.6,12.7,14.3,16.3c19.3,8.8,55.3,5.3,70-11.3 C913.3,465.4,914,460.3,911.9,456.2z"/><path fill="#A36707" d="M448.4,450.4c16.4,7.5,47,4.5,59.5-9.6c4.5-5.1,5.1-9.4,3.3-12.9c0.3-7.4-9-12.2-17.8-14.4 c-2.2-0.6-4.3-1-6.5-1.4c-12.2-2.1-25-1.6-36.7,2.3c-5.9,1.9-12.3,7.3-14.1,13.4c-1.1,3.5-0.9,6.4,0.2,8.9 C436.4,443.2,441.8,447.4,448.4,450.4z"/><path fill="#A36707" d="M386.8,542.1c-8.8,0.4-12.2-8.3-20.2-8.6c-0.3,0-0.5,0-0.7,0c-0.1-0.1-0.1-0.3-0.2-0.4 c3-9.4,6.2-26.1-6.1-23.9c-4.6,0.8-6.8,4.9-7.6,9.3c-4.8-2.8-9.4,2.9-9.2,8.6c2.6,6.7,7.6,13,13.5,16.3c-0.5,2.1-0.7,4.4-0.8,6.7 c-0.1,4.7,0.6,9.3,1.7,12.1c7.5,19.6,42.7,19.6,53.2,3.6c3.9-5.9,8.3-16.4,4.6-23.2C409.7,532.7,394.6,541.8,386.8,542.1z"/><path fill="#A36707" d="M755.7,460.2c-12.9-0.8-13.3,19.4-17.7,27.1c-5.1,8.8-15.4,6.8-20.6,14.3c-0.2,0.2-0.3,0.5-0.4,0.7 c-0.2,0-0.4,0-0.5,0c-7.3-8.7-21.5-21.9-26.9-8.6c-2,5,0.6,9.5,4.4,13c-5.6,2.9-2.9,10.9,2.8,14.1c8.1,1.6,17.2,0.5,24-3.2 c1.8,1.8,3.8,3.4,6,4.8c4.5,3,9.4,5,12.7,5.7c23.5,4.7,45-29.4,35.9-49.4C772,471.5,764.6,460.8,755.7,460.2z"/><path fill="#A36707" d="M324.5,452c-9.9-0.6-10.2,14.9-13.6,20.9c-3.9,6.8-11.9,5.2-15.9,11c-0.1,0.2-0.2,0.4-0.3,0.6 c-0.1,0-0.3,0-0.4,0c-5.6-6.7-16.6-16.8-20.7-6.7c-1.5,3.8,0.5,7.4,3.4,10c-2.4,1.2-2.8,3.7-2,6c-5.4-2.8-13.1-3.8-20.3-3.6 c-2.9,0.1-5.7,0.3-8.6,0.6c-15.9,1.7-31.5,6.8-44.8,15.8c-6.6,4.5-12.6,13.4-12.8,21.6c-0.1,3.6,0.7,6.5,2,8.9 c-4.4,1.2-9,3.8-12.1,4.3c-6.8,1.1-10.2-5.3-16.4-4.9c-0.2,0-0.4,0.1-0.6,0.1c-0.1-0.1-0.1-0.2-0.2-0.3c1.5-7.6,2.5-20.7-6.8-18 c-3.5,1-4.8,4.4-5.1,7.9c-3.9-1.8-7,3.1-6.3,7.5c2.6,5,7,9.4,11.9,11.4c-0.2,1.7-0.2,3.5,0,5.3c0.3,3.7,1.3,7.2,2.4,9.2 c7.5,14.5,34.8,11.4,41.5-1.9c1.2-2.3,2.3-5.4,2.9-8.5c3.1,1.4,6.6,2.2,10.2,2.8c23,3.5,59.8-11,70.4-32.9 c3.8-7.9,3-13.5-0.4-17.2c-0.3-1.1-0.7-2-1.2-2.9c5.8,0.8,12.1-0.1,16.9-2.7c1.4,1.4,3,2.6,4.6,3.7c3.5,2.3,7.3,3.9,9.8,4.4 c18.1,3.6,34.7-22.7,27.6-38C337,460.6,331.3,452.4,324.5,452z"/><path fill="#A36707" d="M329.4,546.4c-7.3-8.1-32.8,6.4-27.7,17.4c0.3,0.6,0.7,1.2,1.1,1.8c0,1,0.2,2,0.7,3 c2.3,5,8.9,7.3,13.9,7.8c7,0.6,12.6-4.3,15.2-10.4c1.8-4.2,2.1-9.7-0.5-13.6C331.7,550.1,331,548,329.4,546.4z"/><path fill="#A36707" d="M546.1,480.1c-2.5-10.6-31.9-10.1-32.7,2c0,0.7,0,1.4,0.1,2.1c-0.5,0.9-0.8,1.9-0.9,3 c-0.4,5.5,4.3,10.7,8.5,13.5c5.9,3.9,13.1,2.2,18.3-1.9c3.6-2.9,6.5-7.5,6.1-12.2C546.3,484.5,546.6,482.3,546.1,480.1z"/><path fill="#A36707" d="M485.7,566.1c-2.1-8.6-26-8.2-26.7,1.6c0,0.6,0,1.2,0.1,1.7c-0.4,0.7-0.7,1.5-0.7,2.4 c-0.3,4.5,3.5,8.7,6.9,11c4.8,3.2,10.7,1.8,14.9-1.6c2.9-2.3,5.3-6.1,5-9.9C485.9,569.7,486.1,567.9,485.7,566.1z"/><path fill="#A36707" d="M685.1,457.8c3.2,2.2,7.3,1.2,10.2-1.1c2-1.6,3.6-4.2,3.4-6.8c0.4-1.2,0.6-2.4,0.3-3.6 c-1.4-5.9-17.7-5.6-18.2,1.1c0,0.4,0,0.8,0.1,1.2c-0.3,0.5-0.5,1-0.5,1.6C680.2,453.3,682.8,456.2,685.1,457.8z"/><path fill="#A36707" d="M557.4,467.6c3.3,2.2,7.3,1.2,10.2-1.1c2-1.6,3.6-4.2,3.4-6.8c0.4-1.1,0.6-2.4,0.3-3.6 c-1.4-5.9-17.7-5.6-18.2,1.1c0,0.4,0,0.8,0.1,1.2c-0.3,0.5-0.5,1-0.5,1.6C552.5,463.2,555,466,557.4,467.6z"/><path fill="#A36707" d="M402.6,449c3.3,2.2,7.3,1.2,10.2-1.1c2-1.6,3.6-4.2,3.4-6.8c0.4-1.1,0.6-2.4,0.3-3.6 c-1.4-5.9-17.7-5.6-18.2,1.1c0,0.4,0,0.8,0.1,1.2c-0.3,0.5-0.5,1-0.5,1.6C397.7,444.6,400.3,447.5,402.6,449z"/><path fill="#A36707" d="M173.2,510c3.3,2.2,7.3,1.2,10.2-1.1c2-1.6,3.6-4.2,3.4-6.8c0.4-1.1,0.6-2.4,0.3-3.6 c-1.4-5.9-17.7-5.6-18.2,1.1c0,0.4,0,0.8,0.1,1.2c-0.3,0.5-0.5,1-0.5,1.6C168.3,505.5,170.9,508.4,173.2,510z"/><path fill="#A36707" d="M308.3,535.2c3.3,2.2,7.3,1.2,10.2-1.1c2-1.6,3.6-4.2,3.4-6.8c0.4-1.1,0.6-2.4,0.3-3.6 c-1.4-5.9-17.7-5.6-18.2,1.1c0,0.4,0,0.8,0.1,1.2c-0.3,0.5-0.5,1-0.5,1.6C303.4,530.8,306,533.7,308.3,535.2z"/><path fill="#A36707" d="M827.6,498.9c-2.1-8.6-26-8.2-26.7,1.7c0,0.6,0,1.2,0.1,1.7c-0.3,0.5-0.4,1-0.6,1.5 c-2.1-5.4-17.6-5-18,1.5c0,0.4,0,0.8,0.1,1.2c-0.3,0.5-0.5,1-0.5,1.6c-0.2,3,2.4,5.9,4.7,7.5c3.3,2.2,7.3,1.2,10.2-1.1 c2-1.6,3.6-4.2,3.4-6.8c0.1-0.3,0.2-0.5,0.2-0.8c0.8,3.6,3.9,6.8,6.7,8.7c4.8,3.2,10.7,1.8,14.9-1.6c2.9-2.3,5.3-6.1,5-9.9 C827.8,502.5,828.1,500.7,827.6,498.9z"/><path fill="#A36707" d="M357.7,460.4c2.9-2.3,5.3-6.1,5-10c0.6-1.7,0.9-3.5,0.5-5.3c-2.1-8.6-26-8.2-26.7,1.7 c0,0.6,0,1.2,0.1,1.7c-0.4,0.7-0.7,1.5-0.7,2.4c-0.3,4.5,3.5,8.7,6.9,11C347.5,465.2,353.5,463.8,357.7,460.4z"/><path fill="#A36707" d="M363.9,474c2.5,2.3,5.4,4.2,8.4,6c7.3-4.1,14.1-9.1,21.4-13.2c2.5-1.4,5-2.5,7.6-3.7 c1.3-1.1,3.2-1.3-0.2-4.2c0,0,0,0,0.1,0c-4-2.5-8.2-5-11.8-8.1c-0.9,0.5-1.8,1-2.7,1.5c-7.5,4.4-17.3,10.1-22.9,17.4c0,0,0,0,0,0 c0,0-0.1,0-0.1,0.1C363.2,470.4,364.3,473.4,363.9,474z"/><path fill="#A36707" d="M600.3,481.5c2.5,2.3,5.4,4.2,8.4,6c7.3-4.1,14.1-9.1,21.4-13.2c2.5-1.4,5-2.6,7.6-3.7 c1.3-1.1,3.2-1.3-0.2-4.2c0,0,0,0,0.1,0c-4-2.5-8.2-5-11.8-8.1c-0.9,0.5-1.8,1-2.7,1.5c-7.5,4.4-17.3,10.1-22.9,17.4c0,0,0,0,0,0 c0,0-0.1,0-0.1,0.1C599.7,477.9,600.7,480.9,600.3,481.5z"/><path fill="#A36707" d="M277.7,563.3c-2.5-4.1-5.1-8.1-7-12.5c-1,0-2.1,0.1-3.1,0.1c-8.7,0.6-20,1.4-28.3,5.4c0,0,0,0,0,0 c0,0-0.1,0-0.1,0c-0.7,0.3-1.1,3.5-1.7,3.8c1.2,3.1,2.9,6.2,4.9,9.1c8.4-0.4,16.6-1.9,25-2.3c2.8-0.1,5.6-0.1,8.4,0.1 C277.5,566.7,279.3,567.3,277.7,563.3C277.7,563.3,277.7,563.3,277.7,563.3z"/><path fill="#A36707" d="M720.3,543.5c-2.5-4.1-5.1-8.1-7-12.5c-1,0-2.1,0.1-3.1,0.1c-8.7,0.6-20,1.4-28.3,5.4c0,0,0,0,0,0 c0,0-0.1,0-0.1,0c-0.7,0.3-1.1,3.5-1.7,3.8c1.2,3.1,2.9,6.2,4.9,9.1c8.4-0.4,16.6-1.9,25-2.3c2.8-0.1,5.6,0,8.4,0.1 C720.1,547,721.9,547.6,720.3,543.5C720.2,543.5,720.3,543.5,720.3,543.5z"/><path fill="#A36707" d="M763.1,450c2.8-0.1,5.6,0,8.4,0.1c1.6-0.4,3.4,0.2,1.7-3.8c0,0,0,0,0.1,0c-2.5-4.1-5.1-8.1-7-12.5 c-1,0.1-2.1,0.1-3.1,0.1c-8.7,0.5-20,1.4-28.3,5.4c0,0,0,0,0,0c0,0-0.1,0-0.1,0c-0.7,0.3-1.1,3.5-1.7,3.8 c1.2,3.1,2.9,6.2,4.9,9.1C746.5,451.9,754.7,450.4,763.1,450z"/><path fill="#A36707" d="M593.9,567.6c-2.5-4.1-5.1-8.1-7-12.5c-1,0.1-2.1,0.1-3.1,0.1c-8.7,0.6-20,1.4-28.3,5.4l0,0 c0,0-0.1,0-0.1,0c-0.7,0.3-1.1,3.5-1.7,3.8c1.2,3.1,2.9,6.2,4.9,9.1c8.4-0.4,16.6-1.9,25-2.3c2.8-0.1,5.6-0.1,8.4,0.1 C593.7,571.1,595.5,571.7,593.9,567.6C593.8,567.6,593.9,567.6,593.9,567.6z"/><path fill="#A36707" d="M539.1,529.4c-1.9-3.2-4-6.3-5.5-9.8c-0.8,0-1.6,0.1-2.4,0.1c-6.8,0.4-15.6,1.1-22.2,4.2c0,0,0,0,0,0 c0,0,0,0-0.1,0c-0.5,0.2-0.8,2.7-1.3,3c0.9,2.5,2.3,4.9,3.8,7.1c6.6-0.3,13-1.5,19.6-1.8c2.2-0.1,4.4,0,6.6,0.1 C539,532.1,540.4,532.5,539.1,529.4C539.1,529.4,539.1,529.4,539.1,529.4z"/><path fill="#A36707" d="M806.1,476.8c2.2-0.1,4.4,0,6.6,0.1c1.3-0.3,2.6,0.2,1.3-3c0,0,0,0,0.1,0c-1.9-3.2-4-6.3-5.5-9.8 c-0.8,0-1.6,0.1-2.4,0.1c-6.8,0.4-15.6,1.1-22.2,4.2c0,0,0,0,0,0c0,0,0,0-0.1,0c-0.5,0.2-0.8,2.7-1.3,3c0.9,2.5,2.3,4.9,3.8,7.1 C793.1,478.3,799.6,477.2,806.1,476.8z"/><path fill="#A36707" d="M490.9,505.3c1.9-5.1,2.9-10.3,2.8-13.7c-0.6-24-38.6-37.5-56.1-24.2c-6.4,4.9-15.2,14.5-13.8,23.2 c0,0.2,0.1,0.4,0.2,0.6c-8.6,0.6-19.5,1.4-27.6,5.4c0,0,0,0,0,0c0,0-0.1,0-0.1,0c-0.7,0.3-1.1,3.5-1.7,3.8 c1.2,3.1,2.9,6.2,4.9,9.1c8.4-0.4,16.6-1.9,25-2.3c2.8-0.1,5.6-0.1,8.4,0.1c1.6-0.4,3.4,0.2,1.7-3.9c0,0,0,0,0.1,0 c-0.9-1.5-1.8-3-2.7-4.5c7,2.2,16.8,1.2,22.2,2.9c9.7,3,10,13.6,18.5,17c0.3,0.1,0.5,0.2,0.8,0.3c0,0.2,0,0.4,0.1,0.5 c-6.9,9-16.6,25.8-2.5,28.1c5.3,0.9,9.2-2.7,11.8-7.1c4.1,4.9,11.3,0.5,13.2-5.8c-0.2-8.3-3.3-16.9-8.4-22.7 C488.8,510.1,490,507.7,490.9,505.3z"/></g></g><g><path fill="#F1A12E" d="M932.1,109.6c-13.7-51.8-71.2-83.3-119.8-94c-25.9-5.7-72.3-12.2-83.9,15c-18.7,19.4-39,35-62.1,49.7 c-25.5,16.1-46.5,36.5-64,61c-36.5,50.9-50.9,112.3-53,174.1c-0.5,16.4-2.9,34,2.5,49.8c5.7,16.6,22,6.3,30.5-1.8 c9.6-9.1,16.9-20.3,26.9-29c14.9-13,31-24.8,47.8-35.4c31.2-19.8,64.9-35.3,99.2-49.1c43.1-17.3,89.5-29,130-52.3 C919,178.7,942.4,148.8,932.1,109.6z"/><path fill="#F1A12E" d="M932.1,109.6c-13.7-51.8-71.2-83.3-119.8-94c-25.9-5.7-72.3-12.2-83.9,15 c-18.7,19.4-39,35-62.1,49.7c-25.5,16.1-46.5,36.5-64,61c-36.5,50.9-50.9,112.3-53,174.1c-0.5,16.4-2.9,34,2.5,49.8 c5.7,16.6,22,6.3,30.5-1.8c9.6-9.1,16.9-20.3,26.9-29c14.9-13,31-24.8,47.8-35.4c31.2-19.8,64.9-35.3,99.2-49.1 c43.1-17.3,89.5-29,130-52.3C919,178.7,942.4,148.8,932.1,109.6z M853.6,166.4c-3.8,4.3-10.9,4.8-16.2,5.1 c-10.6,0.7-20.5-1-30.6-4.3c-11.1-3.6-22.1-8-33.9-8.6c2,8.6,7.7,19.1,0.9,26.8c-10,11.3-26.4,14.6-40.2,18.7 c-31.3,9.1-60.5,23.8-86,44.1c-8.5,6.7-17.2,13.7-23.8,22.3c-5,6.5-9.8,13.2-14.7,19.8c-10.5,14.3-21,30-34.5,41.7 c-2.3,2-6.8,6.2-10.3,4.4c-4.6-2.2-5.4-8.7-5.7-13.2c-1.4-18.1,2.2-36.7,5.4-54.4c3-16.4,6.1-32.6,11.3-48.5 c14-42.7,37.2-87.7,74.1-115.1c17.6-13.1,39.7-22.5,62-20.3c27.1,2.7,52.5,16.1,76.5,28.1c14.5,7.3,28.6,15.5,42.1,24.5 c6.7,4.5,13.7,9.1,19.3,15c1.4,1.5,3.4,3.7,4,5.9C855,161.2,855.7,164,853.6,166.4z M876.1,90.5c-3.6,3.5-9.3,4.5-12.4,8.5 c-5.4,6.9-1.8,15-3.2,22.8c-0.1,0.6-0.8,1.5-1.5,1.1c-11.1-6.1-21.4-13.5-32.2-20.2c-11.3-7.1-23.4-13-35.6-18.4 c-10.5-4.7-21.1-9.1-32.2-12.1c-7.5-2-16.8-3.9-22.2-10c-0.4-0.5-0.2-1.2,0.3-1.6c4.9-3.3,10.5-4.2,15.8-6.3 c-8.6-1.7-17.4,0.2-26-1.6c-0.6-0.1-0.7-0.5-0.6-1.1c1.4-7.9,6.2-13.8,11.6-19.3c9.6-13.6,28.4-13.4,43.3-10.9 c19.3,3.3,38.1,10.4,55.5,19.4c6.5,3.3,12.7,7.1,18.8,11.1c8,5.2,16.9,11.1,22.2,19.3C881.9,77.9,882,84.8,876.1,90.5z" opacity=".4"/><path fill="#F6C073" d="M932.1,109.6c-13.7-51.8-71.2-83.3-119.8-94c-20.2-4.5-52.7-9.4-71.7,1.5c10.7-1.6,21.8-1.6,32.4-0.6 c22.6,2.1,44.9,8,65.8,16.8c17.5,7.4,34.4,16.8,49.3,28.7c13,10.4,28.1,24.5,28.5,42.4c0,0.8-1,1.5-1.7,1 c-10.2-7.8-26.2-7-34.9,3.1c-11.6,13.4-2.7,27.2,2.2,41.1c0.3,0.8-1,1.8-1.7,1.3c-9-6.9-19.9-13.5-31.4-15 c5.1,4.1,10.4,8.1,15.2,12.5c5,4.6,11.5,10.5,13.1,17.4c2.5,10.5-8.8,16.3-16.9,19.6c-13.7,5.6-28.3,8.7-42.8,11.7 C800,201,783,207.1,766,213.6c-60.3,23.2-117.7,56.4-160.6,105.5c-9.3,10.7-18.4,21.9-25.8,34c-4.1,6.8-9,15.9-17.6,17.4 c-3.6,0.6-6.6-0.5-9-2.6c6.5,12.5,21.4,3,29.4-4.6c9.6-9.1,16.9-20.3,26.9-29c14.9-13,31-24.8,47.8-35.4 c31.2-19.8,64.9-35.3,99.2-49.1c43.1-17.3,89.5-29,130-52.3C919,178.7,942.4,148.8,932.1,109.6z"/><g><path fill="#F6C278" d="M715.3,97.5c-0.6-0.1-1.2-0.2-1.8-0.3c-8.8-1.6-16.7,1.2-25.2,0.5c-12.1-1-23.9,2-29,15 c-1,2.5-1.6,4.4-2.3,7c-2.1,7.6-6.4,8.9-12.4,11.9c-4.1,2.1-7.9,5.2-11.3,8.3c-10.3,9.1-19,19.5-26.4,31 c-14.7,22.7-20.9,48.5-30.9,73.2c-2.7,6.7-5.5,15-1.1,21.5c3.6,5.3,13-1.1,15.9-3.7c8.2-7.2,13.9-15.9,20.1-24.8 c5.2-7.4,11.2-14,18.7-19.2c9.5-6.6,21.3-11,31.5-16.6c11.1-6,22.4-11.8,35.1-13.8c24.9-3.8,47.1-0.2,50.6-31.1 c1.1-10.3,16.8-8.3,18.9-18.6c3.4-16.9-13.7-28.2-27.1-33.8C731.2,101.1,723.1,99,715.3,97.5z" opacity=".7"/><path fill="#F6C278" d="M848.6,54.6c-11.4-8.9-26.6-12.1-39.9-17.1c-14-5.2-27.2-10-41.6-7.8 c-3.9,0.3-7.6,1.2-10.3,3.1c-7.7,5.6-0.1,11.7,5.6,15.3c7.3,4.5,16.5,6.8,24.4,9.9c9,3.6,17.7,8.1,26.7,11.7 c9.6,3.9,19.1,7.9,29.2,10.3c5.2,1.2,13.1,2.4,16.7-2.8C864.6,69.4,853.9,58.7,848.6,54.6z" opacity=".7"/><path fill="#F6C278" d="M847.6,88.1c-2.1-2.6-5.5-4.7-9-6.1c0.1-0.3,0-0.6-0.4-0.5c-0.2,0-0.5,0.1-0.7,0.1 c-1.6-0.5-3.2-0.9-4.6-1.1c-0.6-0.1-1.1,0-1.7,0.1c-3.2-0.9-6.2-1.5-8.9,1.7c-3.6,4.4,1.6,9.5,4.8,11.9 c4.3,3.1,10.7,5.9,16.1,4.8C848.5,97.8,851,92.3,847.6,88.1z" opacity=".7"/><path fill="#F6C278" d="M635.4,230.2c-2.3-0.1-4.6,0.6-6.8,1.9c-1.7,0.7-3.3,1.8-4.5,2.9c-3.5,3-6.7,7.4-7.1,12.2 c-0.3,4.6,4.2,5.2,7.7,4.3c4.4-1.1,9.6-3.9,12.3-7.7C639.9,239.8,643.3,230.7,635.4,230.2z" opacity=".7"/><path fill="#F6C278" d="M586.8,287.7c-0.6-1.4-2.1-1.2-3.2-0.8c-3.4,1.1-5.9,3.6-6.1,7.3c0,0.4,0.1,0.7,0.3,1 c-0.3,1.4-0.1,2.8,0.9,3.7c2.3,2.1,5.6-1.2,6.8-3.1C587,293.5,587.9,290.4,586.8,287.7z" opacity=".7"/><path fill="#F6C278" d="M762.6,176.9c-3.2-5.2-9.9-2.2-13.2,2.6c0,0-0.1,0-0.1,0.1c-0.5,0.5-1,1-1.4,1.6 c-2.2,2.3-3,5.4-0.7,8.7c2.5,3.5,8.3,0.8,10.9-1C761.7,186.3,765.3,181.3,762.6,176.9z" opacity=".7"/><path fill="#F6C278" d="M828.6,153.2c-3.2-12.2-20.7-21.6-32.6-18.3c-2.7,0.8-4.7,2-6.2,3.5 c-3.4,1.5-6.1,4.4-6.6,9.1c-1.4,12.4,13.8,15.1,23,16.1C812.9,164.4,831.9,165.5,828.6,153.2z" opacity=".7"/><path fill="#F6C278" d="M782.4,119.5C782.4,119.5,782.4,119.5,782.4,119.5c-0.8-0.3-1.7,0.2-2.4,0.9 c-1,0.7-1.4,1.6-1.3,2.4c-0.3,1.3,0.1,2.4,1.8,2c0.5,0,0.9-0.1,1.4-0.5c0,0,0,0,0.1,0C784.1,123.5,785.7,118.6,782.4,119.5z" opacity=".7"/></g></g><path fill="#FAC32D" d="M723.4,247.4c-8.1-2.6-16.7,2.5-23.8,6c-10,5-20.9,14.5-31.9,17c7.1-11.7,22.8-18.3,33.7-25.3 c1.2-0.8,2.8-4,0.3-4.2c-19.2-1.7-40.4,9.8-56.5,19.2c-9.2,5.3-18.5,11.2-29.1,13.3c-14.4,2.8-10.4-15.7-8.7-23.7 c2-9.5,15-35.8,5.8-44c-7.1-6.3-21.6,4.5-22.4-8.1c-1-15.6,7.1-30.1,11.7-44.6c0.6-1.9-1.5-2.7-2.9-2c-8,3.8-11.9,10.4-16.8,17.5 c-0.8,1.2-0.4,2.1,0.4,2.4c-18.1,24.7-30,53.7-38.4,83.1c-6.5,22.7-8.1,46.4-10.6,69.7c-2.4,22.4-6.8,44.3-13.2,65.9 c-7.1,23.9-17.9,42.8-38.8,57.1c-6.1,4.1-17.2,8.5-13.5,17.8c4.6,11.6,32.7,0.3,43.9-5.9c-2.9,6.1-8.9,10.7-12.9,16 c-0.6,0.8-0.6,2.1,0.6,2.3c12.3,2.2,21.9-8.4,30.6-15.5c16-13.1,34.7,2.6,51.3,6.7c8.3,2.1,19.4,2.1,25.1-5.4 c3.5-4.7-2.5-11.1-6.6-16.2c15.3,2.7,30.5,5.4,46.1,5.3c8.7-0.1,19-0.2,25.2-7.4c4.7-5.4,0.9-13-4.3-16.4 c-4.9-3.1-10.3-5.1-15.6-7.4c-7.9-3.5-12.6-10.3-16.2-17.9c-12.2-25.9,2.5-58.6,16.2-80.8c17.5-28.4,46-49.1,71.2-70.3 C724,250.6,725.1,248,723.4,247.4z M560.5,391.9c0.4-8.9,3.2-17.4,5.4-26c0.2-0.6,0.8-0.9,1.2-0.9c1.1-2.6,2.7-4.8,5.2-6.5 c0.4-0.3,1-0.4,1.3,0.1c3.3,6.1,2,16,1.3,22.5c-0.6,5.6-1.2,15.9-6.4,19.6C562.6,405,560.3,396.1,560.5,391.9z M542.2,421.1 c-2.3,4-4.8,8.7-8.5,11.5c-7.1,5.2-12.1-0.7-12.3-8.4c-0.4-12.5,6.7-23.9,10.2-35.5c5.1-16.9,4.7-35.7,6.2-53.1 c0.7-7.7,0.1-17.1,4.5-23.8c8.1-12.4,14,7,14.8,13.1c1.6,11.6,0.9,23.2,0.1,34.8c-1.1,14.1-2.6,28.3-6.7,41.8 C548.3,408.2,545.8,414.9,542.2,421.1z M577.4,437.8c-2.2,5.8-14.2,11.6-18.3,4.7c-1.7-2.9-2.1-6.3-1.7-9.8c-0.3-0.1-0.5-0.4-0.4-1 c1.2-5.6,5.7-20.5,14.3-14C576.9,422,579.9,431.1,577.4,437.8z M604.2,397.9c-0.8,7.1-1.2,14.7-3.1,21.6c-1,3.6-4.5,12.3-9.4,7.1 c-5.7-6.1-7.5-16.3-8.1-24.3c-1.1-13.5,2.8-28.8,6.7-41.6c3.3-10.7,7.5-21,12.7-30.9c-0.7,0.2-1.5-0.3-0.9-1.2 c3.9-5.6,8.6-14.7,15.5-17.2c7.1-2.6,4.4,13.2,3.4,15.9c-2.2,6.1-5.7,11.8-7.6,18c-2.5,8.5-4.4,17.2-5.8,26 C606.3,380.1,605.3,389,604.2,397.9z M631.4,344.9c-1.9,6.6-4.7,12.8-5.7,19.7c-1.4,9.5-2.9,21-0.7,30.4c1.8,7.7,5.5,15,6.8,22.9 c0.5,3.3,1.7,11.3-2.4,13.1c-3.4,1.5-6.4-2-8.3-4.5c-0.9-1.2-1.6-2.4-2.4-3.6c-7.9-11.9-8.7-29-7.9-42.4 c0.7-11.3,2.7-24.7,8.8-35.1c2.2-5.7,5.3-11.1,10.2-14.7c0.4-0.3,1-0.3,1.3,0.1C634,334.7,632.7,340.5,631.4,344.9z"/><g><g><g><path fill="#850B23" d="M248.6,486.7c-15.9,1.7-31.5,6.8-44.8,15.8c-6.6,4.5-12.7,13.4-12.8,21.6c-0.2,12.7,9.6,17.3,20.8,19 c23,3.5,59.8-11,70.4-32.9c9.4-19.5-9.2-24.4-25-24C254.3,486.2,251.5,486.4,248.6,486.7z"/><path fill="#CE6B50" d="M246,481.9c-15.9,1.7-31.5,6.8-44.8,15.8c-6.6,4.5-12.6,13.4-12.8,21.6c-0.2,12.7,9.6,17.3,20.8,19 c23,3.5,59.8-11,70.4-32.9c9.4-19.5-9.2-24.4-25-24C251.7,481.4,248.9,481.6,246,481.9z"/><g><path fill="#FBE0BA" d="M209.3,519.5c-0.1-1.2-1.3-1.9-2.4-2.1c-1.7-0.2-3.1,0.8-4.2,2c-1.4,1.5-3.3,6.9,0.7,6.6 c1.5-0.1,2.5-0.5,3.7-1.4C208.5,523.7,210.3,521.3,209.3,519.5z"/><path fill="#FBE0BA" d="M209.3,519.5C209.3,519.5,209.3,519.5,209.3,519.5c0,0.1,0.1,0.2,0.1,0.3 C209.3,519.7,209.3,519.6,209.3,519.5z"/></g><path fill="#FBE0BA" d="M224,503.1c-0.2-0.7-0.8-1.2-1.7-1.2c-4.1,0.1-6.3,7.4-1.9,6.4c0.1,0,0.2-0.1,0.4-0.2 c0.3,0,0.6-0.1,1.3-0.6c0.1-0.1,0.2-0.2,0.3-0.3c0.1-0.1,0.2-0.2,0.4-0.3c0.5-0.5,0.9-1.1,1.2-1.7 C224.1,504.7,224.2,503.8,224,503.1z"/><path fill="#FBE0BA" d="M240.4,517.9c-2-0.1-3.8-0.2-5.6,0.8c-3.7,1.9-5.3,4.9-6.4,8.7c-0.6,2,0.2,3.4,1.4,4.2 c0.7,1,1.9,1.4,3.3,1.4c0.1,0,0.1,0,0.2,0c3.8,0.2,7-1.4,9.1-4.6c1.1-1.7,1.5-3.3,1.2-4.8C244.4,520.9,244,518.1,240.4,517.9z"/><path fill="#FBE0BA" d="M262,496.7c-4.9,0.1-10.4,10.3-4.1,10.1C262.8,506.6,268.3,496.5,262,496.7z"/><path fill="#FBE0BA" d="M234.5,498.9c-2.1,0.1-3.9,1.6-4.6,3.4c-0.6,1.4-0.3,3.8,1.7,3.7c2.1-0.1,3.9-1.6,4.6-3.4 C236.9,501.2,236.6,498.8,234.5,498.9z"/><path fill="#FBE0BA" d="M258.5,516.7c-0.1-0.1-0.2-0.3-0.4-0.4c-1.2-1.4-3.3,0.8-3.7,1.8c-0.1,0.3-0.2,0.5-0.4,0.8 C251.8,523.6,261.7,520.7,258.5,516.7z"/><path fill="#FBE0BA" d="M205.6,500c-2.4,0.1-5,5-2,4.9C206,504.8,208.6,499.9,205.6,500z"/></g><g><path fill="#850B23" d="M631.5,490.4c-15.8-2.8-32.2-2.1-47.4,3c-7.6,2.5-15.8,9.4-18.2,17.3c-3.7,12.1,4.5,19.2,14.8,23.9 c21.1,9.6,60.5,5.8,76.7-12.4c14.3-16.2-2.1-26-17.5-29.9C637.1,491.5,634.3,490.9,631.5,490.4z"/><path fill="#CE6B50" d="M630.4,485.1c-15.8-2.8-32.2-2.1-47.4,2.9c-7.6,2.5-15.8,9.4-18.2,17.3c-3.7,12.1,4.5,19.2,14.8,24 c21.1,9.6,60.5,5.8,76.7-12.4c14.3-16.2-2.1-26-17.5-29.9C636,486.2,633.2,485.6,630.4,485.1z"/><g><path fill="#FBE0BA" d="M584.7,511.2c0.2-1.2-0.7-2.2-1.7-2.7c-1.5-0.7-3.2-0.1-4.6,0.8c-1.7,1.1-5,5.7-1.1,6.5 c1.5,0.3,2.6,0.2,4-0.3C582.8,515,585.2,513.2,584.7,511.2z"/><path fill="#FBE0BA" d="M584.7,511.2C584.7,511.2,584.7,511.2,584.7,511.2c0,0.1,0,0.2,0,0.3 C584.7,511.4,584.7,511.3,584.7,511.2z"/></g><path fill="#FBE0BA" d="M603.3,499.5c0-0.7-0.4-1.4-1.3-1.6c-4-1-8.1,5.4-3.5,5.7c0.1,0,0.3-0.1,0.4-0.1 c0.2,0.1,0.6,0.1,1.4-0.2c0.1,0,0.2-0.1,0.3-0.2c0.2-0.1,0.3-0.1,0.4-0.2c0.6-0.3,1.2-0.8,1.6-1.3 C603,501,603.3,500.2,603.3,499.5z"/><path fill="#FBE0BA" d="M615,518.2c-1.9-0.6-3.6-1.3-5.6-0.8c-4,0.9-6.5,3.3-8.5,6.7c-1.1,1.8-0.7,3.3,0.3,4.4 c0.4,1.1,1.5,1.8,2.8,2.2c0.1,0,0.1,0.1,0.2,0.1c3.6,1.2,7.1,0.6,10-2c1.5-1.3,2.3-2.8,2.5-4.3 C618.1,522.1,618.5,519.3,615,518.2z"/><path fill="#FBE0BA" d="M641.7,503.7c-4.7-1.2-12.8,7-6.7,8.6C639.7,513.5,647.8,505.2,641.7,503.7z"/><path fill="#FBE0BA" d="M614.7,498.3c-2-0.5-4.1,0.4-5.4,2c-0.9,1.2-1.3,3.5,0.7,4c2,0.5,4.2-0.4,5.4-2 C616.3,501.1,616.6,498.8,614.7,498.3z"/><path fill="#FBE0BA" d="M632.8,522c-0.1-0.2-0.2-0.4-0.2-0.5c-0.7-1.7-3.4-0.1-4.1,0.7c-0.2,0.2-0.4,0.4-0.6,0.7 C624.5,526.8,634.9,526.7,632.8,522z"/><path fill="#FBE0BA" d="M586.5,491.4c-2.3-0.6-6.2,3.4-3.3,4.2C585.5,496.2,589.5,492.2,586.5,491.4z"/></g><g><path fill="#850B23" d="M884.4,433.6c-14.4-2.5-29.4-1.9-43.2,2.7c-6.9,2.3-14.5,8.6-16.6,15.8c-3.4,11.1,4.1,17.6,13.5,21.9 c19.3,8.8,55.3,5.3,70-11.3c13.1-14.8-1.9-23.7-16-27.3C889.5,434.6,886.9,434,884.4,433.6z"/><path fill="#CE6B50" d="M883.3,428.7c-14.4-2.5-29.4-1.9-43.2,2.7c-6.9,2.3-14.4,8.6-16.6,15.8c-3.4,11.1,4.1,17.6,13.5,21.9 c19.3,8.8,55.2,5.3,70-11.3c13.1-14.8-1.9-23.7-16-27.3C888.4,429.7,885.9,429.2,883.3,428.7z"/><g><path fill="#FBE0BA" d="M841.7,452.6c0.2-1.1-0.6-2-1.6-2.4c-1.4-0.6-2.9,0-4.2,0.7c-1.6,1-4.6,5.2-1,6 c1.3,0.3,2.3,0.2,3.6-0.3C839.9,456,842.1,454.3,841.7,452.6z"/><path fill="#FBE0BA" d="M841.7,452.6C841.7,452.6,841.6,452.6,841.7,452.6c0,0.1,0,0.2,0,0.2 C841.6,452.7,841.6,452.6,841.7,452.6z"/></g><path fill="#FBE0BA" d="M858.6,441.9c0-0.7-0.4-1.3-1.2-1.4c-3.7-0.9-7.4,5-3.2,5.2c0.1,0,0.2-0.1,0.4-0.1 c0.2,0.1,0.6,0.1,1.3-0.2c0.1,0,0.2-0.1,0.3-0.2c0.1-0.1,0.3-0.1,0.4-0.2c0.6-0.3,1.1-0.7,1.5-1.2 C858.4,443.3,858.7,442.5,858.6,441.9z"/><path fill="#FBE0BA" d="M869.3,458.9c-1.7-0.6-3.2-1.2-5.1-0.7c-3.7,0.8-5.9,3-7.8,6.1c-1,1.6-0.7,3,0.2,4c0.4,1,1.4,1.7,2.5,2 c0.1,0,0.1,0.1,0.2,0.1c3.3,1.1,6.5,0.5,9.1-1.8c1.4-1.2,2.1-2.5,2.3-3.9C872.1,462.5,872.5,459.9,869.3,458.9z"/><path fill="#FBE0BA" d="M893.6,445.7c-4.3-1.1-11.7,6.4-6.1,7.8C891.8,454.6,899.2,447.1,893.6,445.7z"/><path fill="#FBE0BA" d="M869,440.8c-1.8-0.5-3.8,0.4-4.9,1.9c-0.9,1.1-1.2,3.2,0.6,3.7c1.8,0.5,3.8-0.4,4.9-1.8 C870.4,443.3,870.8,441.2,869,440.8z"/><path fill="#FBE0BA" d="M885.5,462.4c-0.1-0.2-0.1-0.3-0.2-0.5c-0.7-1.5-3.1-0.1-3.7,0.6c-0.2,0.2-0.3,0.4-0.5,0.6 C878,466.8,887.4,466.7,885.5,462.4z"/><path fill="#FBE0BA" d="M843.3,434.5c-2.1-0.5-5.7,3.1-3,3.8C842.4,438.8,846,435.2,843.3,434.5z"/></g><g><path fill="#850B23" d="M487.8,407.3c-12.2-2.1-25-1.6-36.7,2.3c-5.9,2-12.3,7.3-14.1,13.4c-2.9,9.4,3.5,14.9,11.5,18.6 c16.4,7.5,47,4.5,59.5-9.6c11.1-12.5-1.7-20.2-13.6-23.2C492.1,408.2,490,407.7,487.8,407.3z"/><path fill="#CE6B50" d="M486.9,403.2c-12.2-2.1-25-1.6-36.7,2.3c-5.9,2-12.3,7.3-14.1,13.4c-2.9,9.4,3.5,14.9,11.5,18.6 c16.4,7.5,47,4.5,59.5-9.6c11.1-12.5-1.7-20.2-13.6-23.2C491.2,404,489.1,403.5,486.9,403.2z"/><g><path fill="#FBE0BA" d="M451.5,423.4c0.2-1-0.5-1.7-1.4-2.1c-1.2-0.5-2.5,0-3.5,0.6c-1.3,0.8-3.9,4.4-0.9,5.1 c1.1,0.2,2,0.2,3.1-0.2C450,426.4,451.8,424.9,451.5,423.4z"/><path fill="#FBE0BA" d="M451.5,423.4C451.5,423.4,451.5,423.4,451.5,423.4c0,0.1,0,0.1,0,0.2 C451.5,423.6,451.5,423.5,451.5,423.4z"/></g><path fill="#FBE0BA" d="M465.9,414.3c0-0.6-0.3-1.1-1-1.2c-3.1-0.8-6.3,4.2-2.8,4.4c0.1,0,0.2-0.1,0.3-0.1 c0.2,0.1,0.5,0.1,1.1-0.2c0.1,0,0.2-0.1,0.3-0.1c0.1-0.1,0.2-0.1,0.3-0.2c0.5-0.3,0.9-0.6,1.3-1 C465.7,415.5,465.9,414.9,465.9,414.3z"/><path fill="#FBE0BA" d="M475,428.9c-1.5-0.5-2.8-1-4.4-0.6c-3.1,0.7-5,2.6-6.6,5.2c-0.8,1.4-0.6,2.6,0.2,3.4 c0.3,0.9,1.2,1.4,2.1,1.7c0.1,0,0.1,0.1,0.1,0.1c2.8,0.9,5.5,0.4,7.8-1.5c1.2-1,1.8-2.1,1.9-3.3 C477.4,431.9,477.7,429.7,475,428.9z"/><path fill="#FBE0BA" d="M495.7,417.6c-3.7-0.9-9.9,5.5-5.2,6.7C494.1,425.2,500.4,418.8,495.7,417.6z"/><path fill="#FBE0BA" d="M474.7,413.4c-1.5-0.4-3.2,0.3-4.2,1.6c-0.7,1-1,2.7,0.5,3.1c1.5,0.4,3.2-0.3,4.2-1.6 C476,415.6,476.2,413.8,474.7,413.4z"/><path fill="#FBE0BA" d="M488.8,431.8c-0.1-0.1-0.1-0.3-0.2-0.4c-0.6-1.3-2.6-0.1-3.2,0.5c-0.1,0.2-0.3,0.3-0.4,0.5 C482.3,435.5,490.4,435.4,488.8,431.8z"/><path fill="#FBE0BA" d="M452.9,408.1c-1.8-0.5-4.8,2.7-2.5,3.2C452.1,411.8,455.2,408.7,452.9,408.1z"/></g><g><path fill="#FBE0BA" d="M355.6,541.3c-0.1,4.7,0.6,9.3,1.7,12.1c7.5,19.6,42.7,19.6,53.2,3.6c3.9-5.9,8.3-16.4,4.6-23.2 c-5.4-9.9-20.5-0.8-28.3-0.5c-8.8,0.3-12.2-8.3-20.2-8.6C358.5,524.2,355.7,532.9,355.6,541.3z"/><path fill="#FBE0BA" d="M410.5,556.9c3.9-5.9,8.3-16.4,4.6-23.2c-5.4-9.9-20.5-0.8-28.3-0.5c-8.8,0.3-12.2-8.3-20.2-8.6 c-8.2-0.4-10.9,8.3-11.1,16.7c-0.1,4.7,0.6,9.3,1.7,12.1C364.7,572.9,400,573,410.5,556.9z M372.5,537.7c4.6-1.2,6,3.1,6.3,7.6 c2.1-3.6,4.6-7.2,8.5-6c4.4,1.2,5.5,4.6,5.6,8.3c0.7-1.6,1.3-3.2,1.8-5.1c0.6-2.3,1.3-3.9,3-5.6c2.5-2.5,8.6-3,11.5-1.1 c3.4,2.2,4.1,9.4,3.2,12.8c-1.4,5-5.3,9.2-9.3,12.3c-7.4,5.7-18.7,8.2-27.6,4.9c-4.9-1.8-9-6.4-10.7-11.3 C362.3,547.3,364.6,539.6,372.5,537.7z"/><path fill="#E96F42" d="M356.6,534.7c6.4,1.3,8.1-4.5,9.5-9.6c-0.2-0.3-0.3-0.6-0.5-0.9c3-9.4,6.2-26.1-6.1-23.9 c-4.6,0.8-6.8,4.9-7.6,9.3c-4.8-2.8-9.4,2.9-9.2,8.6C345.5,525.1,350.6,531.4,356.6,534.7z"/><path fill="#BD4B23" d="M356.6,534.7c6.4,1.3,8.1-4.5,9.5-9.6c-0.2-0.3-0.3-0.6-0.5-0.9c3-9.4,6.2-26.1-6.1-23.9 c-4.6,0.8-6.8,4.9-7.6,9.3c-4.8-2.8-9.4,2.9-9.2,8.6C345.5,525.1,350.6,531.4,356.6,534.7z M357.3,514.8c0-3.3-0.1-8.2,3-10.4 c3.6-2.6,6.3,2.5,6.3,5.5c0,4.8-1.7,9.2-2,13.9c-0.1,1.6-1.2,2.5-2.3,2.6c-1.1,1.1-2.7,1.4-3.5-0.4 C357.3,522.7,357.3,518.3,357.3,514.8z M350.1,522.2c-0.4-1.7,1.5-5.8,3.6-3.7c1.9,1.8,2.6,4.1,3.5,6.5c0.9,2.4-2.2,5.3-3.8,3.6 c-0.5,0-0.9-0.3-1.3-0.9C351.4,525.8,350.6,524.1,350.1,522.2z"/><g><path fill="#FBE0BA" d="M404.5,554.7c1.7-1.6,3.5-4.5,3.7-7.1c0.3-0.8,0.5-1.7,0.6-2.6c0.2-2.3-0.7-5.5-3.7-5.3 c-5.2,0.4-8.5,8.6-8.6,13C396.4,558.3,401.5,557.5,404.5,554.7z"/><path fill="#FBE0BA" d="M385.5,559.5c2,0.1,3.4-2.1,4.2-3.6c0.4-0.7,0.5-1.7,0.5-2.6c0.1-0.3,0.2-0.5,0.2-0.8 c0.2-0.9,0.2-2.5-0.9-2.9c-3.5-1.2-6.5,3.1-6.7,6.3C382.6,557.6,383.6,559.5,385.5,559.5z"/><path fill="#FBE0BA" d="M373.3,554.8c2.3-0.9,3.3-6.7,0.3-5.6C371.3,550.2,370.3,556,373.3,554.8z"/></g></g><g><path fill="#FBE0BA" d="M154.8,541.5c0.3,3.7,1.3,7.2,2.4,9.2c7.5,14.5,34.8,11.4,41.5-1.9c2.5-4.9,5-13.4,1.5-18.4 c-5.1-7.2-16,1.2-21.9,2.1c-6.8,1.1-10.2-5.3-16.4-4.9C155.6,528.1,154.2,535,154.8,541.5z"/><path fill="#FBE0BA" d="M198.7,548.8c2.5-4.9,5-13.4,1.5-18.4c-5.1-7.2-16,1.2-21.9,2.1c-6.8,1.1-10.2-5.3-16.4-4.9 c-6.3,0.4-7.7,7.4-7.1,13.9c0.3,3.7,1.3,7.2,2.4,9.2C164.7,565.2,192,562.1,198.7,548.8z M167.7,537.2c3.5-1.3,5,1.9,5.5,5.3 c1.3-3,2.9-5.9,6-5.4c3.5,0.6,4.7,3,5.1,5.9c0.4-1.3,0.7-2.6,1-4.1c0.3-1.8,0.7-3.2,1.9-4.6c1.7-2.1,6.4-3.1,8.8-1.9 c2.8,1.4,4,6.9,3.6,9.6c-0.6,4-3.3,7.6-6.1,10.3c-5.2,5-13.7,8-20.9,6.2c-4-1-7.5-4.1-9.3-7.8 C160.6,545.6,161.7,539.5,167.7,537.2z"/><path fill="#E96F42" d="M155.1,536.4c5.1,0.4,5.9-4.2,6.5-8.3c-0.1-0.2-0.3-0.4-0.4-0.7c1.5-7.6,2.5-20.7-6.8-18 c-3.5,1-4.8,4.4-5.1,7.9c-3.9-1.8-7,3.1-6.3,7.5C145.6,529.9,150.1,534.3,155.1,536.4z"/><path fill="#BD4B23" d="M155.1,536.4c5.1,0.4,5.9-4.2,6.5-8.3c-0.1-0.2-0.3-0.4-0.4-0.7c1.5-7.6,2.5-20.7-6.8-18 c-3.5,1-4.8,4.4-5.1,7.9c-3.9-1.8-7,3.1-6.3,7.5C145.6,529.9,150.1,534.3,155.1,536.4z M153.9,520.9c-0.3-2.6-0.8-6.4,1.4-8.3 c2.6-2.3,5.1,1.4,5.3,3.7c0.4,3.7-0.5,7.3-0.3,10.9c0.1,1.3-0.7,2.1-1.6,2.2c-0.7,1-2,1.3-2.8,0 C154.6,527,154.2,523.6,153.9,520.9z M149,527.2c-0.5-1.3,0.7-4.6,2.5-3.2c1.6,1.3,2.4,3,3.3,4.7c0.9,1.7-1.2,4.3-2.6,3.1 c-0.4,0-0.7-0.1-1.1-0.6C150.2,529.9,149.5,528.6,149,527.2z"/><g><path fill="#FBE0BA" d="M194,547.6c1.2-1.4,2.3-3.8,2.2-5.8c0.1-0.7,0.2-1.4,0.2-2.1c-0.1-1.8-1.1-4.2-3.3-3.8 c-4,0.8-5.8,7.4-5.5,10.9C188,551.1,191.9,550,194,547.6z"/><path fill="#FBE0BA" d="M179.6,553c1.6-0.1,2.5-1.9,2.9-3.2c0.2-0.6,0.3-1.3,0.1-2c0-0.2,0.1-0.4,0.1-0.6c0-0.7,0-2-1-2.2 c-2.8-0.7-4.8,3-4.6,5.4C177.3,551.8,178.1,553.1,179.6,553z"/><path fill="#FBE0BA" d="M169.8,550.4c1.7-0.9,1.9-5.5-0.3-4.3C167.8,547,167.6,551.6,169.8,550.4z"/></g></g><g><path fill="#FBE0BA" d="M726.8,513.6c4.5,3,9.4,5,12.7,5.7c23.5,4.7,45-29.4,35.9-49.4c-3.4-7.4-10.8-18-19.6-18.6 c-12.9-0.8-13.3,19.4-17.7,27.1c-5.1,8.8-15.4,6.8-20.6,14.3C712.1,500.5,718.8,508.4,726.8,513.6z"/><path fill="#FBE0BA" d="M775.4,470c-3.4-7.4-10.8-18-19.6-18.6c-12.9-0.8-13.3,19.4-17.7,27.1c-5.1,8.8-15.4,6.8-20.6,14.3 c-5.3,7.7,1.4,15.6,9.4,20.9c4.5,3,9.4,5,12.7,5.7C763,524,784.5,489.9,775.4,470z M733.6,495c1.7-5.2,6.7-4,11.2-1.5 c-2.2-4.2-4.1-8.8-0.7-11.9c3.8-3.5,7.8-2.6,11.4-0.4c-1.1-1.6-2.3-3.2-3.8-4.9c-1.8-2-3-3.7-3.6-6.3c-0.9-3.9,2.4-10.1,6-11.8 c4.2-1.9,11.6,1.8,14.4,4.7c4,4.4,5.7,10.8,6.2,16.5c1,10.6-3.4,23.1-12.1,29.7c-4.7,3.7-11.6,4.8-17.4,3.5 C736.7,510.8,730.7,503.9,733.6,495z"/><path fill="#E96F42" d="M721.1,508.6c5.1-5.5,0.6-10.6-3.5-15.1c-0.4-0.1-0.8-0.1-1.2-0.1c-7.3-8.7-21.5-21.9-26.9-8.6 c-2,5,0.6,9.5,4.4,13c-5.6,2.9-2.9,10.9,2.8,14.1C705,513.6,714.2,512.5,721.1,508.6z"/><path fill="#BD4B23" d="M721.1,508.6c5.1-5.5,0.6-10.6-3.5-15.1c-0.4-0.1-0.8-0.1-1.2-0.1c-7.3-8.7-21.5-21.9-26.9-8.6 c-2,5,0.6,9.5,4.4,13c-5.6,2.9-2.9,10.9,2.8,14.1C705,513.6,714.2,512.5,721.1,508.6z M702.3,495.8c-3.2-2.1-8-5-8.3-9.2 c-0.3-5.1,6.3-4.5,9.1-2.7c4.6,2.9,7.9,7.3,12.3,10.4c1.5,1.1,1.7,2.7,1.1,3.9c0.5,1.7-0.3,3.5-2.6,3.1 C709.9,500.6,705.6,498,702.3,495.8z M705,507.3c-1.9-0.6-4.7-5-1.4-5.8c2.9-0.7,5.6-0.1,8.5,0.5c2.8,0.6,3.8,5.3,1.2,5.8 c-0.3,0.5-0.8,0.7-1.7,0.7C709.3,508.3,707.2,508,705,507.3z"/><g><path fill="#FBE0BA" d="M769.6,474.4c-0.5-2.6-2.2-6.1-4.7-7.9c-0.6-0.8-1.3-1.5-2.1-2.1c-2.2-1.6-5.8-2.7-7.4,0.3 c-2.8,5.3,3.2,13.5,7.4,16.3C768.2,484.5,770.5,479,769.6,474.4z"/><path fill="#FBE0BA" d="M762.7,495.8c1.3-1.9,0-4.6-1-6.3c-0.5-0.8-1.3-1.5-2.2-2c-0.2-0.2-0.4-0.5-0.6-0.7 c-0.8-0.7-2.3-1.8-3.4-0.9c-3.3,2.7-1,8.2,2,10.3C759.1,497.4,761.5,497.6,762.7,495.8z"/><path fill="#FBE0BA" d="M750.8,504.7c0.5-2.8-4.5-7.2-5.2-3.6C745,503.9,750,508.3,750.8,504.7z"/></g></g><g><path fill="#FBE0BA" d="M302.2,491.1c3.5,2.3,7.3,3.9,9.8,4.4c18.1,3.6,34.7-22.7,27.6-38c-2.6-5.7-8.3-13.9-15.1-14.3 c-9.9-0.6-10.2,14.9-13.6,20.9c-3.9,6.8-11.9,5.2-15.9,11C290.8,480.9,296,487,302.2,491.1z"/><path fill="#FBE0BA" d="M339.6,457.4c-2.6-5.7-8.3-13.9-15.1-14.3c-9.9-0.6-10.2,14.9-13.6,20.9c-3.9,6.8-11.9,5.2-15.9,11 c-4.1,5.9,1.1,12,7.2,16.1c3.5,2.3,7.3,3.9,9.8,4.4C330.1,499.1,346.6,472.8,339.6,457.4z M307.4,476.7c1.3-4,5.1-3.1,8.6-1.1 c-1.7-3.3-3.2-6.8-0.5-9.2c3-2.7,6-2,8.8-0.3c-0.8-1.3-1.8-2.5-3-3.8c-1.4-1.5-2.3-2.8-2.7-4.9c-0.7-3,1.8-7.8,4.6-9.1 c3.2-1.5,9,1.3,11.1,3.6c3.1,3.4,4.4,8.3,4.8,12.7c0.7,8.2-2.6,17.8-9.3,22.9c-3.6,2.8-9,3.7-13.4,2.7 C309.8,488.8,305.2,483.6,307.4,476.7z"/><path fill="#E96F42" d="M297.8,487.2c4-4.2,0.4-8.2-2.7-11.6c-0.3,0-0.6-0.1-0.9-0.1c-5.6-6.7-16.6-16.8-20.7-6.7 c-1.5,3.8,0.5,7.4,3.4,10c-4.3,2.2-2.3,8.4,2.2,10.9C285.4,491,292.5,490.2,297.8,487.2z"/><path fill="#BD4B23" d="M297.8,487.2c4-4.2,0.4-8.2-2.7-11.6c-0.3,0-0.6-0.1-0.9-0.1c-5.6-6.7-16.6-16.8-20.7-6.7 c-1.5,3.8,0.5,7.4,3.4,10c-4.3,2.2-2.3,8.4,2.2,10.9C285.4,491,292.5,490.2,297.8,487.2z M283.3,477.3c-2.5-1.6-6.2-3.8-6.4-7.1 c-0.3-3.9,4.8-3.5,7-2.1c3.5,2.2,6.1,5.6,9.4,8c1.2,0.8,1.3,2.1,0.9,3c0.4,1.3-0.2,2.7-2,2.4C289.1,481,285.9,479,283.3,477.3z M285.4,486.1c-1.5-0.5-3.6-3.9-1.1-4.5c2.2-0.5,4.3,0,6.5,0.4c2.2,0.5,2.9,4.1,0.9,4.5c-0.2,0.4-0.6,0.6-1.3,0.5 C288.7,486.9,287,486.7,285.4,486.1z"/><g><path fill="#FBE0BA" d="M335.1,460.8c-0.4-2-1.7-4.7-3.6-6.1c-0.5-0.6-1-1.2-1.7-1.6c-1.7-1.2-4.5-2-5.7,0.2 c-2.1,4.1,2.4,10.4,5.7,12.5C334.1,468.6,335.8,464.4,335.1,460.8z"/><path fill="#FBE0BA" d="M329.8,477.3c1-1.5,0-3.5-0.8-4.8c-0.4-0.6-1-1.2-1.7-1.5c-0.2-0.2-0.3-0.4-0.5-0.5 c-0.6-0.6-1.8-1.4-2.6-0.7c-2.6,2-0.7,6.3,1.5,7.9C327.1,478.5,328.9,478.7,329.8,477.3z"/><path fill="#FBE0BA" d="M320.6,484.2c0.4-2.2-3.5-5.6-4-2.8C316.2,483.5,320.1,486.9,320.6,484.2z"/></g></g><g><path fill="#1E641E" d="M331.2,542.3c-7.3-8.1-32.8,6.4-27.7,17.4c2.3,5,8.9,7.3,13.9,7.8c7,0.6,12.6-4.3,15.2-10.4 C334.5,552.5,334.7,546.3,331.2,542.3z"/><path fill="#39AA35" d="M329.4,537.5c-7.3-8.1-32.8,6.4-27.7,17.4c2.3,5,8.9,7.3,13.9,7.8c7,0.6,12.6-4.3,15.2-10.4 C332.7,547.6,333,541.4,329.4,537.5z"/></g><g><path fill="#1E641E" d="M545.3,476.3c-2.5-10.6-31.9-10.1-32.7,2c-0.4,5.5,4.3,10.7,8.5,13.5c5.9,3.9,13.1,2.2,18.3-1.9 C543.3,486.8,546.5,481.5,545.3,476.3z"/><path fill="#39AA35" d="M546.1,471.3c-2.5-10.6-31.9-10.1-32.7,2c-0.4,5.5,4.3,10.7,8.5,13.5c5.9,3.9,13.1,2.2,18.3-1.9 C544.1,481.7,547.3,476.4,546.1,471.3z"/></g><g><path fill="#1E641E" d="M485.1,561.3c-2.1-8.6-26-8.2-26.7,1.6c-0.3,4.5,3.5,8.7,6.9,11c4.8,3.2,10.7,1.8,14.9-1.6 C483.5,569.9,486.1,565.5,485.1,561.3z"/><path fill="#39AA35" d="M485.7,557.2c-2.1-8.6-26-8.2-26.7,1.6c-0.3,4.5,3.5,8.7,6.9,11c4.8,3.2,10.7,1.8,14.9-1.6 C484.1,565.7,486.7,561.4,485.7,557.2z"/></g><g><path fill="#E7550E" d="M698.5,440.3c-1.4-5.9-17.7-5.6-18.1,1.1c-0.2,3,2.4,5.9,4.7,7.5c3.2,2.2,7.3,1.2,10.2-1.1 C697.5,446.1,699.2,443.2,698.5,440.3z"/><path fill="#FFDB05" d="M699,437.5c-1.4-5.9-17.7-5.6-18.2,1.1c-0.2,3,2.4,5.9,4.7,7.5c3.3,2.2,7.3,1.2,10.2-1.1 C697.9,443.3,699.7,440.3,699,437.5z"/></g><g><path fill="#E7550E" d="M800.2,498.1c-1.4-5.9-17.7-5.6-18.2,1.1c-0.2,3,2.4,5.9,4.7,7.5c3.3,2.2,7.3,1.2,10.2-1.1 C799.1,503.9,800.9,501,800.2,498.1z"/><path fill="#FFDB05" d="M800.6,495.3c-1.4-5.9-17.7-5.6-18.2,1.1c-0.2,3,2.4,5.9,4.7,7.5c3.3,2.2,7.3,1.2,10.2-1.1 C799.6,501.1,801.3,498.2,800.6,495.3z"/></g><g><path fill="#E7550E" d="M570.8,450.1c-1.4-5.9-17.7-5.6-18.2,1.1c-0.2,3,2.4,5.9,4.7,7.5c3.3,2.2,7.3,1.2,10.2-1.1 C569.7,455.9,571.5,453,570.8,450.1z"/><path fill="#FFDB05" d="M571.2,447.3c-1.4-5.9-17.7-5.6-18.2,1.1c-0.2,3,2.4,5.9,4.7,7.5c3.3,2.2,7.3,1.2,10.2-1.1 C570.2,453.1,571.9,450.2,571.2,447.3z"/></g><g><path fill="#E7550E" d="M416.1,431.5c-1.4-5.9-17.7-5.6-18.2,1.1c-0.2,3,2.4,5.9,4.7,7.5c3.3,2.2,7.3,1.2,10.2-1.1 C415,437.4,416.8,434.4,416.1,431.5z"/><path fill="#FFDB05" d="M416.5,428.7c-1.4-5.9-17.7-5.6-18.2,1.1c-0.2,3,2.4,5.9,4.7,7.5c3.2,2.2,7.3,1.2,10.2-1.1 C415.4,434.5,417.2,431.6,416.5,428.7z"/></g><g><path fill="#E7550E" d="M186.7,492.5c-1.4-5.9-17.7-5.6-18.2,1.1c-0.2,3,2.4,5.9,4.7,7.5c3.3,2.2,7.3,1.2,10.2-1.1 C185.6,498.3,187.3,495.3,186.7,492.5z"/><path fill="#FFDB05" d="M187.1,489.7c-1.4-5.9-17.7-5.6-18.2,1.1c-0.2,3,2.4,5.9,4.7,7.5c3.2,2.2,7.3,1.2,10.2-1.1 C186,495.5,187.8,492.5,187.1,489.7z"/></g><g><path fill="#E7550E" d="M321.8,517.8c-1.4-5.9-17.7-5.6-18.1,1.1c-0.2,3,2.4,5.9,4.7,7.5c3.3,2.2,7.3,1.2,10.2-1.1 C320.7,523.6,322.5,520.6,321.8,517.8z"/><path fill="#FFDB05" d="M322.2,514.9c-1.4-5.9-17.7-5.6-18.2,1.1c-0.2,3,2.4,5.9,4.7,7.5c3.2,2.2,7.3,1.2,10.2-1.1 C321.1,520.7,322.9,517.8,322.2,514.9z"/></g><g><path fill="#1E641E" d="M827,494.2c-2.1-8.6-26-8.2-26.7,1.7c-0.3,4.5,3.5,8.7,6.9,11c4.8,3.2,10.7,1.8,14.9-1.6 C825.4,502.7,828,498.4,827,494.2z"/><path fill="#39AA35" d="M827.6,490.1c-2.1-8.6-26-8.2-26.7,1.7c-0.3,4.5,3.5,8.7,6.9,11c4.8,3.2,10.7,1.8,14.9-1.6 C826,498.6,828.6,494.3,827.6,490.1z"/></g><g><path fill="#1E641E" d="M362.5,440.5c-2.1-8.6-26-8.2-26.7,1.7c-0.3,4.5,3.5,8.7,6.9,11c4.8,3.2,10.7,1.8,14.9-1.6 C360.9,449,363.5,444.7,362.5,440.5z"/><path fill="#39AA35" d="M363.1,436.3c-2.1-8.6-26-8.2-26.7,1.7c-0.3,4.5,3.5,8.7,6.9,11c4.8,3.2,10.7,1.8,14.9-1.6 C361.5,444.9,364.1,440.5,363.1,436.3z"/></g><g><path fill="#9C1006" d="M400.9,449.9c-0.9,0.5-13.3-2.7-14.1-2.2c-6.9,4-17.3,6.8-23.1,13.3c-0.5,0.5,0.6,3.6,0.2,4.2 c2.5,2.3,5.4,4.2,8.4,6c7.3-4.1,14.1-9.1,21.4-13.2c2.5-1.4,5-2.5,7.6-3.7C402.6,453.2,404.5,452.9,400.9,449.9z"/><path fill="#D50911" d="M389.3,441.9c-0.9,0.5-1.8,1-2.7,1.5c-7.5,4.4-17.3,10.2-22.9,17.4c2.5,2.3,5.4,4.2,8.4,6 c7.3-4.1,14.1-9.1,21.4-13.2c2.5-1.4,5-2.6,7.6-3.7C397.1,447.5,393,445.1,389.3,441.9z"/></g><g><path fill="#9C1006" d="M637.3,457.4c-0.9,0.5-13.3-2.7-14.1-2.2c-6.9,4-17.3,6.8-23.1,13.3c-0.5,0.5,0.6,3.6,0.2,4.2 c2.5,2.3,5.4,4.3,8.4,6c7.3-4.1,14.1-9.1,21.4-13.2c2.5-1.4,5-2.6,7.6-3.7C639,460.7,641,460.5,637.3,457.4z"/><path fill="#D50911" d="M625.8,449.5c-0.9,0.5-1.8,1-2.7,1.5c-7.5,4.4-17.3,10.1-22.9,17.4c2.5,2.3,5.4,4.2,8.4,6 c7.3-4.1,14.1-9.1,21.4-13.2c2.5-1.4,5-2.5,7.6-3.7C633.6,455,629.4,452.6,625.8,449.5z"/></g><g><path fill="#9C1006" d="M277.5,554.1c-1,0.1-10.7-8.3-11.7-8.2c-8,0.5-18.5-1.7-26.6,1.6c-0.7,0.3-1.1,3.5-1.7,3.8 c1.2,3.1,2.9,6.2,4.9,9.1c8.4-0.4,16.6-1.8,25-2.3c2.8-0.1,5.6-0.1,8.4,0.1C277.6,557.8,279.4,558.5,277.5,554.1z"/><path fill="#D50911" d="M270.7,541.9c-1,0-2.1,0.1-3.1,0.1c-8.7,0.6-20,1.4-28.3,5.4c1.2,3.1,2.9,6.2,4.9,9.1 c8.4-0.4,16.6-1.9,25-2.3c2.8-0.1,5.6-0.1,8.4,0.1C275.2,550.3,272.6,546.3,270.7,541.9z"/></g><g><path fill="#9C1006" d="M720.1,534.4c-1,0-10.7-8.3-11.7-8.3c-8,0.5-18.5-1.7-26.6,1.6c-0.7,0.3-1.1,3.5-1.7,3.8 c1.2,3.2,2.9,6.2,4.9,9.1c8.4-0.4,16.6-1.9,25-2.3c2.8-0.1,5.6,0,8.4,0.1C720.1,538.1,722,538.8,720.1,534.4z"/><path fill="#D50911" d="M713.3,522.2c-1,0.1-2.1,0.1-3.1,0.1c-8.7,0.6-20,1.4-28.3,5.4c1.2,3.1,2.9,6.2,4.9,9.1 c8.4-0.4,16.6-1.9,25-2.3c2.8-0.1,5.6,0,8.4,0.1C717.8,530.6,715.2,526.6,713.3,522.2z"/></g><g><path fill="#9C1006" d="M773.2,437.1c-1,0.1-10.7-8.3-11.7-8.2c-8,0.5-18.5-1.7-26.6,1.6c-0.7,0.3-1.1,3.5-1.7,3.8 c1.2,3.1,2.9,6.2,4.9,9.1c8.4-0.4,16.6-1.9,25-2.3c2.8-0.1,5.6,0,8.4,0.1C773.2,440.9,775.1,441.6,773.2,437.1z"/><path fill="#D50911" d="M766.4,424.9c-1,0.1-2.1,0.1-3.1,0.1c-8.7,0.5-20,1.4-28.3,5.4c1.2,3.1,2.9,6.2,4.9,9.1 c8.4-0.4,16.6-1.9,25-2.3c2.8-0.1,5.6-0.1,8.4,0.1C770.9,433.3,768.2,429.3,766.4,424.9z"/></g><g><path fill="#9C1006" d="M434.5,494.4c-1,0.1-10.7-8.3-11.7-8.2c-8,0.5-18.5-1.7-26.6,1.6c-0.7,0.3-1.1,3.5-1.7,3.8 c1.2,3.1,2.9,6.2,4.9,9.1c8.4-0.4,16.6-1.9,25-2.3c2.8-0.1,5.6-0.1,8.4,0.1C434.5,498.2,436.3,498.8,434.5,494.4z"/><path fill="#D50911" d="M427.7,482.2c-1,0.1-2.1,0.1-3.1,0.1c-8.7,0.6-20,1.4-28.3,5.4c1.2,3.1,2.9,6.2,4.9,9.1 c8.4-0.4,16.6-1.9,25-2.3c2.8-0.1,5.6,0,8.4,0.1C432.2,490.6,429.5,486.6,427.7,482.2z"/></g><g><path fill="#9C1006" d="M593.7,558.5c-1,0.1-10.7-8.3-11.7-8.2c-8,0.5-18.5-1.7-26.6,1.6c-0.7,0.3-1.1,3.5-1.7,3.8 c1.2,3.1,2.9,6.2,4.9,9.1c8.4-0.4,16.6-1.9,25-2.3c2.8-0.1,5.6-0.1,8.4,0.1C593.7,562.2,595.6,562.9,593.7,558.5z"/><path fill="#D50911" d="M586.9,546.3c-1,0.1-2.1,0.1-3.1,0.1c-8.7,0.6-20,1.4-28.3,5.4c1.2,3.1,2.9,6.2,4.9,9.1 c8.4-0.4,16.6-1.9,25-2.3c2.8-0.1,5.6-0.1,8.4,0.1C591.4,554.7,588.8,550.7,586.9,546.3z"/></g><g><path fill="#9C1006" d="M539,520.3c-0.8,0-8.4-6.5-9.1-6.5c-6.3,0.4-14.5-1.3-20.8,1.2c-0.5,0.2-0.8,2.7-1.3,3 c0.9,2.5,2.3,4.9,3.8,7.1c6.6-0.3,13-1.5,19.6-1.8c2.2-0.1,4.4,0,6.6,0.1C539,523.2,540.4,523.7,539,520.3z"/><path fill="#D50911" d="M533.6,510.7c-0.8,0-1.6,0.1-2.4,0.1c-6.8,0.4-15.6,1.1-22.2,4.2c0.9,2.5,2.3,4.9,3.8,7.1 c6.6-0.3,13-1.5,19.6-1.8c2.2-0.1,4.4,0,6.6,0.1C537.2,517.3,535.1,514.2,533.6,510.7z"/></g><g><path fill="#9C1006" d="M814,464.8c-0.8,0-8.4-6.5-9.1-6.5c-6.3,0.4-14.5-1.3-20.8,1.2c-0.5,0.2-0.8,2.7-1.3,3 c0.9,2.5,2.3,4.9,3.8,7.1c6.6-0.3,13-1.5,19.6-1.8c2.2-0.1,4.4,0,6.6,0.1C814,467.7,815.5,468.3,814,464.8z"/><path fill="#D50911" d="M808.7,455.3c-0.8,0-1.6,0.1-2.4,0.1c-6.8,0.4-15.6,1.1-22.2,4.2c0.9,2.5,2.3,4.9,3.8,7.1 c6.6-0.3,13-1.5,19.6-1.8c2.2-0.1,4.4,0,6.6,0.1C812.2,461.8,810.1,458.7,808.7,455.3z"/></g><g><path fill="#FBE0BA" d="M490.9,496.4c1.9-5.1,2.9-10.3,2.8-13.7c-0.6-23.9-38.6-37.5-56.1-24.2c-6.4,4.9-15.2,14.5-13.8,23.2 c2,12.8,21.8,8.7,30.3,11.3c9.7,3,10,13.6,18.5,17C481.3,513.6,487.5,505.3,490.9,496.4z"/><path fill="#FBE0BA" d="M437.6,458.5c-6.4,4.9-15.2,14.5-13.8,23.2c2,12.8,21.8,8.7,30.3,11.3c9.7,3,10,13.6,18.5,17 c8.7,3.5,14.9-4.8,18.3-13.7c1.9-5.1,2.9-10.3,2.8-13.7C493.1,458.8,455.1,445.2,437.6,458.5z M471.2,493.8 c-5.5-0.5-5.3-5.6-3.9-10.6c-3.7,3.1-7.6,6-11.5,3.3c-4.2-3-4.2-7-2.9-11.1c-1.4,1.4-2.6,3-3.9,4.8c-1.5,2.2-3,3.7-5.4,4.9 c-3.7,1.7-10.4-0.1-12.8-3.2c-2.8-3.6-0.8-11.8,1.5-15c3.4-4.8,9.3-7.9,14.8-9.7c10.2-3.3,23.2-1.7,31.6,5.2 c4.6,3.8,7.2,10.3,7.2,16.3C485.9,487.3,480.6,494.7,471.2,493.8z"/><path fill="#E96F42" d="M487.3,503c-6.4-3.8-10.5,1.8-13.9,6.8c0,0.4,0.1,0.8,0.1,1.2c-6.9,9-16.6,25.8-2.5,28.1 c5.3,0.9,9.2-2.7,11.8-7.1c4.1,4.9,11.3,0.5,13.2-5.8C495.6,517.6,492.5,508.9,487.3,503z"/><path fill="#BD4B23" d="M487.3,503c-6.4-3.8-10.5,1.8-13.9,6.8c0,0.4,0.1,0.8,0.1,1.2c-6.9,9-16.6,25.8-2.5,28.1 c5.3,0.9,9.2-2.7,11.8-7.1c4.1,4.9,11.3,0.5,13.2-5.8C495.6,517.6,492.5,508.9,487.3,503z M478.9,524.2 c-1.3,3.6-3.1,8.9-7.2,10.1c-4.9,1.5-5.8-5.1-4.7-8.3c1.8-5.1,5.4-9.3,7.5-14.2c0.7-1.7,2.3-2.3,3.5-1.9 c1.6-0.8,3.5-0.5,3.6,1.8C481.9,515.7,480.3,520.4,478.9,524.2z M489.5,519c-0.2,2-3.9,5.7-5.3,2.7c-1.3-2.7-1.3-5.4-1.3-8.4 c-0.1-2.9,4.4-4.9,5.4-2.5c0.5,0.2,0.9,0.7,1,1.5C489.5,514.6,489.7,516.8,489.5,519z"/><g><path fill="#FBE0BA" d="M443.2,463.2c-2.4,1-5.4,3.5-6.7,6.3c-0.6,0.8-1.2,1.6-1.6,2.6c-1.1,2.4-1.3,6.3,1.9,7.1 c5.8,1.6,12.5-6,14.2-10.8C453.3,462.4,447.5,461.4,443.2,463.2z"/><path fill="#FBE0BA" d="M465.6,465.3c-2.1-0.8-4.5,1-5.9,2.3c-0.7,0.6-1.2,1.6-1.5,2.6c-0.2,0.3-0.4,0.4-0.5,0.7 c-0.5,0.9-1.2,2.6-0.1,3.5c3.3,2.7,8.3-0.9,9.6-4.2C467.9,468.4,467.6,466,465.6,465.3z"/><path fill="#FBE0BA" d="M476.9,474.9c-2.8,0.1-6.1,6-2.4,5.9C477.4,480.8,480.6,474.9,476.9,474.9z"/></g></g></g></g><g><path fill="#F6C278" d="M604.3,226.9c2-7.6-2.3-9.9-8.8-6.8c-11.3,5.4-19.9,18-27.7,28.5c2.2-10.8,10.2-24.2,5.4-33.7 c-0.5-1-1.6-0.7-2.4-0.2c-6.8,4-9.5,12.2-11.7,19.8c-8.4,17.4-15.4,37.6-12.1,55.2c0.2,0.9,0.9,1.5,1.8,1.2 c6.5-1.8,9.2-8.3,12.6-13.8c-0.7,16.6-0.1,33.8,4.1,49.9c2.1,8.3,7.5,7.6,12.1,1.7c4.1-5.3,5.6-12.8,8.2-18.9 c3.2-7.5,7.3-14.8,9.6-22.6c1.8-6.1-11.7,3.5-12.1-3.3c-0.7-10.7,6.6-23.3,10.7-32.8C597.4,243.3,602.1,235.2,604.3,226.9z"/><path fill="#F6C278" d="M657.4,265.4c-11.4-3.2-23.5,4.6-32.6,10.5c-9.5,6.2-18.1,14.2-25,23.5c-7.8,9.7-14.2,22.4-12.4,31.7 c0.1,0.7,0.7,1.2,1.4,1c4.2-1.2,7.1-4.1,10.1-7.3c6.4-6.7,12.4-13.4,19.4-19.6c8.2-7.2,16.7-14.2,24.8-21.5 c5.5-5,12-9.2,14.8-16.4C658.1,266.7,658.2,265.6,657.4,265.4z"/><path fill="#F6C278" d="M661,282.3c-7.6-1.7-16.1,7.3-21.3,14.7c-2.1,1.6-4,3.3-5.8,5.3c-2.4,2.6-7,10.4-3.3,13.7 c5.9,5.4,19.2-5.8,23.4-9.8C658.6,301.9,675.5,285.5,661,282.3z"/><path fill="#F6C278" d="M515.5,437c-3.6-4.6-10.8-3.4-15.1-0.9c-1.5,0.9-3.9,2.6-5.9,4.6c-0.9,0.6-1.8,1.3-2.8,2.1 c-3.5,2.5-6.5,5.5-7.8,8.8c-1.3,1.7-2.2,3.6-1.6,5.5c1.6,5.5,16.7,0.1,19.7-1.1C507.9,453.5,521.5,444.7,515.5,437z"/><path fill="#F6C278" d="M531.2,443c-2.6-1-5.2,0.2-7.2,1.9c-0.2,0.2-0.4,0.3-0.6,0.5c-1.6,1.1-3.4,2.4-4.3,4.1 c-0.9,1.5-0.7,3.2,1.2,3.6c2,0.4,4.2-0.2,6-1.2c2.1-1.1,4-2.5,5.5-4.3C533,446.1,533.3,443.8,531.2,443z"/><path fill="#F6C278" d="M582.9,446.2c-0.6,0-1.2,0.2-1.7,0.5c-1.5,0-3,0.7-4.1,2.2c-2.8,4,2.4,8.5,5.8,9.8 c1.9,0.7,4.3,1.1,6.2,0.3c2-0.9,4-3,3.8-5.4C592.7,449.3,586.7,446.3,582.9,446.2z"/><path fill="#F6C278" d="M656.2,428.2c-2.3-0.5-5-0.4-7.6,0.2c-5-0.6-11.6,2.6-11.2,8.3c0.4,5.7,7.5,6.5,11.8,6.4 c4.6,0,10.7-1.4,13-5.9C664.6,432.7,660.4,429.1,656.2,428.2z"/><path fill="#F6C278" d="M609.8,428.1c-0.1-0.4-0.7-0.5-1.2-0.1c-0.7,0.6-1.1,1.4-1.3,2.2c-1,1.3-1.5,2.9-1,4.5 c0.4,1.3,1.3,1.8,2.3,1.9c0.6,0.8,1.5,1.5,2.6,1.5c2.2,0,4-2,4.6-4C617.1,430.2,613.4,426.4,609.8,428.1z"/></g><g><path fill="#A36707" d="M568.3,210.2c5.8,6.2,14.7,5.7,23.5,3.1c22.2-6.6,49.4-35.4,49.6-59.7c0.1-8.8-3-13.5-7.7-15.4 c-6-7.4-19.1-4.2-29.5,1.1c-2.6,1.3-5.1,2.7-7.5,4.2c-13.7,8.3-25.6,19.6-33.8,33.4c-4.1,6.9-5.7,17.5-2.4,25 C562.4,206,565.1,208.7,568.3,210.2z"/><path fill="#A36707" d="M706.1,97.5c16.4,7.5,47,4.5,59.5-9.6c4.5-5.1,5.1-9.4,3.3-12.9c0.3-7.4-9-12.2-17.8-14.4 c-2.2-0.6-4.3-1-6.5-1.4c-12.2-2.1-25-1.6-36.7,2.3c-5.9,1.9-12.3,7.3-14.1,13.4c-1.1,3.5-0.9,6.4,0.2,8.9 C694.1,90.3,699.6,94.5,706.1,97.5z"/><path fill="#A36707" d="M857.6,159.7c1.1-2.8,0.9-5.3-0.2-7.5c0.3-7.4-9-12.2-17.8-14.4c-2.2-0.6-4.3-1-6.5-1.4 c-8.1-1.4-16.3-1.6-24.4-0.5c-0.1-0.5-0.3-1.1-0.6-2c0,0,0,0,0.1,0c-2.5-4.1-5.1-8.1-7-12.5c-1,0.1-2.1,0.1-3.1,0.1 c-8.7,0.6-20,1.4-28.3,5.4l0,0c0,0-0.1,0-0.1,0c-0.2,0.1-0.4,0.4-0.5,0.8c-11.4-13.9-36.8-19.5-50.2-9.3 c-6.4,4.9-15.2,14.5-13.8,23.2c2,12.8,21.8,8.7,30.3,11.3c9.7,3,10,13.6,18.5,17c0.3,0.1,0.5,0.2,0.8,0.3c0,0.2,0,0.4,0.1,0.5 c-6.9,9-16.6,25.8-2.5,28.1c5.3,0.9,9.2-2.7,11.8-7.1c4.1,4.9,11.3,0.5,13.2-5.8c-0.2-8.3-3.3-16.9-8.4-22.7 c1.3-2.1,2.5-4.5,3.4-6.9c1.9-5.1,2.9-10.3,2.8-13.7c0-1-0.1-1.9-0.3-2.9c7.7-0.5,15.4-1.7,23.2-2.1c0.7,0,1.3,0,2,0 c-1.2,0.3-2.4,0.7-3.6,1c-5.9,1.9-12.3,7.3-14.1,13.4c-1.1,3.5-0.9,6.4,0.2,8.9c0.2,6.6,5.6,10.8,12.2,13.8 c6.4,2.9,14.9,4.2,23.6,3.9c0.4,1.7,1,3.1,1.5,4.2c7.5,14.5,34.8,11.4,41.5-1.9c2.5-4.9,5-13.4,1.5-18.4 C861.4,160.7,859.6,159.9,857.6,159.7z"/><path fill="#A36707" d="M587.5,225.9c-9.9-0.6-10.2,14.9-13.6,20.9c-3.9,6.8-11.9,5.2-15.9,11c-0.1,0.2-0.2,0.4-0.3,0.6 c-0.1,0-0.3,0-0.4,0c-5.6-6.7-16.6-16.8-20.7-6.7c-1.5,3.8,0.5,7.4,3.4,10c-4.3,2.2-2.3,8.4,2.2,10.9c6.2,1.2,13.2,0.4,18.5-2.4 c1.4,1.4,3,2.6,4.6,3.7c3.5,2.3,7.3,3.9,9.8,4.4c18.1,3.6,34.7-22.7,27.6-38C600,234.6,594.3,226.3,587.5,225.9z"/><path fill="#A36707" d="M591,326.2c-7.3-8.1-32.8,6.4-27.7,17.4c0.3,0.6,0.7,1.2,1.1,1.8c0,1,0.2,2,0.7,3c2.3,5,8.9,7.3,13.9,7.8 c7,0.6,12.6-4.3,15.2-10.4c1.8-4.2,2.1-9.7-0.5-13.6C593.3,330,592.5,327.9,591,326.2z"/><path fill="#A36707" d="M733.6,211.4c-2.1-8.6-26-8.2-26.7,1.6c0,0.6,0,1.2,0.1,1.7c-0.4,0.7-0.7,1.5-0.7,2.4 c-0.3,4.5,3.5,8.7,6.9,11c4.8,3.2,10.7,1.8,14.9-1.6c2.9-2.3,5.3-6.1,5-9.9C733.8,215,734.1,213.2,733.6,211.4z"/><path fill="#A36707" d="M717.1,103.9c-1.4-5.9-17.7-5.6-18.2,1.1c0,0.4,0,0.8,0.1,1.2c-0.3,0.5-0.5,1-0.5,1.6 c-0.2,3,2.4,5.9,4.7,7.5c3.3,2.2,7.3,1.2,10.2-1.1c2-1.6,3.6-4.2,3.4-6.8C717.2,106.3,717.4,105.1,717.1,103.9z"/><path fill="#A36707" d="M910.2,161.4c-1.4-5.9-17.7-5.6-18.2,1.1c0,0.4,0,0.8,0.1,1.2c-0.3,0.5-0.5,1-0.5,1.6 c-0.2,3,2.4,5.9,4.7,7.5c3.3,2.2,7.3,1.2,10.2-1.1c2-1.6,3.6-4.2,3.4-6.8C910.3,163.8,910.4,162.6,910.2,161.4z"/><path fill="#A36707" d="M638.5,254.9c-1.4-5.9-17.7-5.6-18.2,1.1c0,0.4,0,0.8,0.1,1.2c-0.3,0.5-0.5,1-0.5,1.6 c-0.2,3,2.4,5.9,4.7,7.5c3.3,2.2,7.3,1.2,10.2-1.1c2-1.6,3.6-4.2,3.4-6.8C638.6,257.3,638.8,256.1,638.5,254.9z"/><path fill="#A36707" d="M643.4,128.3c4.8,3.2,10.7,1.8,14.9-1.6c2.9-2.3,5.3-6.1,5-10c0.7-1.7,0.9-3.5,0.5-5.3 c-2.1-8.6-26-8.2-26.7,1.7c0,0.6,0,1.2,0.1,1.7c-0.4,0.7-0.7,1.5-0.7,2.4C636.1,121.8,639.9,126,643.4,128.3z"/><path fill="#A36707" d="M664.5,140.3c2.5,2.3,5.4,4.2,8.4,6c7.3-4.1,14.1-9.1,21.4-13.2c2.5-1.4,5-2.5,7.6-3.7 c1.3-1.1,3.2-1.3-0.2-4.2c0,0,0,0,0.1,0c-4-2.5-8.2-5-11.8-8.1c-0.9,0.5-1.8,1-2.7,1.5c-7.5,4.4-17.3,10.1-22.9,17.4c0,0,0,0,0,0 c0,0,0,0-0.1,0.1C663.8,136.6,664.9,139.7,664.5,140.3z"/><path fill="#A36707" d="M592.2,298.2c1.6-0.4,3.4,0.2,1.7-3.9c0,0,0,0,0.1,0c-2.5-4.1-5.1-8.1-7-12.5c-1,0-2.1,0.1-3.1,0.1 c-8.7,0.6-20,1.4-28.3,5.4c0,0,0,0,0,0c0,0-0.1,0-0.1,0c-0.7,0.3-1.1,3.5-1.7,3.8c1.2,3.1,2.9,6.2,4.9,9.1 c8.4-0.4,16.6-1.9,25-2.3C586.6,297.9,589.4,298,592.2,298.2z"/><path fill="#A36707" d="M711.5,187.6C711.5,187.6,711.5,187.6,711.5,187.6c-2.4-4.1-5-8.1-6.9-12.5c-1,0.1-2.1,0.1-3.1,0.1 c-8.7,0.6-20,1.4-28.3,5.4c0,0,0,0,0,0c0,0-0.1,0-0.1,0c-0.7,0.3-1.1,3.5-1.7,3.8c1.2,3.1,2.9,6.2,4.9,9.1 c8.4-0.4,16.6-1.9,25-2.3c2.8-0.1,5.6-0.1,8.4,0.1C711.4,191.1,713.2,191.7,711.5,187.6z"/><path fill="#A36707" d="M663.7,220.3c-8.8,0.3-12.2-8.3-20.2-8.6c-0.3,0-0.5,0-0.7,0c-0.1-0.1-0.1-0.3-0.2-0.4 c3-9.4,6.2-26.1-6.1-23.9c-4.6,0.8-6.8,4.9-7.6,9.3c-4.8-2.8-9.4,2.9-9.2,8.6c2.6,6.7,7.6,13,13.5,16.3c-0.5,2.1-0.7,4.4-0.8,6.7 c-0.1,4.7,0.6,9.3,1.7,12.1c7.5,19.6,42.7,19.6,53.2,3.6c3.9-5.9,8.3-16.4,4.6-23.2C686.5,210.9,671.4,220,663.7,220.3z"/></g><g><g><path fill="#850B23" d="M601.1,139.2c-13.7,8.3-25.6,19.6-33.8,33.4c-4.1,6.9-5.7,17.5-2.4,25c5.2,11.6,16,11.5,26.9,8.3 c22.2-6.6,49.4-35.4,49.6-59.8c0.2-21.6-18.7-18.2-32.9-11.1C606,136.4,603.5,137.8,601.1,139.2z"/><path fill="#CE6B50" d="M596.7,136c-13.7,8.3-25.6,19.6-33.8,33.4c-4.1,6.9-5.7,17.5-2.4,25c5.2,11.6,16,11.5,26.9,8.3 c22.3-6.6,49.4-35.4,49.6-59.8c0.2-21.6-18.7-18.2-32.9-11.1C601.6,133.1,599.1,134.5,596.7,136z"/><g><path fill="#FBE0BA" d="M579.5,185.7c-0.6-1.1-2-1.2-3.1-0.9c-1.6,0.5-2.5,2.1-2.9,3.6c-0.6,1.9,0,7.6,3.4,5.7 c1.3-0.7,2.1-1.5,2.8-2.8C580.5,189.8,581.1,186.8,579.5,185.7z"/><path fill="#FBE0BA" d="M579.5,185.7C579.5,185.7,579.5,185.7,579.5,185.7c0.1,0.1,0.1,0.1,0.2,0.2 C579.6,185.8,579.5,185.7,579.5,185.7z"/></g><path fill="#FBE0BA" d="M585.8,164.6c-0.5-0.5-1.2-0.8-2-0.3c-3.7,1.9-2.5,9.4,1.1,6.6c0.1-0.1,0.1-0.2,0.2-0.3 c0.2-0.1,0.5-0.4,0.9-1.1c0.1-0.1,0.1-0.2,0.1-0.3c0.1-0.2,0.1-0.3,0.2-0.4c0.2-0.7,0.4-1.4,0.4-2.1 C586.6,165.9,586.3,165.1,585.8,164.6z"/><path fill="#FBE0BA" d="M606.9,171c-1.8,0.8-3.5,1.4-4.8,3.1c-2.5,3.3-2.7,6.7-2,10.6c0.3,2.1,1.6,3,3.1,3.2 c1,0.6,2.3,0.4,3.5-0.2c0.1,0,0.1,0,0.2,0c3.5-1.4,5.7-4.2,6.2-8c0.3-2-0.1-3.6-0.9-4.9C611.8,172,610.3,169.6,606.9,171z"/><path fill="#FBE0BA" d="M617.4,142.5c-4.4,2.2-5,13.7,0.6,10.9C622.4,151.2,623.1,139.7,617.4,142.5z"/><path fill="#FBE0BA" d="M593.5,156.3c-1.8,0.9-2.8,3.1-2.7,5.1c0.1,1.6,1.3,3.5,3.1,2.6c1.8-0.9,2.8-3.1,2.7-5.1 C596.6,157.3,595.3,155.3,593.5,156.3z"/><path fill="#FBE0BA" d="M622.8,162.2c-0.2-0.1-0.3-0.2-0.5-0.3c-1.6-0.8-2.6,2.1-2.6,3.2c0,0.3,0,0.6,0,0.9 C619.7,171.3,627.4,164.4,622.8,162.2z"/><path fill="#FBE0BA" d="M567.8,169.6c-2.1,1.1-2.4,6.7,0.3,5.3C570.2,173.8,570.5,168.2,567.8,169.6z"/></g><g><path fill="#850B23" d="M745.5,55.8c-12.2-2.1-25-1.6-36.7,2.3c-5.9,1.9-12.3,7.3-14.1,13.4c-2.9,9.4,3.5,14.9,11.5,18.6 c16.4,7.5,47,4.5,59.5-9.6c11.1-12.5-1.7-20.2-13.6-23.2C749.8,56.7,747.7,56.2,745.5,55.8z"/><path fill="#CE6B50" d="M744.6,51.7c-12.2-2.1-25-1.6-36.7,2.3c-5.9,2-12.3,7.3-14.1,13.4c-2.9,9.4,3.5,14.9,11.5,18.6 c16.4,7.5,47,4.5,59.5-9.6c11.1-12.5-1.7-20.2-13.6-23.2C748.9,52.5,746.8,52.1,744.6,51.7z"/><g><path fill="#FBE0BA" d="M709.2,72c0.2-1-0.5-1.7-1.4-2.1c-1.2-0.5-2.5,0-3.5,0.6c-1.3,0.8-3.9,4.4-0.9,5.1 c1.1,0.2,2,0.2,3.1-0.2C707.7,74.9,709.5,73.5,709.2,72z"/><path fill="#FBE0BA" d="M709.2,72C709.2,72,709.2,72,709.2,72c0,0.1,0,0.1,0,0.2C709.2,72.1,709.2,72,709.2,72z"/></g><path fill="#FBE0BA" d="M723.6,62.9c0-0.6-0.3-1.1-1-1.2c-3.1-0.8-6.3,4.2-2.8,4.4c0.1,0,0.2-0.1,0.3-0.1 c0.2,0.1,0.5,0.1,1.1-0.2c0.1,0,0.2-0.1,0.3-0.1c0.1-0.1,0.2-0.1,0.3-0.2c0.5-0.3,0.9-0.6,1.3-1 C723.4,64.1,723.6,63.4,723.6,62.9z"/><path fill="#FBE0BA" d="M732.7,77.4c-1.5-0.5-2.8-1-4.4-0.6c-3.1,0.7-5,2.6-6.6,5.2c-0.8,1.4-0.6,2.6,0.2,3.4 c0.3,0.9,1.2,1.4,2.1,1.7c0.1,0,0.1,0.1,0.1,0.1c2.8,0.9,5.5,0.4,7.8-1.5c1.2-1,1.8-2.1,1.9-3.3 C735.1,80.4,735.4,78.3,732.7,77.4z"/><path fill="#FBE0BA" d="M753.4,66.1c-3.7-0.9-9.9,5.5-5.2,6.7C751.8,73.7,758.1,67.3,753.4,66.1z"/><path fill="#FBE0BA" d="M732.4,61.9c-1.5-0.4-3.2,0.3-4.2,1.6c-0.7,1-1,2.7,0.5,3.1c1.5,0.4,3.2-0.3,4.2-1.6 C733.7,64.1,733.9,62.3,732.4,61.9z"/><path fill="#FBE0BA" d="M746.5,80.3c-0.1-0.1-0.1-0.3-0.2-0.4c-0.6-1.3-2.6-0.1-3.2,0.5c-0.1,0.2-0.3,0.3-0.4,0.5 C740,84,748.1,84,746.5,80.3z"/><path fill="#FBE0BA" d="M710.6,56.6c-1.8-0.5-4.8,2.7-2.5,3.2C709.8,60.3,712.9,57.2,710.6,56.6z"/></g><g><path fill="#850B23" d="M833.9,133.2c-12.2-2.1-25-1.6-36.7,2.3c-5.9,1.9-12.3,7.3-14.1,13.4c-2.9,9.4,3.5,14.9,11.5,18.6 c16.4,7.5,47,4.5,59.5-9.6c11.1-12.5-1.7-20.2-13.6-23.2C838.3,134,836.1,133.5,833.9,133.2z"/><path fill="#CE6B50" d="M833.1,129c-12.2-2.1-25-1.6-36.7,2.3c-5.9,2-12.3,7.3-14.1,13.4c-2.9,9.4,3.5,14.9,11.5,18.6 c16.4,7.5,47,4.5,59.5-9.6c11.1-12.5-1.7-20.2-13.6-23.2C837.4,129.9,835.2,129.4,833.1,129z"/><g><path fill="#FBE0BA" d="M797.7,149.3c0.2-1-0.5-1.7-1.4-2.1c-1.2-0.5-2.5,0-3.5,0.6c-1.3,0.8-3.9,4.4-0.9,5.1 c1.1,0.2,2,0.2,3.1-0.2C796.2,152.2,798,150.8,797.7,149.3z"/><path fill="#FBE0BA" d="M797.7,149.3C797.7,149.3,797.7,149.3,797.7,149.3c0,0.1,0,0.1,0,0.2 C797.6,149.4,797.6,149.3,797.7,149.3z"/></g><path fill="#FBE0BA" d="M812.1,140.2c0-0.6-0.3-1.1-1-1.2c-3.1-0.8-6.3,4.2-2.8,4.4c0.1,0,0.2-0.1,0.3-0.1 c0.2,0.1,0.5,0.1,1.1-0.2c0.1,0,0.2-0.1,0.3-0.1c0.1-0.1,0.2-0.1,0.3-0.2c0.5-0.3,0.9-0.6,1.3-1 C811.9,141.4,812.1,140.8,812.1,140.2z"/><path fill="#FBE0BA" d="M821.2,154.7c-1.5-0.5-2.8-1-4.4-0.6c-3.1,0.7-5,2.6-6.6,5.2c-0.8,1.4-0.6,2.6,0.2,3.4 c0.3,0.9,1.2,1.4,2.1,1.7c0.1,0,0.1,0.1,0.1,0.1c2.8,0.9,5.5,0.4,7.8-1.5c1.2-1,1.8-2.1,1.9-3.3 C823.5,157.7,823.9,155.6,821.2,154.7z"/><path fill="#FBE0BA" d="M841.8,143.4c-3.7-0.9-9.9,5.5-5.2,6.7C840.3,151,846.6,144.6,841.8,143.4z"/><path fill="#FBE0BA" d="M820.9,139.3c-1.5-0.4-3.2,0.3-4.2,1.6c-0.7,1-1,2.7,0.5,3.1c1.5,0.4,3.2-0.3,4.2-1.6 C822.1,141.4,822.4,139.6,820.9,139.3z"/><path fill="#FBE0BA" d="M834.9,157.6c-0.1-0.1-0.1-0.3-0.2-0.4c-0.6-1.3-2.6-0.1-3.2,0.5c-0.1,0.2-0.3,0.3-0.4,0.5 C828.5,161.4,836.5,161.3,834.9,157.6z"/><path fill="#FBE0BA" d="M799,133.9c-1.8-0.5-4.8,2.7-2.5,3.2C798.3,137.6,801.3,134.5,799,133.9z"/></g><g><path fill="#FBE0BA" d="M817.3,166.3c0.3,3.7,1.3,7.2,2.4,9.2c7.5,14.5,34.8,11.4,41.5-1.9c2.5-4.9,5-13.4,1.5-18.4 c-5.1-7.2-16,1.2-21.9,2.1c-6.8,1.1-10.2-5.3-16.4-4.9C818,152.9,816.7,159.8,817.3,166.3z"/><path fill="#FBE0BA" d="M861.2,173.6c2.5-4.9,5-13.4,1.5-18.4c-5.1-7.2-16,1.2-21.9,2.1c-6.8,1.1-10.2-5.3-16.4-4.9 c-6.3,0.4-7.7,7.4-7.1,13.9c0.3,3.7,1.3,7.2,2.4,9.2C827.1,190,854.4,186.9,861.2,173.6z M830.1,162c3.5-1.3,5,1.9,5.5,5.3 c1.3-3,2.9-5.9,6-5.4c3.5,0.6,4.7,3,5.1,5.9c0.4-1.3,0.7-2.6,1-4.1c0.3-1.8,0.7-3.2,1.9-4.6c1.7-2.1,6.4-3.1,8.8-1.9 c2.8,1.4,4,6.9,3.6,9.7c-0.6,4-3.3,7.6-6.1,10.3c-5.2,5-13.7,8-20.9,6.2c-4-1-7.5-4.1-9.3-7.8C823,170.4,824.1,164.3,830.1,162z"/><path fill="#E96F42" d="M817.5,161.2c5.1,0.4,5.9-4.2,6.5-8.3c-0.1-0.2-0.3-0.4-0.4-0.7c1.5-7.6,2.5-20.7-6.8-18 c-3.5,1-4.8,4.4-5.1,7.9c-3.9-1.8-7,3.1-6.3,7.5C808,154.7,812.5,159.1,817.5,161.2z"/><path fill="#BD4B23" d="M817.5,161.2c5.1,0.4,5.9-4.2,6.5-8.3c-0.1-0.2-0.3-0.4-0.4-0.7c1.5-7.6,2.5-20.7-6.8-18 c-3.5,1-4.8,4.4-5.1,7.9c-3.9-1.8-7,3.1-6.3,7.5C808,154.7,812.5,159.1,817.5,161.2z M816.3,145.7c-0.3-2.6-0.8-6.4,1.4-8.3 c2.6-2.3,5.1,1.4,5.3,3.7c0.4,3.7-0.5,7.3-0.3,10.9c0.1,1.3-0.7,2.1-1.6,2.2c-0.7,1-2,1.3-2.8,0 C817,151.8,816.6,148.4,816.3,145.7z M811.4,152c-0.5-1.3,0.7-4.6,2.5-3.2c1.6,1.3,2.4,3,3.3,4.7c0.9,1.7-1.2,4.3-2.6,3.1 c-0.4,0-0.7-0.1-1.1-0.6C812.7,154.7,811.9,153.4,811.4,152z"/><g><path fill="#FBE0BA" d="M856.4,172.4c1.2-1.4,2.3-3.8,2.2-5.8c0.1-0.7,0.2-1.4,0.2-2.1c-0.1-1.8-1.1-4.2-3.3-3.8 c-4,0.8-5.8,7.4-5.5,10.9C850.4,175.9,854.3,174.8,856.4,172.4z"/><path fill="#FBE0BA" d="M842,177.8c1.6-0.1,2.5-1.9,2.9-3.2c0.2-0.6,0.3-1.3,0.1-2c0-0.2,0.1-0.4,0.1-0.6c0-0.7,0-2-1-2.2 c-2.8-0.7-4.8,3-4.6,5.4C839.7,176.6,840.6,177.9,842,177.8z"/><path fill="#FBE0BA" d="M832.2,175.2c1.7-0.9,1.9-5.5-0.3-4.3C830.2,171.8,830,176.4,832.2,175.2z"/></g></g><g><path fill="#FBE0BA" d="M565.2,266.5c3.5,2.3,7.3,3.9,9.8,4.4c18.1,3.6,34.7-22.7,27.6-38c-2.6-5.7-8.3-13.9-15.1-14.3 c-9.9-0.6-10.2,14.9-13.6,20.9c-3.9,6.8-11.9,5.2-15.9,11C553.9,256.3,559.1,262.4,565.2,266.5z"/><path fill="#FBE0BA" d="M602.6,232.8c-2.6-5.7-8.3-13.9-15.1-14.3c-9.9-0.6-10.2,14.9-13.6,20.9c-3.9,6.8-11.9,5.2-15.9,11 c-4.1,5.9,1.1,12,7.2,16.1c3.5,2.3,7.3,3.9,9.8,4.4C593.1,274.5,609.7,248.2,602.6,232.8z M570.5,252.1c1.3-4,5.1-3.1,8.6-1.1 c-1.7-3.3-3.2-6.8-0.5-9.2c3-2.7,6-2,8.8-0.3c-0.8-1.3-1.8-2.5-3-3.8c-1.4-1.5-2.3-2.8-2.7-4.9c-0.7-3,1.8-7.8,4.6-9.1 c3.2-1.5,9,1.3,11.1,3.6c3.1,3.4,4.4,8.3,4.8,12.7c0.7,8.2-2.6,17.8-9.3,22.9c-3.6,2.8-9,3.7-13.4,2.7 C572.9,264.3,568.2,259,570.5,252.1z"/><path fill="#E96F42" d="M560.8,262.6c4-4.2,0.4-8.2-2.7-11.6c-0.3,0-0.6-0.1-0.9-0.1c-5.6-6.7-16.6-16.8-20.7-6.7 c-1.5,3.8,0.5,7.4,3.4,10c-4.3,2.2-2.3,8.4,2.2,10.9C548.4,266.4,555.5,265.6,560.8,262.6z"/><path fill="#BD4B23" d="M560.8,262.6c4-4.2,0.4-8.2-2.7-11.6c-0.3,0-0.6-0.1-0.9-0.1c-5.6-6.7-16.6-16.8-20.7-6.7 c-1.5,3.8,0.5,7.4,3.4,10c-4.3,2.2-2.3,8.4,2.2,10.9C548.4,266.4,555.5,265.6,560.8,262.6z M546.3,252.8 c-2.5-1.6-6.2-3.8-6.4-7.1c-0.3-3.9,4.8-3.5,7-2.1c3.5,2.2,6.1,5.6,9.4,8c1.2,0.8,1.3,2.1,0.9,3c0.4,1.3-0.2,2.7-2,2.4 C552.2,256.4,548.9,254.4,546.3,252.8z M548.4,261.6c-1.5-0.5-3.6-3.9-1.1-4.5c2.2-0.5,4.3,0,6.5,0.4c2.2,0.5,2.9,4.1,0.9,4.5 c-0.2,0.3-0.6,0.6-1.3,0.5C551.7,262.4,550.1,262.1,548.4,261.6z"/><g><path fill="#FBE0BA" d="M598.2,236.2c-0.4-2-1.7-4.7-3.6-6.1c-0.5-0.6-1-1.2-1.7-1.6c-1.7-1.2-4.5-2-5.7,0.2 c-2.1,4.1,2.4,10.4,5.7,12.5C597.1,244,598.9,239.8,598.2,236.2z"/><path fill="#FBE0BA" d="M592.9,252.7c1-1.5,0-3.5-0.8-4.8c-0.4-0.6-1-1.2-1.7-1.5c-0.2-0.2-0.3-0.4-0.5-0.5 c-0.6-0.6-1.8-1.4-2.6-0.7c-2.6,2-0.7,6.3,1.5,7.9C590.1,253.9,591.9,254.1,592.9,252.7z"/><path fill="#FBE0BA" d="M583.7,259.6c0.4-2.2-3.5-5.6-4-2.8C579.2,258.9,583.1,262.4,583.7,259.6z"/></g></g><g><path fill="#1E641E" d="M592.8,323.7c-7.3-8.1-32.8,6.4-27.8,17.5c2.3,5,8.9,7.3,13.9,7.8c7,0.6,12.6-4.3,15.2-10.4 C596,333.8,596.3,327.6,592.8,323.7z"/><path fill="#39AA35" d="M591,318.8c-7.3-8.1-32.8,6.4-27.7,17.4c2.3,5,8.9,7.3,13.9,7.8c7,0.6,12.6-4.3,15.2-10.4 C594.3,329,594.5,322.8,591,318.8z"/></g><g><path fill="#1E641E" d="M733,208.2c-2.1-8.6-26-8.2-26.7,1.6c-0.3,4.5,3.5,8.7,6.9,11c4.8,3.2,10.7,1.8,14.9-1.6 C731.4,216.7,734,212.3,733,208.2z"/><path fill="#39AA35" d="M733.6,204c-2.1-8.6-26-8.2-26.7,1.6c-0.3,4.5,3.5,8.7,6.9,11c4.8,3.2,10.7,1.8,14.9-1.6 C732,212.5,734.7,208.2,733.6,204z"/></g><g><path fill="#E7550E" d="M716.7,99.3c-1.4-5.9-17.7-5.6-18.2,1.1c-0.2,3,2.4,5.9,4.7,7.5c3.3,2.2,7.3,1.2,10.2-1.1 C715.6,105.1,717.4,102.2,716.7,99.3z"/><path fill="#FFDB05" d="M717.1,96.5c-1.4-5.9-17.7-5.6-18.2,1.1c-0.2,3,2.4,5.9,4.7,7.5c3.2,2.2,7.3,1.2,10.2-1.1 C716,102.3,717.8,99.3,717.1,96.5z"/></g><g><path fill="#E7550E" d="M909.7,156.8c-1.4-5.9-17.7-5.6-18.2,1.1c-0.2,3,2.4,5.9,4.7,7.5c3.3,2.2,7.3,1.2,10.2-1.1 C908.6,162.6,910.4,159.7,909.7,156.8z"/><path fill="#FFDB05" d="M910.2,154c-1.4-5.9-17.7-5.6-18.2,1.1c-0.2,3,2.4,5.9,4.7,7.5c3.2,2.2,7.3,1.2,10.2-1.1 C909.1,159.8,910.8,156.9,910.2,154z"/></g><g><path fill="#E7550E" d="M638,250.3c-1.4-5.9-17.7-5.6-18.1,1.1c-0.2,3,2.4,5.9,4.7,7.5c3.3,2.2,7.3,1.2,10.2-1.1 C637,256.1,638.7,253.2,638,250.3z"/><path fill="#FFDB05" d="M638.5,247.5c-1.4-5.9-17.7-5.6-18.2,1.1c-0.2,3,2.4,5.9,4.7,7.5c3.2,2.2,7.3,1.2,10.2-1.1 C637.4,253.3,639.2,250.3,638.5,247.5z"/></g><g><path fill="#1E641E" d="M663.1,108.2c-2.1-8.6-26-8.2-26.7,1.7c-0.3,4.5,3.5,8.7,6.9,11c4.8,3.2,10.7,1.8,14.9-1.6 C661.5,116.8,664.1,112.4,663.1,108.2z"/><path fill="#39AA35" d="M663.7,104.1c-2.1-8.6-26-8.2-26.7,1.7c-0.3,4.5,3.5,8.7,6.9,11c4.8,3.2,10.7,1.8,14.9-1.6 C662.1,112.6,664.7,108.3,663.7,104.1z"/></g><g><path fill="#9C1006" d="M701.5,117.6c-0.9,0.5-13.3-2.7-14.1-2.2c-6.9,4-17.3,6.8-23.1,13.3c-0.5,0.5,0.6,3.6,0.2,4.2 c2.5,2.3,5.4,4.2,8.4,6c7.3-4.1,14.1-9.1,21.4-13.2c2.5-1.4,5-2.5,7.6-3.7C703.2,120.9,705.1,120.7,701.5,117.6z"/><path fill="#D50911" d="M689.9,109.7c-0.9,0.5-1.8,1-2.7,1.5c-7.5,4.4-17.3,10.1-22.9,17.4c2.5,2.3,5.4,4.2,8.4,6 c7.3-4.1,14.1-9.1,21.4-13.2c2.5-1.4,5-2.6,7.6-3.7C697.7,115.2,693.6,112.8,689.9,109.7z"/></g><g><path fill="#9C1006" d="M593.8,286.7c-1,0.1-10.7-8.3-11.7-8.2c-8,0.5-18.5-1.7-26.6,1.6c-0.7,0.3-1.1,3.5-1.7,3.8 c1.2,3.1,2.9,6.2,4.9,9.1c8.4-0.4,16.6-1.9,25-2.3c2.8-0.1,5.6-0.1,8.4,0.1C593.8,290.4,595.7,291.1,593.8,286.7z"/><path fill="#D50911" d="M587,274.5c-1,0-2.1,0.1-3.1,0.1c-8.7,0.6-20,1.4-28.3,5.4c1.2,3.1,2.9,6.2,4.9,9.1 c8.4-0.4,16.6-1.9,25-2.3c2.8-0.1,5.6-0.1,8.4,0.1C591.5,282.9,588.9,278.9,587,274.5z"/></g><g><path fill="#9C1006" d="M711.4,179.9c-1,0.1-10.7-8.3-11.7-8.2c-8,0.5-18.5-1.7-26.6,1.6c-0.7,0.3-1.1,3.5-1.7,3.8 c1.2,3.1,2.9,6.2,4.9,9.1c8.4-0.4,16.6-1.9,25-2.3c2.8-0.1,5.6,0,8.4,0.1C711.4,183.7,713.3,184.3,711.4,179.9z"/><path fill="#D50911" d="M704.6,167.7c-1,0.1-2.1,0.1-3.1,0.1c-8.7,0.6-20,1.4-28.3,5.4c1.2,3.1,2.9,6.2,4.9,9.1 c8.4-0.4,16.6-1.9,25-2.3c2.8-0.1,5.6-0.1,8.4,0.1C709.1,176.1,706.5,172.1,704.6,167.7z"/></g><g><path fill="#9C1006" d="M807.9,126.3c-1,0.1-10.7-8.3-11.7-8.2c-8,0.5-18.5-1.7-26.6,1.6c-0.7,0.3-1.1,3.5-1.7,3.8 c1.2,3.1,2.9,6.2,4.9,9.1c8.4-0.4,16.6-1.9,25-2.3c2.8-0.1,5.6-0.1,8.4,0.1C808,130,809.8,130.7,807.9,126.3z"/><path fill="#D50911" d="M801.1,114.1c-1,0.1-2.1,0.1-3.1,0.1c-8.7,0.6-20,1.4-28.3,5.4c1.2,3.1,2.9,6.2,4.9,9.1 c8.4-0.4,16.6-1.9,25-2.3c2.8-0.1,5.6-0.1,8.4,0.1C805.6,122.5,803,118.5,801.1,114.1z"/></g><g><path fill="#FBE0BA" d="M772.2,149c1.9-5.1,2.9-10.3,2.8-13.7c-0.6-24-38.6-37.5-56.1-24.2c-6.4,4.9-15.2,14.5-13.8,23.2 c2,12.8,21.8,8.7,30.3,11.3c9.7,3,10,13.6,18.5,17C762.6,166.2,768.9,157.9,772.2,149z"/><path fill="#FBE0BA" d="M718.9,111.1c-6.4,4.9-15.2,14.5-13.8,23.2c2,12.8,21.8,8.7,30.3,11.3c9.7,3,10,13.6,18.5,17 c8.7,3.5,14.9-4.8,18.3-13.7c1.9-5.1,2.9-10.3,2.8-13.7C774.4,111.3,736.4,97.8,718.9,111.1z M752.5,146.4 c-5.5-0.5-5.3-5.6-3.9-10.6c-3.7,3.1-7.6,6-11.5,3.3c-4.2-3-4.2-7-2.9-11.1c-1.4,1.4-2.6,3-3.9,4.8c-1.5,2.2-3,3.7-5.4,4.9 c-3.7,1.7-10.4-0.1-12.8-3.2c-2.8-3.6-0.8-11.8,1.5-15c3.4-4.8,9.3-7.9,14.8-9.7c10.2-3.3,23.2-1.7,31.6,5.2 c4.6,3.8,7.2,10.3,7.2,16.3C767.2,139.9,761.9,147.3,752.5,146.4z"/><path fill="#E96F42" d="M768.6,155.6c-6.4-3.8-10.5,1.8-13.9,6.8c0,0.4,0.1,0.8,0.1,1.2c-6.9,9-16.6,25.8-2.5,28.1 c5.3,0.9,9.2-2.7,11.8-7.1c4.1,4.9,11.3,0.5,13.2-5.8C776.9,170.2,773.8,161.5,768.6,155.6z"/><path fill="#BD4B23" d="M768.6,155.6c-6.4-3.8-10.5,1.8-13.9,6.8c0,0.4,0.1,0.8,0.1,1.2c-6.9,9-16.6,25.8-2.5,28.1 c5.3,0.9,9.2-2.7,11.8-7.1c4.1,4.9,11.3,0.5,13.2-5.8C776.9,170.2,773.8,161.5,768.6,155.6z M760.2,176.8 c-1.3,3.6-3.1,8.9-7.2,10.1c-4.9,1.5-5.8-5.1-4.7-8.3c1.8-5.1,5.4-9.3,7.5-14.2c0.7-1.7,2.3-2.2,3.5-1.9c1.6-0.8,3.5-0.5,3.6,1.8 C763.2,168.3,761.6,173,760.2,176.8z M770.8,171.6c-0.2,2-3.9,5.7-5.3,2.7c-1.3-2.7-1.3-5.4-1.3-8.4c-0.1-2.9,4.3-4.9,5.4-2.5 c0.5,0.2,0.9,0.7,1,1.5C770.9,167.2,771,169.4,770.8,171.6z"/><g><path fill="#FBE0BA" d="M724.5,115.8c-2.4,1-5.4,3.5-6.7,6.3c-0.6,0.8-1.2,1.6-1.6,2.6c-1.1,2.4-1.3,6.3,1.9,7.1 c5.8,1.6,12.5-6,14.2-10.8C734.7,114.9,728.8,113.9,724.5,115.8z"/><path fill="#FBE0BA" d="M746.9,117.8c-2.1-0.8-4.5,1-5.9,2.3c-0.7,0.6-1.2,1.6-1.5,2.6c-0.2,0.3-0.4,0.4-0.5,0.7 c-0.5,0.9-1.2,2.6-0.1,3.5c3.3,2.7,8.3-0.9,9.6-4.2C749.2,121,748.9,118.6,746.9,117.8z"/><path fill="#FBE0BA" d="M758.2,127.5c-2.8,0.1-6.1,6-2.4,5.9C758.7,133.4,761.9,127.4,758.2,127.5z"/></g></g><g><path fill="#FBE0BA" d="M632.4,221c-0.1,4.7,0.6,9.3,1.7,12.1c7.5,19.6,42.7,19.6,53.2,3.6c3.9-5.9,8.3-16.4,4.6-23.2 c-5.4-9.9-20.5-0.8-28.3-0.5c-8.8,0.4-12.2-8.3-20.2-8.6C635.3,203.9,632.6,212.6,632.4,221z"/><path fill="#FBE0BA" d="M687.3,236.6c3.9-5.9,8.3-16.4,4.6-23.2c-5.4-9.9-20.5-0.8-28.3-0.5c-8.8,0.4-12.2-8.3-20.2-8.6 c-8.2-0.3-10.9,8.3-11.1,16.7c-0.1,4.7,0.6,9.3,1.7,12.1C641.5,252.6,676.8,252.7,687.3,236.6z M649.4,217.4 c4.6-1.2,6,3.1,6.3,7.6c2.1-3.6,4.6-7.2,8.5-6c4.4,1.2,5.5,4.6,5.6,8.3c0.7-1.6,1.3-3.2,1.8-5.1c0.6-2.3,1.3-3.9,3-5.6 c2.5-2.5,8.6-3,11.5-1.1c3.4,2.2,4.1,9.4,3.2,12.8c-1.4,5-5.3,9.2-9.3,12.3c-7.4,5.7-18.7,8.2-27.6,4.9c-4.9-1.8-9-6.4-10.7-11.3 C639.1,227,641.4,219.3,649.4,217.4z"/><path fill="#E96F42" d="M633.5,214.4c6.4,1.3,8.1-4.5,9.5-9.6c-0.2-0.3-0.3-0.6-0.5-0.9c3-9.4,6.2-26.1-6.1-23.9 c-4.6,0.8-6.8,4.9-7.6,9.3c-4.8-2.8-9.4,2.9-9.2,8.6C622.3,204.8,627.4,211.1,633.5,214.4z"/><path fill="#BD4B23" d="M633.5,214.4c6.4,1.3,8.1-4.5,9.5-9.6c-0.2-0.3-0.3-0.6-0.5-0.9c3-9.4,6.2-26.1-6.1-23.9 c-4.6,0.8-6.8,4.9-7.6,9.3c-4.8-2.8-9.4,2.9-9.2,8.6C622.3,204.8,627.4,211.1,633.5,214.4z M634.2,194.5c0-3.3-0.1-8.2,3-10.4 c3.6-2.6,6.3,2.5,6.3,5.5c0,4.8-1.7,9.2-2,13.9c-0.1,1.6-1.2,2.5-2.3,2.6c-1.1,1.1-2.7,1.4-3.5-0.4 C634.2,202.4,634.1,198,634.2,194.5z M627,201.9c-0.4-1.7,1.5-5.8,3.6-3.7c1.9,1.8,2.6,4.1,3.5,6.5c0.9,2.4-2.2,5.3-3.8,3.6 c-0.5,0-0.9-0.3-1.3-0.9C628.2,205.6,627.5,203.8,627,201.9z"/><g><path fill="#FBE0BA" d="M681.4,234.4c1.7-1.6,3.5-4.5,3.7-7.1c0.3-0.8,0.5-1.7,0.6-2.6c0.2-2.3-0.7-5.5-3.7-5.3 c-5.2,0.4-8.5,8.6-8.6,13C673.2,238.1,678.3,237.2,681.4,234.4z"/><path fill="#FBE0BA" d="M662.3,239.2c2,0.1,3.4-2.1,4.2-3.6c0.4-0.7,0.5-1.7,0.5-2.6c0.1-0.3,0.2-0.5,0.2-0.8 c0.2-0.9,0.2-2.5-0.9-2.9c-3.5-1.2-6.5,3.1-6.7,6.3C659.5,237.3,660.4,239.2,662.3,239.2z"/><path fill="#FBE0BA" d="M650.2,234.5c2.3-0.9,3.3-6.7,0.3-5.6C648.1,229.9,647.2,235.7,650.2,234.5z"/></g></g></g></g><rect width="602.7" height="1080" x="238.6" y="-238.6" fill="none" transform="matrix(-1.836970e-16 1 -1 -1.836970e-16 841.3556 -238.6444)"/></svg>