<?xml version="1.0" encoding="utf-8"?>
<!-- Generator: Adobe Illustrator 23.0.5, SVG Export Plug-In . SVG Version: 6.00 Build 0)  -->
<svg version="1.1" id="Layer_1" xmlns:v="https://vecta.io/nano"
	 xmlns="http://www.w3.org/2000/svg" xmlns:xlink="http://www.w3.org/1999/xlink" x="0px" y="0px" viewBox="0 0 261.5 134"
	 style="enable-background:new 0 0 261.5 134;" xml:space="preserve">
<style type="text/css">
	.st0{fill:#FFFFFF;}
	.st1{fill:#B7A9A7;}
	.st2{fill:#A7AA35;}
	.st3{fill:#8E8E2D;}
	.st4{fill:#AA6130;}
	.st5{fill:#C4733B;}
	.st6{fill:#823E21;}
	.st7{fill:#FCC786;}
	.st8{fill:#FFE4A9;}
	.st9{fill:#529E9E;}
	.st10{fill:#6BC6C4;}
	.st11{fill:#80E5E0;}
	.st12{opacity:0.4;fill:#70301A;enable-background:new    ;}
	.st13{fill:#A04C32;}
	.st14{fill:#70301A;}
	.st15{fill:#D6B380;}
	.st16{fill:#367775;}
	.st17{fill:#E0BE90;}
	.st18{fill:#BC935E;}
	.st19{fill:#F9DF9B;}
	.st20{fill:#EA6849;}
	.st21{fill:#F2C994;}
	.st22{fill:#DD9666;}
	.st23{fill:#F7CB7F;}
	.st24{fill:#EAC18B;}
	.st25{fill:#FFE4AE;}
	.st26{fill:#9B7D5C;}
	.st27{fill:#7F6144;}
	.st28{fill:#D8553A;}
	.st29{fill:#265957;}
	.st30{fill:#FF7757;}
	.st31{fill:#FFEEC5;}
	.st32{fill:#FFF797;}
	.st33{fill:#FD5A71;}
	.st34{fill:#D3D333;}
	.st35{fill:#D36D1A;}
	.st36{fill:#EFBCAB;}
	.st37{fill:#BC915C;}
	.st38{fill:#FFCB39;}
	.st39{fill:#FFDD50;}
	.st40{fill:#FCF27C;}
	.st41{fill:#F9BB23;}
	.st42{fill:#F4A414;}
	.st43{fill:#E08820;}
	.st44{fill:#5CB7A8;}
	.st45{fill:#85DDD0;}
	.st46{fill:#D6BA96;}
	.st47{fill:#FFF3C2;}
	.st48{fill:#936047;}
	.st49{fill:#663929;}
	.st50{fill:#C9947F;}
	.st51{fill:#FFEF5F;}
	.st52{fill:#F26A27;}
	.st53{opacity:0.6;fill:#83D6C6;enable-background:new    ;}
	.st54{fill:#EF6D3A;}
	.st55{fill:#DD562C;}
	.st56{fill:#A55723;}
	.st57{fill:#D3842D;}
	.st58{fill:#FFAD40;}
	.st59{fill:#ED9832;}
	.st60{fill:#FFCE43;}
	.st61{fill:#75634C;}
	.st62{fill:#544232;}
	.st63{fill:#6B5844;}
	.st64{fill:#EFDBCE;}
	.st65{fill:#ADD647;}
	.st66{fill:#C69967;}
	.st67{fill:#EFCA9A;}
	.st68{fill:#DDB483;}
	.st69{fill:#FFD3A4;}
	.st70{fill:#FFDEC0;}
	.st71{fill:#AA694D;}
	.st72{opacity:0.2;fill:#E2815A;enable-background:new    ;}
	.st73{fill:#F4384B;}
	.st74{opacity:0.55;}
	.st75{opacity:0.3;}
	.st76{fill:#650000;}
	.st77{fill:#FBBE25;}
	.st78{opacity:0.25;}
	.st79{fill:#F9B800;}
</style>
<g>
	<path class="st0" d="M154.5,130.7c-10.7-1-21.6-3.7-19.5-7.8c2.1-4.1-3.9-15.3-9.6-4.7c0,0-15.9-7.3-8.9,4.6c0,0-27.1,3.2-8.3,8.8
		L154.5,130.7z"/>
	<g>
		<g>
			<polygon class="st1" points="40.3,55.1 40.7,55.1 41.9,71.4 41.4,71.4 			"/>
			<polygon class="st1" points="69.6,62.1 70,62.1 71.2,78.4 70.7,78.4 			"/>
			<polygon class="st1" points="77.9,63.7 31.3,56.8 31.3,56.2 77.9,63.2 			"/>
		</g>
		<rect x="57.9" y="129.1" class="st2" width="36.9" height="2.1"/>
		<rect x="0.3" y="129.1" class="st3" width="36.9" height="2.1"/>
		<polygon class="st4" points="12.5,130.4 10,83.4 83.2,81.3 82.7,129.2 		"/>
		<polygon class="st5" points="29.4,130.4 83.2,81.3 82.7,129.2 		"/>
		<path class="st4" d="M53.8,119.9c-0.9,0-2.5,2.2-0.2,2.3C56.7,122.4,56.9,119.9,53.8,119.9z"/>
		<path class="st4" d="M53.2,110.8c-0.9,0-2.5,2.9-0.2,3.1C56.1,114.2,56.2,110.8,53.2,110.8z"/>
		<path class="st4" d="M55.4,114.3c-0.6,0-1.5,1.8-0.1,1.9C57.2,116.4,57.3,114.2,55.4,114.3z"/>
		<path class="st5" d="M40.5,116.2c-0.9,0-2.5,2.2-0.2,2.3C43.4,118.7,43.6,116.2,40.5,116.2z"/>
		<path class="st4" d="M55.6,122.7c-1.2,0-3.3,3.6-0.2,3.9C59.5,126.9,59.7,122.6,55.6,122.7z"/>
		<path class="st4" d="M43.6,123.2c-1.2,0-3.3,3.6-0.2,3.9C47.5,127.4,47.7,123.1,43.6,123.2z"/>
		<path class="st4" d="M67.4,119.4c-1.1,0-2.8,3.5-0.2,3.7C70.7,123.5,70.9,119.3,67.4,119.4z"/>
		<path class="st4" d="M62,121.3c-0.6,0-1.7,2.2-0.1,2.3C64,123.8,64.1,121.2,62,121.3z"/>
		<path class="st4" d="M81.4,109.1c-0.5,0-1.3,2-0.1,2.2C83,111.4,83.1,109,81.4,109.1z"/>
		<path class="st4" d="M72.8,117.3c-1.5,0-4.1,3.8-0.3,4C77.6,121.7,77.8,117.2,72.8,117.3z"/>
		<path class="st4" d="M78.2,111.7c-1.3,0-3.4,4.4-0.2,4.7C82.2,116.8,82.4,111.6,78.2,111.7z"/>
		<polygon class="st6" points="38.8,92.9 41.6,125.2 54.4,125.1 53.2,91.5 		"/>
		<polygon class="st7" points="39.8,93.5 42.2,124.3 54,124.2 53,92.2 		"/>
		<polygon class="st8" points="40.6,102 42.2,124.3 53.8,121.3 53,92.2 		"/>
		<polygon class="st9" points="40.7,94.4 43.1,123.5 53.3,123.4 52.5,93 		"/>
		<polygon class="st10" points="41,94.9 43.1,123.5 52.5,123 51.8,94 		"/>
		<polygon class="st11" points="47.7,94.4 41.9,106 42.5,113.3 51.8,99.7 51.8,94.2 		"/>
		<polygon class="st11" points="42.9,118 52.2,106.5 52.1,110.9 45.1,123.1 43.3,123.2 		"/>
		<polygon class="st9" points="42.1,110.2 52.9,109.7 52.9,111.4 42.2,111.6 		"/>
		<polygon class="st6" points="55.5,92.2 56.3,116.5 79.7,117.4 81.5,92.7 		"/>
		<polygon class="st7" points="56,93.2 56.9,115.8 78.7,116.7 80.4,93.7 		"/>
		<polygon class="st8" points="62.3,93.5 56.9,115.8 73.9,116.5 78.5,94 		"/>
		<polygon class="st9" points="56.8,94 57.6,115 77.9,115.8 79.5,94.5 		"/>
		<polygon class="st10" points="57.1,94.4 57.8,114.8 77.2,115.6 78.6,94.9 		"/>
		<path class="st11" d="M78.5,97.4c-0.1,0.1-7.9,9.9-14.1,17.6c-1.8,0-6.6-0.3-6.6-0.3l-0.1-6.5l19.2-13.6l1.7,0.2L78.5,97.4z"/>
		<path class="st11" d="M73.7,94.8c-1.7,1-16.2,8.9-16.2,8.9l-0.4-5.6l13.7-3.5L73.7,94.8z"/>
		<polygon class="st9" points="78.6,100.7 57.1,100.4 57.1,101.6 78.6,102 		"/>
		<polygon class="st7" points="79.3,100.8 56.7,100 56.7,100.6 79.3,101.4 		"/>
		<path class="st6" d="M81.4,130c0.6-3.8,3.6-9-0.5-9.8c-3.2-0.6-13.3,2-17.6,3.1c-1.2,0.3-2.2,1.6-2.5,3.3l-0.6,3.6L81.4,130z"/>
		<path class="st12" d="M82.8,89.3c-2-7-5-13.8-6.8-12.1c0-0.1-32.7-3.7-34.2-2.6c-13.9,1.2-9.1,15.8-9.1,15.8
			c0.1,6.6,15.3,7.7,15.3,2c1.4,4.5,13.3,5.3,12.9,0.1c2.8,4.1,11.1,4.9,11.8,0.6C75.7,97.4,84.8,96.1,82.8,89.3z"/>
		<polygon class="st6" points="12.5,130.4 10,83.4 33.5,78 39.2,129.2 		"/>
		<path class="st13" d="M13.5,105.2c0.9-0.5,1.4-0.1,1.3,1.1c0,1.2-1,1.8-1.6,1.8C12.7,108.1,12.4,105.7,13.5,105.2z"/>
		<polygon class="st14" points="34.6,85.1 32.7,85.3 35.2,130.7 39.3,130.7 		"/>
		<polygon class="st14" points="26.9,103.4 15.6,101.7 17.4,116.3 26.8,116.1 		"/>
		<polygon class="st15" points="26.6,103 17.4,101.5 18.9,116.3 26.6,116 		"/>
		<polygon class="st9" points="26.2,102.9 18.5,103 19.8,115.3 26.2,115 		"/>
		<polygon class="st16" points="19.2,107.6 26,104 25.9,102.4 18.9,103.4 		"/>
		<polygon class="st15" points="8.7,93 8,78.9 29.1,65.9 38.2,88.6 		"/>
		<polygon class="st17" points="8.7,93 8,78.9 29.1,65.9 		"/>
		<polygon class="st18" points="33.8,89 29.1,65.9 38.2,88.6 		"/>
		<polygon class="st19" points="29.1,65.9 80.9,71.6 86.1,86.8 38.2,88.6 		"/>
		<path class="st20" d="M76.1,87.4c1.8,5.9,12,7,10-0.6C83.9,78.3,76.1,87.4,76.1,87.4z"/>
		<path class="st19" d="M64.5,87.1c2.2,5.9,14.5,7.1,12-0.5C73.9,78.1,64.5,87.1,64.5,87.1z"/>
		<path class="st20" d="M51.2,87.3c2.5,5.9,16.3,7.1,13.6-0.5C61.8,78.3,51.2,87.3,51.2,87.3z"/>
		<polygon class="st20" points="71.7,70.5 76.9,88.9 86.1,86.6 80.9,71.6 		"/>
		<polygon class="st20" points="44.3,67.5 51.5,87.3 64.9,87.4 57.9,69.3 		"/>
		<polygon class="st21" points="38.1,88.2 7.2,92 7.9,94 38.7,89.1 		"/>
		<path class="st19" d="M38.1,88.2c2.5,5.9,16.3,7.1,13.6-0.5C48.6,79.2,38.1,88.2,38.1,88.2z"/>
		<rect x="29.8" y="126.8" class="st22" width="46.6" height="4.4"/>
		<rect x="41.9" y="126.5" class="st23" width="23.7" height="3.6"/>
		<path class="st2" d="M88,131c0.6-5.5,3.4-13.1-0.5-14.1c-3.1-0.8-12.7,2.9-16.8,4.5c-1.2,0.5-2.1,2.3-2.4,4.8l-0.4,4.9L88,131z"/>
		<polygon class="st15" points="9.9,99.6 16.6,110.7 16.6,109.8 10.2,99.1 		"/>
		<polygon class="st24" points="27.7,115.7 15.9,115.3 16.3,116.9 27.7,116.8 		"/>
		<polygon class="st25" points="24.7,115.8 20.7,115.6 20.8,116.8 24.7,116.8 		"/>
		<polygon class="st26" points="12.2,81.4 17.3,78.4 18.6,86.7 12.7,87.3 		"/>
		<polygon class="st27" points="12.9,81.7 17.3,79.3 18.4,86.5 13.3,87.1 		"/>
		<polygon class="st15" points="11.9,82.5 17.9,79.6 17.9,80.4 12.1,82.9 		"/>
		<polygon class="st15" points="11.9,84.1 18.1,81.5 18.2,82.3 12.1,84.5 		"/>
		<polygon class="st15" points="12.1,85.8 18.5,84 18.6,84.8 12.3,86.3 		"/>
		<polygon class="st8" points="41.7,109.7 53.2,109.1 53.2,110.8 41.8,110.9 		"/>
		<path class="st6" d="M32.5,108.5c1.5-0.4,2.4,0.2,2.5,1.5c0.2,1.4-1.4,1.8-2.4,1.7C31.6,111.7,30.8,108.9,32.5,108.5z"/>
		<path class="st13" d="M31.1,113.7c1-1.2,1.8-0.8,2.2,1.1c0.5,1.9-0.6,3.2-1.3,3.5C31.3,118.5,30,115,31.1,113.7z"/>
		<path class="st13" d="M27,94.3c-0.4-1.7,0.4-2.6,2.5-2.6s2.6,1.8,2.4,2.9C31.6,95.7,27.5,96.3,27,94.3z"/>
		<path class="st13" d="M12,95.9c-0.4-1.7,0.4-2.6,2.5-2.6s2.6,1.8,2.4,2.9C16.6,97.3,12.5,97.9,12,95.9z"/>
		<path class="st13" d="M30.7,103.4c0.7-0.8,1.2-0.6,1.6,0.8c0.3,1.3-0.4,2.2-0.9,2.4C30.8,106.8,29.9,104.3,30.7,103.4z"/>
		<path class="st13" d="M29.1,110.2c0.9-0.5,1.4-0.1,1.3,1.1c0,1.2-1,1.8-1.6,1.8C28.3,113.1,28.1,110.8,29.1,110.2z"/>
		<path class="st13" d="M26,118.3c0.9-0.5,1.4-0.1,1.3,1.1c0,1.2-1,1.8-1.6,1.8C25.2,121.2,25,118.9,26,118.3z"/>
		<path class="st13" d="M13.7,116.1c0.9-0.5,1.4-0.1,1.3,1.1c0,1.2-1,1.8-1.6,1.8C12.9,119,12.7,116.7,13.7,116.1z"/>
		<path class="st13" d="M29.4,100c0.6-0.3,0.8-0.1,0.8,0.7c0,0.8-0.6,1.1-1,1.1C28.9,101.8,28.8,100.4,29.4,100z"/>
		<path class="st13" d="M33.6,109.3c0.6-0.3,0.8-0.1,0.8,0.7c0,0.8-0.6,1.1-1,1.1C33.1,111.1,33,109.6,33.6,109.3z"/>
		<path class="st13" d="M15.1,112.7c0.6-0.3,0.8-0.1,0.8,0.7c0,0.8-0.6,1.1-1,1.1C14.6,114.5,14.5,113,15.1,112.7z"/>
		<path class="st13" d="M33,119.1c0.5-0.6,0.9-0.4,1.2,0.6s-0.3,1.6-0.7,1.8C33.1,121.6,32.4,119.8,33,119.1z"/>
		<path class="st13" d="M28.2,119.2c0.3-1.5,1.2-1.6,2.5-0.1s1,3.1,0.5,3.7C30.6,123.3,27.8,120.9,28.2,119.2z"/>
		<path class="st13" d="M19.7,119.5c-1.1-1.1-0.7-1.8,1.3-2.2c1.9-0.3,3.1,0.8,3.4,1.6C24.5,119.7,20.9,120.8,19.7,119.5z"/>
		<path class="st6" d="M34.8,105c0.8-0.3,1.2,0.1,1.3,1.4s-0.8,1.7-1.3,1.6S33.8,105.4,34.8,105z"/>
		<polygon class="st16" points="19.6,109.5 20.2,114.9 26.1,114.8 26,109 		"/>
		<polygon class="st15" points="18.8,109.2 26.4,108.1 26.2,109.1 18.9,109.8 		"/>
		<polygon class="st24" points="21,100.1 27.1,110.5 27.2,109.5 21.4,99.7 		"/>
		<path class="st21" d="M7.2,104.6c0.1-2.5,1.2-8.9,11-10.5c5.7-0.9,9.4,9.6,9.4,9.6L7.2,104.6z"/>
		<path class="st28" d="M15.8,100.1c0-2.3,0.9-4.4,2.2-6C8.3,95.7,7.2,102,7.1,104.5l9.6-0.4C16.2,102.9,15.8,101.6,15.8,100.1z"/>
		<polygon class="st29" points="21.5,109.6 21.7,114.8 26.1,114.8 26,109 		"/>
		<path class="st25" d="M16.8,104.1c-1.2-2.8-1.6-5.6-0.1-7.8c1.5-2.2,4.8,7.7,4.8,7.7L16.8,104.1z"/>
		<path class="st4" d="M57.5,117.2c-0.9,0-2.5,2.2-0.2,2.3C60.4,119.7,60.6,117.2,57.5,117.2z"/>
		<path class="st4" d="M60.2,119.1c-0.7,0-1.9,1.9-0.1,2C62.5,121.3,62.6,119.1,60.2,119.1z"/>
		<path class="st4" d="M64,117.1c-1.1,0-2.8,3.5-0.2,3.7C67.3,121.1,67.4,117,64,117.1z"/>
		<path class="st3" d="M6.6,130.9c-1-5.1-6.3-12.3,1-13.3c5.6-0.8,23.8,2.7,31.4,4.2c2.2,0.5,3.7,1.3,4.2,3.5l0.7,5.9L6.6,130.9z"/>
		<path class="st2" d="M32.3,131c-0.2-3.3-1.2-7.6,0.3-8.7c1.3-0.9,6.4,0.2,9.2,0.8c0.9,0.2,1.6,1.6,1.8,3.6l0.5,4.5L32.3,131z"/>
		<path class="st30" d="M73.1,71.2c2.7,8.5,3.4,19,11.3,18.8c3.4-0.1-4-18-4-18L73.1,71.2z"/>
		<path class="st30" d="M47,68.8c2.9,8.8,4.8,20.9,14.2,20.3C66,88.8,57,69.9,57,69.9L47,68.8z"/>
		<path class="st31" d="M59.5,69.7c2.9,8.8,4.8,20.9,14.2,20.3c4.8-0.3-3.2-18.9-3.2-18.9L59.5,69.7z"/>
		<path class="st31" d="M31.4,67.2c3.5,9.4,6,22.5,16.3,21.9c5.3-0.3-4.1-20.3-4.1-20.3L31.4,67.2z"/>
		<path class="st15" d="M53.4,109.5c0-0.4-0.4-0.8-1-0.8s-1,0.3-1,0.8c0,0.4,0.4,0.8,1,0.8C53,110.2,53.4,109.9,53.4,109.5z"/>
		<path class="st8" d="M53.4,109.1c0-0.3-0.3-0.6-0.8-0.6c-0.4,0-0.8,0.3-0.8,0.6c0,0.3,0.3,0.6,0.8,0.6
			C53.1,109.7,53.4,109.4,53.4,109.1z"/>
		<polygon class="st9" points="44.1,114.3 43.9,116.8 51.4,117 51.1,113.7 		"/>
		<polygon class="st32" points="44.4,113.9 44.1,116.4 51.6,116.7 51.3,113.4 		"/>
		<g>
			<polygon class="st32" points="44.5,114 44.4,113.9 47.5,110.6 51.3,113.5 51.2,113.6 47.5,110.8 			"/>
		</g>
		<path class="st9" d="M45,114.3c0-0.1-0.1-0.3-0.3-0.3s-0.3,0.1-0.3,0.3c0,0.1,0.1,0.3,0.3,0.3C44.9,114.5,45,114.4,45,114.3z"/>
		<path class="st9" d="M51.2,113.9c0-0.1-0.1-0.3-0.3-0.3s-0.3,0.1-0.3,0.3c0,0.1,0.1,0.3,0.3,0.3C51.1,114.2,51.2,114,51.2,113.9z"
			/>
		<g>
			<path class="st33" d="M29.3,45.9c0.7,0.1,1.4,0.1,2.1,0.2c0.8,0.1,1.5,0.2,2.2,0.3c0.7,0.1,1.4,0.2,2,0.3s1.1,0.2,1.6,0.3
				c0.7,0.2,1.3,0.5,1.8,0.9s0.9,0.9,1.3,1.6c0.3,0.5,0.5,1.1,0.7,1.8s0.3,1.6,0.4,2.7c0,0.6,0.1,1.1,0.1,1.5s0,0.8-0.1,1.1
				c0,0.3-0.1,0.6-0.2,0.8c-0.1,0.2-0.2,0.4-0.3,0.6c-0.2,0.3-0.5,0.5-0.9,0.7c-0.3,0.2-0.8,0.2-1.4,0.1c-0.4-0.1-0.8-0.1-1.2-0.2
				c-0.4-0.1-0.8-0.2-1.2-0.3S35.4,58.1,35,58s-0.8-0.2-1.1-0.3c0,0.7,0,1.4,0,2.1c0,0.7,0,1.5,0.1,2.2c-0.5,0-1.1,0-1.7-0.1
				c-0.6,0-1.1-0.1-1.7-0.2L29.3,45.9z M31.6,52.2c0,0.3,0,0.6,0,0.8c0,0.3,0,0.6,0,0.9c0.5,0.1,1,0.3,1.6,0.4
				c0.6,0.1,1.1,0.3,1.7,0.4c0.6,0.1,1.1,0.2,1.5,0.4c0.5,0.1,0.8,0.2,1.1,0.2c0.2,0,0.4,0,0.6-0.2c0.2-0.2,0.2-0.4,0.2-0.8
				c0-0.4-0.1-0.7-0.3-0.9s-0.4-0.3-0.8-0.4c-0.3-0.1-0.7-0.1-1.2-0.2c-0.5-0.1-1-0.2-1.6-0.2c-0.6-0.1-1.1-0.1-1.6-0.2
				C32.3,52.3,31.9,52.3,31.6,52.2z"/>
			<path class="st33" d="M44.5,63.8c-0.2-2.6-0.4-5.1-0.7-7.7c-0.3-2.5-0.6-5.1-0.9-7.7c1.2,0.3,2.3,0.7,3.4,1.2
				c0,2.4,0.1,4.8,0.1,7.2c0,2.3,0,4.6,0,6.8c-0.3,0.1-0.6,0.1-0.9,0.2C45.2,63.8,44.8,63.8,44.5,63.8z"/>
			<path class="st33" d="M49.5,64.9c-0.1-0.6-0.2-1.2-0.2-1.8c-0.1-0.6-0.1-1.2-0.2-1.9c0.9-0.9,1.8-1.7,2.7-2.5s1.8-1.4,2.7-2
				c-1-0.2-2-0.4-3-0.5c-1-0.2-2-0.3-3.1-0.4c-0.1-1-0.1-2-0.1-2.9s0-1.9,0-2.8c1,0.2,2,0.3,2.9,0.5s1.9,0.4,2.9,0.6
				c0.5,0.1,1,0.2,1.5,0.4c0.5,0.1,1,0.3,1.5,0.4c0.2,0.8,0.4,1.6,0.6,2.4c0.2,0.8,0.3,1.6,0.4,2.4c-1.1,0.7-2.2,1.4-3.2,2.2
				c-1.1,0.7-2.1,1.6-3.2,2.5c1.1,0.1,2.2,0.2,3.3,0.2c1,0,2,0,3,0c0.1,0.6,0.1,1.3,0.2,2c0,0.7,0.1,1.4,0.1,2.1
				c-1.4,0-2.8-0.1-4.3-0.2C52.6,65.3,51.1,65.1,49.5,64.9z"/>
			<path class="st33" d="M60.7,66.6c-0.1-0.5-0.1-1.1-0.2-1.7c-0.1-0.6-0.1-1.2-0.1-1.8c0.8-0.8,1.6-1.6,2.5-2.3
				c0.8-0.7,1.6-1.4,2.5-1.9c-0.9-0.2-1.7-0.3-2.6-0.5c-0.9-0.1-1.8-0.3-2.7-0.3C60,57.2,60,56.2,60,55.4c0-0.9,0-1.8,0-2.6
				c0.9,0.1,1.8,0.3,2.6,0.4c0.8,0.2,1.7,0.3,2.5,0.5c0.4,0.1,0.9,0.2,1.3,0.3s0.9,0.2,1.3,0.4c0.2,0.8,0.4,1.5,0.5,2.2
				s0.3,1.5,0.4,2.2c-1,0.7-1.9,1.4-2.9,2.1c-1,0.7-1.9,1.5-2.9,2.4c1,0.1,2,0.1,2.9,0.1s1.8,0,2.7-0.1c0.1,0.6,0.1,1.2,0.2,1.9
				c0,0.6,0.1,1.3,0.1,2c-1.2,0-2.5-0.1-3.8-0.2C63.4,66.9,62.1,66.8,60.7,66.6z"/>
			<path class="st33" d="M78.5,68.7c-0.1,0-0.1,0-0.2,0s-0.1,0-0.2,0c-0.7-0.1-1.1-0.5-1.4-1.1c-0.1,0.2-0.2,0.4-0.2,0.5
				c-0.1,0.1-0.2,0.3-0.4,0.3c-0.2,0.1-0.3,0.1-0.6,0.1c-0.2,0-0.5,0-0.8,0c-0.2,0-0.4-0.1-0.8-0.2c-0.3-0.1-0.6-0.2-1-0.3
				c-0.3-0.1-0.7-0.3-1-0.5s-0.6-0.4-0.9-0.7c-0.6-0.7-1-1.6-1-2.8c0-1.1,0.1-1.9,0.6-2.4c0.4-0.5,1.1-0.7,2-0.5
				c0.4,0.1,0.9,0.2,1.5,0.3c0.5,0.1,1,0.3,1.5,0.5c0.3,0.1,0.5,0.2,0.7,0.4s0.3,0.4,0.4,0.8c0-0.2,0-0.4,0-0.6
				c0-0.5-0.1-0.9-0.4-1.2c-0.2-0.2-0.6-0.4-1.1-0.5c-0.3-0.1-0.6-0.1-1-0.2c-0.4-0.1-0.8-0.1-1.3-0.2c-0.4-0.1-0.9-0.1-1.4-0.1
				s-0.9-0.1-1.3-0.1c0-0.3-0.1-0.7-0.1-1s0-0.7-0.1-1c0-0.5,0-0.9,0-1.4s0-0.9,0-1.4c0.4,0,0.8,0.1,1.3,0.2
				c0.5,0.1,0.9,0.1,1.3,0.2c0.4,0.1,0.8,0.2,1.2,0.2c0.4,0.1,0.7,0.1,1,0.2c0.9,0.2,1.5,0.7,2,1.5c0.4,0.8,0.7,1.9,0.7,3.4
				c0,0.8,0,1.5,0.1,2.3c0,0.8,0,1.5,0.1,2.3c0,0.7,0.1,1.3,0.1,1.7C78.3,68,78.3,68.4,78.5,68.7z M76.6,65.7c0.1,0,0.2,0,0.3-0.1
				C77,65.4,77,65.3,77,65s0-0.5-0.1-0.7S76.7,64,76.6,64c-0.2-0.1-0.5-0.2-0.8-0.2c-0.3-0.1-0.7-0.2-1-0.3s-0.7-0.2-1-0.2
				c-0.3-0.1-0.5-0.1-0.7-0.2c-0.3,0-0.4,0.3-0.3,1c0,0.4,0.2,0.7,0.5,0.8c0.2,0.1,0.4,0.1,0.7,0.2c0.3,0.1,0.6,0.1,0.9,0.2
				s0.6,0.1,0.9,0.2C76,65.6,76.3,65.6,76.6,65.7z"/>
		</g>
		<path class="st34" d="M89.5,119.2c0.4,2.6-0.6,3.8-13.9,5.3l-6.2-1.3C69.4,123.2,88.4,111.4,89.5,119.2z"/>
		<path class="st3" d="M77.2,131.2c-0.4-3.1-0.4-6.5-1.3-7.5c-0.8-0.9-4-0.9-6-0.9c-0.7,0-1.3,1.2-1.6,3.3l-0.5,5.2L77.2,131.2z"/>
		<path class="st2" d="M75.9,129.1c-0.7,0.5-1.7-0.7-1.8-1.6C74.1,127.5,76.4,127.9,75.9,129.1z"/>
		<path class="st2" d="M70.1,128.8c-0.9,0.1-1.2-1.4-1-2.2C69.2,126.6,71.1,127.8,70.1,128.8z"/>
		<path class="st3" d="M68.6,130c-0.8,0.3-1.5-1.1-1.4-1.9C67.1,128,69.3,128.9,68.6,130z"/>
		<path class="st3" d="M68.9,124.9c-0.9-0.2-0.7-1.7-0.1-2.4C68.8,122.5,70.1,124.4,68.9,124.9z"/>
		<path class="st3" d="M68.7,127c-0.7,0.5-1.7-0.7-1.8-1.6C66.9,125.4,69.2,125.7,68.7,127z"/>
		<path class="st2" d="M71.1,128.4c-0.7-0.6,0.2-1.8,1-2.2C72,126.2,72.4,128.5,71.1,128.4z"/>
		<path class="st2" d="M70.5,126.8c-0.9-0.1-0.9-1.6-0.5-2.3C69.9,124.5,71.6,126.1,70.5,126.8z"/>
		<path class="st2" d="M76,127.7c-0.9,0-0.9-1.6-0.5-2.3C75.4,125.4,77.1,127,76,127.7z"/>
		<path class="st3" d="M75.9,124.9c-0.8-0.4-0.1-1.8,0.6-2.3C76.5,122.6,77.2,124.8,75.9,124.9z"/>
		<path class="st2" d="M79.3,123.4c-0.6-0.7,0.5-1.8,1.3-2C80.7,121.4,80.6,123.7,79.3,123.4z"/>
		<path class="st2" d="M79.5,120.8c-0.7-0.5,0.1-1.8,0.9-2.2C80.4,118.6,80.8,120.9,79.5,120.8z"/>
		<path class="st2" d="M88.7,120.7c-0.6-0.7,0.5-1.8,1.3-2C90,118.6,89.9,120.9,88.7,120.7z"/>
		<path class="st2" d="M87.2,121.2c-0.8-0.3-0.5-1.8,0-2.4C87.2,118.8,88.4,120.8,87.2,121.2z"/>
		<path class="st2" d="M87.3,118.1c-0.9,0.1-1.3-1.3-1-2.2C86.2,116,88.2,117.2,87.3,118.1z"/>
		<path class="st2" d="M88.4,118.7c-0.8-0.3-0.4-1.8,0.3-2.4C88.7,116.3,89.7,118.4,88.4,118.7z"/>
		<path class="st2" d="M78.3,122.7c-0.9-0.1-0.9-1.6-0.4-2.4C77.9,120.3,79.5,122,78.3,122.7z"/>
		<path class="st3" d="M75.6,124.2c-0.9,0.2-1.3-1.3-1.1-2.1C74.5,122.1,76.5,123.3,75.6,124.2z"/>
		<path class="st34" d="M31.3,123.2c1.5,3.8,12.8,1.7,10.8,0.3C39.4,121.6,30.2,120.3,31.3,123.2z"/>
		<path class="st34" d="M35.9,127.8c-0.8,0.3-1.5-1.1-1.4-2C34.6,125.8,36.7,126.7,35.9,127.8z"/>
		<path class="st2" d="M32.3,126.5c-0.8,0.4-1.6-0.9-1.6-1.8C30.7,124.8,32.9,125.4,32.3,126.5z"/>
		<path class="st34" d="M31.9,122.2c-0.8,0.4-1.6-0.9-1.6-1.8C30.3,120.4,32.5,121,31.9,122.2z"/>
		<path class="st3" d="M26.9,120.4c-0.8,0.4-1.6-0.9-1.6-1.8C25.3,118.6,27.5,119.2,26.9,120.4z"/>
		<path class="st3" d="M10,117.8c-0.8,0.4-1.6-0.9-1.6-1.8C8.4,116,10.6,116.7,10,117.8z"/>
		<path class="st3" d="M7.8,117.2c-0.9,0.2-1.4-1.2-1.2-2.1C6.6,115.1,8.6,116.2,7.8,117.2z"/>
		<path class="st3" d="M7.4,118.4c-0.8,0.4-1.6-0.9-1.7-1.7C5.7,116.7,7.9,117.2,7.4,118.4z"/>
		<path class="st3" d="M4.9,120.3c-0.6,0.6-1.8-0.4-2.1-1.2C2.8,119.1,5.1,119,4.9,120.3z"/>
		<path class="st2" d="M7.8,123.3c-0.7,0.5-1.7-0.6-1.9-1.5C5.9,121.8,8.2,122,7.8,123.3z"/>
		<path class="st2" d="M8.5,122.1c-0.9,0.2-1.4-1.2-1.2-2.1C7.3,120,9.4,121.1,8.5,122.1z"/>
		<path class="st2" d="M10.3,122.9c-0.9-0.2-0.7-1.7-0.2-2.4C10.1,120.5,11.5,122.4,10.3,122.9z"/>
		<path class="st2" d="M17.8,121.8c-0.7-0.5,0-1.9,0.7-2.3C18.5,119.5,19.1,121.8,17.8,121.8z"/>
		<path class="st2" d="M16.6,121.8c-0.9-0.2-0.7-1.7-0.2-2.4C16.4,119.4,17.8,121.3,16.6,121.8z"/>
		<path class="st2" d="M15.8,123.2c-0.8,0.4-1.6-1-1.6-1.8C14.3,121.4,16.5,122,15.8,123.2z"/>
		<path class="st2" d="M17.7,126.2c-0.8,0.4-1.6-1-1.6-1.8C16.1,124.3,18.3,125,17.7,126.2z"/>
		<path class="st34" d="M32.6,121.2c-0.8-0.3-0.5-1.8,0.1-2.4C32.7,118.8,33.9,120.8,32.6,121.2z"/>
		<path class="st2" d="M31,127.7c-0.7,0.5-1.7-0.6-1.9-1.5C29.1,126.2,31.4,126.4,31,127.7z"/>
		<path class="st34" d="M37,128.5c-0.7-0.5,0.1-1.9,0.9-2.2C37.9,126.3,38.3,128.5,37,128.5z"/>
		<path class="st34" d="M35.8,129.4c-0.6,0.6-1.8-0.4-2.1-1.2C33.8,128.2,36.1,128.1,35.8,129.4z"/>
	</g>
	<g>
		<polygon class="st35" points="147.3,125.2 191.3,125.2 187.2,127.5 151.5,127.5 		"/>
		<path class="st36" d="M195.2,118.6c0.1-0.9,0.5-1.5,0.9-1.5c1,0,0.3,3.2-0.5,3.2C195.3,120.3,195.1,119.5,195.2,118.6z"/>
		<path class="st37" d="M194.9,118.6c0.2-1.2,0.6-2,0.9-2c1-0.1,0.2,4.2-0.6,4.3C194.8,120.9,194.7,119.8,194.9,118.6z"/>
		<path class="st38" d="M143.9,126.7c-2.6-9.3-0.4-29,0.8-29.4c13.1-4.1,38.9-3.7,38.4-1.8c-0.5,1.9,4.7,17.5,5.1,18.4
			c0.5,0.9,7.7,1.6,7.7,2.3c-0.1,3.9-1.9,8.7-2.7,10.4L143.9,126.7L143.9,126.7z"/>
		<path class="st39" d="M144.8,97.3c13.1-4.1,38.9-3.7,38.4-1.8c-0.5,1.9,4.7,17.5,5.1,18.4c0.5,0.9,7.7,1.6,7.7,2.3
			c-0.1,3.9-1.9,8.7-2.7,10.4C193.3,126.7,143.6,97.7,144.8,97.3z"/>
		<path class="st40" d="M183.1,95.9c-4.8-1.3-25.5-1.2-37.6,2.1c-0.6-0.4-0.9-0.7-0.8-0.7c13.1-4.1,38.9-3.7,38.4-1.8
			C183.1,95.6,183.1,95.7,183.1,95.9z"/>
		<path class="st41" d="M196,116.4c-0.1,3.9-1.9,8.6-2.7,10.3H144c-0.8-2.8-1.1-6.5-1.2-10.3H196z"/>
		<path class="st42" d="M142.8,118.2c0-0.3,0-1.5,0-1.8H196c0,0.3,0,0.7-0.1,1L142.8,118.2z"/>
		<path class="st39" d="M142.8,116.6c0-0.5,0-1,0-1.4l48.6,0.4c0,0.5,4.6,0.5,4.6,1H142.8z"/>
		<path class="st38" d="M159.1,126.8c0.6-2.6,0.8-5.6-2.1-5.6c-4-0.1-7.2,5.5-7.2,5.5L159.1,126.8z"/>
		<path class="st38" d="M190.3,126.8c0.6-2.6,0.8-5.6-2.2-5.6c-4.2-0.1-7.5,5.5-7.5,5.5L190.3,126.8z"/>
		<g>
			<path class="st43" d="M172.2,125.5l-0.6-12.1h15.1l-5.5,12.2L172.2,125.5z M171.9,113.7l0.6,11.6h8.5l5.2-11.6H171.9z"/>
		</g>
		<polygon class="st44" points="187,113.9 182.4,96.6 171.4,96.3 171.3,114 		"/>
		<polygon class="st45" points="186.7,113.3 182.6,97.8 173.1,97.5 172.9,112.6 		"/>
		<polygon class="st44" points="178.7,96.8 179.2,96.8 180.8,113.6 179.7,113.6 		"/>
		<path class="st43" d="M189.6,126.9c0.5-2.5,0.7-5.3-1.9-5.4c-3.6-0.1-6.4,5.5-6.4,5.5L189.6,126.9z"/>
		<path class="st43" d="M158.7,127c0.5-2.5,0.7-5.4-1.9-5.5c-3.6-0.1-6.4,5.4-6.4,5.4L158.7,127z"/>
		<polygon class="st46" points="190.6,125 195,125 194.4,127 190.3,127 		"/>
		<polygon class="st46" points="149.4,125.1 142.8,125.1 143.6,127.2 149.4,127.2 		"/>
		<polygon class="st47" points="149.1,125.1 143.1,125.1 143.9,126.8 149.1,126.8 		"/>
		<rect x="158.4" y="126.1" class="st46" width="23.8" height="0.8"/>
		<polygon class="st47" points="157.8,125.8 182.8,125.8 182.2,126.6 158.4,126.6 		"/>
		<g>
			<path class="st48" d="M187.1,123.5c-2.2-0.9-5.1,5.3-2.9,6.2C186,130.4,189.5,124.6,187.1,123.5z"/>
			<path class="st49" d="M184.8,124.7c-0.3,1.2-0.2,2.3,0.6,2.6c0.7,0.3,1.7-0.4,2.4-1.5c-0.5,2-2.4,4.4-3.6,3.9
				C182.8,129.2,183.5,126.4,184.8,124.7z"/>
			<path class="st50" d="M186.3,124.9c-0.9-0.5-2.4,2.7-1.5,3.2C185.7,128.6,187.5,125.5,186.3,124.9z"/>
			<path class="st36" d="M185.7,126.1c-0.2-0.1-0.5,0.1-0.8,0.4c0.2-0.7,0.8-1.6,1.2-1.4c0.5,0.2,0.2,1.1-0.2,1.7
				C186,126.5,185.9,126.2,185.7,126.1z"/>
		</g>
		<g>
			<path class="st48" d="M156.1,123.5c-2.2-0.9-5.1,5.3-2.9,6.2C155,130.4,158.5,124.6,156.1,123.5z"/>
			<path class="st49" d="M153.7,124.7c-0.3,1.2-0.2,2.3,0.6,2.6c0.7,0.3,1.7-0.4,2.4-1.5c-0.5,2-2.4,4.4-3.6,3.9
				C151.8,129.2,152.5,126.4,153.7,124.7z"/>
			<path class="st50" d="M155.3,124.9c-0.9-0.5-2.4,2.7-1.5,3.2C154.6,128.6,156.5,125.5,155.3,124.9z"/>
			<path class="st36" d="M154.7,126.1c-0.2-0.1-0.5,0.1-0.8,0.4c0.2-0.7,0.8-1.6,1.2-1.4c0.5,0.2,0.2,1.1-0.2,1.7
				C155,126.5,154.9,126.2,154.7,126.1z"/>
		</g>
		<path class="st43" d="M176.4,115.3c0.1-0.9-4-0.9-3.9,0.3C172.6,116.5,176.2,116.5,176.4,115.3z"/>
		<path class="st38" d="M175.8,115.2c0.1-0.5-3.1-0.6-3,0.2C172.9,115.9,175.7,115.9,175.8,115.2z"/>
		<path class="st51" d="M175.8,115.2c-0.2-0.8-2.9-0.9-3,0.2C173.6,115.2,174.7,115.1,175.8,115.2z"/>
		<path class="st38" d="M190.1,118.2c0-0.3,0.5-0.6,1.1-0.6s1.1,0.3,1.1,0.6c0,0.3-0.5,0.6-1.1,0.6
			C190.6,118.8,190.1,118.5,190.1,118.2z"/>
		<ellipse class="st52" cx="191.3" cy="118.2" rx="0.7" ry="0.4"/>
		<polygon class="st53" points="171.8,102.2 171.8,96.7 182.1,97 183.5,102.2 		"/>
		<polygon class="st39" points="180.4,96.1 181.1,96.1 183.4,114.8 181.5,114.8 		"/>
		<polygon class="st47" points="190.8,124.9 194.9,124.9 194.4,126.1 190.6,126.1 		"/>
		<path class="st44" d="M176,113.3c-0.7-3.4-1.2-8.7-2.7-8.7c-1.6,0.1-1.1,8.8-1.1,8.8L176,113.3z"/>
		<polygon class="st40" points="196.1,116.4 187.5,114.5 185.1,116.4 		"/>
		<g>
			<path class="st43" d="M143.3,122.3c1.4-0.4,1.3-1.9,1.2-4.7c-0.1-1.9-0.2-4.4,0.1-7.7c0.1-1.6,0.3-3,0.4-4.3
				c0.5-4.9,0.7-7-0.8-7.1v0.4c1.1,0.1,0.9,2.2,0.5,6.7c-0.1,1.2-0.3,2.7-0.4,4.3c-0.3,3.3-0.1,5.9-0.1,7.7c0.1,2.8,0.2,4-0.9,4.3
				V122.3z"/>
		</g>
		<polygon class="st43" points="144,114.5 144.8,114.5 144.9,116 144.1,116 		"/>
		<polygon class="st43" points="144.8,103.6 145.5,103.7 145.5,105.2 144.7,105.1 		"/>
		<polygon class="st38" points="144.9,103.9 145.4,103.9 145.3,104.9 144.9,104.8 		"/>
		<polygon class="st38" points="144.1,114.8 144.6,114.7 144.7,115.6 144.2,115.7 		"/>
		<g>
			<path class="st54" d="M147.2,110.8c0.1,0.5,1.2,3.3,3.8,4.3C148.7,114.6,147.2,112.7,147.2,110.8z"/>
			<path class="st54" d="M162.4,113.1c1.3-0.2,6.1-1.5,6.1-6.8C169,109.9,166.7,112.7,162.4,113.1z"/>
			<path class="st54" d="M158.4,106.8l-7.4,7c-2.3-2-3-3.5-2.7-6.2L158.4,106.8z M150.9,108.6c0.9-0.7-0.6-1.3-1.4-0.4
				S150.1,109.4,150.9,108.6z M151.9,111.8h-0.6l-0.1,0.6h0.5L151.9,111.8z M150.9,110c-1.1,1.2,1.2,1.8,1.7,0.8
				C153.4,109.6,152,108.9,150.9,110z M153.1,108.8l-0.1-0.5h-0.8l0.2,0.4L153.1,108.8z M150.3,110.1l-0.1-0.4h-0.6l0.1,0.4H150.3z
				 M155.5,108.7c0.5-1,0-1.6-1.1-0.5C153.6,108.9,154.8,109.7,155.5,108.7z"/>
			<g>
				<path class="st55" d="M153.2,98.7l0.3,1.3l1.1-0.5c0,0-0.6-0.4-1-1L153.2,98.7z"/>
				<path class="st55" d="M154.5,97.8c0.8-0.3,1.5-0.4,1.8-0.4l-0.9,1.2c0,0,0.6-0.3,1.4-0.4l0.4,0.6c-0.9,0-1.4,0.1-2.3,0.5
					l0.6-1.5c0,0-0.9,0.6-1,0.7L154.5,97.8z"/>
				<path class="st55" d="M157.6,97.3c0.8,0,1.5,0.1,1.7,0.3l-1.1,0.8c0,0,0.6-0.1,1.3,0.1l0.1,0.7c-0.8-0.3-1.2-0.4-2.2-0.4
					l1.2-1.1c0,0-1,0.3-1.1,0.3L157.6,97.3z"/>
				<path class="st55" d="M161.4,99.1c-0.4,0.3-2,0.2-1-0.7C161,98,161.9,98.8,161.4,99.1z M160.8,98.7c-0.3,0.3,0.2,0.3,0.3,0.2
					C161.3,98.9,161.2,98.5,160.8,98.7z"/>
				<path class="st55" d="M161.7,99.5c-0.1-0.1-0.4-0.5,0-0.8c0.3-0.3,0-1-0.8-1.1l-0.1,0.4c0,0,1.3,0.2,0.5,0.9
					c-0.3,0.3,0,0.6,0,0.6H161.7z"/>
				<path class="st55" d="M152.7,100.8l-1.1,1.3l-2.4-3.2c1.9-1.6,3.2-0.9,3.3-0.3c0.1,0.9-1.3,1.4-1.3,1.4L152.7,100.8z M151,99.7
					c0,0,1.5-1.8-0.8-0.6L151,99.7z"/>
				<path class="st55" d="M153.1,98c0.1-0.3,0.6,0,0.4,0.3C153.3,98.5,153,98.2,153.1,98z"/>
			</g>
			<path class="st54" d="M167.6,106.5c0.1-1.8-0.9-3.3-2.4-4.5l-4.5,3.4l4.3-3.6c-1.4-1-3.3-1.7-5.2-1.9l0.6,5.5l-1-5.5
				c-1.1-0.1-2.3,0-3.3,0.3c-0.8,0.2-1.4,0.5-1.9,0.9l5.8,4.5l-6-4.3c-1.6,1.3-2.4,3.5-2.4,5.4l8.3-0.6l-5.2,5.7
				c1.9,1.2,3.9,1.5,5.6,1.2l-0.1-6.6l0.3,6.6c3-0.5,4.8-1.9,5.9-3.9l-5.9-3l6,2.8C167,108.3,167.6,107,167.6,106.5z"/>
			<path class="st38" d="M163.3,110.4c0-0.5-0.3-0.8-0.8-0.8c-0.4,0-0.8,0.4-0.8,0.8c0,0.5,0.3,0.8,0.8,0.8
				C162.9,111.2,163.3,110.9,163.3,110.4z"/>
			<path class="st38" d="M162.4,107.6c-0.2-0.3-0.5-0.5-0.8-0.4c-0.2,0.1-0.3,0.5-0.1,0.8s0.5,0.5,0.8,0.4
				C162.6,108.3,162.6,107.9,162.4,107.6z"/>
			<path class="st38" d="M165.2,109.1c-0.2-0.4-0.6-0.6-1-0.5s-0.3,0.6-0.1,1c0.2,0.4,0.6,0.6,1,0.5
				C165.5,109.9,165.5,109.5,165.2,109.1z"/>
			<path class="st38" d="M158.4,111.7c-0.3-1.3,1.3-1.4,1.3-0.6C159.8,111.8,158.8,112.9,158.4,111.7z"/>
			<path class="st38" d="M158.6,108.4c-0.9,0.3-0.8,1.4,0.1,1C159.4,108.9,159.5,108,158.6,108.4z"/>
			<path class="st38" d="M163.5,104.4c0.5-1.1,1.7-0.3,1.2,0.4C164.1,105.5,163,105.5,163.5,104.4z"/>
			<path class="st38" d="M161.7,105.2c0.3-0.6,1.1-0.2,0.6,0.2C162,105.9,161.4,105.9,161.7,105.2z"/>
			<path class="st38" d="M161.2,103.5c0.3-0.6,1.1-0.2,0.6,0.2C161.6,104.1,160.8,104.1,161.2,103.5z"/>
			<path class="st38" d="M160.8,101.4c-0.3-0.9,0.9-1,0.9-0.3C161.7,101.8,161,102.3,160.8,101.4z"/>
			<path class="st38" d="M163.2,101.8c0.5-0.5,1,0.2,0.5,0.5C163.1,102.5,162.6,102.2,163.2,101.8z"/>
			<path class="st38" d="M158.1,100.4c1.3-0.3,1.4,1.1,0.3,1.1C157.5,101.6,156.9,100.7,158.1,100.4z"/>
			<path class="st38" d="M159.1,103.1c0.8,0.3,0.2,1-0.2,0.6C158.5,103.4,158.5,102.8,159.1,103.1z"/>
			<path class="st38" d="M157.8,104.6c0.8,0.3,0.2,1-0.2,0.6C157.1,105,157.1,104.3,157.8,104.6z"/>
			<path class="st38" d="M154.1,102.8c0.8-0.8,1.5,0.1,0.9,0.6C154.2,103.9,153.3,103.6,154.1,102.8z"/>
			<path class="st38" d="M154.1,104.9c1.2,0,0.9,1.2,0,1C153.3,105.8,153,104.9,154.1,104.9z"/>
			<path class="st38" d="M165.3,106.3c0-1,1.3-0.7,1.3,0C166.7,107,165.3,107.8,165.3,106.3z"/>
			<rect x="163.4" y="106.3" class="st38" width="0.4" height="0.4"/>
			<rect x="152.7" y="104.3" class="st38" width="0.4" height="0.3"/>
			<rect x="163.1" y="108.7" class="st38" width="0.4" height="0.4"/>
			<polygon class="st38" points="164.3,110.8 164,110.5 163.7,110.8 164,111.1 			"/>
			<polygon class="st38" points="161.9,109.1 161.6,108.8 161.3,109.1 161.6,109.4 			"/>
			<polygon class="st38" points="156.7,105.5 156.4,105.3 156.1,105.5 156.4,105.8 			"/>
			<polygon class="st38" points="156.2,101.1 155.9,100.8 155.6,101.1 155.9,101.4 			"/>
			<polygon class="st38" points="155.7,103.8 155.6,103.9 155.7,104.1 155.8,104 			"/>
			<polygon class="st38" points="157.6,101.9 157.4,102 157.6,102.2 157.7,102 			"/>
			<polygon class="st38" points="160.8,104.3 160.7,104.5 160.8,104.6 161,104.5 			"/>
			<polygon class="st38" points="161.2,102.3 161,102.5 161.2,102.6 161.3,102.5 			"/>
			<polygon class="st38" points="162.3,101.3 162.2,101.5 162.4,101.6 162.6,101.5 			"/>
			<polygon class="st38" points="165.7,104.5 165.6,104.6 165.8,104.7 165.9,104.6 			"/>
			<polygon class="st38" points="157.7,111 157.4,110.7 157.1,111 157.4,111.3 			"/>
		</g>
	</g>
	<g>
		<polygon class="st56" points="82.8,94.5 80,94.5 79.4,130 82.3,130 82.3,126.6 91.2,125.8 		"/>
		<polygon class="st57" points="82,94.2 80.3,94 85.9,130.2 87.6,130.2 		"/>
		<polygon class="st58" points="102.5,96.7 81.3,94 86.9,130.2 90.2,130.2 90,129.6 105.2,130 105.4,130.5 107.4,130.5 		"/>
		<polygon class="st59" points="81.3,94 86.9,130.2 90.2,130.2 90,129.6 105.2,130 105.4,130.5 107.4,130.5 96.8,103.4 		"/>
		<polygon class="st60" points="100.5,98.5 83.9,96.3 89,127.8 105.2,128 		"/>
		<polygon class="st61" points="100.4,98.7 84.3,96.5 89.4,127.2 105,127.5 		"/>
		<polygon class="st62" points="100.5,98.5 84,96.3 105.2,128 		"/>
		<polygon class="st63" points="100.1,99.3 84.3,96.8 104.5,127.5 		"/>
		<g>
			<path class="st64" d="M89.9,103c-0.1,0-0.3,0-0.4,0c-0.1,0-0.3,0-0.4-0.2c0-0.2,0-0.3,0-0.6c0-0.2,0-0.3-0.1-0.6
				c0-0.2,0-0.3-0.1-0.6c0-0.2,0-0.3-0.1-0.6c-0.1,0-0.3,0-0.3,0c-0.1,0-0.1,0-0.3,0c0,0.3,0,0.8,0.1,1.1c0,0.3,0.1,0.8,0.1,1.1
				c-0.1,0-0.1,0-0.3,0s-0.1,0-0.3,0c0-0.3-0.1-0.5-0.1-0.8s-0.1-0.5-0.1-0.8c0-0.2,0-0.3,0-0.5c0-0.2,0-0.3,0-0.5
				c-0.1,0-0.1,0-0.3,0s-0.1,0-0.3,0c0,0.2,0,0.2,0,0.3s0,0.2,0,0.3c0,0.3,0,0.6,0.1,0.8c0,0.3,0,0.6,0.1,0.8H87h-0.1
				c-0.1-0.6-0.1-1.1-0.3-1.7s-0.1-1.1-0.3-1.6c0.3,0,0.4,0.2,0.6,0.5c0-0.2,0-0.2,0.1-0.3c0,0,0.1-0.2,0.3-0.2c0,0,0.1,0,0.3,0
				s0.3,0,0.3,0c0.1,0,0.3,0,0.4,0c0.1,0,0.3,0,0.3,0c0.3,0,0.4,0.2,0.6,0.3s0.3,0.5,0.3,0.8c0,0.5,0.1,0.8,0.1,1.2
				C89.7,102.3,89.9,102.7,89.9,103z"/>
			<path class="st64" d="M91.2,103c-0.1,0-0.3-0.2-0.3-0.2c-0.1,0-0.1-0.2-0.3-0.3c0-0.2-0.1-0.2-0.1-0.3c0-0.2-0.1-0.3-0.1-0.5
				c0-0.2,0-0.3-0.1-0.3c0-0.2,0-0.3-0.1-0.3c0-0.2,0-0.2,0-0.3s0-0.2,0-0.3c0-0.2,0-0.3,0-0.5c0-0.2,0.1-0.2,0.3-0.3
				c0.1,0,0.3-0.2,0.6,0c0.3,0,0.4,0,0.7,0c0.3,0,0.6,0.2,0.7,0.3s0.3,0.5,0.4,0.9c0.1,0.8-0.1,1.1-0.7,0.9c-0.1,0-0.1,0-0.3,0
				s-0.1,0-0.3,0s-0.1,0-0.3,0c-0.1,0-0.1,0-0.1,0c0,0.2,0,0.2,0.1,0.3c0,0.2,0.1,0.2,0.1,0.2c0.1,0,0.1,0,0.3,0s0.3,0,0.4,0
				c0.1,0,0.3,0,0.4,0c0.1,0,0.3,0,0.3,0c0,0.2,0,0.3,0,0.5c0,0.2,0,0.3,0,0.5c-0.1,0-0.3,0-0.4,0c-0.1,0-0.3,0-0.4-0.2
				c-0.1,0-0.3,0-0.4-0.2C91.3,103.2,91.3,103.2,91.2,103z M90.6,101.5c0.1,0,0.1,0,0.3,0c0.1,0,0.3,0,0.3,0c0.1,0,0.1,0,0.3,0
				s0.1,0,0.3,0h0.1c0,0,0,0,0-0.2v-0.2c0,0,0,0-0.1,0h-0.1c-0.1,0-0.1,0-0.3,0s-0.1,0-0.3,0c-0.1,0-0.1,0-0.3,0s-0.1,0-0.1,0
				C90.5,101.2,90.5,101.3,90.6,101.5C90.5,101.3,90.6,101.5,90.6,101.5L90.6,101.5z"/>
			<path class="st64" d="M95.5,103.8c0-0.3-0.1-0.8-0.1-1.1c0-0.3-0.1-0.8-0.1-1.1H95h-0.1c-0.1,0-0.3,0-0.4,0c-0.1,0-0.3,0-0.4,0
				c0,0.3,0,0.6,0.1,1.1c0,0.3,0.1,0.8,0.1,1.2c-0.1,0-0.3,0-0.3-0.2c-0.1,0-0.3,0-0.3-0.2c-0.1-0.6-0.3-1.2-0.3-1.7
				c-0.1-0.6-0.3-1.1-0.3-1.7c0.3,0.2,0.6,0.3,0.7,0.5c0-0.2,0.1-0.2,0.1-0.3c0.1,0,0.1,0,0.3,0s0.3,0,0.4,0c0.1,0,0.3,0,0.4,0
				c0.3,0,0.4,0.2,0.7,0.3c0.1,0.2,0.3,0.5,0.3,0.8c0.1,0.5,0.1,0.8,0.3,1.2c0.1,0.5,0.1,0.8,0.1,1.2c-0.1,0-0.3,0-0.3,0
				C95.8,103.8,95.6,103.8,95.5,103.8z"/>
			<path class="st64" d="M98.8,103.4c0-0.5-0.1-0.8-0.1-1.2c0-0.5-0.1-0.8-0.3-1.2c0.1,0,0.1,0,0.3,0s0.1,0,0.3,0
				c0,0.5,0.1,0.8,0.1,1.1c0,0.3,0.1,0.8,0.1,1.1c0,0.2,0,0.3,0,0.5c0,0.2,0,0.3,0,0.3c0,0.2-0.1,0.2-0.1,0.2s-0.1,0-0.3,0
				c0,0-0.1,0-0.3,0s-0.1,0-0.3,0c-0.1,0-0.3,0-0.3,0c-0.1,0-0.3,0-0.3,0c-0.1,0-0.3,0-0.3-0.2c-0.1,0-0.1-0.2-0.3-0.3
				c-0.1-0.2-0.1-0.2-0.3-0.3c0-0.2-0.1-0.3-0.1-0.5c-0.1-0.5-0.3-0.9-0.4-1.2c-0.1-0.5-0.3-0.9-0.3-1.2c0.1,0,0.3,0,0.4,0
				c0.1,0,0.3,0,0.6,0c0.1,0.5,0.3,0.9,0.3,1.4c0.1,0.5,0.3,0.9,0.3,1.2c0.1,0,0.3,0,0.4,0.2c0.1,0,0.3,0,0.4,0h0.1
				C98.6,103.4,98.8,103.4,98.8,103.4z"/>
		</g>
		<polygon class="st64" points="88.3,108.2 100.5,109.1 100.5,109.6 88.4,108.5 		"/>
		<path class="st56" d="M81.1,95.9c0-0.5-0.3-0.9-0.6-0.9c-0.3,0-0.6,0.5-0.6,0.9c0,0.5,0.3,0.9,0.6,0.9
			C80.8,96.8,81.1,96.3,81.1,95.9z"/>
	</g>
	<rect x="1.7" y="129.6" class="st65" width="297.7" height="4.4"/>
	<g>
		<polygon class="st66" points="108.2,61.2 109.8,66.7 159.2,77.6 185.5,49.5 185.2,44.3 		"/>
		<polygon class="st67" points="104.3,58.9 103.8,63 158.1,75.2 188.1,45.8 185.6,41.1 141.6,38.7 		"/>
		<polygon class="st68" points="104.3,58.9 103.8,63 158.2,75.4 141.6,38.7 		"/>
		<polygon class="st69" points="155.4,68.9 104.3,58.9 141.6,38.7 185.6,41.1 		"/>
		<polygon class="st70" points="155.4,68.9 141.6,38.7 185.6,41.1 		"/>
		<g>
			<path class="st71" d="M164.3,45.9c0.4,0,0.9-0.5,0-0.4C163.4,45.7,164,46,164.3,45.9z"/>
			<path class="st71" d="M148.9,41.5l-0.1,0.9C148.7,42.4,154.2,41.3,148.9,41.5z"/>
			<path class="st71" d="M122.7,51.8c-3.4,1.9-4.8,4.4-2.7,5.9C118.4,55.5,121.8,52.3,122.7,51.8z"/>
			<path class="st71" d="M161.2,56.4c-9.6,5.2-18.8,4.4-21.1,4.1C146.9,62,155.3,60.1,161.2,56.4z"/>
			<path class="st71" d="M130.1,49.1c-5.5,2.6-7.3,4.3-7.7,7.3l23.5-3.8L130.1,49.1z M130.9,50.2c2.8-0.6,3.8,0.6,1.2,1
				C129.6,51.6,128.2,50.7,130.9,50.2z M127.7,52.1l0.5-0.4l0.9,0.3l-0.6,0.4L127.7,52.1z M126.6,55.2l-0.9-0.2l1.3-0.6l0.9,0.3
				L126.6,55.2z M130.8,54c-2.7,0.7-4.9-0.8-1.1-1.5C133.1,51.9,133.8,53.2,130.8,54z M134,51.9l0.6-0.5l1.1,0.3l-0.7,0.5L134,51.9z
				 M137.8,52.2c3.5-0.6,3.2,0.3,0.6,1C135.7,53.9,135.5,52.6,137.8,52.2z"/>
			<path class="st71" d="M151.7,43.8l2.4-0.1c0,0-0.2-0.7,0.4-1.4h-0.9L151.7,43.8z"/>
			<path class="st71" d="M158.8,42.5l-3.8,1.2c2,0,2.9,0.2,4.1,0.5l0.6-0.8c-1-0.3-2.6-0.2-2.6-0.2l3.3-0.8
				c-0.3-0.2-1.7-0.4-3.3-0.4l-0.9,0.8C156.5,42.8,158.8,42.5,158.8,42.5z"/>
			<path class="st71" d="M161.9,45.6l1.1-0.8c-0.5-0.5-1.6-0.7-1.6-0.7l3-0.3c-0.1-0.2-0.8-0.7-1.9-1l-1.3,0.7
				c0.2,0,2.1,0.1,2.1,0.1l-3.7,0.6C160.9,44.7,161.3,45,161.9,45.6z"/>
			<path class="st71" d="M163.9,46.2c0.2-0.1,0.4-0.2,0.8-0.2c0.3,0,0.5-0.1,0.7-0.1c0.4-0.4,0.2-0.8-1-0.7
				C161.7,45.5,162.9,46.1,163.9,46.2z M164.4,45.6c0.8-0.1,0.3,0.3,0,0.4C164,46,163.4,45.7,164.4,45.6z"/>
			<path class="st71" d="M164.9,46.1h-0.1C164.9,46.1,164.9,46.1,164.9,46.1z"/>
			<path class="st71" d="M163.9,46.2c-0.4,0.2-0.5,0.4-0.5,0.4l0.7,0.1c0.1-0.1,0.2-0.4,0.7-0.6c-0.1,0-0.3,0.1-0.4,0.1
				C164.3,46.3,164.1,46.2,163.9,46.2z"/>
			<path class="st71" d="M164.9,46.1c0.2-0.1,0.3-0.1,0.6-0.2c1.1-0.2,1.9-1,1-1.4l-1,0.4c0,0,1.2,0.6-0.2,1
				C165.2,46,165.1,46,164.9,46.1z"/>
			<path class="st71" d="M163.9,46.2c0.2,0,0.4,0,0.5,0s0.3,0,0.4-0.1h0.1c0.2-0.1,0.3-0.1,0.4-0.2c-0.2,0-0.4,0.1-0.7,0.1
				C164.3,46.1,164.1,46.1,163.9,46.2z"/>
			<path class="st71" d="M149,44.2l-0.4-1.3c0,0,2.9,0,4.4-0.9c1-0.6,0.4-1.9-5.2-1.2l-2.7,4.2L149,44.2z M148.9,41.5
				c5.4-0.2-0.1,0.9-0.1,0.9L148.9,41.5z"/>
			<path class="st71" d="M154.8,42.1c0.8-0.2,0.6-0.6-0.1-0.4C154.2,41.7,154.1,42.2,154.8,42.1z"/>
			<path class="st71" d="M153.6,58.2l-2.8-5.5l3.3,5.3c1.2-0.4,4.6-1.4,5.5-1.9c3.4-1.7,4.9-3.7,4.9-5.5l-12.6,1.5l12.6-1.7
				c-0.1-1.6-1.5-3.1-3.8-4.1l-9.2,5.7l8.8-5.9c-1.4-0.6-3.2-0.9-5.2-1.1c-1.5-0.1-3-0.1-4.5,0.1V52l-0.6-6.8
				c-4.8,0.6-9.7,2.4-13.1,4.3l12.8,2.9L132,55.8c0.5,2,2.7,3.1,5.6,3.6l12.1-6.6L138,59.5C143.3,60.3,148.5,59.8,153.6,58.2z
				 M151,56.9c0.7,0,0.9,0.4,0.5,0.9s-1.3,0.9-2,0.9s-0.9-0.4-0.5-0.9C149.5,57.3,150.4,56.9,151,56.9z M147.2,58.6l-0.1,0.4
				l-0.9,0.1l0.1-0.4L147.2,58.6z M149.2,56.4l0.6,0.2L149,57l-0.6-0.2L149.2,56.4z M146.2,58.2c-0.8,0.4-2,0.7-2.6,0.5
				s-0.4-0.7,0.4-1.1c0.8-0.4,2-0.7,2.6-0.5C147.2,57.2,147.1,57.8,146.2,58.2z M149.9,54.3c0.5,0,0.7,0.3,0.3,0.7s-1.1,0.8-1.6,0.8
				s-0.7-0.3-0.3-0.7C148.6,54.7,149.3,54.3,149.9,54.3z M146.8,55.9l-0.1,0.4l-0.9,0.1l0.1-0.4L146.8,55.9z M160.7,53.3v0.2
				l-0.4,0.1v-0.2L160.7,53.3z M158.6,55.5c-1.2,0.7-4.7,1-1.9-0.5C158.6,54,159.8,54.8,158.6,55.5z M153.9,54.8l-0.6-0.2l0.8-0.4
				l0.6,0.2L153.9,54.8z M157.6,52.3c2.8-0.8,3,0.4,0.9,0.9C156.3,53.7,154.8,53.2,157.6,52.3z M153.5,52.4c1.6-0.5,1.8,0.3,0.5,0.5
				C152.8,53.2,151.9,52.9,153.5,52.4z M162,49.6c1.6-0.2,1,0.6-0.2,0.7C160.7,50.3,160.4,49.8,162,49.6z M161.7,48.8V49l-0.4,0.1
				v-0.2L161.7,48.8z M156.7,51c-1.3,0.3-2.1,0-0.5-0.5C157.8,49.9,157.9,50.7,156.7,51z M157.7,49.4l0.4-0.1v0.2l-0.4,0.1V49.4z
				 M161.2,48.3c-1.2,0.7-3,0.9-1.8-0.1C160.7,47.2,162.4,47.6,161.2,48.3z M154,51.2v0.2l-0.4,0.1v-0.2L154,51.2z M152.6,46.1
				l0.1-0.4l0.9-0.1l-0.1,0.4L152.6,46.1z M153.5,47.6v-0.2l0.4-0.1v0.2L153.5,47.6z M157.5,46.2c2.4,0.3-0.1,1.7-1.6,1.3
				C154.4,47,155.1,45.9,157.5,46.2z M152.4,49.7c-0.1-0.5,1-1.1,1.5-0.5C154.5,49.8,152.6,50.2,152.4,49.7z M142.6,48.2L142,48
				l0.5-0.3l0.6,0.2L142.6,48.2z M141.6,49.9c-0.9-0.5,0.2-1.5,1.8-1C145,49.4,142.5,50.4,141.6,49.9z M147.3,47.7
				c-1.9,0.2-2.7-0.5-0.1-1C149.8,46.3,149.2,47.5,147.3,47.7z M147.2,48.7v-0.2l0.4-0.1v0.2L147.2,48.7z M145,50.7l0.1-0.4l0.9-0.1
				l-0.1,0.4L145,50.7z M147.7,50.7c-0.1-0.5,1-1.1,1.5-0.5C149.7,50.7,147.8,51.2,147.7,50.7z M136.4,56.5l0.1-0.4l0.9-0.1
				l-0.1,0.4L136.4,56.5z M143.4,54.2c2.1,0,0.2,0.9-1.7,1C139.7,55.2,141.6,54.1,143.4,54.2z M137.1,57.4c1.9-1.5,4.4-0.9,3-0.1
				C138.6,58.1,135.3,58.7,137.1,57.4z"/>
		</g>
		<polygon class="st66" points="168.1,57.2 155,68.2 141.9,66.3 155.3,69.3 		"/>
		<path class="st66" d="M168.3,56.9c0.3,1.3,2.3,0.9,4.9-1.6c2.6-2.5,1.5-4,1.5-4L168.3,56.9z"/>
		<path class="st67" d="M169.8,55.7c0.2,0.8,1.4,0.5,2.9-1c1.6-1.5,0.9-2.4,0.9-2.4L169.8,55.7z"/>
		<path class="st72" d="M153.6,36.4c-4.3-1.3-13.6-9.3,1.2-10.6c14.8-1.3,29.1-14.5,7.5-12.7s-27,0.8-22.9-2.4
			c0,0-15.3,6.1,22.2,7.1c3.9,0.1,11.3,5.1-15.6,7.7C136.9,26.3,146.9,34.9,153.6,36.4z"/>
	</g>
	<g>
		<path class="st0" d="M122.3,101.8c-3.7,0-6.5-0.7-7.8-2.4c-1.2-1.6-0.8-3.7,1.2-6.5c4.2-4.9,6.7-5.3,8.1-4.8
			c4.3,1.6,1.5,6.4-0.8,7c1.4-0.5,2-2.2,2-3.6c0-1.1-0.4-2.4-1.5-2.9c-1-0.4-3.2-0.3-7.4,4.6c-1.8,2.5-2.2,4.4-1.2,5.7
			c4.6,6.1,23.4-0.9,27.7-1.5C135.9,100,128.1,101.8,122.3,101.8z"/>
	</g>
</g>
<g>
	<g>
		<g>
			
				<ellipse transform="matrix(0.9857 -0.1687 0.1687 0.9857 -19.6145 17.7364)" class="st73" cx="94.6" cy="124.3" rx="2" ry="0.8"/>
		</g>
		<g class="st74">
			<path class="st0" d="M94.8,125c-0.1,0-0.1,0-0.2,0c-1.1,0.2-2,0-2.1-0.4c-0.1-0.4,0.7-0.9,1.8-1.1c0.1,0,0.1,0,0.2,0
				c-1,0.2-1.7,0.7-1.7,1C93,125,93.8,125.1,94.8,125z"/>
		</g>
		<g>
			<g class="st75">
				<path class="st76" d="M95.1,124.2c0,0.3-0.3,0.6-0.8,0.8c0,0,0,0,0,0c0,0,0.1,0,0.1,0c1.1-0.2,1.9-0.7,1.8-1.1
					c0-0.2-0.2-0.3-0.5-0.4c0,0,0.1,0,0.1,0c-0.4-0.1-0.8-0.1-1.4,0c-0.2,0-0.5,0.1-0.7,0.2C94.5,123.7,95.1,123.9,95.1,124.2z"/>
			</g>
		</g>
		<g>
			<path class="st76" d="M93.9,125.2c-0.2,0-0.4,0-0.6-0.1c-0.4-0.1-0.7-0.3-0.7-0.5c0-0.2,0.1-0.5,0.5-0.7c0.4-0.2,0.8-0.4,1.4-0.5
				c0.5-0.1,1.1-0.1,1.5,0c0.4,0.1,0.7,0.3,0.7,0.5l0,0c0,0.2-0.1,0.5-0.5,0.7c-0.4,0.2-0.8,0.4-1.4,0.5
				C94.4,125.2,94.1,125.2,93.9,125.2z M95.2,123.6c-0.2,0-0.5,0-0.8,0.1c-0.5,0.1-1,0.2-1.3,0.4c-0.3,0.2-0.5,0.4-0.4,0.5
				c0,0.1,0.2,0.3,0.6,0.3c0.4,0.1,0.9,0.1,1.4,0c0.5-0.1,1-0.2,1.3-0.4c0.3-0.2,0.5-0.4,0.4-0.5c0-0.1-0.2-0.3-0.6-0.3
				C95.6,123.6,95.5,123.6,95.2,123.6z"/>
		</g>
		<g>
			<path class="st73" d="M98.4,118.9c1.1,6.2-8.2,7.8-9.3,1.6c-0.2-0.9,1.8-2,4.4-2.5C96,117.5,98.3,117.9,98.4,118.9z"/>
		</g>
		<g class="st74">
			<g>
				<g>
					<path class="st0" d="M92.2,121.3c-0.4,0-0.7,0-1-0.1l0,0l0,0c-0.2,0-0.4-0.1-0.6-0.1c0,0-0.1,0-0.1,0c-0.2,0-0.3-0.1-0.4-0.1
						c-0.2-0.1-0.3-0.2-0.4-0.3c0,0,0-0.1,0-0.1c0,0,0.1,0,0.1,0c0.1,0.1,0.2,0.2,0.4,0.2c0.1,0,0.2,0.1,0.4,0.1c0,0,0.1,0,0.1,0
						c0.2,0,0.3,0.1,0.5,0.1l0,0c0.4,0.1,0.8,0.1,1.3,0.1l0,0l0,0c0.2,0,0.3,0,0.5,0l0,0c0.1,0,0.1,0,0.2,0c0.2,0,0.4,0,0.5-0.1
						c0,0,0.1,0,0.1,0c0.1,0,0.2,0,0.3,0c0.1,0,0.1,0,0.2,0c0.2,0,0.3-0.1,0.5-0.1l0,0l0,0c0.1,0,0.1,0,0.2,0l0,0l0.1,0
						c0,0,0.1,0,0.1,0c0.2-0.1,0.5-0.1,0.7-0.2c0,0,0.1,0,0.1-0.1c0.2-0.1,0.5-0.2,0.7-0.3c0,0,0,0,0,0c0,0,0.1,0,0.1,0
						c0.1-0.1,0.3-0.1,0.4-0.2c0.1-0.1,0.2-0.1,0.3-0.2c0.4-0.3,0.6-0.6,0.6-0.7c0,0,0-0.1,0.1-0.1c0,0,0.1,0,0.1,0.1
						c0,0.2-0.2,0.6-0.7,0.9c-0.1,0.1-0.2,0.1-0.3,0.2c-0.1,0.1-0.3,0.1-0.4,0.2c0,0-0.1,0-0.1,0c0,0,0,0,0,0
						c-0.2,0.1-0.5,0.2-0.7,0.3c0,0-0.1,0-0.1,0.1c-0.2,0.1-0.5,0.1-0.7,0.2c0,0-0.1,0-0.1,0l0,0c0,0,0,0,0,0l0,0
						c-0.1,0-0.2,0-0.2,0.1l0,0l0,0c-0.2,0-0.3,0.1-0.5,0.1c-0.1,0-0.1,0-0.2,0c-0.1,0-0.2,0-0.3,0c0,0-0.1,0-0.1,0
						c-0.2,0-0.4,0-0.6,0.1c-0.1,0-0.1,0-0.2,0l0,0c-0.2,0-0.3,0-0.5,0l0,0C92.4,121.3,92.3,121.3,92.2,121.3z"/>
				</g>
			</g>
		</g>
		<g class="st74">
			<path class="st0" d="M94.7,124.3c-2.3,0.4-4.8-0.6-5.5-3.4l0,0c0.2,0.1,0.3,0.2,0.4,0.4C90.4,123.7,92.6,124.6,94.7,124.3z"/>
		</g>
		<g>
			<g>
				<path class="st77" d="M101.9,113c0,0.2-0.1,0.4-0.3,0.5l0,0l-1.5,0.3l-0.6,0.1l-0.3,0.1l-0.4,0.1l-6.2,1.2
					c-0.1,0-0.2-0.1-0.3-0.2c0-0.1,0-0.1,0-0.2c0,0,0.1-0.1,0.1-0.1l6.2-1.5l0.4-0.1l0.2-0.1l0.6-0.2l1.4-0.3
					C101.6,112.7,101.8,112.8,101.9,113z"/>
			</g>
			<g>
				<path class="st76" d="M99.3,113.6c0,0.1,0,0.2,0,0.3l-0.4,0.1c0.1-0.1,0.1-0.2,0.1-0.4c0-0.1-0.1-0.2-0.2-0.3l0.4-0.1
					C99.2,113.4,99.2,113.5,99.3,113.6z"/>
			</g>
			<g>
				<path class="st76" d="M100.1,113.4c0,0.1,0,0.2,0,0.4l-0.6,0.1l0,0c0.1-0.1,0.1-0.2,0.1-0.3c0-0.1-0.1-0.2-0.3-0.3l0.6-0.2
					C100.1,113.2,100.1,113.3,100.1,113.4z"/>
			</g>
			<g class="st74">
				<path class="st0" d="M101.9,113c0,0,0,0.1,0,0.1c-0.1-0.2-0.3-0.2-0.4-0.2l-1.4,0.3l-0.6,0.2l-0.2,0.1l-0.4,0.1l-6.2,1.5
					c-0.1,0-0.1,0-0.1,0.1c0,0,0,0,0,0.1c0,0,0-0.1-0.1-0.1c0-0.1,0-0.1,0-0.2c0,0,0.1-0.1,0.1-0.1l6.2-1.5l0.4-0.1l0.2-0.1l0.6-0.2
					l1.4-0.3C101.6,112.7,101.8,112.8,101.9,113z"/>
			</g>
			<g>
				<path class="st76" d="M92.7,115.4c-0.1,0-0.3-0.1-0.3-0.3c0-0.2,0.1-0.3,0.2-0.4l8.8-2.1c0.1,0,0.3,0,0.4,0.1
					c0.1,0.1,0.2,0.2,0.2,0.3c0,0.1,0,0.3-0.1,0.4c-0.1,0.1-0.2,0.2-0.3,0.2L92.7,115.4C92.7,115.4,92.7,115.4,92.7,115.4z
					 M101.5,112.8C101.5,112.8,101.5,112.8,101.5,112.8l-8.9,2.1c-0.1,0-0.1,0.1-0.1,0.1c0,0.1,0.1,0.1,0.1,0.1l8.9-1.8
					c0.1,0,0.1-0.1,0.2-0.1c0-0.1,0.1-0.1,0-0.2c0-0.1-0.1-0.1-0.1-0.2C101.6,112.8,101.6,112.8,101.5,112.8z"/>
			</g>
		</g>
		<g>
			<g>
				<path class="st0" d="M98.4,120.7L98.4,120.7c-0.2,0.8-1.9,1.7-4.1,2.1s-4.1,0.1-4.6-0.6l0,0l-0.4-0.9l0,0c0.5,0.8,2.5,1,4.8,0.6
					c2.3-0.4,4.1-1.3,4.3-2.2l0,0L98.4,120.7z"/>
			</g>
		</g>
		<g>
			<g class="st75">
				<path class="st76" d="M93,124.3c2.6,0.2,5.4-1.6,5.3-4.8c0,0,0,0,0,0c-0.1,0.2-0.4,0.4-0.6,0.6c-0.1,0.1-0.2,0.3-0.3,0.4
					C97,122.8,95.1,124.1,93,124.3C93,124.3,93,124.3,93,124.3z"/>
			</g>
		</g>
		<g>
			<path class="st76" d="M93.7,124.5c-0.6,0-1.2-0.1-1.7-0.3c-1.6-0.6-2.6-1.9-2.9-3.7c-0.1-0.5,0.3-1,1.2-1.5
				c0.8-0.5,2-0.9,3.2-1.1c1.3-0.2,2.5-0.2,3.4-0.1c1,0.2,1.6,0.6,1.7,1c0.3,1.8-0.2,3.4-1.5,4.4c-0.7,0.6-1.5,0.9-2.4,1.1
				C94.3,124.4,94,124.5,93.7,124.5z M95.5,117.9c-0.6,0-1.3,0.1-2,0.2c-1.2,0.2-2.4,0.6-3.2,1c-0.8,0.4-1.2,0.9-1.1,1.3
				c0.3,1.7,1.3,3,2.8,3.5c1.6,0.6,3.6,0.3,4.9-0.8c1.2-1,1.7-2.5,1.4-4.2c-0.1-0.4-0.6-0.7-1.5-0.9C96.4,117.9,96,117.9,95.5,117.9
				z"/>
		</g>
		<g class="st78">
			<path class="st0" d="M92,122.3c0.5,0.5,0.9,1,0.6,1.2c-0.2,0.2-0.9,0-1.4-0.5c-0.5-0.5-0.7-1.1-0.4-1.4
				C91.1,121.4,91.5,121.8,92,122.3z"/>
		</g>
		<g>
			<g>
				<path class="st77" d="M101.5,111.3c0.1,0.2,0,0.4-0.2,0.5l0,0l-1.4,0.5l-0.6,0.2l-0.3,0.1l-0.4,0.1l-6,2c-0.1,0-0.2,0-0.3-0.1
					c0-0.1,0-0.1,0-0.2c0-0.1,0.1-0.1,0.1-0.1l5.9-2.2l0.4-0.1l0.2-0.1l0.6-0.2l1.4-0.5C101.2,111,101.4,111.1,101.5,111.3z"/>
				<path class="st76" d="M92.6,114.7c-0.1,0-0.2-0.1-0.2-0.2c0-0.1,0-0.1,0-0.2c0-0.1,0.1-0.1,0.1-0.1l8.5-3.2c0.1,0,0.2,0,0.3,0
					c0.1,0,0.2,0.1,0.2,0.2c0,0.1,0,0.2,0,0.3c0,0.1-0.1,0.2-0.2,0.2l0,0L92.6,114.7C92.6,114.7,92.6,114.7,92.6,114.7z
					 M101.1,111.1c0,0-0.1,0-0.1,0l-8.5,3.2c-0.1,0-0.1,0.1-0.1,0.1c0,0,0,0.1,0,0.2c0,0.1,0.2,0.2,0.3,0.1l6-2l2.6-0.9
					c0.1,0,0.2-0.1,0.2-0.2c0-0.1,0-0.2,0-0.3l0,0c0-0.1-0.1-0.2-0.2-0.2C101.2,111.1,101.2,111.1,101.1,111.1z"/>
			</g>
			<g>
				<path class="st76" d="M99,112.2c0,0.1,0,0.2,0,0.3l-0.4,0.1c0.1-0.1,0.1-0.2,0-0.4c0-0.1-0.1-0.2-0.2-0.3l0.4-0.1
					C98.9,112,98.9,112.1,99,112.2z"/>
			</g>
			<g>
				<path class="st76" d="M99.8,111.9c0,0.1,0,0.2,0,0.4l-0.6,0.2l0,0c0.1-0.1,0.1-0.2,0.1-0.4c0-0.1-0.1-0.2-0.3-0.3l0.6-0.2
					C99.7,111.7,99.8,111.8,99.8,111.9z"/>
			</g>
			<g class="st74">
				<path class="st0" d="M101.5,111.3c0,0,0,0.1,0,0.1c-0.1-0.1-0.3-0.2-0.5-0.1l-1.4,0.5l-0.6,0.2l-0.2,0.1l-0.4,0.1l-5.9,2.2
					c-0.1,0-0.1,0.1-0.1,0.1c0,0,0,0,0,0.1c0,0,0-0.1-0.1-0.1c0-0.1,0-0.1,0-0.2c0-0.1,0.1-0.1,0.1-0.1l5.9-2.2l0.4-0.1l0.2-0.1
					l0.6-0.2l1.4-0.5C101.2,111,101.4,111.1,101.5,111.3z"/>
			</g>
			<g>
				<path class="st76" d="M92.6,114.8c-0.1,0-0.3-0.1-0.3-0.2c-0.1-0.2,0-0.3,0.2-0.4l8.5-3.2c0.1,0,0.3,0,0.4,0
					c0.1,0.1,0.2,0.2,0.3,0.3c0,0.1,0,0.3,0,0.4s-0.2,0.2-0.3,0.3L92.6,114.8C92.6,114.8,92.6,114.8,92.6,114.8z M101.1,111.2
					C101.1,111.2,101.1,111.2,101.1,111.2l-8.6,3.2c-0.1,0-0.1,0.1-0.1,0.1c0,0.1,0.1,0.1,0.1,0.1l8.6-2.8c0.1,0,0.1-0.1,0.2-0.1
					c0-0.1,0-0.1,0-0.2c0-0.1-0.1-0.1-0.1-0.2C101.2,111.2,101.2,111.2,101.1,111.2z"/>
			</g>
		</g>
		<g>
			<g>
				<path class="st79" d="M97.6,119.5C97.6,119.5,97.6,119.5,97.6,119.5C97.5,119.6,97.5,119.6,97.6,119.5c-0.2,0-0.3,0-0.5,0
					c0,0-0.1,0-0.1,0c-0.1,0-0.1,0-0.2,0c0,0-0.1,0-0.1,0c0,0,0,0,0,0c0,0,0,0,0,0l0,0l0,0c0,0,0,0,0,0c0,0,0,0-0.1,0
					c-0.1,0-0.1,0-0.2,0c0,0,0,0,0,0c-0.1,0-0.2,0-0.3,0c0,0-0.1,0-0.1,0c0,0-0.1,0-0.1,0c-0.1,0-0.1,0-0.2,0c0,0,0,0-0.1,0
					c0,0,0,0,0,0c-0.1,0-0.1,0-0.2,0l0,0c0,0-0.1,0-0.1,0c0,0-0.1,0-0.1,0c0,0,0,0,0,0c-0.1,0-0.3-0.1-0.4-0.1c0,0,0,0,0,0
					c0,0-0.1,0-0.1,0c0,0,0,0,0,0l0,0c-0.1,0-0.2-0.1-0.3-0.1c0,0-0.1,0-0.1-0.1c0,0,0,0,0,0l0,0c-0.1-0.1-0.3-0.1-0.4-0.2
					c0-0.2,0-0.4,0.1-0.7c0.4-1,1.5-1.5,2.5-1.1C97.5,117.4,98,118.5,97.6,119.5z"/>
			</g>
			<g class="st74">
				<path class="st0" d="M96,117.3c0,0,0.1,0,0.1,0c0.1,0,0.2,0,0.3-0.1l0,0c0-0.1,0-0.2-0.1-0.3c-0.1,0-0.1,0-0.2,0
					c-0.1,0-0.2,0-0.3,0.2l0,0C95.8,117.2,95.9,117.3,96,117.3z"/>
			</g>
			<g class="st74">
				<path class="st0" d="M95.9,117.7c0,0,0.1,0,0.1,0c0.1,0,0.2,0,0.3-0.1l0,0c0-0.1,0-0.2-0.1-0.3c-0.1,0-0.1,0-0.2,0
					c-0.1,0-0.2,0-0.3,0.2l0,0C95.7,117.6,95.8,117.7,95.9,117.7z"/>
			</g>
			<g class="st74">
				<path class="st0" d="M95.8,118.2c0,0,0.1,0,0.1,0c0.1,0,0.2,0,0.3-0.1l0,0c0-0.1,0-0.2-0.1-0.3c-0.1,0-0.1,0-0.2,0
					c-0.1,0-0.2,0-0.3,0.2l0,0C95.6,118,95.7,118.1,95.8,118.2z"/>
			</g>
			<g>
				<path class="st76" d="M93.9,118.9c-0.1,0-0.1,0-0.2-0.1l-0.1,0l0-0.1c0-0.2,0.1-0.5,0.1-0.7c0.4-1,1.6-1.6,2.6-1.2
					c1,0.4,1.6,1.6,1.2,2.6c0,0,0,0,0,0.1l0,0.1l-0.1,0c0,0,0,0,0,0l0,0c-0.1,0-0.3,0-0.4,0c0,0-0.1,0-0.1,0c-0.1,0-0.1,0-0.2,0
					c0,0,0,0-0.1,0l0,0l-0.1,0c0,0,0,0,0,0c0,0,0,0-0.1,0c0,0-0.1,0-0.1,0l0,0c-0.1,0-0.2,0-0.3,0c0,0-0.1,0-0.1,0c0,0-0.1,0-0.1,0
					c-0.1,0-0.1,0-0.2,0c0,0,0,0-0.1,0l0,0c-0.1,0-0.1,0-0.2,0l0,0c0,0-0.1,0-0.1,0l0,0c0,0-0.1,0-0.1,0l0,0c-0.1,0-0.3-0.1-0.4-0.1
					l0,0c0,0,0,0,0,0c0,0-0.1,0-0.1,0l0,0c-0.1,0-0.2-0.1-0.3-0.1c-0.1,0-0.1,0-0.1-0.1c0,0,0,0,0,0l0,0
					C94.1,119,94,118.9,93.9,118.9z M95.2,119.3L95.2,119.3C95.2,119.3,95.2,119.3,95.2,119.3z M93.9,118.7c0.1,0,0.2,0.1,0.3,0.1
					l0,0c0,0,0,0,0,0c0,0,0.1,0,0.1,0.1c0.1,0,0.2,0.1,0.3,0.1l0,0c0,0,0.1,0,0.1,0c0,0,0,0,0,0l0,0c0.1,0,0.3,0.1,0.4,0.1l0,0
					c0,0,0.1,0,0.1,0l0,0c0,0,0,0,0.1,0l0,0l0,0c0.1,0,0.1,0,0.2,0l0,0c0,0,0,0,0.1,0c0.1,0,0.1,0,0.2,0c0,0,0.1,0,0.1,0
					c0,0,0.1,0,0.1,0c0.1,0,0.2,0,0.2,0l0,0l0,0c0.1,0,0.1,0,0.2,0c0,0,0,0,0,0l0,0l0.1,0c0,0,0.1,0,0.1,0c0.1,0,0.1,0,0.2,0
					c0,0,0.1,0,0.1,0c0.1,0,0.3,0,0.4,0l0,0c0.4-1-0.1-2-1.1-2.4c-1-0.4-2,0.1-2.4,1.1C93.9,118.3,93.9,118.5,93.9,118.7z
					 M95.3,119.1C95.3,119.1,95.3,119.1,95.3,119.1L95.3,119.1z"/>
			</g>
			<g>
				<path class="st76" d="M94.2,119L94.2,119c0-0.3,0-0.5,0.1-0.8c0.3-0.8,1.2-1.2,2.1-0.9c0.8,0.3,1.2,1.2,0.9,2.1
					c0,0.1-0.1,0.1-0.1,0.2l0,0l-0.1,0c0,0-0.1,0-0.1,0c-0.1,0-0.1,0-0.2,0c0,0,0,0-0.1,0l0,0l-0.1,0c0,0,0,0,0,0c0,0,0,0-0.1,0
					c0,0-0.1,0-0.1,0l0,0c-0.1,0-0.2,0-0.3,0c0,0-0.1,0-0.1,0c0,0-0.1,0-0.1,0c-0.1,0-0.1,0-0.2,0c0,0,0,0-0.1,0l0,0
					c-0.1,0-0.1,0-0.2,0l0,0c0,0-0.1,0-0.1,0l0,0c0,0-0.1,0-0.1,0l0,0c-0.1,0-0.3-0.1-0.4-0.1l0,0c0,0,0,0,0,0c0,0-0.1,0-0.1,0l0,0
					c-0.1,0-0.2-0.1-0.3-0.1C94.3,119,94.3,119,94.2,119L94.2,119z M95.2,119.3L95.2,119.3C95.2,119.3,95.2,119.3,95.2,119.3z
					 M96.3,117.5c-0.7-0.3-1.6,0.1-1.9,0.8c-0.1,0.2-0.1,0.4-0.1,0.6c0,0,0.1,0,0.1,0c0.1,0,0.2,0.1,0.3,0.1l0,0c0,0,0.1,0,0.1,0
					c0,0,0,0,0,0l0,0c0.1,0,0.3,0.1,0.4,0.1l0,0c0,0,0.1,0,0.1,0l0,0c0,0,0,0,0.1,0l0,0l0,0c0.1,0,0.1,0,0.2,0l0,0c0,0,0,0,0.1,0
					c0.1,0,0.1,0,0.2,0c0,0,0.1,0,0.1,0c0,0,0.1,0,0.1,0c0.1,0,0.2,0,0.2,0l0,0l0,0c0.1,0,0.1,0,0.2,0c0,0,0,0,0,0l0,0l0.1,0
					c0,0,0.1,0,0.1,0c0.1,0,0.1,0,0.2,0c0,0,0,0,0.1,0c0,0,0-0.1,0.1-0.1C97.4,118.6,97,117.8,96.3,117.5z M95.3,119.2
					C95.3,119.2,95.3,119.2,95.3,119.2L95.3,119.2z"/>
			</g>
			<g>
				<path class="st76" d="M94.6,119.1L94.6,119.1c-0.1-0.3-0.1-0.5,0-0.8c0.2-0.6,0.9-0.9,1.5-0.7c0.6,0.2,0.9,0.9,0.7,1.5
					c0,0.1-0.1,0.2-0.2,0.3l0,0l0,0c0,0,0,0-0.1,0c0,0-0.1,0-0.1,0l0,0c-0.1,0-0.2,0-0.3,0c0,0-0.1,0-0.1,0c0,0-0.1,0-0.1,0
					c-0.1,0-0.1,0-0.2,0c0,0,0,0-0.1,0l0,0c-0.1,0-0.1,0-0.2,0l0,0c0,0-0.1,0-0.1,0l0,0c0,0-0.1,0-0.1,0l0,0c-0.1,0-0.3-0.1-0.4-0.1
					l0,0c0,0,0,0,0,0C94.8,119.2,94.7,119.2,94.6,119.1L94.6,119.1z M95.2,119.3L95.2,119.3C95.2,119.3,95.2,119.3,95.2,119.3z
					 M96.1,117.9c-0.5-0.2-1.1,0.1-1.3,0.6c-0.1,0.2-0.1,0.4,0,0.6c0,0,0.1,0,0.1,0c0,0,0,0,0,0l0,0c0.1,0,0.3,0.1,0.4,0.1l0,0
					c0,0,0.1,0,0.1,0l0,0c0,0,0,0,0.1,0l0,0l0,0c0.1,0,0.1,0,0.2,0l0,0c0,0,0,0,0.1,0c0.1,0,0.1,0,0.2,0c0,0,0.1,0,0.1,0
					c0,0,0.1,0,0.1,0c0.1,0,0.2,0,0.2,0l0,0l0,0c0.1,0,0.1,0,0.2,0c0,0,0,0,0,0c0.1-0.1,0.1-0.1,0.1-0.2
					C96.9,118.7,96.6,118.1,96.1,117.9z M95.3,119.2C95.3,119.2,95.3,119.2,95.3,119.2L95.3,119.2z"/>
			</g>
			<g>
				<path class="st76" d="M95.2,119.3L95.2,119.3c-0.2-0.2-0.2-0.5-0.1-0.8c0.1-0.4,0.6-0.6,0.9-0.4c0.4,0.1,0.6,0.6,0.4,0.9
					c-0.1,0.2-0.2,0.3-0.4,0.4l0,0l0,0c0,0-0.1,0-0.1,0c-0.1,0-0.1,0-0.2,0c0,0,0,0-0.1,0l0,0c-0.1,0-0.1,0-0.2,0l0,0
					c0,0-0.1,0-0.1,0l0,0C95.3,119.3,95.3,119.3,95.2,119.3L95.2,119.3z M96,118.3c-0.3-0.1-0.6,0-0.7,0.3c-0.1,0.2,0,0.4,0.1,0.6
					c0,0,0.1,0,0.1,0l0,0c0,0,0,0,0.1,0l0,0l0,0c0.1,0,0.1,0,0.2,0l0,0c0,0,0,0,0.1,0c0.1,0,0.1,0,0.2,0c0,0,0.1,0,0.1,0
					c0.1-0.1,0.2-0.2,0.3-0.3C96.4,118.7,96.3,118.4,96,118.3z"/>
			</g>
		</g>
		<g>
			<g>
				<path class="st79" d="M95.5,114.2v4.9l-2.4,0v-4.4c0-0.1,0.1-0.2,0.1-0.2l2.1-0.5C95.4,114,95.5,114,95.5,114.2z"/>
			</g>
			<g class="st74">
				<path class="st0" d="M93.3,116.7L93.3,116.7c-0.1,0-0.2-0.1-0.2-0.2v-0.2c0-0.1,0.1-0.2,0.2-0.2l0,0c0.1,0,0.2,0.1,0.2,0.2v0.2
					C93.5,116.6,93.4,116.7,93.3,116.7z"/>
			</g>
			<g class="st74">
				<path class="st0" d="M93.8,116.7L93.8,116.7c-0.1,0-0.2-0.1-0.2-0.2v-0.2c0-0.1,0.1-0.2,0.2-0.2l0,0c0.1,0,0.2,0.1,0.2,0.2v0.2
					C94,116.6,93.9,116.7,93.8,116.7z"/>
			</g>
			<g class="st74">
				<path class="st0" d="M94.3,116.7L94.3,116.7c-0.1,0-0.2-0.1-0.2-0.2v-0.2c0-0.1,0.1-0.2,0.2-0.2l0,0c0.1,0,0.2,0.1,0.2,0.2v0.2
					C94.5,116.6,94.4,116.7,94.3,116.7z"/>
			</g>
			<g class="st74">
				<path class="st0" d="M94.8,116.7L94.8,116.7c-0.1,0-0.2-0.1-0.2-0.2v-0.2c0-0.1,0.1-0.2,0.2-0.2l0,0c0.1,0,0.2,0.1,0.2,0.2v0.2
					C95,116.6,94.9,116.7,94.8,116.7z"/>
			</g>
			<g class="st74">
				<path class="st0" d="M95.3,116.7L95.3,116.7c-0.1,0-0.2-0.1-0.2-0.2v-0.2c0-0.1,0.1-0.2,0.2-0.2l0,0c0.1,0,0.2,0.1,0.2,0.2v0.2
					C95.5,116.6,95.4,116.7,95.3,116.7z"/>
			</g>
			<g class="st74">
				<path class="st0" d="M95.5,114.2v0.3c0-0.1-0.1-0.2-0.2-0.2l-2.1,0.5c-0.1,0-0.1,0.1-0.1,0.2v-0.3c0-0.1,0.1-0.2,0.1-0.2
					l2.1-0.5C95.4,114,95.5,114,95.5,114.2z"/>
			</g>
			<g>
				<path class="st76" d="M92.9,119.2v-4.5c0-0.1,0.1-0.3,0.2-0.3l2.1-0.5c0.1,0,0.2,0,0.3,0.1c0.1,0.1,0.1,0.1,0.1,0.2v5
					L92.9,119.2z M95.3,114.1C95.3,114.1,95.3,114.1,95.3,114.1l-2.1,0.5c0,0-0.1,0-0.1,0.1v4.3l2.2,0L95.3,114.1
					C95.4,114.1,95.4,114.1,95.3,114.1C95.3,114.1,95.3,114.1,95.3,114.1z"/>
			</g>
			<g>
				<rect x="93.5" y="114.4" class="st76" width="0.2" height="4.6"/>
			</g>
			<g>
				<rect x="93.9" y="114.3" class="st76" width="0.2" height="4.8"/>
			</g>
			<g>
				<rect x="94.4" y="114.2" class="st76" width="0.2" height="4.9"/>
			</g>
			<g>
				<rect x="94.9" y="114" class="st76" width="0.2" height="5"/>
			</g>
			<g class="st75">
				<path class="st76" d="M95.5,117.3v1.8l-2.4,0v-1.3C93.9,118.1,94.8,117.9,95.5,117.3z"/>
			</g>
		</g>
		<g>
			<g>
				<path class="st79" d="M93.8,119.8C93.8,119.9,93.8,119.9,93.8,119.8C93.8,119.9,93.8,119.9,93.8,119.8c-0.2,0.1-0.3,0.2-0.4,0.2
					c0,0-0.1,0-0.1,0c-0.1,0-0.1,0-0.2,0.1c0,0-0.1,0-0.1,0c0,0,0,0,0,0c0,0,0,0,0,0l0,0l0,0c0,0,0,0,0,0c0,0,0,0-0.1,0
					c-0.1,0-0.1,0-0.2,0c0,0,0,0,0,0c-0.1,0-0.2,0-0.3,0.1c0,0-0.1,0-0.1,0c0,0-0.1,0-0.1,0c-0.1,0-0.1,0-0.2,0c0,0,0,0-0.1,0
					c0,0,0,0,0,0c-0.1,0-0.1,0-0.2,0l0,0c0,0-0.1,0-0.1,0c0,0-0.1,0-0.1,0c0,0,0,0,0,0c-0.1,0-0.3,0-0.4,0.1c0,0,0,0,0,0
					c0,0-0.1,0-0.1,0c0,0,0,0,0,0l0,0c-0.1,0-0.2,0-0.3,0c-0.1,0-0.1,0-0.2,0c0,0,0,0,0,0l0,0c-0.1,0-0.3,0-0.4,0
					c-0.1-0.2-0.1-0.4-0.1-0.7c0-1.1,0.8-2,1.9-2C92.9,117.9,93.8,118.8,93.8,119.8z"/>
			</g>
			<g class="st74">
				<path class="st0" d="M91.5,118.5c0,0,0.1,0,0.1,0c0.1,0,0.2-0.1,0.2-0.2l0,0c0-0.1-0.1-0.2-0.2-0.2c-0.1,0-0.1,0-0.2,0
					c-0.1,0-0.2,0.1-0.2,0.3l0,0C91.3,118.4,91.4,118.5,91.5,118.5z"/>
			</g>
			<g class="st74">
				<path class="st0" d="M91.6,118.9c0,0,0.1,0,0.1,0c0.1,0,0.2-0.1,0.2-0.2l0,0c0-0.1-0.1-0.2-0.2-0.2c-0.1,0-0.1,0-0.2,0
					c-0.1,0-0.2,0.1-0.2,0.3v0C91.4,118.8,91.5,118.9,91.6,118.9z"/>
			</g>
			<g class="st74">
				<path class="st0" d="M91.7,119.3c0,0,0.1,0,0.1,0c0.1,0,0.2-0.1,0.2-0.2l0,0c0-0.1-0.1-0.2-0.2-0.2c-0.1,0-0.1,0-0.2,0
					c-0.1,0-0.2,0.1-0.2,0.3l0,0C91.5,119.2,91.6,119.3,91.7,119.3z"/>
			</g>
			<g>
				<path class="st76" d="M90.3,120.7c-0.1,0-0.1,0-0.2,0l-0.1,0l0-0.1c-0.1-0.2-0.1-0.5-0.1-0.7c0-1.1,0.8-2.1,2-2.1
					c1.1,0,2.1,0.8,2.1,2c0,0,0,0,0,0.1l0,0.1l-0.1,0c0,0,0,0,0,0l0,0c-0.1,0-0.3,0.1-0.4,0.1c0,0-0.1,0-0.1,0c-0.1,0-0.1,0-0.2,0.1
					c0,0,0,0-0.1,0l0,0l-0.1,0c0,0,0,0,0,0c0,0,0,0-0.1,0c0,0-0.1,0-0.1,0l0,0c-0.1,0-0.2,0-0.3,0.1c0,0-0.1,0-0.1,0
					c0,0-0.1,0-0.1,0c-0.1,0-0.1,0-0.2,0c0,0,0,0-0.1,0l0,0c-0.1,0-0.1,0-0.2,0l0,0c0,0-0.1,0-0.1,0l0,0c0,0-0.1,0-0.1,0l0,0
					c-0.1,0-0.3,0-0.4,0.1l0,0c0,0,0,0,0,0c0,0-0.1,0-0.1,0l0,0c-0.1,0-0.2,0-0.3,0c-0.1,0-0.1,0-0.2,0c0,0,0,0,0,0l0,0
					C90.4,120.7,90.3,120.7,90.3,120.7z M91.6,120.6L91.6,120.6C91.6,120.6,91.6,120.6,91.6,120.6z M90.1,120.6c0.1,0,0.2,0,0.4,0
					l0,0c0,0,0,0,0,0c0.1,0,0.1,0,0.2,0c0.1,0,0.2,0,0.3,0l0,0c0,0,0.1,0,0.1,0c0,0,0,0,0,0l0,0c0.1,0,0.3,0,0.4-0.1l0,0
					c0,0,0.1,0,0.1,0l0,0c0,0,0,0,0.1,0l0,0l0,0c0.1,0,0.1,0,0.2,0l0,0c0,0,0,0,0.1,0c0.1,0,0.1,0,0.2,0c0,0,0.1,0,0.1,0
					c0,0,0.1,0,0.1,0c0.1,0,0.2,0,0.2-0.1l0,0l0,0c0.1,0,0.1,0,0.2,0c0,0,0,0,0,0l0,0l0.1,0c0,0,0.1,0,0.1,0c0.1,0,0.1,0,0.2-0.1
					c0,0,0.1,0,0.1,0c0.1,0,0.3-0.1,0.4-0.1l0,0c0-1-0.9-1.8-1.9-1.8c-1,0-1.8,0.9-1.8,1.9C90,120.2,90.1,120.4,90.1,120.6z
					 M91.6,120.4C91.6,120.4,91.6,120.4,91.6,120.4L91.6,120.4z"/>
			</g>
			<g>
				<path class="st76" d="M90.5,120.7L90.5,120.7c-0.1-0.3-0.2-0.5-0.2-0.7c0-0.9,0.7-1.6,1.5-1.6c0.9,0,1.6,0.7,1.6,1.5
					c0,0.1,0,0.1,0,0.2l0,0.1l0,0c0,0-0.1,0-0.1,0c-0.1,0-0.1,0-0.2,0.1c0,0,0,0-0.1,0l0,0l-0.1,0c0,0,0,0,0,0c0,0,0,0-0.1,0
					c0,0-0.1,0-0.1,0l0,0c-0.1,0-0.2,0-0.3,0.1c0,0-0.1,0-0.1,0c0,0-0.1,0-0.1,0c-0.1,0-0.1,0-0.2,0c0,0,0,0-0.1,0l0,0
					c-0.1,0-0.1,0-0.2,0l0,0c0,0-0.1,0-0.1,0l0,0c0,0-0.1,0-0.1,0l0,0c-0.1,0-0.3,0-0.4,0.1l0,0c0,0,0,0,0,0c0,0-0.1,0-0.1,0l0,0
					c-0.1,0-0.2,0-0.3,0C90.6,120.7,90.6,120.7,90.5,120.7L90.5,120.7z M91.6,120.6L91.6,120.6C91.6,120.6,91.6,120.6,91.6,120.6z
					 M91.8,118.5c-0.8,0-1.4,0.7-1.4,1.5c0,0.2,0.1,0.4,0.1,0.6c0,0,0.1,0,0.1,0c0.1,0,0.2,0,0.3,0l0,0c0,0,0.1,0,0.1,0c0,0,0,0,0,0
					l0,0c0.1,0,0.3,0,0.4-0.1l0,0c0,0,0.1,0,0.1,0l0,0c0,0,0,0,0.1,0l0,0l0,0c0.1,0,0.1,0,0.2,0l0,0c0,0,0,0,0.1,0
					c0.1,0,0.1,0,0.2,0c0,0,0.1,0,0.1,0c0,0,0.1,0,0.1,0c0.1,0,0.2,0,0.2-0.1l0,0l0,0c0.1,0,0.1,0,0.2,0c0,0,0,0,0,0l0,0l0.1,0
					c0,0,0.1,0,0.1,0c0.1,0,0.1,0,0.2-0.1c0,0,0,0,0.1,0c0,0,0-0.1,0-0.1C93.3,119.1,92.6,118.5,91.8,118.5z M91.6,120.4
					C91.6,120.4,91.6,120.4,91.6,120.4L91.6,120.4z"/>
			</g>
			<g>
				<path class="st76" d="M91,120.7L91,120.7c-0.2-0.2-0.3-0.5-0.3-0.7c0-0.6,0.5-1.2,1.1-1.2c0.6,0,1.2,0.5,1.2,1.1
					c0,0.1,0,0.2,0,0.4l0,0l0,0c0,0,0,0-0.1,0c0,0-0.1,0-0.1,0l0,0c-0.1,0-0.2,0-0.3,0.1c0,0-0.1,0-0.1,0c0,0-0.1,0-0.1,0
					c-0.1,0-0.1,0-0.2,0c0,0,0,0-0.1,0l0,0c-0.1,0-0.1,0-0.2,0l0,0c0,0-0.1,0-0.1,0l0,0c0,0-0.1,0-0.1,0l0,0c-0.1,0-0.3,0-0.4,0.1
					l0,0c0,0,0,0,0,0C91.1,120.7,91.1,120.7,91,120.7L91,120.7z M91.6,120.6L91.6,120.6C91.6,120.6,91.6,120.6,91.6,120.6z
					 M91.8,118.9c-0.6,0-1,0.5-1,1c0,0.2,0.1,0.4,0.2,0.5c0,0,0.1,0,0.1,0c0,0,0,0,0,0l0,0c0.1,0,0.3,0,0.4-0.1l0,0c0,0,0.1,0,0.1,0
					l0,0c0,0,0,0,0.1,0l0,0l0,0c0.1,0,0.1,0,0.2,0l0,0c0,0,0,0,0.1,0c0.1,0,0.1,0,0.2,0c0,0,0.1,0,0.1,0c0,0,0.1,0,0.1,0
					c0.1,0,0.2,0,0.2-0.1l0,0l0,0c0.1,0,0.1,0,0.2,0c0,0,0,0,0,0c0-0.1,0-0.2,0-0.3C92.9,119.3,92.4,118.9,91.8,118.9z M91.6,120.4
					C91.6,120.4,91.6,120.4,91.6,120.4L91.6,120.4z"/>
			</g>
			<g>
				<path class="st76" d="M91.6,120.6L91.6,120.6c-0.3-0.1-0.4-0.4-0.4-0.6c0-0.4,0.3-0.7,0.7-0.8c0.4,0,0.7,0.3,0.8,0.7
					c0,0.2-0.1,0.4-0.2,0.5l0,0l0,0c0,0-0.1,0-0.1,0c-0.1,0-0.1,0-0.2,0c0,0,0,0-0.1,0l0,0c-0.1,0-0.1,0-0.2,0l0,0c0,0-0.1,0-0.1,0
					l0,0C91.7,120.6,91.7,120.6,91.6,120.6L91.6,120.6z M91.9,119.3c-0.3,0-0.6,0.3-0.5,0.6c0,0.2,0.1,0.4,0.3,0.5c0,0,0.1,0,0.1,0
					l0,0c0,0,0,0,0.1,0l0,0l0,0c0.1,0,0.1,0,0.2,0l0,0c0,0,0,0,0.1,0c0.1,0,0.1,0,0.2,0c0,0,0.1,0,0.1,0c0.1-0.1,0.1-0.2,0.1-0.4
					C92.4,119.6,92.2,119.3,91.9,119.3z"/>
			</g>
		</g>
		<g>
			<g>
				<path class="st79" d="M95.7,120.5C95.7,120.5,95.7,120.5,95.7,120.5C95.7,120.5,95.7,120.6,95.7,120.5c-0.2,0.1-0.3,0.2-0.4,0.2
					c0,0-0.1,0-0.1,0c-0.1,0-0.1,0-0.2,0.1c0,0-0.1,0-0.1,0c0,0,0,0,0,0c0,0,0,0,0,0h0l0,0c0,0,0,0,0,0c0,0,0,0-0.1,0
					c-0.1,0-0.1,0-0.2,0c0,0,0,0,0,0c-0.1,0-0.2,0-0.3,0.1c0,0-0.1,0-0.1,0c0,0-0.1,0-0.1,0c-0.1,0-0.1,0-0.2,0c0,0,0,0-0.1,0
					c0,0,0,0,0,0c-0.1,0-0.1,0-0.2,0l0,0c0,0-0.1,0-0.1,0c-0.1,0-0.1,0-0.1,0c0,0,0,0,0,0c-0.1,0-0.3,0-0.4,0c0,0,0,0,0,0
					c0,0-0.1,0-0.1,0c0,0,0,0,0,0l0,0c-0.1,0-0.2,0-0.3,0c-0.1,0-0.1,0-0.2,0c0,0,0,0,0,0l0,0c-0.1,0-0.3,0-0.4,0
					c-0.1-0.2-0.1-0.4-0.1-0.7c0-1.1,0.9-1.9,1.9-1.9C94.9,118.5,95.7,119.4,95.7,120.5z"/>
			</g>
			<g class="st74">
				<path class="st0" d="M93.5,119c0,0,0.1,0,0.1,0c0.1,0,0.2-0.1,0.2-0.2l0,0c0-0.1-0.1-0.2-0.2-0.2c-0.1,0-0.1,0-0.2,0
					c-0.1,0-0.2,0.1-0.2,0.3l0,0C93.3,118.9,93.4,119,93.5,119z"/>
			</g>
			<g class="st74">
				<path class="st0" d="M93.6,119.4c0,0,0.1,0,0.1,0c0.1,0,0.2-0.1,0.2-0.2l0,0c0-0.1-0.1-0.2-0.2-0.2c-0.1,0-0.1,0-0.2,0
					c-0.1,0-0.2,0.1-0.2,0.3l0,0C93.3,119.3,93.4,119.4,93.6,119.4z"/>
			</g>
			<g class="st74">
				<path class="st0" d="M93.6,119.9c0,0,0.1,0,0.1,0c0.1,0,0.2-0.1,0.2-0.2l0,0c0-0.1-0.1-0.2-0.2-0.2c-0.1,0-0.1,0-0.2,0
					c-0.1,0-0.2,0.1-0.2,0.3l0,0C93.4,119.8,93.5,119.9,93.6,119.9z"/>
			</g>
			<g>
				<path class="st76" d="M92.2,121.2c-0.1,0-0.1,0-0.2,0l-0.1,0l0-0.1c-0.1-0.2-0.1-0.5-0.1-0.7c0-1.1,0.9-2,2-2c1.1,0,2,0.9,2,2
					c0,0,0,0,0,0.1l0,0.1l-0.1,0c0,0,0,0,0,0l0,0c-0.1,0-0.3,0.1-0.4,0.1c0,0-0.1,0-0.1,0c-0.1,0-0.1,0-0.2,0.1c0,0,0,0-0.1,0v0
					l-0.1,0c0,0,0,0,0,0c0,0,0,0-0.1,0c0,0-0.1,0-0.1,0l0,0c-0.1,0-0.2,0-0.3,0.1c0,0-0.1,0-0.1,0c0,0-0.1,0-0.1,0
					c-0.1,0-0.1,0-0.2,0c0,0,0,0-0.1,0l0,0c-0.1,0-0.1,0-0.2,0l0,0c0,0-0.1,0-0.1,0l0,0c0,0-0.1,0-0.1,0l0,0c-0.1,0-0.3,0-0.4,0l0,0
					c0,0,0,0,0,0c0,0-0.1,0-0.1,0l0,0c-0.1,0-0.2,0-0.3,0c-0.1,0-0.1,0-0.2,0c0,0,0,0,0,0l0,0C92.3,121.2,92.2,121.2,92.2,121.2z
					 M93.5,121.1L93.5,121.1C93.5,121.1,93.5,121.1,93.5,121.1z M92,121.1c0.1,0,0.2,0,0.4,0l0,0c0,0,0,0,0,0c0.1,0,0.1,0,0.2,0
					c0.1,0,0.2,0,0.3,0l0,0c0,0,0.1,0,0.1,0c0,0,0,0,0,0l0,0c0.1,0,0.3,0,0.4,0l0,0c0,0,0.1,0,0.1,0l0,0c0,0,0,0,0.1,0l0,0l0,0
					c0.1,0,0.1,0,0.2,0l0,0c0,0,0,0,0.1,0c0.1,0,0.1,0,0.2,0c0,0,0.1,0,0.1,0c0,0,0.1,0,0.1,0c0.1,0,0.2,0,0.2-0.1l0,0l0,0
					c0.1,0,0.1,0,0.2,0c0,0,0,0,0,0v0l0.1,0c0,0,0.1,0,0.1,0c0.1,0,0.1,0,0.2-0.1c0,0,0.1,0,0.1,0c0.1,0,0.3-0.1,0.4-0.1l0,0
					c0-1-0.8-1.9-1.9-1.9c-1,0-1.9,0.8-1.9,1.9C91.9,120.7,92,120.9,92,121.1z M93.5,121C93.5,121,93.5,121,93.5,121L93.5,121z"/>
			</g>
			<g>
				<path class="st76" d="M92.4,121.2L92.4,121.2c-0.1-0.3-0.2-0.5-0.2-0.7c0-0.9,0.7-1.6,1.6-1.6c0.9,0,1.6,0.7,1.6,1.6
					c0,0.1,0,0.1,0,0.2l0,0l0,0c0,0-0.1,0-0.1,0c-0.1,0-0.1,0-0.2,0.1c0,0,0,0-0.1,0v0l-0.1,0c0,0,0,0,0,0c0,0,0,0-0.1,0
					c0,0-0.1,0-0.1,0l0,0c-0.1,0-0.2,0-0.3,0.1c0,0-0.1,0-0.1,0c0,0-0.1,0-0.1,0c-0.1,0-0.1,0-0.2,0c0,0,0,0-0.1,0l0,0
					c-0.1,0-0.1,0-0.2,0l0,0c0,0-0.1,0-0.1,0l0,0c0,0-0.1,0-0.1,0l0,0c-0.1,0-0.3,0-0.4,0l0,0c0,0,0,0,0,0c0,0-0.1,0-0.1,0l0,0
					c-0.1,0-0.2,0-0.3,0C92.5,121.2,92.5,121.2,92.4,121.2L92.4,121.2z M93.5,121.1L93.5,121.1C93.5,121.1,93.5,121.1,93.5,121.1z
					 M93.8,119c-0.8,0-1.4,0.6-1.4,1.4c0,0.2,0,0.4,0.1,0.6c0,0,0.1,0,0.1,0c0.1,0,0.2,0,0.3,0l0,0c0,0,0.1,0,0.1,0c0,0,0,0,0,0l0,0
					c0.1,0,0.3,0,0.4,0l0,0c0,0,0.1,0,0.1,0l0,0c0,0,0,0,0.1,0l0,0l0,0c0.1,0,0.1,0,0.2,0l0,0c0,0,0,0,0.1,0c0.1,0,0.1,0,0.2,0
					c0,0,0.1,0,0.1,0c0,0,0.1,0,0.1,0c0.1,0,0.2,0,0.2-0.1l0,0l0,0c0.1,0,0.1,0,0.2,0c0,0,0,0,0,0v0l0.1,0c0,0,0.1,0,0.1,0
					c0.1,0,0.1,0,0.2-0.1c0,0,0,0,0.1,0c0,0,0-0.1,0-0.1C95.2,119.7,94.6,119,93.8,119z M93.5,121C93.5,121,93.5,121,93.5,121
					L93.5,121z"/>
			</g>
			<g>
				<path class="st76" d="M92.9,121.2L92.9,121.2c-0.2-0.2-0.2-0.5-0.2-0.7c0-0.6,0.5-1.2,1.2-1.2c0.6,0,1.2,0.5,1.2,1.2
					c0,0.1,0,0.2-0.1,0.3l0,0l0,0c0,0,0,0-0.1,0c0,0-0.1,0-0.1,0l0,0c-0.1,0-0.2,0-0.3,0.1c0,0-0.1,0-0.1,0c0,0-0.1,0-0.1,0
					c-0.1,0-0.1,0-0.2,0c0,0,0,0-0.1,0l0,0c-0.1,0-0.1,0-0.2,0l0,0c0,0-0.1,0-0.1,0l0,0c0,0-0.1,0-0.1,0l0,0c-0.1,0-0.3,0-0.4,0l0,0
					c0,0,0,0,0,0C93,121.2,93,121.2,92.9,121.2L92.9,121.2z M93.5,121.1L93.5,121.1C93.5,121.1,93.5,121.1,93.5,121.1z M93.8,119.5
					c-0.6,0-1,0.5-1,1c0,0.2,0.1,0.4,0.2,0.6c0,0,0.1,0,0.1,0c0,0,0,0,0,0l0,0c0.1,0,0.3,0,0.4,0l0,0c0,0,0.1,0,0.1,0l0,0
					c0,0,0,0,0.1,0l0,0l0,0c0.1,0,0.1,0,0.2,0l0,0c0,0,0,0,0.1,0c0.1,0,0.1,0,0.2,0c0,0,0.1,0,0.1,0c0,0,0.1,0,0.1,0
					c0.1,0,0.2,0,0.2-0.1l0,0l0,0c0.1,0,0.1,0,0.2,0c0,0,0,0,0,0c0-0.1,0-0.2,0-0.3C94.8,119.9,94.4,119.5,93.8,119.5z M93.5,121
					C93.5,121,93.5,121,93.5,121L93.5,121z"/>
			</g>
			<g>
				<path class="st76" d="M93.5,121.1L93.5,121.1c-0.3-0.1-0.4-0.4-0.4-0.7c0-0.4,0.3-0.7,0.7-0.7c0.4,0,0.7,0.3,0.7,0.7
					c0,0.2-0.1,0.4-0.2,0.5l0,0l0,0c0,0-0.1,0-0.1,0c-0.1,0-0.1,0-0.2,0c0,0,0,0-0.1,0l0,0c-0.1,0-0.1,0-0.2,0l0,0c0,0-0.1,0-0.1,0
					l0,0C93.6,121.1,93.6,121.1,93.5,121.1L93.5,121.1z M93.8,119.9c-0.3,0-0.6,0.3-0.6,0.6c0,0.2,0.1,0.4,0.3,0.5c0,0,0.1,0,0.1,0
					l0,0c0,0,0,0,0.1,0l0,0l0,0c0.1,0,0.1,0,0.2,0l0,0c0,0,0,0,0.1,0c0.1,0,0.1,0,0.2,0c0,0,0.1,0,0.1,0c0.1-0.1,0.1-0.2,0.1-0.4
					C94.4,120.2,94.1,119.9,93.8,119.9z"/>
			</g>
		</g>
		<g>
			<g>
				<path class="st79" d="M93.9,121c-0.1,0-0.1,0-0.2,0l0,0c0,0-0.1,0-0.1,0c-0.1,0-0.1,0-0.2,0c-0.1,0-0.3,0-0.4,0c0,0,0,0,0,0
					c-0.1,0-0.1,0-0.2,0l0,0c-0.1,0-0.2,0-0.3,0c-0.1,0-0.1,0-0.2,0l0,0c-0.3,0-0.5,0-0.7,0c-0.1,0-0.1,0-0.2,0c-0.1,0-0.3,0-0.4,0
					h0l0,0h0l0,0c0,0-0.1,0-0.1,0c-0.2,0-0.3-0.1-0.4-0.1c0,0,0,0,0,0c0,0-0.1,0-0.1,0c-0.1,0-0.2-0.1-0.3-0.1
					c0.3-0.8,1-1.3,1.8-1.3c0.5,0,1,0.2,1.3,0.5C93.6,120.3,93.8,120.6,93.9,121z"/>
			</g>
			<g class="st74">
				<path class="st0" d="M91.7,120c0,0,0.1,0,0.1,0c0.1,0,0.2-0.1,0.2-0.3l0,0c0-0.1-0.1-0.2-0.3-0.2c-0.1,0-0.1,0-0.2,0
					c-0.1,0-0.2,0.2-0.1,0.3v0C91.4,120,91.6,120,91.7,120z"/>
			</g>
			<g class="st74">
				<path class="st0" d="M91.8,120.4c0,0,0.1,0,0.1,0c0.1,0,0.2-0.1,0.2-0.2l0,0c0-0.1-0.1-0.2-0.2-0.2c-0.1,0-0.1,0-0.2,0
					c-0.1,0-0.2,0.1-0.2,0.2l0,0C91.6,120.4,91.7,120.4,91.8,120.4z"/>
			</g>
			<g class="st74">
				<path class="st0" d="M91.9,120.8c0,0,0.1,0,0.1,0c0.1,0,0.2-0.1,0.2-0.2l0,0c0-0.1-0.1-0.2-0.2-0.2c-0.1,0-0.1,0-0.2,0
					c-0.1,0-0.2,0.1-0.2,0.2l0,0C91.7,120.8,91.8,120.9,91.9,120.8z"/>
			</g>
			<g>
				<path class="st76" d="M92.2,121.2c-0.2,0-0.5,0-0.7,0c-0.1,0-0.2,0-0.4,0l0,0c0,0-0.1,0-0.1,0c-0.2,0-0.3-0.1-0.4-0.1
					c0,0,0,0,0,0l0,0c0,0-0.1,0-0.1,0c-0.1,0-0.2-0.1-0.3-0.1l-0.1,0l0-0.1c0.3-0.8,1.1-1.4,1.9-1.4c0.9,0,1.7,0.6,2,1.5l0,0.1
					l-0.1,0c-0.1,0-0.1,0-0.2,0l0,0c0,0-0.1,0-0.1,0c-0.1,0-0.1,0-0.2,0c-0.1,0-0.3,0-0.4,0l0,0c0,0,0,0,0,0c-0.1,0-0.1,0-0.2,0l0,0
					c-0.1,0-0.2,0-0.3,0c-0.1,0-0.1,0-0.2,0l0,0C92.3,121.2,92.2,121.2,92.2,121.2z M91.1,121L91.1,121c0.1,0,0.2,0,0.4,0
					c0.3,0,0.6,0,0.9,0l0,0l0,0c0.1,0,0.1,0,0.2,0c0.1,0,0.2,0,0.3,0l0,0c0,0,0.1,0,0.2,0c0,0,0,0,0,0l0,0c0.1,0,0.3,0,0.4,0
					c0.1,0,0.1,0,0.2,0c0,0,0,0,0.1,0l0,0l0,0c0,0,0.1,0,0.1,0c-0.2-0.8-1-1.3-1.8-1.3c-0.8,0-1.5,0.5-1.7,1.2c0.1,0,0.1,0,0.2,0.1
					c0,0,0.1,0,0.1,0l0,0C90.8,120.9,90.9,121,91.1,121C91.1,121,91.1,121,91.1,121L91.1,121z"/>
			</g>
			<g>
				<path class="st76" d="M92.2,121.2c-0.2,0-0.5,0-0.7,0c-0.1,0-0.2,0-0.4,0l0,0c0,0-0.1,0-0.1,0c-0.2,0-0.3-0.1-0.4-0.1l-0.1,0
					l0-0.1c0.2-0.6,0.8-1.1,1.5-1.1c0.7,0,1.3,0.5,1.5,1.2l0,0.1l-0.1,0c-0.1,0-0.3,0-0.4,0l0,0c0,0,0,0,0,0c-0.1,0-0.1,0-0.2,0l0,0
					c-0.1,0-0.2,0-0.3,0c-0.1,0-0.1,0-0.2,0l0,0C92.3,121.2,92.2,121.2,92.2,121.2z M91.1,121L91.1,121c0.1,0,0.2,0,0.4,0
					c0.3,0,0.6,0,0.9,0l0,0l0,0c0.1,0,0.1,0,0.2,0c0.1,0,0.2,0,0.3,0l0,0c0,0,0.1,0,0.2,0c0,0,0,0,0,0l0,0c0.1,0,0.2,0,0.3,0
					c-0.2-0.6-0.7-1-1.4-1c-0.6,0-1.1,0.4-1.3,0.9C90.8,121,90.9,121,91.1,121C91.1,121,91.1,121,91.1,121L91.1,121z"/>
			</g>
			<g>
				<path class="st76" d="M92.2,121.2c-0.2,0-0.5,0-0.7,0c-0.1,0-0.2,0-0.4,0l0,0c0,0-0.1,0-0.1,0l-0.1,0l0-0.1
					c0.2-0.4,0.6-0.7,1.1-0.7c0.5,0,0.9,0.3,1.1,0.8l0,0.1l-0.1,0c-0.1,0-0.1,0-0.2,0l0,0c-0.1,0-0.2,0-0.3,0c-0.1,0-0.1,0-0.2,0
					l0,0C92.3,121.2,92.2,121.2,92.2,121.2z M91.1,121c0.1,0,0.2,0,0.3,0c0.3,0,0.6,0,0.9,0l0,0l0,0c0.1,0,0.1,0,0.2,0
					c0.1,0,0.2,0,0.3,0l0,0c0,0,0,0,0,0c-0.2-0.3-0.5-0.6-0.9-0.6C91.7,120.5,91.3,120.7,91.1,121z"/>
			</g>
			<g>
				<path class="st76" d="M92.2,121.2c-0.2,0-0.5,0-0.7,0l-0.1,0l0.1-0.1c0.1-0.2,0.4-0.3,0.6-0.3c0.3,0,0.5,0.1,0.6,0.4l0.1,0.1
					l-0.1,0c-0.1,0-0.1,0-0.2,0l0,0C92.3,121.2,92.2,121.2,92.2,121.2z M91.6,121.1c0.2,0,0.5,0,0.7,0l0,0l0,0c0,0,0,0,0,0
					c-0.1-0.1-0.2-0.2-0.4-0.2C91.9,120.9,91.8,121,91.6,121.1z"/>
			</g>
			<g class="st75">
				<path class="st76" d="M93.9,121c-0.1,0-0.1,0-0.2,0l0,0c0,0-0.1,0-0.1,0c-0.1,0-0.1,0-0.2,0c-0.1,0-0.3,0-0.4,0c0,0,0,0,0,0
					c-0.1,0-0.1,0-0.2,0l0,0c-0.1,0-0.2,0-0.3,0c-0.1,0-0.1,0-0.2,0l0,0c-0.3,0-0.5,0-0.7,0c0.5-0.1,1.1-0.4,1.7-1.1
					C93.6,120.3,93.8,120.6,93.9,121z"/>
			</g>
		</g>
		<g>
			<g>
				<path class="st79" d="M97.5,119.6c0,0-0.1,0.1-0.2,0.1c-0.1,0-0.1,0.1-0.2,0.1c0,0-0.1,0-0.1,0.1c-0.1,0.1-0.2,0.1-0.3,0.2
					c0,0-0.1,0-0.1,0.1c0,0-0.1,0-0.1,0c0,0,0,0,0,0c-0.1,0-0.1,0.1-0.2,0.1c-0.2,0.1-0.3,0.1-0.5,0.2c0,0-0.1,0-0.1,0.1
					c-0.2,0.1-0.3,0.1-0.5,0.2c-0.1,0-0.1,0-0.2,0.1c0,0-0.1,0-0.1,0c0,0,0,0,0,0c0,0,0,0,0,0h0l0,0c0,0-0.1,0-0.1,0
					c-0.1,0-0.1,0-0.2,0c0,0,0,0,0,0c-0.1,0-0.2,0-0.3,0.1c-0.1,0-0.1,0-0.2,0c-0.1,0-0.1,0-0.2,0c0,0,0,0-0.1,0c0-0.1,0-0.2,0-0.3
					c0-0.1,0-0.2,0-0.3c0.2-0.9,1-1.6,1.9-1.6c0.1,0,0.3,0,0.4,0C96.8,118.9,97.2,119.2,97.5,119.6z"/>
			</g>
			<g class="st74">
				<path class="st0" d="M95.1,119.4c0,0,0.1,0,0.1-0.1c0.1-0.1,0.2-0.2,0.1-0.3l0,0c-0.1-0.1-0.2-0.2-0.3-0.1
					c-0.1,0-0.1,0.1-0.2,0.1c-0.1,0.1-0.1,0.2-0.1,0.3l0,0C94.9,119.4,95,119.4,95.1,119.4z"/>
			</g>
			<g class="st74">
				<path class="st0" d="M95.3,119.7c0,0,0.1,0,0.1-0.1c0.1-0.1,0.2-0.2,0.1-0.3l0,0c-0.1-0.1-0.2-0.2-0.3-0.1
					c-0.1,0-0.1,0.1-0.2,0.1c-0.1,0.1-0.1,0.2-0.1,0.3l0,0C95.1,119.7,95.2,119.8,95.3,119.7z"/>
			</g>
			<g class="st74">
				<path class="st0" d="M95.5,120.1c0,0,0.1,0,0.1,0c0.1,0,0.2-0.2,0.1-0.3l0,0c0-0.1-0.2-0.2-0.3-0.1c-0.1,0-0.1,0-0.2,0.1
					c-0.1,0.1-0.2,0.2-0.1,0.3l0,0C95.3,120.1,95.4,120.1,95.5,120.1z"/>
			</g>
			<g class="st75">
				<path class="st76" d="M97.5,119.6c0,0-0.1,0.1-0.2,0.1c-0.1,0-0.1,0.1-0.2,0.1c0,0-0.1,0-0.1,0.1c-0.1,0.1-0.2,0.1-0.3,0.2
					c0,0-0.1,0-0.1,0.1c0,0-0.1,0-0.1,0c0,0,0,0,0,0c-0.1,0-0.1,0.1-0.2,0.1c-0.2,0.1-0.3,0.1-0.5,0.2c0,0-0.1,0-0.1,0.1
					c-0.2,0.1-0.3,0.1-0.5,0.2c-0.1,0-0.1,0-0.2,0.1c0,0-0.1,0-0.1,0c0,0,0,0,0,0c0,0,0,0,0,0h0l0,0c0,0-0.1,0-0.1,0
					c-0.1,0-0.1,0-0.2,0c0,0,0,0,0,0c-0.1,0-0.2,0-0.3,0.1c-0.1,0-0.1,0-0.2,0c-0.1,0-0.1,0-0.2,0c0,0,0,0-0.1,0c0-0.1,0-0.2,0-0.3
					c0-0.1,0-0.2,0-0.3c1.7,0.2,2.6-0.2,2.3-1.6C96.8,118.9,97.2,119.2,97.5,119.6z"/>
			</g>
			<g>
				<path class="st76" d="M93.9,121.1L93.9,121.1c0-0.2,0-0.3,0-0.4c0-1.1,0.9-2,2-2c0.7,0,1.3,0.4,1.7,1l0,0.1l-0.1,0
					c0,0-0.1,0.1-0.2,0.1c-0.1,0-0.1,0.1-0.2,0.1c0,0-0.1,0-0.1,0.1c-0.1,0.1-0.2,0.1-0.3,0.2c0,0-0.1,0-0.1,0.1c0,0-0.1,0-0.1,0
					l0,0c-0.1,0-0.1,0.1-0.2,0.1c-0.2,0.1-0.4,0.1-0.5,0.2c0,0-0.1,0-0.1,0.1c-0.2,0.1-0.3,0.1-0.5,0.2c-0.1,0-0.1,0-0.2,0.1
					c0,0,0,0-0.1,0v0l-0.1,0c0,0,0,0,0,0l0,0c0,0,0,0-0.1,0c0,0-0.1,0-0.1,0l0,0c-0.1,0-0.2,0-0.3,0.1c-0.1,0-0.1,0-0.2,0
					c-0.1,0-0.1,0-0.2,0C94,121.1,94,121.1,93.9,121.1L93.9,121.1z M95.8,118.8c-1,0-1.9,0.8-1.9,1.9c0,0.1,0,0.2,0,0.2
					c0,0,0.1,0,0.1,0c0.1,0,0.1,0,0.2,0c0.1,0,0.2,0,0.2-0.1l0,0l0,0c0.1,0,0.1,0,0.2,0c0,0,0,0,0,0v0l0.1,0c0,0,0.1,0,0.1,0
					c0.1,0,0.1,0,0.2-0.1c0.2,0,0.3-0.1,0.5-0.2c0.1,0,0.1,0,0.1-0.1c0.2-0.1,0.4-0.1,0.5-0.2c0.1,0,0.1,0,0.2-0.1l0,0
					c0,0,0.1,0,0.1,0c0,0,0.1,0,0.1-0.1c0.1-0.1,0.2-0.1,0.3-0.2c0,0,0.1,0,0.1-0.1c0.1,0,0.1-0.1,0.2-0.1c0,0,0.1,0,0.1-0.1
					C97,119.1,96.5,118.8,95.8,118.8z"/>
			</g>
			<g>
				<path class="st76" d="M94.3,121L94.3,121c0-0.2,0-0.3,0-0.3c0-0.9,0.7-1.6,1.6-1.6c0.6,0,1.1,0.3,1.4,0.8l0,0.1l-0.1,0
					c0,0-0.1,0-0.1,0.1c-0.1,0.1-0.2,0.1-0.3,0.2c0,0-0.1,0-0.1,0.1c0,0-0.1,0-0.1,0l0,0c-0.1,0-0.1,0.1-0.2,0.1
					c-0.2,0.1-0.4,0.1-0.5,0.2c0,0-0.1,0-0.1,0.1c-0.2,0.1-0.3,0.1-0.5,0.2c-0.1,0-0.1,0-0.2,0.1c0,0,0,0-0.1,0v0l-0.1,0
					c0,0,0,0,0,0l0,0c0,0,0,0-0.1,0c0,0-0.1,0-0.1,0l0,0C94.5,121,94.5,121,94.3,121L94.3,121z M95.8,119.2c-0.8,0-1.4,0.6-1.4,1.4
					c0,0.1,0,0.1,0,0.2c0.1,0,0.1,0,0.2,0l0,0l0,0c0.1,0,0.1,0,0.2,0c0,0,0,0,0,0v0l0.1,0c0,0,0.1,0,0.1,0c0.1,0,0.1,0,0.2-0.1
					c0.2,0,0.3-0.1,0.5-0.2c0.1,0,0.1,0,0.1-0.1c0.2-0.1,0.4-0.1,0.5-0.2c0.1,0,0.1,0,0.2-0.1l0,0c0,0,0.1,0,0.1,0
					c0,0,0.1,0,0.1-0.1c0.1-0.1,0.2-0.1,0.3-0.2c0,0,0,0,0,0C96.8,119.5,96.3,119.2,95.8,119.2z"/>
			</g>
			<g>
				<path class="st76" d="M94.7,120.9L94.7,120.9c0-0.1,0-0.2,0-0.3c0-0.6,0.5-1.2,1.2-1.2c0.4,0,0.8,0.2,1,0.6l0,0.1l-0.1,0
					c0,0-0.1,0-0.1,0.1c0,0-0.1,0-0.1,0l0,0c-0.1,0-0.1,0.1-0.2,0.1c-0.2,0.1-0.4,0.1-0.5,0.2c0,0-0.1,0-0.1,0.1
					c-0.2,0.1-0.3,0.1-0.5,0.2c-0.1,0-0.1,0-0.2,0.1c0,0,0,0-0.1,0v0l-0.1,0c0,0,0,0,0,0l0,0C94.8,120.9,94.8,120.9,94.7,120.9
					L94.7,120.9z M95.8,119.7c-0.6,0-1,0.5-1,1c0,0,0,0,0,0.1l0,0c0,0,0.1,0,0.1,0c0.1,0,0.1,0,0.2-0.1c0.2,0,0.3-0.1,0.5-0.2
					c0.1,0,0.1,0,0.1-0.1c0.2-0.1,0.4-0.1,0.5-0.2c0.1,0,0.1,0,0.2-0.1l0,0c0,0,0.1,0,0.1,0c0,0,0,0,0,0
					C96.5,119.8,96.2,119.7,95.8,119.7z"/>
			</g>
			<g>
				<path class="st76" d="M95.1,120.8L95.1,120.8c0-0.1,0-0.1,0-0.1c0-0.4,0.3-0.7,0.7-0.7c0.2,0,0.5,0.1,0.6,0.3l0.1,0.1l-0.1,0
					c-0.2,0.1-0.4,0.1-0.5,0.2c0,0-0.1,0-0.1,0.1C95.6,120.7,95.4,120.7,95.1,120.8L95.1,120.8z M95.8,120.1c-0.3,0-0.5,0.2-0.6,0.5
					c0.1,0,0.3-0.1,0.4-0.1c0.1,0,0.1,0,0.1-0.1c0.2-0.1,0.3-0.1,0.4-0.2C96.1,120.2,96,120.1,95.8,120.1z"/>
			</g>
		</g>
		<g>
			<g>
				<path class="st76" d="M92.2,121.2c-0.4,0-0.7,0-1-0.1l0,0l0,0c-0.2,0-0.4-0.1-0.6-0.1c0,0-0.1,0-0.1,0c-0.2,0-0.3-0.1-0.4-0.1
					c-0.2-0.1-0.3-0.2-0.4-0.3c0,0,0-0.1,0-0.1c0,0,0.1,0,0.1,0c0.1,0.1,0.2,0.2,0.4,0.2c0.1,0,0.2,0.1,0.4,0.1c0,0,0.1,0,0.1,0
					c0.2,0,0.3,0.1,0.5,0.1l0,0c0.4,0.1,0.8,0.1,1.3,0.1l0,0c0.2,0,0.3,0,0.5,0l0,0c0.1,0,0.1,0,0.2,0c0.2,0,0.4,0,0.5-0.1
					c0,0,0.1,0,0.1,0c0.1,0,0.2,0,0.3,0c0.1,0,0.1,0,0.2,0c0.2,0,0.3-0.1,0.5-0.1l0,0l0,0c0.1,0,0.1,0,0.2,0l0,0l0.1,0
					c0,0,0.1,0,0.1,0c0.2-0.1,0.5-0.1,0.7-0.2c0,0,0.1,0,0.1-0.1c0.2-0.1,0.5-0.2,0.7-0.3c0,0,0,0,0,0c0,0,0.1,0,0.1,0
					c0.1-0.1,0.3-0.1,0.4-0.2c0.1-0.1,0.2-0.1,0.3-0.2c0.4-0.3,0.6-0.6,0.6-0.7c0,0,0-0.1,0.1-0.1c0,0,0.1,0,0.1,0.1
					c0,0.2-0.2,0.6-0.7,0.9c-0.1,0.1-0.2,0.1-0.3,0.2c-0.1,0.1-0.3,0.1-0.4,0.2c0,0-0.1,0-0.1,0c0,0,0,0,0,0
					c-0.2,0.1-0.5,0.2-0.7,0.3c0,0-0.1,0-0.1,0.1c-0.2,0.1-0.4,0.1-0.7,0.2c0,0-0.1,0-0.1,0l0,0c0,0,0,0,0,0l0,0
					c-0.1,0-0.2,0-0.2,0.1l0,0l0,0c-0.2,0-0.3,0.1-0.5,0.1c-0.1,0-0.1,0-0.2,0c-0.1,0-0.2,0-0.3,0c0,0-0.1,0-0.1,0
					c-0.2,0-0.4,0-0.6,0.1c-0.1,0-0.1,0-0.2,0l0,0c-0.2,0-0.3,0-0.5,0l0,0C92.3,121.2,92.2,121.2,92.2,121.2z"/>
			</g>
		</g>
		<g>
			<g>
				<g>
					<path class="st76" d="M92.2,121.2c-0.4,0-0.7,0-1-0.1l0,0l0,0c-0.2,0-0.4-0.1-0.6-0.1c0,0-0.1,0-0.1,0c-0.2,0-0.3-0.1-0.4-0.1
						c-0.2-0.1-0.3-0.2-0.4-0.3c0,0,0-0.1,0-0.1c0,0,0.1,0,0.1,0c0.1,0.1,0.2,0.2,0.4,0.2c0.1,0,0.2,0.1,0.4,0.1c0,0,0.1,0,0.1,0
						c0.2,0,0.3,0.1,0.5,0.1l0,0c0.4,0.1,0.8,0.1,1.3,0.1l0,0l0,0c0.2,0,0.3,0,0.5,0l0,0c0.1,0,0.1,0,0.2,0c0.2,0,0.4,0,0.5-0.1
						c0,0,0.1,0,0.1,0c0.1,0,0.2,0,0.3,0c0.1,0,0.1,0,0.2,0c0.2,0,0.3-0.1,0.5-0.1l0,0l0,0c0.1,0,0.1,0,0.2,0l0,0l0.1,0
						c0,0,0.1,0,0.1,0c0.2-0.1,0.5-0.1,0.7-0.2c0,0,0.1,0,0.1-0.1c0.2-0.1,0.5-0.2,0.7-0.3c0,0,0,0,0,0c0,0,0.1,0,0.1,0
						c0.1-0.1,0.3-0.1,0.4-0.2c0.1-0.1,0.2-0.1,0.3-0.2c0.4-0.3,0.6-0.6,0.6-0.7c0,0,0-0.1,0.1-0.1c0,0,0.1,0,0.1,0.1
						c0,0.2-0.2,0.6-0.7,0.9c-0.1,0.1-0.2,0.1-0.3,0.2c-0.1,0.1-0.3,0.1-0.4,0.2c0,0-0.1,0-0.1,0c0,0,0,0,0,0
						c-0.2,0.1-0.5,0.2-0.7,0.3c0,0-0.1,0-0.1,0.1c-0.2,0.1-0.5,0.1-0.7,0.2c0,0-0.1,0-0.1,0l0,0c0,0,0,0,0,0l0,0
						c-0.1,0-0.2,0-0.2,0.1l0,0l0,0c-0.2,0-0.3,0.1-0.5,0.1c-0.1,0-0.1,0-0.2,0c-0.1,0-0.2,0-0.3,0c0,0-0.1,0-0.1,0
						c-0.2,0-0.4,0-0.6,0.1c-0.1,0-0.1,0-0.2,0l0,0c-0.2,0-0.3,0-0.5,0l0,0C92.3,121.2,92.2,121.2,92.2,121.2z"/>
				</g>
			</g>
		</g>
	</g>
</g>
</svg>
