<?xml version="1.0" encoding="utf-8"?>
<!-- Generator: Adobe Illustrator 23.0.5, SVG Export Plug-In . SVG Version: 6.00 Build 0)  -->
<svg version="1.1" id="Layer_1" xmlns="http://www.w3.org/2000/svg" xmlns:xlink="http://www.w3.org/1999/xlink" x="0px" y="0px"
	 viewBox="0 0 485 374.1" style="enable-background:new 0 0 485 374.1;" xml:space="preserve">
<style type="text/css">
	.st0{fill:#AD442F;}
	.st1{fill:#FFBB83;}
	.st2{fill:#B7AE42;}
	.st3{fill:#CEC14A;}
	.st4{fill:#84281F;}
	.st5{fill:#963323;}
	.st6{fill:#BC4835;}
	.st7{fill:#FFE2A9;}
	.st8{fill:#F4CE89;}
	.st9{fill:#DD5845;}
	.st10{fill:#562723;}
	.st11{fill:#441B19;}
	.st12{fill:#F9EACA;}
	.st13{fill:#F4D59F;}
	.st14{fill:#FF697F;}
	.st15{fill:#ED7656;}
	.st16{fill:#FF9D66;}
	.st17{fill:#6B2D38;}
	.st18{fill:#CE3E5D;}
	.st19{fill:#BF1B46;}
	.st20{fill:#F45372;}
	.st21{fill:#604748;}
	.st22{fill:#422931;}
	.st23{fill:#FFEFDC;}
	.st24{fill:#FFEFD4;}
	.st25{fill:#FFB164;}
	.st26{fill:#FF3964;}
	.st27{fill:#443137;}
	.st28{fill:#60454B;}
	.st29{fill:#4F383E;}
	.st30{fill:#317A91;}
	.st31{fill:#F2CA91;}
	.st32{fill:#5395B7;}
	.st33{fill:#3D88A5;}
	.st34{fill:#FFF4D7;}
	.st35{fill:#FFEBCA;}
	.st36{fill:#A5482B;}
	.st37{fill:#F9DEB7;}
	.st38{fill:#EDCC9F;}
	.st39{fill:#F75C76;}
	.st40{fill:#6B9DC6;}
	.st41{fill:#4F8DAF;}
	.st42{fill:#6B4752;}
	.st43{fill:#E04E2D;}
	.st44{fill:#4F373D;}
	.st45{fill:#EDD0AE;}
	.st46{fill:#E24466;}
	.st47{fill:#FFF1DC;}
	.st48{fill:#492E36;}
	.st49{fill:#F9EBD7;}
	.st50{fill:#A55723;}
	.st51{fill:#D3842D;}
	.st52{fill:#FFAD40;}
	.st53{fill:#ED9832;}
	.st54{fill:#FFCE43;}
	.st55{fill:#5B4D3E;}
	.st56{fill:#544232;}
	.st57{fill:#EFDBCE;}
	.st58{enable-background:new    ;}
	.st59{fill:#F7E9CD;}
	.st60{fill:#E8C7AF;}
	.st61{fill-rule:evenodd;clip-rule:evenodd;fill:#6B5B4F;}
	.st62{fill:#FD5A70;}
	.st63{fill:#FFCB39;}
</style>
<title>ifo-bunny</title>
<path class="st0" d="M387.7,335c0.7-0.7,16.7-17.9,23.8-39.5l-2.7-1.2c-6.9,20.9-23,38.1-23.1,38.3L387.7,335z"/>
<path class="st0" d="M385.4,323.6c-0.8-0.7-19.1-17.9-27.3-39.5l3-1.2c8,20.9,26.3,38.1,26.5,38.3L385.4,323.6z"/>
<polygon class="st0" points="387.3,258.6 385.4,260.9 384,367.5 389.2,367.5 "/>
<polygon class="st1" points="403.4,365.6 370.8,365.6 359.9,369.5 414.2,369.5 "/>
<path class="st2" d="M341.2,288.8c35.8,19.9,65.7,18.2,94.7-1.2c0,0,2-185.7-15.2-266.5c0,0-17.2-17.6-57.4-21.1
	C343,81.1,332.1,195.1,341.2,288.8z"/>
<path class="st3" d="M408.5,230.1c0,0,9.7-124.8,6.3-211.5c-7.9-5.3-23.7-13.2-48.8-15.4c-16.5,65.8-26.5,154.1-24,234.1
	C365.3,245.6,386.8,242.6,408.5,230.1z"/>
<polygon class="st4" points="367.7,88.7 292,88.7 292,369 389.3,369 "/>
<polygon class="st0" points="315.9,330.6 395,330.6 399.5,369 315.9,369 "/>
<polygon class="st0" points="319.8,88.7 30,88.7 30,369 339.6,369 "/>
<polygon class="st5" points="32.2,88.7 30,97.1 30,175.1 326.2,175.1 319.9,90 265.6,88.7 "/>
<rect x="42.5" y="295.8" class="st6" width="45.3" height="24.7"/>
<rect x="93.2" y="252.1" class="st6" width="45.3" height="24.7"/>
<rect x="262.8" y="131.9" class="st0" width="45.3" height="24.7"/>
<rect x="269.4" y="256.2" class="st6" width="45.3" height="24.7"/>
<rect x="186.2" y="274.4" class="st6" width="45.3" height="24.7"/>
<rect x="272.7" y="315.5" class="st6" width="45.3" height="24.7"/>
<rect x="132.7" y="320.5" class="st6" width="45.3" height="24.7"/>
<rect x="50" y="185.9" class="st6" width="45.3" height="24.7"/>
<rect x="41.7" y="109.3" class="st0" width="45.3" height="24.7"/>
<polygon class="st7" points="321.8,32.8 23,34 0,125.7 334,125.7 "/>
<polygon class="st8" points="321.8,32.8 383.7,41.7 396.7,125.7 331.2,125.7 "/>
<polygon class="st9" points="102.8,330.6 18.2,330.6 13.5,369 102.8,369 "/>
<polygon class="st9" points="264,330.6 343.2,330.6 347.6,369 264,369 "/>
<polygon class="st9" points="108.7,330.6 187.8,330.6 192.2,369 108.7,369 "/>
<polygon class="st9" points="259.6,330.6 194.9,330.6 197.3,369 259.6,369 "/>
<rect x="81.5" y="138.7" class="st10" width="200.5" height="132.7"/>
<rect x="99.5" y="152.9" class="st11" width="164.4" height="116.1"/>
<path class="st12" d="M116,273.9l123.7-6.1c0,0-22-56.5-37-62.8s-44.7-5.1-54.6,0.3S116,273.9,116,273.9z"/>
<path class="st13" d="M214.2,246.2c-4.8-15.1-6.4-29-5.1-36.1c-1.7-2.2-3.9-3.9-6.4-5.1c-1.2-0.5-2.5-0.9-3.7-1.3
	c4.1,18.2-0.2,34.6-14.2,34.9s-23.9-32-22.7-36.5c-2.6,0.4-3.5-0.3-8.8,1.2c3.6,8.5,3.2,22.3-1.9,36.4
	c-7.5,20.6-22.2,34.2-32.8,30.4c-0.4-0.2-0.7-0.3-1.1-0.5c-1,2.7-1.6,4.4-1.6,4.4h110.8C222.5,267.5,217.9,257.7,214.2,246.2z"/>
<path class="st13" d="M199.6,203.8c-11.8-3.8-29.8-3.9-41.9-1.6c2.6,4.8,11.2,8.3,21.5,8.3C188.3,210.6,196.1,207.8,199.6,203.8z"/>
<polygon class="st14" points="203.7,205.5 201.4,204.8 202.1,230.5 162,231.8 159.5,201.9 156.4,202.5 154,273.9 219.4,273.9 "/>
<path class="st15" d="M168.6,201.1l1-20.7l14.3,9.6l1.6,10C185.2,203,173.5,209.8,168.6,201.1z"/>
<path class="st1" d="M176.7,199.9c-5.8-3.9-11.6-20.2-10.7-24.5s12-9.2,15-6.5s9,24.9,8.5,26.5S178.8,201.3,176.7,199.9z"/>
<path class="st16" d="M175.2,181.3c3.2-1.6,6.6-2.7,10.1-3.1c-1.5-4.4-3-8.2-4.2-9.3c-3-2.7-14.1,2.2-15,6.5
	c-0.4,1.9,0.5,6.2,2.1,10.7C170.3,184.2,172.7,182.6,175.2,181.3z"/>
<path class="st17" d="M162.4,179c1.6,7,6.7,13.8,6.7,13.8l0.6-2.9l1.3-5.7l-2.2-9.8L162.4,179z"/>
<path class="st18" d="M162.7,181.1l19.9-10.3c0,0-6.8-9.4-9.7-9.3s-11.8,5.4-13,7.7S162.7,181.1,162.7,181.1z"/>
<path class="st19" d="M167,178.2c-3.8-3.1-4-9.1-0.8-13.9c-2.9,1.7-5.6,3.7-6.3,4.9c-1.2,2.3,2.8,11.8,2.8,11.8l4.8-2.5
	C167.4,178.5,167.2,178.3,167,178.2z"/>
<path class="st19" d="M183.6,172.5c6.6-5.5,4.6-10,0.8-9.3c-7.8,1.4-21.6,17.9-21.6,17.9L183.6,172.5z"/>
<path class="st1" d="M169.5,184c-1.6-1.8-3.3-2.2-3.9-1.1s-0.1,3,1.1,4.6c1.3,1.8,3.2,2.8,4.1,1.9S171.2,185.9,169.5,184z"/>
<path class="st15" d="M168.6,184.6c-1-1.1-2-1.3-2.4-0.6s-0.1,1.9,0.7,2.9s1.9,1.7,2.5,1.1S169.7,185.8,168.6,184.6z"/>
<path class="st1" d="M169.5,186.4c-0.6-0.7-1.3-0.9-1.6-0.4c-0.2,0.7,0,1.4,0.5,1.9c0.5,0.7,1.3,1.1,1.6,0.7
	S170.2,187.1,169.5,186.4z"/>
<path class="st20" d="M212.8,244.8c-5.3,15.3-14.9,25.5-26,25.5c-16.7,0-30.2-23.4-30.2-52.2c0-5.3,0.5-10.6,1.5-15.9l-1.5,0.3
	l-2.5,71.4h65.5L212.8,244.8z"/>
<path class="st1" d="M120,268.6h46.1l6-8.4c0,0-20.2-12.9-33.3-10.8S120,268.6,120,268.6z"/>
<path class="st1" d="M240,268.6h-44.6l-5.8-8.4c0,0,19.5-12.9,32.2-10.8S240,268.6,240,268.6z"/>
<path class="st16" d="M213.1,262.5c-9.1,0-17.8,6.1-17.8,6.1H240c-1.1-3.1-2.6-6.1-4.4-8.9C230.2,261.5,222.2,262.5,213.1,262.5z"/>
<path class="st16" d="M146.7,264c-8.9,0-17-1.3-22.8-3.4c-1.6,2.5-2.9,5.2-3.9,8h46.1l-11.6-1.6C154.5,267,156.7,264,146.7,264z"/>
<path class="st1" d="M177.2,267.7c1.3-6.9,13.4-13.3,19.4-11.6c8.4,2.4,10.1,11.9,10.1,11.9L177.2,267.7z"/>
<path class="st1" d="M179.4,267.7c-1.1-6.9-11.4-13.3-16.6-11.6c-7.2,2.4-8.6,11.9-8.6,11.9L179.4,267.7z"/>
<path class="st16" d="M195.1,267.3l21.5,0.2C212.1,263.4,202.4,261.6,195.1,267.3z"/>
<path class="st16" d="M151.4,267.6l15,0.1C162.7,265.4,155.8,264.4,151.4,267.6z"/>
<path class="st16" d="M180.2,267.6l1.8,0.4c0-1.8,2.4-4.5,2.4-4.5C182.7,264.5,181.2,266,180.2,267.6z"/>
<path class="st16" d="M184.4,268l1.8,0.4c0-1.8,2.4-4.5,2.4-4.5C186.9,264.9,185.5,266.3,184.4,268z"/>
<path class="st16" d="M177.2,268.7l-1.8,0.2c0.2-1.8-2-4.7-2-4.7C175,265.3,176.3,266.9,177.2,268.7z"/>
<path class="st16" d="M173,268.5l-1.8,0.2c0.2-1.8-2-4.7-2-4.7C170.8,265.2,172.1,266.8,173,268.5z"/>
<path class="st21" d="M177.4,184.1c-0.3-0.9-0.9-1.4-1.5-1.3s-0.7,0.9-0.4,1.8s1,1.4,1.5,1.3S177.7,185,177.4,184.1z"/>
<path class="st17" d="M175.8,179.6l-3.2,1.5c-0.3,0.1-0.4,0.4-0.3,0.7l0,0l0.5,1c0.1,0.3,0.5,0.4,0.7,0.2l3.2-1.5
	c0.3-0.1,0.4-0.4,0.3-0.7l0,0l-0.5-1C176.3,179.6,176,179.5,175.8,179.6z"/>
<path class="st21" d="M184,181.4c-0.3-0.8-1-1.4-1.5-1.3s-0.7,0.9-0.4,1.8s1,1.4,1.5,1.3S184.3,182.2,184,181.4z"/>
<path class="st17" d="M183.1,176.3l-2.9,1.2c-0.3,0.1-0.4,0.4-0.3,0.7l0.4,1c0.1,0.2,0.3,0.4,0.6,0.3c0,0,0,0,0.1,0l2.9-1.2
	c0.3-0.1,0.4-0.4,0.3-0.7l-0.4-1C183.7,176.3,183.4,176.2,183.1,176.3L183.1,176.3z"/>
<path class="st15" d="M180.1,182.8c1.8,2.2,2.7,3.7,2.1,4.7c-0.4,0.5-1.1,0.9-1.8,0.9v0.1c0,0,2.1,0.2,2.8-0.8
	S182.6,185.1,180.1,182.8z"/>
<path class="st22" d="M185.3,189.1l-6.7,2.2c0.7,1.7,2.5,2.7,4.4,2.5C186.3,193.5,185.3,189.1,185.3,189.1z"/>
<path class="st23" d="M184.8,191.4c0.1-0.6,0-1.2-0.1-1.8l-5.4,1.8c0.2,0.5,0.6,1,1.1,1.4L184.8,191.4z"/>
<polygon class="st24" points="143.5,33.5 84.1,33.8 74.2,125.7 140.6,125.7 "/>
<polygon class="st24" points="281.2,33 221.8,33.2 222.9,125.7 289.3,125.7 "/>
<polygon class="st7" points="345.8,36.3 370.3,39.8 384.5,125.7 358.8,125.7 "/>
<polygon class="st5" points="294.5,271 70.5,271 76,291.9 300,291.9 "/>
<rect x="69" y="266.2" class="st25" width="224.7" height="7.3"/>
<rect x="69" y="266.2" class="st7" width="224.7" height="3.8"/>
<path class="st26" d="M130.8,58.1c-1.1,8.7-9.9,10.4-12.9,10.4c-1.5,0-4.2,0.2-6.6,0.4c-1.4,0.1-2.8,0.2-4.3,0.3
	c-0.4,2.7-0.8,5.1-1,7.3c-0.4,2.7-0.7,5.5-0.8,8.2c0.2,1.2-1.7,1.9-2.6,1.6c-0.4-0.1-0.8-0.1-1.2-0.1c-1.3,0-3.4,0.1-4.6,0.2
	c-1.7,0.2-1.8-0.8-1.6-1.9s0.7-4.8,1-7.2c0.3-2.1,2.9-19.4,3.8-26.2c0.1-0.8,0.2-1.7,0.2-2.5c0-0.7,0-1.1,0-1.5
	c0.2-1.2,0.6-1.6,1-1.5s2.7,0.1,4.5,0.1c0.8,0,4.1-0.1,7.9-0.1c2.4,0,4.9,0.1,7.2,0.2C126.7,46,131.8,49.4,130.8,58.1z M116.4,64.3
	c2.5,0,7.3-0.9,7.9-5.9s-1.8-7-6.1-7.8c-2.8-0.5-5.6-0.7-8.4-0.7c-0.1,0.8-0.2,1.6-0.4,2.5c-0.2,1.4-0.5,3.1-0.9,4.7
	c-0.4,1.5-0.6,3.1-0.7,4.6l-0.1,2.3l3.3,0.2C113,64.3,115,64.3,116.4,64.3z"/>
<path class="st26" d="M139.5,54.2c-0.4,3.1-2.2,13.1-2.5,16.1s-1.4,13.2-1.4,14.7c0,0.3,0,0.5,0,0.8c-0.1,0.6-0.4,0.8-0.8,0.9
	c-0.7,0.2-1.5,0.3-2.2,0.2c-2.4,0-1.7,0.2-1.4-2.4c0.3-2.2,2.2-16,2.7-19.9s2.6-15.2,2.5-16.6c0-0.4,0-0.8,0.1-1.2
	c0.1-0.8,0.4-1.5,1.3-1.5c0.5,0,1.6,0.1,2.6,0.1c0.6,0,0.7,0.3,0.6,0.8s-0.3,0.9-0.3,1.4C140.2,49.8,139.8,52,139.5,54.2z"/>
<path class="st26" d="M166.7,48.9c-1.9,0-9.7-0.2-14.9-0.2c-2.1,0-3.7,0.1-4.4,0.1c-2.4,0.2-2.7-0.4-2.6-0.8
	c0.1-0.8,0.3-1.5,0.6-2.3c0.1-0.4,0.5-0.5,0.9-0.5c0.7,0,1.6,0.3,2.5,0.3l7-0.1c1.9,0,5.6,0.1,7.8,0.1s7.4,0,9.6,0.2
	c1.6,0.1,4,0.3,5.8,0.3c0.5,0,1,0,1.5-0.1c0.2,0,0.4-0.1,0.5-0.1c0.9,0,0.6,0.5,0.5,0.8c-0.1,0.7-0.3,1.5-0.6,2.2
	c-0.4,1.2-2.4,2.5-4.5,4.3s-6.6,6.7-8.4,8.6c-1.8,1.9-7.8,7.5-9.1,8.8s-5,4.8-6.6,6.2c-1.2,1.1-2.3,2.3-3.3,3.6l-2.2,2.5
	c3.4,0,6.4,0,9.1,0c4.6,0,9.3,0.1,9.9,0.1c1.1,0,5,0.2,6.4,0.2l4.7-0.1h0.1c0.6,0,0.5,0.3,0.4,0.6s-0.1,1.2-0.2,1.9
	c-0.1,0.5-0.4,0.7-1,0.7c-0.4,0-0.7-0.1-1.1-0.1c-1.5-0.2-3-0.2-4.6-0.2c-1.7,0-14.1,0.3-16.7,0.3s-10.7,0-12.5,0.2h-0.4
	c-1.2,0-0.9-0.6-0.8-1c0.3-0.9,0.8-1.8,1.6-2.4c1-0.9,9.7-9.6,11.6-11.2s10-9.3,13.9-12.8c2-1.8,4.4-4.3,6.3-6.3l3.3-3.7H173
	C170.7,49,168.1,49,166.7,48.9z"/>
<path class="st26" d="M201.2,50.1c-1.1,0-3,0.1-4.4,0.1c-0.4,0-0.9,0-1.3-0.1c-0.6-0.1-3-0.1-5.1-0.1h-3c-1.1,0-0.8-0.3-0.7-0.8
	c0.1-0.8,0.1-1.5,0.1-2.3c0.1-1.1,1.2-0.8,2.2-0.8c2.3,0,6.1-0.2,9.1-0.2s10.4,0.2,12,0.2h4.2c2.9,0,6.2,0,7.2-0.1
	c0.2,0,0.4-0.1,0.5-0.1c1.1,0,0.9,0.5,0.8,0.9c0,1.1-0.4,2.1-1,3c-0.9,0.9-8.3,8.6-11.3,11.6c-1.6,1.6-5.8,5.9-9.9,9.8l-7.7,7.6
	c1,0.1,2,0.2,2.9,0.3c1.6,0.2,3.6,0.2,5.1,0.2c3.1,0,5-0.1,7.8-0.1s10.4-0.3,11.9-0.3s1.2,0.9,1.1,1.8S221.1,84,221,85
	c0,0.1,0,0.2,0,0.3c-0.1,0.8-0.2,0.8-1.1,0.9s-2.3,0-5.4,0.4c-1,0.1-2.5,0.1-4.2,0.1c-3.2,0-7.1-0.1-9.1-0.1h-17.6
	c-2.7,0-2.1-1-2-1.9c0.1-0.8,0.9-4.1,1-5.1s1.8-2,3.5-3.5s9.7-9.2,11.2-11s6.8-6.8,8.7-8.6c1.1-1.2,2.1-2.5,3-3.8l1.6-2.3
	c-0.2,0-0.4,0-0.6-0.1l-1.4-0.1L201.2,50.1z"/>
<path class="st26" d="M246.2,44.7c0.4-0.6,0.7-0.7,1-0.4c0.5,0.3,0.5,0.9,0.7,1.6c0.9,2.4,1.8,4.7,2.9,7c0.9,2,1.7,4.1,2.3,6.2
	c0.6,2.3,3.6,8.3,4.8,11.1s4.1,8.3,5,9.9s1.8,4.3,2.7,5.3c0.1,0.2,0.2,0.5,0.3,0.8c0,0.4-0.7,0.5-1.4,0.5h-5.1
	c-0.6,0-0.8-1.1-1.2-1.9c-0.8-2-1.5-4-2.1-6c-0.3-0.9-1-2.4-1.4-3.3c-0.2-1-0.6-1.2-1.1-1.2s-1.7,0.1-2.9,0.2s-5.7,0-7.7,0.2
	c-0.6,0.1-1.5,0.1-2.3,0.1c-1.7,0-3.4-0.1-3.8-0.1c-0.6,0-0.8,0.6-1.1,1.3s-1.8,4.3-2.1,5.4l-1.1,2.5l-0.8,1.6
	c-0.4,0.9-0.6,1.1-1.1,1.1h-4.2c-0.3,0-0.4-0.1-0.3-0.2c0.1-0.3,0.2-0.6,0.4-0.8c0.5-0.7,0.9-1.4,1.3-2.2c0.8-1.6,3.4-7,4.3-9.4
	c1-2.6,2.2-5.1,3.6-7.5c0.8-1.9,1.3-2.9,2.5-5.6c1.3-2.7,2.6-5.5,3.6-7.6l2.4-4.6C244.8,47.2,245.5,45.9,246.2,44.7z M250.9,65.9
	c0-0.2-0.1-0.3-0.2-0.5c-1-2.1-1.9-4.3-2.6-6.6c-0.7-1.8-1.1-3.3-1.3-3.6c-0.4-0.9-0.4-1.2-0.8-1.2s-0.6,1.1-1.1,2.2
	c-0.5,0.9-2,4-2.5,5.1s-1.6,3-2.1,3.8c-0.2,0.3-0.3,0.6-0.3,0.9c0,0.2,0.1,0.3,0.6,0.3c0.9,0,7.3-0.1,8.6-0.3
	C250.2,66.1,250.9,66.2,250.9,65.9z"/>
<path class="st16" d="M244.7,257.6c0,0-14.5,1-17,8.6h24C251.7,261.2,244.7,257.6,244.7,257.6z"/>
<polygon class="st16" points="239,262.6 244.3,247.1 254.7,253.5 252.2,265.6 "/>
<path class="st27" d="M284.5,246.3c5.9,33.9,38.8,120,38.8,120h1.3c0,0,0.4-128.7-3.4-138.3S284.5,246.3,284.5,246.3z"/>
<path class="st28" d="M282.5,241c-4.7,33.9-1.7,125.3-1.7,125.3h1.3c0,0,40.7-108.3,40-134.7C321.8,221.9,282.5,241,282.5,241z"/>
<path class="st29" d="M322,231.6c-0.3-9.7-39.6,9.4-39.6,9.4c-0.7,5.3-1.3,12-1.7,19.5l21.9,3.6l-21.3,102.2h0.6
	C282.1,366.3,322.8,258,322,231.6z"/>
<path class="st30" d="M254.4,257.8l-12.3-5.5c0,0,25.8-96.6,31.2-101.1s30,0.6,17.9,42.7C289.1,201.5,254.4,257.8,254.4,257.8z"/>
<path class="st31" d="M256.3,201.3l25.7,10.3c1.2-2,2.3-4,3.3-5.8L258.2,195L256.3,201.3z"/>
<path class="st31" d="M259.4,190.7l28,11.2c0.7-1.2,1.3-2.4,1.8-3.4L260.5,187C260.1,188.2,259.8,189.5,259.4,190.7z"/>
<path class="st32" d="M271.6,151.9c-10.2,24,10.2,72.7,8.1,100.5c0,0,22.5,7.7,43.5-20.2C317.7,171.6,279.6,133.2,271.6,151.9z"/>
<path class="st33" d="M271.6,151.9c-3.6,8.6-3.4,20.4-1.6,33.2c2.7-8.9,6.6-14.9,11.2-15.9c9.6-2.2,18.3,18.1,19.5,45.3
	c0.6,14.4-1,27.8-4,37.6c7.8-2.2,17.3-7.6,26.6-19.8C317.7,171.6,279.6,133.2,271.6,151.9z"/>
<path class="st31" d="M270.8,151.6c-1.9,4.5-2.3,10.3-2.1,16.2c6.8-3.5,10.3-13.2,11.5-20.4C276.6,146,272.3,147.8,270.8,151.6
	C270.9,151.5,270.8,151.5,270.8,151.6z"/>
<path class="st1" d="M254.2,257.6c0,0-14.4,1-16.9,8.6h23.8C261,261.2,254.2,257.6,254.2,257.6z"/>
<path class="st15" d="M269.2,163.6c6.8-4,8.9-16.1,8.9-16.1l-12.4-9.4l-6.3,15.4L269.2,163.6z"/>
<polygon class="st1" points="249.7,258.6 253.2,247.7 263.6,254.1 261.1,266.2 "/>
<path class="st32" d="M262.6,259.7l-11.8-5.8c0,0,22.5-93.1,27.7-97.8s28.6-2.9,18.7,39.2C295.4,202.9,262.6,259.7,262.6,259.7z"/>
<path class="st33" d="M293.9,158.6c0.1,6.5-0.4,13-1.7,19.4c-1.5,8.1-30.6,69.4-35.2,78.9l5.5,2.7c0,0,33.2-56.9,35-64.5
	C302.4,174.8,299,163.9,293.9,158.6z"/>
<path class="st1" d="M270.7,154.6c0.2-7.1-4.4-17.9-9.6-22c-4.6-3.6-12.7,0.6-13.4,7.6c-0.5,4.6,8.4,23.2,12.4,24.5
	C263.7,163.9,270.6,157.2,270.7,154.6z"/>
<path class="st28" d="M273.5,144.3l-4.4,1.1l-3.7-1.4l-2.1,2.6c0,0-6.2-13.6-15.2-8.5l-2.5-1.3c0,0,8.8-9.2,16-8.3
	C270.3,129.5,273.5,144.3,273.5,144.3z"/>
<path class="st1" d="M269.1,142.6c-0.6-2.3-2.1-3.9-3.5-3.5s-1.9,2.6-1.3,4.9s2.1,3.9,3.5,3.5S269.7,144.9,269.1,142.6z"/>
<path class="st15" d="M268.1,142.6c-0.3-1.2-1.1-2-1.8-1.8s-1,1.4-0.7,2.6s1.1,2.1,1.8,1.8S268.4,143.8,268.1,142.6z"/>
<path class="st1" d="M267.5,143.7c-0.3-0.8-0.9-1.2-1.3-1.1s-0.6,0.9-0.3,1.7s0.9,1.3,1.3,1.1S267.8,144.5,267.5,143.7z"/>
<path class="st34" d="M282.4,369h-13.5c0,0,9.8-5.7,12.3-5.7S282.4,369,282.4,369z"/>
<path class="st34" d="M326,369h-13.5c0,0,7.4-5.5,10-5.5S326,369,326,369z"/>
<path class="st35" d="M288.4,213.6l-24.9-9.9c-0.6,2.1-1.1,4.3-1.7,6.4l23.4,9.3C286.3,217.5,287.4,215.5,288.4,213.6z"/>
<path class="st35" d="M292.2,206.4l-26.6-10.6c-0.3,1.2-0.7,2.5-1,3.7l25.8,10.3L292.2,206.4z"/>
<path class="st21" d="M254.6,148.3c-0.5-0.7-0.5-1.6,0-1.9s1.3,0,1.8,0.8c0.5,0.8,0.5,1.6,0,1.9S255.1,149.1,254.6,148.3z"/>
<path class="st28" d="M251.7,144.2l3.5-1.7c0.3-0.1,0.6-0.1,0.7,0.2l0,0l0.4,1c0.1,0.3,0,0.6-0.3,0.7l-3.5,1.7
	c-0.3,0.1-0.6,0.1-0.7-0.2l0,0l-0.4-1C251.3,144.7,251.4,144.3,251.7,144.2z"/>
<path class="st21" d="M250.7,149.9c-0.4-0.8-0.5-1.5-0.2-1.7s0.7,0.4,1.1,1.2s0.5,1.5,0.2,1.7S251.1,150.7,250.7,149.9z"/>
<path class="st28" d="M248,146.6l1.2-0.8c0.1-0.1,0.3,0.1,0.5,0.3l0.6,0.9c0.2,0.2,0.2,0.5,0.1,0.5l-1.2,0.8
	c-0.1,0.1-0.3-0.1-0.5-0.3l-0.6-0.9C247.9,146.9,247.9,146.7,248,146.6z"/>
<path class="st15" d="M253.2,149.9c-0.6,3.2-0.7,5.1,0.3,5.6c0.7,0.2,1.4,0.1,2-0.3v0.1c0,0-1.8,1.5-2.8,1S252.1,153.6,253.2,149.9z
	"/>
<path class="st22" d="M255.8,157.1l4.4-3.3c1.2,0.7,1.6,2.1,1,3.3c-0.2,0.3-0.4,0.6-0.8,0.8C258.4,159.7,255.8,157.1,255.8,157.1z"
	/>
<path class="st23" d="M257.4,157.8c-0.4-0.2-0.8-0.5-1.1-0.8l3.6-2.6c0.4,0.3,0.7,0.8,0.9,1.3L257.4,157.8z"/>
<path class="st16" d="M356.5,217.2l1.6-9.6c-2.1-1.4-4.6-2.2-7.1-2c-1.5,1.1-3.2,2-5,2.6C343.4,208.9,346.7,218.4,356.5,217.2z"/>
<path class="st16" d="M346,214.2c3.6,0.9,7.3,1,11,0.3l-0.9,2.6c-2.1,0.6-6.3,0.1-8.9-0.4S344.8,213.9,346,214.2z"/>
<path class="st36" d="M436.1,144.5c-2.4-9.7-14.3-14.5-20.4-8.4s-1.3,13.8-1.3,13.8L436.1,144.5z"/>
<path class="st37" d="M413,172c-23.9,7.7-34.7,46.4-34.7,46.4l13.9,26.5L413,172z"/>
<path class="st38" d="M417.8,177.5c-23.9,7.7-34.9,46.7-34.9,46.7l13.9,26.5L417.8,177.5z"/>
<ellipse transform="matrix(0.8564 -0.5162 0.5162 0.8564 -65.5841 232.7315)" class="st39" cx="385.7" cy="234.3" rx="11.1" ry="17.3"/>
<path class="st1" d="M355.4,206.8c0,0,31.3,8.2,38.6,30.2l0.3,8.3c-10,4.4-19.4,0.3-22.4-3s-17.2-27.2-17.2-27.2L355.4,206.8z"/>
<path class="st16" d="M363.9,220.8c9.7,8,19.6,11.6,22,8.1c0.8-1.1,0.7-2.8,0-4.8c3.7,3.7,6.4,8.1,8.1,13.1l0.3,8.3
	c-10,4.4-19.4,0.3-22.4-3s-17.2-27.2-17.2-27.2l0.2-3.3C357.7,215.2,360.6,218.2,363.9,220.8z"/>
<path class="st40" d="M392.8,244.1l52.6,9.8c0,0-7.8,61.7-28.6,114.5h-1.4c0,0-35.9-55.9-36.6-63
	C377.5,292.5,392.8,244.1,392.8,244.1z"/>
<path class="st41" d="M406,286.9c0,0,4.3,40.2,9.7,80.2l-0.3,0.2l-15-57.2L406,286.9z"/>
<path class="st41" d="M403.7,266.2c-8.3-2.5-15.9,1.5-20.1,9.8c3.6-15.4,7.7-33,7.7-33l55.6,10.8c0,0-9.4,61.7-30.2,114.6H416
	C419.5,357.3,440.8,277.2,403.7,266.2z"/>
<path class="st37" d="M445.7,266.9c-33.4,0.7-56.2-18.2-56.2-18.2s-4.4-60.6,16.4-73s28.9-8.2,41.2,3.4S445.7,266.9,445.7,266.9z"/>
<path class="st38" d="M436.5,218c-1.2-34.8,7.5-41.8,10.6-38.9c12.4,11.6-1.4,87.8-1.4,87.8c-5.1,0.1-10.2-0.2-15.3-1
	C434.6,248.2,437.1,235.7,436.5,218z"/>
<path class="st37" d="M437.9,171.8c30.7,10.7,50.2,58.6,42.9,67.3l-30-8.2c-4.9-6.4-12.2-14.7-14.3-22
	C431,190.1,437.9,171.8,437.9,171.8z"/>
<path class="st38" d="M435.3,205.7c11.3,16.7,27.1,25.5,36,20.4c3.9-2.3,5.9-6.9,5.9-12.8c5.1,11.7,6.7,22.1,3.6,25.7l-30-8.2
	c-4.8-6.4-12.3-14.7-14.8-22.4c-0.3-1-0.6-2.1-0.9-3.1L435.3,205.7z"/>
<path class="st37" d="M415.8,369.3h-8.4c0,0,6.4-4.6,7.4-4.2S415.8,369.3,415.8,369.3z"/>
<path class="st37" d="M414.6,369.3h9.8c0,0-5.9-4.2-7.3-3.8S414.6,369.3,414.6,369.3z"/>
<ellipse transform="matrix(0.9989 -4.641013e-02 4.641013e-02 0.9989 -10.3844 21.9258)" class="st39" cx="467" cy="234.6" rx="18" ry="10.7"/>
<path class="st1" d="M444.8,267.2c13.5-8.6,34.2-22.5,37-30c4-10.7-20.5-13.3-28.8-6.3c-5,4.2-13.7,26.3-13.7,26.3L444.8,267.2z"/>
<path class="st16" d="M453,259.3c11.8-8.7,15.6-17.2,11.9-21.7c-2.5-3.1-9.3-2.5-17.1,1.1c1.9-3.5,3.8-6.5,5.3-7.8
	c8.3-7,32.8-4.4,28.8,6.3c-2.9,7.5-21.8,20.4-35.4,29C446.5,266.2,450.9,260.9,453,259.3z"/>
<path class="st38" d="M425.2,183c-8.6,0-15.5-5-18.9-7.9c1.8-1.1,3.7-2,5.7-2.8c11.8-5.8,19.1-5.1,26.4-0.4c2.4,0.9,4.7,1.9,6.9,3.2
	C441.8,178,433.8,183,425.2,183z"/>
<path class="st42" d="M412.2,172.2c9.8-4.8,16.4-5,22.6-2.2c-1.1,4.7-6,8.2-11.7,8.2C418.6,178.3,414.5,176,412.2,172.2z"/>
<path class="st15" d="M431.5,168.8l-1.2-11.9l-15.1,4l-0.5,10.1C414.5,173.3,426.3,181.6,431.5,168.8z"/>
<path class="st1" d="M430.3,158.1c2-8.6-0.1-14.5-1-16.2c-1.4-2.6-10.6-4.3-13-1.7s-5.1,15.1-4.3,26.4c0.2,3.2,11.6,3.2,13.6,1.8
	C428.5,166.4,429.6,161.2,430.3,158.1z"/>
<polygon class="st38" points="403.1,259.4 408,261.6 407.8,264.7 402.8,262.6 "/>
<path class="st36" d="M431,163.7l-1-5.1l-3-3.9c0,0-2.8-20.3,6.8-15.3S431,163.7,431,163.7z"/>
<path class="st21" d="M421.1,151.2c0-0.8,0.5-1.4,1-1.4s0.9,0.7,0.9,1.5s-0.5,1.5-1,1.4S421.1,152,421.1,151.2z"/>
<path class="st36" d="M421.8,147l3.4,0.5c0.3,0,0.4,0.3,0.4,0.5l0,0l-0.2,1c-0.1,0.3-0.3,0.4-0.6,0.4l-3.4-0.5
	c-0.3,0-0.4-0.3-0.4-0.5l0,0l0.2-1C421.3,147.1,421.5,147,421.8,147z"/>
<path class="st21" d="M413.1,150.4c0-0.8,0.5-1.5,1-1.4s0.9,0.7,0.9,1.5s-0.5,1.5-1,1.4S413.1,151.2,413.1,150.4z"/>
<path class="st36" d="M412,146.3h3.4c0.3,0,0.5,0.2,0.5,0.5l0,0v1c0,0.3-0.3,0.5-0.5,0.5H412c-0.3,0-0.5-0.2-0.5-0.5l0,0v-1
	C411.5,146.5,411.7,146.3,412,146.3L412,146.3z"/>
<path class="st15" d="M417.8,150.5c-1.2,2.6-1.8,4.3-1,5.1c0.5,0.4,1.2,0.5,1.8,0.3v0.1c0,0-1.9,0.8-2.6,0.1S416,153.5,417.8,150.5z
	"/>
<path class="st22" d="M415.3,159.3l7.8-0.9c0,0,0.3,2.6-3.2,3.7S415.3,159.3,415.3,159.3z"/>
<path class="st23" d="M416.9,161c-0.4-0.4-0.6-0.9-0.8-1.5l6.3-0.7c0,0.5-0.1,1.1-0.4,1.5L416.9,161z"/>
<path class="st1" d="M429.1,154.1c1.2-2.1,3.1-3.3,4.2-2.7s1,2.8-0.2,4.8s-3.1,3.3-4.2,2.7S427.9,156.1,429.1,154.1z"/>
<path class="st15" d="M430,154.6c0.8-1.3,2-2.1,2.6-1.7s0.6,1.7-0.1,3s-2,2-2.6,1.7S429.2,155.9,430,154.6z"/>
<path class="st1" d="M429.2,155.4c0.5-0.9,1.4-1.4,1.8-1.1s0.4,1.2-0.1,2.1s-1.4,1.4-1.8,1.2S428.7,156.3,429.2,155.4z"/>
<path class="st1" d="M351.7,207c0.9,0.3,4.2,1,5.7,3.8l4.6-1.7c-1.8-2.2-6.3-3.9-9.3-4.2C350.5,204.6,350.8,206.7,351.7,207z"/>
<path class="st1" d="M350.7,207.3c-0.1-1.7,0.1-2.5,1.1-2.6s1.8,1.3,1.9,3s-0.5,3.1-1.5,3.2S350.8,209,350.7,207.3z"/>
<path class="st1" d="M430.7,263.1c0.9-0.7,4-3.7,7.9-3.3l1.4-4.1c-3.5,0.2-8.5,2-11,4.9C427.3,262.7,429.8,263.9,430.7,263.1z"/>
<path class="st1" d="M448.9,262.5l-9-7.1c-3,0.7-5.7,2.3-7.6,4.7c-0.1,2.2-0.6,4.5-1.4,6.6C429.6,269.6,445.3,273.7,448.9,262.5z"/>
<path class="st1" d="M425.9,270.1c0.9-0.5,4.4-2,5.9-5.9l2.2,2.6c-0.4,1.6-3.3,4.1-5.2,5.1S425,270.6,425.9,270.1z"/>
<path class="st1" d="M431.3,271.1c0.9-0.5,4.4-2.1,5.7-6l2.3,2.5c-0.4,1.6-3,3.7-4.8,4.8S430.4,271.6,431.3,271.1z"/>
<path class="st1" d="M436.5,271.8c1-0.6,4.8-2.6,6.7-6.8l2.2,2.4c-0.6,1.8-3.5,4.1-5.6,5.4S435.5,272.5,436.5,271.8z"/>
<path class="st43" d="M388.6,172.5c-5.3-29-15.7-41-27.8-41.2s-21.2,11.3-15.9,40.3s19.3,52.6,31.4,52.9S393.9,201.5,388.6,172.5z"
	/>
<path class="st28" d="M346.7,202.8c3.9-19.3,11.2-33.4,9.1-35c-1-0.7-6.1,1.4-10.1,8.7c-4.4,7.9-7.6,21.3-9,26.1
	C334,211.7,344.9,211.8,346.7,202.8z"/>
<path class="st44" d="M356.4,168.5c-0.5-0.4-11.8,16-14.6,28.9c-1,4.8-2.9,8.6-5.6,8.2c0.2,6,8.9,5.2,10.6-2.6
	C351,184.1,358.5,170.1,356.4,168.5z"/>
<path class="st35" d="M345.6,203.4c-0.8-3.4-3.8-5.6-6.8-5s-4.7,3.9-3.9,7.2s3.8,5.6,6.8,5S346.4,206.8,345.6,203.4z"/>
<path class="st45" d="M335.3,184c-2,0.5-4-0.7-4.4-2.7c-0.5-2,0.7-4,2.7-4.4c0.4-0.1,0.9-0.1,1.3-0.1c0.2,0,0.3,0,0.5,0v-2.1h-0.5
	c-3.5,0-6.4,2.6-6.4,5.7s2.9,5.7,6.4,5.7h0.5V184H335.3z"/>
<path class="st39" d="M373.1,244.3c-0.2-4.4-7.3-27-7.3-27s-15.8-10.2-27.7,24.9s1.2,73.2,23,124.2h1.2
	C361.7,353.9,373.4,248.7,373.1,244.3z"/>
<path class="st46" d="M373.1,244.3c-0.2-4.4-7.3-27-7.3-27s-15.7-10.1-27.6,24.7c27.9,17.3,24,100.8,24,124.4h0.1
	C361.7,353.9,373.4,248.7,373.1,244.3z"/>
<path class="st28" d="M339.5,236.2c13.4,4.9,33.8,5.9,33.8,5.9c-7-30.5-7.3-48.8-6.8-54.5c0.5-6.4-6.8-6.4-11.2,0.2
	C349.5,196.3,339.5,236.2,339.5,236.2z"/>
<path class="st44" d="M353.5,207.8c5.4,0.4,10.4,19.2,8.2,33.2c6.6,0.8,11.6,1.1,11.6,1.1c-7-30.5-7.3-48.8-6.8-54.5
	c0.5-6.4-6.8-6.4-11.2,0.2c-2.6,3.9-6.1,14-9.1,24.1C348.7,209.1,351.2,207.6,353.5,207.8z"/>
<path class="st28" d="M343.2,201c0.7,1.4,20.3,2.3,21.4,0.7s4.6-31.6,3.9-32.9s-12.8-2.5-14.6-0.4S341.6,198,343.2,201z"/>
<path class="st44" d="M368.5,168.8c-0.2-0.4-9,29.5-9.8,30.9c-0.7,1.1-10.6,1.1-17.1,0.6c0,0.3,0,0.6,0.1,0.8c0.7,1.4,22,3.4,23,1.8
	S369.1,170.1,368.5,168.8z"/>
<path class="st28" d="M361.2,205.3c4.4-20,4.2-36.4,6.5-37c1.1-0.3,4.2,3.9,4.5,12.5c0.3,9.4-2.3,23.4-3.1,28.5
	C367.7,219.1,359.1,214.7,361.2,205.3z"/>
<path class="st44" d="M372.2,180.8c0-3-0.6-6-1.6-8.8c0.3,2.7,0.4,5.6,0.4,8.6c0,14-3.1,25.4-6.9,25.4c-0.9,0-1.8-0.7-2.6-1.9
	c-0.1,0.4-0.2,0.8-0.3,1.2c-2.1,9.4,6.5,13.8,7.9,4C369.9,204.3,372.5,190.2,372.2,180.8z"/>
<path class="st1" d="M343.9,203.5c-1.3-7.1-7.2-21.4-7.6-21.9l-1.2,0.2c-0.4,11.5-0.4,19.1,1.1,23.4
	C337.8,209.8,345,209.7,343.9,203.5z"/>
<path class="st16" d="M343.9,203.5c-1.1-4.8-2.6-9.6-4.4-14.2c0,0.1,0,0.3,0,0.4c0,6.1-1.8,11.1-4.2,12c0.2,1.2,0.4,2.4,0.8,3.6
	C337.8,209.8,345,209.7,343.9,203.5z"/>
<path class="st45" d="M345.2,172.7h-12.9v14c0,1.3,1.1,2.3,2.4,2.2l0,0h8.1c1.3,0,2.3-1,2.4-2.2V172.7z"/>
<path class="st37" d="M342.4,173.4h-9.5v10.3c0,0.9,0.8,1.7,1.7,1.7h6c0.9,0,1.7-0.7,1.7-1.6L342.4,173.4z"/>
<path class="st35" d="M370.1,206.9c-1.8-4.1-6.1-6.4-9.5-5s-4.7,5.9-2.8,10s6.1,6.4,9.5,5S371.9,211,370.1,206.9z"/>
<path class="st1" d="M367,205.5c-6-6.1-21.6-25.5-22.2-25.9l-1.4,0.3c5.6,15.1,14.5,30.3,18.5,34.7C365,217.9,371.7,210.3,367,205.5
	z"/>
<path class="st16" d="M367,205.5c-1.2-1.2-2.8-2.9-4.5-4.9c0,0.6-0.3,1.2-0.8,1.6c-1.7,1.4-5.9-0.6-10.5-4.4
	c4.1,8,8.2,14.4,10.6,16.9C365,217.9,371.7,210.3,367,205.5z"/>
<path class="st35" d="M367.8,168.3c-2.2-0.9-9.3-1.6-12.5-0.6c-0.2,0-0.3,0-0.5,0.1l-0.6,6.8l14-6
	C368.1,168.4,367.9,168.3,367.8,168.3z"/>
<polygon class="st15" points="356.4,153.7 356.4,171.1 364.8,167.7 363.5,151.9 "/>
<path class="st1" d="M349.8,144.2c1.3-4.8,9.4-5.1,12.8-0.5c4.1,5.7,1.5,13.1,1,14.2c-2,4.9-8.8,8-8.8,8S346.1,157.9,349.8,144.2z"
	/>
<path class="st43" d="M354,137.1c-1.1,9.4,10.6,17.5,10.6,17.5s6.5-7.4,2-12.7C361.5,135.9,354,137.1,354,137.1z"/>
<path class="st46" d="M346.9,262.1c-1.1,20.6,3.1,65.1,14.4,104.2h1.2C355.1,334,348.1,286.2,346.9,262.1z"/>
<path class="st37" d="M363.3,369.5h-9.5c0,0,5.8-4.3,7-3.9S363.3,369.5,363.3,369.5z"/>
<path class="st37" d="M360.8,369.5h9.1c0,0-7.1-4.7-8.1-4.2S360.8,369.5,360.8,369.5z"/>
<path class="st21" d="M356.5,152.3c0-0.8,0.2-1.4,0.6-1.4s0.7,0.6,0.7,1.3s-0.2,1.4-0.6,1.4S356.5,153,356.5,152.3z"/>
<path class="st21" d="M349.7,152.5c0-0.8,0.2-1.4,0.6-1.4s0.7,0.6,0.7,1.3s-0.2,1.4-0.6,1.4S349.7,153.3,349.7,152.5z"/>
<path class="st43" d="M355.4,148.3l3,0.4c0.3,0,0.6,0.3,0.6,0.7v0.6c0,0.3-0.3,0.5-0.6,0.5c0,0,0,0-0.1,0l-3-0.4
	c-0.3,0-0.6-0.3-0.6-0.7v-0.6C354.7,148.5,355,148.3,355.4,148.3C355.3,148.3,355.3,148.3,355.4,148.3z"/>
<path class="st43" d="M348.5,149.6l2-0.8c0.2-0.1,0.5,0,0.6,0.3c0,0,0,0,0,0.1l0.2,0.6c0.1,0.3,0,0.6-0.3,0.7l-2,0.8
	c-0.3,0.1-0.5-0.1-0.6-0.3c0,0,0,0,0-0.1l-0.2-0.6C348.1,150,348.3,149.7,348.5,149.6z"/>
<path class="st47" d="M348.5,151.8l3.9-0.2l0.1,3.2c0,0.9-0.7,1.5-1.6,1.5h-0.6c-0.9,0.1-1.6-0.5-1.8-1.4V151.8z"/>
<path class="st47" d="M353.6,151.8l4.7-0.2l0.1,3.2c0,0.8-0.6,1.5-1.4,1.5l0,0l-1.6,0.1c-0.8,0.1-1.5-0.5-1.6-1.4L353.6,151.8z"/>
<polygon class="st47" points="366.9,151 367.1,151.8 348.6,152.6 348.6,151.8 "/>
<path class="st1" d="M349,152.5l2.8-0.1l0.1,2.3c0,0.6-0.5,1.1-1.2,1.1l0,0h-0.4c-0.6,0.1-1.2-0.4-1.3-1V152.5z"/>
<path class="st1" d="M354.4,152.3l3.2-0.1l0.1,2.3c0,0.6-0.6,1.1-1.3,1.1h-0.5c-0.7,0.1-1.3-0.3-1.4-1L354.4,152.3z"/>
<path class="st21" d="M356.9,153.6c-0.4,0-0.7-0.6-0.7-1.3v-0.1l1.3-0.1v0.1C357.5,153,357.2,153.6,356.9,153.6z"/>
<path class="st21" d="M350,153.9c-0.4,0-0.7-0.6-0.7-1.3v-0.1l1.3-0.1v0.1C350.6,153.2,350.4,153.9,350,153.9z"/>
<path class="st15" d="M353.1,153.3c0,0,0.1,0.1,0.2,0.4c-0.6,1-1.3,2.8,0.5,2.6v0.1C350.7,157.2,352.6,153.9,353.1,153.3z"/>
<path class="st48" d="M351.8,158.6c0,0.1,0,0.3,0.1,0.4c0.4,1.4,1.7,2.3,3.2,2c1.2-0.3,2-1.5,1.8-2.8L351.8,158.6z"/>
<path class="st49" d="M352.2,158.8c0,0.1,0,0.2,0,0.3c0.4,1.1,1.6,1.8,2.7,1.4c1-0.2,1.7-1.1,1.6-2.2L352.2,158.8z"/>
<path class="st1" d="M367.1,155c1-1.9,0.9-3.9-0.2-4.4s-2.9,0.7-3.9,2.6s-0.9,3.9,0.2,4.4S366.1,156.9,367.1,155z"/>
<path class="st15" d="M366.3,154.8c0.6-1.2,0.5-2.4-0.1-2.6s-1.7,0.4-2.3,1.6s-0.6,2.4,0.1,2.6S365.7,155.9,366.3,154.8z"/>
<path class="st1" d="M365.2,154.6c0.4-0.8,0.4-1.7-0.1-1.9s-1.2,0.3-1.7,1.1s-0.4,1.7,0.1,1.9S364.8,155.4,365.2,154.6z"/>
<path class="st1" d="M340.5,176.6c-1.2,0.5-0.5,4.4,0.1,5.1s2.4-0.2,4.1,1.8l1.8-1.8C344.6,178,341.8,176.1,340.5,176.6z"/>
<path class="st1" d="M346.9,182.1c-1.7-3.5-0.4-8.7-0.9-8.7c-0.8,0-2,2.4-1.5,6S346.9,182.1,346.9,182.1z"/>
<path class="st1" d="M340.8,177.6c-3.9-1.7-5.7-3.7-5.5-4.2s6.4,2.5,7.9,4.3S340.8,177.6,340.8,177.6z"/>
<path class="st1" d="M340.3,179.8c-4-1.4-5.8-2.9-5.7-3.5s6.6,2,8.3,3.7S340.3,179.8,340.3,179.8z"/>
<path class="st1" d="M342,182.1c-4.2-0.5-6.3-1.6-6.3-2.2s6.9,0.5,8.9,1.9S342,182.1,342,182.1z"/>
<path class="st47" d="M337.5,170.3c-0.2-7,9.3-5.9,6.8-10.2s-16.3,1.1-15.3-3.2c1.1-4.6,12.7-2.9,14.9-4.7c1.9-1.6,2-6-2.7-7.2
	c-11.2-2.9-6.8-10.8-6.8-10.8c-11.3,11.4,4.2,12.4,5,13.6c3,4.4-12.1,0.8-11.8,9.6c0.2,5.1,11.6,1.8,13.1,3.9
	C342.2,163.3,335.5,164.1,337.5,170.3z"/>
<polygon class="st50" points="29,224.8 15.5,224.6 12.6,371.7 26.1,372 26.4,357.5 67.3,354.5 "/>
<polygon class="st51" points="24.7,223.2 17,223.1 43.1,372.3 50.8,372.4 "/>
<polygon class="st52" points="120.4,233.8 21.5,222.7 47.5,372.3 62.6,372.6 62.2,369.8 132.8,371.7 133.7,373.9 143.5,374.1 "/>
<polygon class="st53" points="21.5,222.7 47.5,372.3 62.6,372.6 62.2,369.8 132.8,371.7 133.7,373.9 143.5,374.1 93.8,261.4 "/>
<polygon class="st54" points="110.9,241.8 33.2,232.4 57.5,362.7 133,363.6 "/>
<polygon class="st55" points="110.3,242.5 35.3,233.2 59.4,360.4 131.9,361.7 "/>
<polygon class="st56" points="110.9,241.8 33.9,232.2 133,363.6 "/>
<polygon class="st57" points="54.4,271.9 110.9,275.9 111.2,278 54.9,273.5 "/>
<path class="st50" d="M20.7,230.7c0-2.1-1-3.9-2.4-3.9s-2.5,1.7-2.5,3.8s1,3.9,2.3,3.9S20.6,232.9,20.7,230.7z"/>
<g class="st58">
	<path class="st57" d="M56.6,261.2c0-0.1,0-0.2,0-0.4c0-0.2,0-0.3,0.1-0.4h0.1c0.1,0,0.1,0,0.1,0l0.1-0.2l0.1-0.1
		c0.1-0.1,0.1-0.1,0.2-0.2c0.1-0.1,0.2-0.1,0.2-0.2c0.1-0.1,0.1-0.1,0.1-0.1l0,0l0,0v0.1c0,0.1,0,0.1,0.1,0.1l0,0l0,0c0,0,0,0,0.1,0
		l0,0c0,0,0,0,0.1,0H58l0.2-0.2l0,0l0,0l0,0h0.1h0.1c0,0,0,0,0.1,0h0.1h0.1h0.1h0.1c0,0,0.1,0,0.1,0.1c0.1,0,0.1,0.1,0.1,0.1h0.1
		h0.1l0.1-0.1c0,0,0.1,0,0.2,0c0.1,0,0.1,0,0.2,0c0,0,0-0.1,0.1-0.1s0-0.1,0-0.1h0.9c0,0,0,0,0-0.1s0-0.1,0-0.1l0,0l0,0
		c0,0,0,0,0-0.1s0-0.1,0-0.1s0-0.1,0-0.2s0-0.1,0-0.2c0,0,0,0,0-0.1c0,0,0-0.1-0.1-0.1c0-0.1,0-0.1,0-0.2s0-0.1,0-0.1s0,0,0-0.1V258
		v-0.1v-0.1v-0.1c0-0.1,0-0.1,0-0.1h0.1h0.1v-0.1c0-0.1,0-0.1,0-0.1l0,0h-0.1h-0.1v-0.7c0,0,0-0.1,0-0.2s0-0.2,0-0.2v-0.4v-0.1
		c0-0.1,0-0.1,0-0.1s0-0.1,0.1-0.1c0-0.1,0.1-0.1,0.1-0.1v-0.1v-0.1l-0.2,0.1l0,0l0,0v-0.1c0-0.1,0-0.1,0-0.1s0-0.1,0-0.3
		s0-0.3,0-0.3l0,0l0,0c0,0,0,0,0-0.1c0,0,0,0,0-0.1c0,0,0-0.1,0-0.2c0-0.1,0-0.1,0-0.2c0,0,0-0.1,0.1-0.2s0.1-0.2,0.1-0.2s0,0,0-0.1
		l0.1-0.1c0,0,0,0-0.1-0.1l-0.1-0.1v-0.8h0.1H61h0.1l0,0l0.4-0.4l0,0l0,0l0,0l0,0c0,0,0-0.1,0-0.2c0-0.1,0-0.1,0-0.2l-0.1-0.1l0,0
		l0,0c0,0-0.1,0-0.1,0.1l-0.1,0.1v0.1c0,0.1,0,0.1-0.1,0.1v-0.1v-0.1l0,0c0,0,0,0,0-0.1H61c0,0,0,0-0.1,0l0,0l0,0c0,0,0,0-0.1,0
		s-0.1,0-0.2,0s-0.1,0-0.2,0s-0.1,0-0.1,0h-0.1c-0.1,0-0.1,0-0.2,0h-0.1c-0.1,0-0.1,0-0.1,0l-0.1-0.2l-0.2,0.1v-0.3
		c0,0-0.1,0-0.1,0.1c-0.1,0-0.1,0-0.1,0v-0.1l-0.1-0.1h-0.1c0,0-0.1,0-0.1-0.1l0,0h-0.1c0,0,0,0-0.1,0h-0.1c0,0,0,0,0-0.1v-0.1
		c0,0,0,0-0.1-0.1c0,0-0.1,0-0.1-0.1c0,0,0,0-0.1,0l0,0c0,0,0,0,0-0.1v-0.1l-0.1-0.1c0-0.1-0.1-0.1-0.1-0.1s0-0.1,0.1-0.1l0.1-0.1
		l0,0l0,0l0.1,0.1l0.1,0.1v0.1c0,0,0.1,0.1,0.2,0.1c0.1,0,0.1,0.1,0.2,0.1c0,0,0.1,0,0.1-0.1l0,0v-0.1c0,0,0-0.1-0.1-0.2
		c-0.1-0.1-0.1-0.2-0.1-0.2l0,0l0,0v-0.1c0-0.1,0-0.1,0.1-0.1c0,0,0-0.1,0.1-0.1c0,0,0.1,0,0.2-0.1c0.1,0,0.1,0,0.2,0
		c0,0,0,0,0.1-0.1l0.1-0.1c0,0,0,0,0.1,0.1h0.1l0.2-0.2c0,0,0.1,0,0.1-0.1c0.1,0,0.1,0,0.1,0s0.1,0,0.1,0.1l0.1,0.1h0.1h0.1
		c0,0,0.1,0,0.1-0.1c0.1,0,0.1-0.1,0.1-0.1l0,0l0,0l0,0l0,0c0,0,0,0,0.1,0.1s0.1,0.1,0.1,0.1s0.1,0,0.2-0.1c0.1,0,0.1-0.1,0.2-0.1
		h0.1h0.1c0,0,0.1,0,0.1,0.1c0.1,0,0.1,0.1,0.1,0.1l0,0l0,0c0,0,0.1,0,0.1-0.1c0.1,0,0.1-0.1,0.1-0.1l0,0l0,0c0,0,0.1,0,0.1,0.1
		c0.1,0,0.1,0,0.1,0l0.1,0.1c0.1,0.1,0.1,0.1,0.1,0.1l0,0l0,0h0.1c0,0,0,0,0.1,0l0,0l0,0c0,0,0,0,0-0.1v-0.1l0,0l0,0l0,0l0,0
		l-0.1-0.2c0-0.1,0-0.1,0.1-0.1l0.1,0.1c0.1,0.1,0.1,0.1,0.1,0.1s0,0.1,0.1,0.1c0,0.1,0,0.1,0,0.1s0.1,0,0.1-0.1l0.1-0.1
		c0,0,0,0,0.1-0.1v-0.1h0.3h0.3H64c0.1,0,0.1,0,0.1,0.1l0.1,0.1l0.1,0.1l0,0l0,0c0,0,0,0.1-0.1,0.2s0,0.1,0,0.1s0,0-0.1,0.1
		l-0.1,0.1v0.1v0.1h0.1c0.1,0,0.1,0,0.1,0s0,0,0.1,0h0.1l0.1,0.2l0,0l0,0V250v-0.1c0,0,0,0-0.1-0.1v-0.1v-0.2v-0.1c0,0,0,0,0.1-0.1
		l0.1-0.1h0.1h0.1c0,0,0.1,0,0.1-0.1c0,0,0,0,0-0.1s0-0.1,0-0.1c0.1,0,0.1,0,0.1-0.1l0.1,0.1c0,0,0.1,0.1,0.1,0.2
		c0,0.1,0.1,0.1,0.1,0.2l0,0l0,0v0.1c0,0.1,0,0.1,0,0.1v0.2v0.1c0,0,0,0-0.1,0.1c-0.1,0-0.1,0.1-0.1,0.1l0,0H65c0,0,0,0.1-0.1,0.1
		l-0.1,0.1v0.1v0.1c0,0,0,0.1,0,0.2c0,0.1,0,0.2,0,0.2v0.2v0.2c0,0.1,0,0.1-0.1,0.1h-0.1h-0.1l0,0l-0.1-0.1c0,0,0,0-0.1-0.1
		s-0.1,0-0.1,0h-0.3c0,0,0,0-0.1-0.1l-0.1-0.1h-0.1c-0.1,0-0.1,0.1-0.2,0.1c0,0,0,0.1-0.1,0.1l-0.1,0.1L63,251l-0.1,0.1h-0.6
		c0,0-0.1,0-0.1,0.1s-0.1,0.1-0.1,0.2v0.2v0.2c0,0,0,0,0,0.1s0,0.1,0,0.1s0,0.1,0.1,0.1s0.1,0.1,0.1,0.1l0.1,0.1
		c0,0.1,0.1,0.1,0.1,0.1v0.2c0,0,0,0.1,0.1,0.2s0.1,0.1,0.1,0.2v1.2c0,0,0,0.1-0.1,0.1c0,0.1-0.1,0.1-0.1,0.1s0,0.1,0,0.2
		c0,0.1,0,0.1-0.1,0.2v0.1c0,0.1,0,0.1,0,0.2c0,0.1,0,0.2,0,0.2c0,0.1,0,0.1,0,0.2c0,0,0,0-0.1,0l0,0l0,0l0,0c0,0,0,0,0.1,0h0.1
		c0.1,0,0.1,0,0.1,0.1l0,0l0,0c0,0,0,0.1,0,0.2c0,0.1,0,0.2,0,0.2v0.3v0.2c0,0,0,0.1,0.1,0.1c0,0.1,0.1,0.1,0.1,0.1s0,0.1-0.1,0.1
		l-0.1,0.1l0,0l0,0c0,0,0.1,0,0.1,0.1c0.1,0,0.1,0.1,0.1,0.1s0,0.1,0,0.2s0,0.2,0,0.3v0.1v0.1c0,0,0,0.1,0,0.2s0,0.2-0.1,0.2h-0.1
		h-0.1l0,0l-0.1-0.1l0,0l0,0l0,0c0,0,0,0.1-0.1,0.1s0,0.1,0,0.1s0,0,0.1,0s0.1,0,0.1,0s0,0.1,0.1,0.1c0,0.1,0.1,0.1,0.1,0.1v0.2
		l0.5,0.5c0,0,0,0,0.1-0.1c0,0,0,0,0.1-0.1c0-0.1,0-0.1,0-0.1l0,0l0,0h0.1c0,0,0.1,0,0.1,0.1h0.1l0.2,0.3l0,0l0,0l0,0l0,0l0,0H64
		h0.2h0.1c0.1,0,0.1,0,0.1-0.1h0.1l0,0c0,0,0,0,0,0.1l0,0h0.1h0.1h0.1c0,0,0.1,0,0.1-0.1l0,0l0,0v0.1v0.1c0,0.1,0,0.1,0.1,0.1h0.1
		h0.1l0,0l0,0c0,0,0-0.1,0-0.2s0-0.1,0-0.2c0,0,0,0,0.1,0l0.1,0.1v0.1v0.1c0,0,0,0,0,0.1l0.1,0.1c0,0.1,0.1,0.1,0.1,0.1s0.1,0,0.2,0
		s0.2,0,0.2,0c0,0.1,0,0.1-0.1,0.2c0,0,0,0,0,0.1l0,0c0,0,0,0-0.1-0.1l-0.1-0.1c0,0-0.1,0-0.1,0.1c-0.1,0-0.1,0.1-0.1,0.1v0.1
		l0.1,0.1l0,0l0,0c0,0,0,0-0.1,0.1c-0.1,0-0.1,0.1-0.1,0.1s0,0,0,0.1s0,0.1,0,0.1s0,0,0,0.1v0.1H65l0,0l0,0l0.1-0.1l0,0v-0.1l0,0
		l0,0V260l-0.1,0.1c0,0,0,0.1-0.1,0.2c0,0.1-0.1,0.2-0.1,0.2s-0.1,0-0.1,0.1c-0.1,0-0.1,0.1-0.1,0.1l0,0l0,0l0,0c0,0,0,0,0,0.1
		s0,0.1,0,0.1l-0.5-0.3v0.1v0.1l0,0c0,0,0,0-0.1,0h-0.1l0,0l0,0l0.1,0.1c0.1,0,0.1,0.1,0.1,0.1s0.1,0,0.2,0s0.1,0,0.2,0
		c0,0,0,0,0.1,0.1c0,0.1,0,0.1,0,0.1h0.1c0.1,0,0.1,0,0.1,0l0,0l0,0c0,0,0,0.1-0.1,0.1h-0.2h-0.1v-0.1c0-0.1,0-0.1,0-0.1
		s-0.1,0-0.1-0.1h-0.1h-0.1H64v0.3h-0.2c-0.1,0-0.2,0-0.3,0h-0.1c-0.1,0-0.1,0-0.1-0.1h-0.1h-0.1c0,0,0,0-0.1,0c0,0-0.1,0-0.1,0.1
		v-0.2l0,0l0,0c0,0,0,0,0,0.1s0,0.1,0,0.1l0,0c0,0,0,0-0.1,0l0,0l0,0v-0.1v-0.1l0,0l0,0l0,0l0,0l0,0l0,0l0,0l0,0c0,0-0.1,0-0.2-0.1
		c-0.1-0.1-0.2-0.1-0.2-0.1h-0.1l0,0v0.1v0.1l0,0l0,0c0,0,0-0.1,0-0.2s0-0.2,0-0.2c0-0.1,0-0.1-0.1-0.1v-0.1H62c0,0,0,0-0.1,0
		s-0.1,0-0.1,0s0,0-0.1,0l0,0c0.1,0,0.1,0,0.1,0.1c0,0,0,0,0.1,0c0,0,0.1,0,0.1,0.1v0.1v0.1l0,0h-0.1h-0.1c0,0,0,0-0.1,0.1l-0.1,0.1
		c0,0-0.1,0.1-0.1,0.2h-0.4h-0.3c-0.1,0-0.1,0-0.3-0.1c-0.1,0-0.2-0.1-0.3-0.1l0,0c0,0,0,0-0.1,0c0,0,0,0,0,0.1s0,0.1,0,0.1
		l-0.1,0.1h-0.5v-0.1v-0.1l0,0l0,0l-0.1,0.1v0.1c0,0.1,0,0.1,0,0.1l-0.1-0.2c0,0,0,0.1-0.1,0.1l-0.1,0.1c0,0,0,0-0.1,0.1h-0.1
		c0,0,0,0-0.1,0h-0.1h-0.1h-0.1c0,0-0.1,0-0.2,0c-0.1,0-0.1,0-0.2-0.1c0,0,0,0-0.1-0.1s-0.1-0.1-0.2-0.1c0,0,0,0,0-0.1l0,0
		c0,0,0-0.1-0.1-0.2S56.6,261.3,56.6,261.2L56.6,261.2L56.6,261.2z M57.1,260.9C57.1,260.9,57,261,57.1,260.9c-0.1,0.1,0,0.2,0,0.2
		S57.2,261.1,57.1,260.9C57.2,261,57.1,260.9,57.1,260.9z M58.2,260.6C58.2,260.5,58.2,260.6,58.2,260.6L58.2,260.6
		C58.3,260.6,58.3,260.6,58.2,260.6z M58.8,261.9C58.7,261.8,58.7,261.9,58.8,261.9c-0.1,0.1-0.1,0.2,0,0.2
		C58.8,262,58.8,262,58.8,261.9L58.8,261.9z M59,250.2L59,250.2l0.1-0.1L59,250.2z M59.2,260L59.2,260
		C59.2,260.1,59.2,260.1,59.2,260C59.2,260.1,59.2,260.1,59.2,260C59.2,260.1,59.2,260,59.2,260z M59.4,261.2
		C59.4,261.1,59.4,261.1,59.4,261.2L59.4,261.2h-0.2l0,0H59.4L59.4,261.2z M59.7,261.2h0.2H59.7L59.7,261.2z M60,260.1L60,260.1
		c-0.1,0.1,0,0.1,0,0.1S60.1,260.2,60,260.1C60.1,260.1,60.1,260.1,60,260.1z M60.2,260L60.2,260l0.1-0.1L60.2,260L60.2,260z
		 M60.5,249.8C60.4,249.8,60.4,249.8,60.5,249.8c0,0.1,0,0.2,0,0.2C60.5,249.9,60.5,249.9,60.5,249.8L60.5,249.8z M60.8,259.8
		c0,0-0.1,0-0.1,0.1c-0.1,0-0.1,0.1-0.1,0.1s0,0,0,0.1c0,0,0,0.1-0.1,0.1v0.1l0,0L60.8,259.8z M60.8,260.2L60.8,260.2L60.8,260.2
		L60.8,260.2z M60.9,260.7L60.9,260.7L60.9,260.7C60.9,260.7,60.9,260.8,60.9,260.7C60.9,260.8,60.9,260.7,60.9,260.7z M61,254.5
		L61,254.5c-0.1,0.1,0,0.2,0,0.2C61.1,254.7,61.1,254.6,61,254.5C61.1,254.5,61.1,254.5,61,254.5z M61.5,261.3c0,0,0.1,0,0.2,0.1
		c0.1,0,0.1,0.1,0.2,0.1s0.1,0.1,0.1,0.1c0,0.1,0,0.1,0,0.1l0.1-0.1l0,0l0,0l0,0l0,0c0,0,0-0.1-0.1-0.1c0-0.1-0.1-0.1-0.1-0.1
		s0,0-0.1,0s-0.1,0-0.1,0L61.5,261.3C61.6,261.3,61.6,261.3,61.5,261.3L61.5,261.3L61.5,261.3z M61.8,249.8L61.8,249.8
		c-0.1,0-0.2,0-0.2,0C61.7,249.8,61.7,249.9,61.8,249.8C61.8,249.9,61.8,249.8,61.8,249.8z M61.8,258.3L61.8,258.3L61.8,258.3
		C61.9,258.3,61.9,258.3,61.8,258.3C61.9,258.3,61.9,258.3,61.8,258.3z M61.9,251.6L61.9,251.6L61.9,251.6
		C62,251.7,62,251.7,61.9,251.6C62,251.7,62,251.7,61.9,251.6h0.2v-0.1v-0.1L61.9,251.6z M62.3,260.4
		C62.3,260.4,62.2,260.4,62.3,260.4C62.2,260.4,62.2,260.5,62.3,260.4c-0.1,0-0.1,0.1-0.1,0.1L62.3,260.4L62.3,260.4L62.3,260.4z
		 M62.3,250.3C62.3,250.3,62.2,250.3,62.3,250.3c0,0.1,0,0.2,0,0.2S62.3,250.4,62.3,250.3L62.3,250.3z M62.3,261.4l0.2-0.1l-0.1-0.1
		L62.3,261.4z M62.3,258.2L62.3,258.2c0,0,0,0.1,0.1,0.1l0,0l0,0l0.1-0.1v-0.1V258c0-0.1-0.1-0.1-0.2-0.1c0,0-0.1,0-0.1,0.1
		C62.3,258.1,62.3,258.1,62.3,258.2L62.3,258.2L62.3,258.2z M62.5,251.2L62.5,251.2C62.5,251.3,62.5,251.3,62.5,251.2
		C62.6,251.3,62.6,251.2,62.5,251.2z M62.5,253.2L62.5,253.2c0,0.1,0,0.1,0,0.2c0,0,0,0,0,0.1l0,0V253.2L62.5,253.2z M62.5,260.4
		L62.5,260.4L62.5,260.4l0.1,0.1l0,0c0,0,0,0,0.1,0l0,0c0,0,0,0,0-0.1H62.5z M62.9,250.3L62.9,250.3c-0.1,0.1-0.1,0.1-0.1,0.2
		s0,0.1,0,0.1h0.1c0,0,0,0,0.1-0.1C63,250.4,63,250.4,62.9,250.3L62.9,250.3L62.9,250.3L62.9,250.3z M63.1,261.7L63.1,261.7
		L63.1,261.7L63.1,261.7L63.1,261.7z M63.2,261.3L63.2,261.3h0.2l0.1-0.1l-0.1-0.2L63.2,261.3z M63.5,250.3
		C63.5,250.3,63.5,250.2,63.5,250.3C63.4,250.2,63.4,250.2,63.5,250.3C63.4,250.3,63.5,250.3,63.5,250.3z M63.5,249.9
		C63.5,249.9,63.4,249.9,63.5,249.9c-0.1,0.1-0.1,0.2,0,0.2C63.5,250,63.6,250,63.5,249.9C63.6,249.9,63.5,249.9,63.5,249.9z
		 M63.5,250.9L63.5,250.9v-0.1V250.9z M63.7,250.2C63.6,250.2,63.6,250.2,63.7,250.2c-0.1,0.1,0,0.2,0,0.2S63.7,250.3,63.7,250.2
		L63.7,250.2z M63.7,250L63.7,250c-0.1,0.1,0,0.2,0,0.2C63.8,250.1,63.8,250.1,63.7,250C63.8,250,63.8,250,63.7,250z M64.4,260.5
		C64.3,260.5,64.3,260.5,64.4,260.5c-0.1,0-0.1,0.1-0.2,0.1l-0.1,0.1c0,0,0,0.1,0,0.2s0,0.2,0,0.2h0.1c0-0.1,0-0.1,0.1-0.2
		c0-0.1,0-0.1,0.1-0.2C64.3,260.7,64.4,260.6,64.4,260.5C64.4,260.6,64.4,260.5,64.4,260.5L64.4,260.5z M64.2,250.7
		C64.1,250.7,64.1,250.7,64.2,250.7c-0.1,0.1,0,0.2,0,0.2S64.3,250.8,64.2,250.7C64.3,250.7,64.2,250.7,64.2,250.7z M64.4,251.4
		v-0.2V251l0,0c0,0,0,0-0.1,0l-0.1,0.1L64.4,251.4z M64.5,260.3L64.5,260.3C64.5,260.4,64.5,260.4,64.5,260.3
		C64.6,260.4,64.6,260.4,64.5,260.3C64.6,260.4,64.6,260.4,64.5,260.3z M64.5,250.1C64.6,250.1,64.6,250.2,64.5,250.1
		c0.1,0.1,0.1,0.1,0.2,0.1s0.1,0,0.1-0.1V250l0,0c0-0.1,0-0.1-0.1-0.1l0,0l0,0C64.6,249.9,64.5,249.9,64.5,250.1L64.5,250.1
		L64.5,250.1z M64.9,250.3L64.9,250.3C65,250.3,65,250.3,64.9,250.3l0.2-0.1L64.9,250.3L64.9,250.3z"/>
	<path class="st57" d="M69.4,261.9v-0.1c0-0.1,0-0.1,0.1-0.1v-0.1c0-0.1,0-0.1,0-0.1s0,0,0-0.1v-0.1c0-0.1,0-0.2,0-0.4
		c0-0.2,0-0.4,0-0.4l0,0l0,0c0,0,0,0,0,0.1v0.1l0,0h0.1l0,0l0,0c0,0,0-0.1-0.1-0.1c0-0.1-0.1-0.1-0.1-0.1l0,0l0,0c0,0,0-0.1,0.1-0.1
		c0-0.1,0.1-0.1,0.1-0.1s0,0,0-0.1v-0.1h-0.1c0,0,0,0-0.1,0c0,0,0,0-0.1,0c0,0,0,0,0-0.1c0,0,0.1,0,0.1-0.1l0.1-0.1v-0.1v-0.1
		c0,0,0,0,0-0.1s0-0.1,0-0.1s0-0.1-0.1-0.1s-0.1-0.1-0.1-0.1v-0.1V259h0.1c0,0,0-0.1,0-0.3c0-0.1,0-0.2,0-0.2s0-0.1,0-0.3
		c0-0.2,0-0.3,0-0.3s0,0,0-0.1s0-0.2,0-0.2l0,0v-0.1c0,0,0.1-0.1,0.1-0.2c0.1-0.1,0.1-0.2,0.1-0.2l0,0V257c0,0,0,0-0.1,0h-0.1
		c0,0,0,0,0-0.1v-0.1v-0.1l0,0c0,0,0-0.1,0-0.2s0-0.2,0.1-0.2v-0.1v-0.1c0,0,0,0,0-0.1v-0.1c0,0,0-0.1,0-0.2s0-0.2,0.1-0.2
		c0-0.1,0-0.2,0-0.3s0-0.3,0.1-0.5c0-0.2,0-0.3,0.1-0.5c0-0.1,0-0.2,0-0.3c0,0,0,0,0-0.1v-0.1v-0.1c0-0.1,0-0.1,0-0.1s0,0,0-0.1
		v-0.1h-0.3c0,0,0,0,0-0.1c0,0,0-0.1,0.1-0.1l0,0l0,0c0,0,0,0,0.1,0c0,0,0.1,0,0.1-0.1c0,0,0,0,0-0.1s0-0.1,0-0.1l0,0l0,0h-0.1
		c-0.1,0-0.1,0-0.1-0.1c0,0-0.1,0-0.2-0.1c-0.1,0-0.1-0.1-0.2-0.1h-0.4h-0.4c0,0-0.1,0-0.2,0.1c-0.1,0-0.2,0.1-0.2,0.1
		c-0.1,0-0.1,0-0.1-0.1c0,0,0,0,0-0.1v-0.1l-0.1-0.1l-0.1-0.1l0,0l0,0c0,0,0,0-0.1,0c0,0,0,0,0,0.1v0.1v0.1l0,0l0,0
		c0,0-0.1,0-0.1-0.1c-0.1-0.1-0.1-0.1-0.1-0.1s-0.1-0.1-0.1-0.2c-0.1-0.1-0.1-0.1-0.1-0.2l0,0l0,0h-0.1H67l0,0c0,0,0,0,0-0.1l0,0
		l0,0c0,0,0,0,0.1,0h0.1v-0.1c0,0,0,0,0-0.1l0,0l0,0c0,0,0,0,0-0.1v-0.1c0,0,0,0,0-0.1v-0.1c0,0,0,0,0-0.1s0-0.1,0-0.1v-0.1v-0.1
		v-0.1c0-0.1,0-0.1,0-0.1v-0.3l0,0l0,0l0,0c0,0,0.1,0.1,0.2,0.1s0.1,0.1,0.2,0.1c0,0,0,0,0.1,0l0,0v-0.4l0.1,0.6h0.1H68
		c0.1,0,0.1-0.1,0.1-0.1v-0.4l0.5,0.1l0,0l0,0c0,0,0,0.1-0.1,0.1c0,0.1,0,0.1,0,0.1s0,0,0.1,0c0,0,0,0,0.1,0c0,0,0,0,0.1,0
		c0,0,0.1,0,0.2,0s0.1,0,0.2,0l0,0l0,0c0,0,0,0.1-0.1,0.2c-0.1,0.1-0.1,0.1-0.1,0.2l0,0v0.1l0,0l0,0l0.2,0.1l0,0h0.1
		c0,0,0.1,0,0.2-0.1c0.1,0,0.1-0.1,0.2-0.1c0,0,0,0,0.1-0.1s0.1-0.1,0.1-0.1l0,0v-0.1l-0.1-0.2c0,0,0-0.1,0.1-0.1
		c0.1-0.1,0.1-0.1,0.1-0.1s0,0,0-0.1s0-0.1,0-0.1h0.1c0.1,0,0.1,0,0.1,0s0.1,0,0.1-0.1c0.1,0,0.1-0.1,0.1-0.1h0.1h0.1h0.1
		c0,0,0,0,0.1,0h0.1H71l0.1,0.1c0,0,0,0,0.1,0h0.1v0.3l0,0c0,0,0,0,0.1,0v-0.1V250l0.1-0.1l0.1-0.1c0,0,0,0,0.1,0l0.1,0.1h0.1H72
		h0.1c0.1,0,0.1,0,0.1,0s0.1,0,0.1,0.1l0.1,0.1h0.1h0.1c0,0,0,0.1,0,0.2c0,0.1,0,0.2,0,0.2s0,0.1-0.1,0.1h-0.1v0.8c0,0,0,0,0.1-0.1
		v-0.1c0,0,0.1,0,0.1-0.1s0.1-0.1,0.1-0.1s0.1-0.1,0.1-0.2c0-0.1,0.1-0.2,0.1-0.2l0,0c0,0,0,0,0-0.1s0,0,0-0.1l0,0c0,0,0,0,0,0.1
		s0,0.1,0,0.1l0.1,0.1c0,0,0.1,0,0.1-0.1s0.1-0.1,0.1-0.1l0,0l0,0v0.1v0.1c0,0,0,0,0.1,0c0,0,0,0,0.1,0h0.1h0.1c0,0,0.1,0,0.1,0.1
		c0.1,0,0.1,0.1,0.1,0.1s0,0,0.1,0.1s0,0.1,0,0.1s0,0,0-0.1c0,0,0-0.1,0.1-0.1v-0.1c0,0,0,0,0.1-0.1s0-0.1,0.1-0.1
		c0,0,0,0.1,0.1,0.1l0.1,0.1c0,0,0.1,0,0.2,0s0.1,0,0.2,0c0,0.1,0,0.1,0,0.1s0,0,0,0.1v0.1c0,0,0,0.1,0,0.2c0,0.1,0,0.2,0,0.2
		s0,0,0,0.1c0,0,0,0.1-0.1,0.2c0,0.1-0.1,0.1-0.1,0.2c0,0.1,0,0.1,0,0.1v0.1v0.1v0.1c0,0.1,0,0.1,0,0.1s0,0,0,0.1v0.1c0,0,0,0,0,0.1
		c0,0,0,0,0.1,0l0,0h0.1l0,0l0,0c0,0,0,0,0.1-0.1c0-0.1,0-0.1,0-0.1s0,0,0.1,0s0.1,0,0.1,0v-0.1c0-0.1,0-0.1,0-0.1s0-0.1,0-0.2
		c0-0.1,0-0.1,0-0.2h-0.2l0.1-0.1c0.1-0.1,0.1-0.1,0.1-0.1l0,0l0,0v-0.1H75c0,0,0,0-0.1,0c0,0,0,0-0.1,0l0,0c0,0,0,0-0.1-0.1
		c0,0-0.1,0-0.1-0.1v-0.1v-0.1c0,0,0,0,0.1-0.1h0.1h0.1H75h0.1c0,0,0.1,0,0.1,0.1c0,0,0,0.1,0,0.2c0,0.1,0,0.1,0,0.2c0,0,0,0,0,0.1
		c0,0,0,0.1,0,0.2c0,0.1,0,0.1,0,0.2c0,0.1,0,0.1,0,0.1s0,0.1,0,0.2c0,0.1,0,0.2,0.1,0.2c0,0.1,0.1,0.2,0.1,0.2c0,0.1,0,0.1,0.1,0.2
		c0,0,0,0,0.1,0h0.1c0,0,0,0,0.1,0c0,0,0,0,0-0.1v-0.6c0-0.1,0-0.1,0.1-0.1l0,0l0,0c0,0,0.1,0.1,0.2,0.1c0.1,0.1,0.1,0.1,0.2,0.2
		c0,0,0,0.1,0.1,0.1v0.1v0.1c0,0,0,0,0,0.1v0.1h0.2c0,0,0,0.1,0,0.2c0,0.1,0,0.1,0,0.2c0,0,0,0.1,0.1,0.1s0.1,0.1,0.1,0.1
		s0,0.1,0.1,0.1c0,0,0,0.1,0.1,0.1v0.2v0.2c0,0,0,0.1,0,0.2c0,0.1,0,0.1,0,0.2c0,0,0,0,0,0.1v0.1l0,0l0,0l0,0c0,0,0,0,0-0.1h0.1l0,0
		c0,0,0,0.1,0,0.2c0,0.1,0,0.1,0,0.2c0,0,0,0.1,0.1,0.2c0.1,0.1,0.1,0.1,0.1,0.2c-0.1,0-0.1,0-0.1,0.1c0,0,0,0.1,0,0.2
		c0,0.1,0,0.1,0,0.2c0,0,0,0,0,0.1s0,0.1,0,0.1l0.1,0.1l0,0l0,0c0,0,0-0.1,0.1-0.1v-0.1c0,0,0-0.1,0-0.2c0-0.1,0-0.1,0-0.2l0,0l0,0
		c0,0,0.1,0,0.1,0.1c0.1,0,0.1,0,0.1,0.1l0.1,0.1c0.1,0.1,0.1,0.1,0.1,0.1s-0.1,0.1-0.1,0.3s-0.1,0.2-0.1,0.2v0.1v0.1l0,0l0,0v0.1
		v0.1c0,0,0,0,0,0.1l0,0l0,0l0,0v0.1v0.1v0.1c0,0.1,0,0.1,0,0.1l0,0l0,0v0.1c0,0.1,0,0.1-0.1,0.1l0,0l0,0c0,0,0,0,0-0.1l0,0h-0.1
		c0,0,0,0-0.1,0v0.6c0,0-0.1,0-0.1,0.1s-0.1,0.1-0.1,0.1s0,0-0.1,0.1c0,0.1,0,0.1,0,0.1l0,0c0,0,0,0-0.1,0c0,0,0,0-0.1,0.1
		c0,0-0.1,0-0.1,0.1l-0.4,0.8l-0.2-0.1c0,0-0.1,0.1-0.1,0.2c-0.1,0.1-0.1,0.1-0.1,0.2l-0.1,0.1v0.1v0.1l0,0l0,0l0,0l0,0l0,0h-0.1
		l0,0c0,0-0.1,0-0.1-0.1c-0.1,0-0.1-0.1-0.1-0.1l0,0v0.1c0,0,0,0.1,0,0.2c0,0,0,0.1,0.1,0.1h0.1v0.1c0,0,0,0.1-0.1,0.1
		c0,0-0.1,0-0.1,0.1h-0.1c0,0,0,0-0.1,0l0,0c0,0-0.1,0.1-0.1,0.2s-0.2,0-0.2,0l-0.1,0.1c-0.1,0.1-0.1,0.1-0.1,0.1s0,0-0.1,0.1
		c0,0,0,0,0,0.1c0,0,0,0,0,0.1l0,0l0,0l0,0c0,0,0,0,0-0.1v-0.1l0,0l0,0c0,0,0,0.1,0,0.2s0,0.1-0.1,0.2c0,0.1,0,0.1-0.1,0.1
		c0,0,0,0.1-0.1,0.1c0,0.1-0.1,0.1-0.1,0.1s0-0.1-0.1-0.1c0-0.1-0.1-0.1-0.1-0.1s0,0-0.1,0h-0.1c0,0,0,0-0.1,0.1l-0.1,0.1
		c0,0,0,0,0-0.1v-0.1l0,0l0,0c0,0,0,0-0.1,0c0,0,0,0-0.1,0c0,0,0,0.1-0.1,0.1c0,0.1-0.1,0.1-0.1,0.1l-0.1,0.1
		c-0.1,0-0.1,0.1-0.1,0.1l0,0l0,0v-0.1c0,0,0,0,0-0.1l0,0H73l0,0c0,0,0,0-0.1,0.1c0,0.1-0.1,0.1-0.1,0.1h-0.1c-0.1,0-0.1,0-0.1,0
		s-0.1,0-0.2,0.1s-0.2,0.1-0.2,0.1l0,0l0,0l0,0v-0.1c0,0,0-0.1-0.1-0.1c0,0-0.1,0-0.1-0.1c-0.1,0-0.1,0-0.1-0.1l0,0
		c0,0-0.1-0.1-0.1,0l0,0l0,0l0,0l0,0l-0.4,0.6c0,0,0,0-0.1,0s-0.1,0-0.1,0h-0.1H71h-0.1c0,0,0,0-0.1,0s-0.1,0-0.2-0.1l-0.1-0.1
		c-0.1,0-0.1-0.1-0.1-0.1v-0.1c0-0.1,0-0.1,0-0.1s-0.1,0-0.1-0.1C69.5,262,69.4,262,69.4,261.9C69.4,262,69.4,262,69.4,261.9z
		 M67.7,250.2L67.7,250.2C67.6,250.1,67.6,250.2,67.7,250.2C67.6,250.2,67.6,250.2,67.7,250.2L67.7,250.2z M68,251.5L68,251.5
		L68,251.5L68,251.5L68,251.5z M69.1,251.6L69.1,251.6c0,0.1,0,0.2,0,0.2C69.2,251.7,69.2,251.7,69.1,251.6
		C69.2,251.6,69.2,251.6,69.1,251.6z M69.4,252L69.4,252L69.4,252L69.4,252z M69.7,252.1L69.7,252.1c-0.1,0.1,0,0.1,0,0.1
		C69.8,252.2,69.8,252.2,69.7,252.1C69.8,252.1,69.8,252.1,69.7,252.1z M69.8,261.4L69.8,261.4L69.8,261.4L69.8,261.4z M70,257.6
		L70,257.6L70,257.6c-0.1,0.1-0.1,0.2-0.1,0.3c0,0.1,0,0.1,0,0.2H70c0.1,0,0.1,0,0.1-0.1c0,0,0-0.1,0.1-0.2c0-0.1,0-0.1,0.1-0.2
		L70,257.6L70,257.6z M70,261c0,0,0,0.1,0,0.2s0,0.1,0,0.1s0,0.1,0.1,0.1l0.1,0.1v-0.6c0,0,0,0-0.1-0.1l0,0l0,0
		C70.1,260.8,70.1,260.8,70,261C70.1,260.9,70.1,260.9,70,261L70,261L70,261z M70.2,254.1L70.2,254.1c-0.1,0.1-0.1,0.2,0,0.2
		C70.3,254.3,70.3,254.2,70.2,254.1C70.3,254.1,70.3,254.1,70.2,254.1z M70.2,252.9L70.2,252.9L70.2,252.9L70.2,252.9L70.2,252.9z
		 M70.4,257.9L70.4,257.9C70.3,257.9,70.3,257.9,70.4,257.9C70.3,258,70.4,258,70.4,257.9z M70.5,260.7L70.5,260.7v-0.2V260.7
		L70.5,260.7z M70.5,252.7C70.5,252.7,70.4,252.7,70.5,252.7c-0.1,0.1-0.1,0.2,0,0.2C70.6,252.8,70.6,252.8,70.5,252.7
		C70.6,252.7,70.6,252.7,70.5,252.7z M70.6,252v0.2v0.1c0,0.1,0,0.1,0,0.1l0,0v0.1c0,0,0.1,0,0.1-0.1s0.1-0.1,0.1-0.1s0-0.1,0-0.2
		c0-0.1,0-0.1,0-0.2L70.6,252z M71,260.4C70.9,260.4,70.9,260.4,71,260.4C70.9,260.5,70.9,260.5,71,260.4
		C71,260.5,71,260.5,71,260.4L71,260.4z M71,260.7L71,260.7c0,0.1,0,0.1,0,0.1v0.1c0,0,0,0.1,0,0.2s0,0.1,0,0.2l0.1,0.1
		c0,0,0.1,0,0.1-0.1s0-0.1,0-0.1V261v-0.2l0,0l0,0l0,0C71.2,260.7,71.1,260.6,71,260.7L71,260.7C71,260.6,71,260.6,71,260.7
		L71,260.7z M71.6,260.3c0,0,0.1,0.1,0.1,0.2c0.1,0.1,0.1,0.2,0.2,0.2l0,0l0,0l0,0c0,0,0,0,0.1-0.1c0-0.1,0.1-0.1,0.1-0.1h0.3
		c0,0,0,0,0-0.1s0-0.1,0-0.1s0.1,0,0.2-0.1s0.1-0.1,0.2-0.1h0.1l0,0c0,0,0,0,0.1,0c0,0,0,0,0.1,0h0.1h0.1c0,0,0,0,0-0.1v-0.1
		c0,0,0,0,0.1,0s0.1,0,0.1,0s0.1,0,0.1-0.1c0.1-0.1,0.1-0.1,0.1-0.1h0.1h0.1H74c0.1,0,0.1,0,0.1,0s0,0.1,0.1,0.1s0.1,0.1,0.1,0.1
		v-0.5h0.1c0.1,0,0.1,0,0.1,0s0,0,0.1,0h0.1v-0.1c0-0.1,0-0.1,0-0.1l0,0c0,0,0,0,0.1,0c0,0,0,0,0.1-0.1H75c0,0,0.1-0.1,0.2-0.2
		s0.2-0.2,0.3-0.2l0.1-0.1l0.1-0.1c0,0,0-0.1,0.1-0.2s0.1-0.2,0.1-0.3c0,0,0-0.1,0-0.2s0-0.2,0.1-0.2c0,0,0-0.1,0.1-0.1
		c0-0.1,0.1-0.1,0.1-0.1s0,0,0-0.1l0,0c0,0,0,0,0.1,0h0.1c0,0,0-0.1,0.1-0.1l0.1-0.1V257v-0.1l0,0l0,0l0,0l-0.1,0.1l0,0
		c0,0,0,0-0.1,0.1c0,0.1,0,0.1-0.1,0.1l0,0l0,0l0,0c0,0,0,0-0.1-0.1l-0.1-0.1c0,0,0,0,0-0.1s0-0.1,0.1-0.1v-0.1l0,0h-0.1H76
		c0,0,0,0,0-0.1l0,0c0,0-0.1-0.1-0.1-0.2s-0.1-0.2-0.1-0.2l-0.1-0.1c0-0.1-0.1-0.1-0.1-0.1s0,0,0-0.1v-0.1c0,0-0.1-0.1-0.1-0.2
		c-0.1-0.1-0.1-0.1-0.1-0.1v-0.1v-0.1c0-0.1,0-0.2,0-0.3s0-0.3,0-0.3l-0.1-0.1c0,0,0,0.1-0.1,0.1l-0.1,0.1l0,0l0,0
		c0,0,0-0.1-0.1-0.1v-0.1l-0.2,0.1c0,0-0.1-0.1-0.1-0.2c-0.1-0.1-0.1-0.2-0.1-0.2s0-0.1-0.1-0.1h-0.1c-0.1,0-0.1,0-0.1-0.1
		c0,0,0-0.1-0.1-0.2c0-0.1,0-0.2,0-0.2s-0.1,0.1-0.2,0.1s-0.1,0.1-0.2,0.1l0,0l0,0c0,0,0-0.1,0.1-0.1c0-0.1,0-0.1,0-0.1
		c0-0.1,0-0.1-0.1-0.1c0,0,0,0-0.1,0l0,0c0,0,0,0-0.1,0.1c0,0,0,0.1-0.1,0.1l0,0c0,0,0,0,0-0.1c0,0,0,0,0-0.1s0-0.1,0-0.1s0,0,0-0.1
		s0-0.1,0-0.1l0,0l0,0c0,0,0,0-0.1,0.1s0,0.1-0.1,0.1c0,0.1,0,0.1-0.1,0.1l0,0l0,0v-0.1c0-0.1,0-0.1,0-0.1s0,0,0-0.1s0-0.1-0.1-0.1
		v-0.1c0-0.1,0-0.1-0.1-0.1h-0.1c0,0,0,0-0.1,0h-0.1h-0.1c0,0,0,0.1-0.1,0.1c0,0.1-0.1,0.1-0.1,0.1h-0.1h-0.1l0,0l0,0c0,0,0,0,0-0.1
		c0,0,0.1-0.1,0.1-0.2c0-0.1,0.1-0.1,0.1-0.2c0,0,0-0.1,0.1-0.1c0-0.1,0-0.1,0-0.1l0.1-0.1c0,0,0-0.1,0.1-0.1s0-0.1,0-0.1l0,0l0,0
		l0,0l0,0c0,0,0-0.1-0.1-0.1s-0.1-0.1-0.1-0.1l-0.4,0.4v0.2c0,0-0.1,0.1-0.2,0.2c-0.1,0.1-0.1,0.1-0.2,0.2c0,0,0,0-0.1,0h-0.1l0,0
		l0,0v0.3v0.3h0.1h0.1l0,0l0,0l0,0l0,0c0,0-0.1,0.1-0.1,0.2s-0.1,0.1-0.1,0.2v0.1l0,0h0.1c0.1,0,0.1,0,0.1,0s0,0,0.1,0l0,0v0.1v0.1
		c0,0,0,0.1,0.1,0.2c0,0.1,0,0.1,0,0.2c0,0,0,0,0,0.1v0.1l0,0l0,0l0,0c0,0,0,0.1-0.1,0.1c0,0,0,0-0.1,0.1h-0.1l-0.1,0.1l0,0v0.1
		c0,0,0,0,0,0.1l0,0c0,0,0,0,0.1,0c0,0,0.1,0,0.1-0.1c0.1-0.1,0.1-0.1,0.1-0.2c0,0,0,0,0,0.1c0,0,0,0,0,0.1s0,0.1,0,0.1
		s0,0.1-0.1,0.1c-0.1,0.1-0.1,0.1-0.1,0.1v0.1v0.2l0,0l0,0l0,0l0,0v0.1c0,0,0,0-0.1,0c0,0,0,0-0.1,0l-0.1-0.1v0.1v0.1
		c0,0,0.1,0.1,0.1,0.2s0.1,0.2,0.1,0.2s0,0.1,0,0.2s0,0.1,0,0.2l0,0c0,0,0,0,0.1,0h0.1h0.1l0,0l0,0l0,0l0,0l0,0c0,0,0,0.1-0.1,0.2
		s-0.1,0.1-0.1,0.2c0,0,0,0.1,0.1,0.1c0,0.1,0.1,0.1,0.1,0.1v1.2c0,0,0,0-0.1,0.1v0.1v0.1v0.1l0,0c0,0,0,0.1,0.1,0.2
		c0,0.1,0,0.1,0,0.1v0.1v0.1l0,0l0,0v0.1v0.4L71.6,260.3z M71.5,257.5L71.5,257.5L71.5,257.5L71.5,257.5z M71.5,251.8L71.5,251.8
		c-0.1,0.1-0.1,0.2,0,0.2S71.6,251.9,71.5,251.8C71.6,251.8,71.6,251.8,71.5,251.8z M71.8,262.1L71.8,262.1L71.8,262.1L71.8,262.1z
		 M71.9,250.3C71.9,250.3,71.8,250.3,71.9,250.3c-0.1,0.1-0.1,0.2,0,0.2S72,250.5,71.9,250.3C72,250.3,72,250.3,71.9,250.3z
		 M72,250.4C72,250.4,71.9,250.4,72,250.4c-0.1,0.1-0.1,0.2,0,0.2C72,250.6,72.1,250.5,72,250.4C72.1,250.4,72,250.4,72,250.4z
		 M72.7,260.4C72.7,260.4,72.6,260.4,72.7,260.4c-0.1,0.1-0.1,0.2,0,0.2C72.8,260.5,72.8,260.5,72.7,260.4
		C72.8,260.4,72.8,260.4,72.7,260.4z M72.9,250.8L72.9,250.8c-0.1,0.1-0.1,0.1-0.2,0.2v0.1l0,0c0,0,0.1,0,0.1-0.1
		C72.9,250.9,72.9,250.9,72.9,250.8L72.9,250.8L72.9,250.8L72.9,250.8z M73,252.1L73,252.1L73,252.1L73,252.1z M73.1,252.3
		C73.1,252.3,73.1,252.4,73.1,252.3C73.1,252.4,73.1,252.4,73.1,252.3c-0.1,0.1-0.1,0.1-0.1,0.2v0.1h0.1V252.3z M73.1,251.7
		L73.1,251.7L73.1,251.7L73.1,251.7z M73.7,251.4C73.6,251.3,73.6,251.4,73.7,251.4C73.6,251.4,73.6,251.5,73.7,251.4L73.7,251.4
		L73.7,251.4z M73.7,252v0.1v0.1l0,0l0,0c0,0,0-0.1,0.1-0.1c0-0.1,0-0.1,0.1-0.1c0,0,0-0.1,0.1-0.1s0.1-0.1,0.1-0.1l0,0l0,0
		c0-0.1-0.1-0.1-0.1-0.1h-0.1l0,0c0,0,0,0-0.1,0.1l-0.1,0.1C73.7,251.9,73.7,251.9,73.7,252C73.7,251.9,73.7,251.9,73.7,252
		L73.7,252L73.7,252z M73.9,260.2C73.8,260.2,73.8,260.2,73.9,260.2c-0.1,0.1,0,0.2,0,0.2C73.9,260.3,73.9,260.3,73.9,260.2
		L73.9,260.2z M73.8,261L73.8,261l0.1-0.2h-0.1V261z M73.9,252.7C73.9,252.7,73.9,252.8,73.9,252.7c0,0.1,0,0.1,0.1,0.2
		c0,0.1,0.1,0.1,0.1,0.1v-0.1c0-0.1,0-0.1,0-0.1v-0.1c0-0.1,0-0.1,0-0.1c0-0.1,0-0.1-0.1-0.1s-0.1,0-0.1,0.1l0,0l0,0V252.7
		L73.9,252.7z M74.1,251.1L74.1,251.1C74.1,251.2,74.1,251.2,74.1,251.1L74.1,251.1L74.1,251.1C74.2,251.2,74.2,251.2,74.1,251.1
		C74.2,251.1,74.2,251.1,74.1,251.1L74.1,251.1L74.1,251.1z M74.2,253.3L74.2,253.3c0,0,0.1,0.1,0.1,0.2c0,0.1,0.1,0.1,0.1,0.1l0,0
		l0,0l0,0c0,0,0-0.1,0.1-0.1c0-0.1,0-0.1,0-0.2v-0.1c0-0.1,0-0.1,0.1-0.1l0,0l0,0c0,0,0,0,0,0.1c0,0,0,0-0.1,0h-0.1c0,0,0,0-0.1,0
		c0,0,0,0-0.1,0C74.3,253.2,74.3,253.2,74.2,253.3L74.2,253.3L74.2,253.3z M75,254.1L75,254.1L75,254.1L75,254.1z M75.1,260.4
		L75.1,260.4c-0.1,0.1,0,0.2,0,0.2C75.2,260.5,75.2,260.5,75.1,260.4C75.2,260.4,75.2,260.4,75.1,260.4z M75.2,253.5
		c0,0,0,0.1,0,0.2c0,0.1,0,0.1,0,0.2c0,0,0,0,0,0.1s0,0,0,0l0,0c0,0,0,0,0-0.1c0.1-0.1,0.1-0.1,0.1-0.2
		C75.3,253.7,75.3,253.7,75.2,253.5L75.2,253.5L75.2,253.5z M75.7,254.9C75.7,254.9,75.6,254.9,75.7,254.9c-0.1,0.1-0.2,0.1-0.2,0.2
		v0.1v0.1h0.1c0.1,0,0.1,0,0.1,0l0,0l0,0v-0.1V254.9C75.8,255,75.7,255,75.7,254.9L75.7,254.9z M75.9,252.4L75.9,252.4
		C75.9,252.5,75.9,252.5,75.9,252.4C76,252.5,76,252.4,75.9,252.4z M76.3,253C76.2,253,76.2,253,76.3,253
		C76.2,253.1,76.2,253.1,76.3,253c-0.1,0.1-0.1,0.2-0.1,0.2v0.1h0.1V253z M76.2,257.9C76.2,257.9,76.1,257.9,76.2,257.9
		C76.1,258,76.2,258,76.2,257.9C76.3,257.9,76.3,257.9,76.2,257.9z M76.3,255.4C76.2,255.4,76.2,255.4,76.3,255.4
		c-0.1,0.1-0.1,0.1,0,0.1C76.3,255.5,76.3,255.5,76.3,255.4L76.3,255.4z M76.6,255.2L76.6,255.2L76.6,255.2L76.6,255.2L76.6,255.2z"
		/>
	<path class="st57" d="M82.6,261.3c-0.1,0-0.1,0-0.2,0.1c0,0,0,0.1-0.1,0.1v0.1c0,0,0,0.1-0.1,0.1h-0.1c0,0,0,0-0.1,0h-0.1
		c-0.1,0-0.1,0-0.1,0.1l0,0v0.1l0.4,0.5v0.1v0.1c0,0,0,0.1-0.1,0.1c0,0-0.1,0-0.2-0.1s-0.1-0.1-0.2-0.1v-0.1l0.1-0.1
		c-0.2,0-0.3,0-0.4,0.1s0,0.1,0,0.2s0,0.1,0,0.2c0,0-0.1,0.1-0.2,0.1c-0.2,0-0.3-0.1-0.4-0.3s-0.1-0.4-0.1-0.6s0-0.4,0-0.7
		c0-0.2,0-0.4,0.1-0.5c-0.2,0-0.2,0-0.3,0s-0.1,0-0.2,0l0,0c0,0,0,0,0-0.1s0-0.1,0-0.1h-0.1c-0.1,0-0.1,0.1-0.1,0.1l0,0H80l0,0
		c0,0,0,0,0-0.1c0-0.3,0-0.6-0.1-1s-0.1-0.7-0.1-1c0-0.1,0-0.1,0.1-0.2c0.1,0,0.1-0.1,0.1-0.2s0-0.2-0.1-0.3c-0.1,0-0.1-0.1-0.1-0.3
		c0-0.2,0-0.3,0.1-0.4c0-0.1,0.1-0.1,0.1-0.1c0.1,0,0.1,0,0.2,0s0.1-0.1,0.1-0.1c0-0.2-0.1-0.4-0.1-0.6c-0.1-0.2-0.1-0.4-0.1-0.5
		s0-0.1,0.1-0.2s0.1,0,0.1,0v-0.5h0.1c0,0,0.1,0,0.1,0.1c0.1,0,0.1,0,0.1,0v-0.1c0-0.1-0.1-0.2-0.2-0.3s-0.2-0.2-0.2-0.3
		s0.1-0.2,0.2-0.2s0.1,0,0.1,0s0,0.1,0.1,0.1l0.1,0.1c0,0,0.1,0,0.2,0c0,0,0,0,0.1,0h0.1c0,0-0.1-0.1-0.2-0.2
		c-0.1-0.1-0.2-0.2-0.2-0.2l0,0v-0.1c0-0.1,0-0.1,0.1-0.2s0.1-0.1,0.1-0.1l0.1-0.1c0,0,0.1-0.1,0.1-0.2c0-0.3,0.1-0.5,0.1-0.6
		s0-0.1,0-0.1s0,0,0.1,0s0.1-0.1,0.2-0.3h0.2c0.1,0,0.2,0,0.2-0.1s0-0.1-0.1-0.1s-0.1-0.1-0.2-0.1c0.1,0,0.2-0.1,0.3-0.2
		c0.1-0.1,0.1-0.2,0.2-0.3c0-0.1,0.1-0.2,0.1-0.3s0.1-0.2,0.2-0.2c0.1-0.1,0.2-0.1,0.3-0.2s0.2-0.1,0.3-0.1s0.2-0.1,0.3-0.2
		c0.1-0.1,0.1-0.2,0.2-0.3c0.1,0.1,0.2,0.1,0.3,0.1h0.1c0.1,0,0.1,0,0.1-0.1v-0.1l-0.1-0.1c0-0.1,0.1-0.1,0.2-0.2
		c0.1-0.1,0.3-0.1,0.4-0.2c0.2-0.1,0.3-0.1,0.5-0.2c0.1,0,0.2-0.1,0.3-0.1h0.1c0.1,0,0.1,0,0.1,0c0,0.1,0,0.1,0,0.3
		c0,0.1,0,0.2,0,0.2s0,0.1,0.1,0.1c0,0,0,0,0.1,0s0.1,0,0.2-0.1c0.1,0,0.1-0.1,0.1-0.1l0.1-0.1l0.1-0.1c0.1,0,0.2,0.1,0.3,0.2
		c0.1,0.1,0.2,0.2,0.3,0.2c0.1,0,0.1,0,0.2-0.1c0,0,0.1-0.1,0.1-0.2c0-0.1,0-0.1,0.1-0.2c0-0.1,0.1-0.1,0.1-0.1h0.1
		c0,0,0.1,0,0.1,0.1c0,0,0.1,0,0.1,0.1v0.1c0,0.1-0.1,0.1,0,0.1c0,0,0,0,0.1,0.1c0,0,0.1,0,0.1,0.1l0,0l0,0c-0.1,0-0.2,0.1-0.2,0.2
		c0,0.1,0,0.2,0.1,0.3s0.1,0.1,0.2,0.1c0,0,0,0,0.1,0c0,0,0,0,0.1,0c0,0,0.1,0,0.2,0s0.2,0,0.2,0l0,0c0,0,0.1,0.1,0.1,0.2
		c0.1,0.1,0.1,0.3,0.2,0.5s0.1,0.3,0.2,0.5c0,0.2,0.1,0.2,0.1,0.3c0,0,0,0-0.1,0c0,0,0,0,0,0.1v0.1c0,0.1,0,0.1,0,0.1l0.2-0.2
		c0.1,0.1,0.2,0.2,0.4,0.3c0.1,0.1,0.3,0.3,0.4,0.4c0.1,0.1,0.2,0.3,0.3,0.4c0.1,0.1,0.1,0.3,0.2,0.4c0,0,0,0,0.1,0.1
		c0.1,0,0.1,0.1,0.1,0.1s0,0,0,0.1s0,0.1-0.1,0.1c0,0.1-0.1,0.1-0.1,0.1v0.1c0,0.2,0,0.3,0.1,0.4c0.1,0.1,0.1,0.2,0.2,0.4
		c0.1,0.1,0.1,0.3,0.1,0.4s0.1,0.3,0.1,0.5c0,0.1-0.1,0.1-0.2,0.1s-0.1,0-0.1-0.1c0,0-0.1-0.1-0.2-0.1c0,0-0.1,0-0.1,0.1
		s-0.1,0.1-0.1,0.2s-0.1,0.2-0.1,0.2s0,0.1,0,0.2c0.1,0,0.1,0,0.2-0.1c0-0.1,0.1-0.1,0.2-0.2c0,0.1,0.1,0.1,0.2,0.1s0.2,0,0.2,0.1
		l0,0l0,0c-0.2,0-0.3,0.1-0.4,0.1c-0.1,0.1-0.1,0.2-0.1,0.2c0,0.1-0.1,0.2-0.1,0.3c0,0.1-0.1,0.1-0.3,0.1v0.1v0.1c0,0,0,0.1,0,0.2
		s0,0.2,0,0.3c0,0.1,0,0.2,0,0.3c0,0.1,0,0.1,0,0.2h0.1c0,0,0-0.1-0.1-0.2s-0.1-0.1-0.1-0.2c0.1,0,0.2-0.1,0.3-0.1
		c0.1,0,0.2-0.1,0.3-0.1c0,0,0,0-0.1-0.1c-0.1,0-0.1-0.1-0.1-0.1s0,0,0-0.1s0-0.1,0-0.1v-0.1l0,0l0.1-0.1c0.1,0.1,0.1,0.1,0.1,0.2
		s0,0.2,0,0.3c0,0.1,0,0.2,0,0.3c0,0.1,0,0.2,0.1,0.3c0,0,0.1,0,0.1,0.1c0.1,0,0.1,0.1,0.1,0.1l0,0v0.1l0,0l0,0l0,0
		c0-0.1,0-0.1-0.1-0.1s-0.1,0-0.1,0c-0.1,0-0.1,0-0.2,0.1c0.1,0,0.1,0.1,0.2,0.1s0,0.1,0,0.2s0,0.1,0,0.2s-0.1,0.2-0.1,0.3
		c-0.1,0.1-0.1,0.2-0.2,0.2s-0.2,0-0.2,0c0,0.1,0.1,0.1,0.1,0.3c0,0.1,0.1,0.2,0.1,0.2s0,0-0.1,0.1c-0.1,0-0.2,0.1-0.2,0.2
		c-0.1,0.1-0.2,0.1-0.3,0.2c-0.1,0-0.2,0.1-0.2,0.1v0.5c-0.1,0-0.1,0-0.2-0.1s-0.1-0.1-0.1-0.2c0,0.1,0,0.2-0.1,0.3
		c0,0.1-0.1,0.2-0.1,0.3c0,0,0,0-0.1,0h-0.1l0,0l0,0c0-0.1,0-0.1,0.1-0.2c0,0,0.1-0.1,0.1-0.2s0-0.2-0.1-0.2h-0.1c0,0.1,0,0.2,0,0.3
		s-0.1,0.3-0.1,0.4s-0.1,0.3-0.2,0.4s-0.1,0.2-0.2,0.2s-0.1,0.1-0.2,0.1s-0.1,0-0.2,0.1s-0.1,0.1-0.1,0.1s0,0.1,0,0.2h-0.8
		c-0.1,0.1-0.2,0.2-0.3,0.2l0,0c0,0,0-0.1-0.1-0.1c0-0.1-0.1-0.1-0.1-0.1c-0.1,0.1-0.3,0.2-0.4,0.3s-0.3,0.2-0.4,0.3
		c-0.1,0-0.1,0-0.1-0.1s0-0.2,0.1-0.2c0.1-0.1,0.1-0.1,0.2-0.1s0.1-0.1,0.2-0.1c0.1-0.1,0.1-0.1,0.1-0.2s0-0.2-0.1-0.2
		s-0.2-0.1-0.3-0.1h-0.1l0,0c-0.1,0-0.1,0.1-0.1,0.1c0,0.1,0,0.1-0.1,0.2c0,0.1,0,0.1,0,0.2s0,0.1,0,0.1h-0.1c-0.1,0-0.1,0-0.1,0
		c-0.1,0-0.2,0-0.3-0.1s-0.2-0.1-0.3-0.1c-0.1,0-0.1,0-0.1,0.1s-0.1,0.2-0.1,0.3c-0.1,0.1-0.1,0.2-0.2,0.3c-0.1,0.1-0.3,0.1-0.5,0.1
		c0-0.1,0-0.2,0-0.4c0-0.2,0-0.3-0.1-0.4l-0.1-0.1c-0.1-0.1-0.1-0.1-0.1-0.2c0-0.2,0-0.4,0-0.6C82.6,261.7,82.6,261.5,82.6,261.3z
		 M80.1,260.7C80.1,260.7,80.2,260.7,80.1,260.7C80.2,260.7,80.1,260.8,80.1,260.7C80.1,260.8,80.1,260.8,80.1,260.7L80.1,260.7z
		 M80.3,255.9L80.3,255.9c0.1-0.1,0.1-0.1,0.1-0.2c0-0.1,0-0.1-0.1-0.1V255.9z M80.6,258.9L80.6,258.9L80.6,258.9v0.6h0.1
		c0.1,0,0.1,0,0.1,0c0.1,0,0.1,0,0.2-0.1c0.1,0,0.1-0.1,0.2-0.1c0,0,0,0-0.1,0l0,0c0,0,0,0-0.1,0s-0.1,0-0.1-0.1v-0.1
		c0-0.1,0-0.1,0-0.1s0,0-0.1-0.1s-0.1-0.1-0.2-0.2s-0.2-0.2-0.3-0.3l0,0l0,0c0,0,0,0,0.1-0.1v-0.1c0,0,0,0,0-0.1c0,0,0,0-0.1,0h-0.1
		c-0.1,0-0.1,0-0.1,0.1s0,0.1,0,0.2c0,0.2,0,0.3,0,0.5c0,0.1,0,0.3,0,0.5l0.1-0.1C80.5,258.9,80.6,258.9,80.6,258.9z M80.5,261.1
		C80.5,261.2,80.4,261.2,80.5,261.1C80.4,261.2,80.4,261.2,80.5,261.1C80.4,261.1,80.4,261.1,80.5,261.1L80.5,261.1z M80.6,257.6
		L80.6,257.6v-0.2V257.6L80.6,257.6z M80.7,260L80.7,260l0.1-0.1L80.7,260z M81,257.6c-0.1,0-0.1,0-0.1,0.1s0,0.1,0.1,0.1
		s0.1,0,0.1-0.1S81.1,257.6,81,257.6z M81.2,252.5L81.2,252.5L81.2,252.5L81.2,252.5L81.2,252.5z M81.1,258.3c0,0.1,0,0.1,0.1,0.1
		s0.1,0,0.2,0c0-0.1,0-0.1,0-0.2s-0.1-0.1-0.1-0.1l0,0C81.2,258.1,81.2,258.2,81.1,258.3L81.1,258.3z M81.2,253.1L81.2,253.1
		L81.2,253.1L81.2,253.1L81.2,253.1z M81.2,260.5c0,0.1,0.1,0.1,0.1,0.1c0.1,0,0.1,0,0.1,0v-0.1H81.2z M81.4,252L81.4,252
		c0.1,0.2,0,0.2,0,0.2C81.3,252.2,81.3,252.1,81.4,252C81.3,252,81.3,252,81.4,252z M81.6,257.1L81.6,257.1L81.6,257.1L81.6,257.1z
		 M81.9,260.7c0,0.2-0.1,0.3-0.1,0.4c-0.1,0.1-0.1,0.3-0.1,0.4c0.1,0,0.2,0,0.3-0.1c0.1-0.1,0.1-0.1,0.2-0.2c0-0.1,0.1-0.2,0.1-0.3
		c0-0.1,0-0.2,0-0.2s-0.1-0.1-0.2-0.3c-0.1-0.1-0.2-0.2-0.3-0.2c0,0.1,0,0.2,0,0.2l0.1,0.1C81.9,260.5,81.8,260.6,81.9,260.7
		C81.9,260.6,81.9,260.6,81.9,260.7z M81.6,255.5c0,0.1,0.1,0.1,0.2,0.1v-0.1H81.6z M81.7,257.4c0,0.1,0,0.1,0,0.2s0,0.1,0,0.1h0.1
		C81.8,257.6,81.8,257.5,81.7,257.4c0.1-0.1,0-0.2-0.1-0.2L81.7,257.4z M81.9,256.5c0,0.2,0.1,0.2,0.2,0.2v-0.4c-0.1,0-0.2,0-0.2,0
		C81.9,256.4,81.9,256.4,81.9,256.5z M82.1,256C82.1,255.9,82.1,255.9,82.1,256C82,255.9,82,256,82.1,256C82,256,82,256,82.1,256
		L82.1,256z M82.1,257.5C82.2,257.5,82.2,257.5,82.1,257.5C82.2,257.5,82.2,257.4,82.1,257.5c0.1-0.1,0.1-0.2,0.1-0.3
		c0-0.1,0-0.2,0-0.3l0,0c0,0,0,0-0.1,0l0,0l0,0V257.5z M82.3,252.1c0,0.1,0,0.2,0.1,0.4c0.1,0.1,0.2,0.2,0.3,0.3c0,0,0,0,0-0.1v-0.1
		c0-0.1,0-0.3-0.1-0.4C82.6,252.1,82.5,252.1,82.3,252.1z M82.5,258.5c0,0.2,0,0.4,0.2,0.7c0.2,0.3,0.4,0.6,0.7,0.9
		c0.3,0.3,0.5,0.6,0.8,0.8s0.4,0.3,0.5,0.3c0.2,0.2,0.4,0.3,0.7,0.3c0.3,0,0.5,0.1,0.8,0.1c0.2,0,0.3,0,0.4-0.2
		c0.1-0.1,0.1-0.2,0.2-0.4c0.1-0.2,0.1-0.3,0.2-0.4s0.1-0.2,0.3-0.3l0.3-1.2c0.1,0,0.3,0,0.4,0s0.2,0,0.4,0c0-0.2,0-0.4,0.1-0.6
		c0-0.2,0.1-0.4,0.1-0.7l0,0c-0.1,0-0.1,0-0.2,0.1s-0.1,0.2-0.2,0.3c-0.1,0.1-0.1,0.2-0.2,0.4c-0.1,0.1-0.1,0.2-0.2,0.2
		s-0.1-0.1,0-0.2c0-0.1,0.1-0.2,0.1-0.2l0,0l0,0c0-0.1,0.1-0.1,0.2-0.3c0.1-0.1,0.2-0.2,0.2-0.3c0-0.1,0-0.1-0.1-0.1h-0.1H88v-0.1
		c0-0.1,0-0.2,0.1-0.2s0.1-0.1,0.2-0.1s0.1,0,0.2-0.1c0.1,0,0.1-0.1,0.1-0.2h-0.7l0,0l0,0c0,0,0,0,0.1-0.1h0.1v-0.8
		c0.1,0,0.1,0,0.2-0.1c0.1,0,0.1-0.1,0.2-0.1c0-0.1-0.1-0.1-0.1-0.1c-0.1,0-0.1,0-0.2-0.1c-0.1,0-0.1,0-0.1-0.1l-0.1-0.1
		c0-0.1,0-0.1,0-0.2c0-0.1,0-0.1,0-0.2h-0.3c0-0.2,0-0.4-0.1-0.6s-0.1-0.4-0.1-0.6l0,0l0,0v-0.1c0-0.2,0.1-0.3,0.2-0.4
		c0.1-0.1,0.2-0.2,0.2-0.3c0,0-0.1-0.1-0.2-0.1c-0.1-0.1-0.2-0.1-0.3-0.2c-0.1,0-0.2-0.1-0.3-0.1c-0.1,0-0.2-0.1-0.2-0.1
		c-0.1,0-0.1,0-0.1,0.1c0,0,0,0.1-0.1,0.1l0,0c0,0-0.1,0-0.2-0.1c-0.1,0-0.2-0.1-0.2-0.1v-0.1c0-0.1,0-0.1,0.1-0.1
		c0,0,0.1,0,0.1-0.1v-0.1l-0.2,0.1c0,0-0.1,0-0.2-0.1s-0.2-0.2-0.2-0.3v-0.1c0-0.1,0-0.1,0-0.2s0-0.1,0-0.2c0-0.1,0-0.1-0.1-0.1
		h-0.1c-0.1,0-0.1,0.1-0.2,0.2c-0.1,0.1-0.2,0.3-0.4,0.5s-0.3,0.5-0.4,0.7c-0.1,0.3-0.3,0.5-0.4,0.8c-0.1,0.2-0.2,0.4-0.3,0.6
		c-0.1,0.2-0.1,0.3-0.1,0.3c-0.1,0-0.2,0-0.3,0.1c-0.2,0.1-0.3,0.1-0.3,0.2l0.4,0.2c-0.1,0.1-0.2,0.2-0.3,0.2c-0.1,0-0.3,0-0.4,0
		c0,0.1,0,0.1,0.1,0.1s0.2,0.1,0.2,0.1s0,0.1,0.1,0.2c0,0.1,0.1,0.2,0.1,0.2h-0.3v0.1c0,0.1,0,0.2,0,0.2s0,0.2,0,0.3
		s-0.1,0.1-0.1,0.2v1.4c0.1,0.1,0.2,0.3,0.2,0.6c0,0.2,0.1,0.4,0,0.6v0.1c-0.1-0.1-0.1-0.1-0.2-0.2
		C82.7,258.5,82.6,258.5,82.5,258.5z M82.9,261.1L82.9,261.1L82.9,261.1L82.9,261.1z M83.1,261.9C83.1,261.9,83.1,261.8,83.1,261.9
		C83,261.8,83,261.9,83.1,261.9C83,262,83.1,262,83.1,261.9z M83.7,260.9c0,0-0.1,0-0.1,0.1s0,0.1,0.1,0.1s0.1,0,0.1-0.1
		C83.8,260.9,83.8,260.9,83.7,260.9z M84,263.5C84,263.5,84.1,263.5,84,263.5c0.1,0.1,0,0.2,0,0.2C83.9,263.7,83.9,263.6,84,263.5
		C83.9,263.5,83.9,263.5,84,263.5z M84.4,262.3h0.2H84.4L84.4,262.3z M84.8,250.6c-0.1,0-0.1,0-0.1,0.2c0,0.1,0,0.2,0,0.3h0.1V250.6
		L84.8,250.6z M85.1,249.3L85.1,249.3c0.1,0,0.1,0.1,0.2,0.1H85L85.1,249.3L85.1,249.3z M85.7,251.2c0,0.2,0.1,0.3,0.2,0.4
		c0,0,0,0,0.1-0.1s0-0.1,0-0.1c0-0.1,0-0.1-0.1-0.1C85.8,251.2,85.7,251.2,85.7,251.2z M85.9,250.7c-0.1,0-0.1,0-0.1,0.1
		s0,0.1,0.1,0.1s0.1,0,0.1-0.1S86,250.7,85.9,250.7z M86.3,251.5c0,0.1,0,0.1,0.1,0.2c0.1,0,0.1,0.1,0.2,0.1l0,0
		C86.6,251.6,86.5,251.5,86.3,251.5z M86.7,252.4c0,0.1,0,0.1,0,0.2c0,0.1-0.1,0.1-0.2,0.1c0-0.1,0-0.1,0-0.2
		C86.5,252.4,86.6,252.4,86.7,252.4L86.7,252.4z M87.4,252C87.4,251.9,87.3,252,87.4,252C87.3,252,87.3,252.1,87.4,252L87.4,252
		L87.4,252z M87.5,252.1C87.4,252.1,87.4,252.1,87.5,252.1c-0.1,0.2,0,0.2,0,0.2S87.5,252.2,87.5,252.1L87.5,252.1z M87.5,253.4
		C87.5,253.4,87.4,253.5,87.5,253.4c-0.1,0.2-0.1,0.2,0,0.2C87.5,253.6,87.6,253.6,87.5,253.4C87.6,253.5,87.5,253.4,87.5,253.4z
		 M87.7,252.4h0.2H87.7l-0.2-0.1L87.7,252.4z M87.6,251.7c0.1,0,0.2,0,0.2-0.1s0-0.1,0-0.2h-0.2V251.7z M88.3,255.3
		C88.2,255.3,88.2,255.3,88.3,255.3c-0.1,0.1-0.1,0.2,0,0.2C88.3,255.4,88.3,255.4,88.3,255.3L88.3,255.3z M88.6,258.4
		c-0.1,0.1-0.1,0.1-0.2,0.1l-0.1,0.1v0.1c0,0,0,0.1,0.1,0.1c0.1,0.1,0.2,0.1,0.2,0.1v0.1c0,0,0,0.1,0,0.2s0,0.2,0.1,0.2
		c0,0.1,0,0.1,0,0.1v0.1l0,0h0.1c0,0,0,0,0-0.1l0,0l0,0c0,0,0-0.1-0.1-0.1c0,0,0,0,0-0.1l0,0v-0.1l0,0l0,0l0,0l0.1-0.1V259
		c0,0,0-0.1,0-0.2s-0.1-0.2-0.1-0.3C88.7,258.4,88.6,258.3,88.6,258.4C88.7,258.4,88.7,258.4,88.6,258.4z M88.4,256.6
		c0,0.1,0.1,0.1,0.2,0.1v-0.1H88.4z M88.5,255.9L88.5,255.9c-0.1,0.1-0.1,0.2,0,0.2S88.6,256.1,88.5,255.9
		C88.6,256,88.6,255.9,88.5,255.9z M88.5,255.1v0.1c0,0.1,0.1,0.1,0.1,0.2c0,0.1,0.1,0.1,0.1,0.2s0.1,0.1,0.2,0.1H89
		c0,0,0.1,0,0.1-0.1l-0.2-0.1l0.1-0.2l0.5,0.2h0.1c0,0,0,0,0-0.1s0-0.2-0.1-0.3s-0.2-0.1-0.3-0.1h-0.1c0,0,0,0-0.1,0l0,0l0,0l0,0
		l0,0l0,0c0,0,0,0,0.1,0s0-0.1,0-0.1l0,0c0-0.1,0-0.2-0.1-0.2s-0.2-0.1-0.3-0.1v0.1c0,0.1,0,0.1,0,0.1s0,0.1-0.1,0.1
		C88.5,255,88.5,255.1,88.5,255.1z M88.6,261.2c0.1,0,0.2,0,0.2-0.1l0,0l0,0h-0.1h-0.1V261.2z M88.9,260.1L88.9,260.1
		C88.8,260.1,88.8,260.1,88.9,260.1C88.8,260.1,88.8,260.1,88.9,260.1L88.9,260.1z M88.9,256.6L88.9,256.6L88.9,256.6L88.9,256.6z
		 M89,253.4C88.9,253.4,88.9,253.4,89,253.4c0,0.2,0,0.2,0,0.2C89,253.6,89.1,253.6,89,253.4C89.1,253.4,89,253.4,89,253.4z
		 M89,257.8c0,0.1,0,0.1,0.1,0.1h0.1l0,0l0,0C89.3,257.8,89.2,257.8,89,257.8L89,257.8z M89.1,257.3L89.1,257.3
		C89.2,257.2,89.2,257.2,89.1,257.3l0.1-0.1v-0.1c0,0,0,0-0.1,0l0,0V257.3z M89.4,256.7C89.5,256.7,89.4,256.7,89.4,256.7
		C89.3,256.7,89.3,256.7,89.4,256.7C89.3,256.8,89.4,256.8,89.4,256.7C89.4,256.8,89.4,256.8,89.4,256.7z M89.4,254.5L89.4,254.5
		c0.1,0,0.1-0.1,0.1-0.1s0.1-0.1,0-0.1L89.4,254.5z M89.5,257.3C89.5,257.3,89.4,257.4,89.5,257.3c0,0.2,0,0.2,0,0.2
		S89.6,257.5,89.5,257.3C89.6,257.4,89.5,257.3,89.5,257.3z M89.5,256.3L89.5,256.3c0,0.1,0,0.2,0,0.2
		C89.6,256.5,89.6,256.5,89.5,256.3C89.6,256.3,89.6,256.3,89.5,256.3z M89.7,260.3c0-0.1,0.1-0.1,0.3-0.1c0.1,0,0.2,0,0.3,0
		c0,0-0.1,0.1-0.2,0.1C89.9,260.3,89.8,260.4,89.7,260.3L89.7,260.3z M90,256.3v-0.1c0-0.1-0.1-0.2-0.2-0.2c0,0,0,0-0.1,0s0,0-0.1,0
		L90,256.3z M89.9,255.5L89.9,255.5c0.1-0.1,0.1-0.1,0-0.2V255.5z M90.3,254.9C90.4,254.9,90.4,254.9,90.3,254.9
		c0.1,0.1,0,0.2,0,0.2C90.3,255,90.3,255,90.3,254.9L90.3,254.9z M90.4,255.7C90.4,255.7,90.4,255.6,90.4,255.7
		C90.3,255.6,90.3,255.7,90.4,255.7C90.3,255.8,90.4,255.8,90.4,255.7z M90.4,257.4c0.1-0.1,0.2-0.1,0.3-0.1s0.2,0.1,0.2,0.2
		s0,0.2,0,0.3c-0.1,0-0.1,0-0.1-0.1l-0.1-0.1l-0.1-0.1C90.5,257.5,90.5,257.5,90.4,257.4z"/>
</g>
<path class="st59" d="M115.9,307.1c0.7,0.6,0.9,1.5,0.6,2.4c-7.2,15-16.9,28.7-28.8,40.4l-1,1c-0.7,0.7-1.7,0.8-2.5,0.2l-5.5-4
	c2.4-3.4,1.5-8.1-1.9-10.4c0,0,0,0-0.1,0c-3.4-2.3-7.9-1.5-10.4,1.7l-5.1-3.6c-0.9-0.7-1-1.9-0.4-2.8l0.1-0.1l1-1
	C73.5,319.4,83,306.1,90,291.4c0.4-0.9,1.5-1.2,2.4-0.8l0,0c0.1,0,0.2,0,0.3,0l5.2,3.7c-2.3,3.4-1.4,8.1,2,10.5
	c3.3,2.3,7.8,1.5,10.2-1.7L115.9,307.1L115.9,307.1z"/>
<path class="st60" d="M118.3,308.1l-13.5,24.4l-19.3,20.3l-5-3.6l-1.8-1.6l1.1-2.4l0.1-2.3l-0.7-2.3l-1.2-2l-1.8-1.5l-2-0.9
	l-1.9-0.4l-2.4,0.4l-2.3,1.3l-1.3,1.5l-4.3-3.7l5.6-1.8c17.4-5.6,33.1-15.6,45.6-29L118.3,308.1L118.3,308.1z"/>
<path class="st61" d="M117.4,305.3l-5.5-4c-1.1-0.8-2.6-0.5-3.3,0.5l0,0c-1.8,2.2-5,2.6-7.3,0.8c-2.1-1.7-2.6-4.6-1.1-6.9
	c0.7-1.1,0.5-2.6-0.6-3.4l-5.2-3.7c-0.2-0.2-0.4-0.3-0.7-0.4c-2.1-1-4.6-0.2-5.6,1.9v0.1c-6.9,14.4-16.3,27.5-27.6,38.8
	c-0.2,0.3-0.5,0.5-0.8,0.6c-0.3,0.2-0.4,0.5-0.7,0.7c-1.4,1.9-0.9,4.6,1,6l0,0l5.3,3.8c1.1,0.7,2.6,0.5,3.4-0.5
	c1.8-2.2,5.1-2.6,7.3-0.8c2,1.6,2.5,4.5,1.1,6.8c-0.3,0.5-0.5,1.2-0.4,1.8c0.1,0.7,0.5,1.3,1.1,1.6l5.3,3.9c1.7,1.2,4.1,1.1,5.6-0.4
	l1-1c12-12,21.9-25.9,29.3-41.1C119.7,308.7,119.1,306.5,117.4,305.3z M116.3,309.3c-7.2,15-16.9,28.7-28.8,40.4l-1,1
	c-0.7,0.7-1.7,0.8-2.5,0.2l-5.3-3.8c2.4-3.4,1.6-8.1-1.7-10.5c-3.4-2.4-8.1-1.6-10.5,1.7l-5.3-3.9c-0.9-0.5-1.1-1.7-0.6-2.5
	c0.1-0.1,0.2-0.3,0.3-0.4c0.3-0.2,0.6-0.6,0.9-0.9c5.9-5.6,11.2-11.8,15.9-18.5c4.7-6.6,8.8-13.7,12.3-21.1c0.1,0,0.1-0.1,0.2-0.2
	c0.6-0.8,1.7-1,2.6-0.4l5.2,3.7l-0.1,0.1c-2.3,3.5-1.3,8.1,2.1,10.4c3.3,2.2,7.7,1.4,10.1-1.7l0.1-0.1l5.5,4
	C116.4,307.5,116.7,308.4,116.3,309.3z"/>
<path id="A" class="st61" d="M85.3,300.3l1.3,0.9c0.6,0.4,0.7,1.2,0.3,1.7c-0.4,0.6-1.2,0.7-1.7,0.3l0,0l-1.3-0.9
	c-0.6-0.4-0.7-1.2-0.3-1.7C84,300.1,84.7,300,85.3,300.3z"/>
<path class="st61" d="M90.4,304l1.3,0.9c0.6,0.4,0.7,1.2,0.3,1.7c-0.4,0.6-1.2,0.7-1.7,0.3l-1.2-1c-0.6-0.4-0.7-1.2-0.3-1.7
	C89.1,303.7,89.8,303.6,90.4,304L90.4,304L90.4,304z"/>
<path id="B" class="st61" d="M97,310.1c-0.3,0.5-1.1,0.7-1.6,0.3c0,0-0.1,0-0.1-0.1l0,0l-1.5-1.1c-0.6-0.4-0.7-1.2-0.3-1.7
	c0.4-0.6,1.2-0.7,1.7-0.3l0,0l1.5,1.1C97.2,308.8,97.3,309.5,97,310.1L97,310.1z"/>
<path class="st61" d="M102,313.8c-0.3,0.5-1.1,0.7-1.6,0.3c0,0-0.1,0-0.1-0.1l0,0l-1.4-1c-0.5-0.3-0.7-1.1-0.3-1.6
	c0,0,0-0.1,0.1-0.1c0.3-0.5,1.1-0.7,1.6-0.3c0,0,0.1,0,0.1,0.1l1.5,1.1C102.4,312.6,102.4,313.3,102,313.8L102,313.8z"/>
<path class="st61" d="M105.4,314.7l1.3,0.9c0.6,0.4,0.7,1.1,0.3,1.7c-0.4,0.6-1.1,0.7-1.7,0.3l-1.3-0.9c-0.5-0.3-0.7-1.1-0.3-1.6
	c0,0,0-0.1,0.1-0.1C104.2,314.6,104.9,314.4,105.4,314.7L105.4,314.7z"/>
<path class="st61" d="M110.5,318.4l1.3,0.9c0.5,0.3,0.7,1.1,0.3,1.6c0,0,0,0.1-0.1,0.1c-0.3,0.5-1.1,0.7-1.6,0.3c0,0-0.1,0-0.1-0.1
	l-1.3-0.9c-0.5-0.4-0.7-1.1-0.3-1.6c0,0,0-0.1,0.1-0.1C109.2,318.1,110,318,110.5,318.4z"/>
<path class="st62" d="M90.3,326.8l-6.6,11.1c-3-2.3-4-4.2-4.4-8L90.3,326.8z M82.5,330.6c0.7-1.1-1-1.8-1.7-0.3
	S81.8,331.8,82.5,330.6z M84.3,334.7l-0.7,0.1l0.1,0.9l0.6-0.2V334.7z M82.8,332.5c-1,1.9,1.7,2.2,2.2,0.8
	C85.4,331.5,83.7,330.7,82.8,332.5z M84.9,330.4l-0.2-0.7l-0.9,0.1l0.3,0.6H84.9z M82.1,332.7l-0.1-0.6l-0.7,0.1l0.3,0.5H82.1z
	 M87.5,329.9c0.5-1.5-0.4-2.2-1.3-0.5C85.5,330.4,87.1,331.4,87.5,329.9L87.5,329.9z"/>
<path class="st62" d="M82.8,316.5l0.7,1.7l1.1-0.9c-0.5-0.3-1-0.7-1.3-1.2L82.8,316.5z"/>
<path class="st62" d="M84,315c0.6-0.5,1.3-0.7,2-0.8l-0.6,1.7c0.4-0.4,0.9-0.6,1.4-0.7l0.6,0.8c-0.9,0.1-1.7,0.5-2.4,1.1l0.4-2.2
	c-0.3,0.4-0.6,0.8-0.8,1.2L84,315z"/>
<path class="st62" d="M87.4,313.7c0.7-0.1,1.4-0.1,2,0.1l-1.1,1.3c0.5-0.1,1-0.2,1.5,0l0.4,1c-0.8-0.3-1.7-0.3-2.5-0.1l1-1.8
	c0,0-1,0.6-1.1,0.6L87.4,313.7z"/>
<path class="st62" d="M92,315.5c-0.3,0.5-2.1,0.7-1.1-0.7C91.3,314,92.4,315,92,315.5z M91.2,315.1c-0.3,0.5,0.3,0.5,0.3,0.2
	S91.4,314.7,91.2,315.1L91.2,315.1z"/>
<path class="st62" d="M92.3,316.1c-0.3-0.3-0.4-0.7-0.2-1.1c0.2-0.6-0.1-1.2-0.7-1.4c-0.1,0-0.3-0.1-0.4-0.1v0.6c0,0,1.5,0,0.8,1.1
	c-0.2,0.3-0.2,0.6,0,0.9H92.3z"/>
<path class="st62" d="M82.7,319.5l-0.9,2l-3.3-4c1.7-2.5,3.5-1.8,3.6-1c0.3,1.2-1.1,2.2-1.1,2.2L82.7,319.5z M80.6,318.3
	c0,0,1.3-2.8-0.9-0.7L80.6,318.3z"/>
<path class="st62" d="M82.4,315.6c0.1-0.4,0.7-0.1,0.6,0.3S82.3,315.9,82.4,315.6z"/>
<path class="st62" d="M100.5,324.6c-0.3-2.4-1.7-4.5-3.7-5.8l-4.2,5.6l3.9-5.7c-1.9-1.1-4-1.7-6.2-1.7l2,7.5l-2.2-7.5
	c-1.3,0.1-2.5,0.4-3.6,1c-0.8,0.4-1.5,1-2,1.6l7.4,5.1l-7.6-4.9c-1.4,2.4-1.9,5.2-1.4,7.9l9-2.4l-4.4,8.8c1.9,1.2,4.3,1.5,6.4,0.7
	l-1.6-9.2l1.9,9c2.8-1,5-3.4,5.6-6.4l-7.2-3.1l7.3,2.8C100.2,326.8,100.4,325.7,100.5,324.6z"/>
<path class="st63" d="M96.5,330.9c0-0.6-0.5-1-1-1l0,0c-0.5,0.1-0.9,0.7-0.7,1.2l0,0c0,0.6,0.5,1,1.1,0.9l0,0
	C96.4,332,96.6,331.5,96.5,330.9z"/>
<path class="st63" d="M95,327c-0.3-0.5-0.7-0.6-1-0.5c-0.2,0.3-0.2,0.8,0.1,1.1c0.3,0.5,0.7,0.6,1,0.5S95.2,327.5,95,327z"/>
<path class="st63" d="M98.5,328.7c-0.4-0.5-0.8-0.7-1.1-0.5s-0.3,0.9,0,1.4c0.3,0.6,0.8,0.7,1.1,0.5
	C98.8,329.7,98.8,329.1,98.5,328.7z"/>
<path class="st63" d="M91.4,333.4c-0.7-1.7,1.1-2.2,1.2-1.1S92.1,335,91.4,333.4z"/>
<path class="st63" d="M90.9,328.8c-0.8,0.5-0.5,2,0.3,1.3C92,329.4,91.9,328.2,90.9,328.8z"/>
<path class="st63" d="M95.4,322.5c0.4-1.6,1.9-0.7,1.4,0.4S95.1,324.1,95.4,322.5z"/>
<path class="st63" d="M93.6,324c0.2-1,1.1-0.4,0.8,0.2S93.4,325,93.6,324z"/>
<path class="st63" d="M92.6,321.6c0.2-1,1.1-0.4,0.8,0.2S92.5,322.6,92.6,321.6z"/>
<path class="st63" d="M91.8,318.8c-0.5-1.1,0.7-1.5,0.9-0.6S92.3,320,91.8,318.8z"/>
<path class="st63" d="M94.4,318.9c0.5-0.7,1.1,0.1,0.6,0.6S94,319.6,94.4,318.9z"/>
<path class="st63" d="M88.7,318c0.4-0.3,0.9-0.1,1.2,0.2c0.3,0.4,0.1,0.9-0.2,1.2c-0.1,0.1-0.2,0.1-0.3,0.1
	C88.1,319.7,87.3,318.6,88.7,318z"/>
<path class="st63" d="M90.4,321.4c0.9,0.3,0.5,1.2-0.2,0.9S89.4,321.1,90.4,321.4z"/>
<path class="st63" d="M89.2,323.8c0.9,0.3,0.5,1.2-0.1,0.9S88.3,323.6,89.2,323.8z"/>
<path class="st63" d="M84.6,322c0.6-1.2,1.7-0.1,1.1,0.7S84,323.2,84.6,322z"/>
<path class="st63" d="M85.1,324.9c1.3-0.2,1.2,1.4,0.3,1.4C84.5,326.2,83.9,325.1,85.1,324.9z"/>
<path class="st63" d="M97.8,324.7c-0.2-1.4,1.2-1.2,1.5-0.2C99.6,325.5,98.2,326.9,97.8,324.7z"/>
<rect x="95.8" y="325" transform="matrix(0.9867 -0.1623 0.1623 0.9867 -51.5223 19.9021)" class="st63" width="0.5" height="0.6"/>
<rect x="83.5" y="324.3" transform="matrix(0.9867 -0.1623 0.1623 0.9867 -51.5568 17.8959)" class="st63" width="0.5" height="0.4"/>
<rect x="95.9" y="328.4" transform="matrix(0.9867 -0.1623 0.1623 0.9867 -52.0736 19.9651)" class="st63" width="0.5" height="0.6"/>
<polygon class="st63" points="97.4,330.7 97.2,331.1 97.5,331.5 97.8,331.1 "/>
<polygon class="st63" points="94.2,328.9 94,329.3 94.5,329.6 94.7,329.2 "/>
<polygon class="st63" points="87.8,325 87.4,325.3 87.9,325.7 88.2,325.3 "/>
<polygon class="st63" points="86.2,318.9 85.9,319.2 86.3,319.7 86.7,319.2 "/>
<polygon class="st63" points="86.6,323.1 86.5,323.3 86.7,323.5 86.8,323.3 "/>
<polygon class="st63" points="88.3,320.1 88.2,320.3 88.4,320.5 88.6,320.2 "/>
<polygon class="st63" points="92.4,322.9 92.4,323.1 92.6,323.2 92.7,323 "/>
<polygon class="st63" points="92.4,320 92.2,320.2 92.4,320.4 92.5,320.2 "/>
<polygon class="st63" points="93.5,318.4 93.4,318.6 93.6,318.8 93.7,318.6 "/>
<polygon class="st63" points="97.9,322.2 97.8,322.4 98,322.6 98.1,322.4 "/>
<polygon class="st63" points="90.1,332.2 89.8,332.7 90.2,333 90.5,332.6 "/>
<g>
	<path d="M37.5,97.7h8c0.2,0.4,0.2,0.7,0.2,1.1c0,0.4-0.1,0.6-0.2,0.7s-0.3,0.2-0.6,0.2h-1.4c0,1.2-0.1,3.3-0.1,6.2
		c0,5.3,0,8.5,0.1,9.8h2c0.2,0.4,0.2,0.7,0.2,1.1c0,0.3-0.1,0.6-0.2,0.7s-0.3,0.2-0.6,0.2h-8.1c-0.2-0.4-0.3-0.8-0.3-1.2
		c0-0.3,0.1-0.5,0.2-0.6s0.4-0.2,0.6-0.2h1.4c0-1.2,0.1-4.5,0.1-9.8c0-2.9,0-4.9-0.1-6.2h-1.9c-0.2-0.4-0.3-0.8-0.3-1.2
		c0-0.3,0.1-0.5,0.2-0.6S37.2,97.7,37.5,97.7z"/>
	<path d="M53.3,104.6c1.1-0.7,2.1-1.1,3.1-1.4c1-0.3,1.8-0.4,2.5-0.4c1.4,0,2.4,0.3,3.1,0.9s1,1.8,1,3.7c0,4.8,0.1,7.4,0.3,7.8
		s0.6,0.6,1.1,0.5c0.1,0.4,0.2,0.7,0.2,1.1c0,0.4-0.1,0.6-0.3,0.7s-0.7,0.2-1.3,0.2c-1.6,0-2.6,0-3-0.1s-0.7-0.2-0.9-0.5
		s-0.2-0.7-0.2-1.4v-5.2c0-2-0.2-3.3-0.5-4c-0.4-0.7-1-1-1.8-1c-0.7,0-1.2,0.2-1.6,0.6s-0.6,1.3-0.6,2.5v2.9c0,1.2,0,2.6,0.1,4h1.7
		c0.2,0.3,0.2,0.7,0.2,1.1c0,0.3-0.1,0.6-0.2,0.7c-0.1,0.1-0.4,0.2-0.8,0.2h-6.9c-0.2-0.4-0.3-0.8-0.3-1.2c0-0.3,0.1-0.5,0.2-0.7
		s0.4-0.2,0.7-0.2H50c0-1.6,0.1-3.3,0.1-5c0-2.7-0.1-4.4-0.4-4.8s-0.7-0.7-1.4-0.7c-0.2-0.4-0.3-0.8-0.3-1.2c0-0.4,0.1-0.6,0.4-0.7
		s1.9-0.2,4.8-0.3C53.4,103.3,53.4,103.9,53.3,104.6z"/>
	<path d="M72.6,115.6h1.7c0.2,0.3,0.2,0.7,0.2,1.1c0,0.3-0.1,0.6-0.2,0.7s-0.4,0.2-0.8,0.2h-7c-0.2-0.4-0.2-0.8-0.2-1.2
		c0-0.3,0.1-0.5,0.2-0.7s0.4-0.2,0.7-0.2h1.2c0-1.2,0.1-2.6,0.1-4c0-2.2,0-3.6-0.1-4.3c0-0.7-0.1-1.2-0.2-1.6s-0.3-0.5-0.5-0.6
		s-0.6-0.1-1.1-0.1c-0.2-0.3-0.2-0.6-0.2-1c0-0.5,0.2-0.9,0.7-1s1.4-0.2,2.7-0.2c1,0,1.7,0,2.1,0.1s0.6,0.2,0.6,0.5s0.1,0.5,0.1,1
		v7.2C72.5,113.1,72.5,114.4,72.6,115.6z M69.9,101c-0.9,0-1.5-0.2-1.9-0.5s-0.6-0.8-0.6-1.4c0-0.6,0.2-1.2,0.7-1.6s1.2-0.6,2.1-0.6
		c0.9,0,1.6,0.2,2,0.5s0.6,0.8,0.6,1.4c0,0.6-0.2,1.2-0.7,1.6S70.9,101,69.9,101z"/>
	<path d="M76.7,103.2h1l1.5-4.4c0.5,0.1,1,0.3,1.4,0.6c0.4,0.2,0.7,0.5,1,0.8c0.2,0.3,0.3,1,0.3,2.2v0.8h5c0.2,0.4,0.2,0.8,0.2,1.2
		c0,0.4-0.1,0.6-0.2,0.7s-0.4,0.2-0.8,0.2h-4.2v5.8c0,1.7,0.1,2.8,0.4,3.4s0.8,0.9,1.4,0.9c0.7,0,1.5-0.2,2.4-0.7
		c0.3,0.4,0.4,0.8,0.4,1.3c0,0.7-0.3,1.1-1,1.3c-0.7,0.2-1.8,0.3-3.3,0.3c-1.6,0-2.8-0.3-3.4-1c-0.7-0.6-1-1.9-1-3.8v-2.5
		c0-1.6,0-3.3-0.1-5.2h-1.5c-0.2-0.4-0.3-0.8-0.3-1.3c0-0.3,0.1-0.6,0.2-0.7C76.2,103.2,76.4,103.2,76.7,103.2z"/>
	<path d="M94.7,115.6h1.7c0.2,0.3,0.2,0.7,0.2,1.1c0,0.3-0.1,0.6-0.2,0.7s-0.4,0.2-0.8,0.2h-7c-0.2-0.4-0.2-0.8-0.2-1.2
		c0-0.3,0.1-0.5,0.2-0.7s0.4-0.2,0.7-0.2h1.2c0-1.2,0.1-2.6,0.1-4c0-2.2,0-3.6-0.1-4.3c0-0.7-0.1-1.2-0.2-1.6s-0.3-0.5-0.5-0.6
		s-0.6-0.1-1.1-0.1c-0.2-0.3-0.2-0.6-0.2-1c0-0.5,0.2-0.9,0.7-1s1.4-0.2,2.7-0.2c1,0,1.7,0,2.1,0.1s0.6,0.2,0.6,0.5s0.1,0.5,0.1,1
		v7.2C94.7,113.1,94.7,114.4,94.7,115.6z M92,101c-0.9,0-1.5-0.2-1.9-0.5s-0.6-0.8-0.6-1.4c0-0.6,0.2-1.2,0.7-1.6s1.2-0.6,2.1-0.6
		c0.9,0,1.6,0.2,2,0.5s0.6,0.8,0.6,1.4c0,0.6-0.2,1.2-0.7,1.6S93.1,101,92,101z"/>
	<path d="M107.6,116.5c-0.7,0.4-1.6,0.7-2.5,1c-0.9,0.3-1.8,0.4-2.7,0.4c-1.4,0-2.5-0.3-3.1-1c-0.7-0.7-1-1.6-1-2.8
		c0-1.7,0.6-2.9,1.7-3.7s2.9-1.2,5.4-1.2h1.6c-0.1-1.5-0.3-2.5-0.7-3.1s-1-0.8-1.8-0.8c-0.4,0-0.9,0.1-1.5,0.2c-0.3,0.6-0.5,1-0.6,1
		s-0.4,0.1-1,0.3c-0.6,0.1-1,0.1-1.3-0.1s-0.5-0.6-0.8-1.2s-0.4-1-0.4-1.4c0-0.2,0.1-0.4,0.3-0.6s0.9-0.3,2.2-0.4s2.6-0.2,4.1-0.2
		c1.7,0,3.1,0.3,4,0.9s1.5,1.7,1.5,3.4v3.9c0,2.2,0.1,3.5,0.3,4s0.5,0.7,1,0.6c0.1,0.3,0.2,0.5,0.2,0.8c0,0.4-0.3,0.8-0.8,1
		c-0.5,0.2-1.2,0.3-2.1,0.3c-0.4,0-0.7,0-0.9-0.1S108.1,117.2,107.6,116.5z M107,111.7c-0.7-0.1-1.4-0.2-2.1-0.2
		c-0.8,0-1.4,0.1-1.8,0.4s-0.5,0.8-0.5,1.6c0,0.7,0.2,1.2,0.5,1.5s0.9,0.5,1.5,0.5c0.5,0,1-0.1,1.4-0.3c0.4-0.2,0.7-0.5,0.8-1
		s0.2-1,0.2-1.6V111.7z"/>
	<path d="M116.3,110.6c0-4.4,0-7.2-0.1-8.3s-0.1-1.9-0.2-2.3s-0.3-0.7-0.6-0.8c-0.3-0.1-0.6-0.2-1-0.2c-0.2-0.4-0.3-0.8-0.3-1.2
		c0-0.4,0.2-0.7,0.5-0.8c0.3-0.1,1.3-0.2,3-0.2c1,0,1.7,0,2.1,0.1s0.6,0.2,0.7,0.5s0.1,0.5,0.1,1v11.3c0,2.8,0,4.8,0.1,6.1h1.9
		c0.2,0.3,0.2,0.7,0.2,1.1c0,0.3-0.1,0.6-0.2,0.7c-0.1,0.1-0.4,0.2-0.8,0.2h-7.2c-0.2-0.4-0.3-0.8-0.3-1.2c0-0.3,0.1-0.5,0.2-0.7
		s0.4-0.2,0.7-0.2h1.2C116.3,114.4,116.3,112.7,116.3,110.6z"/>
	<path d="M132.7,97.7h6.2c4.4,0,7.4,0.7,9.1,2.1s2.5,3.7,2.5,7c0,3.6-0.8,6.3-2.5,8.2c-1.7,1.8-4.6,2.8-8.6,2.8l-7.2,0
		c-0.2-0.4-0.3-0.8-0.3-1.2c0-0.3,0.1-0.5,0.2-0.6s0.4-0.2,0.6-0.2h1.1c0.1-1.3,0.1-4.5,0.1-9.8c0-2.9,0-4.9-0.1-6.2h-1.7
		c-0.2-0.4-0.3-0.8-0.3-1.2c0-0.3,0.1-0.5,0.2-0.6S132.4,97.7,132.7,97.7z M140.3,100.5c-0.7,0-1.3,0-1.8,0.1c0,1.4-0.1,4.5-0.1,9.5
		c0,2.3,0.1,3.7,0.4,4.1s1,0.6,2.2,0.6c1.4,0,2.5-0.5,3.2-1.4s1.1-2.8,1.1-5.6c0-2.8-0.4-4.7-1.3-5.8S141.9,100.5,140.3,100.5z"/>
	<path d="M160.5,102.7c2,0,3.5,0.5,4.4,1.4s1.4,2.4,1.4,4.4c0,1-0.2,1.7-0.6,2.1s-1.2,0.6-2.6,0.6h-5.4c0,1.3,0.3,2.3,0.9,3
		s1.5,1.1,2.9,1.1c1.3,0,2.7-0.4,4.2-1.2c0.5,0.5,0.8,1,0.8,1.6c0,0.8-0.6,1.3-1.7,1.6c-1.1,0.3-2.5,0.5-4,0.5
		c-2.7,0-4.6-0.5-5.8-1.6s-1.8-2.8-1.8-5.3c0-2.6,0.7-4.6,2-6S158.2,102.7,160.5,102.7z M159.9,105.3c-0.7,0-1.3,0.3-1.7,0.9
		s-0.6,1.6-0.6,3.1h0.8c1.1,0,1.9,0,2.5-0.1c0.6-0.1,0.9-0.2,1-0.3s0.1-0.4,0.1-0.8c0-0.9-0.2-1.6-0.6-2S160.6,105.3,159.9,105.3z"
		/>
	<path d="M169.7,97.7H183c0.6,0,1.1,0.1,1.3,0.3s0.4,0.6,0.4,1.2c0,0.7-0.2,1.5-0.7,2.2c-2.1-0.8-4.7-1.2-7.9-1.2h-0.7
		c-0.1,1-0.1,3.1-0.1,6.3h7.2c0.2,0.5,0.2,1.1,0.2,1.6c0,0.3-0.1,0.6-0.2,0.7s-0.3,0.2-0.7,0.2h-6.6c0,3.5,0,5.8,0.1,6.8h2.5
		c0.2,0.4,0.2,0.7,0.2,1.1c0,0.3-0.1,0.6-0.2,0.7s-0.3,0.2-0.6,0.2h-8.3c-0.2-0.4-0.3-0.8-0.3-1.2c0-0.3,0.1-0.5,0.2-0.6
		s0.4-0.2,0.6-0.2h1.1c0.1-1.2,0.1-4.5,0.1-9.8c0-2.9,0-4.9-0.1-6.2h-1.7c-0.2-0.4-0.3-0.8-0.3-1.2c0-0.3,0.1-0.5,0.2-0.6
		S169.4,97.7,169.7,97.7z"/>
	<path d="M192,115.6h1.7c0.2,0.3,0.2,0.7,0.2,1.1c0,0.3-0.1,0.6-0.2,0.7s-0.4,0.2-0.8,0.2h-7c-0.2-0.4-0.2-0.8-0.2-1.2
		c0-0.3,0.1-0.5,0.2-0.7s0.4-0.2,0.7-0.2h1.2c0-1.2,0.1-2.6,0.1-4c0-2.2,0-3.6-0.1-4.3c0-0.7-0.1-1.2-0.2-1.6s-0.3-0.5-0.5-0.6
		s-0.6-0.1-1.1-0.1c-0.2-0.3-0.2-0.6-0.2-1c0-0.5,0.2-0.9,0.7-1s1.4-0.2,2.7-0.2c1,0,1.7,0,2.1,0.1s0.6,0.2,0.6,0.5s0.1,0.5,0.1,1
		v7.2C191.9,113.1,192,114.4,192,115.6z M189.3,101c-0.9,0-1.5-0.2-1.9-0.5s-0.6-0.8-0.6-1.4c0-0.6,0.2-1.2,0.7-1.6s1.2-0.6,2.1-0.6
		c0.9,0,1.6,0.2,2,0.5s0.6,0.8,0.6,1.4c0,0.6-0.2,1.2-0.7,1.6S190.4,101,189.3,101z"/>
	<path d="M203.6,108.6c0-3.8,0.9-6.6,2.7-8.5c1.8-1.8,4.2-2.8,7.3-2.8c2.9,0,5.1,0.7,6.6,2c1.5,1.3,2.2,3.8,2.2,7.3
		c0,3.8-0.9,6.6-2.7,8.5c-1.8,1.8-4.2,2.8-7.4,2.8c-2.8,0-5-0.7-6.5-2S203.6,112.1,203.6,108.6z M208.6,107.2c0,3.1,0.4,5.2,1.2,6.3
		s1.9,1.6,3.3,1.6c1.5,0,2.5-0.5,3.2-1.6s1-2.9,1-5.4c0-3.2-0.4-5.4-1.2-6.4c-0.8-1-1.9-1.6-3.3-1.6c-1.5,0-2.5,0.5-3.2,1.6
		S208.6,104.6,208.6,107.2z"/>
	<path d="M231,115.6h2.3c0.2,0.3,0.2,0.7,0.2,1.1c0,0.3-0.1,0.6-0.2,0.7s-0.4,0.2-0.8,0.2h-7.6c-0.2-0.4-0.2-0.8-0.2-1.2
		c0-0.3,0.1-0.5,0.2-0.7s0.4-0.2,0.7-0.2h1.2c0-1.2,0.1-2.6,0.1-4v-6.3h-1.9c-0.2-0.4-0.3-0.8-0.3-1.3c0-0.3,0.1-0.6,0.2-0.7
		c0.1-0.1,0.4-0.2,0.7-0.2h1.3c0.1-2.4,0.6-4.1,1.7-5c1.1-0.9,2.9-1.4,5.3-1.4c1.4,0,2.4,0.1,3.1,0.4c0.6,0.3,1,0.7,1,1.3
		s-0.3,1.3-0.8,1.9c-2-0.8-3.4-1.3-4.3-1.3c-0.8,0-1.3,0.3-1.5,0.8s-0.3,1.3-0.3,2.5v0.7h4c0.2,0.4,0.2,0.8,0.2,1.2
		c0,0.4-0.1,0.6-0.2,0.7s-0.4,0.2-0.8,0.2H231v6.3C231,113.1,231,114.4,231,115.6z"/>
	<path d="M243.3,115.6h2.3c0.2,0.3,0.2,0.7,0.2,1.1c0,0.3-0.1,0.6-0.2,0.7s-0.4,0.2-0.8,0.2h-7.6c-0.2-0.4-0.2-0.8-0.2-1.2
		c0-0.3,0.1-0.5,0.2-0.7s0.4-0.2,0.7-0.2h1.2c0-1.2,0.1-2.6,0.1-4v-6.3h-1.9c-0.2-0.4-0.3-0.8-0.3-1.3c0-0.3,0.1-0.6,0.2-0.7
		c0.1-0.1,0.4-0.2,0.7-0.2h1.3c0.1-2.4,0.6-4.1,1.7-5c1.1-0.9,2.9-1.4,5.3-1.4c1.4,0,2.4,0.1,3.1,0.4c0.6,0.3,1,0.7,1,1.3
		s-0.3,1.3-0.8,1.9c-2-0.8-3.4-1.3-4.3-1.3c-0.8,0-1.3,0.3-1.5,0.8s-0.3,1.3-0.3,2.5v0.7h4c0.2,0.4,0.2,0.8,0.2,1.2
		c0,0.4-0.1,0.6-0.2,0.7s-0.4,0.2-0.8,0.2h-3.2v6.3C243.2,113.1,243.2,114.4,243.3,115.6z"/>
	<path d="M256.9,102.7c2,0,3.5,0.5,4.4,1.4s1.4,2.4,1.4,4.4c0,1-0.2,1.7-0.6,2.1s-1.2,0.6-2.6,0.6h-5.4c0,1.3,0.3,2.3,0.9,3
		s1.5,1.1,2.9,1.1c1.3,0,2.7-0.4,4.2-1.2c0.5,0.5,0.8,1,0.8,1.6c0,0.8-0.6,1.3-1.7,1.6c-1.1,0.3-2.5,0.5-4,0.5
		c-2.7,0-4.6-0.5-5.8-1.6s-1.8-2.8-1.8-5.3c0-2.6,0.7-4.6,2-6S254.6,102.7,256.9,102.7z M256.3,105.3c-0.7,0-1.3,0.3-1.7,0.9
		s-0.6,1.6-0.6,3.1h0.8c1.1,0,1.9,0,2.5-0.1c0.6-0.1,0.9-0.2,1-0.3s0.1-0.4,0.1-0.8c0-0.9-0.2-1.6-0.6-2S257,105.3,256.3,105.3z"/>
	<path d="M264.9,103.9c0-0.4,0.1-0.6,0.4-0.7s1.9-0.2,4.8-0.3c0,0.4,0,1,0,1.7c1.2-0.7,2.3-1.2,3.3-1.5s1.9-0.4,2.6-0.4
		c0.4,0,0.6,0,0.7,0.1s0.2,0.3,0.2,0.6c0,0.5-0.1,1.1-0.2,1.7c-0.2,0.6-0.4,1-0.6,1.1c-0.2,0.2-0.6,0.3-1.1,0.4s-0.8,0.1-0.9,0.1
		s-0.4-0.4-0.8-1c-0.7,0-1.3,0.3-1.7,0.8s-0.6,1.9-0.6,4c0,2,0,3.7,0.1,5.1h2.3c0.2,0.3,0.3,0.7,0.3,1.1c0,0.3-0.1,0.6-0.2,0.7
		s-0.4,0.2-0.8,0.2h-7.5c-0.2-0.4-0.3-0.8-0.3-1.2c0-0.3,0.1-0.5,0.2-0.7s0.4-0.2,0.7-0.2h1.1c0-1.4,0.1-3.1,0.1-5
		c0-2.7-0.1-4.4-0.4-4.8s-0.7-0.7-1.4-0.7C265,104.7,264.9,104.3,264.9,103.9z"/>
	<path d="M284.6,115.6h1.7c0.2,0.3,0.2,0.7,0.2,1.1c0,0.3-0.1,0.6-0.2,0.7s-0.4,0.2-0.8,0.2h-7c-0.2-0.4-0.2-0.8-0.2-1.2
		c0-0.3,0.1-0.5,0.2-0.7s0.4-0.2,0.7-0.2h1.2c0-1.2,0.1-2.6,0.1-4c0-2.2,0-3.6-0.1-4.3c0-0.7-0.1-1.2-0.2-1.6s-0.3-0.5-0.5-0.6
		s-0.6-0.1-1.1-0.1c-0.2-0.3-0.2-0.6-0.2-1c0-0.5,0.2-0.9,0.7-1s1.4-0.2,2.7-0.2c1,0,1.7,0,2.1,0.1s0.6,0.2,0.6,0.5s0.1,0.5,0.1,1
		v7.2C284.6,113.1,284.6,114.4,284.6,115.6z M282,101c-0.9,0-1.5-0.2-1.9-0.5s-0.6-0.8-0.6-1.4c0-0.6,0.2-1.2,0.7-1.6
		s1.2-0.6,2.1-0.6c0.9,0,1.6,0.2,2,0.5s0.6,0.8,0.6,1.4c0,0.6-0.2,1.2-0.7,1.6S283,101,282,101z"/>
	<path d="M293.4,104.6c1.1-0.7,2.1-1.1,3.1-1.4c1-0.3,1.8-0.4,2.5-0.4c1.4,0,2.4,0.3,3.1,0.9s1,1.8,1,3.7c0,4.8,0.1,7.4,0.3,7.8
		s0.6,0.6,1.1,0.5c0.1,0.4,0.2,0.7,0.2,1.1c0,0.4-0.1,0.6-0.3,0.7s-0.7,0.2-1.3,0.2c-1.6,0-2.6,0-3-0.1s-0.7-0.2-0.9-0.5
		s-0.2-0.7-0.2-1.4v-5.2c0-2-0.2-3.3-0.5-4c-0.4-0.7-1-1-1.8-1c-0.7,0-1.2,0.2-1.6,0.6s-0.6,1.3-0.6,2.5v2.9c0,1.2,0,2.6,0.1,4h1.7
		c0.2,0.3,0.2,0.7,0.2,1.1c0,0.3-0.1,0.6-0.2,0.7c-0.1,0.1-0.4,0.2-0.8,0.2h-6.9c-0.2-0.4-0.3-0.8-0.3-1.2c0-0.3,0.1-0.5,0.2-0.7
		s0.4-0.2,0.7-0.2h1.1c0-1.6,0.1-3.3,0.1-5c0-2.7-0.1-4.4-0.4-4.8s-0.7-0.7-1.4-0.7c-0.2-0.4-0.3-0.8-0.3-1.2c0-0.4,0.1-0.6,0.4-0.7
		s1.9-0.2,4.8-0.3C293.5,103.3,293.5,103.9,293.4,104.6z"/>
	<path d="M318.8,104.7c0.5,1,0.7,2,0.7,3c0,1.7-0.6,3.1-1.7,4.2s-2.8,1.5-5.1,1.5c-1,0-1.6,0.1-1.8,0.3c-0.2,0.2-0.4,0.5-0.4,0.8
		s0.2,0.7,0.5,0.9s1.9,0.3,4.7,0.3c2.5,0,4.1,0.3,4.9,0.8c0.8,0.6,1.2,1.4,1.2,2.4c0,1.6-0.9,2.9-2.6,3.8s-4.4,1.4-8.1,1.4
		c-1.7,0-2.8-0.2-3.4-0.6s-0.8-1-0.8-1.8c0-0.6,0.2-1.1,0.5-1.7c0.3-0.6,0.7-1.1,1.3-1.7c-0.5-0.2-0.9-0.4-1.2-0.8
		c-0.3-0.4-0.5-0.9-0.5-1.5c0-0.7,0.2-1.3,0.7-1.8s1.1-1,1.8-1.3c-0.6-0.3-1.2-0.8-1.6-1.5c-0.4-0.7-0.6-1.6-0.6-2.7
		c0-1.7,0.6-3.2,1.7-4.3s2.9-1.7,5.1-1.7c1.2,0,2.3,0.2,3.4,0.6c1.4-0.7,2.2-1,2.5-1c1.4,0,2.2,0,2.3,0.1s0.2,0.2,0.2,0.4
		c0,0.3-0.1,0.7-0.4,1.3c-0.3,0.6-0.5,0.8-0.8,0.8s-1-0.2-2.2-0.7L318.8,104.7z M311,118.5c-0.2,0.3-0.4,0.6-0.5,0.9
		c-0.1,0.3-0.2,0.7-0.2,1c0,0.6,0.2,1,0.5,1.2c0.3,0.2,1.1,0.4,2.1,0.4c1.5,0,2.6-0.2,3.4-0.5c0.7-0.3,1.1-0.8,1.1-1.5
		c0-0.6-0.3-1-0.8-1.2S314.2,118.5,311,118.5z M313.3,104.8c-0.7,0-1.2,0.2-1.6,0.7s-0.5,1.3-0.5,2.6c0,1.2,0.2,2,0.5,2.5
		s0.9,0.7,1.6,0.7c0.7,0,1.2-0.2,1.6-0.7s0.5-1.3,0.5-2.6c0-1.1-0.2-1.9-0.5-2.4S314,104.8,313.3,104.8z"/>
	<path d="M331.1,102.7c1.5,0,2.6,0.1,3.4,0.4s1.2,0.7,1.2,1.4c0,0.7-0.3,1.4-0.8,2.1c-2.1-0.9-3.7-1.4-4.8-1.4c-0.6,0-1,0.1-1.3,0.3
		c-0.3,0.2-0.4,0.5-0.4,1c0,0.4,0.2,0.8,0.6,1.1c0.4,0.3,1.3,0.7,2.7,1.2c1.6,0.6,2.8,1.2,3.5,1.8c0.7,0.7,1,1.5,1,2.6
		c0,1.5-0.6,2.6-1.8,3.4c-1.2,0.8-2.8,1.2-4.9,1.2c-1.9,0-3.2-0.1-4-0.4c-0.8-0.3-1.2-0.8-1.2-1.6c0-0.6,0.2-1.2,0.7-1.8
		c1.9,0.8,3.7,1.2,5.2,1.2c0.6,0,1.1-0.1,1.4-0.3s0.5-0.5,0.5-1c0-0.6-0.3-1-0.9-1.3c-0.6-0.3-1.6-0.8-2.9-1.3
		c-1.4-0.5-2.4-1.1-3.1-1.8c-0.6-0.6-0.9-1.4-0.9-2.4c0-1.4,0.6-2.5,1.8-3.3C327.2,103.2,328.9,102.7,331.1,102.7z"/>
</g>
</svg>
