<svg id="Layer_1" data-name="Layer 1" xmlns="http://www.w3.org/2000/svg" viewBox="0 0 485 374.06"><defs><style>.cls-1{fill:#ad442f;}.cls-2{fill:#ffbb83;}.cls-3{fill:#b7ae42;}.cls-4{fill:#cec14a;}.cls-5{fill:#84281f;}.cls-6{fill:#963323;}.cls-7{fill:#bc4835;}.cls-8{fill:#ffe2a9;}.cls-9{fill:#f4ce89;}.cls-10{fill:#dd5845;}.cls-11{fill:#562723;}.cls-12{fill:#441b19;}.cls-13{fill:#f9eaca;}.cls-14{fill:#f4d59f;}.cls-15{fill:#ff697f;}.cls-16{fill:#ed7656;}.cls-17{fill:#ff9d66;}.cls-18{fill:#6b2d38;}.cls-19{fill:#ce3e5d;}.cls-20{fill:#bf1b46;}.cls-21{fill:#f45372;}.cls-22{fill:#604748;}.cls-23{fill:#422931;}.cls-24{fill:#ffefdc;}.cls-25{fill:#ffefd4;}.cls-26{fill:#ffb164;}.cls-27{fill:#ff3964;}.cls-28{fill:#443137;}.cls-29{fill:#60454b;}.cls-30{fill:#4f383e;}.cls-31{fill:#317a91;}.cls-32{fill:#f2ca91;}.cls-33{fill:#5395b7;}.cls-34{fill:#3d88a5;}.cls-35{fill:#fff4d7;}.cls-36{fill:#ffebca;}.cls-37{fill:#a5482b;}.cls-38{fill:#f9deb7;}.cls-39{fill:#edcc9f;}.cls-40{fill:#f75c76;}.cls-41{fill:#6b9dc6;}.cls-42{fill:#4f8daf;}.cls-43{fill:#6b4752;}.cls-44{fill:#e04e2d;}.cls-45{fill:#4f373d;}.cls-46{fill:#edd0ae;}.cls-47{fill:#e24466;}.cls-48{fill:#fff1dc;}.cls-49{fill:#492e36;}.cls-50{fill:#f9ebd7;}.cls-51{font-size:26.22px;fill:#352d2d;font-family:Kefa-Bold, Kefa;font-weight:700;}.cls-52{letter-spacing:-0.03em;}.cls-53{fill:#a55723;}.cls-54{fill:#d3842d;}.cls-55{fill:#ffad40;}.cls-56{fill:#ed9832;}.cls-57{fill:#ffce43;}.cls-58{fill:#5b4d3e;}.cls-59{fill:#544232;}.cls-60,.cls-61{fill:#efdbce;}.cls-61{font-size:17.48px;font-family:Chalkduster;}.cls-62{fill:#f7e9cd;}.cls-63{fill:#e8c7af;}.cls-64{fill:#6b5b4f;fill-rule:evenodd;}.cls-65{fill:#fd5a70;}.cls-66{fill:#ffcb39;}</style></defs><title>ifo-bunny</title><path class="cls-1" d="M397.74,339.51c.68-.72,16.68-17.93,23.84-39.55l-2.67-1.16c-6.93,20.91-23,38.14-23.11,38.32Z" transform="translate(-10.02 -4.52)"/><path class="cls-1" d="M395.37,328.07c-.77-.72-19.11-17.93-27.32-39.54l3.05-1.17c7.95,20.91,26.31,38.15,26.5,38.32Z" transform="translate(-10.02 -4.52)"/><polygon class="cls-1" points="387.27 258.64 385.4 260.87 383.97 367.51 389.23 367.51 387.27 258.64"/><polygon class="cls-2" points="403.35 365.56 370.75 365.56 359.88 369.45 414.21 369.45 403.35 365.56"/><path class="cls-3" d="M351.18,293.34c35.81,19.92,65.73,18.17,94.68-1.17,0,0,2-185.71-15.21-266.55,0,0-17.17-17.58-57.39-21.1C353,85.66,342.07,199.66,351.18,293.34Z" transform="translate(-10.02 -4.52)"/><path class="cls-4" d="M418.47,234.66s9.74-124.78,6.31-211.5C416.84,17.9,401.12,10,376,7.79,359.5,73.58,349.48,161.86,352,241.91,375.29,250.1,396.83,247.1,418.47,234.66Z" transform="translate(-10.02 -4.52)"/><polygon class="cls-5" points="367.7 88.72 292.01 88.72 292.01 369.01 389.28 369.01 367.7 88.72"/><polygon class="cls-1" points="315.88 330.57 395.02 330.57 399.45 369.01 315.88 369.01 315.88 330.57"/><polygon class="cls-1" points="319.8 88.72 30.05 88.72 30.05 369.01 339.61 369.01 319.8 88.72"/><polygon class="cls-6" points="32.15 88.72 30.05 97.07 30.05 175.08 326.17 175.08 319.89 89.96 265.65 88.72 32.15 88.72"/><rect class="cls-7" x="42.54" y="295.76" width="45.28" height="24.7"/><rect class="cls-7" x="93.17" y="252.13" width="45.28" height="24.7"/><rect class="cls-1" x="262.78" y="131.92" width="45.28" height="24.7"/><rect class="cls-7" x="269.36" y="256.24" width="45.28" height="24.7"/><rect class="cls-7" x="186.21" y="274.36" width="45.28" height="24.7"/><rect class="cls-7" x="272.66" y="315.52" width="45.28" height="24.7"/><rect class="cls-7" x="132.69" y="320.46" width="45.28" height="24.7"/><rect class="cls-7" x="49.95" y="185.85" width="45.28" height="24.7"/><rect class="cls-1" x="41.72" y="109.28" width="45.28" height="24.7"/><polygon class="cls-8" points="321.78 32.85 23.05 34.02 0 125.68 333.99 125.68 321.78 32.85"/><polygon class="cls-9" points="321.78 32.85 383.67 41.71 396.67 125.68 331.22 125.68 321.78 32.85"/><polygon class="cls-10" points="102.78 330.57 18.22 330.57 13.49 369.01 102.78 369.01 102.78 330.57"/><polygon class="cls-10" points="264.01 330.57 343.16 330.57 347.58 369.01 264.01 369.01 264.01 330.57"/><polygon class="cls-10" points="108.68 330.57 187.82 330.57 192.25 369.01 108.68 369.01 108.68 330.57"/><polygon class="cls-10" points="259.62 330.57 194.85 330.57 197.32 369.01 259.62 369.01 259.62 330.57"/><rect class="cls-11" x="81.49" y="138.69" width="200.46" height="132.73"/><rect class="cls-12" x="99.5" y="152.85" width="164.44" height="116.07"/><path class="cls-13" d="M126,278.41l123.68-6.07s-22-56.54-37-62.84-44.7-5.09-54.6.3S126,278.41,126,278.41Z" transform="translate(-10.02 -4.52)"/><path class="cls-14" d="M224.26,250.72c-4.84-15.06-6.41-29-5.11-36.15a16.58,16.58,0,0,0-6.42-5.07,38.93,38.93,0,0,0-3.74-1.3c4.13,18.23-.17,34.61-14.18,34.94s-23.93-32-22.68-36.54c-2.57.39-3.52-.34-8.75,1.21,3.64,8.51,3.21,22.26-1.92,36.39-7.5,20.63-22.17,34.22-32.78,30.37a10.88,10.88,0,0,1-1.09-.52c-1,2.73-1.57,4.36-1.57,4.36H236.87C232.55,272.05,227.94,262.19,224.26,250.72Z" transform="translate(-10.02 -4.52)"/><path class="cls-14" d="M209.6,208.37c-11.82-3.75-29.79-3.89-41.9-1.57,2.6,4.81,11.22,8.34,21.49,8.34C198.31,215.14,206.14,212.36,209.6,208.37Z" transform="translate(-10.02 -4.52)"/><polygon class="cls-15" points="203.71 205.49 201.37 204.78 202.06 230.5 161.96 231.75 159.48 201.94 156.45 202.51 153.96 273.88 219.44 273.88 203.71 205.49"/><path class="cls-16" d="M178.59,205.59l1-20.67,14.26,9.59,1.61,10C195.24,207.48,183.52,214.34,178.59,205.59Z" transform="translate(-10.02 -4.52)"/><path class="cls-2" d="M186.74,204.45c-5.83-3.85-11.62-20.23-10.66-24.5s12-9.23,15-6.5,9,24.87,8.52,26.46S188.84,205.83,186.74,204.45Z" transform="translate(-10.02 -4.52)"/><path class="cls-17" d="M185.25,185.85a31,31,0,0,1,10.07-3.12c-1.48-4.43-3-8.24-4.19-9.28-3-2.73-14.09,2.23-15,6.5-.43,1.9.49,6.2,2.14,10.72A31.06,31.06,0,0,1,185.25,185.85Z" transform="translate(-10.02 -4.52)"/><path class="cls-18" d="M172.43,183.54c1.64,7,6.72,13.82,6.72,13.82l.61-2.9,1.29-5.74-2.2-9.81Z" transform="translate(-10.02 -4.52)"/><path class="cls-19" d="M172.73,185.59l19.89-10.27s-6.8-9.42-9.72-9.28-11.78,5.45-13,7.71S172.73,185.59,172.73,185.59Z" transform="translate(-10.02 -4.52)"/><path class="cls-20" d="M177,182.73c-3.78-3.06-4-9.06-.77-13.88-2.89,1.68-5.65,3.71-6.29,4.9-1.2,2.26,2.82,11.84,2.82,11.84l4.83-2.49A5.87,5.87,0,0,1,177,182.73Z" transform="translate(-10.02 -4.52)"/><path class="cls-20" d="M193.6,177c6.59-5.49,4.56-10,.76-9.29-7.84,1.36-21.63,17.87-21.63,17.87Z" transform="translate(-10.02 -4.52)"/><path class="cls-2" d="M179.54,188.5c-1.57-1.8-3.31-2.16-3.95-1.06s-.12,3,1.08,4.63c1.31,1.79,3.16,2.75,4.11,1.92S181.27,190.47,179.54,188.5Z" transform="translate(-10.02 -4.52)"/><path class="cls-16" d="M178.62,189.13c-1-1.1-2-1.31-2.42-.62s-.07,1.87.67,2.89,1.93,1.67,2.52,1.15S179.68,190.34,178.62,189.13Z" transform="translate(-10.02 -4.52)"/><path class="cls-2" d="M179.55,190.88c-.63-.72-1.31-.85-1.55-.39a2.13,2.13,0,0,0,.47,1.9c.53.72,1.26,1.09,1.62.74S180.24,191.67,179.55,190.88Z" transform="translate(-10.02 -4.52)"/><path class="cls-21" d="M222.77,249.34c-5.28,15.25-14.91,25.5-26,25.5-16.7,0-30.24-23.38-30.24-52.22A87,87,0,0,1,168,206.75l-1.54.28L164,278.41h65.48Z" transform="translate(-10.02 -4.52)"/><path class="cls-2" d="M130,273.14h46.1l6-8.4s-20.19-12.89-33.32-10.82S130,273.14,130,273.14Z" transform="translate(-10.02 -4.52)"/><path class="cls-2" d="M250,273.14h-44.6l-5.76-8.4s19.53-12.89,32.24-10.82S250,273.14,250,273.14Z" transform="translate(-10.02 -4.52)"/><path class="cls-17" d="M223.16,267.06c-9.13,0-17.78,6.08-17.78,6.08H250a41,41,0,0,0-4.37-8.93C240.27,266,232.19,267.06,223.16,267.06Z" transform="translate(-10.02 -4.52)"/><path class="cls-17" d="M156.76,268.51c-8.9,0-17-1.3-22.78-3.4a40.72,40.72,0,0,0-3.94,8h46.1l-11.59-1.62S166.69,268.51,156.76,268.51Z" transform="translate(-10.02 -4.52)"/><path class="cls-2" d="M187.21,272.25c1.34-6.9,13.35-13.28,19.44-11.57,8.42,2.36,10.12,11.85,10.12,11.85Z" transform="translate(-10.02 -4.52)"/><path class="cls-2" d="M189.4,272.25c-1.14-6.9-11.37-13.28-16.55-11.57-7.18,2.36-8.63,11.85-8.63,11.85Z" transform="translate(-10.02 -4.52)"/><path class="cls-17" d="M205.13,271.81l21.53.19C222.13,267.89,212.45,266.07,205.13,271.81Z" transform="translate(-10.02 -4.52)"/><path class="cls-17" d="M161.39,272.16l15,.11C172.75,269.94,165.81,268.91,161.39,272.16Z" transform="translate(-10.02 -4.52)"/><path class="cls-17" d="M190.19,272.16l1.77.37c0-1.83,2.43-4.5,2.43-4.5A13.1,13.1,0,0,0,190.19,272.16Z" transform="translate(-10.02 -4.52)"/><path class="cls-17" d="M194.45,272.47l1.76.36c0-1.82,2.44-4.5,2.44-4.5A13.18,13.18,0,0,0,194.45,272.47Z" transform="translate(-10.02 -4.52)"/><path class="cls-17" d="M187.26,273.19l-1.79.18c.18-1.81-2-4.72-2-4.72A13.11,13.11,0,0,1,187.26,273.19Z" transform="translate(-10.02 -4.52)"/><path class="cls-17" d="M183,273.06l-1.79.19c.19-1.82-2-4.72-2-4.72A13,13,0,0,1,183,273.06Z" transform="translate(-10.02 -4.52)"/><path class="cls-22" d="M187.45,188.67c-.28-.85-.94-1.44-1.47-1.31s-.72.92-.44,1.78,1,1.44,1.47,1.31S187.74,189.53,187.45,188.67Z" transform="translate(-10.02 -4.52)"/><path class="cls-18" d="M185.78,184.13l-3.17,1.46a.52.52,0,0,0-.25.7l.5,1a.55.55,0,0,0,.72.25l3.16-1.46a.52.52,0,0,0,.25-.7l-.49-1A.55.55,0,0,0,185.78,184.13Z" transform="translate(-10.02 -4.52)"/><path class="cls-22" d="M194,185.92c-.32-.84-1-1.41-1.51-1.27s-.7.95-.38,1.8,1,1.41,1.51,1.26S194.34,186.77,194,185.92Z" transform="translate(-10.02 -4.52)"/><path class="cls-18" d="M193.16,180.8,190.24,182a.55.55,0,0,0-.27.69l.36,1a.46.46,0,0,0,.62.31l2.91-1.23a.55.55,0,0,0,.27-.69l-.36-1A.47.47,0,0,0,193.16,180.8Z" transform="translate(-10.02 -4.52)"/><path class="cls-16" d="M190.11,187.29c1.83,2.21,2.72,3.74,2.13,4.72a2.33,2.33,0,0,1-1.78.89V193s2.13.19,2.81-.77S192.61,189.66,190.11,187.29Z" transform="translate(-10.02 -4.52)"/><path class="cls-23" d="M195.31,193.59l-6.7,2.18a4.18,4.18,0,0,0,4.35,2.49C196.3,198,195.31,193.59,195.31,193.59Z" transform="translate(-10.02 -4.52)"/><path class="cls-24" d="M194.87,195.91a5.7,5.7,0,0,0-.07-1.81l-5.41,1.76a3.5,3.5,0,0,0,1.1,1.37Z" transform="translate(-10.02 -4.52)"/><polygon class="cls-25" points="143.46 33.55 84.05 33.78 74.24 125.68 140.65 125.68 143.46 33.55"/><polygon class="cls-25" points="281.23 32.95 221.84 33.18 222.86 125.68 289.27 125.68 281.23 32.95"/><polygon class="cls-8" points="345.75 36.28 370.3 39.85 384.51 125.68 358.81 125.68 345.75 36.28"/><polygon class="cls-6" points="294.48 271 70.53 271 76.02 291.86 299.96 291.86 294.48 271"/><rect class="cls-26" x="68.97" y="266.24" width="224.68" height="7.32"/><rect class="cls-8" x="68.97" y="266.24" width="224.68" height="3.84"/><path class="cls-27" d="M140.8,65.59C139.74,74.29,130.94,76,127.86,76c-1.5,0-4.24.18-6.56.36-1.37.11-2.82.23-4.33.29-.39,2.68-.76,5.13-1,7.29a70.76,70.76,0,0,0-.78,8.22c.2,1.23-1.67,1.93-2.56,1.58a6,6,0,0,0-1.21-.06c-1.29,0-3.37.12-4.61.23-1.74.18-1.76-.81-1.62-1.92s.72-4.79,1-7.24c.26-2.1,2.93-19.36,3.77-26.19a23.43,23.43,0,0,0,.23-2.5c0-.65,0-1.11,0-1.52.15-1.23.55-1.58,1-1.52s2.71.12,4.5.12c.79,0,4.09-.12,7.89-.12,2.36,0,4.93.06,7.2.18C136.69,53.52,141.86,56.9,140.8,65.59Zm-14.43,6.25c2.5,0,7.33-.88,7.94-5.9s-1.79-7-6.07-7.75a43.51,43.51,0,0,0-8.36-.7,23.4,23.4,0,0,1-.37,2.45c-.24,1.4-.51,3.09-.92,4.66a26.87,26.87,0,0,0-.71,4.61l-.13,2.27,3.34.18C123,71.84,125,71.84,126.37,71.84Z" transform="translate(-10.02 -4.52)"/><path class="cls-27" d="M149.56,61.74c-.38,3.15-2.17,13.13-2.53,16.1s-1.4,13.24-1.36,14.7a3.46,3.46,0,0,1,0,.82c-.08.64-.38.76-.83.93a6,6,0,0,1-2.25.24c-2.36,0-1.74.23-1.42-2.45.27-2.22,2.24-16,2.71-19.9s2.57-15.16,2.52-16.56c0-.41,0-.82.08-1.23.1-.81.4-1.51,1.33-1.51.5,0,1.57.06,2.64.06.57,0,.67.35.62.81s-.26.94-.32,1.4A58.19,58.19,0,0,0,149.56,61.74Z" transform="translate(-10.02 -4.52)"/><path class="cls-27" d="M176.76,56.44c-1.86,0-9.71-.18-14.87-.18-2.07,0-3.72.06-4.38.12-2.38.17-2.66-.41-2.62-.82a9,9,0,0,1,.57-2.27c.12-.41.49-.53.92-.53.72,0,1.61.29,2.54.29l7-.06c1.93,0,5.58.06,7.8.06s7.44,0,9.64.18c1.63.11,4,.29,5.76.29a11.12,11.12,0,0,0,1.51-.06c.21,0,.36-.06.51-.06.93,0,.58.47.54.82a14.06,14.06,0,0,1-.55,2.16c-.36,1.22-2.45,2.51-4.46,4.31s-6.62,6.71-8.42,8.64-7.79,7.52-9.09,8.75-5,4.78-6.55,6.18a45.55,45.55,0,0,0-3.29,3.56l-2.17,2.51c3.36,0,6.44,0,9.08,0,4.58,0,9.3.06,9.94.06,1.15,0,5,.24,6.35.24l4.73-.06h.14c.64,0,.46.35.43.58s-.07,1.17-.16,1.87c-.06.52-.37.7-1,.7a8.36,8.36,0,0,1-1.06-.12,28.73,28.73,0,0,0-4.56-.17c-1.72,0-14.14.29-16.71.29s-10.66,0-12.48.17h-.42c-1.22,0-.86-.64-.81-1a5.38,5.38,0,0,1,1.58-2.39c1-.93,9.68-9.56,11.6-11.2s10-9.33,13.95-12.83c2-1.81,4.38-4.26,6.27-6.3l3.31-3.68h-4.29C180.76,56.49,178.11,56.49,176.76,56.44Z" transform="translate(-10.02 -4.52)"/><path class="cls-27" d="M211.25,57.6c-1.14,0-3,.12-4.38.12a7.68,7.68,0,0,1-1.28-.06c-.63-.12-3-.12-5.07-.12h-3c-1.07,0-.75-.35-.7-.75a21,21,0,0,0,.06-2.28c.07-1.11,1.18-.82,2.25-.82,2.29,0,6.11-.23,9.05-.23s10.42.23,12,.23h4.22c2.87,0,6.16,0,7.17-.11.22,0,.37-.06.51-.06,1.08,0,.87.52.82.93a5.25,5.25,0,0,1-1,3c-.91.93-8.28,8.63-11.29,11.55-1.55,1.57-5.8,5.89-9.92,9.79l-7.73,7.59c1,.11,2,.23,2.9.29,1.63.17,3.62.23,5.13.23,3.08,0,5-.11,7.81-.11s10.35-.35,11.93-.35,1.17.93,1.14,1.8-.55,3.27-.67,4.26c0,.12,0,.24,0,.35-.09.76-.17.82-1.11.88s-2.29,0-5.42.41c-1,.11-2.51.11-4.16.11-3.22,0-7.14-.11-9.08-.11H193.84c-2.72,0-2.1-1-2-1.93.09-.76.86-4.14,1-5.13s1.82-2,3.5-3.5S206,74.4,207.57,72.54s6.76-6.77,8.71-8.64a32.46,32.46,0,0,0,3-3.79l1.56-2.27a2.21,2.21,0,0,1-.63-.06l-1.42-.12Z" transform="translate(-10.02 -4.52)"/><path class="cls-27" d="M256.2,52.24c.36-.59.73-.7,1.05-.41.47.29.53.93.73,1.63a73.73,73.73,0,0,0,2.94,7,48.68,48.68,0,0,1,2.32,6.24C263.89,69,266.81,75,268,77.79s4.14,8.34,4.95,9.91S274.75,92,275.64,93a1.72,1.72,0,0,1,.27.76c-.05.41-.7.47-1.35.47h-5.15c-.57,0-.8-1.05-1.2-1.93a60.83,60.83,0,0,1-2.06-6c-.25-.87-1-2.39-1.38-3.32-.24-1-.57-1.17-1.15-1.17s-1.66.12-2.88.18-5.66,0-7.69.23c-.65.06-1.51.06-2.29.06-1.72,0-3.43-.06-3.79-.06-.64,0-.79.64-1.09,1.28s-1.8,4.26-2.15,5.37l-1.1,2.51L241.86,93c-.4.87-.57,1.11-1.07,1.11h-4.22c-.29,0-.35-.06-.33-.24a3.77,3.77,0,0,1,.38-.81,12.2,12.2,0,0,0,1.28-2.22c.76-1.57,3.43-7,4.3-9.45a50.6,50.6,0,0,1,3.56-7.52c.81-1.93,1.28-2.86,2.54-5.6s2.61-5.54,3.65-7.64L254.31,56A36,36,0,0,1,256.2,52.24Zm4.72,21.17a1.05,1.05,0,0,0-.16-.47,58.68,58.68,0,0,1-2.63-6.59c-.71-1.81-1.1-3.32-1.28-3.61-.39-.88-.42-1.23-.78-1.23s-.64,1.11-1.13,2.22c-.47.93-2,4-2.48,5.13s-1.58,3-2.05,3.85a3.5,3.5,0,0,0-.33.93c0,.24.1.35.6.35.86,0,7.32-.11,8.56-.29C260.25,73.59,260.88,73.7,260.92,73.41Z" transform="translate(-10.02 -4.52)"/><path class="cls-17" d="M254.76,262.11s-14.54,1-17,8.64h24C261.72,265.72,254.76,262.11,254.76,262.11Z" transform="translate(-10.02 -4.52)"/><polygon class="cls-17" points="239.04 262.58 244.32 247.13 254.7 253.46 252.17 265.62 239.04 262.58"/><path class="cls-28" d="M294.53,250.78c5.92,33.86,38.81,120,38.81,120h1.3s.43-128.69-3.36-138.3S294.53,250.78,294.53,250.78Z" transform="translate(-10.02 -4.52)"/><path class="cls-29" d="M292.48,245.5c-4.69,33.85-1.67,125.33-1.67,125.33h1.3s40.68-108.28,39.95-134.7C331.79,226.41,292.48,245.5,292.48,245.5Z" transform="translate(-10.02 -4.52)"/><path class="cls-30" d="M332.06,236.13c-.27-9.72-39.58,9.37-39.58,9.37-.73,5.27-1.28,11.95-1.67,19.46l21.94,3.64L291.47,370.83h.64S332.79,262.55,332.06,236.13Z" transform="translate(-10.02 -4.52)"/><path class="cls-31" d="M264.43,262.31l-12.29-5.51s25.8-96.64,31.22-101.11,30,.56,17.91,42.72C299.08,206,264.43,262.31,264.43,262.31Z" transform="translate(-10.02 -4.52)"/><path class="cls-32" d="M266.32,205.83l25.73,10.26c1.17-2,2.27-4,3.28-5.81l-27.15-10.83Z" transform="translate(-10.02 -4.52)"/><path class="cls-32" d="M269.43,195.22l28,11.17c.66-1.23,1.26-2.36,1.77-3.38l-28.71-11.45C270.16,192.77,269.8,194,269.43,195.22Z" transform="translate(-10.02 -4.52)"/><path class="cls-33" d="M281.65,156.42c-10.21,24,10.16,72.73,8.09,100.46,0,0,22.46,7.71,43.54-20.19C327.73,176.12,289.57,137.77,281.65,156.42Z" transform="translate(-10.02 -4.52)"/><path class="cls-34" d="M281.65,156.42C278,165,278.27,176.77,280,189.58c2.73-8.89,6.65-14.85,11.21-15.9,9.57-2.2,18.3,18.06,19.51,45.26.63,14.36-1,27.78-4,37.57,7.77-2.18,17.3-7.56,26.56-19.82C327.73,176.12,289.57,137.77,281.65,156.42Z" transform="translate(-10.02 -4.52)"/><path class="cls-32" d="M280.85,156.1c-1.92,4.53-2.32,10.29-2.06,16.21,6.81-3.54,10.28-13.24,11.5-20.36A7.24,7.24,0,0,0,280.85,156.1Z" transform="translate(-10.02 -4.52)"/><path class="cls-2" d="M264.18,262.11s-14.4,1-16.86,8.64h23.8C271.06,265.72,264.18,262.11,264.18,262.11Z" transform="translate(-10.02 -4.52)"/><path class="cls-16" d="M279.23,168.1c6.77-4,8.85-16.06,8.85-16.06l-12.39-9.41L269.4,158Z" transform="translate(-10.02 -4.52)"/><polygon class="cls-2" points="249.72 258.56 253.25 247.74 263.62 254.06 261.1 266.23 249.72 258.56"/><path class="cls-33" d="M272.64,264.22l-11.83-5.81s22.48-93.07,27.7-97.76,28.6-2.85,18.73,39.17C305.46,207.42,272.64,264.22,272.64,264.22Z" transform="translate(-10.02 -4.52)"/><path class="cls-34" d="M303.93,163.15a91.71,91.71,0,0,1-1.67,19.42c-1.45,8.13-30.6,69.38-35.16,78.93l5.54,2.72s33.21-56.86,35-64.46C312.44,179.3,309,168.44,303.93,163.15Z" transform="translate(-10.02 -4.52)"/><path class="cls-2" d="M280.69,159.09c.24-7.07-4.41-17.93-9.59-22-4.58-3.59-12.66.56-13.38,7.58-.47,4.63,8.39,23.24,12.39,24.49C273.68,168.44,280.6,161.71,280.69,159.09Z" transform="translate(-10.02 -4.52)"/><path class="cls-29" d="M283.55,148.78l-4.43,1.05-3.66-1.35-2.11,2.59s-6.2-13.59-15.15-8.51l-2.51-1.26s8.8-9.19,16-8.31C280.34,134.06,283.55,148.78,283.55,148.78Z" transform="translate(-10.02 -4.52)"/><path class="cls-2" d="M279.15,147.14c-.6-2.31-2.15-3.86-3.47-3.47s-1.91,2.58-1.31,4.88,2.15,3.86,3.47,3.47S279.75,149.44,279.15,147.14Z" transform="translate(-10.02 -4.52)"/><path class="cls-16" d="M278.12,147.1c-.32-1.22-1.14-2-1.84-1.84s-1,1.37-.69,2.59,1.14,2.05,1.84,1.84S278.44,148.33,278.12,147.1Z" transform="translate(-10.02 -4.52)"/><path class="cls-2" d="M277.51,148.21c-.28-.77-.87-1.25-1.31-1.08s-.57.93-.29,1.7.87,1.26,1.31,1.09S277.79,149,277.51,148.21Z" transform="translate(-10.02 -4.52)"/><path class="cls-35" d="M292.38,373.55H278.85s9.76-5.72,12.32-5.72S292.38,373.55,292.38,373.55Z" transform="translate(-10.02 -4.52)"/><path class="cls-35" d="M336,373.55H322.49s7.42-5.53,10-5.53S336,373.55,336,373.55Z" transform="translate(-10.02 -4.52)"/><path class="cls-36" d="M298.4,218.17l-24.9-9.93q-.86,3.22-1.69,6.44L295.24,224C296.33,222,297.39,220.06,298.4,218.17Z" transform="translate(-10.02 -4.52)"/><path class="cls-36" d="M302.23,210.88l-26.59-10.61c-.33,1.22-.67,2.46-1,3.69l25.83,10.3Z" transform="translate(-10.02 -4.52)"/><path class="cls-22" d="M264.66,152.86c-.48-.73-.47-1.58,0-1.9s1.28,0,1.76.75.47,1.58,0,1.9S265.14,153.59,264.66,152.86Z" transform="translate(-10.02 -4.52)"/><path class="cls-29" d="M261.74,148.74l3.46-1.69a.53.53,0,0,1,.74.21l.44,1a.56.56,0,0,1-.32.72l-3.46,1.69a.54.54,0,0,1-.74-.21l-.44-1A.58.58,0,0,1,261.74,148.74Z" transform="translate(-10.02 -4.52)"/><path class="cls-22" d="M260.76,154.41c-.36-.79-.46-1.54-.22-1.66s.73.43,1.09,1.22.46,1.54.22,1.66S261.12,155.21,260.76,154.41Z" transform="translate(-10.02 -4.52)"/><path class="cls-29" d="M258,151.14l1.22-.78c.1-.07.32.07.48.3l.63.86c.16.23.22.47.11.54l-1.22.78c-.1.07-.32-.07-.48-.3l-.63-.86C257.93,151.45,257.88,151.21,258,151.14Z" transform="translate(-10.02 -4.52)"/><path class="cls-16" d="M263.21,154.39c-.59,3.16-.66,5.11.31,5.63a2.16,2.16,0,0,0,2-.28l0,.06s-1.79,1.48-2.83,1S262.1,158.11,263.21,154.39Z" transform="translate(-10.02 -4.52)"/><path class="cls-23" d="M265.85,161.6l4.37-3.31a2.45,2.45,0,0,1,.2,4.16C268.46,164.23,265.85,161.6,265.85,161.6Z" transform="translate(-10.02 -4.52)"/><path class="cls-24" d="M267.43,162.33a4.91,4.91,0,0,1-1.14-.79l3.59-2.63a2.44,2.44,0,0,1,.85,1.3Z" transform="translate(-10.02 -4.52)"/><path class="cls-17" d="M366.51,221.73l1.59-9.65a11.39,11.39,0,0,0-7.15-2,18.39,18.39,0,0,1-5,2.63C353.42,213.44,356.69,222.94,366.51,221.73Z" transform="translate(-10.02 -4.52)"/><path class="cls-17" d="M356.05,218.69A24.23,24.23,0,0,0,367,219l-.9,2.63c-2.06.6-6.27.14-8.88-.4S354.79,218.44,356.05,218.69Z" transform="translate(-10.02 -4.52)"/><path class="cls-37" d="M446.12,149c-2.39-9.67-14.31-14.48-20.39-8.44s-1.3,13.8-1.3,13.8Z" transform="translate(-10.02 -4.52)"/><path class="cls-38" d="M423,176.48c-23.94,7.69-34.74,46.39-34.74,46.39l13.92,26.46Z" transform="translate(-10.02 -4.52)"/><path class="cls-39" d="M427.83,182c-23.93,7.69-34.89,46.74-34.89,46.74l13.91,26.46Z" transform="translate(-10.02 -4.52)"/><ellipse class="cls-40" cx="395.7" cy="238.8" rx="11.11" ry="17.33" transform="translate(-76.49 234.04) rotate(-31.08)"/><path class="cls-2" d="M365.46,211.37s31.32,8.16,38.63,30.24l.32,8.32c-10,4.39-19.39.3-22.41-3s-17.17-27.23-17.17-27.23Z" transform="translate(-10.02 -4.52)"/><path class="cls-17" d="M373.89,225.34c9.72,8,19.59,11.65,22.05,8.06.76-1.12.72-2.81,0-4.84a34.53,34.53,0,0,1,8.15,13.05l.32,8.32c-10,4.39-19.39.3-22.41-3s-17.17-27.23-17.17-27.23l.24-3.26A59.52,59.52,0,0,0,373.89,225.34Z" transform="translate(-10.02 -4.52)"/><path class="cls-41" d="M402.82,248.57l52.63,9.78S447.62,320,426.83,372.88H425.4S389.49,317,388.79,309.93C387.5,297,402.82,248.57,402.82,248.57Z" transform="translate(-10.02 -4.52)"/><path class="cls-42" d="M416,291.37s4.27,40.25,9.71,80.17l-.26.16-15-57.17Z" transform="translate(-10.02 -4.52)"/><path class="cls-42" d="M413.75,270.67c-8.34-2.49-15.91,1.55-20.08,9.8,3.65-15.35,7.73-33,7.73-33L457,258.3s-9.38,61.7-30.17,114.58H426C429.48,361.84,450.79,281.76,413.75,270.67Z" transform="translate(-10.02 -4.52)"/><path class="cls-38" d="M455.68,271.41c-33.38.68-56.18-18.15-56.18-18.15s-4.39-60.57,16.36-73,28.85-8.16,41.25,3.4S455.68,271.41,455.68,271.41Z" transform="translate(-10.02 -4.52)"/><path class="cls-39" d="M446.47,222.54c-1.21-34.82,7.53-41.83,10.64-38.93,12.41,11.57-1.43,87.8-1.43,87.8a87.62,87.62,0,0,1-15.26-1C444.57,252.77,447.08,240.26,446.47,222.54Z" transform="translate(-10.02 -4.52)"/><path class="cls-38" d="M447.94,176.3c30.74,10.68,50.25,58.64,42.87,67.27l-30-8.22c-4.85-6.35-12.16-14.66-14.29-22C441.06,194.61,447.94,176.3,447.94,176.3Z" transform="translate(-10.02 -4.52)"/><path class="cls-39" d="M445.29,210.21c11.29,16.67,27.13,25.51,35.95,20.42,3.92-2.27,5.86-6.92,5.92-12.78,5.13,11.71,6.72,22.13,3.65,25.72l-30-8.22C456,229,448.56,220.61,446,213c-.34-1-.65-2.07-.93-3.1Z" transform="translate(-10.02 -4.52)"/><path class="cls-38" d="M425.78,373.83h-8.41s6.39-4.63,7.42-4.17S425.78,373.83,425.78,373.83Z" transform="translate(-10.02 -4.52)"/><path class="cls-38" d="M424.6,373.83h9.84s-5.9-4.21-7.26-3.79S424.6,373.83,424.6,373.83Z" transform="translate(-10.02 -4.52)"/><ellipse class="cls-40" cx="477.04" cy="239.13" rx="18" ry="10.7" transform="translate(-20.61 17.9) rotate(-2.66)"/><path class="cls-2" d="M454.81,271.71c13.51-8.62,34.18-22.47,37-30,4.05-10.68-20.46-13.31-28.75-6.28-5,4.24-13.69,26.29-13.69,26.29Z" transform="translate(-10.02 -4.52)"/><path class="cls-17" d="M463,263.86c11.79-8.71,15.62-17.18,11.93-21.69-2.54-3.11-9.3-2.46-17.12,1.11,1.88-3.53,3.78-6.53,5.32-7.84,8.29-7,32.8-4.4,28.75,6.28-2.85,7.52-21.84,20.41-35.35,29C456.49,270.76,460.89,265.39,463,263.86Z" transform="translate(-10.02 -4.52)"/><path class="cls-39" d="M435.25,187.51c-8.64,0-15.48-5-18.92-7.92a31.61,31.61,0,0,1,5.67-2.76c11.79-5.84,19.07-5.12,26.37-.37a45.69,45.69,0,0,1,6.9,3.18C451.79,182.55,443.82,187.51,435.25,187.51Z" transform="translate(-10.02 -4.52)"/><path class="cls-43" d="M422.25,176.71c9.76-4.78,16.42-5,22.58-2.21-1.14,4.68-5.95,8.21-11.72,8.21A12.2,12.2,0,0,1,422.25,176.71Z" transform="translate(-10.02 -4.52)"/><path class="cls-16" d="M441.49,173.29l-1.19-11.91-15.14,4-.48,10.1C424.5,177.78,436.28,186.16,441.49,173.29Z" transform="translate(-10.02 -4.52)"/><path class="cls-2" d="M440.3,162.62c2-8.62-.06-14.52-1-16.2-1.43-2.61-10.63-4.27-13-1.66s-5.13,15.13-4.28,26.45c.24,3.17,11.62,3.18,13.6,1.76C438.5,170.93,439.58,165.69,440.3,162.62Z" transform="translate(-10.02 -4.52)"/><polygon class="cls-39" points="403.06 259.43 408.01 261.57 407.77 264.73 402.81 262.59 403.06 259.43"/><path class="cls-37" d="M441,168.25l-.95-5.09-3-3.86S434.27,139,443.86,144,441,168.25,441,168.25Z" transform="translate(-10.02 -4.52)"/><path class="cls-22" d="M431.12,155.73c0-.81.48-1.45,1-1.45s.91.68.88,1.48-.48,1.46-1,1.45S431.09,156.54,431.12,155.73Z" transform="translate(-10.02 -4.52)"/><path class="cls-37" d="M431.81,151.52l3.37.48a.47.47,0,0,1,.42.54l-.19,1a.52.52,0,0,1-.6.39l-3.36-.48a.47.47,0,0,1-.42-.54l.18-1A.53.53,0,0,1,431.81,151.52Z" transform="translate(-10.02 -4.52)"/><path class="cls-22" d="M423.12,154.88c0-.81.48-1.46,1-1.45s.91.67.88,1.48-.48,1.46-1,1.45S423.09,155.69,423.12,154.88Z" transform="translate(-10.02 -4.52)"/><path class="cls-37" d="M422,150.81h3.39a.48.48,0,0,1,.5.48l0,1a.51.51,0,0,1-.53.48l-3.39,0a.48.48,0,0,1-.5-.47l0-1A.51.51,0,0,1,422,150.81Z" transform="translate(-10.02 -4.52)"/><path class="cls-16" d="M427.86,155c-1.24,2.63-1.76,4.34-1.05,5.06a1.84,1.84,0,0,0,1.75.29v.06s-1.87.83-2.65.14S426.05,158,427.86,155Z" transform="translate(-10.02 -4.52)"/><path class="cls-23" d="M425.34,163.86l7.83-.87s.33,2.59-3.17,3.7S425.34,163.86,425.34,163.86Z" transform="translate(-10.02 -4.52)"/><path class="cls-24" d="M426.92,165.54a4.52,4.52,0,0,1-.83-1.48l6.33-.69a2.45,2.45,0,0,1-.43,1.52Z" transform="translate(-10.02 -4.52)"/><path class="cls-2" d="M439.1,158.59c1.21-2.07,3.1-3.26,4.21-2.67s1,2.75-.19,4.81S440,164,438.9,163.4,437.88,160.65,439.1,158.59Z" transform="translate(-10.02 -4.52)"/><path class="cls-16" d="M440,159.11c.76-1.3,1.95-2.05,2.65-1.68s.63,1.73-.13,3-2,2-2.65,1.68S439.21,160.41,440,159.11Z" transform="translate(-10.02 -4.52)"/><path class="cls-2" d="M439.21,159.93c.53-.9,1.35-1.41,1.82-1.15s.44,1.19-.1,2.09-1.35,1.42-1.82,1.16S438.67,160.83,439.21,159.93Z" transform="translate(-10.02 -4.52)"/><path class="cls-2" d="M361.67,211.49c.9.28,4.25,1,5.7,3.75l4.59-1.73c-1.78-2.24-6.26-3.94-9.33-4.21C360.55,209.12,360.77,211.21,361.67,211.49Z" transform="translate(-10.02 -4.52)"/><path class="cls-2" d="M360.69,211.82c-.12-1.7.15-2.52,1.08-2.56s1.78,1.31,1.9,3-.54,3.12-1.47,3.16S360.81,213.53,360.69,211.82Z" transform="translate(-10.02 -4.52)"/><path class="cls-2" d="M440.72,267.66c.93-.74,3.95-3.72,7.85-3.33l1.4-4.09c-3.48.23-8.55,2-11,4.94C437.29,267.23,439.77,268.42,440.72,267.66Z" transform="translate(-10.02 -4.52)"/><path class="cls-2" d="M458.9,267.06l-9-7.06a13.47,13.47,0,0,0-7.59,4.71,20.84,20.84,0,0,1-1.42,6.56C439.61,274.11,455.28,278.23,458.9,267.06Z" transform="translate(-10.02 -4.52)"/><path class="cls-2" d="M435.9,274.6c.9-.51,4.4-2,5.87-5.92l2.24,2.57c-.44,1.64-3.28,4.11-5.16,5.15S435,275.1,435.9,274.6Z" transform="translate(-10.02 -4.52)"/><path class="cls-2" d="M441.3,275.57c.89-.52,4.35-2.1,5.73-6l2.3,2.52c-.4,1.64-3,3.69-4.83,4.77S440.41,276.1,441.3,275.57Z" transform="translate(-10.02 -4.52)"/><path class="cls-2" d="M446.48,276.32c1-.63,4.84-2.6,6.67-6.84l2.23,2.43c-.57,1.75-3.5,4.13-5.59,5.43S445.49,277,446.48,276.32Z" transform="translate(-10.02 -4.52)"/><path class="cls-44" d="M398.66,177.05c-5.26-29-15.72-41-27.79-41.25S349.7,147.13,355,176.07s19.3,52.63,31.37,52.9S403.92,206,398.66,177.05Z" transform="translate(-10.02 -4.52)"/><path class="cls-29" d="M356.71,207.3c3.92-19.28,11.23-33.43,9.11-35-1-.73-6.11,1.42-10.11,8.73-4.35,7.95-7.64,21.33-9,26.07C344,216.23,354.87,216.37,356.71,207.3Z" transform="translate(-10.02 -4.52)"/><path class="cls-45" d="M366.43,173c-.49-.37-11.78,16-14.56,28.85-1,4.75-2.85,8.63-5.59,8.23.19,6,8.88,5.18,10.56-2.55C361,188.62,368.55,174.62,366.43,173Z" transform="translate(-10.02 -4.52)"/><path class="cls-36" d="M355.58,207.89c-.79-3.38-3.81-5.62-6.75-5s-4.68,3.87-3.89,7.25,3.81,5.62,6.75,5S356.38,211.27,355.58,207.89Z" transform="translate(-10.02 -4.52)"/><path class="cls-46" d="M345.29,188.56a3.67,3.67,0,1,1-.49-7.21c.17,0,.33,0,.49,0v-2.12l-.49,0c-3.54,0-6.41,2.56-6.41,5.73s2.87,5.73,6.41,5.73l.49,0Z" transform="translate(-10.02 -4.52)"/><path class="cls-40" d="M383.16,248.79c-.25-4.38-7.28-27-7.28-27s-15.77-10.16-27.66,24.92,1.21,73.16,23,124.17h1.21C371.75,358.41,383.4,253.18,383.16,248.79Z" transform="translate(-10.02 -4.52)"/><path class="cls-47" d="M383.16,248.79c-.25-4.38-7.28-27-7.28-27s-15.69-10.1-27.57,24.66c27.9,17.27,24,100.76,24,124.43h.14C371.75,358.41,383.4,253.18,383.16,248.79Z" transform="translate(-10.02 -4.52)"/><path class="cls-29" d="M349.52,240.71c13.42,4.93,33.8,5.85,33.8,5.85-7-30.46-7.26-48.77-6.79-54.47.51-6.38-6.76-6.36-11.16.16C359.54,200.86,349.52,240.71,349.52,240.71Z" transform="translate(-10.02 -4.52)"/><path class="cls-45" d="M363.51,212.32c5.42.37,10.37,19.16,8.17,33.19,6.65.82,11.64,1.05,11.64,1.05-7-30.46-7.26-48.77-6.79-54.47.51-6.38-6.76-6.36-11.16.16-2.62,3.87-6.08,14-9.1,24.05C358.75,213.65,361.27,212.17,363.51,212.32Z" transform="translate(-10.02 -4.52)"/><path class="cls-29" d="M353.19,205.53c.72,1.4,20.33,2.34,21.36.66s4.57-31.56,3.92-32.89-12.75-2.52-14.63-.35S351.65,202.53,353.19,205.53Z" transform="translate(-10.02 -4.52)"/><path class="cls-45" d="M378.47,173.3c-.2-.41-9,29.51-9.83,30.94-.68,1.14-10.6,1.14-17.13.59a1.78,1.78,0,0,0,.14.82c.72,1.41,22,3.42,23,1.75S379.12,174.63,378.47,173.3Z" transform="translate(-10.02 -4.52)"/><path class="cls-29" d="M371.2,209.86c4.43-20,4.2-36.44,6.46-37,1.09-.28,4.25,3.89,4.54,12.49.33,9.37-2.3,23.44-3.06,28.53C377.69,223.62,369.12,219.24,371.2,209.86Z" transform="translate(-10.02 -4.52)"/><path class="cls-45" d="M382.2,185.34a26.58,26.58,0,0,0-1.64-8.81c.26,2.69.4,5.58.4,8.6,0,14-3.09,25.41-6.9,25.41-.92,0-1.8-.67-2.6-1.87-.09.39-.17.79-.26,1.19-2.08,9.38,6.49,13.76,7.94,4C379.9,208.78,382.53,194.71,382.2,185.34Z" transform="translate(-10.02 -4.52)"/><path class="cls-2" d="M353.9,208c-1.29-7.08-7.17-21.42-7.6-21.85l-1.25.22c-.37,11.48-.43,19.12,1.11,23.38C347.8,214.35,355,214.25,353.9,208Z" transform="translate(-10.02 -4.52)"/><path class="cls-17" d="M353.9,208a97.6,97.6,0,0,0-4.41-14.19c0,.13,0,.26,0,.39,0,6.07-1.82,11.08-4.18,12a17.83,17.83,0,0,0,.84,3.58C347.8,214.35,355,214.25,353.9,208Z" transform="translate(-10.02 -4.52)"/><path class="cls-46" d="M355.26,177.2H342.34v14a2.3,2.3,0,0,0,2.36,2.24h8.15a2.3,2.3,0,0,0,2.36-2.23Z" transform="translate(-10.02 -4.52)"/><path class="cls-38" d="M352.42,177.91H342.9v10.33a1.7,1.7,0,0,0,1.73,1.66h6a1.7,1.7,0,0,0,1.73-1.65Z" transform="translate(-10.02 -4.52)"/><path class="cls-36" d="M380.08,211.42c-1.84-4.13-6.1-6.36-9.52-5s-4.68,5.85-2.84,10,6.11,6.36,9.52,5S381.92,215.55,380.08,211.42Z" transform="translate(-10.02 -4.52)"/><path class="cls-2" d="M377,210.05c-6-6.11-21.62-25.5-22.25-25.85l-1.35.3c5.56,15.09,14.52,30.34,18.5,34.66C375,222.45,381.7,214.79,377,210.05Z" transform="translate(-10.02 -4.52)"/><path class="cls-17" d="M377,210.05c-1.19-1.21-2.75-2.94-4.5-4.94a2.22,2.22,0,0,1-.75,1.57c-1.71,1.35-5.86-.56-10.45-4.45,4.12,8,8.24,14.37,10.6,16.93C375,222.45,381.7,214.79,377,210.05Z" transform="translate(-10.02 -4.52)"/><path class="cls-36" d="M377.82,172.85c-2.21-.93-9.27-1.57-12.54-.65a2.79,2.79,0,0,0-.46.05l-.6,6.75,14-6A.88.88,0,0,0,377.82,172.85Z" transform="translate(-10.02 -4.52)"/><polygon class="cls-16" points="356.44 153.67 356.4 171.11 364.79 167.68 363.51 151.91 356.44 153.67"/><path class="cls-2" d="M359.8,148.72c1.3-4.78,9.43-5.05,12.75-.51,4.14,5.66,1.49,13.12,1,14.24-2,4.86-8.77,8-8.77,8S356.08,162.43,359.8,148.72Z" transform="translate(-10.02 -4.52)"/><path class="cls-44" d="M364,141.61c-1.06,9.39,10.57,17.51,10.57,17.51s6.5-7.36,2-12.69C371.53,140.43,364,141.61,364,141.61Z" transform="translate(-10.02 -4.52)"/><path class="cls-47" d="M356.92,266.65c-1.07,20.56,3.15,65.05,14.35,104.23h1.21C365.15,338.5,358.07,290.67,356.92,266.65Z" transform="translate(-10.02 -4.52)"/><path class="cls-38" d="M373.32,374h-9.5s5.8-4.34,7-3.9S373.32,374,373.32,374Z" transform="translate(-10.02 -4.52)"/><path class="cls-38" d="M370.86,374H380s-7.12-4.71-8.14-4.24S370.86,374,370.86,374Z" transform="translate(-10.02 -4.52)"/><path class="cls-22" d="M366.53,156.79c0-.76.23-1.38.59-1.4s.69.59.73,1.34-.23,1.38-.6,1.4S366.56,157.54,366.53,156.79Z" transform="translate(-10.02 -4.52)"/><path class="cls-22" d="M359.68,157.06c0-.75.23-1.38.59-1.39s.69.58.73,1.34-.23,1.37-.6,1.39S359.71,157.81,359.68,157.06Z" transform="translate(-10.02 -4.52)"/><path class="cls-44" d="M365.4,152.86l3,.4a.69.69,0,0,1,.62.67l-.05.63a.57.57,0,0,1-.69.49l-3-.39a.68.68,0,0,1-.62-.67l0-.64A.58.58,0,0,1,365.4,152.86Z" transform="translate(-10.02 -4.52)"/><path class="cls-44" d="M358.55,154.11l2-.84a.47.47,0,0,1,.62.36l.18.61a.62.62,0,0,1-.29.74l-2,.84a.48.48,0,0,1-.62-.37l-.18-.6A.59.59,0,0,1,358.55,154.11Z" transform="translate(-10.02 -4.52)"/><path class="cls-48" d="M358.55,156.35l3.93-.18.15,3.18a1.57,1.57,0,0,1-1.6,1.52l-.58,0a1.58,1.58,0,0,1-1.75-1.37Z" transform="translate(-10.02 -4.52)"/><path class="cls-48" d="M363.61,156.31l4.68-.2.15,3.2A1.46,1.46,0,0,1,367,160.8l-1.63.07a1.48,1.48,0,0,1-1.59-1.36Z" transform="translate(-10.02 -4.52)"/><polygon class="cls-48" points="366.85 151.03 367.15 151.81 348.63 152.61 348.59 151.81 366.85 151.03"/><path class="cls-2" d="M359,157l2.84-.13.11,2.3a1.13,1.13,0,0,1-1.16,1.1l-.42,0a1.14,1.14,0,0,1-1.26-1Z" transform="translate(-10.02 -4.52)"/><path class="cls-2" d="M364.37,156.78l3.22-.15.11,2.3c0,.58-.56,1.07-1.32,1.11l-.47,0a1.26,1.26,0,0,1-1.43-1Z" transform="translate(-10.02 -4.52)"/><path class="cls-22" d="M366.88,158.12c-.37,0-.69-.58-.73-1.34,0,0,0-.07,0-.11l1.29-.06a.5.5,0,0,1,0,.12C367.51,157.48,367.24,158.11,366.88,158.12Z" transform="translate(-10.02 -4.52)"/><path class="cls-22" d="M360,158.39c-.37,0-.69-.58-.73-1.34,0,0,0-.05,0-.08l1.3-.06s0,.06,0,.09C360.66,157.76,360.39,158.38,360,158.39Z" transform="translate(-10.02 -4.52)"/><path class="cls-16" d="M363.16,157.83s.09.14.2.36c-.61,1-1.31,2.79.52,2.59a.89.89,0,0,1,0,.14C360.72,161.7,362.65,158.47,363.16,157.83Z" transform="translate(-10.02 -4.52)"/><path class="cls-49" d="M361.84,163.16c0,.13,0,.26.07.39a2.71,2.71,0,0,0,3.17,2,2.46,2.46,0,0,0,1.8-2.81Z" transform="translate(-10.02 -4.52)"/><path class="cls-50" d="M362.27,163.33c0,.1,0,.2,0,.3a2.22,2.22,0,0,0,2.71,1.45,2,2,0,0,0,1.6-2.18Z" transform="translate(-10.02 -4.52)"/><path class="cls-2" d="M377.12,159.52c1-1.93.92-3.89-.2-4.38s-2.85.66-3.86,2.58-.92,3.89.2,4.38S376.11,161.44,377.12,159.52Z" transform="translate(-10.02 -4.52)"/><path class="cls-16" d="M376.3,159.29c.61-1.17.55-2.35-.12-2.65s-1.72.4-2.33,1.56-.56,2.35.12,2.65S375.69,160.45,376.3,159.29Z" transform="translate(-10.02 -4.52)"/><path class="cls-2" d="M375.26,159.08c.43-.84.38-1.7-.11-1.92s-1.24.29-1.67,1.14-.38,1.7.11,1.91S374.83,159.92,375.26,159.08Z" transform="translate(-10.02 -4.52)"/><path class="cls-2" d="M350.55,181.07c-1.23.5-.48,4.35.09,5.14s2.41-.25,4.13,1.8l1.76-1.75C354.64,182.49,351.78,180.57,350.55,181.07Z" transform="translate(-10.02 -4.52)"/><path class="cls-2" d="M356.92,186.63c-1.71-3.51-.39-8.74-.88-8.74-.83,0-2,2.35-1.53,6S356.92,186.63,356.92,186.63Z" transform="translate(-10.02 -4.52)"/><path class="cls-2" d="M350.77,182.16c-3.87-1.67-5.71-3.68-5.54-4.22s6.42,2.5,7.91,4.34S350.77,182.16,350.77,182.16Z" transform="translate(-10.02 -4.52)"/><path class="cls-2" d="M350.29,184.33c-4-1.36-5.79-2.92-5.66-3.47s6.61,2,8.26,3.72S350.29,184.33,350.29,184.33Z" transform="translate(-10.02 -4.52)"/><path class="cls-2" d="M352,186.6c-4.22-.47-6.33-1.6-6.33-2.17s6.91.53,8.93,1.85S352,186.6,352,186.6Z" transform="translate(-10.02 -4.52)"/><path class="cls-48" d="M347.56,174.84c-.16-7,9.28-5.89,6.84-10.21s-16.32,1.1-15.26-3.25c1.13-4.65,12.72-2.86,14.93-4.71,1.89-1.59,2-6-2.66-7.19-11.21-2.88-6.84-10.76-6.84-10.76-11.27,11.41,4.16,12.39,5,13.65,3,4.41-12.1.76-11.79,9.6.19,5.1,11.57,1.78,13.08,3.94C352.24,167.85,345.51,168.62,347.56,174.84Z" transform="translate(-10.02 -4.52)"/><text class="cls-51" transform="translate(51.09 115.9)">Initial <tspan class="cls-52" x="83.17" y="0">F</tspan><tspan x="97.63" y="0">arm Offerings</tspan></text><polygon class="cls-53" points="28.97 224.81 15.48 224.56 12.61 371.71 26.09 371.96 26.38 357.47 67.29 354.49 28.97 224.81"/><polygon class="cls-54" points="24.7 223.22 16.97 223.08 43.09 372.27 50.83 372.41 24.7 223.22"/><polygon class="cls-55" points="120.42 233.84 21.47 222.7 47.5 372.32 62.56 372.59 62.25 369.76 132.8 371.74 133.67 373.89 143.46 374.06 120.42 233.84"/><polygon class="cls-56" points="21.47 222.7 47.5 372.32 62.56 372.59 62.25 369.76 132.8 371.74 133.67 373.89 143.46 374.06 93.77 261.42 21.47 222.7"/><polygon class="cls-57" points="110.86 241.77 33.18 232.35 57.55 362.74 132.99 363.61 110.86 241.77"/><polygon class="cls-58" points="110.3 242.51 35.33 233.21 59.42 360.41 131.85 361.72 110.3 242.51"/><polygon class="cls-59" points="110.86 241.77 33.9 232.25 132.99 363.61 110.86 241.77"/><polygon class="cls-60" points="54.36 271.88 110.9 275.88 111.22 277.98 54.87 273.46 54.36 271.88"/><path class="cls-53" d="M30.71,235.25c0-2.12-1-3.86-2.35-3.89s-2.45,1.68-2.49,3.8,1,3.87,2.34,3.89S30.67,237.38,30.71,235.25Z" transform="translate(-10.02 -4.52)"/><text class="cls-61" transform="matrix(1, 0.03, -0.03, 1, 55.87, 261.59)">IFO</text><path class="cls-62" d="M125.91,311.62a2,2,0,0,1,.59,2.35,145.46,145.46,0,0,1-28.75,40.44l-1,1a1.84,1.84,0,0,1-2.51.21l-5.54-4a7.49,7.49,0,0,0-1.93-10.47,7.64,7.64,0,0,0-10.4,1.71l-5.07-3.64a2,2,0,0,1-.28-2.9l1-1a142.16,142.16,0,0,0,28.09-39.52,1.8,1.8,0,0,1,2.42-.8.46.46,0,0,1,.31.05l5.19,3.72a7.53,7.53,0,0,0,12.23,8.78l5.65,4.05Z" transform="translate(-10.02 -4.52)"/><path class="cls-63" d="M128.32,312.65,114.82,337,95.48,357.33l-5-3.56-1.8-1.64,1.13-2.42.14-2.26-.69-2.33-1.25-2-1.78-1.54-2-.9-1.9-.4-2.38.39-2.33,1.3-1.27,1.53-4.27-3.67,5.6-1.84a107.58,107.58,0,0,0,45.6-29l5,3.66Z" transform="translate(-10.02 -4.52)"/><path class="cls-64" d="M127.45,309.85l-5.54-4a2.39,2.39,0,0,0-3.37.56,5.19,5.19,0,0,1-8.42-6.05,2.47,2.47,0,0,0-.55-3.36l-5.19-3.73a2.87,2.87,0,0,0-.68-.4,4.21,4.21,0,0,0-5.68,2,141.09,141.09,0,0,1-27.6,38.82,4,4,0,0,1-.81.65c-.26.24-.43.47-.69.72a4.3,4.3,0,0,0,1,6l5.31,3.81a2.49,2.49,0,0,0,3.37-.55,5.18,5.18,0,0,1,8.42,6,2.8,2.8,0,0,0-.42,1.8,2.7,2.7,0,0,0,1.09,1.65L93,357.64a4.4,4.4,0,0,0,5.62-.42l1-1a150.4,150.4,0,0,0,29.26-41.14A4.16,4.16,0,0,0,127.45,309.85Zm-1.08,3.94a145.7,145.7,0,0,1-28.76,40.44l-1,1a1.85,1.85,0,0,1-2.5.21l-5.31-3.81a7.52,7.52,0,1,0-12.23-8.77L71.3,339a1.84,1.84,0,0,1-.27-2.9c.26-.25.61-.61.88-.86a125.29,125.29,0,0,0,15.88-18.48,136.7,136.7,0,0,0,12.31-21.06c.1,0,.08-.11.16-.23a1.89,1.89,0,0,1,2.58-.42L108,298.7l-.08.11a7.53,7.53,0,0,0,12.23,8.77l.08-.11,5.54,4A2,2,0,0,1,126.37,313.79Z" transform="translate(-10.02 -4.52)"/><path id="A" class="cls-64" d="M95.29,304.86l1.27.91a1.21,1.21,0,1,1-1.41,2l-1.27-.91a1.21,1.21,0,0,1,1.41-2Z" transform="translate(-10.02 -4.52)"/><path class="cls-64" d="M100.37,308.5l1.27.91a1.21,1.21,0,0,1-1.41,2L99,310.46a1.21,1.21,0,1,1,1.41-2Z" transform="translate(-10.02 -4.52)"/><path id="B" class="cls-64" d="M107,314.64a1.15,1.15,0,0,1-1.68.27h0l-1.5-1.07a1.21,1.21,0,1,1,1.41-2l1.5,1.07a1.38,1.38,0,0,1,.27,1.69Z" transform="translate(-10.02 -4.52)"/><path class="cls-64" d="M112.05,318.28a1.15,1.15,0,0,1-1.68.28h0l-1.39-1a1.15,1.15,0,0,1-.28-1.68,1.16,1.16,0,0,1,1.69-.28l1.5,1.08a1.13,1.13,0,0,1,.16,1.6Z" transform="translate(-10.02 -4.52)"/><path class="cls-64" d="M115.46,319.24l1.27.91a1.21,1.21,0,0,1-1.4,2l-1.27-.91a1.16,1.16,0,0,1-.28-1.69,1.36,1.36,0,0,1,1.68-.28Z" transform="translate(-10.02 -4.52)"/><path class="cls-64" d="M120.54,322.89l1.27.91a1.15,1.15,0,0,1,.28,1.68,1.16,1.16,0,0,1-1.69.28l-1.27-.91a1.16,1.16,0,0,1-.27-1.69A1.24,1.24,0,0,1,120.54,322.89Z" transform="translate(-10.02 -4.52)"/><path class="cls-65" d="M100.35,331.29l-6.62,11.07c-3-2.26-4-4.22-4.38-8Zm-7.81,3.83c.73-1.13-1-1.76-1.69-.33S91.83,336.36,92.54,335.12Zm1.79,4.08-.7.12.05.91.58-.2ZM92.85,337c-1,1.89,1.68,2.16,2.16.76C95.42,336,93.68,335.24,92.85,337Zm2.1-2.08-.22-.68-.89.15.3.56Zm-2.88,2.31-.1-.6-.69.11.28.47Zm5.44-2.83c.46-1.5-.36-2.18-1.31-.5C95.56,334.93,97.14,335.89,97.51,334.41Z" transform="translate(-10.02 -4.52)"/><path class="cls-65" d="M92.77,321l.69,1.72,1.07-.89a3.68,3.68,0,0,1-1.32-1.2Z" transform="translate(-10.02 -4.52)"/><path class="cls-65" d="M94,319.51a4,4,0,0,1,2-.84l-.63,1.74a2.92,2.92,0,0,1,1.4-.74l.64.81A4.61,4.61,0,0,0,95,321.59l.45-2.21a9.08,9.08,0,0,0-.82,1.16Z" transform="translate(-10.02 -4.52)"/><path class="cls-65" d="M97.39,318.25a3.79,3.79,0,0,1,2,.09l-1.11,1.3a3.33,3.33,0,0,1,1.52-.05l.36,1a3.77,3.77,0,0,0-2.46-.11l1-1.79s-1,.57-1.12.59Z" transform="translate(-10.02 -4.52)"/><path class="cls-65" d="M102,320c-.33.46-2.13.66-1.14-.73C101.3,318.52,102.39,319.56,102,320Zm-.77-.38c-.33.46.28.46.34.25S101.42,319.21,101.19,319.66Z" transform="translate(-10.02 -4.52)"/><path class="cls-65" d="M102.36,320.59a.86.86,0,0,1-.18-1.09,1.1,1.1,0,0,0-1.06-1.46v.61s1.52,0,.79,1.09a.76.76,0,0,0,0,.91Z" transform="translate(-10.02 -4.52)"/><path class="cls-65" d="M92.74,324l-.89,2-3.31-4c1.72-2.52,3.47-1.79,3.6-1,.29,1.18-1.06,2.21-1.06,2.21Zm-2.12-1.18s1.27-2.75-.93-.66Z" transform="translate(-10.02 -4.52)"/><path class="cls-65" d="M92.4,320.09c.14-.43.7-.12.56.31S92.35,320.4,92.4,320.09Z" transform="translate(-10.02 -4.52)"/><path class="cls-65" d="M110.48,329.12a8.38,8.38,0,0,0-3.71-5.8l-4.17,5.57,3.94-5.74a11.63,11.63,0,0,0-6.18-1.73l2,7.5-2.24-7.46a9.12,9.12,0,0,0-3.6,1,6.13,6.13,0,0,0-2,1.64l7.45,5.09-7.61-4.86a11.1,11.1,0,0,0-1.36,7.86l9-2.39-4.36,8.75a7.33,7.33,0,0,0,6.42.67L102.48,330l1.9,9.05a8.66,8.66,0,0,0,5.56-6.41l-7.22-3.09,7.27,2.77A16.35,16.35,0,0,0,110.48,329.12Z" transform="translate(-10.02 -4.52)"/><path class="cls-66" d="M106.52,335.37a1,1,0,0,0-1.07-.95,1,1,0,0,0-.72,1.24,1,1,0,0,0,1.07.94C106.4,336.51,106.61,336,106.52,335.37Z" transform="translate(-10.02 -4.52)"/><path class="cls-66" d="M105,331.55c-.28-.46-.7-.59-1-.45a.9.9,0,0,0,.08,1.11c.28.46.71.6,1,.45S105.25,332,105,331.55Z" transform="translate(-10.02 -4.52)"/><path class="cls-66" d="M108.5,333.21c-.39-.55-.82-.68-1.1-.53s-.27.86,0,1.42.82.68,1.1.53A1.19,1.19,0,0,0,108.5,333.21Z" transform="translate(-10.02 -4.52)"/><path class="cls-66" d="M101.44,337.93c-.69-1.72,1.07-2.21,1.24-1.12S102.12,339.55,101.44,337.93Z" transform="translate(-10.02 -4.52)"/><path class="cls-66" d="M100.89,333.34c-.82.54-.48,2,.31,1.27S101.9,332.67,100.89,333.34Z" transform="translate(-10.02 -4.52)"/><path class="cls-66" d="M105.45,327c.35-1.59,1.91-.73,1.38.38S105.1,328.58,105.45,327Z" transform="translate(-10.02 -4.52)"/><path class="cls-66" d="M103.66,328.51c.25-1,1.06-.38.84.17S103.41,329.47,103.66,328.51Z" transform="translate(-10.02 -4.52)"/><path class="cls-66" d="M102.66,326.13c.25-.95,1.06-.37.84.17S102.51,327.07,102.66,326.13Z" transform="translate(-10.02 -4.52)"/><path class="cls-66" d="M101.79,323.33c-.49-1.14.66-1.54.92-.56S102.28,324.47,101.79,323.33Z" transform="translate(-10.02 -4.52)"/><path class="cls-66" d="M104.45,323.4c.49-.7,1.13.11.61.61S104,324.09,104.45,323.4Z" transform="translate(-10.02 -4.52)"/><path class="cls-66" d="M98.7,322.51a.84.84,0,1,1,.66,1.52C98.17,324.23,97.28,323.15,98.7,322.51Z" transform="translate(-10.02 -4.52)"/><path class="cls-66" d="M100.38,325.9c.86.26.51,1.24-.15.94S99.42,325.65,100.38,325.9Z" transform="translate(-10.02 -4.52)"/><path class="cls-66" d="M99.25,328.32c.86.27.51,1.24-.15.94S98.3,328.07,99.25,328.32Z" transform="translate(-10.02 -4.52)"/><path class="cls-66" d="M94.59,326.54c.61-1.22,1.71-.07,1.13.73S94,327.77,94.59,326.54Z" transform="translate(-10.02 -4.52)"/><path class="cls-66" d="M95.16,329.4c1.29-.21,1.25,1.42.32,1.37S93.87,329.61,95.16,329.4Z" transform="translate(-10.02 -4.52)"/><path class="cls-66" d="M107.85,329.25c-.23-1.39,1.22-1.22,1.49-.25S108.21,331.43,107.85,329.25Z" transform="translate(-10.02 -4.52)"/><rect class="cls-66" x="105.82" y="329.54" width="0.5" height="0.6" transform="translate(-62.15 17.06) rotate(-9.34)"/><rect class="cls-66" x="93.57" y="328.81" width="0.5" height="0.4" transform="translate(-62.18 15.07) rotate(-9.34)"/><rect class="cls-66" x="105.96" y="332.88" width="0.5" height="0.6" transform="translate(-62.69 17.13) rotate(-9.34)"/><polygon class="cls-66" points="97.39 330.7 97.16 331.14 97.52 331.49 97.77 331.14 97.39 330.7"/><polygon class="cls-66" points="94.24 328.87 94.01 329.32 94.47 329.65 94.7 329.2 94.24 328.87"/><polygon class="cls-66" points="87.8 324.95 87.45 325.31 87.93 325.74 88.16 325.3 87.8 324.95"/><polygon class="cls-66" points="86.19 318.9 85.94 319.25 86.32 319.7 86.65 319.24 86.19 318.9"/><polygon class="cls-66" points="86.58 323.11 86.51 323.33 86.74 323.49 86.81 323.28 86.58 323.11"/><polygon class="cls-66" points="88.32 320.08 88.15 320.31 88.38 320.48 88.55 320.25 88.32 320.08"/><polygon class="cls-66" points="92.44 322.86 92.37 323.08 92.6 323.24 92.67 323.03 92.44 322.86"/><polygon class="cls-66" points="92.38 320.02 92.21 320.25 92.44 320.42 92.51 320.2 92.38 320.02"/><polygon class="cls-66" points="93.54 318.41 93.37 318.64 93.6 318.8 93.67 318.59 93.54 318.41"/><polygon class="cls-66" points="97.92 322.16 97.75 322.39 97.98 322.56 98.05 322.35 97.92 322.16"/><polygon class="cls-66" points="90.11 332.2 89.78 332.66 90.24 332.99 90.49 332.65 90.11 332.2"/></svg>