<svg xmlns="http://www.w3.org/2000/svg" xmlns:xlink="http://www.w3.org/1999/xlink" id="Layer_1" x="0" y="0" baseProfile="basic" version="1.1" viewBox="0 0 720 128" xml:space="preserve"><g><path fill="#EAB408" d="M181.1,85.9h-14l-14.3-21.3c-0.3-0.4-0.7-1.3-1.3-2.7h-0.2v24h-11.1V36.8h11.1V60h0.2 c0.3-0.6,0.7-1.6,1.4-2.7l13.6-20.5h13.2l-17.1,23.4L181.1,85.9z"/><path fill="#EAB408" d="M216.3,71.4h-22.9c0.4,5.1,3.6,7.6,9.6,7.6c3.9,0,7.2-0.9,10.2-2.7v7.8c-3.2,1.7-7.4,2.6-12.6,2.6 c-5.7,0-10-1.6-13.2-4.7c-3.1-3.1-4.7-7.5-4.7-13.1c0-5.8,1.7-10.4,5.1-13.8c3.4-3.4,7.5-5.1,12.5-5.1c5.1,0,9.1,1.5,11.9,4.6 c2.8,3,4.2,7.2,4.2,12.4v4.4C216.4,71.4,216.3,71.4,216.3,71.4z M206.2,64.8c0-5-2-7.5-6.1-7.5c-1.7,0-3.2,0.7-4.5,2.2 s-2,3.2-2.3,5.4L206.2,64.8L206.2,64.8z"/><path fill="#EAB408" d="M254.2,71.4h-22.9c0.4,5.1,3.6,7.6,9.6,7.6c3.9,0,7.2-0.9,10.2-2.7v7.8c-3.2,1.7-7.4,2.6-12.6,2.6 c-5.7,0-10-1.6-13.2-4.7c-3.1-3.1-4.7-7.5-4.7-13.1c0-5.8,1.7-10.4,5.1-13.8c3.4-3.4,7.5-5.1,12.5-5.1c5.1,0,9.1,1.5,11.9,4.6 c2.8,3,4.2,7.2,4.2,12.4v4.4C254.3,71.4,254.2,71.4,254.2,71.4z M244.1,64.8c0-5-2-7.5-6.1-7.5c-1.7,0-3.2,0.7-4.5,2.2 c-1.3,1.4-2,3.2-2.3,5.4L244.1,64.8L244.1,64.8z"/><path fill="#EAB408" d="M271.6,81.8h-0.1V102h-10.8V50.8h10.8v5.3h0.1c2.7-4.1,6.4-6.1,11.3-6.1c4.5,0,8,1.6,10.5,4.7 c2.5,3.1,3.7,7.4,3.7,12.7c0,5.8-1.4,10.5-4.3,14.1c-2.9,3.5-6.7,5.3-11.5,5.3C277,86.7,273.8,85.1,271.6,81.8z M271.2,67.4v2.8 c0,2.4,0.6,4.4,1.9,5.9s3,2.3,5,2.3c2.5,0,4.4-1,5.7-2.9c1.4-1.9,2-4.6,2-8.1c0-6.2-2.4-9.2-7.2-9.2c-2.2,0-4,0.8-5.4,2.5 C271.9,62.5,271.2,64.7,271.2,67.4z"/><path fill="#EAB408" d="M303.5,84.3v-9.4c3.3,2.4,7.1,3.6,11.5,3.6c2.8,0,4.9-0.6,6.5-1.8c1.5-1.2,2.3-2.8,2.3-5s-1-3.9-2.9-5.1 s-4.5-1.8-7.9-1.8h-4.6v-8.3h4.2c6.4,0,9.6-2.1,9.6-6.4c0-4-2.5-6-7.4-6c-3.3,0-6.5,1.1-9.6,3.2v-8.8c3.4-1.7,7.5-2.6,12-2.6 c5,0,8.9,1.1,11.7,3.4s4.2,5.2,4.2,8.8c0,6.4-3.3,10.4-9.8,12v0.2c3.5,0.4,6.2,1.7,8.2,3.8s3,4.6,3,7.7c0,4.6-1.7,8.2-5,10.9 s-8,4-13.9,4C310.8,86.7,306.7,85.9,303.5,84.3z"/><path fill="#EAB408" d="M367.2,60.6c-1.3-0.7-2.8-1.1-4.6-1.1c-2.3,0-4.2,0.9-5.5,2.6c-1.3,1.7-2,4.1-2,7v16.7h-10.8v-35h10.8v6.5 h0.1c1.7-4.7,4.8-7.1,9.2-7.1c1.1,0,2,0.1,2.7,0.4L367.2,60.6L367.2,60.6z"/><path fill="#EAB408" d="M383.2,81.8h-0.1v4.1h-10.8V34h10.8v22.1h0.1c2.7-4.1,6.5-6.1,11.4-6.1c4.5,0,8,1.6,10.4,4.7 c2.4,3.1,3.7,7.3,3.7,12.7c0,5.8-1.4,10.5-4.3,14.1c-2.9,3.5-6.7,5.3-11.4,5.3C388.7,86.7,385.4,85.1,383.2,81.8z M382.9,67v3.6 c0,2.3,0.7,4.1,2,5.6s3,2.2,5,2.2c2.5,0,4.4-1,5.7-2.9c1.4-1.9,2-4.6,2-8.1c0-2.9-0.6-5.2-1.9-6.8c-1.2-1.6-3-2.4-5.3-2.4 c-2.2,0-4,0.8-5.4,2.4C383.6,62.3,382.9,64.4,382.9,67z"/><path fill="#EAB408" d="M420.6,86.7c-1.8,0-3.3-0.5-4.4-1.6c-1.2-1.1-1.8-2.4-1.8-4s0.6-3,1.8-4c1.2-1,2.7-1.6,4.6-1.6 c1.8,0,3.4,0.5,4.5,1.6c1.2,1.1,1.8,2.4,1.8,4c0,1.7-0.6,3-1.8,4.1C424,86.2,422.5,86.7,420.6,86.7z"/><path fill="#EAB408" d="M479.9,85.9h-11.2L448.6,55c-1.2-1.8-2-3.2-2.5-4.1H446c0.2,1.7,0.3,4.4,0.3,7.9v27h-10.4v-49h11.9 l19.5,29.9c0.9,1.3,1.7,2.7,2.5,4h0.1c-0.2-1.1-0.3-3.4-0.3-6.7V36.8H480v49.1C480,85.9,479.9,85.9,479.9,85.9z"/><path fill="#EAB408" d="M521.6,71.4h-22.9c0.4,5.1,3.6,7.6,9.6,7.6c3.9,0,7.2-0.9,10.2-2.7v7.8c-3.2,1.7-7.4,2.6-12.6,2.6 c-5.7,0-10-1.6-13.2-4.7c-3.1-3.1-4.7-7.5-4.7-13.1c0-5.8,1.7-10.4,5.1-13.8c3.4-3.4,7.5-5.1,12.5-5.1c5.1,0,9.1,1.5,11.9,4.6 c2.8,3,4.2,7.2,4.2,12.4v4.4C521.7,71.4,521.6,71.4,521.6,71.4z M511.6,64.8c0-5-2-7.5-6.1-7.5c-1.7,0-3.2,0.7-4.5,2.2 s-2,3.2-2.3,5.4L511.6,64.8L511.6,64.8z"/><path fill="#EAB408" d="M549.2,85.5c-1.6,0.8-4,1.3-7.2,1.3c-7.6,0-11.4-4-11.4-11.9V58.8h-5.7v-8h5.7v-7.6l10.8-3.1v10.6h7.9v8 h-7.9V73c0,3.7,1.4,5.5,4.3,5.5c1.1,0,2.3-0.3,3.5-1L549.2,85.5L549.2,85.5z"/><path fill="#EAB408" d="M606,50.8l-10.1,35h-11.4l-5.2-20.5c-0.3-1.4-0.5-2.9-0.6-4.5h-0.2c-0.2,1.8-0.4,3.2-0.7,4.3l-5.5,20.7 h-11.2l-9.9-35h11l4.8,22.9c0.2,1.1,0.4,2.4,0.5,3.9h0.2c0.1-1.6,0.3-2.9,0.6-4l6-22.7h10.3l5.4,22.9c0.1,0.6,0.3,1.9,0.5,4h0.2 c0.1-1.3,0.3-2.6,0.5-4l4.6-22.9H606V50.8z"/><path fill="#EAB408" d="M627.9,86.7c-5.8,0-10.4-1.6-13.8-4.9c-3.3-3.3-5-7.7-5-13.3c0-5.8,1.7-10.3,5.2-13.6s8.2-4.9,14.1-4.9 c5.8,0,10.4,1.6,13.7,4.9c3.3,3.3,5,7.6,5,13c0,5.8-1.7,10.4-5.1,13.8C638.5,85,633.8,86.7,627.9,86.7z M628.2,58.3 c-2.6,0-4.5,0.9-6,2.6c-1.4,1.8-2.1,4.2-2.1,7.5c0,6.7,2.7,10.1,8.1,10.1c5.2,0,7.8-3.5,7.8-10.4C636,61.5,633.4,58.3,628.2,58.3z"/><path fill="#EAB408" d="M676.9,60.6c-1.3-0.7-2.8-1.1-4.6-1.1c-2.3,0-4.2,0.9-5.5,2.6c-1.3,1.7-2,4.1-2,7v16.7H654v-35h10.8v6.5 h0.1c1.7-4.7,4.8-7.1,9.2-7.1c1.1,0,2,0.1,2.7,0.4v10C676.8,60.6,676.9,60.6,676.9,60.6z"/><path fill="#EAB408" d="M717,85.9h-13l-11.2-17.4h-0.1v17.4h-10.8V34h10.8v33h0.1l10.4-16.2H716l-12.6,16.5L717,85.9z"/></g><rect width="120" height="120" x="4" y="4" fill="#EAB408"/><g id="layer101_1_"><path fill="#FFF" d="M41.9,102.9c-1.2-0.2-2.7-0.8-3.8-1.6c-0.6-0.5-1.6-1.5-1.8-2c-0.1-0.1-0.3-0.5-0.4-0.9 c-0.7-1.4-0.6-0.6-0.6-17.8c0-15.4,0-15.6,0.2-16.2c0.4-1.2,0.9-2.1,1.9-3c0.5-0.5,1.1-1,1.4-1.2c1.2-0.7,2.6-1.1,3.7-1.1H43v-8.3 c0-8,0-8.4,0.3-9.5c1.5-7.9,7.4-13.9,15.7-15.8c1.8-0.4,2.7-0.5,5.1-0.5c2.4,0,3.3,0.1,5.5,0.7c3.7,0.9,7.4,3.1,10,5.8 c2.4,2.5,4.2,5.8,4.9,9.1c0.4,1.8,0.4,2.7,0.4,10.7v7.8h0.6c1.2,0,2.9,0.6,4.1,1.4c1.5,1,2.7,2.8,3,4.6c0.1,0.5,0.1,5.4,0.1,16.3 v15.7l-0.2,0.6c-0.5,1.2-1,2.1-1.8,2.9c-0.9,0.9-1.6,1.4-2.7,1.8c-1.6,0.6-0.4,0.6-24,0.6C52,103,42.1,103,41.9,102.9z M85.9,98 c0.7-0.3,1-0.5,1.4-1.2l0.3-0.5V81V65.7l-0.2-0.5c-0.3-0.5-0.9-1.1-1.5-1.2c-0.3-0.1-7.4-0.1-22-0.1H42.3l-0.5,0.3 c-0.6,0.3-1,0.8-1.2,1.4c-0.1,0.3-0.1,4.3-0.1,15.6c0,14.6,0,15.3,0.2,15.7c0.1,0.2,0.4,0.6,0.6,0.8c0.9,0.7-1,0.7,22.8,0.7 C85.3,98.2,85.4,98.2,85.9,98z M79.7,51.1c0-5.3,0-8.3-0.1-8.7c-0.3-2.1-1.1-4.2-2.4-6c-0.7-1.1-2.9-3.2-3.9-3.9 c-3.3-2.2-7.3-3.2-11.1-2.7c-3.9,0.4-7.1,1.9-9.7,4.6c-2,2-3.3,4.2-4,7.1c-0.2,0.9-0.2,1.1-0.3,9.3v8.4H64h15.7V51.1L79.7,51.1z"/><path fill="#FFF" d="M69.3,83.4c0,2.9-2.4,5.3-5.3,5.3s-5.3-2.4-5.3-5.3c0-2,1.1-3.8,2.8-4.7v-2.3c0-3.4,0-3.6,0.7-4.3 c1-1,2.6-1,3.6,0c0.7,0.7,0.7,0.8,0.7,4.2v2.4C68.2,79.6,69.3,81.4,69.3,83.4z"/></g></svg>