<svg xmlns="http://www.w3.org/2000/svg" xmlns:v="https://vecta.io/nano" xmlns:xlink="http://www.w3.org/1999/xlink" id="Layer_1" x="0" y="0" baseProfile="basic" opacity=".1" version="1.1" viewBox="0 0 193 230" xml:space="preserve"><g id="layer102"><path fill="#FFC31A" d="M146.7,89.2c-9.7,0.5-21,0.1-31.5-1.1c-32.7-3.9-56.4-14.9-62.6-29.3c-0.5-1.2-0.9-1.7-1-1.3 c-0.2,0.7-2.1,16.6-2.7,22.8c-0.6,5.9-0.6,19.2,0,23.5c1.6,12.4,5.5,21,13,28.6c12.8,13,35.2,20.8,65.5,22.8 c9.5,0.6,32.6,0.3,36.1-0.5l0.8-0.2v-37.2c1.3-9.8,2.6-19.7,3.8-29.5C164.8,88,153.4,88.8,146.7,89.2z"/><path fill="#FFD538" d="M228,71c-0.4-3.9-1.4-10.3-1.6-10.5c0-0.1-17.1-0.1-37.9,0l-37.8,0.1L160,74c5.1,7.4,9.1,13.5,8.9,13.6 c-1.3,9.9-2.6,19.8-3.9,29.6h29.9c24.2,0,30.7-0.1,30.8-0.4c0.3-0.9,1.5-10.9,2.2-17.1C228.6,92.1,228.7,77,228,71z M188,108.1 c-0.8,0.4-2,0.7-2.8,0.7c-6.8,0-9.4-9.5-3.6-13.2c2.4-1.5,5.4-1.2,7.8,0.6c1.2,0.9,2.6,3.8,2.6,5.3C192,104.3,190.4,107,188,108.1z M205.5,87.6c-1.1,0.5-2.2,0.8-3.7,0.8c-8.3,0-12.1-10.4-6-16.1c4.2-3.9,11.2-2.6,13.9,2.8c0.6,1.1,0.8,2.1,0.8,4.2 C210.5,83.3,209,85.8,205.5,87.6z M215.6,104.8c-2.2,1.4-5.4,0.7-6.5-1.5c-0.7-1.4-0.7-4,0-5c1.7-2.6,5.9-2.5,7.7,0.1 C218.2,100.5,217.6,103.5,215.6,104.8z"/><path fill="#FCCD35" d="M126.1,83.4c-33.4-2-61.7-12.9-68.1-26.2c-1-2.1-1.2-2.8-1.2-5.1c0-2.2,0.2-3,1.2-5.1 c5.6-11.7,27.4-21.5,55.9-25.2c12.4-1.6,30.1-2,40.5-0.8c24.3,2.7,45.8,9.4,59,18.6c4,2.7,8.8,7.9,10.2,10.8 c0.6,1.3,1.2,2.7,1.3,3.2l0.2,0.8l-42.5,0.1l-42.5,0.1l9.6,14c5.3,7.7,9.5,14,9.4,14.1C158.5,83.3,133.7,83.8,126.1,83.4z M138.1,74.7c2.7-1.1,2.6-2.9-0.2-4c-3.7-1.5-10-0.3-10,1.8c0,1,0.9,2,2.3,2.4C132,75.5,136.5,75.3,138.1,74.7z M94.5,65.8 c1.1-0.4,2.6-1.3,3.3-2c1.7-1.7,1.6-3.1-0.1-4.9C94,55,83.2,54.9,79.4,58.7c-2.9,2.9-0.3,6.6,5.5,7.9 C87.4,67.1,92.2,66.7,94.5,65.8z M145,44c1.8-0.9,1.8-2.2,0.1-3.2c-1.8-1.1-7.8-1.3-9.5-0.3c-1.7,0.9-2.1,1.7-1.3,2.7 C136,45,142.1,45.5,145,44z M174,44c2.6-0.9,4.2-2.5,4.2-4.3c0-1.6-1.1-2.8-3.5-4c-2.3-1.1-7.6-1.3-10.5-0.4 c-2.5,0.7-4.7,2.8-4.7,4.4c0,1.4,2.2,3.5,4.4,4.3C166.4,44.8,171.7,44.8,174,44z M113.8,38.6c2-0.6,4.2-2.6,4.2-3.8 c0-0.5-0.5-1.3-1.2-2c-3.3-3.2-12.4-3.5-16.4-0.5c-1.2,0.9-1.4,1.3-1.4,2.3c0,2.2,2.9,4,7.2,4.7C107.9,39.6,111.9,39.2,113.8,38.6z"/></g></svg>