<svg xmlns="http://www.w3.org/2000/svg" xmlns:xlink="http://www.w3.org/1999/xlink" id="Layer_1" x="0" y="0" baseProfile="basic" version="1.1" viewBox="0 0 250 240" xml:space="preserve"><g><g><g><g><path fill="#FFF" d="M150.3,144.1v30.4c0,13.3-10.8,24.1-24.1,24.1H69.1c-13.3,0-24.1-10.8-24.1-24.1v-30.4 c0-8.5,4.4-15.9,11-20.2c3.8-2.4,8.3-3.9,13.1-3.9h57.1c4.9,0,9.4,1.5,13.2,4C146,128.3,150.3,135.8,150.3,144.1z"/></g><g><path fill="#371A45" d="M126.2,199.9H69.1c-14,0-25.4-11.4-25.4-25.4v-30.4c0-14,11.4-25.4,25.4-25.4h57.1 c14,0,25.4,11.4,25.4,25.4v30.4C151.6,188.5,140.2,199.9,126.2,199.9z M69.1,121.3c-12.6,0-22.8,10.2-22.8,22.8v30.4 c0,12.6,10.2,22.8,22.8,22.8h57.1c12.6,0,22.8-10.2,22.8-22.8v-30.4c0-12.6-10.2-22.8-22.8-22.8H69.1z"/></g><g opacity=".35"><path fill="#371A45" d="M139.4,124c-11.6,11.7-27.9,18.5-45.6,17.3c-14.9-1-28.1-7.5-37.8-17.4c3.8-2.4,8.3-3.9,13.1-3.9h57.1 C131.1,120,135.6,121.5,139.4,124z"/></g><g><path fill="#FFF" d="M149,188.4c0,0-14.8,11-51.4,11c-18.6,0-31.6-2.8-39.8-5.6c-8-2.7-11.6-5.3-11.6-5.3 s-0.4-38.9,13.3-52.2c1.2-1.2,2.5-2.4,3.8-3.4c2.9-2.4,5.7-4.4,8.5-6.1c13.9-8.3,25.9-8,25.9-8s10.9-0.2,24,7 c3.4,1.9,7,4.2,10.5,7.2c1.2,1,2.4,2.1,3.6,3.3c5,4.9,8.2,13.3,10.1,21.9C149.2,172.8,149,188.4,149,188.4z"/></g><g><path fill="#371A45" d="M97.6,200.6c-36.5,0-51.5-10.8-52.1-11.2c-0.3-0.2-0.5-0.6-0.5-1c0-1.6-0.3-39.6,13.6-53.2 c18.3-17.9,37.8-17.9,39-17.9c1.2,0,20.7-0.1,39,17.9c13.9,13.6,13.7,51.6,13.6,53.2c0,0.4-0.2,0.8-0.5,1 C149.2,189.8,134.2,200.6,97.6,200.6z M47.5,187.7c2.9,1.8,18.2,10.4,50.1,10.4c31.9,0,47.2-8.6,50.1-10.4 c0-5.2-0.7-38.7-12.9-50.7c-17.7-17.3-37-17.2-37.2-17.1c0,0,0,0-0.1,0c-0.2,0-19.5-0.2-37.2,17.1 C48.2,148.9,47.6,182.5,47.5,187.7z"/></g><g><g><path fill="#FFF" d="M122.9,200.2c15.1,3.1,24.7-0.9,29.6-4.1c2.3-1.5,3.7-4.2,3.5-7c0-0.1,0-0.1,0-0.2 c-0.3-5.2-5.6-8.6-10.5-6.8c-5.5,2.1-13.4,3.7-24.3,2.6C118.1,184.5,117.5,199.1,122.9,200.2z"/></g><g><path fill="#371A45" d="M133.2,202.6c-3.2,0-6.7-0.3-10.6-1.1l0,0c-4.5-0.9-5.5-8.4-4.8-13.2c0.7-4.3,2.4-4.8,3.4-4.7 c9,0.9,17,0,23.8-2.6c2.7-1,5.6-0.7,8.1,0.8c2.4,1.6,4,4.1,4.1,7l0,0.2c0.2,3.3-1.3,6.4-4.1,8.2 C149.7,199.4,143,202.6,133.2,202.6z M121.1,186c-0.7,0.7-1.5,4.7-0.7,8.7c0.5,2.5,1.5,4,2.7,4.3l0,0 c14.9,3.1,24.4-1.1,28.6-3.9c2-1.3,3.1-3.5,2.9-5.9l0-0.2c-0.1-2.1-1.2-3.9-3-5.1c-1.7-1.1-3.9-1.3-5.8-0.6 C138.8,186,130.5,186.9,121.1,186z"/></g><g><path fill="#FFF" d="M72.9,200.2c-15.1,3.1-24.7-0.9-29.6-4.1c-2.3-1.5-3.7-4.2-3.5-7c0-0.1,0-0.1,0-0.2 c0.3-5.2,5.6-8.6,10.5-6.8c5.5,2.1,13.4,3.7,24.3,2.6C77.6,184.5,78.2,199.1,72.9,200.2z"/></g><g><path fill="#371A45" d="M62.5,202.6c-9.8,0-16.4-3.1-19.9-5.4c-2.7-1.8-4.3-4.9-4.1-8.2l0-0.2c0.2-2.9,1.7-5.5,4.1-7 c2.4-1.6,5.4-1.9,8.1-0.8c6.7,2.6,14.7,3.4,23.8,2.6c1-0.1,2.8,0.4,3.4,4.7c0.7,4.8-0.3,12.3-4.8,13.2 C69.2,202.3,65.7,202.6,62.5,202.6z M47.5,182.9c-1.2,0-2.4,0.3-3.5,1c-1.8,1.1-2.8,3-3,5.1l0,0.2c-0.2,2.3,1,4.6,2.9,5.9 c4.3,2.8,13.7,7,28.6,3.9l0,0c1.2-0.2,2.2-1.8,2.7-4.3c0.8-4,0.1-8-0.7-8.7c-9.4,0.9-17.7,0-24.8-2.7 C49.1,183,48.3,182.9,47.5,182.9z"/></g><g><path fill="#FFF" d="M123.5,182.7v20.8c0,3.8-3.1,7-7,7H78.3c-3.8,0-7-3.1-7-7v-20.8c0-3.8,3.1-7,7-7h38.2 c2.5,0,4.6,1.3,5.9,3.2C123.1,180,123.5,181.3,123.5,182.7z"/></g><g opacity=".35"><path fill="#371A45" d="M123.5,182.7v20.8c0,3.8-3.1,7-7,7H78.3c-3.8,0-7-3.1-7-7v-12.9c0,6.4,5,7.9,6.5,8.6 c6.8,3.1,23.4,3,31.4-1.3c7.4-3.9,11.3-12.7,13.2-18.9C123.1,180,123.5,181.3,123.5,182.7z"/></g><g><path fill="#371A45" d="M116.5,211.7H78.3c-4.6,0-8.3-3.7-8.3-8.3v-20.8c0-4.6,3.7-8.3,8.3-8.3h38.2c4.6,0,8.3,3.7,8.3,8.3 v20.8C124.8,208,121.1,211.7,116.5,211.7z M78.3,177c-3.2,0-5.7,2.6-5.7,5.7v20.8c0,3.2,2.6,5.7,5.7,5.7h38.2 c3.2,0,5.7-2.6,5.7-5.7v-20.8c0-3.2-2.6-5.7-5.7-5.7H78.3z"/></g><g><circle cx="110.9" cy="193.1" r="6" fill="#22A7F0"/></g><g opacity=".35"><path fill="#371A45" d="M117,193.1c0,3.3-2.7,6-6,6c-3.3,0-6-2.7-6-6c0-0.6,0.1-1.3,0.3-1.9c0.8,2.4,3.1,4.2,5.7,4.2 s5-1.8,5.7-4.2C116.9,191.8,117,192.4,117,193.1z"/></g><g><path fill="#371A45" d="M110.9,200.1c-3.9,0-7-3.1-7-7s3.1-7,7-7c3.9,0,7,3.1,7,7S114.8,200.1,110.9,200.1z M110.9,188 c-2.8,0-5.1,2.3-5.1,5.1c0,2.8,2.3,5.1,5.1,5.1c2.8,0,5.1-2.3,5.1-5.1C116,190.3,113.7,188,110.9,188z"/></g><g><path fill="#371A45" d="M93.8,211.7c-0.7,0-1.3-0.6-1.3-1.3v-10.6c0-2.2-1.1-4.3-2.8-5.7l-1-0.7c-2.4-1.8-3.8-4.7-3.8-7.7v-10 c0-0.7,0.6-1.3,1.3-1.3c0.7,0,1.3,0.6,1.3,1.3v10c0,2.2,1.1,4.3,2.8,5.7l1,0.7c2.4,1.8,3.8,4.7,3.8,7.7v10.6 C95.1,211.2,94.5,211.7,93.8,211.7z"/></g></g><g><path fill="#FFF" d="M195.7,136.2c-1.9,18.5-24,31.6-49.7,21.8c0,0,0,0-0.1,0c-1,0-8.6-0.5-19.5-15.2 c-1.2-1.7-2.2-3.2-2.9-4.8c-2.4-4.9-2.6-9.1-1.8-12.4c1.2-5.4,4.8-8.4,4.8-8.4s7,4.3,14.9,7.4c5.9,2.3,12.3,3.9,16.8,2.4 c12.7-4,2-19.4,2-19.4s17.9-11.2,23.3-6.9C192.2,107.7,197.4,119.1,195.7,136.2z"/></g><g opacity=".35"><path fill="#371A45" d="M195.7,136.2c-1.9,18.5-24,31.6-49.7,21.8v-10.1c25.7,9.7,47.8-3.4,49.7-21.8c0-0.4,0.1-0.8,0.1-1.2 C196.1,128.3,196.1,132.1,195.7,136.2z"/></g><g><path fill="#371A45" d="M163.3,162.6c-5.8,0-11.8-1.1-17.8-3.4c-0.7-0.2-1-1-0.7-1.6c0.2-0.7,1-1,1.6-0.7 c12.8,4.9,25.8,4.2,35.5-1.8c7.1-4.4,11.7-11.3,12.5-19c1.6-15.3-2.4-26.9-11.8-34.3c-3.3-2.6-14,2.2-20.8,6.3 c1.6,2.6,5,9.2,3.2,14.4c-1,2.8-3.2,4.7-6.6,5.8c-11,3.5-31.8-9.4-32.7-10c-0.6-0.4-0.8-1.2-0.4-1.7c0.4-0.6,1.2-0.8,1.7-0.4 c0.2,0.1,20.8,12.8,30.6,9.7c2.6-0.8,4.3-2.2,4.9-4.2c1.8-5.3-3.5-13.2-3.6-13.3c-0.2-0.3-0.3-0.6-0.2-1 c0.1-0.3,0.3-0.6,0.6-0.8c1.9-1.2,18.8-11.6,24.8-6.8c10.1,8.1,14.4,20.4,12.7,36.6c-0.9,8.4-5.9,16.1-13.7,20.9 C177.4,160.8,170.6,162.6,163.3,162.6z"/></g><g><path fill="#FFF" d="M77.5,140.3c-0.5,1.5-1.3,3.2-2.5,5C64.8,161.1,61.3,164,61.3,164l-3.5,29.7l-0.9,7.6 c0,0-24.9,1-26.3-20.5c-1.1-17.5,14.7-40.4,29.1-50.8c3-2.1,5.9-3.8,8.5-4.7c0,0,1.6,0.4,3.5,1.4 C75.4,128.5,80.2,132.6,77.5,140.3z"/></g><g><path fill="#371A45" d="M56.4,202.6c-1.8,0-7-0.2-12.5-2.3c-8.9-3.4-13.9-10.1-14.5-19.5c-0.6-9.8,4-22.4,12.7-34.5 c8-11,17.9-19.6,25.8-22.3c0.7-0.2,1.4,0.1,1.6,0.8c0.2,0.7-0.1,1.4-0.8,1.6c-14.8,5.1-38.2,33.3-36.8,54.2 c0.5,8.4,4.8,14.2,12.8,17.2c4.6,1.8,9.1,2.1,11.1,2.1l4.1-35.4c-2.5-1.7-9.4-7.8-3.6-20.6c0.3-0.6,1-0.9,1.7-0.6 c0.6,0.3,0.9,1,0.6,1.7c-5.9,13,2.8,17.6,3.2,17.7l0.8,0.4l-4.6,39.2l-1.1,0C56.9,202.6,56.7,202.6,56.4,202.6z"/></g><g><path fill="#FFF" d="M151.8,97.3L151.8,97.3c-0.7,0-1.2-0.5-1.2-1.2l-0.1-34.3c0-0.7,0.5-1.2,1.2-1.2h0 c6.9,0,12.5,5.6,12.5,12.5l0,11.7C164.3,91.6,158.7,97.3,151.8,97.3z"/><path fill="#371A45" d="M151.8,97.5c-0.8,0-1.4-0.6-1.4-1.4l-0.1-34.3c0-0.4,0.1-0.7,0.4-1c0.3-0.3,0.6-0.4,1-0.4c0,0,0,0,0,0 c3.4,0,6.6,1.3,9,3.7c2.4,2.4,3.7,5.6,3.8,9l0,11.7C164.6,91.8,158.9,97.5,151.8,97.5L151.8,97.5 C151.8,97.5,151.8,97.5,151.8,97.5z M151.8,60.8C151.8,60.8,151.7,60.8,151.8,60.8c-0.3,0-0.5,0.1-0.7,0.3 c-0.2,0.2-0.3,0.4-0.3,0.7l0.1,34.3c0,0.3,0.1,0.5,0.3,0.7c0.2,0.2,0.4,0.3,0.7,0.3c0,0,0,0,0,0l0,0c6.8,0,12.3-5.5,12.2-12.3 l0-11.7c0-3.3-1.3-6.4-3.6-8.7C158.1,62,155,60.8,151.8,60.8z"/></g><g opacity=".35"><path fill="#371A45" d="M164.3,79.2l0,5.5c0,6.9-5.6,12.5-12.5,12.5c-0.7,0-1.2-0.5-1.2-1.2l0-9.1c0.2,0.4,0.6,0.7,1.1,0.7 l0.8,0C158,87.6,162.6,84.1,164.3,79.2z"/></g><g><path fill="#371A45" d="M151.8,98.5c-1.4,0-2.5-1.1-2.5-2.5l-0.1-34.3c0-1.4,1.1-2.5,2.5-2.5c0,0,0,0,0,0c3.7,0,7.1,1.4,9.7,4 c2.6,2.6,4.1,6,4.1,9.7l0,11.7c0,3.7-1.4,7.1-4,9.8C159,97.1,155.5,98.5,151.8,98.5L151.8,98.5 C151.8,98.5,151.8,98.5,151.8,98.5z M151.8,61.8l0.1,34.2c3,0,5.8-1.2,7.9-3.3c2.1-2.1,3.3-5,3.3-8l0-11.7c0-3-1.2-5.8-3.3-7.9 C157.6,63,154.8,61.8,151.8,61.8z"/></g><g><path fill="#FFF" d="M41,60.9L41,60.9c0.7,0,1.2,0.5,1.2,1.2l0.1,34.3c0,0.7-0.5,1.2-1.2,1.2h0c-6.9,0-12.5-5.6-12.5-12.5 l0-11.7C28.5,66.5,34.1,60.9,41,60.9z"/><path fill="#371A45" d="M41.1,97.8c-7,0-12.7-5.7-12.7-12.7l0-11.7c0-7,5.7-12.8,12.7-12.8c0,0,0,0,0,0c0.4,0,0.7,0.1,1,0.4 c0.3,0.3,0.4,0.6,0.4,1l0.1,34.3c0,0.4-0.1,0.7-0.4,1C41.9,97.7,41.5,97.8,41.1,97.8C41.1,97.8,41.1,97.8,41.1,97.8z M41,61.1 c-6.8,0-12.3,5.5-12.2,12.3l0,11.7c0,6.8,5.5,12.2,12.3,12.2c0,0,0,0,0,0c0.3,0,0.5-0.1,0.7-0.3c0.2-0.2,0.3-0.4,0.3-0.7 L42,62.1c0-0.3-0.1-0.5-0.3-0.7C41.5,61.2,41.3,61.1,41,61.1C41,61.1,41,61.1,41,61.1L41,61.1z"/></g><g opacity=".35"><path fill="#371A45" d="M42.3,86.9l0,9.5c0,0.7-0.5,1.2-1.2,1.2c-3.6,0-6.9-1.5-9.2-4c-2.1-2.2-3.3-5.2-3.4-8.5l0-4.9 c2,4.3,6.4,7.3,11.4,7.3l1.3,0C41.7,87.5,42.1,87.3,42.3,86.9z"/></g><g><path fill="#371A45" d="M41.1,98.9c-3.7,0-7.1-1.4-9.7-4c-2.6-2.6-4.1-6-4.1-9.7l0-11.7c0-7.6,6.1-13.8,13.7-13.8h0c0,0,0,0,0,0 c0.7,0,1.3,0.3,1.7,0.7c0.5,0.5,0.7,1.1,0.7,1.7l0.1,34.3c0,0.7-0.3,1.3-0.7,1.7C42.4,98.6,41.8,98.9,41.1,98.9 C41.1,98.9,41.1,98.9,41.1,98.9z M41,62.2c-6.2,0.1-11.1,5.1-11.1,11.3l0,11.7c0,3,1.2,5.8,3.3,7.9c2.1,2.1,4.9,3.3,7.9,3.3 L41,62.2z M41,62.2L41,62.2C41,62.2,41,62.2,41,62.2L41,62.2z"/></g><g opacity=".35"><path fill="#371A45" d="M141.3,124.6c-2.8,3.1-5.8,5.8-9.2,8.2c-2.7,2-5.6,3.7-8.7,5.2c-8.9,4.4-19.1,6.5-29.7,5.8 c-5.7-0.4-11.2-1.6-16.3-3.5c-5.1-1.9-9.9-4.5-14.2-7.6c-1.2-0.9-2.4-1.8-3.5-2.8c3-2.1,5.9-3.8,8.5-4.7c0,0,1.6,0.4,3.5,1.4 c13.9-8.3,25.9-8,25.9-8s10.9-0.2,24,7c1.2-5.4,4.8-8.4,4.8-8.4S133.4,121.5,141.3,124.6z"/></g><g><circle cx="97.8" cy="79.1" r="58.5" fill="#FFF"/><path fill="#371A45" d="M97.9,137.8c-1.4,0-2.7,0-4.1-0.1c-15.7-1.1-30-8.2-40.3-20c-10.3-11.8-15.4-27-14.3-42.6 c1.1-15.7,8.2-30,20-40.3s27-15.4,42.6-14.3c15.7,1.1,30,8.2,40.3,20c10.3,11.8,15.4,27,14.3,42.6l-0.2,0l0.2,0 c-1.1,15.7-8.2,30-20,40.3C125.6,132.8,112,137.8,97.9,137.8z M97.7,20.8c-14.1,0-27.5,5-38.2,14.4 c-11.7,10.2-18.8,24.4-19.8,40c-1.1,15.5,4,30.6,14.2,42.3s24.4,18.8,40,19.8c1.4,0.1,2.7,0.1,4,0.1c14.1,0,27.5-5,38.2-14.4 c11.7-10.2,18.8-24.4,19.8-40l0,0c1.1-15.5-4-30.6-14.2-42.3s-24.4-18.8-40-19.8C100.4,20.8,99,20.8,97.7,20.8z"/></g><g opacity=".35"><path fill="#371A45" d="M156.1,74.9c0.2,2.7,0.2,5.4,0,8.1c-2.2,32.2-30.1,56.6-62.4,54.4c-32.2-2.2-56.6-30.1-54.4-62.4 c0.1-0.9,0.1-1.9,0.3-2.8c2,28.7,24.9,52.2,54.4,54.2C125.4,128.7,152.6,105.8,156.1,74.9z"/></g><g><path fill="#371A45" d="M97.9,138.9c-1.4,0-2.8,0-4.1-0.1c-15.9-1.1-30.5-8.3-41-20.3C42.2,106.4,37,91,38.1,75 c1.1-15.9,8.3-30.5,20.3-41c12-10.5,27.4-15.7,43.4-14.6c15.9,1.1,30.5,8.3,41,20.3c10.5,12,15.7,27.4,14.6,43.4 c-1.1,15.9-8.3,30.5-20.3,41C126.1,133.7,112.3,138.9,97.9,138.9z M97.7,21.8c-13.8,0-27,4.9-37.6,14.1 C48.6,46,41.7,59.9,40.7,75.2c-1,15.3,3.9,30,14,41.5s24,18.4,39.3,19.5c15.3,1,30-3.9,41.5-14c11.5-10.1,18.4-24,19.5-39.3l0,0 c1-15.3-3.9-30-14-41.5c-10.1-11.5-24-18.4-39.3-19.5C100.3,21.9,99,21.8,97.7,21.8z"/></g><g><path fill="#371A45" d="M97.9,138.9c-1.4,0-2.8,0-4.1-0.1c-15.9-1.1-30.5-8.3-41-20.3C42.2,106.4,37,91,38.1,75 c1.1-15.9,8.3-30.5,20.3-41c12-10.5,27.4-15.7,43.4-14.6c15.9,1.1,30.5,8.3,41,20.3c10.5,12,15.7,27.4,14.6,43.4 c-1.1,15.9-8.3,30.5-20.3,41C126.1,133.7,112.3,138.9,97.9,138.9z M97.7,21.8c-13.8,0-27,4.9-37.6,14.1 C48.6,46,41.7,59.9,40.7,75.2c-1,15.3,3.9,30,14,41.5s24,18.4,39.3,19.5c15.3,1,30-3.9,41.5-14c11.5-10.1,18.4-24,19.5-39.3l0,0 c1-15.3-3.9-30-14-41.5c-10.1-11.5-24-18.4-39.3-19.5C100.3,21.9,99,21.8,97.7,21.8z"/></g><g><path fill="#371A45" d="M155.9,84.5c-0.6,11.4-4.9,21.9-11.7,30.3c-5.1,6.3-25.3,16.8-49.5,15.8c-22.4-1-42.2-14-46.6-20.8 c-5.9-9.1-9-19.9-8.4-31.4C41.3,48.1,68,37,100.1,38.7C132.1,40.4,157.5,54.3,155.9,84.5z"/></g><g><path fill="#371A45" d="M98.3,132c-1.2,0-2.4,0-3.6-0.1c-23.1-1-43-14.3-47.6-21.4c-6.2-9.7-9.2-20.8-8.6-32.1 c0.8-14.8,7.3-25.8,19.4-32.9c10.6-6.2,25.2-9,42.3-8.1c17.1,0.9,31.4,5.2,41.2,12.5c11.3,8.3,16.6,20,15.8,34.7l-1.3-0.1 l1.3,0.1c-0.6,11.3-4.7,22.1-12,31C140.4,121.6,122.1,132,98.3,132z M93.9,39.8c-14,0-25.9,2.7-34.8,7.9 c-11.3,6.6-17.4,17-18.1,30.8c-0.6,10.8,2.3,21.4,8.2,30.6c4.2,6.6,23.6,19.3,45.6,20.3c24.3,1.1,43.8-9.6,48.4-15.3 c6.9-8.5,10.8-18.8,11.4-29.6l0,0c0.7-13.8-4.2-24.8-14.8-32.6c-9.4-7-23.2-11.1-39.8-12C97.9,39.8,95.9,39.8,93.9,39.8z"/></g><g opacity=".35"><path fill="#111A28" d="M146.1,55.7c6.7,7.2,10.4,16.7,9.8,28.8c-0.6,11.4-4.9,21.9-11.7,30.3c-5.1,6.3-25.3,16.8-49.5,15.8 c-8.5-0.4-16.7-2.5-23.7-5.4c29.7,0.7,54.3-12.2,60.7-20.1c8.6-10.7,14.1-23.9,14.8-38.5C146.7,62.8,146.5,59.2,146.1,55.7z"/></g><g><path fill="#371A45" d="M152.3,59c-0.3,0-0.6-0.1-0.8-0.3c0,0,0,0-0.1-0.1l-0.1-0.1l-0.1-0.1C142,44,123.4,35.1,100,33.8 c-23.5-1.2-43,6-53.5,19.8l-0.1,0.1L44.5,52l0.8,0.8L44.5,52c11-14.5,31.3-22,55.7-20.8c24.2,1.3,43.6,10.6,53.2,25.7 c0.3,0.5,0.3,1.1-0.1,1.6C153,58.9,152.6,59,152.3,59z M45.5,52.8L45.5,52.8L45.5,52.8z"/></g><g><g opacity=".5"><ellipse cx="138.2" cy="79.4" fill="#FFF" rx="10.4" ry="7.5" transform="matrix(0.23 -0.9732 0.9732 0.23 29.0698 195.6112)"/></g><g opacity=".5"><path fill="#FFF" d="M52.8,97.1c0,0-7.8-30.3,8.9-41.4c16.7-11,39.9-9.8,39.2-8.3c0,0-26,4.8-37.1,24.6 C55.3,87.2,52.8,97.1,52.8,97.1z"/></g></g><g><ellipse cx="100.3" cy="166.5" fill="#FFF" rx="63.1" ry="20.4"/></g><g><path fill="#FFF" d="M163.4,166.5c0,1.8-0.7,3.6-2.1,5.3c-7.2,8.7-31.8,15.1-61,15.1s-53.8-6.4-61-15.1 c-1.4-1.7-2.1-3.5-2.1-5.3c0-11.3,28.3-20.4,63.1-20.4S163.4,155.2,163.4,166.5z"/></g><g opacity=".35"><path fill="#371A45" d="M161.3,171.8c-7.2,8.7-31.8,15.1-61,15.1s-53.8-6.4-61-15.1c7.2-8.7,31.8-15.1,61-15.1 S154.1,163.1,161.3,171.8z"/></g><g><path fill="#371A45" d="M100.3,188.1c-17,0-33-2.1-45-6c-12.5-4-19.4-9.6-19.4-15.6s6.9-11.6,19.4-15.6c12-3.9,28-6,45-6 s33,2.1,45,6c12.5,4,19.4,9.6,19.4,15.6s-6.9,11.6-19.4,15.6C133.3,186,117.3,188.1,100.3,188.1z M100.3,147.4 c-37,0-61.8,9.9-61.8,19.1s24.9,19.1,61.8,19.1c37,0,61.8-9.9,61.8-19.1S137.3,147.4,100.3,147.4z"/></g><g><path fill="#371A45" d="M100.3,188.1c-17,0-33-2.1-45-6c-12.5-4-19.4-9.6-19.4-15.6s6.9-11.6,19.4-15.6c12-3.9,28-6,45-6 s33,2.1,45,6c12.5,4,19.4,9.6,19.4,15.6s-6.9,11.6-19.4,15.6C133.3,186,117.3,188.1,100.3,188.1z M100.3,147.4 c-37,0-61.8,9.9-61.8,19.1s24.9,19.1,61.8,19.1c37,0,61.8-9.9,61.8-19.1S137.3,147.4,100.3,147.4z"/></g><g><ellipse cx="112.7" cy="153.6" fill="#FFF" rx="12.1" ry="16"/></g><g><path fill="#371A45" d="M112.7,170.9c-7.4,0-13.4-7.7-13.4-17.3s6-17.3,13.4-17.3c7.4,0,13.4,7.7,13.4,17.3 S120.1,170.9,112.7,170.9z M112.7,138.9c-6,0-10.9,6.6-10.9,14.7s4.9,14.7,10.9,14.7c6,0,10.9-6.6,10.9-14.7 S118.7,138.9,112.7,138.9z"/></g><g><ellipse cx="112.7" cy="155.7" fill="#FFD252" rx="6.2" ry="8.1"/></g><g opacity=".35"><path fill="#371A45" d="M124.8,153.6c0,8.8-5.4,16-12.1,16c-6.7,0-12.1-7.2-12.1-16c0-1.6,0.2-3.1,0.5-4.5 c1.5,6.7,6.1,11.5,11.7,11.5c5.5,0,10.2-4.9,11.7-11.5C124.6,150.6,124.8,152.1,124.8,153.6z"/></g><g><path fill="#2C7C19" d="M82,167.6l-14.4,4.5c0,0-4.1-18.3-9.5-30.6l4.2-1.1l15.6-3.9c0,0,1,4,2.1,9.5 C81.4,152.7,82.6,161.6,82,167.6z"/></g><g><path fill="#21600F" d="M82,167.6l-14.4,4.5c0,0-4.1-18.3-9.5-30.6l4.2-1.1c1.4,3.5,3.6,8.4,5.4,9.1c2.4,0.9,7-2.9,12.3-3.5 C81.4,152.7,82.6,161.6,82,167.6z"/></g><g opacity=".5"><path fill="#FFF" d="M82,167.6l-1.1,0.3c0.2-9-2.6-21.6-3.7-26.4c-0.3-1.1-1.4-1.8-2.4-1.5l-15.6,3.9c-0.3-0.8-0.7-1.7-1-2.5 l19.8-5C78,136.5,83.2,156.6,82,167.6z"/></g><g><path fill="#371A45" d="M67.6,173.4c-0.2,0-0.4-0.1-0.6-0.2c-0.3-0.2-0.5-0.5-0.6-0.8c0-0.2-4.1-18.3-9.4-30.4 c-0.1-0.3-0.1-0.7,0-1.1c0.2-0.3,0.5-0.6,0.8-0.7l19.8-5c0.7-0.2,1.4,0.2,1.5,0.9c0.2,0.8,5.3,20.5,4.1,31.6 c-0.1,0.5-0.4,0.9-0.9,1.1L68,173.3C67.9,173.4,67.7,173.4,67.6,173.4z M59.9,142.3c4.2,10.3,7.6,23.9,8.6,28.1l12.3-3.8 c0.7-9.2-2.7-24.2-3.8-28.6L59.9,142.3z"/></g><g><path fill="#2C7C19" d="M55.9,176c0,0-7.6-17.1-15.3-28.2l18.4-8.7c0,0,9.1,18.7,10,29.7L55.9,176z"/></g><g><path fill="#2C7C19" d="M69.2,168.8L55.9,176c0,0-3.1-7-7.4-15c-2.4-4.4-5.1-9.2-7.9-13.2l18.4-8.7c0,0,2.9,5.9,5.5,13 C66.7,157.7,68.7,164,69.2,168.8z"/></g><g><path fill="#21600F" d="M69.2,168.8L55.9,176c0,0-3.1-7-7.4-15c2.8,1,7.4,1.9,11.2,0c3.7-1.8,4.7-5.9,4.9-8.8 C66.7,157.7,68.7,164,69.2,168.8z"/></g><g opacity=".5"><path fill="#FFF" d="M44.7,150.2c5.7,8.5,11.2,19.8,13.4,24.7l-2.2,1.2c0,0-7.6-17.1-15.3-28.2l18.4-8.7c0,0,0.4,0.8,1,2.2 l-14.9,7.1C44.5,148.7,44.3,149.5,44.7,150.2z"/></g><g><path fill="#371A45" d="M55.9,177.3c-0.1,0-0.3,0-0.4-0.1c-0.3-0.1-0.6-0.4-0.8-0.7c-0.1-0.2-7.6-17.1-15.2-28 c-0.2-0.3-0.3-0.7-0.2-1.1c0.1-0.4,0.3-0.7,0.7-0.8l18.4-8.7c0.6-0.3,1.4,0,1.7,0.6c0.4,0.8,9.2,19,10.2,30.2 c0,0.5-0.2,1-0.7,1.2l-13.2,7.2C56.4,177.2,56.2,177.3,55.9,177.3z M42.6,148.4c6.2,9.2,12.2,21.9,14,25.9l11.3-6.2 c-1.1-9.2-7.4-23.2-9.3-27.3L42.6,148.4z"/></g><g><path fill="#2C7C19" d="M146.4,146.4c-6.5,10.6-12.7,26.7-12.7,26.7l-12.5-6c0.1-2.3,0.5-5.1,1.2-7.9c2.2-9.5,6.6-19.9,6.6-19.9 l13.9,5.7L146.4,146.4z"/></g><g><path fill="#21600F" d="M146.4,146.4c-6.5,10.6-12.7,26.7-12.7,26.7l-12.5-6c0.1-2.3,0.5-5.1,1.2-7.9c4.4-0.3,10.5,0.7,12-0.8 c2-1.9,2.9-7.5,8.5-13.4L146.4,146.4z"/></g><g opacity=".5"><path fill="#FFF" d="M146.4,146.4c-0.4,0.7-0.8,1.4-1.2,2.1l-13-5.4c-1-0.4-2.1,0.1-2.4,1c-1.7,4.3-5.9,15.5-6.9,23.7 l-1.6-0.8c0.4-10.2,7.8-27.8,7.8-27.8L146.4,146.4z"/></g><g><path fill="#371A45" d="M133.7,174.4c-0.2,0-0.4,0-0.5-0.1l-12.5-6c-0.5-0.2-0.7-0.7-0.7-1.2c0.4-10.3,7.6-27.5,7.9-28.3 c0.3-0.6,1-0.9,1.7-0.7l17.4,7.1c0.3,0.1,0.6,0.4,0.7,0.8c0.1,0.4,0.1,0.7-0.1,1.1c-6.4,10.3-12.5,26.3-12.6,26.5 c-0.1,0.3-0.4,0.6-0.7,0.7C134,174.3,133.9,174.4,133.7,174.4z M122.5,166.3l10.5,5c1.5-3.9,6.3-15.6,11.5-24.3l-14.8-6.1 C128.1,144.9,123.1,157.9,122.5,166.3z"/></g><g><path fill="#2C7C19" d="M161.5,154.6c-3.1,3.3-6.3,7.4-9.1,11.2c-4.9,6.6-8.5,12.4-8.5,12.4l-11.1-8.3c0.9-3.6,2.8-7.9,4.9-12 c0,0,0,0,0,0c3.8-7.3,8.2-13.8,8.2-13.8L161.5,154.6z"/></g><g><path fill="#21600F" d="M152.4,165.8c-4.9,6.6-8.5,12.4-8.5,12.4l-11.1-8.3c0.9-3.6,2.8-7.9,4.9-12c-0.2,2.1-0.2,6.5,4.1,8.2 C145.2,167.6,149.5,166.7,152.4,165.8z"/></g><g opacity=".5"><path fill="#FFF" d="M161.5,154.6c-0.5,0.5-1,1.1-1.5,1.6l-11.7-7.8c-1.1-0.7-2.5-0.4-3.2,0.7c-2.7,4.1-8.8,14.1-11.2,21.7 l-1.2-0.9c2.4-9.9,13.1-25.8,13.1-25.8L161.5,154.6z"/></g><g><path fill="#371A45" d="M143.8,179.5c-0.3,0-0.5-0.1-0.8-0.3l-11.1-8.3c-0.4-0.3-0.6-0.8-0.5-1.3c2.4-10,12.8-25.5,13.3-26.2 c0.4-0.6,1.2-0.7,1.8-0.3l15.7,10.4c0.3,0.2,0.5,0.5,0.6,0.9c0,0.4-0.1,0.7-0.3,1c-8.3,8.9-17.4,23.3-17.5,23.5 c-0.2,0.3-0.5,0.5-0.8,0.6C144,179.5,143.9,179.5,143.8,179.5z M134.2,169.4l9.3,7c2.3-3.5,9.3-14.1,16.1-21.6l-13.4-8.9 C143.9,149.5,136.4,161.3,134.2,169.4z"/></g><g><g><g><path fill="#CC3A3A" d="M96.2,171.1c0,0,4.3-5.7,2.8-7.6s-2.5-2.8-1.4-5.6s-5.2-12.3-12.2-13.1c-7-0.7-7.8,2.7-6.7,8.3 c1.1,5.6-3.4,10.5,0.7,14.2S92.8,175.3,96.2,171.1z"/></g><g opacity=".35"><path fill="#371A45" d="M96.2,171.1c0,0,4.3-5.7,2.8-7.6s-2.5-2.8-1.4-5.6s-5.2-12.3-12.2-13.1c-7-0.7-7.8,2.7-6.7,8.3 c1.1,5.6-3.4,10.5,0.7,14.2S92.8,175.3,96.2,171.1z"/></g><g><path fill="#371A45" d="M92,174.1c-4.4,0-10.2-2.9-13.4-5.8c-3-2.7-2.3-5.9-1.6-9c0.4-1.9,0.9-3.9,0.5-5.9 c-0.5-2.7-0.9-6,1-8.1c1.4-1.5,3.7-2.1,7.1-1.7c5,0.5,9.4,4.9,11.6,8.5c0.9,1.5,2.4,4.3,1.6,6.2c-0.7,1.9-0.4,2.4,0.9,4 l0.3,0.4c2,2.5-1.6,7.7-2.8,9.2l0,0c-1.1,1.3-2.6,2-4.6,2.2C92.4,174.1,92.2,174.1,92,174.1z M83.6,146c-1.6,0-2.7,0.3-3.3,1 c-0.9,0.9-1,2.8-0.4,5.9c0.5,2.5,0,4.9-0.5,7c-0.7,3.1-1,4.9,0.8,6.6c3,2.7,8.5,5.4,12.2,5.2c1.2-0.1,2.2-0.5,2.8-1.2 c2-2.6,3.2-5.5,2.8-6l-0.3-0.4c-1.4-1.8-2.6-3.2-1.3-6.5c0.1-0.3-0.1-1.8-1.4-4c-2.1-3.4-5.9-6.9-9.7-7.4 C84.7,146,84.1,146,83.6,146z"/></g><g><path fill="#CC3A3A" d="M99.5,169c0,0,4.1-5.2,2.5-7.1c-1.6-1.9-2.5-2.7-1.6-5.3c0.9-2.6-5.5-11.7-12.4-12.6s-7.6,2.3-6.4,7.6 c1.2,5.2-3,9.7,1.1,13.4C86.9,168.6,96.2,172.9,99.5,169z"/></g><g opacity=".6"><g><path fill="#FFF" d="M101.7,162.7c0.6,0.7,0.3,2-0.3,3.2c0.7-1.5,1.3-3.1,0.5-4c-1.1-1.4-2-2.2-1.9-3.5 C99.6,160.3,100.4,161.1,101.7,162.7z"/></g><g><path fill="#FFF" d="M83.8,165.5c-3.9-3.4,0.1-7.6-1.1-12.5c-1.2-4.9-0.5-7.9,6-7.1c5.8,0.8,11.4,7.9,11.7,11 c0-0.1,0.1-0.2,0.1-0.3c0.9-2.6-5.5-11.7-12.4-12.6c-6.9-0.9-7.6,2.3-6.4,7.6s-3,9.7,1.1,13.4c1.5,1.3,3.5,2.6,5.8,3.7 C86.7,167.7,85,166.6,83.8,165.5z"/></g></g><g><path fill="#371A45" d="M95.6,171.8c-4.8,0-10.8-3.4-13.6-5.9c-3-2.6-2.4-5.8-1.8-8.6c0.4-1.8,0.7-3.6,0.3-5.5 c-0.6-2.5-1-5.6,0.7-7.6c1.3-1.5,3.6-2,7.1-1.5c5,0.7,9.6,5,12.1,9c0.9,1.5,1.9,3.7,1.4,5.3c-0.6,1.7-0.3,2.1,1.1,3.7l0.3,0.4 c2.1,2.5-1.4,7.3-2.5,8.7l0,0c-1,1.1-2.4,1.8-4.2,1.9C96.1,171.8,95.8,171.8,95.6,171.8z M85.9,145.2c-1.2,0-2.3,0.2-2.9,0.8 c-0.7,0.8-0.8,2.6-0.1,5.3c0.6,2.4,0.1,4.6-0.3,6.6c-0.6,2.9-0.8,4.5,1,6.1c3.1,2.7,8.9,5.5,12.5,5.2c1.1-0.1,1.9-0.4,2.4-1 c1.8-2.4,2.9-5,2.5-5.4l-0.3-0.3c-1.4-1.7-2.6-3.1-1.5-6.2c0.1-0.3-0.1-1.4-1.3-3.3c-2.1-3.3-6.1-7.1-10.1-7.6 C87.3,145.2,86.6,145.2,85.9,145.2z"/></g><g opacity=".4"><path fill="#FFF" d="M95.4,152.2c0,0-0.6-1.6-2.2-1.6c-1.5,0-3.5,3.4-2.3,4.7c1.2,1.3,2,1.3,2.9,4.4s4.1,1.5,3.9,0 C97.5,158.1,94.9,153.7,95.4,152.2z"/></g><g opacity=".4"><path fill="#FFF" d="M88.6,150.5c0,0-1.5,3.7,0,5.1c1.5,1.4,3.2,2.3,3.3,4.9c0,2.6,1.5,2.1,1.7,3.7c0.3,1.6-3.5,2.3-6.4-1 c-2.9-3.3-3-5.3-2.1-7.3c0.9-2,1.1-3.4,0.8-5.2C85.7,148.9,89.1,148.8,88.6,150.5z"/></g><g opacity=".35"><path fill="#371A45" d="M101.4,161.3c-0.6,1-1.2,1.8-1.2,1.8c-1.1,1.3-3,1.5-5.1,1.2c-3.4-0.6-7.5-2.8-9.8-4.8 c-3.7-3.2-2.4-5.8-3.5-10.5c-0.3-1.3,0-3.7,2.1-4.9c-3,0.8-3.2,3.6-2.2,7.5c1.2,5.2-3,9.7,1.1,13.4c2.6,2.3,7.2,4.8,11,5.4 c2.4,0.4,4.4,0.1,5.7-1.3c0,0,4.1-5.2,2.5-7.1C101.8,161.7,101.6,161.5,101.4,161.3z"/></g></g><g><path fill="#CC3A3B" d="M89.1,169.2c0,0,1.5-5.8-0.3-6.8c-1.8-1-2.8-1.4-2.9-3.9c-0.1-2.5-8-7.8-13.7-6.2 c-5.6,1.7-5.2,4.6-2.5,8.6c2.6,3.9,0.8,9.2,5.2,10.8C79.2,173.3,87.8,173.5,89.1,169.2z"/></g><g><path fill="#371A45" d="M81.3,174c-2.4,0-5-0.4-6.9-1.1c-3.3-1.2-3.8-4.1-4.3-6.6c-0.3-1.6-0.6-3.3-1.5-4.7 c-1.3-1.9-2.7-4.4-1.9-6.7c0.6-1.7,2.3-2.9,5.1-3.8c4.1-1.2,9,0.8,11.9,2.9c1.2,0.9,3.3,2.6,3.4,4.4c0.1,1.6,0.4,1.8,1.9,2.6 l0.3,0.2c2.4,1.3,1.5,6.2,0.9,8.2l0,0c-0.4,1.4-1.4,2.5-2.9,3.3C85.7,173.6,83.5,174,81.3,174z M74.5,153.3 c-0.7,0-1.3,0.1-2,0.3c-1.9,0.6-3.1,1.3-3.4,2.2c-0.3,0.9,0.2,2.4,1.6,4.5c1.2,1.8,1.6,3.8,1.9,5.6c0.5,2.6,0.8,4,2.6,4.7 c3.1,1.1,8.3,1.4,11,0c0.9-0.4,1.4-1,1.6-1.7c0.6-2.3,0.7-4.9,0.3-5.4l-0.3-0.2c-1.7-0.9-3.1-1.7-3.2-4.8 c0-0.3-0.7-1.4-2.5-2.6C80.1,154.6,77.2,153.3,74.5,153.3z"/></g><g><path fill="#CC3A3B" d="M91.7,166.2c0,0,1.5-5.3-0.3-6.3c-1.8-0.9-2.8-1.3-2.9-3.6c-0.1-2.3-8.1-7.3-13.7-5.7 c-5.6,1.5-5.1,4.3-2.5,7.9s0.8,8.5,5.2,10S90.4,170.2,91.7,166.2z"/></g><g><path fill="#371A45" d="M84.1,170.7c-2.6,0-5.3-0.5-7-1c-3.3-1.1-3.8-3.8-4.3-6.2c-0.3-1.5-0.6-3-1.5-4.2 c-1.3-1.8-2.7-4.1-1.9-6.3c0.6-1.6,2.2-2.8,5.1-3.6c4.1-1.1,9.2,0.8,12.4,3.1c1.3,0.9,2.8,2.3,2.8,3.8c0.1,1.4,0.4,1.6,1.9,2.3 l0.3,0.2c2.5,1.3,1.4,6.3,1,7.7l0,0c-0.4,1.3-1.3,2.2-2.7,3C88.5,170.4,86.3,170.7,84.1,170.7z M77.1,151.6 c-0.7,0-1.3,0.1-2,0.2c-1.9,0.5-3.1,1.2-3.4,2c-0.3,0.8,0.2,2.1,1.6,3.9c1.2,1.7,1.6,3.6,2,5.2c0.5,2.4,0.8,3.7,2.6,4.3 c3.3,1.1,8.5,1.3,11.2,0c0.8-0.4,1.2-0.9,1.4-1.4c0.6-2.2,0.6-4.4,0.3-4.8l-0.3-0.2c-1.7-0.9-3.1-1.6-3.3-4.5 c0-0.3-0.8-1.2-2.6-2.4C82.7,152.8,79.7,151.6,77.1,151.6z"/></g><g opacity=".4"><path fill="#FFF" d="M79.7,153.6c0,0,4.7,1.1,5.5,3.3c0.8,2.2,1.6,2.9,3,3.9c1.4,1,0.3,3.9-2.2,2.7c-2.5-1.3-2.5-5-5.4-6.8 C77.8,154.9,78.5,153.7,79.7,153.6z"/></g><g opacity=".4"><path fill="#FFF" d="M76.9,155.8c0,0,2.8,1.5,3.5,3.4c0.8,1.9,0.6,3.4,2.1,4.9c1.5,1.5-3.3,2.9-4.9,0.6 c-1.6-2.3,0.2-2.5-1.6-4.9C74.3,157.4,75.2,154.7,76.9,155.8z"/></g></g><g><g><path fill="#FFCF20" d="M103.5,186.8c-0.5,0-1.1,0-1.6,0c-1.9-7.9-4.6-17.4-7.5-18.5c-4.2-1.7-5.5,0.7-8.2,2.1l0,0 c-0.5,0.3-1.1,0.5-1.8,0.7c-5,1.3-3.6-3.7-11.7-3.7c-4.4,0-12,7-18.1,13.2c-1.6-0.5-3.1-1.1-4.6-1.7 c5.6-6.7,15.8-17.7,22.2-17.7c8,0,7.1,5,12.1,3.7c4.1-1,6.1-3.5,11-1.2c0.4,0.2,0.9,0.5,1.3,1 C100.2,168.5,102.4,180.2,103.5,186.8z"/></g><g><path fill="#FFCF20" d="M101.9,186.9c-0.5,0-1,0-1.6,0c-13.5,0-26-1.4-36.3-3.7c-3.4-0.8-6.5-1.6-9.3-2.6 c6-6.2,13.7-13.2,18.1-13.2c8,0,6.7,5,11.7,3.7c0.7-0.2,1.2-0.4,1.8-0.7l0,0c2.7-1.4,4-3.8,8.2-2.1 C97.2,169.5,100,179,101.9,186.9z"/></g><g opacity=".35"><path fill="#371A45" d="M103.5,186.8c-0.5,0-1.1,0-1.6,0c-0.5,0-1,0-1.6,0c-13.5,0-26-1.4-36.3-3.7c1.3-0.5,4.9-5.6,5.3-7 c2.9-10.3,13.5-4.1,16.9-5.8c0,0-4.4,1.4,0,0c4.4-1.4,2.9-6,10.4-5.7C100.2,168.5,102.4,180.2,103.5,186.8z"/></g></g><g><path fill="#371A45" d="M101.9,188.1c-0.6,0-1.1-0.4-1.2-1c-3.7-15.7-6.2-17.4-6.7-17.6c-2.5-1-3.6-0.3-5.2,0.8 c-1.1,0.7-2.3,1.6-4,2c-3,0.8-4.4-0.4-5.6-1.5c-1.2-1-2.6-2.2-6.4-2.2c-1.8,0-6.4,1.7-17.1,12.8c-0.3,0.4-0.9,0.5-1.3,0.3 c-1.6-0.5-3.2-1.1-4.7-1.8c-0.4-0.2-0.6-0.5-0.7-0.9c-0.1-0.4,0-0.8,0.3-1.1c7-8.3,16.6-18.1,23.2-18.1c4.7,0,6.7,1.6,8.2,2.8 c1.2,1,1.8,1.4,3.6,1c1.1-0.3,2-0.6,2.9-1c2.4-1,4.9-2,9-0.1c3.6,1.7,6.6,9.8,8.8,24.1c0.1,0.4,0,0.7-0.3,1 c-0.2,0.3-0.6,0.4-0.9,0.5C103,188.1,102.4,188.1,101.9,188.1C101.9,188.1,101.9,188.1,101.9,188.1z M52.2,178.4 c0.7,0.3,1.4,0.5,2.1,0.8c8.4-8.6,14.6-13,18.4-13c4.7,0,6.6,1.6,8,2.8c1.1,0.9,1.6,1.4,3.3,0.9c1.3-0.3,2.2-1,3.1-1.6 c1.8-1.2,3.8-2.6,7.6-1.1c0.8,0.3,2.3,0.9,4.6,6.9c-1.5-5.1-3.1-8.4-4.7-9.2c-3-1.4-4.5-0.8-6.9,0.1c-0.9,0.4-2,0.8-3.2,1.1 c-3,0.7-4.4-0.4-5.8-1.5c-1.3-1-2.8-2.2-6.6-2.2C68.2,162.5,61,168.2,52.2,178.4z"/></g><g><path fill="#371A45" d="M100.3,188.1c-17.5,0-33.9-2.3-46-6.4c-0.4-0.1-0.7-0.5-0.8-0.9c-0.1-0.4,0-0.9,0.3-1.2 c8.7-9,15.1-13.6,19-13.6c4.7,0,6.6,1.6,8,2.8c1.1,0.9,1.6,1.4,3.3,0.9c1.3-0.3,2.2-1,3.1-1.6c1.8-1.2,3.8-2.6,7.6-1.1 c1.1,0.4,4.1,1.6,8.2,19.4c0.1,0.4,0,0.8-0.2,1.1c-0.2,0.3-0.6,0.5-1,0.5C101.3,188.1,100.8,188.1,100.3,188.1z M57,180 c11.7,3.6,26.9,5.6,43.2,5.6c-3.5-14.3-5.9-15.9-6.3-16.1c-2.5-1-3.6-0.3-5.2,0.8c-1.1,0.7-2.3,1.6-4,2c-3,0.8-4.4-0.4-5.6-1.5 c-1.2-1-2.6-2.2-6.4-2.2C71,168.7,66.8,170.2,57,180z"/></g><g><g><path fill="#FFCF20" d="M156.8,175.6c-1.6,1-3.5,2-5.6,3c-0.3-0.5-0.6-1.1-0.8-1.7c-1.3-2.8-5.2,1-8.7,2.2 c-2.1,0.7-3.3,0.4-4.3-0.6c-1.3-1.3-2.1-3.6-4.1-6.4c-4.2-5.9-13.1-2-13.1-2l-0.2,8.3l-0.2,7.5c-1.7,0.2-3.5,0.3-5.3,0.5l2-7.4 l3.4-12.7c0,0,10.8-6.9,14.7-2.3c4,4.6,4.2,9.6,9.4,7.4c4.9-2,9.1-7.2,11.3,1.1c0.1,0.3,0.2,0.6,0.3,0.9 C156,174.2,156.4,174.9,156.8,175.6z"/></g><g><path fill="#FFCF20" d="M151.2,178.5c-7.7,3.4-18.7,6-31.4,7.3l0.2-7.5l0.2-8.3c0,0,8.8-4,13.1,2c2,2.8,2.8,5.1,4.1,6.4 c1,1,2.2,1.3,4.3,0.6c3.6-1.2,7.4-5,8.7-2.2C150.6,177.4,150.9,178,151.2,178.5z"/></g><g opacity=".35"><path fill="#371A45" d="M156.8,175.6c-1.6,1-3.5,2-5.6,3c-7.7,3.4-18.7,6-31.4,7.3c-1.7,0.2-3.5,0.3-5.3,0.5l2-7.4 c1-0.2,2.2-0.5,3.5-0.6c3.2-0.4,7-0.5,10.9,0.6c2.6,0.7,4.7,0.3,6.5-0.5c3.4-1.5,6.5-3.3,10.2-4.3c4-1.1,6.3,1.1,8.1-0.8 C156,174.2,156.4,174.9,156.8,175.6z"/></g></g><g><path fill="#371A45" d="M114.5,187.6c-0.4,0-0.7-0.2-1-0.5c-0.3-0.3-0.4-0.7-0.2-1.1l5.4-20.1c0.1-0.3,0.3-0.6,0.5-0.7 c1.2-0.8,11.8-7.4,16.4-2.1c1.2,1.4,2.1,2.9,2.9,4.2c1.9,3.1,2.6,4,5.1,2.9c1-0.4,2-1,3-1.6c2.3-1.3,4.5-2.6,6.6-1.7 c1.6,0.7,2.6,2.3,3.4,5.2c0.2,0.9,0.7,1.8,1.2,2.6l0.1,0.2c0.4,0.6,0.2,1.3-0.4,1.7c-1.6,1.1-3.6,2.1-5.8,3.1 c-0.6,0.3-1.3,0-1.6-0.6c-0.3-0.6-0.6-1.2-0.9-1.8c-0.1-0.1-0.1-0.2-0.2-0.2c-0.5-0.2-2.2,0.8-3.3,1.4c-1.2,0.7-2.4,1.3-3.7,1.8 c-4.6,1.5-6-1.1-7.7-4c-0.6-1-1.2-2.2-2.1-3.4c-2.9-4.1-8.7-2.6-10.8-1.8l-0.4,14.9c0,0.6-0.5,1.2-1.1,1.2 C118.3,187.3,116.5,187.5,114.5,187.6C114.6,187.6,114.5,187.6,114.5,187.6z M118.8,175.2l-2.6,9.7c0.8-0.1,1.6-0.1,2.4-0.2 L118.8,175.2z M126.4,167.5c2.8,0,5.8,0.8,7.9,3.8c0.9,1.3,1.6,2.5,2.2,3.6c1.8,3.1,2.2,3.7,4.7,2.9c1-0.3,2.2-1,3.2-1.6 c2-1.1,3.8-2.1,5.3-1.6c0.5,0.2,1.2,0.6,1.7,1.6c0.1,0.2,0.2,0.4,0.3,0.6c1.2-0.6,2.3-1.1,3.3-1.7c-0.4-0.7-0.7-1.4-1-2.3 c-0.7-2.5-1.4-3.3-1.9-3.5c-1-0.4-2.6,0.6-4.4,1.6c-1,0.6-2.1,1.2-3.3,1.7c-4.7,2-6.5-1-8.3-3.9c-0.7-1.2-1.5-2.5-2.6-3.8 c-2.5-3-9.8,0.5-12.7,2.3l-0.4,1.5C121.7,168.2,123.9,167.5,126.4,167.5z"/></g><g><path fill="#371A45" d="M119.8,187.2c-0.3,0-0.6-0.1-0.9-0.3c-0.3-0.2-0.4-0.6-0.4-1l0.4-15.8c0-0.5,0.3-0.9,0.7-1.1 c0.4-0.2,9.8-4.3,14.6,2.4c0.9,1.3,1.6,2.5,2.2,3.6c1.8,3.1,2.2,3.7,4.7,2.9c1-0.3,2.2-1,3.2-1.6c2-1.1,3.8-2.1,5.3-1.6 c0.5,0.2,1.2,0.6,1.7,1.6c0.3,0.6,0.5,1.1,0.8,1.7c0.2,0.3,0.2,0.7,0.1,1s-0.4,0.6-0.7,0.7c-8,3.5-19,6.1-31.8,7.4 C119.9,187.1,119.8,187.2,119.8,187.2z M121.4,171l-0.3,13.5c11.1-1.3,21.1-3.6,28.4-6.6c-0.1-0.2-0.2-0.4-0.3-0.6 c-0.1-0.1-0.1-0.2-0.2-0.2c-0.5-0.2-2.2,0.8-3.3,1.4c-1.2,0.7-2.4,1.3-3.7,1.8c-4.6,1.5-6-1.1-7.7-4c-0.6-1-1.2-2.2-2.1-3.4 C129.3,168.7,123.5,170.3,121.4,171z"/></g><g><g><path fill="#FFF" d="M116.9,162c0.1-1.6-0.4-3.2-1.5-4.2c-1.1-1-2.6-1.3-4.1-0.9c-1-0.9-2.5-1.3-4.1-0.9 c-1.6,0.4-3.1,1.4-4.3,2.8c-1.5,0.3-3.1,1.3-4.3,2.8c-1.2,1.5-1.9,3.3-1.9,4.9c-1.1,1.4-1.9,3.2-1.9,4.9 c-0.1,1.8,0.5,3.2,1.5,4.2c-0.1,1.6,0.4,3.2,1.5,4.2c1.1,1,2.6,1.3,4.1,0.9c1,0.9,2.5,1.3,4.1,0.9c1.6-0.4,3.1-1.4,4.3-2.8 c1.5-0.3,3.1-1.3,4.3-2.8c1.2-1.5,1.9-3.3,1.9-4.9c1.1-1.4,1.9-3.2,1.9-4.9C118.5,164.4,117.9,162.9,116.9,162z"/><path fill="#611940" d="M104.8,182.1c-1.1,0-2.2-0.4-3-1.1c-1.6,0.3-3.1,0-4.2-1c-1.1-1-1.7-2.5-1.6-4.2 c-1.1-1-1.6-2.5-1.5-4.3c0.1-1.7,0.8-3.5,1.9-5c0.1-1.7,0.8-3.5,2-5c1.2-1.5,2.7-2.5,4.3-2.9c1.2-1.5,2.7-2.5,4.4-2.8 c1.6-0.4,3.1,0,4.2,0.9c1.6-0.3,3.1,0,4.2,1c1.1,1,1.7,2.5,1.6,4.2c1.1,1,1.6,2.5,1.5,4.3c-0.1,1.7-0.8,3.5-1.9,5 c-0.1,1.7-0.8,3.5-2,5c-1.2,1.5-2.7,2.5-4.3,2.9c-1.2,1.5-2.7,2.5-4.4,2.8C105.6,182,105.2,182.1,104.8,182.1z M102,180.4 L102,180.4c1.1,1,2.5,1.3,4,1c1.5-0.3,3-1.3,4.1-2.7l0.1-0.1l0.1,0c1.5-0.3,3-1.3,4.1-2.7c1.1-1.4,1.8-3.1,1.9-4.8l0-0.1 l0.1-0.1c1.1-1.4,1.8-3.1,1.9-4.8c0.1-1.6-0.5-3-1.5-4l-0.1-0.1l0-0.1c0.1-1.6-0.5-3-1.5-4c-1-0.9-2.4-1.2-3.9-0.9l-0.1,0 l-0.1-0.1c-1-0.9-2.4-1.2-3.9-0.9c-1.5,0.3-3,1.3-4.1,2.7L103,159l-0.1,0c-1.5,0.3-3,1.3-4.1,2.7c-1.1,1.4-1.8,3.1-1.9,4.8 l0,0.1l-0.1,0.1c-1.1,1.4-1.8,3.1-1.9,4.8c-0.1,1.6,0.5,3,1.5,4l0.1,0.1l0,0.1c-0.1,1.6,0.5,3,1.5,4c1,0.9,2.4,1.2,3.9,0.9 L102,180.4z"/></g><g><path fill="#371A45" d="M104.8,183.1c-1.2,0-2.3-0.3-3.3-1c-1.7,0.2-3.4-0.2-4.6-1.3c-1.2-1.1-1.9-2.7-2-4.6 c-1.1-1.2-1.6-2.9-1.5-4.7c0.1-1.9,0.8-3.7,2-5.3c0.2-1.8,0.9-3.7,2.2-5.3c1.2-1.6,2.8-2.7,4.6-3.2c1.3-1.5,3-2.5,4.7-2.9 c1.7-0.4,3.4-0.1,4.7,0.8c1.7-0.2,3.4,0.2,4.6,1.3c1.2,1.1,1.9,2.7,2,4.6c1.1,1.2,1.6,2.9,1.5,4.7c-0.1,1.9-0.8,3.7-2,5.3 c-0.2,1.8-0.9,3.7-2.2,5.3c-1.2,1.6-2.8,2.7-4.5,3.2c-1.3,1.5-3,2.5-4.7,2.9C105.8,183,105.3,183.1,104.8,183.1z M102.3,179.3 l0.5,0.4c0.8,0.7,1.8,0.9,3,0.6c1.3-0.3,2.6-1.1,3.6-2.4l0.3-0.3l0.4-0.1c1.3-0.3,2.6-1.1,3.6-2.4c1-1.3,1.6-2.7,1.6-4.2l0-0.4 l0.3-0.3c1-1.3,1.6-2.7,1.6-4.2c0.1-1.3-0.3-2.5-1.1-3.2l-0.4-0.4l0-0.6c0.1-1.3-0.3-2.5-1.1-3.2c-0.8-0.7-1.8-0.9-3-0.6 l-0.6,0.1l-0.5-0.4c-0.8-0.7-1.8-0.9-3-0.6c-1.3,0.3-2.6,1.1-3.6,2.4l-0.3,0.3l-0.4,0.1c-1.3,0.3-2.6,1.1-3.6,2.4 c-1,1.3-1.6,2.7-1.6,4.2l0,0.4l-0.3,0.3c-1,1.3-1.6,2.7-1.6,4.2c-0.1,1.3,0.3,2.5,1.1,3.2l0.4,0.4l0,0.6 c-0.1,1.3,0.3,2.5,1.1,3.2c0.8,0.7,1.8,0.9,3,0.6L102.3,179.3z"/></g><g><path fill="#FA5C98" d="M112.2,161.8c-2.3-0.3-4.5,0.1-6.3,1.2c-0.9,0.5-1.7,1.2-2.4,2c-0.3,0.4-0.7,0.8-0.9,1.3l-0.4,0.7 c-0.1,0.2-0.2,0.5-0.4,0.7c-0.4,0.9-0.6,1.9-0.6,2.9c0,0.5,0.1,0.9,0.2,1.4c0.2,0.4,0.4,0.8,0.6,1.2c0.5,0.7,1.3,1.3,2.1,1.5 c0.8,0.2,1.7,0.2,2.5-0.2c0.8-0.3,1.5-1,2.1-1.7c0.6-0.8,1.2-1.7,1.5-2.6c0.3-0.9,0.5-1.9,0.3-2.6c-0.2-0.7-0.6-1.2-1.4-1.4 c-0.7-0.2-1.6-0.1-2.4,0.3c-0.4,0.2-0.7,0.5-1,0.8l-0.2,0.3c-0.1,0.1-0.1,0.2-0.2,0.3c-0.1,0.2-0.2,0.4-0.3,0.5 c-0.1,0.1-0.1,0.2-0.1,0.3c0,0.1-0.1,0.2-0.1,0.3l0,0.3c0,0.1,0,0.2,0,0.3c0,0.4,0.2,0.8,0.4,1.1c0.2,0.3,0.6,0.6,1,0.7 c0.5,0.1,1,0,1.6-0.2l0,0c0,0,0.1,0,0.1,0c0,0,0,0,0,0.1c-0.4,0.5-0.9,0.9-1.6,1.1c-0.7,0.2-1.5,0-2.1-0.5 c-0.6-0.4-1.1-1.1-1.3-1.9c-0.3-0.8-0.2-1.6,0-2.3c0.1-0.4,0.2-0.7,0.4-1c0.1-0.2,0.2-0.3,0.3-0.5l0.3-0.4 c0.4-0.6,1-1.1,1.6-1.4c1.3-0.7,2.8-1.1,4.3-0.7c0.8,0.2,1.5,0.6,2.1,1.1c0.6,0.6,1,1.3,1.2,2.1c0.2,0.8,0.2,1.5,0.1,2.2 c-0.1,0.7-0.3,1.4-0.5,2c-0.1,0.3-0.3,0.6-0.4,0.9c-0.1,0.3-0.3,0.6-0.4,0.8c-0.3,0.5-0.7,1.1-1.1,1.6c-0.8,1-1.9,2-3.3,2.5 c-1.3,0.6-2.9,0.6-4.3,0.2c-1.4-0.4-2.6-1.4-3.4-2.6c-0.4-0.6-0.7-1.2-0.9-1.9c-0.2-0.7-0.3-1.4-0.3-2c0-1.4,0.4-2.7,1-3.8 c0.2-0.3,0.3-0.6,0.5-0.8l0.5-0.8c0.3-0.5,0.8-1,1.2-1.5c0.9-0.9,1.8-1.8,3-2.3c2.3-1.1,5.1-1.1,7.2,0.1c0.1,0,0.1,0.1,0.1,0.2 C112.4,161.7,112.3,161.8,112.2,161.8L112.2,161.8z"/></g><g opacity=".35"><path fill="#371A45" d="M118.4,166.1c-0.1,1.8-0.8,3.5-1.9,4.9c-0.1,1.6-0.7,3.4-1.9,4.9c-1.2,1.5-2.8,2.5-4.3,2.8 c-1.1,1.4-2.6,2.5-4.3,2.8c-1.6,0.4-3.1,0-4.1-0.9c-1.5,0.3-3,0.1-4.1-0.9c-1.1-1-1.6-2.5-1.5-4.2c-1-0.9-1.6-2.4-1.5-4.2 c0-1.1,0.4-2.3,0.9-3.3c0.3,0.8,0.7,1.4,1.3,2c-0.1,1.6,0.4,3.2,1.5,4.2c1.1,1,2.6,1.3,4.1,0.9c1,0.9,2.5,1.3,4.1,0.9 c1.6-0.4,3.2-1.4,4.3-2.8c1.5-0.3,3.1-1.3,4.3-2.8c1.2-1.5,1.9-3.3,1.9-4.9c0.4-0.5,0.8-1,1-1.6 C118.3,164.6,118.4,165.3,118.4,166.1z"/></g></g><g><g><path fill="#FFF" d="M133.3,172c0.2-1.6-0.1-3.2-1.1-4.3s-2.4-1.6-4-1.4c-0.9-1-2.3-1.6-4-1.4c-1.7,0.2-3.3,1.1-4.6,2.3 c-1.5,0.2-3.2,1-4.6,2.3c-1.4,1.4-2.2,3.1-2.5,4.7c-1.3,1.3-2.2,2.9-2.5,4.7c-0.3,1.8,0.2,3.3,1.1,4.3 c-0.2,1.6,0.1,3.2,1.1,4.3c1,1.1,2.4,1.6,4,1.4c0.9,1,2.3,1.6,4,1.4c1.7-0.2,3.3-1.1,4.6-2.3c1.5-0.2,3.2-1,4.6-2.3 c1.4-1.4,2.2-3.1,2.5-4.7c1.3-1.3,2.2-2.9,2.5-4.7C134.6,174.6,134.2,173,133.3,172z"/><path fill="#611940" d="M119.7,190.7c-1.4,0-2.6-0.5-3.4-1.4c-1.6,0.1-3.1-0.4-4.1-1.5c-1-1.1-1.4-2.7-1.2-4.4 c-0.9-1.1-1.3-2.7-1.1-4.4c0.3-1.7,1.1-3.4,2.5-4.8c0.3-1.7,1.2-3.4,2.5-4.8c1.3-1.3,3-2.2,4.6-2.4c1.4-1.3,3-2.2,4.6-2.3 c1.6-0.2,3.1,0.3,4.1,1.4c1.6-0.1,3.1,0.4,4.1,1.5c1,1.1,1.4,2.7,1.2,4.4c0.9,1.1,1.3,2.7,1.1,4.4c-0.3,1.7-1.1,3.4-2.5,4.8 c-0.3,1.7-1.2,3.4-2.5,4.8c-1.3,1.3-3,2.2-4.6,2.4c-1.4,1.3-3,2.2-4.6,2.3C120.1,190.6,119.9,190.7,119.7,190.7z M116.4,188.7 L116.4,188.7c1,1.1,2.3,1.6,3.9,1.4c1.6-0.2,3.1-1,4.4-2.3l0.1-0.1l0.1,0c1.6-0.2,3.1-1,4.4-2.3c1.3-1.3,2.1-2.9,2.4-4.5l0-0.1 l0.1-0.1c1.3-1.3,2.1-2.9,2.4-4.5c0.2-1.6-0.1-3.1-1-4.1l-0.1-0.1l0-0.1c0.2-1.6-0.1-3.1-1-4.1c-0.9-1-2.2-1.5-3.8-1.3l-0.1,0 l-0.1-0.1c-0.9-1-2.2-1.5-3.8-1.3c-1.6,0.2-3.1,1-4.4,2.3l-0.1,0.1l-0.1,0c-1.6,0.2-3.1,1-4.4,2.3c-1.3,1.3-2.1,2.9-2.4,4.5 l0,0.1l-0.1,0.1c-1.3,1.3-2.1,2.9-2.4,4.5c-0.2,1.6,0.1,3.1,1,4.1l0.1,0.1l0,0.1c-0.2,1.6,0.1,3.1,1,4.1c0.9,1,2.2,1.5,3.8,1.3 L116.4,188.7z"/></g><g><path fill="#371A45" d="M119.7,191.7c-1.5,0-2.8-0.5-3.9-1.4c-1.8,0-3.4-0.6-4.4-1.8c-1.1-1.2-1.6-2.9-1.5-4.8 c-0.9-1.3-1.3-3-1-4.9c0.3-1.8,1.2-3.6,2.5-5.1c0.4-1.8,1.3-3.6,2.7-5c1.4-1.4,3.1-2.3,4.9-2.6c1.5-1.4,3.2-2.2,5-2.4 c1.8-0.2,3.4,0.3,4.6,1.3c1.8,0,3.4,0.6,4.4,1.8c1.1,1.2,1.6,2.9,1.5,4.8c0.9,1.3,1.3,3,1,4.9c-0.3,1.8-1.2,3.6-2.5,5.1 c-0.4,1.8-1.3,3.6-2.7,5c-1.4,1.4-3.1,2.3-4.9,2.6c-1.5,1.4-3.2,2.2-5,2.4C120.2,191.7,120,191.7,119.7,191.7z M116.9,187.6 l0.4,0.5c0.7,0.8,1.7,1.1,2.9,1c1.3-0.1,2.7-0.8,3.8-2l0.3-0.3l0.4,0c1.3-0.1,2.7-0.8,3.8-2c1.1-1.1,1.9-2.6,2.1-4l0.1-0.4 l0.3-0.3c1.1-1.1,1.9-2.6,2.1-4c0.2-1.3-0.1-2.5-0.8-3.3l-0.4-0.4l0.1-0.6c0.2-1.3-0.1-2.5-0.8-3.3c-0.7-0.8-1.7-1.1-2.9-1 l-0.7,0.1l-0.4-0.5c-0.7-0.8-1.7-1.1-2.9-1c-1.3,0.1-2.7,0.8-3.8,2l-0.3,0.3l-0.4,0c-1.3,0.1-2.7,0.8-3.8,2 c-1.1,1.1-1.9,2.6-2.1,4l-0.1,0.4l-0.3,0.3c-1.1,1.1-1.9,2.6-2.1,4c-0.2,1.3,0.1,2.5,0.8,3.3l0.4,0.4l-0.1,0.6 c-0.2,1.3,0.1,2.5,0.8,3.3c0.7,0.8,1.7,1.1,2.9,1L116.9,187.6z"/></g><g><path fill="#FA5C98" d="M128.7,171.3c-2.2-0.5-4.5-0.4-6.4,0.5c-1,0.4-1.8,1.1-2.6,1.8c-0.4,0.4-0.8,0.7-1.1,1.2l-0.5,0.6 c-0.2,0.2-0.3,0.4-0.4,0.7c-0.5,0.9-0.8,1.9-0.9,2.8c0,0.5,0,0.9,0.1,1.4c0.1,0.4,0.3,0.9,0.5,1.3c0.4,0.8,1.1,1.4,1.9,1.7 c0.8,0.3,1.7,0.4,2.5,0.1c0.8-0.2,1.6-0.8,2.3-1.5c0.7-0.7,1.3-1.6,1.8-2.5c0.4-0.9,0.7-1.8,0.6-2.5c-0.1-0.7-0.5-1.2-1.2-1.5 c-0.7-0.3-1.6-0.3-2.4,0c-0.4,0.2-0.7,0.4-1.1,0.7l-0.3,0.2c-0.1,0.1-0.1,0.2-0.2,0.2c-0.2,0.2-0.2,0.3-0.4,0.5 c-0.1,0.1-0.1,0.2-0.1,0.3c0,0.1-0.1,0.2-0.1,0.3l-0.1,0.3c0,0.1,0,0.2,0,0.3c0,0.4,0.1,0.8,0.3,1.1c0.2,0.3,0.5,0.7,1,0.8 c0.4,0.2,1,0.1,1.6,0l0,0c0,0,0.1,0,0.1,0c0,0,0,0,0,0.1c-0.4,0.4-1,0.8-1.7,0.9c-0.7,0.1-1.5-0.2-2.1-0.7 c-0.6-0.5-1-1.2-1.1-2c-0.2-0.8,0-1.6,0.2-2.3c0.2-0.3,0.3-0.7,0.5-1c0.1-0.2,0.2-0.3,0.3-0.4l0.4-0.4c0.5-0.5,1.1-1,1.8-1.3 c1.3-0.6,2.9-0.7,4.4-0.2c0.7,0.3,1.4,0.7,2,1.4c0.5,0.6,0.9,1.4,1,2.2c0.1,0.8,0.1,1.6-0.1,2.3c-0.2,0.7-0.4,1.3-0.7,1.9 c-0.1,0.3-0.3,0.6-0.5,0.9c-0.2,0.3-0.4,0.5-0.5,0.8c-0.4,0.5-0.8,1-1.3,1.5c-0.9,0.9-2.1,1.8-3.5,2.1c-1.4,0.4-3,0.3-4.3-0.3 c-1.3-0.6-2.4-1.7-3-2.9c-0.3-0.6-0.5-1.3-0.7-2c-0.1-0.7-0.1-1.4,0-2.1c0.2-1.3,0.7-2.6,1.4-3.7c0.2-0.3,0.4-0.5,0.6-0.8 l0.6-0.7c0.4-0.5,0.9-0.9,1.3-1.3c1-0.8,2-1.5,3.2-1.9c2.4-0.8,5.2-0.5,7.1,0.9c0.1,0,0.1,0.1,0,0.2 C128.8,171.3,128.8,171.3,128.7,171.3L128.7,171.3z"/></g><g opacity=".35"><path fill="#371A45" d="M134.4,176.3c-0.3,1.8-1.2,3.4-2.5,4.7c-0.2,1.6-1.1,3.3-2.5,4.7c-1.4,1.4-3,2.2-4.6,2.3 c-1.3,1.3-2.9,2.1-4.6,2.3c-1.7,0.2-3.1-0.4-4-1.4c-1.5,0.2-3-0.3-4-1.4c-1-1.1-1.3-2.7-1.1-4.3c-0.9-1-1.3-2.5-1.1-4.3 c0.1-0.7,0.3-1.3,0.6-1.9c0.1,0.3,0.3,0.5,0.5,0.7c-0.2,1.6,0.1,3.2,1.1,4.3c1,1.1,2.4,1.6,4,1.4c0.9,1,2.3,1.6,4,1.4 c1.7-0.2,3.3-1.1,4.6-2.3c1.5-0.2,3.2-1,4.6-2.3c1.4-1.4,2.2-3.1,2.5-4.7c0.8-0.8,1.4-1.7,1.9-2.7 C134.3,173.7,134.6,174.9,134.4,176.3z"/></g></g><g><g><path fill="#FFCF20" d="M116.5,186.2c-1.9,0.2-3.9,0.3-5.9,0.4c-1.2-0.4-2.8-0.8-4.7-1.2c-1.8-0.3-3.2-1.3-4.6-2.4 c-3.1-2.3-6-5.2-13-3c-3,0.9-4.6,3.3-6.1,6c-2.3-0.2-4.5-0.5-6.7-0.8c3.6-4.2,5.8-9.8,12.9-11.9c10.2-3,11.8,5,17.6,6.1 c0.3,0.1,0.6,0.1,0.9,0.2C113,180.9,114.7,182.4,116.5,186.2z"/></g><g><path fill="#FFCF20" d="M110.6,186.6c-3.4,0.2-6.8,0.3-10.4,0.3c-4.5,0-8.9-0.2-13.1-0.4c-1.7-0.1-3.4-0.3-5-0.4 c1.5-2.6,3.1-5,6.1-6c7-2.2,9.9,0.7,13,3c1.4,1.1,2.8,2,4.6,2.4C107.9,185.8,109.4,186.2,110.6,186.6z"/></g><g opacity=".35"><path fill="#371A45" d="M116.5,186.2c-1.9,0.2-3.9,0.3-5.9,0.4c-3.4,0.2-6.8,0.3-10.4,0.3c-4.5,0-8.9-0.2-13.1-0.4 c3.4-0.4,9.5-1.3,13.7-3.1c0.1-0.1,0.3-0.1,0.4-0.2c2.2-1.1,3.9-2.3,5.5-3.4C113,180.9,114.7,182.4,116.5,186.2z"/></g></g><g><path fill="#371A45" d="M110.5,187.9l-0.2-0.1c-1.2-0.4-2.6-0.8-4.5-1.1c-2.4-0.4-4.1-1.8-5.8-3.1c-2.7-2.1-5.3-4.1-11.2-2.3 c-2.5,0.8-3.9,2.8-5.4,5.4l-0.4,0.7l-0.8-0.1c-2.3-0.2-4.6-0.5-6.8-0.8l-2.3-0.3l1.5-1.8c0.9-1,1.6-2.1,2.4-3.2 c2.5-3.5,5.3-7.4,11-9.1c7.1-2.1,10.6,0.9,13.5,3.3c1.6,1.3,2.9,2.5,4.8,2.8c7,1.3,9.4,2.8,11.5,7.4l0.8,1.6l-1.8,0.2 c-2,0.2-4,0.3-5.9,0.4L110.5,187.9z M92.9,178c3.9,0,6.4,1.9,8.5,3.6c1.6,1.2,2.9,2.3,4.7,2.6c1.9,0.4,3.4,0.7,4.7,1.1 c1.2-0.1,2.5-0.1,3.7-0.2c-1.5-2.3-3.4-3.4-8.8-4.4c-2.5-0.5-4.2-1.9-5.9-3.4c-2.7-2.3-5.3-4.5-11.1-2.8 c-4.9,1.4-7.2,4.7-9.7,8.1c-0.4,0.5-0.8,1.1-1.2,1.6c1.2,0.2,2.4,0.3,3.7,0.4c1.6-2.6,3.3-4.9,6.4-5.8 C89.8,178.3,91.5,178,92.9,178z"/></g><g><path fill="#371A45" d="M100.3,188.1c-6.2,0-12.3-0.3-18.2-0.9l-2-0.2l1-1.7c1.7-2.9,3.5-5.5,6.8-6.5c7.1-2.2,10.5,0.4,13.5,2.7 c1.6,1.2,2.9,2.3,4.7,2.6c2.1,0.4,3.6,0.8,4.9,1.2l6.1,2.1l-6.5,0.3C107.3,188.1,103.8,188.1,100.3,188.1z M84.3,184.9 c6,0.5,12.2,0.7,18.4,0.6c-1-0.6-2-1.3-2.9-2c-2.7-2.1-5.3-4.1-11.2-2.3C86.7,181.9,85.5,183.2,84.3,184.9z"/></g><g><g><path fill="#FEE067" d="M75.1,185.2c-2.5-0.3-4.9-0.8-7.2-1.2c2-0.8,4.8-1.7,5.9-1.3C74.4,182.9,74.8,184.1,75.1,185.2z"/></g><g><path fill="#FFCF20" d="M85.1,186.3c-1.7-0.1-3.4-0.3-5.1-0.5c-0.4-1.3-0.7-2.6-1.1-3.9c-0.7-2.5-1.9-3.7-3.3-4.1 c-3-0.9-7.1,1.7-9.9,1.8c-4,0.1-4.4-3.3-7.7-4.5c-2.7-1-7.5,0.8-10.9,2.4c-1.7-0.8-3.2-1.7-4.5-2.7c5.3-2.5,11.1-8,16.8-6.8 c4.8,1,3.6,6.9,8.8,6c5.1-1,11.1-3.4,13.3,0.4c0,0.1,0.1,0.2,0.1,0.3C83.1,177.4,83.6,182.6,85.1,186.3z"/></g><g><path fill="#FFCF20" d="M75.1,185.2L75.1,185.2c-0.3-1.1-0.7-2.3-1.3-2.5c-1.1-0.4-3.9,0.5-5.9,1.3c-1.6-0.3-3.2-0.6-4.7-1 c-6.3-1.5-11.8-3.3-16.1-5.5c3.4-1.6,8.2-3.4,10.9-2.4c3.3,1.2,3.7,4.6,7.7,4.5c2.8-0.1,6.9-2.7,9.9-1.8 c1.4,0.4,2.6,1.6,3.3,4.1c0.4,1.3,0.7,2.6,1.1,3.9C78.3,185.6,76.7,185.4,75.1,185.2z"/></g><g><path fill="#FEE067" d="M75.1,185.2c-2.5-0.3-4.9-0.8-7.2-1.2c2-0.8,4.8-1.7,5.9-1.3C74.4,182.9,74.8,184.1,75.1,185.2z"/></g><g><path fill="#371A45" d="M75.1,186.5c-0.1,0-0.1,0-0.2,0c-2.4-0.3-4.9-0.7-7.3-1.2c-0.6-0.1-1-0.6-1-1.1c0-0.6,0.3-1.1,0.8-1.3 c5-1.9,6.3-1.5,6.8-1.3c0.9,0.3,1.6,1.4,2.1,3.4c0.1,0.4,0,0.8-0.3,1.2C75.8,186.3,75.5,186.5,75.1,186.5z"/></g><g><path fill="#371A45" d="M85.1,187.5c0,0-0.1,0-0.1,0c-1.8-0.1-3.5-0.3-5.1-0.5c-0.5-0.1-0.9-0.4-1.1-0.9 c-0.2-0.8-0.5-1.7-0.7-2.5c-0.1-0.5-0.3-0.9-0.4-1.4c-0.4-1.6-1.1-2.6-1.9-3c-1.5-0.8-3.7,0-5.8,0.7c-1.5,0.5-2.9,1-4.2,1 c-2.9,0.1-4.3-1.4-5.6-2.6c-0.8-0.8-1.5-1.5-2.6-2c-1.7-0.6-5.3,0.2-9.9,2.4c-0.4,0.2-0.8,0.2-1.1,0c-1.8-0.9-3.3-1.8-4.7-2.8 c-0.4-0.3-0.6-0.7-0.5-1.1s0.3-0.8,0.7-1c1.4-0.7,2.9-1.6,4.5-2.6c4.2-2.6,8.5-5.3,13.1-4.3c2.7,0.6,3.9,2.4,4.8,3.9 c1.1,1.7,1.6,2.4,3.5,2c0.9-0.2,1.9-0.4,2.9-0.6c4.6-1.1,9.7-2.3,11.9,2c0.8,1.6,1.3,3.8,1.8,6.1c0.4,1.9,0.9,3.9,1.6,5.6 c0.2,0.4,0.1,0.9-0.2,1.2C85.8,187.4,85.5,187.5,85.1,187.5z M81,184.6c0.7,0.1,1.5,0.1,2.3,0.2c-0.4-1.3-0.7-2.7-1-4.1 c-0.5-2.2-1-4.2-1.6-5.5c-1.2-2.3-4.4-1.8-9.1-0.7c-1,0.2-2,0.5-3,0.7c-3.7,0.7-5-1.5-6.1-3.2c-0.8-1.3-1.5-2.4-3.2-2.8 c-3.6-0.8-7.5,1.6-11.2,4c-0.9,0.6-1.9,1.2-2.8,1.7c0.6,0.4,1.3,0.8,2,1.1c5.1-2.3,8.9-3.1,11.3-2.2c1.6,0.6,2.7,1.6,3.6,2.6 c1.1,1.1,1.9,1.9,3.7,1.9c0.9,0,2.1-0.4,3.4-0.9c2.5-0.8,5.4-1.8,7.8-0.5c1.5,0.8,2.5,2.3,3.2,4.6c0.1,0.5,0.3,0.9,0.4,1.4 C80.7,183.5,80.8,184.1,81,184.6z"/></g><g><path fill="#371A45" d="M80,187.1c0,0-0.1,0-0.1,0c-1.7-0.2-3.4-0.4-4.9-0.6c-0.5-0.1-1-0.5-1.1-1c-0.3-1-0.5-1.4-0.6-1.6 c-0.5,0-2,0.2-4.9,1.3c-0.2,0.1-0.5,0.1-0.7,0.1c-8.4-1.6-15.7-3.9-21-6.6c-0.4-0.2-0.7-0.7-0.7-1.1c0-0.5,0.3-0.9,0.7-1.1 c5.4-2.5,9.4-3.4,11.8-2.4c1.6,0.6,2.7,1.6,3.6,2.6c1.1,1.1,1.9,1.9,3.7,1.9c0.9,0,2.1-0.4,3.4-0.9c2.5-0.8,5.4-1.8,7.8-0.5 c1.5,0.8,2.5,2.3,3.2,4.6c0.1,0.5,0.3,0.9,0.4,1.4c0.2,0.8,0.4,1.7,0.7,2.5c0.1,0.4,0,0.8-0.2,1.2 C80.7,186.9,80.4,187.1,80,187.1z M76.1,184c0.7,0.1,1.4,0.2,2.2,0.3c-0.1-0.2-0.1-0.4-0.2-0.7c-0.1-0.5-0.3-0.9-0.4-1.4 c-0.4-1.6-1.1-2.6-1.9-3c-1.5-0.8-3.7,0-5.8,0.7c-1.5,0.5-2.9,1-4.2,1c-2.9,0.1-4.3-1.4-5.6-2.6c-0.8-0.8-1.5-1.5-2.6-2 c-1.4-0.5-4-0.1-7.3,1.3c4.7,2,10.7,3.8,17.5,5.1c4.7-1.8,6-1.3,6.4-1.2C75,181.8,75.6,182.6,76.1,184z"/></g><g><path fill="#371A45" d="M75.1,186.5c-0.1,0-0.1,0-0.2,0c-2.4-0.3-4.9-0.7-7.3-1.2c-0.6-0.1-1-0.6-1-1.1c0-0.6,0.3-1.1,0.8-1.3 c5-1.9,6.3-1.5,6.8-1.3c0.9,0.3,1.6,1.4,2.1,3.4c0.1,0.4,0,0.8-0.3,1.2C75.8,186.3,75.5,186.5,75.1,186.5z"/></g><g opacity=".35"><path fill="#371A45" d="M85.1,186.3c-1.7-0.1-3.4-0.3-5.1-0.5c-1.7-0.2-3.3-0.4-4.9-0.6v0c-0.3-1.1-0.7-2.3-1.3-2.5 c-1.1-0.4-3.9,0.5-5.9,1.3c-1.6-0.3-3.2-0.6-4.7-1c1.6-0.1,3.3-0.3,5.1-0.8c3.2-0.9,5.4-2.7,7.4-4.4c2.2-1.9,3.9-3.6,5.9-3.4 c0,0.1,0.1,0.2,0.1,0.3C83.1,177.4,83.6,182.6,85.1,186.3z"/></g></g><g><g><path fill="#F4384B" d="M134.7,219.1c0,6.4-12.1,12.9-34.4,12.9c-22.3,0-34.4-6.5-34.4-12.9c0-0.5,0.1-1,0.3-1.5 c2.2-5.6,16.7-10,34.1-10s31.9,4.3,34.1,10C134.6,218,134.7,218.6,134.7,219.1z"/></g><g><path fill="#371A45" d="M100.3,233.2c-23.4,0-35.7-7.1-35.7-14.2c0-8.3,18.4-12.8,35.7-12.8c17.3,0,35.7,4.5,35.7,12.8 C136,226.1,123.7,233.2,100.3,233.2z M100.3,208.8c-19.5,0-33.2,5.4-33.2,10.2c0,4.8,10.3,11.6,33.2,11.6 c22.9,0,33.2-6.8,33.2-11.6C133.5,214.2,119.8,208.8,100.3,208.8z"/></g><g opacity=".35"><path fill="#371A45" d="M134.4,217.5c0-0.1-0.1-0.2-0.1-0.3c0-0.1-0.1-0.2-0.1-0.3c0-0.1-0.1-0.1-0.1-0.2 c-0.1-0.1-0.1-0.2-0.2-0.3c-0.1-0.1-0.1-0.2-0.2-0.2c0-0.1-0.1-0.1-0.1-0.2c-3.9-4.9-17.3-8.5-33.3-8.5 c-15.9,0-29.3,3.6-33.3,8.5c-0.1,0.1-0.2,0.2-0.3,0.4c0,0-0.1,0.1-0.1,0.2c-0.1,0.1-0.2,0.3-0.2,0.4c0,0,0,0.1-0.1,0.1 c0,0,0,0.1-0.1,0.1c0,0.1-0.1,0.2-0.1,0.3c-0.2,0.5-0.3,1-0.3,1.5c0,6.4,12.1,12.9,34.4,12.9c22.3,0,34.4-6.5,34.4-12.9 C134.7,218.6,134.6,218,134.4,217.5z M100.3,228.4c-15.8,0-26.3-3.4-30.8-7.6c-0.6-0.6,0.1-1.5,0.8-1.2 c8.3,3.8,18.3,6.1,30,6.1c11.7,0,21.6-2.3,30-6.1c0.7-0.3,1.4,0.6,0.8,1.2C126.6,225,116.1,228.4,100.3,228.4z"/></g><g><path fill="#F4384B" d="M163.4,166.5c0,24.3-19.7,55.7-63.1,55.7c-18.7,0-33-5.8-43.2-14.4c-11.6-9.7-17.9-22.9-19.5-35.2 c-0.3-2.1-0.4-4.1-0.4-6.1c0,1.4,0.5,2.8,1.3,4.2c1.4,2.1,3.8,4.2,7.1,6c10.9,6.1,31.3,10.2,54.7,10.2 C135.2,186.9,163.4,177.8,163.4,166.5z"/></g><g opacity=".35"><path fill="#371A45" d="M163.4,166.5c0,24.3-19.7,55.7-63.1,55.7c-18.7,0-33-5.8-43.2-14.4c-3.3-2.8-6.2-5.9-8.7-9.2 c-0.1-0.1-0.2-0.3-0.3-0.4c-0.1-0.1-0.2-0.3-0.3-0.4c-0.1-0.1-0.2-0.3-0.3-0.4c-0.6-0.9-1.2-1.8-1.8-2.6 c-0.1-0.2-0.2-0.3-0.3-0.5c-0.6-1-1.2-2.1-1.8-3.1c-0.1-0.2-0.2-0.4-0.3-0.6c-0.4-0.8-0.8-1.5-1.1-2.3 c-0.3-0.6-0.5-1.2-0.8-1.7c-0.1-0.2-0.2-0.4-0.2-0.6c-0.1-0.2-0.2-0.4-0.2-0.6c-0.2-0.6-0.5-1.2-0.7-1.7 c-0.1-0.4-0.3-0.8-0.4-1.2c-0.2-0.6-0.4-1.2-0.6-1.8c-0.1-0.4-0.2-0.7-0.3-1.1c-0.2-0.7-0.3-1.3-0.5-2c0-0.2-0.1-0.3-0.1-0.5 c-0.3-1.2-0.5-2.5-0.7-3.7c0-0.2,0-0.3-0.1-0.5c0-0.1,0-0.2,0-0.4v0c0.3-0.6,0.6-1.2,0.9-1.9c0,0.1,0.1,0.1,0.1,0.2 c0.1,0.1,0.1,0.2,0.2,0.2c0,0.1,0.1,0.1,0.1,0.2c0.1,0.2,0.3,0.4,0.5,0.6c1.4,1.7,3.6,3.3,6.2,4.8c0.5,1.6,2.9,2.7,5.9,3.5 c8.8,2.5,3.6,10,11.6,21.6c0,0.1,0.1,0.1,0.1,0.2c0.7,1.1,1.5,2.1,2.7,2.8c9.1,5.1,20.5,8.3,34.3,8.3 c35.1,0,54.7-20.5,60.9-41.2C162.6,170.2,163.4,168.4,163.4,166.5z"/></g><g opacity=".35"><path fill="#371A45" d="M37.2,166.5c0,1.5,0.5,3,1.5,4.4c0-0.1-0.1-0.1-0.1-0.2c-0.3,0.6-0.7,1.2-0.9,1.9 C37.3,170.5,37.2,168.5,37.2,166.5z"/></g><g opacity=".35"><path fill="#371A45" d="M42.2,188.3c0.4,0.8,0.7,1.5,1.1,2.3C42.9,189.8,42.5,189,42.2,188.3z"/></g><g opacity=".5"><path fill="#FFF" d="M100.3,186.9c-23.4,0-43.8-4.1-54.7-10.2c-3.3-1.8-5.7-3.9-7.1-6c-0.7-1.1-1.1-2.2-1.3-3.3 c0.1,0.9,0.2,1.5,0.4,3c4,10,30.5,19.8,62.6,19.8c2.3,0,4.5,0,6.8-0.1c0,0.2,0,0.5,0,0.7c0.4,4.1,7.2,6.7,15.1,6 c7.9-0.8,14.1-4.7,13.7-8.7c0-0.4-0.2-0.9-0.3-1.3c14.7-3.2,25.1-10.4,27.4-16.4c0.2-1.5,0.4-2.1,0.4-3 C161.8,178.3,134.2,186.9,100.3,186.9z"/></g><g><path fill="#371A45" d="M100.3,223.4c-25.3,0-40.4-10.4-48.7-19.1c-9.9-10.4-15.6-24.2-15.6-37.8c0-0.7,0.6-1.3,1.3-1.3 c0.7,0,1.3,0.6,1.3,1.3c0,21,16.8,54.4,61.8,54.4c45.1,0,61.8-33.4,61.8-54.4c0-0.7,0.6-1.3,1.3-1.3c0.7,0,1.3,0.6,1.3,1.3 c0,13.6-5.7,27.4-15.6,37.8C140.7,213,125.5,223.4,100.3,223.4z"/></g><g><path fill="#371A45" d="M100.3,223.4c-25.3,0-40.4-10.4-48.7-19.1c-9.9-10.4-15.6-24.2-15.6-37.8c0-0.7,0.6-1.3,1.3-1.3 c0.7,0,1.3,0.6,1.3,1.3c0,9.2,24.9,19.1,61.8,19.1c37,0,61.8-9.9,61.8-19.1c0-0.7,0.6-1.3,1.3-1.3s1.3,0.6,1.3,1.3 c0,13.6-5.7,27.4-15.6,37.8C140.7,213,125.5,223.4,100.3,223.4z M39,173.3c3.2,20.7,20.9,47.6,61.3,47.6 c40.4,0,58.1-26.9,61.3-47.6c-3.2,3.3-8.7,6.4-16.3,8.8c-12,3.9-28,6-45,6s-33-2.1-45-6C47.7,179.7,42.1,176.6,39,173.3z"/></g></g><g><path fill="#FFF" d="M47.5,180.2c8.8,2.5,3.6,10,11.6,21.6c2.6,3.7-6.3,7.4-11.8,5.9C33.6,203.7,26.4,184,34.9,170 c2.2-3.6,5.5-5.6,7.5-6.4c2.7-1,4.3,0.1,4.6,1.1c1.6,4.8-4.7,7.2-5.4,10.7C41.1,177.9,43.8,179.2,47.5,180.2z"/></g><g opacity=".35"><path fill="#371A45" d="M38.6,174.6c0.7-3.8,6.2-5.9,8.7-8.6c0.3,4-5,6.3-5.7,9.5c-0.2,1.2,0.4,2.2,1.6,2.9 C40.2,177.7,38.2,176.6,38.6,174.6z"/></g><g opacity=".35"><path fill="#371A45" d="M47.3,207.7c-6.6-1.9-11.7-7.5-14.3-14.3c2.8,4.3,6.8,7.5,11.5,8.9c4,1.2,10.5-0.1,13.2-2.6 c0.4,0.7,0.8,1.4,1.3,2.1C61.7,205.5,52.8,209.3,47.3,207.7z"/></g><g><path fill="#371A45" d="M50.2,209.3c-1.1,0-2.2-0.1-3.2-0.4c-6.6-1.9-12-7.2-15-14.7c-3.3-8.3-2.6-17.6,1.7-24.8 c2.3-3.7,5.7-6,8.2-6.9c2.2-0.8,3.7-0.4,4.5,0c0.9,0.4,1.5,1.1,1.8,1.9c1.2,3.6-1.2,6.1-3.1,8.1c-1.1,1.1-2.1,2.2-2.3,3.3 c-0.1,0.7,0.2,1.8,5.1,3.2c5.5,1.6,6.3,5.3,7.2,9.5c0.7,3.4,1.6,7.6,5.1,12.6c0.9,1.4,0.9,2.9-0.1,4.3 C58.4,207.7,54.1,209.3,50.2,209.3z M44.4,164.6c-0.4,0-0.9,0.1-1.6,0.3c-2,0.7-4.9,2.6-6.8,5.8c-4,6.5-4.5,15-1.5,22.6 c2.6,6.7,7.5,11.5,13.3,13.2c3.6,1,8.9-0.6,10.3-2.6c0.4-0.6,0.3-1,0.1-1.4c-3.7-5.4-4.7-9.9-5.5-13.5c-0.9-4.1-1.4-6.4-5.5-7.6 l0,0c-2.5-0.7-7.7-2.2-6.8-6.2c0.4-1.8,1.7-3.2,3-4.5c2-2.1,3.2-3.5,2.5-5.6c0-0.1-0.2-0.3-0.5-0.4 C45.1,164.7,44.8,164.6,44.4,164.6z"/></g><g><path fill="#FFF" d="M146.7,121.7c0,0-1.7,11.2,5.9,11.2c6.5,0,4.4-11.8,4.4-11.8L146.7,121.7z"/></g><g><path fill="#371A45" d="M152.7,134.2C152.7,134.2,152.7,134.2,152.7,134.2c-2.2,0-3.9-0.8-5.2-2.2c-3.1-3.6-2.1-10.2-2-10.4 c0.1-0.6,0.6-1,1.2-1.1l10.4-0.6c0.6,0,1.2,0.4,1.3,1c0.1,0.8,1.3,8-1.6,11.4C155.7,133.5,154.3,134.2,152.7,134.2z M147.9,122.9c-0.1,2,0,5.5,1.6,7.4c0.8,0.9,1.8,1.3,3.2,1.3c0,0,0,0,0,0c0.9,0,1.6-0.3,2.1-0.9c1.5-1.8,1.5-5.9,1.2-8.3 L147.9,122.9z"/></g><g><path fill="#371A45" d="M177.5,158.2c-3.2,0-6-1-8.3-2.9c-9.9-7.9-8.9-29.3-8.9-30.2c0-0.7,0.6-1.2,1.3-1.2 c0.7,0,1.2,0.6,1.2,1.3c0,0.2-0.9,21,7.9,28.1c2.9,2.3,6.8,2.9,11.3,1.6c0.7-0.2,1.4,0.2,1.6,0.9c0.2,0.7-0.2,1.4-0.9,1.6 C180.9,158,179.1,158.2,177.5,158.2z"/></g><g><g><g><path fill="#FFA14D" d="M171.9,84.5c-8.3,24.2-16.5,48.4-24.8,72.7c-0.4,1.1-1.5,1.6-2.6,1.3l0,0c-1.1-0.3-1.7-1.5-1.4-2.5 c7.1-24.6,14.2-49.2,21.4-73.7c0.6-2,2.7-3.1,4.7-2.5l0.3,0.1C171.5,80.4,172.6,82.5,171.9,84.5z"/></g></g><g><g><path fill="#371A45" d="M145.2,159.8c-0.3,0-0.7,0-1-0.2c0,0,0,0,0,0c-1.7-0.5-2.7-2.4-2.2-4.1l21.4-73.7 c0.4-1.3,1.2-2.4,2.4-3c1.2-0.6,2.6-0.8,3.8-0.4l0.3,0.1c1.3,0.4,2.3,1.3,2.9,2.5c0.6,1.2,0.7,2.6,0.3,3.9l0,0l-24.8,72.7 C147.9,158.9,146.6,159.8,145.2,159.8z M168.1,80.7c-0.4,0-0.8,0.1-1.1,0.3c-0.6,0.3-1,0.8-1.2,1.5l-21.4,73.7 c-0.1,0.4,0.1,0.8,0.5,1c0,0,0,0,0,0c0.4,0.1,0.8-0.1,1-0.5l24.8-72.7c0.2-0.6,0.2-1.3-0.1-1.9c-0.3-0.6-0.8-1-1.4-1.2 l-0.3-0.1C168.6,80.8,168.3,80.7,168.1,80.7z M171.9,84.5L171.9,84.5L171.9,84.5z"/></g></g></g><g><g><g><path fill="#FFA14D" d="M171.9,84.5c-8.3,24.2-16.5,48.4-24.8,72.7c-0.4,1.1-1.5,1.6-2.6,1.3l0,0c-1.1-0.3-1.7-1.5-1.4-2.5 c7.1-24.6,14.2-49.2,21.4-73.7c0.6-2,2.7-3.1,4.7-2.5l0.3,0.1C171.5,80.4,172.6,82.5,171.9,84.5z"/></g></g><g><g><path fill="#FFF" d="M171.1,80.7L171.1,80.7c-2-0.6-4.2,0.5-4.7,2.5c-7.1,24.6-14.2,49.2-21.4,73.7 c-0.2,0.6-0.1,1.1,0.2,1.6c-0.2,0-0.4,0-0.6-0.1l0,0c-1.1-0.3-1.7-1.5-1.4-2.5c7.1-24.6,14.2-49.2,21.4-73.7 c0.6-2,2.7-3.1,4.7-2.5l0.3,0.1C170.1,79.9,170.7,80.3,171.1,80.7z"/></g></g><g opacity=".35"><g><path fill="#371A45" d="M171.9,84.5c-8.3,24.2-16.5,48.4-24.8,72.7c-0.4,1.1-1.5,1.6-2.6,1.3l0,0c-1.1-0.3-1.7-1.5-1.4-2.5 c0.4-1.3,0.8-2.7,1.2-4c1,0.2,2-0.4,2.3-1.4c8-23.4,16-46.8,23.9-70.2C171.9,81.2,172.5,82.9,171.9,84.5z"/></g></g><g><g><path fill="#371A45" d="M145.2,159.8c-0.3,0-0.7,0-1-0.2c0,0,0,0,0,0c-1.7-0.5-2.7-2.4-2.2-4.1l21.4-73.7 c0.4-1.3,1.2-2.4,2.4-3c1.2-0.6,2.6-0.8,3.8-0.4l0.3,0.1c1.3,0.4,2.3,1.3,2.9,2.5c0.6,1.2,0.7,2.6,0.3,3.9l0,0l-24.8,72.7 C147.9,158.9,146.6,159.8,145.2,159.8z M168.1,80.7c-0.4,0-0.8,0.1-1.1,0.3c-0.6,0.3-1,0.8-1.2,1.5l-21.4,73.7 c-0.1,0.4,0.1,0.8,0.5,1c0,0,0,0,0,0c0.4,0.1,0.8-0.1,1-0.5l24.8-72.7c0.2-0.6,0.2-1.3-0.1-1.9c-0.3-0.6-0.8-1-1.4-1.2 l-0.3-0.1C168.6,80.8,168.3,80.7,168.1,80.7z M171.9,84.5L171.9,84.5L171.9,84.5z"/></g></g></g><g><g><g><path fill="#F7AF41" d="M102,179c0,0-1.1,3.5,7.1-1.5c8.2-5,28.7-8.9,38.4-7.6s2.9-21.8-4.4-25.5 C135.9,140.7,113.5,156.6,102,179z"/></g><g opacity=".3"><path fill="#6C184E" d="M102.7,178.3c0,0-1.8,4.3,6.4-0.7c8.2-5,28.7-8.9,38.4-7.6s2.9-21.8-4.4-25.5 C135.9,140.8,114.1,155.9,102.7,178.3z"/></g><g><path fill="#6C184E" d="M103.5,180.4c-0.4,0-0.8-0.1-1-0.3c-0.8-0.6-0.4-1.9-0.4-1.9s0,0,0-0.1c5.3-10.3,12.1-17.8,16.8-22.3 c6.1-5.7,12.4-9.9,17.5-11.5c3-1,5.3-1,6.9-0.2c2.6,1.3,5.4,5.2,7.3,10.3c1.9,5,2.5,9.9,1.6,12.8c-0.6,2.1-2.1,3.2-4,3.2 c-0.3,0-0.5,0-0.8-0.1c-9.9-1.3-30.3,2.8-38.1,7.6C106.6,179.6,104.7,180.4,103.5,180.4z M102.8,178.4 c-0.1,0.2-0.2,0.8,0.1,1.1c0.3,0.2,1.4,0.6,6.1-2.2c3.8-2.4,10.7-4.7,18.8-6.2c7.8-1.5,15.2-2.1,19.9-1.4 c2.1,0.3,3.4-0.6,4-2.6c0.9-2.8,0.3-7.5-1.6-12.4c-1.9-4.8-4.5-8.6-6.9-9.8c-1.4-0.7-3.7-0.7-6.4,0.2 c-5,1.6-11.3,5.7-17.2,11.4C114.8,160.8,108,168.2,102.8,178.4z"/></g><g><g><path fill="#FFCE00" d="M143.7,148.8c-1.2-0.3,0.1-0.7-1.4-2.2c-1.5-1.5-3.1-0.3-3.1-0.3c0.3-0.5,0.4-1.1,0-1.4 c-1.3-1.8-4.7-0.7-6-2.1c-1.3-1.4-4.2-0.1-4.2-0.1s-17.8,10.7-22.9,22.8c-5.1,12.2-4.7,16-2.5,15.1c2.2-0.8,3.8-2.8,5.5-1.3 s-0.4,4.3,1.5,5.7c1.1,0.8,3.7-0.6,2.4-2.7c-1.3-2.1-2.9-5.9-0.1-8.1c2.8-2.1,9-3.2,8.7-0.3c-0.9,7.3,6.8,4.1,4.4,1.1 c-2.1-2.6-0.2-7.2,4.4-4.7c3.8,2.1,3.3-0.8,7.1-2c2.8-0.9,8-1,8-1c3.6-2.1,0.4-3.1,0.4-3.1s3-2.3,2.2-3.9 c-0.7-1.6-0.4-4.1-0.4-6.7C147.7,151.3,144.8,149,143.7,148.8z"/></g><g opacity=".3"><path fill="#6C184E" d="M143.7,148.8c-1.2-0.3,0.1-0.7-1.4-2.2c-1.5-1.5-3.1-0.3-3.1-0.3c0.3-0.5,0.4-1.1,0-1.4 c-1.3-1.8-4.7-0.7-6-2.1c-1.3-1.4-4.2-0.1-4.2-0.1s-0.4,0.3-1.2,0.7c5.6,1.4,17.1,6.2,15,22.8c0,0-22.2,1.6-28.4,5.4 c-4.4,2.8-8.8,7.9-12.3,8.5c0.3,0.6,0.7,0.8,1.3,0.5c2.2-0.8,3.8-2.8,5.5-1.3c1.6,1.5-0.4,4.3,1.5,5.7 c1.1,0.8,3.7-0.6,2.4-2.7c-1.3-2.1-2.9-5.9-0.1-8.1c2.8-2.1,9-3.2,8.7-0.3c-0.9,7.3,6.8,4.1,4.4,1.1 c-2.1-2.6-0.2-7.2,4.4-4.7c3.8,2.1,3.3-0.8,7.1-2c2.8-0.9,8-1,8-1c3.6-2.1,0.4-3.1,0.4-3.1s3-2.3,2.2-3.9 c-0.7-1.6-0.4-4.1-0.4-6.7C147.7,151.3,144.8,149,143.7,148.8z"/></g><g opacity=".65"><g><path fill="#FFF" d="M144.7,149.4c0.1,0,0.2,0.1,0.4,0.1c-0.4-0.3-0.6-0.4-0.9-0.5C144.1,149.1,144.2,149.3,144.7,149.4z"/></g><g><path fill="#FFF" d="M146.6,165.1L146.6,165.1L146.6,165.1L146.6,165.1z"/></g><g><path fill="#FFF" d="M140.1,146.9c0,0,1-0.7,2.1-0.4c-0.6-0.6-1.3-0.7-1.9-0.6C140.4,146.2,140.3,146.5,140.1,146.9z"/></g><g><path fill="#FFF" d="M138.9,144.6c-1.2-1.1-3.2-0.8-4.7-1.3C135.3,144.4,137.4,144,138.9,144.6z"/></g><g><path fill="#FFF" d="M129,142.6c0,0-8,4.7-14.7,11.5c-0.1,0.1-0.3,0.2-0.4,0.4c-0.1,0.1-0.2,0.2-0.2,0.3 c-3.1,3.2-6,6.9-7.6,10.7c-4.7,11.5-4.7,15.5-2.9,15.2c-0.6-1.4,0.2-5.9,3.8-14.7c1.3-3.3,3.7-6.5,6.3-9.4 c0.1,0.1,0.1,0.2,0.2,0.3c0.5,0.5,1.7,0.4,2.4-0.5c0.7-0.9,0.9-2,0.4-2.5c-0.1-0.1-0.1-0.1-0.2-0.1 c6.6-6.3,13.3-11.1,13.3-11.1s2.3-0.4,3.7,0C131.9,141.2,129,142.6,129,142.6z"/></g></g><g><path fill="#6C184E" d="M111.4,185.7c-0.4,0-0.7-0.1-1-0.3c-1.2-0.8-1.2-2.1-1.1-3.3c0.1-1,0.1-1.9-0.5-2.4 c-0.9-0.8-1.8-0.4-3.2,0.4c-0.5,0.4-1.2,0.6-1.9,0.9c-0.8,0.3-1.3,0.1-1.5-0.2c-1.7-1.7,1-9.3,3.6-15.4 c2.7-6.4,8.8-12.4,13.4-16.2c5-4.1,9.6-6.8,9.6-6.9l0,0c0.1-0.1,3.2-1.4,4.7,0.2c0.4,0.5,1.4,0.7,2.5,0.8 c1.3,0.1,2.7,0.3,3.5,1.3c0.2,0.3,0.3,0.6,0.3,1c0.8-0.3,1.9-0.3,2.9,0.7c0.9,0.9,0.9,1.5,1,1.9c0,0.1,0,0.1,0,0.2 c0,0,0.1,0.1,0.3,0.1l0,0c1.3,0.3,4.2,2.7,4.2,5.5c0,0.5-0.1,1.2-0.1,1.7c-0.1,1.9-0.2,3.7,0.4,4.8c0.7,1.4-1,3.2-1.9,4 c0.4,0.3,1,0.6,1,1.3c0.1,0.8-0.5,1.5-1.9,2.3c-0.1,0-0.1,0.1-0.2,0.1c-0.1,0-5.1,0-7.8,0.9c-1.3,0.4-2.1,1.1-2.8,1.7 c-1.3,1.1-2.1,1.7-4.6,0.3c-1.7-0.9-3.1-0.9-3.9,0.1c-0.9,1.1-0.8,2.8,0.1,4c0.7,0.9,0.7,1.9,0.1,2.8c-0.8,1-2.2,1.4-3.4,1 c-0.8-0.4-2.1-1.3-1.7-4.7c0.1-0.4-0.1-0.8-0.4-1c-1.4-0.8-5.5,0.1-7.6,1.6c-2.6,2-0.7,5.9,0.2,7.5c0.6,1,0.4,2.1-0.4,2.9 C112.6,185.5,112,185.7,111.4,185.7z M107.8,178.4c0.5,0,1.1,0.2,1.5,0.6c0.9,0.8,0.8,2.1,0.8,3c-0.1,1.1-0.1,2.1,0.7,2.6 c0.4,0.3,1.2,0.2,1.7-0.4c0.4-0.3,0.7-0.9,0.2-1.9c-1.1-1.8-3.1-6.2,0-8.5c2.1-1.6,6.5-2.8,8.4-1.7c0.6,0.4,1,1,0.8,1.8 c-0.3,2.1,0.2,3.5,1.3,3.8c0.8,0.4,2,0,2.5-0.7c0.3-0.4,0.5-1-0.1-1.9c-1.2-1.4-1.2-3.7-0.1-4.9c1.1-1.3,3-1.3,4.9-0.3 c2.1,1.2,2.7,0.7,3.8-0.2c0.7-0.6,1.5-1.3,3-1.8c2.6-0.9,7.2-1,8-1c1.3-0.8,1.4-1.3,1.4-1.5c-0.1-0.4-0.8-0.8-1.1-0.9 c-0.1,0-0.3-0.2-0.3-0.3c0-0.2,0-0.3,0.2-0.4c0.7-0.5,2.7-2.4,2.1-3.5c-0.6-1.3-0.5-3.2-0.4-5.2c0-0.5,0.1-1.1,0.1-1.7 c0.1-2.3-2.5-4.4-3.6-4.7c-0.7-0.2-0.8-0.4-0.8-0.9c0-0.3,0-0.7-0.7-1.3c-1.3-1.3-2.6-0.3-2.7-0.3c-0.2,0.1-0.4,0.1-0.4,0 c-0.1-0.1-0.2-0.3-0.1-0.4c0.4-0.7,0.2-1,0.1-1.1c-0.6-0.8-1.7-1-3-1.1c-1.2-0.1-2.3-0.3-3-1.1c-0.9-1-3-0.4-3.8,0 c-0.4,0.2-4.7,2.8-9.5,6.8c-4.6,3.8-10.7,9.6-13.3,15.8c-1.9,4.5-3.1,8.1-3.7,10.7c-0.6,3-0.3,3.8,0,3.9 c0.1,0.1,0.3,0.3,0.7,0c0.6-0.3,1.2-0.5,1.7-0.9C106.1,178.9,106.9,178.4,107.8,178.4z"/></g></g><g><path fill="#6C184E" d="M131.7,167.4c2.1-0.4,4.3-0.7,6.5-1c1.1-0.2,2.1-0.3,3.3-0.4c1.1-0.1,2.1-0.2,3.3-0.2 c0.2,0,0.4,0.2,0.4,0.4c0,0.2-0.2,0.4-0.4,0.4l0,0l0,0c-1.1,0-2.1,0-3.2,0c-1.1,0-2.1,0.1-3.2,0.2 C136.1,166.9,133.8,167.1,131.7,167.4z"/></g></g><g opacity=".3"><g><path fill="#6C184E" d="M138.7,144.4L138.7,144.4L138.7,144.4L138.7,144.4z"/></g><g><path fill="#6C184E" d="M147.1,151.9c-0.1,2.6-0.4,5.1,0.4,6.7c0,0.1,0.1,0.2,0.1,0.3c-0.2-1.4,0.1-3.2,0.1-5 C147.6,153.2,147.4,152.4,147.1,151.9C147.1,151.8,147.1,151.9,147.1,151.9z"/></g><g><path fill="#6C184E" d="M147.5,159.2c0,1.5-2.4,3.4-2.4,3.4s1.3,0.4,1.3,1.3c0.8-0.8,1.9-2.1,1.4-3.2 C147.7,160.1,147.6,159.7,147.5,159.2z"/></g></g><g><g><ellipse cx="131.4" cy="150.2" fill="#EE1822" rx="5.5" ry="4.4" transform="matrix(0.8397 -0.543 0.543 0.8397 -60.4963 95.4308)"/></g><g opacity=".65"><path fill="#FFF" d="M132.2,154.5c-2.7,0.7-5-0.6-5.3-3c-0.2-2.3,1.8-4.8,4.5-5.6c2-0.5,3.8,0.1,4.7,1.3 c-0.9-1.5-2.9-2.2-5.1-1.7c-2.9,0.7-5,3.4-4.7,5.9c0.3,2.5,2.8,3.9,5.6,3.2c0.7-0.2,1.4-0.5,2.1-1 C133.4,154.1,132.8,154.3,132.2,154.5z"/></g><g><path fill="#BD1622" d="M131.9,146.7l0.6,6.6c1.7-0.8,3-2.5,2.8-4.1C135.1,147.5,133.6,146.5,131.9,146.7z"/></g><g><path fill="#BD1622" d="M130.2,147.1c-1.7,0.8-2.9,2.5-2.7,4.1c0.2,1.6,1.6,2.6,3.3,2.5L130.2,147.1z"/></g><g><path fill="#BD1622" d="M130.2,147.1c-1.7,0.8-2.9,2.5-2.7,4.1c0.2,1.6,1.6,2.6,3.3,2.5L130.2,147.1z"/></g><g><path fill="#EE1822" d="M130.5,149.3c-0.5,0.3-1,0.8-0.9,1.3c0.1,0.5,0.5,0.9,1.1,0.8L130.5,149.3z"/></g><g><path fill="#EE1822" d="M132,148.9c0.5,0,1.1,0.3,1.1,0.8c0.1,0.5-0.4,1.1-0.9,1.3L132,148.9z"/></g><g><path fill="#6C184E" d="M130.3,155.2c-1.1,0-2-0.3-2.8-0.8c-1-0.6-1.5-1.7-1.6-2.9c-0.3-2.7,2-5.5,5-6.2 c1.6-0.4,3.2-0.2,4.4,0.6c1,0.6,1.5,1.7,1.6,2.9c0.3,2.7-2,5.5-5,6.2C131.4,155.2,130.9,155.2,130.3,155.2z M132.5,145.8 c-0.4,0-0.9,0.1-1.4,0.2c-2.7,0.7-4.7,3.2-4.5,5.6c0.1,1,0.5,1.9,1.3,2.4c1,0.7,2.4,0.9,3.8,0.5c2.7-0.7,4.7-3.2,4.5-5.6 c-0.1-1-0.5-1.9-1.3-2.4C134.2,146,133.4,145.8,132.5,145.8z"/></g><g><g><path fill="#F6C547" d="M129.7,152.3c0,0.1,0.1,0.2,0.1,0.3s0,0.2,0,0.3c0,0.1-0.1,0.2-0.3,0.2c-0.1,0-0.2-0.1-0.2-0.3 c0,0,0,0,0-0.1s0.1-0.2,0.2-0.3C129.5,152.4,129.6,152.3,129.7,152.3z"/></g><g><path fill="#F6C547" d="M129,151.6c0,0.1,0,0.2-0.1,0.3c0,0.1-0.1,0.2-0.1,0.3c-0.1,0.1-0.2,0.1-0.4,0.1 c-0.1-0.1-0.1-0.2-0.1-0.4c0,0,0,0,0-0.1c0.1-0.1,0.2-0.1,0.3-0.1C128.7,151.6,128.8,151.6,129,151.6z"/></g><g><path fill="#F6C547" d="M128.7,150.6c-0.1,0.1-0.1,0.2-0.2,0.2c-0.1,0.1-0.1,0.1-0.2,0.2c-0.1,0.1-0.3,0-0.3-0.1 c-0.1-0.1,0-0.3,0.1-0.3h0.1c0.1,0,0.2,0,0.3,0C128.5,150.5,128.6,150.5,128.7,150.6z"/></g><g><path fill="#F6C547" d="M129.2,149.4c-0.1,0-0.2,0-0.3,0.1c-0.1,0-0.2,0-0.3,0s-0.2-0.2-0.2-0.3s0.2-0.2,0.3-0.2h0.1 c0.1,0,0.1,0.1,0.2,0.2S129.1,149.4,129.2,149.4z"/></g><g><path fill="#F6C547" d="M130.1,148.7c-0.1,0-0.2-0.1-0.3-0.1c-0.1-0.1-0.2-0.1-0.2-0.2c-0.1-0.1-0.1-0.3,0.1-0.4 c0.1-0.1,0.3-0.1,0.4,0.1c0,0,0,0,0,0.1c0,0.1,0,0.2,0,0.3C130.1,148.5,130.1,148.6,130.1,148.7z"/></g></g><g><g><path fill="#F6C547" d="M133.4,151.3c0.1,0.1,0.2,0.1,0.3,0.2c0.1,0.1,0.1,0.1,0.2,0.2c0.1,0.1,0,0.3-0.1,0.4 c-0.1,0.1-0.3,0-0.4-0.1c0,0,0,0,0-0.1s0-0.2,0-0.3S133.4,151.4,133.4,151.3z"/></g><g><path fill="#F6C547" d="M134,150.3c0.1,0,0.2,0,0.3,0s0.2,0,0.3,0s0.2,0.2,0.2,0.3s-0.2,0.2-0.3,0.2h-0.1 c-0.1-0.1-0.1-0.1-0.2-0.2S134,150.4,134,150.3z"/></g><g><path fill="#F6C547" d="M134,149.1c0.1-0.1,0.1-0.1,0.2-0.2c0.1-0.1,0.1-0.1,0.2-0.1c0.1-0.1,0.3,0,0.3,0.1 c0,0.1,0,0.3-0.1,0.3h-0.1c-0.1,0-0.2,0-0.3,0C134.2,149.2,134.1,149.2,134,149.1z"/></g><g><path fill="#F6C547" d="M133.4,148.3c0-0.1,0.1-0.2,0.1-0.3s0.1-0.2,0.1-0.3c0.1-0.1,0.2-0.1,0.4-0.1 c0.1,0.1,0.1,0.2,0.1,0.4c0,0,0,0-0.1,0.1c-0.1,0.1-0.2,0.1-0.3,0.1S133.5,148.2,133.4,148.3z"/></g><g><path fill="#F6C547" d="M132.4,148.1c0-0.1-0.1-0.2-0.1-0.3s0-0.2,0-0.3s0.1-0.2,0.3-0.2s0.2,0.1,0.2,0.3c0,0,0,0,0,0.1 c0,0.1-0.1,0.2-0.2,0.3C132.6,147.9,132.5,148,132.4,148.1z"/></g></g><g><path fill="#BD1622" d="M132.5,153.6c-0.1,0-0.1,0-0.2-0.1c-0.1-0.1-0.2-0.2-0.2-0.3l-0.6-6.6c0-0.1,0-0.2,0.1-0.3 s0.1-0.1,0.2-0.1c2-0.2,3.6,1,3.8,2.8C135.7,150.7,134.5,152.6,132.5,153.6C132.6,153.6,132.5,153.6,132.5,153.6z M132.2,147 l0.5,5.8c1.4-0.8,2.3-2.2,2.2-3.6C134.8,147.9,133.6,147,132.2,147L132.2,147z"/></g><g><path fill="#BD1622" d="M130.6,154c-1.8,0-3.2-1.2-3.4-2.8c-0.2-1.7,1-3.6,2.9-4.4c0.1,0,0.2,0,0.3,0c0.1,0.1,0.2,0.2,0.2,0.3 l0.6,6.6c0,0.1,0,0.2-0.1,0.3s-0.1,0.1-0.2,0.1C130.8,154,130.7,154,130.6,154z M130,147.6c-1.3,0.8-2.2,2.2-2.1,3.6 c0.1,1.3,1.2,2.2,2.7,2.2L130,147.6z"/></g></g><g><g><ellipse cx="119.9" cy="162" fill="#EE1822" rx="5.1" ry="4.1" transform="matrix(0.8397 -0.543 0.543 0.8397 -68.757 91.1024)"/></g><g opacity=".65"><path fill="#FFF" d="M120.8,166c-2.5,0.6-4.7-0.6-4.9-2.9c-0.2-2.2,1.7-4.6,4.2-5.2c1.9-0.4,3.5,0.1,4.4,1.3 c-0.8-1.4-2.7-2.1-4.7-1.5c-2.7,0.7-4.7,3.1-4.5,5.5c0.2,2.3,2.6,3.7,5.2,3c0.7-0.2,1.3-0.4,2-0.9 C121.8,165.7,121.3,166,120.8,166z"/></g><g><path fill="#BD1622" d="M120.4,158.7l0.5,6.2c1.6-0.7,2.8-2.3,2.6-3.8C123.4,159.5,122.1,158.6,120.4,158.7z"/></g><g><path fill="#BD1622" d="M118.9,159.2c-1.6,0.7-2.7,2.3-2.5,3.8c0.2,1.5,1.4,2.5,3.1,2.3L118.9,159.2z"/></g><g><path fill="#BD1622" d="M118.9,159.2c-1.6,0.7-2.7,2.3-2.5,3.8c0.2,1.5,1.4,2.5,3.1,2.3L118.9,159.2z"/></g><g><path fill="#EE1822" d="M119.1,161.2c-0.5,0.3-0.9,0.7-0.8,1.3s0.4,0.8,1,0.8L119.1,161.2z"/></g><g><path fill="#EE1822" d="M120.6,160.9c0.5,0,1,0.3,1,0.8c0.1,0.5-0.4,1-0.8,1.3L120.6,160.9z"/></g><g><path fill="#6C184E" d="M119,166.8c-1,0-1.9-0.3-2.6-0.8c-0.9-0.6-1.4-1.6-1.5-2.7c-0.3-2.5,1.9-5.1,4.7-5.8 c1.5-0.4,3-0.2,4.1,0.6c0.9,0.6,1.4,1.6,1.5,2.7l0,0c0.3,2.5-1.9,5.1-4.7,5.8C119.9,166.7,119.4,166.8,119,166.8z M120.9,157.9c-0.4,0-0.9,0.1-1.3,0.2c-2.5,0.6-4.4,3-4.2,5.2c0.1,0.9,0.5,1.7,1.3,2.2c0.9,0.6,2.2,0.8,3.6,0.4 c2.5-0.6,4.4-3,4.2-5.2l0,0c-0.1-0.9-0.5-1.7-1.3-2.2C122.5,158.2,121.8,157.9,120.9,157.9z"/></g><g><g><path fill="#F6C547" d="M118.8,164.1c0.1,0.1,0.1,0.2,0.1,0.2c0,0.1,0.1,0.2,0.1,0.3c0,0.1-0.1,0.2-0.2,0.2s-0.2-0.1-0.2-0.2 c0,0,0,0,0-0.1S118.6,164.3,118.8,164.1C118.8,164.2,118.8,164.2,118.8,164.1z"/></g><g><path fill="#F6C547" d="M118,163.7c0,0.1,0,0.2,0,0.3c0,0.1,0,0.2-0.1,0.3c0,0.1-0.2,0.2-0.3,0.1c-0.1-0.1-0.2-0.2-0.1-0.3 l0,0c0.1-0.1,0.1-0.1,0.2-0.2C117.8,163.8,117.9,163.7,118,163.7z"/></g><g><path fill="#F6C547" d="M117.5,162.8c0,0.1-0.1,0.2-0.1,0.3c-0.1,0.1-0.1,0.2-0.2,0.2c-0.1,0.1-0.2,0.1-0.3,0 c-0.1-0.1-0.1-0.2,0-0.3l0,0c0.1,0,0.2-0.1,0.3-0.1C117.4,162.9,117.4,162.8,117.5,162.8z"/></g><g><path fill="#F6C547" d="M117.6,161.8c-0.1,0.1-0.2,0.1-0.2,0.1c-0.1,0-0.2,0.1-0.2,0.1c-0.1,0-0.2-0.1-0.2-0.2 c0-0.1,0.1-0.2,0.2-0.2c0,0,0,0,0.1,0S117.5,161.7,117.6,161.8C117.4,161.7,117.5,161.7,117.6,161.8z"/></g><g><path fill="#F6C547" d="M118.2,160.9c-0.1,0-0.2,0-0.3-0.1c-0.1,0-0.2-0.1-0.2-0.1c-0.1-0.1-0.1-0.2-0.1-0.3 c0.1-0.1,0.2-0.1,0.3-0.1l0,0c0.1,0.1,0.1,0.1,0.1,0.2C118.2,160.8,118.2,160.9,118.2,160.9z"/></g></g><g><g><path fill="#F6C547" d="M121.8,163c0.1,0.1,0.1,0.1,0.2,0.2c0.1,0.1,0.1,0.1,0.2,0.2c0.1,0.1,0,0.2-0.1,0.3 c-0.1,0.1-0.2,0-0.3-0.1c0,0,0,0,0-0.1c0-0.1,0-0.2,0-0.3C121.8,163.2,121.8,163.1,121.8,163z"/></g><g><path fill="#F6C547" d="M122.4,162.1c0.1,0,0.2,0,0.3,0s0.2,0,0.2,0c0.1,0,0.2,0.2,0.1,0.3c0,0.1-0.2,0.2-0.3,0.1 c0,0,0,0-0.1,0c-0.1,0-0.1-0.1-0.2-0.2C122.5,162.2,122.5,162.2,122.4,162.1z"/></g><g><path fill="#F6C547" d="M122.4,161c0.1-0.1,0.1-0.1,0.2-0.2c0.1-0.1,0.1-0.1,0.2-0.1s0.2,0,0.3,0.1c0,0.1,0,0.2-0.1,0.3 c0,0,0,0-0.1,0s-0.2,0-0.3,0C122.5,161.1,122.5,161,122.4,161z"/></g><g><path fill="#F6C547" d="M121.8,160.2c0-0.1,0.1-0.2,0.1-0.3c0-0.1,0.1-0.2,0.1-0.2c0.1-0.1,0.2-0.1,0.3,0 c0.1,0.1,0.1,0.2,0,0.3l0,0c-0.1,0.1-0.1,0.1-0.2,0.1C122,160.2,121.9,160.2,121.8,160.2z"/></g><g><path fill="#F6C547" d="M120.9,160c0-0.1,0-0.2-0.1-0.3c0-0.1,0-0.2,0-0.3s0.1-0.2,0.2-0.2s0.2,0.1,0.2,0.2l0,0 c0,0.1-0.1,0.2-0.1,0.2C121,159.9,121,160,120.9,160z"/></g></g><g><path fill="#BD1622" d="M120.9,165.2c-0.1,0-0.1,0-0.2-0.1c-0.1-0.1-0.2-0.2-0.2-0.3l-0.5-6.2c0-0.1,0-0.2,0.1-0.3 s0.2-0.1,0.3-0.1c1.9-0.2,3.4,1,3.6,2.7c0.2,1.6-1,3.4-2.8,4.2C121,165.2,121,165.2,120.9,165.2z M120.8,159.1l0.5,5.4 c1.3-0.7,2.1-2.1,2-3.3C123.1,159.9,122.1,159.1,120.8,159.1z"/></g><g><path fill="#BD1622" d="M119.2,165.7c-1.7,0-3-1.1-3.2-2.7s1-3.3,2.8-4.1c0.1-0.1,0.2,0,0.3,0c0.1,0.1,0.2,0.2,0.2,0.3 l0.5,6.2c0,0.1,0,0.2-0.1,0.3c-0.1,0.1-0.2,0.1-0.3,0.1C119.4,165.7,119.3,165.7,119.2,165.7z M118.6,159.7 c-1.3,0.7-2.1,2.1-2,3.3c0.1,1.3,1.1,2.1,2.4,2.1L118.6,159.7z"/></g></g><g><g><g><path fill="#48C75A" d="M113.2,161.4c-3.5,0.2-3.6,1.9-2.4,4.7C112.9,165.2,114.2,163.5,113.2,161.4z"/></g><g><path fill="#661A47" d="M110.6,166.6C110.5,166.6,110.5,166.6,110.6,166.6c-0.2,0-0.3-0.1-0.3-0.2c-0.5-1.5-0.9-3.1-0.2-4.2 c0.5-0.7,1.5-1.1,3-1.2c0.1,0,0.3,0.1,0.3,0.2c0.4,0.9,0.5,1.7,0.3,2.6c-0.4,1.1-1.4,2.1-3,2.8 C110.7,166.6,110.7,166.6,110.6,166.6z M113,161.7c-1.2,0.1-1.9,0.4-2.2,0.9c-0.5,0.7-0.3,2.1,0.2,3.2c1.2-0.6,2-1.4,2.2-2.2 C113.3,163,113.2,162.4,113,161.7z"/></g><g><path fill="#651B47" d="M113.3,161.7c-0.3,0.1-0.4,0.3-0.6,0.4c-0.2,0.2-0.4,0.4-0.6,0.6c-0.4,0.4-0.6,1-0.9,1.5 c0-0.4,0.1-0.6,0.1-0.9c0.1-0.3,0.2-0.6,0.4-0.9s0.4-0.5,0.5-0.8c0.3-0.3,0.5-0.4,0.9-0.5c0.2-0.1,0.4,0.1,0.4,0.3 C113.5,161.5,113.4,161.6,113.3,161.7L113.3,161.7z"/></g></g><g><g><path fill="#48C75A" d="M119.5,151.8c3-1.6,4-0.1,4.5,2.8C121.7,154.9,119.8,154.3,119.5,151.8z"/></g><g><path fill="#661A47" d="M123.4,155.2c-1.3,0-2.4-0.4-3.1-1c-0.6-0.5-1.1-1.3-1.1-2.3c0-0.1,0.1-0.3,0.2-0.3 c1.3-0.7,2.3-0.9,3.2-0.5c1.2,0.5,1.6,2.1,2,3.8c0,0.1,0,0.2-0.1,0.3c-0.1,0.1-0.2,0.1-0.3,0.1 C124,155.2,123.7,155.2,123.4,155.2z M119.9,152c0.1,0.7,0.4,1.3,0.8,1.7c0.7,0.5,1.8,0.9,3,0.8c-0.3-1.3-0.7-2.5-1.5-2.9 C121.7,151.4,120.9,151.5,119.9,152z"/></g><g><path fill="#651B47" d="M119.4,151.5c0.4-0.1,0.7-0.1,1.1,0c0.4,0.1,0.6,0.3,0.9,0.4c0.3,0.1,0.5,0.4,0.7,0.6 c0.2,0.3,0.4,0.4,0.5,0.7c-0.5-0.4-1-0.6-1.5-0.9c-0.3-0.1-0.5-0.2-0.8-0.2c-0.3,0-0.5-0.1-0.8,0l0,0c-0.2,0-0.4-0.1-0.4-0.3 C119.2,151.7,119.3,151.5,119.4,151.5z"/></g></g><g><g><path fill="#48C75A" d="M133.2,162.8c-2.4-2.2-3.6-1.1-4.7,1.4C130.5,165.1,132.5,165,133.2,162.8z"/></g><g><path fill="#661A47" d="M130.3,165.1c-0.6,0-1.4-0.2-2.1-0.4c-0.1,0-0.2-0.1-0.2-0.2s0-0.2,0-0.3c0.7-1.3,1.4-2.7,2.7-2.9 c0.8-0.2,1.7,0.3,2.8,1.3c0.1,0.1,0.1,0.2,0.1,0.4c-0.3,0.9-0.8,1.5-1.5,1.9C131.5,165,131,165.1,130.3,165.1z M128.7,164.2 c1.2,0.4,2.2,0.4,3,0c0.5-0.3,0.9-0.7,1.2-1.3c-0.8-0.7-1.4-1.1-2.1-1C130,162.1,129.3,163.1,128.7,164.2z"/></g><g><path fill="#651B47" d="M133.1,163.1c-0.2-0.1-0.4-0.2-0.7-0.2s-0.5,0-0.8,0c-0.5,0.1-1.1,0.2-1.6,0.4 c0.2-0.2,0.4-0.4,0.7-0.5c0.3-0.2,0.5-0.3,0.8-0.4c0.3-0.1,0.6-0.2,0.9-0.2c0.4,0,0.6,0.1,1,0.3c0.2,0.1,0.2,0.3,0.1,0.4 C133.4,163.1,133.3,163.1,133.1,163.1L133.1,163.1z"/></g></g><g><g><path fill="#48C75A" d="M106,168.4c0.2,0,0.4,0,0.5,0.1c0.2,0,0.4,0.1,0.5,0.1s0.4,0.1,0.5,0.1c0.2,0.1,0.4,0.1,0.6,0.3l0,0 c0.2,0.1,0.3,0.4,0.2,0.6c-0.1,0.2-0.4,0.3-0.6,0.2c0,0-0.1,0-0.1-0.1c-0.1-0.1-0.2-0.2-0.4-0.2c-0.2-0.1-0.3-0.1-0.4-0.2 c-0.2-0.1-0.4-0.1-0.4-0.2s-0.4-0.1-0.5-0.1l0,0c-0.2,0-0.3-0.2-0.3-0.4C105.7,168.5,105.8,168.4,106,168.4z"/></g><g opacity=".3"><path fill="#6C184E" d="M106,168.4c0.2,0,0.4,0,0.5,0.1c0.2,0,0.4,0.1,0.5,0.1s0.4,0.1,0.5,0.1c0.2,0.1,0.4,0.1,0.6,0.3l0,0 c0.2,0.1,0.3,0.4,0.2,0.6c-0.1,0.2-0.4,0.3-0.6,0.2c0,0-0.1,0-0.1-0.1c-0.1-0.1-0.2-0.2-0.4-0.2c-0.2-0.1-0.3-0.1-0.4-0.2 c-0.2-0.1-0.4-0.1-0.4-0.2s-0.4-0.1-0.5-0.1l0,0c-0.2,0-0.3-0.2-0.3-0.4C105.7,168.5,105.8,168.4,106,168.4z"/></g><g><path fill="#661A47" d="M108,170.1c-0.1,0-0.3,0-0.4-0.1l-0.1-0.1c0,0-0.1-0.1-0.3-0.2c-0.1-0.1-0.3-0.1-0.4-0.2 c-0.2-0.1-0.3-0.1-0.4-0.2s-0.4-0.1-0.4-0.1c-0.2,0-0.3-0.1-0.4-0.3c-0.1-0.1-0.1-0.3-0.1-0.4c0.1-0.3,0.3-0.4,0.5-0.4l0,0 c0.2,0,0.4,0,0.5,0.1c0.2,0,0.4,0.1,0.5,0.1s0.4,0.1,0.6,0.1c0.3,0.1,0.4,0.1,0.6,0.3l0,0c0.4,0.2,0.4,0.6,0.3,1 C108.5,169.9,108.2,170.1,108,170.1z M106,168.6C106,168.6,105.9,168.6,106,168.6C105.9,168.7,105.9,168.7,106,168.6 C105.9,168.7,105.9,168.7,106,168.6c0.2,0.1,0.4,0.2,0.5,0.2c0.2,0.1,0.4,0.1,0.5,0.2c0.2,0.1,0.4,0.1,0.4,0.2 c0.2,0.1,0.4,0.2,0.4,0.3l0,0c0.1,0.1,0.2,0,0.3-0.1c0.1-0.1,0-0.2-0.1-0.3l0,0c-0.2-0.1-0.4-0.2-0.5-0.2 c-0.2-0.1-0.4-0.1-0.5-0.1s-0.4-0.1-0.5-0.1C106.3,168.7,106.2,168.6,106,168.6L106,168.6z"/></g><g><g><path fill="#48C75A" d="M106.4,168.7c-1.1-3.8-5.6-0.7-5.6-0.7S104.4,172.2,106.4,168.7z"/></g><g opacity=".65"><path fill="#FFF" d="M106.3,168.8L106.3,168.8c-1.1-3.9-5.5-0.7-5.5-0.7s0.1,0.2,0.4,0.4 C102,167.8,105.3,166,106.3,168.8z"/></g><g><path fill="#661A47" d="M104.3,170.4c-2,0-3.8-2.1-3.9-2.1s-0.1-0.1-0.1-0.2c0-0.1,0.1-0.2,0.1-0.2c0.1-0.1,2.8-1.8,4.7-1.1 c0.8,0.3,1.3,1,1.6,2c0,0.1,0,0.2,0,0.2c-0.5,0.9-1.3,1.4-2.1,1.5C104.5,170.4,104.4,170.4,104.3,170.4z M101,168.1 c0.5,0.5,2.1,1.9,3.6,1.8c0.6-0.1,1.2-0.4,1.6-1.2c-0.3-0.8-0.6-1.3-1.3-1.5C103.6,166.8,101.7,167.7,101,168.1z"/></g><g><g><line x1="106.4" x2="103.4" y1="168.7" y2="168.4" fill="none"/></g><g><path fill="#651B47" d="M106.3,169c-0.3,0-0.5-0.1-0.7-0.1s-0.5-0.1-0.7-0.2c-0.5-0.1-1-0.3-1.4-0.4c0.5,0,1,0,1.5,0 c0.3,0,0.5,0,0.7,0c0.3,0,0.5,0.1,0.7,0.1c0.2,0,0.3,0.2,0.2,0.4C106.6,168.9,106.5,169,106.3,169z"/></g></g></g><g><path fill="#661A47" d="M104.2,170.4c0.4-0.3,0.7-0.6,1-0.9c0.3-0.3,0.7-0.5,1.1-0.9c0.1-0.1,0.3-0.1,0.4,0.1 c0.1,0.1,0.1,0.3-0.1,0.4l0,0l0,0c-0.4,0.2-0.8,0.4-1.2,0.6C105,169.9,104.6,170.2,104.2,170.4z"/></g><g><g><path fill="#48C75A" d="M106.4,168.8c0,0-2.2,0.2-2.8,4C103.7,172.9,108.2,171.4,106.4,168.8z"/></g><g opacity=".65"><path fill="#FFF" d="M104.3,172.5c0.4-3.2,2.2-3.4,2.3-3.4c-0.1-0.1-0.1-0.2-0.2-0.3c0,0-2.2,0.2-2.8,4 c0,0,1-0.4,1.9-0.9C104.9,172.3,104.3,172.5,104.3,172.5z"/></g><g><path fill="#661A47" d="M103.7,173.1c-0.1,0-0.1,0-0.2-0.1s-0.1-0.2-0.1-0.3c0.5-4.1,3-4.3,3-4.3s0.2,0,0.3,0.1 c0.4,0.6,0.6,1.3,0.4,2C106.4,172.2,103.8,173.1,103.7,173.1L103.7,173.1z M106.3,169.1c-0.4,0.1-1.9,0.6-2.3,3.4 c0.7-0.3,2.2-1,2.6-2.1C106.6,170,106.6,169.5,106.3,169.1z"/></g><g><path fill="#661A47" d="M105.1,170.5c0.2-0.4,0.4-0.6,0.5-1c0.2-0.4,0.4-0.6,0.5-0.9c0.1-0.1,0.3-0.2,0.4-0.1 c0.1,0.1,0.2,0.3,0.1,0.4c0,0,0,0-0.1,0.1c-0.3,0.3-0.5,0.4-0.7,0.7C105.6,170,105.4,170.3,105.1,170.5z"/></g></g><g><g><path fill="#48C75A" d="M106.3,168.8c0,0-2.1-0.8-1.4-4.7C105,164.1,108.9,166.9,106.3,168.8z"/></g><g opacity=".65"><path fill="#FFF" d="M105.6,164.6c-0.4-0.4-0.6-0.5-0.6-0.5c-0.7,3.9,1.4,4.7,1.4,4.7l0.1-0.1 C106.1,168.4,105,167.3,105.6,164.6z"/></g><g><path fill="#661A47" d="M106.3,169.1L106.3,169.1c-0.2,0-2.4-1-1.6-5c0-0.1,0.1-0.2,0.2-0.2s0.2,0,0.3,0 c0.1,0.1,2.3,1.7,2.3,3.4c0,0.6-0.4,1.3-1,1.7C106.5,169.1,106.4,169.1,106.3,169.1z M105.2,164.5c-0.4,2.8,0.8,3.7,1.2,3.9 c0.4-0.4,0.6-0.7,0.6-1.2C107,166.2,105.8,165.1,105.2,164.5z"/></g><g><path fill="#661A47" d="M105.7,166.8c0.2,0.4,0.3,0.6,0.4,1c0.2,0.4,0.4,0.6,0.4,1c0.1,0.1,0,0.3-0.1,0.4 c-0.1,0.1-0.3,0-0.4-0.1c0,0,0,0,0-0.1c-0.1-0.4-0.2-0.7-0.3-1.1C105.8,167.5,105.7,167.1,105.7,166.8z"/></g></g></g></g><g><path fill="#6C184E" d="M102.4,179.5L102.4,179.5C102.5,179.5,102.5,179.6,102.4,179.5c0.2,0.1,0.3,0.1,0.4,0.1 c0.2,0,0.4-0.1,0.6-0.2c0.4-0.2,0.9-0.4,1.3-0.7c0.8-0.5,1.7-1.1,2.5-1.7c0.8-0.6,1.6-1.3,2.3-1.9c0.2-0.2,0.4-0.4,0.5-0.5 c0.2-0.2,0.4-0.4,0.5-0.5c0.1-0.1,0.2-0.2,0.3-0.3l0.3-0.3l0.2-0.1l0.2-0.1l0.3-0.3c1.7-1.2,3.5-2.1,5.5-2.8c1-0.4,2-0.6,3-0.9 c1-0.3,2-0.4,3-0.6c-2,0.4-3.9,1-5.8,1.7c-1,0.4-1.9,0.8-2.8,1.3c-0.9,0.4-1.8,1-2.6,1.6l-0.3,0.3v0.1l-0.2,0.1l-0.3,0.3 c-0.1,0.1-0.2,0.2-0.3,0.3c-0.2,0.2-0.4,0.4-0.5,0.5c-0.2,0.2-0.4,0.4-0.5,0.5c-0.7,0.7-1.5,1.3-2.3,2 c-0.8,0.6-1.6,1.3-2.5,1.8c-0.4,0.3-0.9,0.5-1.3,0.8c-0.3,0.1-0.5,0.2-0.8,0.3c-0.2,0-0.4,0-0.5,0c-0.1,0-0.2-0.1-0.3-0.1 c-0.1-0.1-0.2-0.2-0.3-0.3c-0.1-0.2,0-0.4,0.1-0.4C102,179.2,102.3,179.3,102.4,179.5L102.4,179.5z"/></g><g><g opacity=".3"><ellipse cx="140.6" cy="163.9" fill="#6C184E" rx=".5" ry=".4" transform="matrix(0.968 -0.2508 0.2508 0.968 -36.6105 40.5097)"/></g><g opacity=".3"><ellipse cx="138.2" cy="162.5" fill="#6C184E" rx=".9" ry=".6" transform="matrix(0.968 -0.2508 0.2508 0.968 -36.3502 39.8608)"/></g><g opacity=".3"><ellipse cx="132.7" cy="158.9" fill="#6C184E" rx=".6" ry=".5" transform="matrix(0.9355 -0.3532 0.3532 0.9355 -47.5574 57.1282)"/></g><g opacity=".3"><ellipse cx="139" cy="152.5" fill="#6C184E" rx=".4" ry=".4" transform="matrix(0.9355 -0.3532 0.3532 0.9355 -44.914 58.9392)"/></g><g opacity=".3"><ellipse cx="139.9" cy="157.3" fill="#6C184E" rx=".5" ry=".4" transform="matrix(0.9355 -0.3532 0.3532 0.9355 -46.5273 59.5521)"/></g><g opacity=".3"><path fill="#6C184E" d="M134.9,155.7c0.1,0.2-0.1,0.4-0.3,0.4c-0.2,0.1-0.4,0-0.5-0.2s0.1-0.4,0.3-0.4 C134.6,155.4,134.8,155.5,134.9,155.7z"/></g><g opacity=".3"><ellipse cx="127.1" cy="161.8" fill="#6C184E" rx=".4" ry=".4" transform="matrix(0.8111 -0.5849 0.5849 0.8111 -70.5965 104.9075)"/></g><g opacity=".3"><ellipse cx="128.2" cy="157.2" fill="#6C184E" rx=".4" ry=".4" transform="matrix(0.8111 -0.5849 0.5849 0.8111 -67.7226 104.6693)"/></g><g opacity=".3"><ellipse cx="113.7" cy="169.2" fill="#6C184E" rx=".6" ry=".5" transform="matrix(0.8111 -0.5849 0.5849 0.8111 -77.4971 98.4473)"/></g><g opacity=".3"><ellipse cx="114" cy="165.9" fill="#6C184E" rx=".5" ry=".4" transform="matrix(0.8111 -0.5849 0.5849 0.8111 -75.4727 98.0257)"/></g><g opacity=".3"><ellipse cx="108.9" cy="172.4" fill="#6C184E" rx=".4" ry=".3" transform="matrix(0.8111 -0.5849 0.5849 0.8111 -80.2665 96.2847)"/></g><g opacity=".3"><ellipse cx="114.1" cy="159.8" fill="#6C184E" rx=".5" ry=".4" transform="matrix(0.8111 -0.5849 0.5849 0.8111 -71.9019 96.9361)"/></g><g opacity=".3"><ellipse cx="118.8" cy="156.5" fill="#6C184E" rx=".7" ry=".5" transform="matrix(0.8111 -0.5849 0.5849 0.8111 -69.072 99.0351)"/></g></g><g><g><g><g><path fill="#EB984E" d="M145.2,164.9c-0.6,3.8,8,4.4,8,4.4s5.5-12.8-3.3-23.7c-8.8-10.9-20.9-9.3-22.1-6.7 c-1.3,2.6,1.3,3.8,1.3,3.8S148.8,144.4,145.2,164.9z"/></g><g opacity=".65"><path fill="#FFF" d="M149.9,145.5c-8.9-10.9-20.9-9.3-22.1-6.7c-1.2,2.3,0.8,3.5,1.2,3.7c-0.5-0.5-1-1.5-0.3-2.8 c0.3-0.5,1.2-1.1,2.3-1.4c-0.3,0.2-0.4,0.4-0.4,0.5c0.1,0.4,0.9,0.5,1.8,0.4c1-0.2,1.6-0.6,1.6-1c0-0.2-0.2-0.3-0.4-0.4 c4.3-0.1,10.5,1.7,15.6,8c8.2,10.1,3.1,22,3.1,22s-5.7-0.4-7.1-2.6c0.2,3.3,8,3.8,8,3.8S158.6,156.5,149.9,145.5z"/></g><g opacity=".3"><path fill="#6C184E" d="M153.2,169.3c0,0,0.7-1.7,1.3-4.5c-0.9-0.9-2.2-1.6-3.7-2.1c-1.3-0.5-2.1-1.8-2-3.1 c0.3-3.5,0.3-8-2.8-11.7c-6.9-8.5-16.2-7.3-17.5-5.4c0.3,0.2,0.4,0.3,0.4,0.3s19.8,1.7,16.2,22.2 C144.6,168.6,153.2,169.3,153.2,169.3z"/></g><g><path fill="#6C184E" d="M153.2,169.6L153.2,169.6c-0.3,0-6-0.4-7.8-2.8c-0.4-0.6-0.6-1.3-0.5-2.1c1.1-6.1,0.2-11.1-2.8-14.9 c-4.7-6.1-13.1-6.9-13.2-6.9h-0.1c-0.1,0-1.3-0.6-1.7-1.9c-0.3-0.7-0.2-1.6,0.3-2.4c0.5-1,2.2-1.8,4.6-2.1 c5-0.5,12.4,1.4,18.2,8.7c4.7,5.7,5.3,12,5.1,16.2c-0.3,4.6-1.6,7.8-1.7,7.9C153.4,169.5,153.3,169.6,153.2,169.6z M145.2,164.9l0.4,0.1c-0.1,0.5,0,1,0.4,1.4c1.4,1.8,5.8,2.3,7,2.5c0.4-0.8,1.3-3.7,1.5-7.4c0.3-4.1-0.4-10.1-4.9-15.7 c-5.6-7-12.7-8.9-17.5-8.4c-2.2,0.3-3.7,1-3.9,1.6c-0.4,0.6-0.4,1.3-0.3,1.9c0.3,0.8,1.1,1.3,1.3,1.3c0.4,0,2.4,0.3,4.9,1.2 c2.6,0.9,6.2,2.7,8.7,6c3,3.9,4,9.1,2.9,15.5H145.2z"/></g></g><g><path fill="#F7AF41" d="M153.2,169.3c0,0-1.7,1.9-5,0.9c-3.3-1.1-4.1-3.3-3-5.3C146.4,162.9,155.6,165.3,153.2,169.3z"/></g><g opacity=".3"><path fill="#6C184E" d="M153.2,169.3c0,0-1.7,1.9-5,0.9c-3.3-1.1-4.1-3.3-3-5.3C146.4,162.9,155.6,165.3,153.2,169.3z"/></g><g><path fill="#6C184E" d="M150.1,170.8c-0.6,0-1.3-0.1-2.1-0.4c-2.3-0.7-3.2-1.9-3.5-2.8c-0.4-1-0.3-2.1,0.4-3 c0.4-0.7,1.6-0.9,2.5-0.8c2.2,0.1,5.4,1.3,6.3,3c0.4,0.8,0.4,1.8-0.2,2.7c0,0,0,0,0,0.1C153.4,169.5,152.3,170.8,150.1,170.8 z M147.2,164.5c-0.8,0-1.4,0.2-1.6,0.5c-0.4,0.8-0.6,1.6-0.3,2.3c0.4,1,1.4,1.9,3,2.3c2.9,0.9,4.4-0.5,4.6-0.7 c0.4-0.6,0.4-1.3,0.1-1.9c-0.8-1.4-3.6-2.5-5.6-2.6C147.3,164.5,147.3,164.5,147.2,164.5z M153.2,169.3L153.2,169.3 L153.2,169.3z"/></g></g><g><g><path fill="#6D184E" d="M133.6,141c-0.1-0.2-0.1-0.4-0.1-0.5s0-0.4,0.1-0.5s0.2-0.4,0.3-0.4c0.1-0.1,0.3-0.3,0.4-0.3 c-0.1,0.2-0.2,0.3-0.3,0.4c-0.1,0.2-0.2,0.3-0.2,0.4c-0.1,0.2-0.1,0.3-0.2,0.4C133.7,140.6,133.7,140.8,133.6,141z"/></g><g><path fill="#6D184E" d="M134.7,141.6c-0.1-0.3,0-0.5,0-0.7c0-0.3,0.1-0.4,0.3-0.7c0.1-0.3,0.3-0.4,0.4-0.6 c0.1,0,0.1-0.1,0.2-0.1c0.1,0,0.1-0.1,0.2-0.1c0.1,0,0.1-0.1,0.2-0.1c0.1,0,0.1,0,0.2-0.1c-0.2,0.2-0.4,0.4-0.4,0.5 c-0.2,0.2-0.3,0.4-0.4,0.5c-0.1,0.2-0.2,0.4-0.3,0.6C134.8,141.2,134.7,141.4,134.7,141.6z"/></g></g><g><g><path fill="#6D184E" d="M148.8,157.7c0.2-0.2,0.4-0.3,0.7-0.4s0.5-0.1,0.8-0.1c0.3,0,0.5,0.1,0.8,0.2c0.1,0,0.1,0.1,0.2,0.1 c0.1,0,0.1,0.1,0.2,0.1s0.1,0.1,0.2,0.1c0.1,0.1,0.1,0.1,0.1,0.2c-0.3-0.1-0.5-0.2-0.7-0.2c-0.3-0.1-0.4-0.1-0.7-0.1 s-0.4,0-0.7,0C149.3,157.6,149,157.6,148.8,157.7z"/></g><g><path fill="#6D184E" d="M148.4,159.4c0.4-0.2,0.7-0.3,1.1-0.4c0.4-0.1,0.7-0.1,1.1,0c0.1,0,0.2,0,0.3,0.1 c0.1,0,0.2,0.1,0.3,0.1s0.2,0.1,0.3,0.1l0.1,0.1l0.1,0.1c0.1,0.1,0.2,0.1,0.3,0.2c0.1,0.1,0.2,0.1,0.2,0.2l0.1,0.1l0.1,0.1 c0.1,0.1,0.1,0.2,0.2,0.2c-0.4-0.2-0.6-0.4-1-0.4l-0.1-0.1h-0.1c-0.1,0-0.2-0.1-0.3-0.1s-0.2,0-0.3-0.1 c-0.1-0.1-0.2,0-0.3-0.1c-0.4-0.1-0.7-0.1-1.1-0.1C149.1,159.4,148.8,159.4,148.4,159.4z"/></g></g></g><g><g><path fill="#48C75A" d="M137.6,156.5c2.7-1.4,3.5-0.1,3.8,2.4C139.5,159.1,137.8,158.5,137.6,156.5z"/></g><g><path fill="#661A47" d="M141,159.3c-1.2,0-2.1-0.3-2.8-0.9c-0.5-0.5-0.9-1.2-1-2.1c0-0.1,0.1-0.2,0.2-0.3 c1.2-0.6,2.1-0.8,2.8-0.4c1,0.4,1.4,1.8,1.7,3.2c0,0.1,0,0.2-0.1,0.3s-0.1,0.1-0.2,0.1C141.4,159.3,141.3,159.3,141,159.3z M137.9,156.6c0.1,0.6,0.4,1.1,0.7,1.4c0.6,0.5,1.5,0.8,2.7,0.7c-0.3-1.1-0.6-2.1-1.3-2.5C139.5,156,138.8,156.1,137.9,156.6z"/></g><g><path fill="#651B47" d="M137.5,156.1c0.3-0.1,0.6-0.1,0.9,0s0.5,0.2,0.8,0.4c0.3,0.2,0.4,0.4,0.6,0.5c0.2,0.2,0.4,0.4,0.5,0.6 c-0.4-0.4-0.9-0.5-1.3-0.7c-0.3-0.1-0.4-0.2-0.7-0.2s-0.4,0-0.6,0l0,0c-0.2,0-0.3-0.1-0.4-0.3 C137.3,156.3,137.4,156.2,137.5,156.1z"/></g></g></g><g><g><g><path fill="#FFA14D" d="M186.4,92.6c-12.1,22.6-24.2,45.1-36.3,67.7c-0.5,1-1.8,1.4-2.8,0.9l0,0c-1-0.5-1.4-1.7-0.9-2.7 c11-23.1,22.1-46.2,33.1-69.3c0.9-1.9,3.2-2.6,5-1.7l0.3,0.2C186.7,88.5,187.4,90.7,186.4,92.6z"/></g></g><g opacity=".7"><g><path fill="#FFF" d="M186.6,89.5c-0.1-0.1-0.3-0.2-0.5-0.3l-0.3-0.1c-1.9-0.9-4.1-0.2-5,1.7c-11,23.1-22.1,46.2-33.1,69.3 c-0.2,0.3-0.2,0.7-0.2,1.1c-0.1,0-0.1-0.1-0.2-0.1l0,0c-1-0.5-1.4-1.7-0.9-2.7c11-23.1,22.1-46.2,33.1-69.3 c0.9-1.9,3.2-2.6,5-1.7l0.3,0.2C185.7,87.9,186.3,88.7,186.6,89.5z"/></g></g><g opacity=".35"><g><path fill="#371A45" d="M186.4,92.6c-12.1,22.6-24.2,45.1-36.3,67.7c-0.5,1-1.8,1.4-2.8,0.9l0,0c-1-0.5-1.4-1.7-0.9-2.7 c0.4-0.9,0.8-1.8,1.3-2.7c0.9,0.3,2-0.1,2.5-1c11.9-22.2,23.8-44.3,35.6-66.5C186.9,89.3,187.2,91.1,186.4,92.6z"/></g></g><g><g><path fill="#371A45" d="M148.3,162.6c-0.5,0-1-0.1-1.5-0.4c-1.6-0.8-2.3-2.8-1.5-4.4l33.1-69.3c0.6-1.2,1.6-2.1,2.9-2.6 c1.3-0.4,2.6-0.3,3.8,0.3l0.3,0.2c1.2,0.6,2.1,1.7,2.5,2.9c0.4,1.3,0.3,2.7-0.4,3.8l0,0l-36.3,67.7 C150.7,162,149.5,162.6,148.3,162.6z M182.9,88.2c-0.3,0-0.5,0-0.8,0.1c-0.6,0.2-1.1,0.7-1.4,1.3l-33.1,69.3 c-0.2,0.4,0,0.8,0.4,1c0.4,0.2,0.9,0.1,1.1-0.3L185.3,92c0.3-0.6,0.4-1.3,0.2-1.9c-0.2-0.6-0.6-1.1-1.2-1.4l-0.3-0.2 C183.6,88.3,183.2,88.2,182.9,88.2z M186.4,92.6L186.4,92.6L186.4,92.6z"/></g></g></g><g><path fill="#FFF" d="M154.6,101.5c-5.6,4-13,17.3-7.5,23.7c5.6,6.6,10.6-3.2,10.6-3.2s6.8,7.4,18.2,3.9 c8.6-2.6,14.6-7.8,13.3-14.6C187.5,102.6,174.6,87.2,154.6,101.5z"/></g><g opacity=".35"><path fill="#371A45" d="M175.9,125.9c-11.4,3.4-18.2-3.9-18.2-3.9s-5.1,9.8-10.6,3.2c-1.5-1.8-2-4.2-1.8-6.7 c0.3,1.2,0.8,2.3,1.5,3.2c5.6,6.6,8.2-9.3,8.2-9.3s9.6,10.3,21,6.9c1-0.3,0.6-1.3,2.1-2.1c2.6-1.4,4.2,1.4,4,4.8 C181.8,123.8,179.1,124.9,175.9,125.9z"/></g><g><path fill="#371A45" d="M151.1,128.7c-1.8,0-3.5-0.9-5-2.7c-1.8-2.1-2.5-5-2.1-8.5c0.8-6.6,5.8-14.1,9.8-17 c7.5-5.3,14.8-7.1,21.8-5.2c9.5,2.6,15.6,11.1,17.7,15.7c0.3,0.6,0,1.4-0.6,1.7c-0.6,0.3-1.4,0-1.7-0.6c-1.9-4.2-7.4-12-16-14.3 c-6.3-1.7-12.9-0.1-19.7,4.8c-3.6,2.5-8.1,9.4-8.8,15.3c-0.3,2.8,0.2,4.9,1.5,6.5c1.1,1.3,2.2,1.9,3.4,1.8 c2.3-0.3,4.5-3.6,5.2-4.8c0.2-0.4,0.5-0.6,1-0.7c0.4-0.1,0.8,0.1,1.1,0.4c0.3,0.3,6.4,6.7,16.9,3.6c0.7-0.2,1.4,0.2,1.6,0.8 c0.2,0.7-0.2,1.4-0.8,1.6c-2.3,0.7-4.4,1-6.4,1c-5.9,0-10-2.6-11.9-4.1c-1.2,1.7-3.4,4.4-6.3,4.8 C151.4,128.7,151.3,128.7,151.1,128.7z"/></g><g><path fill="#371A45" d="M155.2,110c0.3,2.1,0.7,4.1,1.3,6c0.3,0.9,0.7,1.8,1,2.7c0.4,0.9,0.8,1.7,1.2,2.5l0,0.1 c0.3,0.6,0,1.4-0.6,1.7c-0.5,0.3-1.1,0.1-1.5-0.3c-0.8-0.9-1.3-1.9-1.7-3c-0.4-1.1-0.6-2.2-0.7-3.3c-0.1-1.1-0.1-2.2,0-3.3 c0.1-1.1,0.3-2.1,0.6-3.2c0-0.1,0.1-0.2,0.2-0.1C155.1,109.9,155.2,110,155.2,110L155.2,110z"/></g><g><path fill="#371A45" d="M175.4,124.7C175.3,124.7,175.3,124.7,175.4,124.7L175.4,124.7l0.1-0.1c0.1-0.1,0.1-0.1,0.2-0.2 c0.1-0.1,0.2-0.3,0.3-0.4c0.2-0.3,0.4-0.6,0.5-0.9c0.2-0.7,0.3-1.6,0.1-2.5l-0.1-0.8c-0.1-0.3,0-0.6-0.1-0.9l0-0.5 c0-0.2,0.1-0.4,0.1-0.5c0-0.2,0.2-0.4,0.2-0.5c0.1-0.2,0.3-0.3,0.4-0.5c0.3-0.3,0.8-0.4,1.2-0.4c0.4,0,0.7,0.1,1,0.3 c0.6,0.3,0.9,0.9,1.1,1.4c0,0.1,0,0.2-0.1,0.2c-0.1,0-0.1,0-0.2-0.1l0,0c-0.3-0.4-0.8-0.6-1.2-0.7c-0.2,0-0.4,0-0.5,0 c-0.1,0.1-0.2,0.1-0.2,0.2c-0.1,0.2-0.1,0.5,0,0.9c0.1,0.2,0.1,0.4,0.2,0.6l0.1,0.3l0.1,0.4c0.4,1.1,0.6,2.4,0.3,3.7 c-0.2,0.7-0.5,1.3-0.9,1.9c-0.2,0.3-0.5,0.5-0.8,0.8c-0.1,0.1-0.3,0.2-0.4,0.3c-0.1,0-0.2,0.1-0.2,0.1l-0.1,0.1l-0.2,0.1 c-0.6,0.3-1.4,0-1.7-0.6C174.4,125.8,174.7,125,175.4,124.7z"/></g><g><g><path fill="#FFF" d="M157,63c0.6,1.9-1.1,3.7-3,3.2c-28.4-7-42.1-6.5-55.5-6.5c-13.5,0-27.8-0.5-56.8,6.7 c-1.9,0.5-3.6-1.3-3-3.2c2.4-7.5,6.2-14.4,11.1-20.3c2.1-2.6,4.9-4.4,8.1-5.5c10.8-3.5,24.4-6.3,40.4-6.3 c15.5,0,28.7,2.6,39.3,6c3.2,1,6,2.9,8.1,5.4C150.6,48.6,154.5,55.5,157,63z"/></g><g><path fill="#371A45" d="M41,67.8c-1,0-2-0.4-2.8-1.2c-1-1-1.3-2.4-0.8-3.8c2.4-7.6,6.3-14.5,11.3-20.7c2.2-2.7,5.2-4.8,8.7-5.9 c12.9-4.2,26.6-6.4,40.7-6.4c13.7,0,27.1,2,39.7,6c3.4,1.1,6.5,3.1,8.7,5.8c5.2,6.2,9.1,13.2,11.6,20.9l0,0 c0.4,1.3,0.1,2.7-0.8,3.8c-1,1-2.3,1.5-3.7,1.1c-26.5-6.5-39.8-6.5-52.7-6.5c-1.7,0-3.3,0-5,0c-12.6,0-26.9-0.1-54,6.6 C41.6,67.8,41.3,67.8,41,67.8z M98.1,32.4c-13.8,0-27.3,2.1-40,6.2c-3,1-5.5,2.7-7.5,5.1c-4.9,5.9-8.5,12.6-10.9,19.9 c-0.2,0.6,0.1,1.1,0.3,1.2c0.3,0.3,0.8,0.5,1.2,0.4c27.4-6.8,41.9-6.7,54.6-6.7c1.7,0,3.3,0,4.9,0c12.4,0,26.5-0.1,53.3,6.5 c0.5,0.1,0.9,0,1.2-0.4c0.2-0.2,0.5-0.6,0.3-1.2l0,0c-2.4-7.3-6.2-14.1-11.1-20.1c-2-2.4-4.6-4.1-7.5-5 C124.7,34.4,111.6,32.4,98.1,32.4z"/></g><g><path fill="#371A45" d="M123,53.6c2.9,0,5.8,0.1,8.6,0.3c2.9,0.2,5.7,0.6,8.6,1c2.9,0.4,5.7,1,8.5,1.7c1.4,0.4,2.8,0.8,4.2,1.3 c0.7,0.3,1.4,0.6,2.1,0.9c0.7,0.3,1.4,0.8,2,1.3c0.5,0.4,0.6,1.2,0.1,1.7c-0.4,0.5-1.1,0.6-1.6,0.2l-0.1-0.1 c-0.9-0.7-2.2-1.3-3.4-1.7c-1.3-0.5-2.6-0.9-4-1.3c-2.7-0.8-5.5-1.4-8.3-2c-2.8-0.6-5.6-1.1-8.4-1.7 C128.6,54.8,125.8,54.2,123,53.6z"/></g><g><path fill="#371A45" d="M72.8,53.6c-2.8,0.6-5.6,1.2-8.4,1.7c-2.8,0.6-5.6,1.1-8.4,1.7c-2.8,0.6-5.6,1.2-8.3,2 c-1.4,0.4-2.7,0.8-4,1.3c-1.3,0.5-2.5,1.1-3.4,1.7L40.2,62c-0.5,0.4-1.3,0.3-1.7-0.2c-0.4-0.5-0.3-1.2,0.2-1.6 c0.7-0.6,1.4-1,2-1.3c0.7-0.4,1.4-0.6,2.1-0.9c1.4-0.5,2.8-0.9,4.2-1.3c2.8-0.7,5.7-1.2,8.5-1.7c2.9-0.4,5.7-0.8,8.6-1 C67,53.7,69.9,53.5,72.8,53.6z"/></g><g opacity=".35"><path fill="#371A45" d="M153.9,66.3c-28.4-7-42.1-6.5-55.5-6.5c-13.5,0-27.7-0.5-56.8,6.7c-1.9,0.5-3.6-1.3-3-3.2 c1.3-4.2,3.1-8.1,5.3-11.9c-1.8,9.4,1.8,5.6,26.1,3.2c54.6-5.2,66.5,3.4,74.2,1.3c7.4-2,0.5-10.4-3.2-17.2 c1.7,1,3.3,2.3,4.6,3.8c5,6,8.9,12.9,11.4,20.5C157.6,64.9,155.9,66.8,153.9,66.3z"/></g><g><path fill="#EF6D3A" d="M86.9,48.2c0.1,0.5,1.1,3.2,3.5,4.3C88.3,51.9,87,50.1,86.9,48.2z"/><path fill="#EF6D3A" d="M101.2,50.5c1.2-0.2,5.7-1.5,5.7-6.8C107.3,47.3,105.2,50.1,101.2,50.5z"/><path fill="#EF6D3A" d="M88,45c-0.3,2.7,0.4,4.2,2.5,6.2l6.9-7L88,45z M89.1,45.6c0.7-0.9,2.1-0.3,1.3,0.4 C89.7,46.8,88.4,46.5,89.1,45.6z M91.3,49.6l-0.5,0l0.1-0.6l0.6,0L91.3,49.6z M92.1,48.1c-0.6,1-2.7,0.5-1.6-0.8 C91.4,46.2,92.7,47,92.1,48.1z M91.8,46.1l-0.2-0.4l0.7,0l0.1,0.5L91.8,46.1z M89.3,47.4L89.2,47l0.6,0l0.1,0.4L89.3,47.4z M93.6,45.5c1-1.1,1.6-0.5,1,0.5C94.1,47,92.9,46.2,93.6,45.5z"/><g><path fill="#DD562C" d="M92.6,36.1l0.3,1.3l1-0.5c0,0-0.6-0.4-0.9-1L92.6,36.1z"/><path fill="#DD562C" d="M93.8,35.2c0.7-0.3,1.4-0.4,1.7-0.4L94.8,36c0,0,0.6-0.3,1.3-0.4l0.4,0.6c-0.8,0-1.3,0.1-2.1,0.5 l0.6-1.5c0,0-0.8,0.6-0.9,0.7L93.8,35.2z"/><path fill="#DD562C" d="M96.7,34.7c0.7,0,1.4,0.1,1.6,0.3l-1,0.8c0,0,0.6-0.1,1.2,0.1l0.1,0.7c-0.7-0.3-1.1-0.4-2-0.4l1.1-1.1 c0,0-0.9,0.3-1,0.3L96.7,34.7z"/><path fill="#DD562C" d="M99.3,35.8c-1,0.9,0.5,0.9,0.9,0.7C100.6,36.2,99.9,35.3,99.3,35.8z M99.9,36.3 c-0.1,0.1-0.6,0-0.3-0.2C99.9,35.9,100.1,36.2,99.9,36.3z"/><path fill="#DD562C" d="M100.5,36.9c-0.1-0.1-0.4-0.5,0-0.8c0.3-0.3,0-1-0.7-1.1l-0.1,0.4c0,0,1.2,0.2,0.5,0.9 c-0.3,0.3,0,0.6,0,0.6L100.5,36.9z"/><path fill="#DD562C" d="M90.9,37.4c0,0,1.2-0.5,1.1-1.4c-0.1-0.6-1.3-1.3-3.1,0.3l2.2,3.2l1-1.3L90.9,37.4z M89.9,36.5 c2.1-1.2,0.7,0.6,0.7,0.6L89.9,36.5z"/><path fill="#DD562C" d="M92.4,35.4c0.1-0.3,0.6,0,0.4,0.3C92.7,35.9,92.3,35.6,92.4,35.4z"/></g><path fill="#EF6D3A" d="M106,43.9c0.1-1.8-0.8-3.3-2.2-4.5l-4.2,3.4l4-3.6c-1.3-1-3.1-1.7-4.8-1.9l0.6,5.5l-0.9-5.5 c-1-0.1-2.1,0-3.1,0.3c-0.7,0.2-1.3,0.5-1.8,0.9L99,43l-5.6-4.3c-1.5,1.3-2.2,3.5-2.2,5.4l7.7-0.6l-4.8,5.7 c1.8,1.2,3.6,1.5,5.2,1.2l-0.1-6.6l0.3,6.6c2.8-0.5,4.5-1.9,5.5-3.9l-5.5-3l5.6,2.8C105.3,45.6,106,44.3,106,43.9z"/><ellipse cx="101.2" cy="47.8" fill="#FFCB39" rx=".7" ry=".8"/><path fill="#FFCB39" d="M101.1,44.9c-0.2-0.3-0.5-0.5-0.7-0.4c-0.2,0.1-0.3,0.5-0.1,0.8c0.2,0.3,0.5,0.5,0.7,0.4 C101.3,45.7,101.3,45.3,101.1,44.9z"/><path fill="#FFCB39" d="M103.8,46.5c-0.2-0.4-0.6-0.6-0.9-0.5c-0.3,0.1-0.3,0.6-0.1,1c0.2,0.4,0.6,0.6,0.9,0.5 C104,47.3,104,46.9,103.8,46.5z"/><path fill="#FFCB39" d="M97.4,49c-0.3-1.3,1.1-1.4,1.2-0.6C98.6,49.2,97.7,50.3,97.4,49z"/><path fill="#FFCB39" d="M97.5,45.7c-0.8,0.3-0.7,1.4,0.1,1C98.4,46.3,98.5,45.3,97.5,45.7z"/><path fill="#FFCB39" d="M102.1,41.8c0.5-1.1,1.6-0.3,1.1,0.4C102.7,42.9,101.6,42.9,102.1,41.8z"/><path fill="#FFCB39" d="M100.5,42.6c0.3-0.6,0.9-0.2,0.6,0.2C100.8,43.3,100.2,43.2,100.5,42.6z"/><path fill="#FFCB39" d="M100,40.8c0.3-0.6,0.9-0.2,0.6,0.2C100.3,41.5,99.7,41.5,100,40.8z"/><path fill="#FFCB39" d="M99.6,38.7c-0.3-0.9,0.8-1,0.8-0.3C100.5,39.2,99.9,39.6,99.6,38.7z"/><path fill="#FFCB39" d="M101.8,39.1c0.5-0.5,0.9,0.2,0.5,0.5C101.8,39.9,101.3,39.6,101.8,39.1z"/><path fill="#FFCB39" d="M97.2,37.8c1.2-0.3,1.3,1.1,0.3,1.1C96.6,39,96,38.1,97.2,37.8z"/><path fill="#FFCB39" d="M98.1,40.4c0.7,0.3,0.2,1-0.2,0.6C97.4,40.8,97.4,40.1,98.1,40.4z"/><path fill="#FFCB39" d="M96.9,42c0.7,0.3,0.2,1-0.2,0.6C96.2,42.3,96.2,41.7,96.9,42z"/><path fill="#FFCB39" d="M93.3,40.2c0.7-0.8,1.4,0.1,0.8,0.6C93.5,41.3,92.6,41,93.3,40.2z"/><path fill="#FFCB39" d="M93.4,42.3c1.1,0,0.8,1.2,0,1C92.7,43.1,92.3,42.3,93.4,42.3z"/><path fill="#FFCB39" d="M103.8,43.7c0-1,1.2-0.7,1.2,0C105.1,44.3,103.8,45.2,103.8,43.7z"/><rect width=".4" height=".4" x="102.1" y="43.7" fill="#FFCB39"/><rect width=".4" height=".3" x="92.1" y="41.7" fill="#FFCB39"/><rect width=".4" height=".4" x="101.8" y="46" fill="#FFCB39"/><rect width=".4" height=".4" x="102.4" y="47.9" fill="#FFCB39" transform="matrix(0.7098 -0.7044 0.7044 0.7098 -4.101 86.2693)"/><rect width=".4" height=".4" x="100.2" y="46.2" fill="#FFCB39" transform="matrix(0.7098 -0.7044 0.7044 0.7098 -3.5965 84.1681)"/><rect width=".4" height=".4" x="95.3" y="42.7" fill="#FFCB39" transform="matrix(0.7098 -0.7044 0.7044 0.7098 -2.4838 79.7482)"/><rect width=".4" height=".4" x="94.9" y="38.2" fill="#FFCB39" transform="matrix(0.7098 -0.7044 0.7044 0.7098 0.5156 78.1388)"/><polygon fill="#FFCB39" points="94.8 41.2 94.7 41.3 94.9 41.5 95 41.3"/><polygon fill="#FFCB39" points="96.6 39.2 96.5 39.4 96.7 39.5 96.8 39.4"/><polygon fill="#FFCB39" points="99.7 41.7 99.6 41.8 99.7 42 99.8 41.9"/><polygon fill="#FFCB39" points="99.9 39.7 99.8 39.8 100 40 100.1 39.9"/><polygon fill="#FFCB39" points="101.1 38.7 101 38.8 101.1 39 101.3 38.8"/><polygon fill="#FFCB39" points="104.2 41.8 104.1 42 104.2 42.1 104.3 42"/><rect width=".4" height=".4" x="96.3" y="48.1" fill="#FFCB39" transform="matrix(0.7098 -0.7044 0.7044 0.7098 -6.049 81.9648)"/></g></g><g opacity=".3"><path fill="#FFF" d="M68.9,195.8c0.6,3.4,10.4,8.9,21.6,9.3c11.3,0.4,14-5.2,7.3-6.9c-2.4-0.6-7.4-0.2-12.3-1.1 C76.7,195.7,68.4,193,68.9,195.8z"/></g></g></g></g><g><g><ellipse cx="203.1" cy="23.4" fill="#FFF" rx="20.1" ry="16.1" transform="matrix(0.9363 -0.3513 0.3513 0.9363 4.7113 72.8194)"/></g><g><ellipse cx="176.8" cy="56" fill="#FFF" rx="10.7" ry="7.5" transform="matrix(0.9895 -0.1445 0.1445 0.9895 -6.2364 26.1412)"/></g><g id="layer102_1_"><path fill="#FFC31A" d="M177.7,56.3c-0.7,0-1.4,0-2.1-0.1c-2.2-0.3-3.8-1-4.2-1.9c0-0.1-0.1-0.1-0.1-0.1c0,0.1-0.1,1.1-0.2,1.5 c0,0.4,0,1.3,0,1.6c0.1,0.8,0.4,1.4,0.9,1.9c0.9,0.9,2.3,1.4,4.4,1.5c0.6,0,2.2,0,2.4,0h0.1v-2.5c0.1-0.7,0.2-1.3,0.3-2 C178.9,56.2,178.2,56.2,177.7,56.3z"/><path fill="#FFD538" d="M183.2,55c0-0.3-0.1-0.7-0.1-0.7c0,0-1.2,0-2.5,0H178l0.6,0.9c0.3,0.5,0.6,0.9,0.6,0.9 c-0.1,0.7-0.2,1.3-0.3,2h2c1.6,0,2.1,0,2.1,0c0-0.1,0.1-0.7,0.1-1.1C183.2,56.5,183.2,55.4,183.2,55z M180.5,57.5 c-0.1,0-0.1,0.1-0.2,0.1c-0.5,0-0.6-0.6-0.2-0.9c0.2-0.1,0.4-0.1,0.5,0c0.1,0.1,0.2,0.3,0.2,0.3C180.8,57.3,180.7,57.5,180.5,57.5 z M181.7,56.1c-0.1,0-0.1,0.1-0.3,0.1c-0.5,0-0.8-0.7-0.4-1.1c0.3-0.3,0.7-0.2,0.9,0.2c0,0.1,0.1,0.1,0.1,0.3 C182,55.8,181.9,56,181.7,56.1z M182.3,57.3c-0.1,0.1-0.4,0.1-0.4-0.1c-0.1-0.1-0.1-0.3,0-0.3c0.1-0.2,0.4-0.2,0.5,0 C182.5,57,182.5,57.2,182.3,57.3z"/><path fill="#FCCD35" d="M176.4,55.8c-2.2-0.1-4.1-0.9-4.5-1.7c-0.1-0.1-0.1-0.2-0.1-0.3c0-0.1,0-0.2,0.1-0.3 c0.4-0.8,1.8-1.4,3.7-1.7c0.8-0.1,2-0.1,2.7-0.1c1.6,0.2,3.1,0.6,3.9,1.2c0.3,0.2,0.6,0.5,0.7,0.7c0,0.1,0.1,0.2,0.1,0.2v0.1h-2.8 h-2.8l0.6,0.9c0.3,0.5,0.6,0.9,0.6,0.9C178.5,55.8,176.9,55.9,176.4,55.8z M177.2,55.3c0.2-0.1,0.2-0.2,0-0.3 c-0.3-0.1-0.7,0-0.7,0.1c0,0.1,0.1,0.1,0.1,0.2C176.8,55.3,177.1,55.3,177.2,55.3z M174.2,54.7c0.1,0,0.2-0.1,0.2-0.1 c0.1-0.1,0.1-0.2,0-0.3c-0.3-0.3-1-0.3-1.2,0c-0.2,0.2,0,0.4,0.4,0.5C173.8,54.8,174.1,54.8,174.2,54.7z M177.6,53.3 c0.1-0.1,0.1-0.1,0-0.2c-0.1-0.1-0.5-0.1-0.6,0c-0.1,0.1-0.1,0.1-0.1,0.2C177,53.3,177.4,53.3,177.6,53.3z M179.6,53.3 c0.2-0.1,0.3-0.2,0.3-0.3s-0.1-0.2-0.2-0.3c-0.1-0.1-0.5-0.1-0.7,0c-0.2,0.1-0.3,0.2-0.3,0.3s0.1,0.2,0.3,0.3 C179.1,53.3,179.4,53.3,179.6,53.3z M175.5,52.9c0.1,0,0.3-0.2,0.3-0.3c0,0,0-0.1-0.1-0.1c-0.2-0.2-0.8-0.2-1.1,0 c-0.1,0.1-0.1,0.1-0.1,0.1c0,0.1,0.2,0.3,0.5,0.3C175.2,52.9,175.4,52.9,175.5,52.9z"/></g><g id="layer102"><path fill="#FFC31A" d="M204.3,23.9c-1.3,0.1-2.8,0-4.2-0.2c-4.3-0.5-7.6-2-8.3-3.9c-0.1-0.2-0.1-0.2-0.1-0.2 c-0.1,0.1-0.3,2.2-0.3,3c-0.1,0.8-0.1,2.6,0,3.2c0.2,1.7,0.7,2.8,1.7,3.8c1.7,1.7,4.7,2.7,8.7,3c1.3,0.1,4.3,0.1,4.8-0.1h0.1v-5 c0.2-1.3,0.3-2.6,0.5-3.9C206.7,23.7,205.3,23.8,204.3,23.9z"/><path fill="#FFD538" d="M215.2,21.4c-0.1-0.5-0.2-1.4-0.2-1.4c0,0-2.3,0-5.1,0h-5.1l1.2,1.8c0.7,1,1.2,1.8,1.2,1.8 c-0.2,1.3-0.3,2.6-0.5,3.9h4c3.3,0,4.1,0,4.1-0.1c0.1-0.1,0.2-1.4,0.3-2.3C215.3,24.3,215.3,22.2,215.2,21.4z M209.9,26.4 c-0.1,0.1-0.3,0.1-0.4,0.1c-0.9,0-1.3-1.3-0.5-1.8c0.3-0.2,0.7-0.2,1,0.1c0.2,0.1,0.3,0.5,0.3,0.7 C210.4,25.9,210.2,26.3,209.9,26.4z M212.2,23.6c-0.1,0.1-0.3,0.1-0.5,0.1c-1.1,0-1.6-1.4-0.8-2.2c0.6-0.5,1.5-0.3,1.8,0.4 c0.1,0.2,0.1,0.3,0.1,0.6C212.9,23.1,212.7,23.4,212.2,23.6z M213.6,26c-0.3,0.2-0.7,0.1-0.8-0.2c-0.1-0.2-0.1-0.5,0-0.7 c0.2-0.3,0.8-0.3,1,0C213.9,25.4,213.8,25.8,213.6,26z"/><path fill="#FCCD35" d="M201.6,23.1c-4.5-0.3-8.2-1.7-9.1-3.5c-0.1-0.3-0.1-0.3-0.1-0.7c0-0.3,0-0.4,0.2-0.7 c0.7-1.6,3.7-2.8,7.4-3.4c1.7-0.2,4-0.3,5.4-0.1c3.3,0.3,6.1,1.3,7.9,2.5c0.5,0.3,1.2,1,1.4,1.4c0.1,0.2,0.2,0.3,0.2,0.4v0.1h-5.7 h-5.7l1.3,1.9c0.7,1,1.3,1.9,1.3,1.9C205.9,23.1,202.6,23.2,201.6,23.1z M203.2,22c0.3-0.2,0.3-0.4-0.1-0.5 c-0.5-0.2-1.3-0.1-1.3,0.2c0,0.1,0.1,0.3,0.3,0.3C202.4,22.1,203,22.1,203.2,22z M197.4,20.7c0.2-0.1,0.3-0.2,0.5-0.3 c0.2-0.2,0.2-0.4,0-0.6c-0.5-0.5-1.9-0.5-2.5-0.1c-0.4,0.4-0.1,0.8,0.7,1C196.4,20.9,197.1,20.9,197.4,20.7z M204.1,17.9 c0.2-0.1,0.2-0.3,0-0.4c-0.2-0.2-1-0.2-1.3-0.1s-0.3,0.2-0.2,0.3C202.9,18,203.8,18.1,204.1,17.9z M208,17.9 c0.3-0.1,0.6-0.3,0.6-0.6c0-0.2-0.1-0.4-0.5-0.5c-0.3-0.1-1-0.2-1.4-0.1c-0.3,0.1-0.6,0.4-0.6,0.6c0,0.2,0.3,0.4,0.6,0.6 C207,18,207.7,18,208,17.9z M199.9,17.1c0.3-0.1,0.6-0.3,0.6-0.5c0-0.1-0.1-0.2-0.2-0.3c-0.5-0.4-1.7-0.4-2.2-0.1 c-0.2,0.1-0.2,0.2-0.2,0.3c0,0.3,0.4,0.5,1,0.6C199.2,17.2,199.7,17.2,199.9,17.1z"/></g></g></svg>