<svg xmlns="http://www.w3.org/2000/svg" xmlns:v="https://vecta.io/nano" xmlns:xlink="http://www.w3.org/1999/xlink" id="Layer_1" x="0" y="0" version="1.1" viewBox="0 0 250 84" xml:space="preserve" style="enable-background:new 0 0 250 84"><style type="text/css">.st0{fill:#fff}.st1{fill:#b7a9a7}.st2{fill:#a7aa35}.st3{fill:#8e8e2d}.st4{fill:#aa6130}.st5{fill:#c4733b}.st6{fill:#823e21}.st7{fill:#fcc786}.st8{fill:#ffe4a9}.st9{fill:#529e9e}.st10{fill:#6bc6c4}.st11{fill:#80e5e0}.st12{opacity:.4;fill:#70301a;enable-background:new}.st13{fill:#a04c32}.st14{fill:#70301a}.st15{fill:#d6b380}.st16{fill:#367775}.st17{fill:#e0be90}.st18{fill:#bc935e}.st19{fill:#f9df9b}.st20{fill:#ea6849}.st21{fill:#f2c994}.st22{fill:#dd9666}.st23{fill:#f7cb7f}.st24{fill:#eac18b}.st25{fill:#ffe4ae}.st26{fill:#9b7d5c}.st27{fill:#7f6144}.st28{fill:#d8553a}.st29{fill:#265957}.st30{fill:#ff7757}.st31{fill:#ffeec5}.st32{fill:#fff797}.st33{fill:#fd5a71}.st34{fill:#d3d333}.st35{fill:#d36d1a}.st36{fill:#efbcab}.st37{fill:#bc915c}.st38{fill:#ffcb39}.st39{fill:#ffdd50}.st40{fill:#fcf27c}.st41{fill:#f9bb23}.st42{fill:#f4a414}.st43{fill:#e08820}.st44{fill:#5cb7a8}.st45{fill:#85ddd0}.st46{fill:#d6ba96}.st47{fill:#fff3c2}.st48{fill:#936047}.st49{fill:#663929}.st50{fill:#c9947f}.st51{fill:#ffef5f}.st52{fill:#f26a27}.st53{opacity:.6;fill:#83d6c6;enable-background:new}.st54{fill:#ef6d3a}.st55{fill:#dd562c}.st56{fill:#a55723}.st57{fill:#d3842d}.st58{fill:#ffad40}.st59{fill:#ed9832}.st60{fill:#ffce43}.st61{fill:#75634c}.st62{fill:#544232}.st63{fill:#6b5844}.st64{fill:#efdbce}.st65{fill:#f4384b}.st66{opacity:.55}.st67{opacity:.3}.st68{fill:#650000}.st69{fill:#fbbe25}.st70{opacity:.25}.st71{fill:#f9b800}.st72{fill:#add647}.st73{fill:#c69967}.st74{fill:#efca9a}.st75{fill:#ddb483}.st76{fill:#ffd3a4}.st77{fill:#ffdec0}.st78{fill:#aa694d}.st79{opacity:.2;fill:#e2815a;enable-background:new}</style><g><path d="M129.7,80.7c-8.8-0.8-17.7-3-16-6.4s-3.2-12.5-7.9-3.8c0,0-13-6-7.3,3.8c0,0-22.2,2.6-6.8,7.2L129.7,80.7z" class="st0"/><g><g><polygon points="36.1 18.8 36.5 18.8 37.5 32.1 37 32.1" class="st1"/><polygon points="60.1 24.5 60.5 24.5 61.5 37.9 61 37.9" class="st1"/><polygon points="66.9 25.8 28.8 20.2 28.8 19.7 66.9 25.4" class="st1"/></g><rect width="30.2" height="1.7" x="50.6" y="79.4" class="st2"/><rect width="30.2" height="1.7" x="3.4" y="79.4" class="st3"/><polygon points="13.4 80.5 11.3 42 71.3 40.3 70.9 79.5" class="st4"/><polygon points="27.2 80.5 71.3 40.3 70.9 79.5" class="st5"/><path d="M47.2,71.9c-0.7,0-2,1.8-0.2,1.9C49.6,73.9,49.7,71.9,47.2,71.9z" class="st4"/><path d="M46.7,64.4c-0.7,0-2,2.4-0.2,2.5C49.1,67.2,49.2,64.4,46.7,64.4z" class="st4"/><path d="M48.5,67.3c-0.5,0-1.2,1.5-0.1,1.6C50,69,50.1,67.2,48.5,67.3z" class="st4"/><path d="M36.3,68.8c-0.7,0-2,1.8-0.2,1.9C38.7,70.9,38.8,68.8,36.3,68.8z" class="st5"/><path d="M48.7,74.2c-1,0-2.7,2.9-0.2,3.2C51.9,77.6,52,74.1,48.7,74.2z" class="st4"/><path d="M38.8,74.6c-1,0-2.7,2.9-0.2,3.2C42,78,42.2,74.5,38.8,74.6z" class="st4"/><path d="M58.3,71.5c-0.9,0-2.3,2.9-0.2,3C61,74.8,61.2,71.4,58.3,71.5z" class="st4"/><path d="M53.9,73c-0.5,0-1.4,1.8-0.1,1.9C55.6,75.1,55.6,72.9,53.9,73z" class="st4"/><path d="M69.8,63c-0.4,0-1.1,1.6-0.1,1.8C71.1,64.9,71.2,62.9,69.8,63z" class="st4"/><path d="M62.8,69.7c-1.2,0-3.4,3.1-0.2,3.3C66.7,73.3,66.9,69.7,62.8,69.7z" class="st4"/><path d="M67.2,65.2c-1.1,0-2.8,3.6-0.2,3.8C70.5,69.3,70.6,65.1,67.2,65.2z" class="st4"/><polygon points="34.9 49.8 37.2 76.2 47.7 76.1 46.7 48.6" class="st6"/><polygon points="35.7 50.2 37.7 75.5 47.4 75.4 46.5 49.2" class="st7"/><polygon points="36.4 57.2 37.7 75.5 47.2 73 46.5 49.2" class="st8"/><polygon points="36.5 51 38.4 74.8 46.8 74.7 46.1 49.8" class="st9"/><polygon points="36.7 51.4 38.4 74.8 46.1 74.4 45.6 50.7" class="st10"/><polygon points="42.2 51 37.5 60.5 37.9 66.5 45.6 55.3 45.6 50.8" class="st11"/><polygon points="38.3 70.3 45.9 60.9 45.8 64.5 40.1 74.5 38.6 74.6" class="st11"/><polygon points="37.6 63.9 46.5 63.5 46.5 64.9 37.7 65.1" class="st9"/><polygon points="48.6 49.2 49.3 69.1 68.4 69.8 69.9 49.6" class="st6"/><polygon points="49 50 49.7 68.5 67.6 69.3 69 50.4" class="st7"/><polygon points="54.2 50.2 49.7 68.5 63.7 69.1 67.4 50.7" class="st8"/><polygon points="49.7 50.7 50.3 67.9 66.9 68.5 68.3 51.1" class="st9"/><polygon points="49.9 51 50.5 67.7 66.4 68.3 67.5 51.4" class="st10"/><path d="M67.4,53.4c-0.1,0.1-6.5,8.1-11.5,14.4c-1.5,0-5.4-0.2-5.4-0.2l-0.1-5.3l15.7-11.1l1.4,0.2L67.4,53.4z" class="st11"/><path d="M63.5,51.3c-1.4,0.8-13.3,7.3-13.3,7.3L49.9,54l11.2-2.9L63.5,51.3z" class="st11"/><polygon points="67.5 56.1 49.9 55.9 49.9 56.9 67.5 57.2" class="st9"/><polygon points="68.1 56.2 49.6 55.6 49.6 56.1 68.1 56.7" class="st7"/><path d="M69.8,80.1c0.5-3.1,2.9-7.4-0.4-8c-2.6-0.5-10.9,1.6-14.4,2.5c-1,0.2-1.8,1.3-2,2.7l-0.5,2.9L69.8,80.1z" class="st6"/><path d="M71,46.8c-1.6-5.7-4.1-11.3-5.6-9.9c0-0.1-26.8-3-28-2.1c-11.4,1-7.5,12.9-7.5,12.9 c0.1,5.4,12.5,6.3,12.5,1.6c1.1,3.7,10.9,4.3,10.6,0.1c2.3,3.4,9.1,4,9.7,0.5C65.1,53.4,72.6,52.4,71,46.8z" class="st12"/><polygon points="13.4 80.5 11.3 42 30.6 37.6 35.2 79.5" class="st6"/><path d="M14.2,59.8c0.7-0.4,1.1-0.1,1.1,0.9s-0.8,1.5-1.3,1.5S13.3,60.2,14.2,59.8z" class="st13"/><polygon points="31.5 43.4 29.9 43.5 32 80.7 35.3 80.7" class="st14"/><polygon points="25.2 58.4 15.9 57 17.4 68.9 25.1 68.8" class="st14"/><polygon points="24.9 58 17.4 56.8 18.6 68.9 24.9 68.7" class="st15"/><polygon points="24.6 57.9 18.3 58 19.4 68.1 24.6 67.9" class="st9"/><polygon points="18.9 61.8 24.4 58.8 24.4 57.5 18.6 58.4" class="st16"/><polygon points="10.3 49.8 9.7 38.3 27 27.6 34.4 46.2" class="st15"/><polygon points="10.3 49.8 9.7 38.3 27 27.6" class="st17"/><polygon points="30.8 46.6 27 27.6 34.4 46.2" class="st18"/><polygon points="27 27.6 69.4 32.3 73.7 44.8 34.4 46.2" class="st19"/><path d="M65.5,45.3c1.5,4.8,9.8,5.7,8.2-0.5C71.9,37.8,65.5,45.3,65.5,45.3z" class="st20"/><path d="M56,45c1.8,4.8,11.9,5.8,9.8-0.4C63.7,37.6,56,45,56,45z" class="st19"/><path d="M45.1,45.2c2,4.8,13.4,5.8,11.1-0.4C53.8,37.8,45.1,45.2,45.1,45.2z" class="st20"/><polygon points="61.9 31.4 66.1 46.5 73.7 44.6 69.4 32.3" class="st20"/><polygon points="39.4 28.9 45.3 45.2 56.3 45.3 50.6 30.4" class="st20"/><polygon points="34.3 45.9 9 49 9.6 50.7 34.8 46.6" class="st21"/><path d="M34.3,45.9c2,4.8,13.4,5.8,11.1-0.4C42.9,38.5,34.3,45.9,34.3,45.9z" class="st19"/><rect width="38.2" height="3.6" x="27.5" y="77.5" class="st22"/><rect width="19.4" height="2.9" x="37.5" y="77.3" class="st23"/><path d="M75.2,81c0.5-4.5,2.8-10.7-0.4-11.5c-2.5-0.7-10.4,2.4-13.8,3.7c-1,0.4-1.7,1.9-2,3.9l-0.3,4L75.2,81z" class="st2"/><polygon points="11.2 55.2 16.7 64.3 16.7 63.6 11.5 54.8" class="st15"/><polygon points="25.8 68.4 16.2 68.1 16.5 69.4 25.8 69.3" class="st24"/><polygon points="23.4 68.5 20.1 68.3 20.2 69.3 23.4 69.3" class="st25"/><polygon points="13.1 40.3 17.3 37.9 18.4 44.7 13.5 45.2" class="st26"/><polygon points="13.7 40.6 17.3 38.6 18.2 44.5 14 45" class="st27"/><polygon points="12.9 41.2 17.8 38.9 17.8 39.5 13 41.6" class="st15"/><polygon points="12.9 42.5 18 40.4 18 41.1 13 42.9" class="st15"/><polygon points="13 43.9 18.3 42.5 18.4 43.1 13.2 44.3" class="st15"/><polygon points="37.3 63.5 46.7 63 46.7 64.4 37.4 64.5" class="st8"/><path d="M29.8,62.5c1.2-0.3,2,0.2,2,1.2c0.2,1.1-1.1,1.5-2,1.4C29,65.2,28.4,62.9,29.8,62.5z" class="st6"/><path d="M28.6,66.8c0.8-1,1.5-0.7,1.8,0.9c0.4,1.6-0.5,2.6-1.1,2.9C28.8,70.7,27.7,67.9,28.6,66.8z" class="st13"/><path d="M25.3,50.9c-0.3-1.4,0.3-2.1,2-2.1s2.1,1.5,2,2.4C29,52,25.7,52.5,25.3,50.9z" class="st13"/><path d="M13,52.2c-0.3-1.4,0.3-2.1,2-2.1s2.1,1.5,2,2.4C16.7,53.4,13.4,53.9,13,52.2z" class="st13"/><path d="M28.3,58.4c0.6-0.7,1-0.5,1.3,0.7c0.2,1.1-0.3,1.8-0.7,2C28.4,61.1,27.6,59.1,28.3,58.4z" class="st13"/><path d="M27,63.9c0.7-0.4,1.1-0.1,1.1,0.9s-0.8,1.5-1.3,1.5C26.3,66.3,26.2,64.4,27,63.9z" class="st13"/><path d="M24.4,70.6c0.7-0.4,1.1-0.1,1.1,0.9S24.7,73,24.2,73C23.8,72.9,23.6,71.1,24.4,70.6z" class="st13"/><path d="M14.4,68.8c0.7-0.4,1.1-0.1,1.1,0.9s-0.8,1.5-1.3,1.5C13.7,71.1,13.5,69.3,14.4,68.8z" class="st13"/><path d="M27.2,55.6c0.5-0.2,0.7-0.1,0.7,0.6c0,0.7-0.5,0.9-0.8,0.9C26.8,57,26.7,55.9,27.2,55.6z" class="st13"/><path d="M30.7,63.2c0.5-0.2,0.7-0.1,0.7,0.6c0,0.7-0.5,0.9-0.8,0.9C30.2,64.7,30.2,63.4,30.7,63.2z" class="st13"/><path d="M15.5,66c0.5-0.2,0.7-0.1,0.7,0.6s-0.5,0.9-0.8,0.9C15.1,67.4,15,66.2,15.5,66z" class="st13"/><path d="M30.2,71.2c0.4-0.5,0.7-0.3,1,0.5c0.2,0.8-0.2,1.3-0.6,1.5C30.2,73.3,29.7,71.8,30.2,71.2z" class="st13"/><path d="M26.2,71.3c0.2-1.2,1-1.3,2-0.1c1.1,1.2,0.8,2.5,0.4,3C28.2,74.7,25.9,72.7,26.2,71.3z" class="st13"/><path d="M19.3,71.5c-0.9-0.9-0.6-1.5,1.1-1.8c1.6-0.2,2.5,0.7,2.8,1.3C23.2,71.7,20.3,72.6,19.3,71.5z" class="st13"/><path d="M31.6,59.7c0.7-0.2,1,0.1,1.1,1.1c0.1,1.1-0.7,1.4-1.1,1.3C31.2,62,30.8,60,31.6,59.7z" class="st6"/><polygon points="19.2 63.4 19.7 67.8 24.5 67.7 24.4 62.9" class="st16"/><polygon points="18.5 63.1 24.8 62.2 24.6 63 18.6 63.6" class="st15"/><polygon points="20.3 55.7 25.3 64.2 25.4 63.4 20.7 55.3" class="st24"/><path d="M9,59.3c0.1-2,1-7.3,9-8.6c4.7-0.7,7.7,7.9,7.7,7.9L9,59.3z" class="st21"/><path d="M16.1,55.7c0-1.9,0.7-3.6,1.8-4.9C9.9,52,9,57.2,9,59.3l7.9-0.3C16.4,57.9,16.1,56.9,16.1,55.7z" class="st28"/><polygon points="20.7 63.4 20.9 67.7 24.5 67.7 24.4 62.9" class="st29"/><path d="M16.9,58.9c-1-2.3-1.3-4.6-0.1-6.4c1.2-1.8,3.9,6.3,3.9,6.3L16.9,58.9z" class="st25"/><path d="M50.2,69.7c-0.7,0-2,1.8-0.2,1.9C52.6,71.7,52.8,69.7,50.2,69.7z" class="st4"/><path d="M52.4,71.2c-0.6,0-1.6,1.6-0.1,1.6C54.3,73,54.4,71.2,52.4,71.2z" class="st4"/><path d="M55.6,69.6c-0.9,0-2.3,2.9-0.2,3C58.3,72.9,58.3,69.5,55.6,69.6z" class="st4"/><path d="M8.5,80.9C7.7,76.7,3.4,70.8,9.4,70c4.6-0.7,19.5,2.2,25.7,3.4c1.8,0.4,3,1.1,3.4,2.9l0.6,4.8L8.5,80.9z" class="st3"/><path d="M29.6,81c-0.2-2.7-1-6.2,0.2-7.1c1.1-0.7,5.2,0.2,7.5,0.7c0.7,0.2,1.3,1.3,1.5,2.9l0.4,3.7L29.6,81z" class="st2"/><path d="M63,32c2.2,7,2.8,15.6,9.3,15.4c2.8-0.1-3.3-14.7-3.3-14.7L63,32z" class="st30"/><path d="M41.6,30c2.4,7.2,3.9,17.1,11.6,16.6c3.9-0.2-3.4-15.7-3.4-15.7L41.6,30z" class="st30"/><path d="M51.9,30.8c2.4,7.2,3.9,17.1,11.6,16.6c3.9-0.2-2.6-15.5-2.6-15.5L51.9,30.8z" class="st31"/><path d="M28.9,28.7c2.9,7.7,4.9,18.4,13.4,17.9c4.3-0.2-3.4-16.6-3.4-16.6L28.9,28.7z" class="st31"/><path d="M46.9,63.4c0-0.3-0.3-0.7-0.8-0.7s-0.8,0.2-0.8,0.7c0,0.3,0.3,0.7,0.8,0.7C46.5,63.9,46.9,63.7,46.9,63.4z" class="st15"/><path d="M46.9,63c0-0.2-0.2-0.5-0.7-0.5c-0.3,0-0.7,0.2-0.7,0.5c0,0.2,0.2,0.5,0.7,0.5C46.6,63.5,46.9,63.3,46.9,63z" class="st8"/><polygon points="39.3 67.3 39.1 69.3 45.2 69.5 45 66.8" class="st9"/><polygon points="39.5 67 39.3 69 45.4 69.3 45.2 66.5" class="st32"/><g><polygon points="39.6 67 39.5 67 42 64.3 45.2 66.6 45.1 66.7 42 64.4" class="st32"/></g><path d="M40,67.3c0-0.1-0.1-0.2-0.2-0.2s-0.2,0.1-0.2,0.2s0.1,0.2,0.2,0.2C39.9,67.4,40,67.4,40,67.3z" class="st9"/><path d="M45.1,67c0-0.1-0.1-0.2-0.2-0.2s-0.2,0.1-0.2,0.2s0.1,0.2,0.2,0.2S45.1,67,45.1,67z" class="st9"/><g><path d="M27.1,11.3c0.6,0.1,1.1,0.1,1.7,0.2c0.7,0.1,1.2,0.2,1.8,0.2c0.6,0.1,1.1,0.2,1.6,0.2 c0.5,0.1,0.9,0.2,1.3,0.2c0.6,0.2,1.1,0.4,1.5,0.7s0.7,0.7,1.1,1.3c0.2,0.4,0.4,0.9,0.6,1.5c0.2,0.6,0.2,1.3,0.3,2.2 c0,0.5,0.1,0.9,0.1,1.2c0,0.3,0,0.7-0.1,0.9c0,0.2-0.1,0.5-0.2,0.7s-0.2,0.3-0.2,0.5c-0.2,0.2-0.4,0.4-0.7,0.6 c-0.2,0.2-0.7,0.2-1.1,0.1c-0.3-0.1-0.7-0.1-1-0.2s-0.7-0.2-1-0.2c-0.3-0.1-0.7-0.2-1-0.2c-0.3-0.1-0.7-0.2-0.9-0.2 c0,0.6,0,1.1,0,1.7s0,1.2,0.1,1.8c-0.4,0-0.9,0-1.4-0.1c-0.5,0-0.9-0.1-1.4-0.2L27.1,11.3z M29,16.4c0,0.2,0,0.5,0,0.7 s0,0.5,0,0.7c0.4,0.1,0.8,0.2,1.3,0.3c0.5,0.1,0.9,0.2,1.4,0.3c0.5,0.1,0.9,0.2,1.2,0.3c0.4,0.1,0.7,0.2,0.9,0.2s0.3,0,0.5-0.2 s0.2-0.3,0.2-0.7c0-0.3-0.1-0.6-0.2-0.7c-0.2-0.2-0.3-0.2-0.7-0.3c-0.2-0.1-0.6-0.1-1-0.2s-0.8-0.2-1.3-0.2 c-0.5-0.1-0.9-0.1-1.3-0.2C29.6,16.5,29.3,16.5,29,16.4z" class="st33"/><path d="M39.6,25.9c-0.2-2.1-0.3-4.2-0.6-6.3c-0.2-2-0.5-4.2-0.7-6.3c1,0.2,1.9,0.6,2.8,1c0,2,0.1,3.9,0.1,5.9 c0,1.9,0,3.8,0,5.6c-0.2,0.1-0.5,0.1-0.7,0.2C40.2,25.9,39.8,25.9,39.6,25.9z" class="st33"/><path d="M43.7,26.8c-0.1-0.5-0.2-1-0.2-1.5c-0.1-0.5-0.1-1-0.2-1.6c0.7-0.7,1.5-1.4,2.2-2s1.5-1.1,2.2-1.6 c-0.8-0.2-1.6-0.3-2.5-0.4c-0.8-0.2-1.6-0.2-2.5-0.3c-0.1-0.8-0.1-1.6-0.1-2.4s0-1.6,0-2.3c0.8,0.2,1.6,0.2,2.4,0.4 c0.7,0.2,1.6,0.3,2.4,0.5c0.4,0.1,0.8,0.2,1.2,0.3s0.8,0.2,1.2,0.3c0.2,0.7,0.3,1.3,0.5,2s0.2,1.3,0.3,2 c-0.9,0.6-1.8,1.1-2.6,1.8c-0.9,0.6-1.7,1.3-2.6,2c0.9,0.1,1.8,0.2,2.7,0.2c0.8,0,1.6,0,2.5,0c0.1,0.5,0.1,1.1,0.2,1.6 c0,0.6,0.1,1.1,0.1,1.7c-1.1,0-2.3-0.1-3.5-0.2C46.2,27.1,45,27,43.7,26.8z" class="st33"/><path d="M52.9,28.2c-0.1-0.4-0.1-0.9-0.2-1.4s-0.1-1-0.1-1.5c0.7-0.7,1.3-1.3,2-1.9s1.3-1.1,2-1.6 c-0.7-0.2-1.4-0.2-2.1-0.4c-0.7-0.1-1.5-0.2-2.2-0.2c-0.1-0.7-0.1-1.6-0.1-2.2c0-0.7,0-1.5,0-2.1c0.7,0.1,1.5,0.2,2.1,0.3 c0.7,0.2,1.4,0.2,2,0.4c0.3,0.1,0.7,0.2,1.1,0.2c0.3,0.1,0.7,0.2,1.1,0.3c0.2,0.7,0.3,1.2,0.4,1.8c0.1,0.6,0.2,1.2,0.3,1.8 c-0.8,0.6-1.6,1.1-2.4,1.7c-0.8,0.6-1.6,1.2-2.4,2c0.8,0.1,1.6,0.1,2.4,0.1c0.7,0,1.5,0,2.2-0.1c0.1,0.5,0.1,1,0.2,1.6 c0,0.5,0.1,1.1,0.1,1.6c-1,0-2-0.1-3.1-0.2C55.1,28.5,54,28.4,52.9,28.2z" class="st33"/><path d="M67.4,29.9c-0.1,0-0.1,0-0.2,0s-0.1,0-0.2,0c-0.6-0.1-0.9-0.4-1.1-0.9c-0.1,0.2-0.2,0.3-0.2,0.4 c-0.1,0.1-0.2,0.2-0.3,0.2c-0.2,0.1-0.2,0.1-0.5,0.1c-0.2,0-0.4,0-0.7,0c-0.2,0-0.3-0.1-0.7-0.2c-0.2-0.1-0.5-0.2-0.8-0.2 c-0.2-0.1-0.6-0.2-0.8-0.4c-0.2-0.2-0.5-0.3-0.7-0.6c-0.5-0.6-0.8-1.3-0.8-2.3c0-0.9,0.1-1.6,0.5-2c0.3-0.4,0.9-0.6,1.6-0.4 c0.3,0.1,0.7,0.2,1.2,0.2c0.4,0.1,0.8,0.2,1.2,0.4c0.2,0.1,0.4,0.2,0.6,0.3c0.2,0.2,0.2,0.3,0.3,0.7c0-0.2,0-0.3,0-0.5 c0-0.4-0.1-0.7-0.3-1c-0.2-0.2-0.5-0.3-0.9-0.4c-0.2-0.1-0.5-0.1-0.8-0.2s-0.7-0.1-1.1-0.2c-0.3-0.1-0.7-0.1-1.1-0.1 S61,23,60.6,23c0-0.2-0.1-0.6-0.1-0.8c0-0.2,0-0.6-0.1-0.8c0-0.4,0-0.7,0-1.1s0-0.7,0-1.1c0.3,0,0.7,0.1,1.1,0.2 c0.4,0.1,0.7,0.1,1.1,0.2c0.3,0.1,0.7,0.2,1,0.2c0.3,0.1,0.6,0.1,0.8,0.2c0.7,0.2,1.2,0.6,1.6,1.2c0.3,0.7,0.6,1.6,0.6,2.8 c0,0.7,0,1.2,0.1,1.9c0,0.7,0,1.2,0.1,1.9c0,0.6,0.1,1.1,0.1,1.4C67.3,29.4,67.3,29.7,67.4,29.9z M65.9,27.5c0.1,0,0.2,0,0.2-0.1 c0.1-0.2,0.1-0.2,0.1-0.5s0-0.4-0.1-0.6s-0.2-0.2-0.2-0.2c-0.2-0.1-0.4-0.2-0.7-0.2c-0.2-0.1-0.6-0.2-0.8-0.2 c-0.2-0.1-0.6-0.2-0.8-0.2c-0.2-0.1-0.4-0.1-0.6-0.2c-0.2,0-0.3,0.2-0.2,0.8c0,0.3,0.2,0.6,0.4,0.7s0.3,0.1,0.6,0.2 c0.2,0.1,0.5,0.1,0.7,0.2s0.5,0.1,0.7,0.2C65.4,27.4,65.6,27.4,65.9,27.5z" class="st33"/></g><path d="M76.4,71.3c0.3,2.1-0.5,3.1-11.4,4.3l-5-1C60,74.6,75.5,64.9,76.4,71.3z" class="st34"/><path d="M66.4,81.1C66,78.6,66,75.8,65.3,75c-0.7-0.7-3.3-0.7-4.9-0.7c-0.6,0-1.1,1-1.3,2.7l-0.4,4.3L66.4,81.1z" class="st3"/><path d="M65.3,79.4c-0.6,0.4-1.4-0.6-1.5-1.3C63.8,78.1,65.7,78.4,65.3,79.4z" class="st2"/><path d="M60.6,79.2c-0.7,0.1-1-1.1-0.8-1.8C59.8,77.4,61.4,78.3,60.6,79.2z" class="st2"/><path d="M59.3,80.1c-0.7,0.2-1.2-0.9-1.1-1.6C58.1,78.5,59.9,79.2,59.3,80.1z" class="st3"/><path d="M59.6,76c-0.7-0.2-0.6-1.4-0.1-2C59.5,74,60.6,75.6,59.6,76z" class="st3"/><path d="M59.4,77.7c-0.6,0.4-1.4-0.6-1.5-1.3C57.9,76.4,59.8,76.6,59.4,77.7z" class="st3"/><path d="M61.4,78.8c-0.6-0.5,0.2-1.5,0.8-1.8C62.1,77,62.4,78.9,61.4,78.8z" class="st2"/><path d="M60.9,77.5c-0.7-0.1-0.7-1.3-0.4-1.9C60.4,75.6,61.8,77,60.9,77.5z" class="st2"/><path d="M65.4,78.3c-0.7,0-0.7-1.3-0.4-1.9C64.9,76.4,66.3,77.7,65.4,78.3z" class="st2"/><path d="M65.3,76c-0.7-0.3-0.1-1.5,0.5-1.9C65.8,74.1,66.4,75.9,65.3,76z" class="st3"/><path d="M68.1,74.7c-0.5-0.6,0.4-1.5,1.1-1.6C69.2,73.1,69.2,75,68.1,74.7z" class="st2"/><path d="M68.3,72.6c-0.6-0.4,0.1-1.5,0.7-1.8C69,70.8,69.3,72.7,68.3,72.6z" class="st2"/><path d="M75.8,72.5c-0.5-0.6,0.4-1.5,1.1-1.6C76.9,70.8,76.8,72.7,75.8,72.5z" class="st2"/><path d="M74.6,72.9c-0.7-0.2-0.4-1.5,0-2C74.6,71,75.5,72.6,74.6,72.9z" class="st2"/><path d="M74.6,70.4c-0.7,0.1-1.1-1.1-0.8-1.8C73.7,68.7,75.4,69.7,74.6,70.4z" class="st2"/><path d="M75.5,70.9c-0.7-0.2-0.3-1.5,0.2-2C75.8,68.9,76.6,70.6,75.5,70.9z" class="st2"/><path d="M67.3,74.2c-0.7-0.1-0.7-1.3-0.3-2C66.9,72.2,68.3,73.6,67.3,74.2z" class="st2"/><path d="M65.1,75.4c-0.7,0.2-1.1-1.1-0.9-1.7C64.2,73.7,65.8,74.7,65.1,75.4z" class="st3"/><path d="M28.8,74.6c1.2,3.1,10.5,1.4,8.8,0.2C35.4,73.3,27.9,72.2,28.8,74.6z" class="st34"/><path d="M32.5,78.3c-0.7,0.2-1.2-0.9-1.1-1.6C31.5,76.7,33.2,77.4,32.5,78.3z" class="st34"/><path d="M29.6,77.3c-0.7,0.3-1.3-0.7-1.3-1.5C28.3,75.9,30.1,76.4,29.6,77.3z" class="st2"/><path d="M29.3,73.8C28.6,74.1,28,73,28,72.3C28,72.3,29.8,72.8,29.3,73.8z" class="st34"/><path d="M25.2,72.3c-0.7,0.3-1.3-0.7-1.3-1.5C23.9,70.8,25.7,71.3,25.2,72.3z" class="st3"/><path d="M11.3,70.2c-0.7,0.3-1.3-0.7-1.3-1.5C10,68.7,11.8,69.3,11.3,70.2z" class="st3"/><path d="M9.5,69.7c-0.7,0.2-1.1-1-1-1.7C8.5,67.9,10.2,68.8,9.5,69.7z" class="st3"/><path d="M9.2,70.6c-0.7,0.3-1.3-0.7-1.4-1.4C7.8,69.3,9.6,69.7,9.2,70.6z" class="st3"/><path d="M7.1,72.2c-0.5,0.5-1.5-0.3-1.7-1C5.4,71.2,7.3,71.1,7.1,72.2z" class="st3"/><path d="M9.5,74.7C9,75.1,8.1,74.2,8,73.4C8,73.4,9.9,73.6,9.5,74.7z" class="st2"/><path d="M10.1,73.7c-0.7,0.2-1.1-1-1-1.7C9.1,72,10.8,72.9,10.1,73.7z" class="st2"/><path d="M11.6,74.3c-0.7-0.2-0.6-1.4-0.2-2C11.4,72.4,12.6,73.9,11.6,74.3z" class="st2"/><path d="M17.7,73.4c-0.6-0.4,0-1.6,0.6-1.9C18.3,71.5,18.8,73.4,17.7,73.4z" class="st2"/><path d="M16.7,73.4c-0.7-0.2-0.6-1.4-0.2-2C16.6,71.5,17.7,73,16.7,73.4z" class="st2"/><path d="M16.1,74.6c-0.7,0.3-1.3-0.8-1.3-1.5C14.8,73.1,16.7,73.6,16.1,74.6z" class="st2"/><path d="M17.6,77c-0.7,0.3-1.3-0.8-1.3-1.5C16.3,75.5,18.1,76,17.6,77z" class="st2"/><path d="M29.8,72.9c-0.7-0.2-0.4-1.5,0.1-2C29.9,71,30.9,72.6,29.8,72.9z" class="st34"/><path d="M28.5,78.3C28,78.7,27.1,77.8,27,77C27,77,28.9,77.2,28.5,78.3z" class="st2"/><path d="M33.4,78.9c-0.6-0.4,0.1-1.6,0.7-1.8C34.2,77.1,34.5,78.9,33.4,78.9z" class="st34"/><path d="M32.5,79.7c-0.5,0.5-1.5-0.3-1.7-1C30.8,78.7,32.7,78.6,32.5,79.7z" class="st34"/></g><g><polygon points="123.8 76.2 159.8 76.2 156.5 78.1 127.2 78.1" class="st35"/><path d="M163,70.8c0.1-0.7,0.4-1.2,0.7-1.2c0.8,0,0.2,2.6-0.4,2.6C163.1,72.2,162.9,71.5,163,70.8z" class="st36"/><path d="M162.8,70.8c0.2-1,0.5-1.6,0.7-1.6c0.8-0.1,0.2,3.4-0.5,3.5C162.7,72.7,162.6,71.8,162.8,70.8z" class="st37"/><path d="M121,77.4c-2.1-7.6-0.3-23.8,0.7-24.1c10.7-3.4,31.9-3,31.5-1.5c-0.4,1.6,3.8,14.3,4.2,15.1 c0.4,0.7,6.3,1.3,6.3,1.9c-0.1,3.2-1.6,7.1-2.2,8.5L121,77.4L121,77.4z" class="st38"/><path d="M121.7,53.4c10.7-3.4,31.9-3,31.5-1.5c-0.4,1.6,3.8,14.3,4.2,15.1c0.4,0.7,6.3,1.3,6.3,1.9 c-0.1,3.2-1.6,7.1-2.2,8.5C161.5,77.4,120.8,53.7,121.7,53.4z" class="st39"/><path d="M153.1,52.2c-3.9-1.1-20.9-1-30.8,1.7c-0.5-0.3-0.7-0.6-0.7-0.6c10.7-3.4,31.9-3,31.5-1.5 C153.1,52,153.1,52,153.1,52.2z" class="st40"/><path d="M163.7,69c-0.1,3.2-1.6,7-2.2,8.4h-40.4c-0.7-2.3-0.9-5.3-1-8.4H163.7z" class="st41"/><path d="M120.1,70.5c0-0.2,0-1.2,0-1.5h43.6c0,0.2,0,0.6-0.1,0.8L120.1,70.5z" class="st42"/><path d="M120.1,69.2c0-0.4,0-0.8,0-1.1l39.8,0.3c0,0.4,3.8,0.4,3.8,0.8C163.7,69.2,120.1,69.2,120.1,69.2z" class="st39"/><path d="M133.5,77.5c0.5-2.1,0.7-4.6-1.7-4.6c-3.3-0.1-5.9,4.5-5.9,4.5L133.5,77.5z" class="st38"/><path d="M159,77.5c0.5-2.1,0.7-4.6-1.8-4.6c-3.4-0.1-6.1,4.5-6.1,4.5L159,77.5z" class="st38"/><g><path d="M144.2,76.5l-0.5-9.9h12.4l-4.5,10L144.2,76.5z M143.9,66.8l0.5,9.5h7l4.3-9.5H143.9z" class="st43"/></g><polygon points="156.3 67 152.5 52.8 143.5 52.5 143.5 67" class="st44"/><polygon points="156.1 66.5 152.7 53.8 144.9 53.5 144.8 65.9" class="st45"/><polygon points="149.5 53 149.9 53 151.2 66.7 150.3 66.7" class="st44"/><path d="M158.4,77.6c0.4-2,0.6-4.3-1.6-4.4c-2.9-0.1-5.2,4.5-5.2,4.5L158.4,77.6z" class="st43"/><path d="M133.1,77.7c0.4-2,0.6-4.4-1.6-4.5c-2.9-0.1-5.2,4.4-5.2,4.4L133.1,77.7z" class="st43"/><polygon points="159.3 76 162.9 76 162.4 77.7 159 77.7" class="st46"/><polygon points="125.5 76.1 120.1 76.1 120.8 77.9 125.5 77.9" class="st46"/><polygon points="125.3 76.1 120.4 76.1 121 77.5 125.3 77.5" class="st47"/><rect width="19.5" height=".7" x="132.9" y="77" class="st46"/><polygon points="132.4 76.7 152.9 76.7 152.4 77.4 132.9 77.4" class="st47"/><g><path d="M156.4,74.8c-1.8-0.7-4.2,4.3-2.4,5.1C155.5,80.5,158.4,75.7,156.4,74.8z" class="st48"/><path d="M154.5,75.8c-0.2,1-0.2,1.9,0.5,2.1c0.6,0.2,1.4-0.3,2-1.2c-0.4,1.6-2,3.6-2.9,3.2 C152.9,79.5,153.4,77.2,154.5,75.8z" class="st49"/><path d="M155.7,76c-0.7-0.4-2,2.2-1.2,2.6C155.2,79,156.7,76.5,155.7,76z" class="st50"/><path d="M155.2,77c-0.2-0.1-0.4,0.1-0.7,0.3c0.2-0.6,0.7-1.3,1-1.1c0.4,0.2,0.2,0.9-0.2,1.4 C155.5,77.3,155.4,77,155.2,77z" class="st36"/></g><g><path d="M131,74.8c-1.8-0.7-4.2,4.3-2.4,5.1C130.1,80.5,133,75.7,131,74.8z" class="st48"/><path d="M129,75.8c-0.2,1-0.2,1.9,0.5,2.1c0.6,0.2,1.4-0.3,2-1.2c-0.4,1.6-2,3.6-2.9,3.2 C127.5,79.5,128.1,77.2,129,75.8z" class="st49"/><path d="M130.3,76c-0.7-0.4-2,2.2-1.2,2.6C129.8,79,131.3,76.5,130.3,76z" class="st50"/><path d="M129.9,77c-0.2-0.1-0.4,0.1-0.7,0.3c0.2-0.6,0.7-1.3,1-1.1c0.4,0.2,0.2,0.9-0.2,1.4 C130.1,77.3,130,77,129.9,77z" class="st36"/></g><path d="M147.6,68.1c0.1-0.7-3.3-0.7-3.2,0.2C144.5,69.1,147.5,69.1,147.6,68.1z" class="st43"/><path d="M147.1,68c0.1-0.4-2.5-0.5-2.5,0.2C144.8,68.6,147.1,68.6,147.1,68z" class="st38"/><path d="M147.1,68c-0.2-0.7-2.4-0.7-2.5,0.2C145.3,68,146.2,67.9,147.1,68z" class="st51"/><path d="M158.9,70.5c0-0.2,0.4-0.5,0.9-0.5s0.9,0.2,0.9,0.5s-0.4,0.5-0.9,0.5C159.3,71,158.9,70.7,158.9,70.5z" class="st38"/><ellipse cx="159.8" cy="70.5" class="st52" rx=".6" ry=".3"/><polygon points="143.9 57.4 143.9 52.9 152.3 53.1 153.4 57.4" class="st53"/><polygon points="150.9 52.4 151.5 52.4 153.4 67.7 151.8 67.7" class="st39"/><polygon points="159.4 76 162.8 76 162.4 77 159.3 77" class="st47"/><path d="M147.3,66.5c-0.6-2.8-1-7.1-2.2-7.1c-1.3,0.1-0.9,7.2-0.9,7.2L147.3,66.5z" class="st44"/><polygon points="163.8 69 156.7 67.4 154.8 69" class="st40"/><g><path d="M120.5,73.8c1.1-0.3,1.1-1.6,1-3.8c-0.1-1.6-0.2-3.6,0.1-6.3c0.1-1.3,0.2-2.5,0.3-3.5 c0.4-4,0.6-5.7-0.7-5.8v0.3c0.9,0.1,0.7,1.8,0.4,5.5c-0.1,1-0.2,2.2-0.3,3.5c-0.2,2.7-0.1,4.8-0.1,6.3c0.1,2.3,0.2,3.3-0.7,3.5 C120.5,73.5,120.5,73.8,120.5,73.8z" class="st43"/></g><polygon points="121.1 67.4 121.7 67.4 121.8 68.7 121.2 68.7" class="st43"/><polygon points="121.7 58.5 122.3 58.6 122.3 59.8 121.7 59.7" class="st43"/><polygon points="121.8 58.8 122.2 58.8 122.2 59.6 121.8 59.5" class="st38"/><polygon points="121.2 67.7 121.6 67.6 121.7 68.3 121.3 68.4" class="st38"/><g><path d="M123.9,64.9c0.1,0.4,0.9,2.7,2.9,3.5C125,68,123.9,66.4,123.9,64.9z" class="st54"/><path d="M135.6,66.7c1-0.2,4.8-1.2,4.8-5.6C140.7,64.1,138.9,66.4,135.6,66.7z" class="st54"/><path d="M132.5,61.6l-5.8,5.7c-1.7-1.6-2.3-2.9-2-5.1L132.5,61.6z M126.8,63.1c0.7-0.6-0.5-1.1-1.1-0.3 C125.1,63.5,126.1,63.7,126.8,63.1z M127.5,65.7H127l-0.1,0.5h0.4L127.5,65.7z M126.8,64.2c-0.8,1,0.9,1.5,1.3,0.7 C128.6,63.9,127.6,63.3,126.8,64.2z M128.4,63.2l-0.1-0.4h-0.6l0.2,0.3L128.4,63.2z M126.3,64.3l-0.1-0.3h-0.5l0.1,0.3H126.3z M130.2,63.1c0.4-0.8,0-1.3-0.8-0.4C128.8,63.3,129.7,64,130.2,63.1z" class="st54"/><g><path d="M128.5,55l0.2,1.1l0.8-0.4c0,0-0.5-0.3-0.7-0.8L128.5,55z" class="st55"/><path d="M129.5,54.2c0.6-0.2,1.1-0.3,1.4-0.3l-0.7,1c0,0,0.5-0.2,1.1-0.3l0.3,0.5c-0.7,0-1.1,0.1-1.7,0.4l0.5-1.2 c0,0-0.7,0.5-0.7,0.6L129.5,54.2z" class="st55"/><path d="M131.9,53.8c0.6,0,1.1,0.1,1.3,0.2l-0.8,0.7c0,0,0.5-0.1,1,0.1l0.1,0.6c-0.6-0.2-0.9-0.3-1.6-0.3l0.9-0.9 c0,0-0.7,0.2-0.8,0.2L131.9,53.8z" class="st55"/><path d="M134.8,55.3c-0.3,0.2-1.6,0.2-0.7-0.6C134.6,54.4,135.2,55,134.8,55.3z M134.4,55 c-0.2,0.2,0.2,0.2,0.2,0.2C134.7,55.1,134.6,54.8,134.4,55z" class="st55"/><path d="M135,55.6c-0.1-0.1-0.3-0.4,0-0.7c0.2-0.2,0-0.8-0.6-0.9l-0.1,0.3c0,0,1,0.2,0.4,0.7c-0.2,0.2,0,0.5,0,0.5 h0.3V55.6z" class="st55"/><path d="M128.1,56.7l-0.8,1.1l-1.8-2.6c1.5-1.3,2.5-0.7,2.5-0.2c0.1,0.7-1,1.1-1,1.1L128.1,56.7z M126.8,55.8 c0,0,1.1-1.5-0.6-0.5L126.8,55.8z" class="st55"/><path d="M128.4,54.4c0.1-0.2,0.5,0,0.3,0.2C128.6,54.8,128.3,54.5,128.4,54.4z" class="st55"/></g><path d="M139.7,61.3c0.1-1.5-0.7-2.7-1.8-3.7l-3.4,2.8l3.3-2.9c-1.1-0.8-2.5-1.4-3.9-1.6l0.5,4.5l-0.7-4.5 c-0.8-0.1-1.7,0-2.5,0.2c-0.6,0.2-1.1,0.4-1.5,0.7l4.5,3.7l-4.7-3.5c-1.2,1.1-1.8,2.9-1.8,4.4l6.4-0.5l-3.9,4.7 c1.5,1,2.9,1.2,4.4,1l-0.1-5.4l0.2,5.4c2.3-0.4,3.7-1.6,4.6-3.2l-4.6-2.5l4.7,2.3C139.1,62.8,139.7,61.8,139.7,61.3z" class="st54"/><path d="M136.3,64.5c0-0.4-0.2-0.7-0.6-0.7c-0.3,0-0.6,0.3-0.6,0.7s0.2,0.7,0.6,0.7 C135.9,65.2,136.3,64.9,136.3,64.5z" class="st38"/><path d="M135.6,62.2c-0.2-0.2-0.4-0.4-0.6-0.3c-0.2,0.1-0.2,0.4-0.1,0.7c0.2,0.2,0.4,0.4,0.6,0.3 C135.7,62.8,135.7,62.5,135.6,62.2z" class="st38"/><path d="M137.7,63.5c-0.2-0.3-0.5-0.5-0.7-0.4c-0.2,0.1-0.2,0.5-0.1,0.8c0.2,0.3,0.5,0.5,0.7,0.4 C137.9,64.1,137.9,63.8,137.7,63.5z" class="st38"/><path d="M132.5,65.6c-0.2-1.1,1-1.1,1-0.5C133.6,65.7,132.8,66.6,132.5,65.6z" class="st38"/><path d="M132.7,62.9c-0.7,0.2-0.6,1.1,0.1,0.8C133.3,63.3,133.4,62.6,132.7,62.9z" class="st38"/><path d="M136.4,59.6c0.4-0.9,1.3-0.2,0.9,0.3C136.8,60.5,136,60.5,136.4,59.6z" class="st38"/><path d="M135,60.3c0.2-0.5,0.8-0.2,0.5,0.2C135.3,60.8,134.8,60.8,135,60.3z" class="st38"/><path d="M134.6,58.9c0.2-0.5,0.8-0.2,0.5,0.2C135,59.4,134.4,59.4,134.6,58.9z" class="st38"/><path d="M134.4,57.2c-0.2-0.7,0.7-0.8,0.7-0.2C135,57.5,134.6,57.9,134.4,57.2z" class="st38"/><path d="M136.2,57.5c0.4-0.4,0.7,0.2,0.4,0.4C136.1,58.1,135.7,57.8,136.2,57.5z" class="st38"/><path d="M132.3,56.3c1-0.2,1.1,0.9,0.2,0.9C131.9,57.3,131.4,56.6,132.3,56.3z" class="st38"/><path d="M133.1,58.6c0.6,0.2,0.2,0.8-0.2,0.5C132.6,58.8,132.6,58.3,133.1,58.6z" class="st38"/><path d="M132.1,59.8c0.6,0.2,0.2,0.8-0.2,0.5C131.5,60.1,131.5,59.5,132.1,59.8z" class="st38"/><path d="M129.1,58.3c0.6-0.7,1.1,0.1,0.7,0.5C129.2,59.2,128.6,59,129.1,58.3z" class="st38"/><path d="M129.1,60c0.9,0,0.7,1,0,0.8C128.6,60.8,128.3,60,129.1,60z" class="st38"/><path d="M137.8,61.2c0-0.8,1-0.6,1,0C138.9,61.8,137.8,62.4,137.8,61.2z" class="st38"/><rect width=".3" height=".3" x="136.4" y="61.2" class="st38"/><rect width=".3" height=".2" x="128.1" y="59.5" class="st38"/><rect width=".3" height=".3" x="136.1" y="63.1" class="st38"/><polygon points="137.1 64.9 136.9 64.7 136.7 64.9 136.9 65.1" class="st38"/><polygon points="135.2 63.5 135 63.2 134.7 63.5 135 63.7" class="st38"/><polygon points="131.2 60.6 131 60.3 130.8 60.5 131 60.8" class="st38"/><polygon points="130.8 56.9 130.6 56.7 130.4 56.9 130.6 57.1" class="st38"/><polygon points="130.4 59.1 130.3 59.2 130.4 59.4 130.4 59.3" class="st38"/><polygon points="131.9 57.6 131.8 57.7 131.9 57.8 132 57.7" class="st38"/><polygon points="134.4 59.5 134.3 59.7 134.4 59.8 134.6 59.7" class="st38"/><polygon points="134.6 57.9 134.6 58.1 134.6 58.1 134.7 58.1" class="st38"/><polygon points="135.5 57.1 135.5 57.2 135.6 57.3 135.7 57.2" class="st38"/><polygon points="138.1 59.7 138 59.8 138.2 59.9 138.2 59.8" class="st38"/><polygon points="131.9 65 131.7 64.8 131.5 65 131.7 65.3" class="st38"/></g></g><g><polygon points="70.5 54.7 68.6 54.7 68.2 80.2 70.2 80.2 70.2 77.7 76.5 77.2" class="st56"/><polygon points="69.9 54.5 68.8 54.4 72.8 80.3 73.9 80.3" class="st57"/><polygon points="84.5 56.3 69.4 54.4 73.4 80.3 75.7 80.3 75.6 79.9 86.3 80.2 86.5 80.6 87.8 80.6" class="st58"/><polygon points="69.4 54.4 73.4 80.3 75.7 80.3 75.6 79.9 86.3 80.2 86.5 80.6 87.8 80.6 80.4 61.1" class="st59"/><polygon points="83 57.7 71.3 56 75 78.7 86.3 78.7" class="st60"/><polygon points="82.9 57.7 71.7 56.2 75.2 78.1 86.2 78.4" class="st61"/><polygon points="83 57.7 71.4 56 86.3 78.7" class="st62"/><polygon points="82.8 58.2 71.7 56.4 85.8 78.4" class="st63"/><g><path d="M75.6,60.8c-0.1,0-0.2,0-0.2,0s-0.2,0-0.2-0.1s0-0.3,0-0.4c0-0.1,0-0.3-0.1-0.4c0-0.1,0-0.3-0.1-0.4 c0-0.1,0-0.3-0.1-0.4c-0.1,0-0.2,0-0.2,0c-0.1,0-0.1,0-0.2,0c0,0.3,0,0.5,0.1,0.8c0,0.3,0.1,0.5,0.1,0.8c-0.1,0-0.1,0-0.2,0 s-0.1,0-0.2,0c0-0.3-0.1-0.3-0.1-0.5c0-0.3-0.1-0.3-0.1-0.5c0-0.1,0-0.3,0-0.3V59c-0.1,0-0.1,0-0.2,0s-0.1,0-0.2,0 c0,0.1,0,0.1,0,0.3c0,0.1,0,0.1,0,0.3c0,0.3,0,0.4,0.1,0.5c0,0.3,0,0.4,0.1,0.5h-0.1h-0.1c-0.1-0.4-0.1-0.8-0.2-1.2 c-0.1-0.4-0.1-0.8-0.2-1.1c0.2,0,0.2,0.1,0.4,0.3c0-0.1,0-0.1,0.1-0.3c0,0,0.1-0.1,0.2-0.1c0,0,0.1,0,0.2,0s0.2,0,0.2,0 c0.1,0,0.2,0,0.2,0h0.2c0.2,0,0.2,0.1,0.4,0.3c0.1,0.1,0.2,0.3,0.2,0.5c0,0.3,0.1,0.5,0.1,1C75.5,60.3,75.6,60.7,75.6,60.8z" class="st64"/><path d="M76.5,60.8c-0.1,0-0.2-0.1-0.2-0.1c-0.1,0-0.1-0.1-0.2-0.3c0-0.1-0.1-0.1-0.1-0.3c0-0.1-0.1-0.3-0.1-0.3 c0-0.1,0-0.3-0.1-0.3c0-0.1,0-0.3-0.1-0.3c0-0.1,0-0.1,0-0.3s0-0.1,0-0.3c0-0.1,0-0.3,0-0.3c0-0.1,0.1-0.1,0.2-0.3 c0.1,0,0.2-0.1,0.4,0c0.2,0,0.2,0,0.5,0c0.2,0,0.4,0.1,0.5,0.3c0.1,0.1,0.2,0.3,0.2,0.7c0.1,0.5-0.1,0.8-0.5,0.7 c-0.1,0-0.1,0-0.2,0s-0.1,0-0.2,0s-0.1,0-0.2,0s-0.1,0-0.1,0c0,0.1,0,0.1,0.1,0.3c0,0.1,0.1,0.1,0.1,0.1c0.1,0,0.1,0,0.2,0 s0.2,0,0.2,0c0.1,0,0.2,0,0.2,0c0.1,0,0.2,0,0.2,0c0,0.1,0,0.3,0,0.3v0.3c-0.1,0-0.2,0-0.2,0c-0.1,0-0.2,0-0.2-0.1 c-0.1,0-0.2,0-0.2-0.1C76.6,60.9,76.6,60.9,76.5,60.8z M76.1,59.7c0.1,0,0.1,0,0.2,0s0.2,0,0.2,0c0.1,0,0.1,0,0.2,0s0.1,0,0.2,0 h0.1c0,0,0,0,0-0.1v-0.1c0,0,0,0-0.1,0H77c-0.1,0-0.1,0-0.2,0s-0.1,0-0.2,0s-0.1,0-0.2,0s-0.1,0-0.1,0C76,59.6,76,59.6,76.1,59.7 C76,59.6,76.1,59.7,76.1,59.7L76.1,59.7z" class="st64"/><path d="M79.4,61.4c0-0.3-0.1-0.5-0.1-0.8s-0.1-0.5-0.1-0.8h-0.1h0c-0.1,0-0.2,0-0.2,0c-0.1,0-0.2,0-0.2,0 c0,0.3,0,0.4,0.1,0.8c0,0.3,0.1,0.5,0.1,1c-0.1,0-0.2,0-0.2-0.1c-0.1,0-0.2,0-0.2-0.1c-0.1-0.4-0.2-1-0.2-1.2 c-0.1-0.4-0.2-0.7-0.2-1.1c0.2,0.1,0.4,0.3,0.5,0.3c0-0.1,0.1-0.1,0.1-0.3c0.1,0,0.1,0,0.2,0s0.2,0,0.2,0h0.2 c0.2,0,0.2,0.1,0.5,0.3c0.1,0.1,0.2,0.3,0.2,0.5c0.1,0.3,0.1,0.5,0.2,1c0.1,0.4,0.1,0.5,0.1,1c-0.1,0-0.2,0-0.2,0 C79.7,61.4,79.5,61.4,79.4,61.4z" class="st64"/><path d="M81.8,61.1c0-0.3-0.1-0.5-0.1-1c0-0.3-0.1-0.5-0.2-1c0.1,0,0.1,0,0.2,0s0.1,0,0.2,0c0,0.3,0.1,0.5,0.1,0.8 c0,0.3,0.1,0.5,0.1,0.8c0,0.1,0,0.3,0,0.3c0,0.1,0,0.3,0,0.3c0,0.1-0.1,0.1-0.1,0.1s-0.1,0-0.2,0c0,0-0.1,0-0.2,0s-0.1,0-0.2,0 c-0.1,0-0.2,0-0.2,0c-0.1,0-0.2,0-0.2,0c-0.1,0-0.2,0-0.2-0.1c-0.1,0-0.1-0.1-0.2-0.3C80.2,61,80.2,61,80,60.8 c0-0.1-0.1-0.3-0.1-0.3c-0.1-0.3-0.2-0.7-0.2-1c-0.1-0.3-0.2-0.7-0.2-1c0.1,0,0.2,0,0.2,0s0.2,0,0.4,0c0.1,0.3,0.2,0.7,0.2,1 c0.1,0.3,0.2,0.7,0.2,1c0.1,0,0.2,0,0.2,0.1c0.1,0,0.2,0,0.2,0h0.1C81.8,61.1,81.8,61.1,81.8,61.1z" class="st64"/></g><polygon points="74.5 64.5 83 65.2 83 65.6 74.5 64.8" class="st64"/><path d="M69.4,55.8c0-0.3-0.2-0.7-0.4-0.7c-0.1,0-0.4,0.3-0.4,0.7c0,0.3,0.2,0.7,0.4,0.7 C69.2,56.4,69.4,56,69.4,55.8z" class="st56"/><g><g><ellipse cx="78.9" cy="76.4" class="st65" rx="1.4" ry=".5" transform="matrix(0.9857 -0.1687 0.1687 0.9857 -11.757 14.4049)"/></g><g class="st66"><path d="M79.1,76.9c0,0-0.1,0-0.1,0c-0.7,0.1-1.4,0-1.4-0.3s0.5-0.6,1.3-0.7c0,0,0.1,0,0.1,0 c-0.7,0.1-1.2,0.5-1.2,0.7C77.8,76.8,78.4,77,79.1,76.9z" class="st0"/></g><g><g class="st67"><path d="M79.3,76.3c0,0.2-0.2,0.4-0.6,0.6c0,0,0,0,0,0c0,0,0,0,0.1,0c0.7-0.1,1.3-0.5,1.3-0.7 c0-0.1-0.2-0.2-0.4-0.3c0,0,0,0,0.1,0c-0.3,0-0.6,0-0.9,0c-0.2,0-0.3,0.1-0.5,0.1C78.9,76,79.2,76.1,79.3,76.3z" class="st68"/></g></g><g><path d="M78.4,77c-0.2,0-0.3,0-0.4,0c-0.3-0.1-0.5-0.2-0.5-0.4c0-0.2,0.1-0.3,0.4-0.5c0.2-0.1,0.6-0.3,1-0.3 c0.4-0.1,0.7-0.1,1,0c0.3,0.1,0.5,0.2,0.5,0.4l0,0c0,0.2-0.1,0.3-0.4,0.5c-0.2,0.1-0.6,0.3-1,0.3C78.8,77,78.6,77,78.4,77z M79.4,75.9c-0.2,0-0.4,0-0.5,0c-0.4,0.1-0.7,0.2-0.9,0.3c-0.2,0.1-0.3,0.3-0.3,0.4c0,0.1,0.2,0.2,0.4,0.2c0.3,0.1,0.6,0,1,0 c0.4-0.1,0.7-0.2,0.9-0.3c0.2-0.1,0.3-0.3,0.3-0.4c0-0.1-0.2-0.2-0.4-0.2C79.6,75.9,79.5,75.9,79.4,75.9z" class="st68"/></g><g><path d="M81.6,72.6c0.7,4.3-5.7,5.4-6.4,1.1c-0.1-0.6,1.2-1.4,3-1.7C79.9,71.7,81.4,72,81.6,72.6z" class="st65"/></g><g class="st66"><g><g><path d="M77.3,74.3c-0.3,0-0.5,0-0.7,0l0,0l0,0c-0.1,0-0.3,0-0.4-0.1c0,0-0.1,0-0.1,0c-0.1,0-0.2-0.1-0.3-0.1 c-0.1-0.1-0.2-0.1-0.3-0.2c0,0,0-0.1,0-0.1c0,0,0.1,0,0.1,0c0.1,0.1,0.1,0.1,0.3,0.2c0.1,0,0.2,0.1,0.3,0.1c0,0,0.1,0,0.1,0 c0.1,0,0.2,0.1,0.4,0.1l0,0c0.3,0,0.6,0.1,0.9,0l0,0l0,0c0.1,0,0.2,0,0.3,0l0,0c0,0,0.1,0,0.1,0c0.1,0,0.2,0,0.4,0 c0,0,0,0,0.1,0c0.1,0,0.1,0,0.2,0c0,0,0.1,0,0.1,0c0.1,0,0.2,0,0.3-0.1l0,0l0,0c0,0,0.1,0,0.1,0l0,0l0.1,0c0,0,0.1,0,0.1,0 c0.2,0,0.3-0.1,0.5-0.1c0,0,0.1,0,0.1,0c0.2-0.1,0.3-0.1,0.5-0.2c0,0,0,0,0,0c0,0,0,0,0.1,0c0.1,0,0.2-0.1,0.3-0.1 c0.1,0,0.1-0.1,0.2-0.1c0.3-0.2,0.4-0.4,0.4-0.5c0,0,0-0.1,0-0.1c0,0,0.1,0,0.1,0c0,0.2-0.1,0.4-0.5,0.6 c-0.1,0-0.1,0.1-0.2,0.1c-0.1,0.1-0.2,0.1-0.3,0.1c0,0,0,0-0.1,0c0,0,0,0,0,0c-0.2,0.1-0.3,0.1-0.5,0.2c0,0-0.1,0-0.1,0 c-0.2,0.1-0.3,0.1-0.5,0.1c0,0,0,0-0.1,0l0,0c0,0,0,0,0,0l0,0c-0.1,0-0.1,0-0.2,0l0,0l0,0c-0.1,0-0.2,0-0.3,0.1 c0,0-0.1,0-0.1,0c-0.1,0-0.1,0-0.2,0c0,0,0,0-0.1,0c-0.1,0-0.3,0-0.4,0c0,0-0.1,0-0.1,0l0,0c-0.1,0-0.2,0-0.3,0l0,0 C77.4,74.3,77.3,74.3,77.3,74.3z" class="st0"/></g></g></g><g class="st66"><path d="M79,76.4c-1.6,0.3-3.3-0.4-3.8-2.4l0,0c0.1,0,0.2,0.2,0.3,0.3C76,75.9,77.5,76.6,79,76.4z" class="st0"/></g><g><g><path d="M84,68.6c0,0.1-0.1,0.3-0.2,0.3l0,0l-1,0.2l-0.4,0.1l-0.2,0l-0.3,0.1l-4.3,0.9c-0.1,0-0.2,0-0.2-0.1 c0,0,0-0.1,0-0.1c0,0,0.1-0.1,0.1-0.1l4.3-1l0.3-0.1l0.2,0l0.4-0.1l1-0.2C83.8,68.3,83.9,68.4,84,68.6z" class="st69"/></g><g><path d="M82.1,69c0,0.1,0,0.2,0,0.2l-0.3,0.1c0.1-0.1,0.1-0.2,0.1-0.3c0-0.1-0.1-0.2-0.1-0.2l0.3-0.1 C82.1,68.8,82.1,68.9,82.1,69z" class="st68"/></g><g><path d="M82.7,68.9c0,0.1,0,0.2,0,0.2l-0.4,0.1l0,0c0.1-0.1,0.1-0.1,0.1-0.2c0-0.1-0.1-0.2-0.2-0.2l0.4-0.1 C82.7,68.7,82.7,68.8,82.7,68.9z" class="st68"/></g><g class="st66"><path d="M84,68.6C84,68.6,84,68.6,84,68.6c-0.1,0-0.2-0.1-0.3-0.1l-1,0.2l-0.4,0.1l-0.2,0L81.8,69l-4.3,1 c0,0-0.1,0-0.1,0.1c0,0,0,0,0,0c0,0,0,0,0-0.1c0,0,0-0.1,0-0.1c0,0,0.1-0.1,0.1-0.1l4.3-1l0.3-0.1l0.2,0l0.4-0.1l1-0.2 C83.8,68.3,83.9,68.4,84,68.6z" class="st0"/></g><g><path d="M77.6,70.2c-0.1,0-0.2-0.1-0.2-0.2c0-0.1,0-0.2,0.2-0.3l6.1-1.5c0.1,0,0.2,0,0.3,0c0.1,0,0.1,0.1,0.2,0.2 c0,0.1,0,0.2,0,0.3S83.9,69,83.8,69L77.6,70.2C77.6,70.2,77.6,70.2,77.6,70.2z M83.7,68.4C83.7,68.4,83.7,68.4,83.7,68.4 l-6.1,1.5c0,0-0.1,0.1-0.1,0.1c0,0,0.1,0.1,0.1,0.1l6.2-1.2c0.1,0,0.1,0,0.1-0.1c0,0,0-0.1,0-0.1c0-0.1,0-0.1-0.1-0.1 C83.8,68.4,83.7,68.4,83.7,68.4z" class="st68"/></g></g><g><g><path d="M81.5,73.9L81.5,73.9c-0.1,0.6-1.3,1.2-2.8,1.4c-1.5,0.3-2.8,0.1-3.2-0.4l0,0l-0.3-0.6l0,0 c0.3,0.5,1.7,0.7,3.4,0.4c1.6-0.3,2.9-0.9,3-1.5l0,0L81.5,73.9z" class="st0"/></g></g><g><g class="st67"><path d="M77.8,76.4c1.8,0.1,3.7-1.1,3.6-3.3c0,0,0,0,0,0c-0.1,0.2-0.3,0.3-0.4,0.4c-0.1,0.1-0.2,0.2-0.2,0.3 C80.6,75.3,79.2,76.3,77.8,76.4C77.8,76.4,77.8,76.4,77.8,76.4z" class="st68"/></g></g><g><path d="M78.3,76.5c-0.4,0-0.8-0.1-1.2-0.2c-1.1-0.4-1.8-1.3-2-2.6c-0.1-0.3,0.2-0.7,0.8-1.1 c0.6-0.3,1.4-0.6,2.2-0.7c0.9-0.1,1.7-0.2,2.4,0c0.7,0.1,1.1,0.4,1.1,0.7c0.2,1.2-0.2,2.3-1,3.1c-0.5,0.4-1,0.7-1.7,0.8 C78.7,76.5,78.5,76.5,78.3,76.5z M79.5,72c-0.4,0-0.9,0-1.4,0.1c-0.9,0.1-1.6,0.4-2.2,0.7c-0.5,0.3-0.8,0.6-0.8,0.9 c0.2,1.2,0.9,2.1,1.9,2.4c1.1,0.4,2.5,0.2,3.4-0.6c0.8-0.7,1.2-1.7,1-2.9c0-0.3-0.4-0.5-1-0.6C80.2,72,79.9,72,79.5,72z" class="st68"/></g><g class="st70"><path d="M77.1,75c0.3,0.4,0.6,0.7,0.4,0.8c-0.2,0.2-0.6,0-0.9-0.4c-0.3-0.4-0.5-0.8-0.3-1 C76.5,74.4,76.8,74.7,77.1,75z" class="st0"/></g><g><g><path d="M83.7,67.4c0,0.1,0,0.3-0.2,0.3l0,0l-1,0.3l-0.4,0.1L82,68.3l-0.3,0.1l-4.1,1.4c-0.1,0-0.2,0-0.2-0.1 c0,0,0-0.1,0-0.1c0,0,0-0.1,0.1-0.1l4.1-1.5l0.2-0.1l0.2-0.1l0.4-0.2l1-0.4C83.5,67.2,83.6,67.3,83.7,67.4z" class="st69"/><path d="M77.5,69.7c-0.1,0-0.1,0-0.2-0.1c0,0,0-0.1,0-0.1c0,0,0-0.1,0.1-0.1l5.9-2.2c0.1,0,0.1,0,0.2,0 c0.1,0,0.1,0.1,0.1,0.2c0,0.1,0,0.1,0,0.2c0,0.1-0.1,0.1-0.2,0.1l0,0L77.5,69.7C77.5,69.7,77.5,69.7,77.5,69.7z M83.4,67.2 C83.4,67.2,83.4,67.3,83.4,67.2l-6,2.2c0,0-0.1,0-0.1,0.1c0,0,0,0.1,0,0.1c0,0.1,0.1,0.1,0.2,0.1l4.1-1.4l1.8-0.6 c0.1,0,0.1-0.1,0.1-0.1c0-0.1,0-0.1,0-0.2l0,0c0-0.1-0.1-0.1-0.1-0.1C83.5,67.3,83.5,67.2,83.4,67.2z" class="st68"/></g><g><path d="M81.9,68c0,0.1,0,0.2,0,0.2l-0.3,0.1c0-0.1,0.1-0.2,0-0.3c0-0.1-0.1-0.1-0.2-0.2l0.2-0.1 C81.9,67.9,81.9,68,81.9,68z" class="st68"/></g><g><path d="M82.5,67.8c0,0.1,0,0.2,0,0.2l-0.4,0.1l0,0c0.1-0.1,0.1-0.2,0.1-0.2c0-0.1-0.1-0.2-0.2-0.2l0.4-0.2 C82.4,67.7,82.5,67.8,82.5,67.8z" class="st68"/></g><g class="st66"><path d="M83.7,67.4C83.7,67.4,83.7,67.5,83.7,67.4c-0.1,0-0.2-0.1-0.3,0l-1,0.4L82,67.9L81.9,68l-0.2,0.1l-4.1,1.5 c0,0-0.1,0-0.1,0.1c0,0,0,0,0,0c0,0,0,0,0-0.1c0,0,0-0.1,0-0.1c0,0,0-0.1,0.1-0.1l4.1-1.5l0.2-0.1l0.2-0.1l0.4-0.2l1-0.4 C83.5,67.2,83.6,67.3,83.7,67.4z" class="st0"/></g><g><path d="M77.5,69.8c-0.1,0-0.2-0.1-0.2-0.1c0-0.1,0-0.2,0.1-0.3l5.9-2.2c0.1,0,0.2,0,0.3,0c0.1,0,0.1,0.1,0.2,0.2 c0,0.1,0,0.2,0,0.3c0,0.1-0.1,0.1-0.2,0.2L77.5,69.8C77.6,69.8,77.5,69.8,77.5,69.8z M83.4,67.3C83.4,67.3,83.4,67.3,83.4,67.3 l-5.9,2.2c0,0-0.1,0.1,0,0.1c0,0,0.1,0.1,0.1,0l6-2c0.1,0,0.1-0.1,0.1-0.1c0,0,0-0.1,0-0.2C83.6,67.4,83.6,67.4,83.4,67.3 C83.5,67.3,83.5,67.3,83.4,67.3z" class="st68"/></g></g><g><g><path d="M81,73.1C81,73.1,81,73.1,81,73.1C80.9,73.1,80.9,73.1,81,73.1c-0.1,0-0.2,0-0.3,0c0,0,0,0-0.1,0 c0,0-0.1,0-0.1,0c0,0-0.1,0-0.1,0c0,0,0,0,0,0c0,0,0,0,0,0l0,0l0,0c0,0,0,0,0,0c0,0,0,0,0,0c0,0-0.1,0-0.1,0c0,0,0,0,0,0 c-0.1,0-0.1,0-0.2,0c0,0,0,0-0.1,0c0,0-0.1,0-0.1,0c0,0-0.1,0-0.1,0c0,0,0,0,0,0c0,0,0,0,0,0c0,0-0.1,0-0.1,0l0,0 c0,0,0,0-0.1,0c0,0-0.1,0-0.1,0c0,0,0,0,0,0c-0.1,0-0.2,0-0.3-0.1c0,0,0,0,0,0c0,0-0.1,0-0.1,0c0,0,0,0,0,0l0,0 c-0.1,0-0.1,0-0.2-0.1c0,0-0.1,0-0.1,0c0,0,0,0,0,0l0,0c-0.1,0-0.2-0.1-0.3-0.1c0-0.2,0-0.3,0.1-0.5c0.3-0.7,1.1-1,1.7-0.8 C80.9,71.6,81.2,72.4,81,73.1z" class="st71"/></g><g class="st66"><path d="M79.9,71.6C79.9,71.6,80,71.6,79.9,71.6c0.2,0.1,0.3,0,0.3-0.1l0,0c0-0.1,0-0.2-0.1-0.2c0,0-0.1,0-0.1,0 c-0.1,0-0.2,0-0.2,0.1l0,0C79.8,71.5,79.8,71.5,79.9,71.6z" class="st0"/></g><g class="st66"><path d="M79.8,71.8C79.9,71.8,79.9,71.9,79.8,71.8c0.2,0.1,0.3,0,0.3-0.1l0,0c0-0.1,0-0.2-0.1-0.2c0,0-0.1,0-0.1,0 c-0.1,0-0.2,0-0.2,0.1l0,0C79.7,71.7,79.7,71.8,79.8,71.8z" class="st0"/></g><g class="st66"><path d="M79.8,72.1C79.8,72.1,79.8,72.2,79.8,72.1c0.2,0.1,0.3,0,0.3-0.1l0,0c0-0.1,0-0.2-0.1-0.2c0,0-0.1,0-0.1,0 c-0.1,0-0.2,0-0.2,0.1l0,0C79.6,72,79.7,72.1,79.8,72.1z" class="st0"/></g><g><path d="M78.5,72.7c0,0-0.1,0-0.1,0l0,0l0,0c0-0.2,0-0.3,0.1-0.5c0.3-0.7,1.1-1.1,1.8-0.8 c0.7,0.3,1.1,1.1,0.8,1.8c0,0,0,0,0,0l0,0l0,0c0,0,0,0,0,0l0,0c-0.1,0-0.2,0-0.3,0c0,0,0,0-0.1,0c0,0-0.1,0-0.1,0c0,0,0,0,0,0 l0,0l-0.1,0c0,0,0,0,0,0c0,0,0,0,0,0c0,0-0.1,0-0.1,0l0,0c-0.1,0-0.1,0-0.2,0c0,0,0,0-0.1,0c0,0-0.1,0-0.1,0c0,0-0.1,0-0.1,0 c0,0,0,0,0,0l0,0c0,0-0.1,0-0.1,0l0,0c0,0,0,0-0.1,0l0,0c0,0-0.1,0-0.1,0l0,0c-0.1,0-0.2,0-0.3-0.1l0,0c0,0,0,0,0,0 c0,0-0.1,0-0.1,0l0,0c-0.1,0-0.1,0-0.2-0.1c0,0-0.1,0-0.1,0c0,0,0,0,0,0l0,0C78.6,72.7,78.5,72.7,78.5,72.7z M79.4,72.9 L79.4,72.9C79.4,72.9,79.4,72.9,79.4,72.9z M78.4,72.5c0.1,0,0.2,0.1,0.2,0.1l0,0c0,0,0,0,0,0c0,0,0.1,0,0.1,0 c0.1,0,0.1,0,0.2,0.1l0,0c0,0,0.1,0,0.1,0c0,0,0,0,0,0l0,0c0.1,0,0.2,0,0.3,0.1l0,0c0,0,0.1,0,0.1,0l0,0c0,0,0,0,0,0l0,0l0,0 c0,0,0.1,0,0.1,0l0,0c0,0,0,0,0,0c0,0,0.1,0,0.1,0c0,0,0.1,0,0.1,0c0,0,0,0,0.1,0c0.1,0,0.1,0,0.2,0l0,0l0,0c0,0,0.1,0,0.1,0 c0,0,0,0,0,0l0,0l0,0c0,0,0.1,0,0.1,0c0,0,0.1,0,0.1,0c0,0,0,0,0.1,0c0.1,0,0.2,0,0.3,0l0,0c0.3-0.7-0.1-1.4-0.7-1.7 c-0.7-0.3-1.4,0.1-1.7,0.7C78.5,72.2,78.4,72.4,78.4,72.5z M79.4,72.8C79.4,72.8,79.4,72.8,79.4,72.8L79.4,72.8z" class="st68"/></g><g><path d="M78.6,72.7L78.6,72.7c0-0.2,0-0.4,0.1-0.5c0.2-0.6,0.9-0.8,1.4-0.6c0.6,0.2,0.8,0.9,0.6,1.4 c0,0,0,0.1-0.1,0.1l0,0l0,0c0,0,0,0-0.1,0c0,0-0.1,0-0.1,0c0,0,0,0-0.1,0l0,0l-0.1,0c0,0,0,0,0,0c0,0,0,0,0,0c0,0-0.1,0-0.1,0 l0,0c-0.1,0-0.1,0-0.2,0c0,0,0,0-0.1,0c0,0-0.1,0-0.1,0c0,0-0.1,0-0.1,0c0,0,0,0,0,0l0,0c0,0-0.1,0-0.1,0l0,0c0,0,0,0-0.1,0 l0,0c0,0-0.1,0-0.1,0l0,0c-0.1,0-0.2,0-0.3-0.1l0,0c0,0,0,0,0,0c0,0-0.1,0-0.1,0l0,0c-0.1,0-0.1,0-0.2-0.1 C78.7,72.7,78.7,72.7,78.6,72.7L78.6,72.7z M79.4,72.9L79.4,72.9C79.4,72.9,79.4,72.9,79.4,72.9z M80.1,71.7 c-0.5-0.2-1.1,0.1-1.3,0.6c-0.1,0.1-0.1,0.3-0.1,0.4c0,0,0,0,0.1,0c0.1,0,0.1,0,0.2,0.1l0,0c0,0,0.1,0,0.1,0c0,0,0,0,0,0l0,0 c0.1,0,0.2,0,0.3,0.1l0,0c0,0,0.1,0,0.1,0l0,0c0,0,0,0,0.1,0l0,0l0,0c0,0,0.1,0,0.1,0l0,0c0,0,0,0,0,0c0,0,0.1,0,0.1,0 c0,0,0.1,0,0.1,0c0,0,0,0,0.1,0c0.1,0,0.1,0,0.2,0l0,0l0,0c0,0,0.1,0,0.1,0c0,0,0,0,0,0l0,0l0,0c0,0,0.1,0,0.1,0 c0,0,0.1,0,0.1,0c0,0,0,0,0,0c0,0,0-0.1,0-0.1C80.8,72.4,80.6,71.9,80.1,71.7z M79.4,72.8C79.4,72.8,79.4,72.8,79.4,72.8 L79.4,72.8z" class="st68"/></g><g><path d="M78.9,72.8L78.9,72.8c-0.1-0.2,0-0.4,0-0.5c0.2-0.4,0.6-0.6,1-0.5c0.4,0.2,0.6,0.6,0.5,1 c0,0.1-0.1,0.1-0.1,0.2l0,0l0,0c0,0,0,0,0,0c0,0-0.1,0-0.1,0l0,0c-0.1,0-0.1,0-0.2,0c0,0,0,0-0.1,0c0,0-0.1,0-0.1,0 c0,0-0.1,0-0.1,0c0,0,0,0,0,0l0,0c0,0-0.1,0-0.1,0l0,0c0,0,0,0-0.1,0l0,0c0,0-0.1,0-0.1,0l0,0c-0.1,0-0.2,0-0.3-0.1l0,0 c0,0,0,0,0,0C79,72.8,79,72.8,78.9,72.8L78.9,72.8z M79.4,72.9L79.4,72.9C79.4,72.9,79.4,72.9,79.4,72.9z M80,71.9 c-0.4-0.1-0.8,0-0.9,0.4c0,0.1-0.1,0.3,0,0.4c0,0,0,0,0.1,0c0,0,0,0,0,0l0,0c0.1,0,0.2,0,0.3,0.1l0,0c0,0,0.1,0,0.1,0l0,0 c0,0,0,0,0.1,0l0,0l0,0c0,0,0.1,0,0.1,0l0,0c0,0,0,0,0,0c0,0,0.1,0,0.1,0c0,0,0.1,0,0.1,0c0,0,0,0,0.1,0c0.1,0,0.1,0,0.2,0l0,0 l0,0c0,0,0.1,0,0.1,0c0,0,0,0,0,0c0,0,0.1-0.1,0.1-0.2C80.5,72.5,80.3,72.1,80,71.9z M79.4,72.8C79.4,72.8,79.4,72.8,79.4,72.8 L79.4,72.8z" class="st68"/></g><g><path d="M79.3,72.9L79.3,72.9c-0.1-0.2-0.2-0.4-0.1-0.5c0.1-0.3,0.4-0.4,0.7-0.3c0.3,0.1,0.4,0.4,0.3,0.7 c0,0.1-0.1,0.2-0.3,0.3l0,0l0,0c0,0-0.1,0-0.1,0c0,0-0.1,0-0.1,0c0,0,0,0,0,0l0,0c0,0-0.1,0-0.1,0l0,0c0,0,0,0-0.1,0l0,0 C79.4,73,79.4,72.9,79.3,72.9L79.3,72.9z M79.9,72.2c-0.2-0.1-0.4,0-0.5,0.2c-0.1,0.1,0,0.3,0.1,0.4c0,0,0.1,0,0.1,0l0,0 c0,0,0,0,0.1,0l0,0l0,0c0,0,0.1,0,0.1,0l0,0c0,0,0,0,0,0c0,0,0.1,0,0.1,0c0,0,0,0,0.1,0c0.1,0,0.2-0.1,0.2-0.2 C80.2,72.5,80.1,72.3,79.9,72.2z" class="st68"/></g></g><g><g><path d="M79.5,69.4v3.4l-1.7,0v-3.1c0-0.1,0-0.1,0.1-0.1l1.4-0.4C79.4,69.2,79.5,69.3,79.5,69.4z" class="st71"/></g><g class="st66"><path d="M78,71.1L78,71.1c-0.1,0-0.1-0.1-0.1-0.1v-0.1c0-0.1,0.1-0.1,0.1-0.1l0,0c0.1,0,0.1,0.1,0.1,0.1V71 C78.1,71.1,78.1,71.1,78,71.1z" class="st0"/></g><g class="st66"><path d="M78.4,71.1L78.4,71.1c-0.1,0-0.1-0.1-0.1-0.1v-0.1c0-0.1,0.1-0.1,0.1-0.1l0,0c0.1,0,0.1,0.1,0.1,0.1V71 C78.5,71.1,78.4,71.1,78.4,71.1z" class="st0"/></g><g class="st66"><path d="M78.7,71.1L78.7,71.1c-0.1,0-0.1-0.1-0.1-0.1v-0.1c0-0.1,0.1-0.1,0.1-0.1l0,0c0.1,0,0.1,0.1,0.1,0.1V71 C78.8,71.1,78.8,71.1,78.7,71.1z" class="st0"/></g><g class="st66"><path d="M79,71.1L79,71.1c-0.1,0-0.1-0.1-0.1-0.1v-0.1c0-0.1,0.1-0.1,0.1-0.1l0,0c0.1,0,0.1,0.1,0.1,0.1V71 C79.2,71.1,79.1,71.1,79,71.1z" class="st0"/></g><g class="st66"><path d="M79.4,71.1L79.4,71.1c-0.1,0-0.1-0.1-0.1-0.1v-0.1c0-0.1,0.1-0.1,0.1-0.1h0c0.1,0,0.1,0.1,0.1,0.1V71 C79.5,71.1,79.5,71.1,79.4,71.1z" class="st0"/></g><g class="st66"><path d="M79.5,69.4v0.2c0-0.1-0.1-0.2-0.2-0.1l-1.4,0.4c-0.1,0-0.1,0.1-0.1,0.1v-0.2c0-0.1,0-0.1,0.1-0.1l1.4-0.4 C79.4,69.2,79.5,69.3,79.5,69.4z" class="st0"/></g><g><path d="M77.8,72.9v-3.1c0-0.1,0.1-0.2,0.2-0.2l1.4-0.4c0.1,0,0.1,0,0.2,0c0.1,0,0.1,0.1,0.1,0.2v3.4L77.8,72.9z M79.4,69.3C79.4,69.3,79.4,69.3,79.4,69.3L78,69.7c0,0,0,0,0,0.1v3l1.5,0L79.4,69.3C79.5,69.4,79.4,69.3,79.4,69.3 C79.4,69.3,79.4,69.3,79.4,69.3z" class="st68"/></g><g><rect width=".1" height="3.2" x="78.1" y="69.6" class="st68"/></g><g><rect width=".1" height="3.3" x="78.5" y="69.5" class="st68"/></g><g><rect width=".1" height="3.4" x="78.8" y="69.4" class="st68"/></g><g><rect width=".1" height="3.5" x="79.1" y="69.3" class="st68"/></g><g class="st67"><path d="M79.5,71.5v1.2l-1.7,0v-0.9C78.5,72.1,79,72,79.5,71.5z" class="st68"/></g></g><g><g><path d="M78.4,73.3C78.4,73.3,78.4,73.3,78.4,73.3C78.4,73.4,78.3,73.4,78.4,73.3c-0.1,0.1-0.2,0.1-0.3,0.1 c0,0,0,0-0.1,0c0,0-0.1,0-0.1,0c0,0-0.1,0-0.1,0c0,0,0,0,0,0c0,0,0,0,0,0l0,0l0,0c0,0,0,0,0,0c0,0,0,0,0,0c0,0-0.1,0-0.1,0 c0,0,0,0,0,0c-0.1,0-0.1,0-0.2,0c0,0,0,0-0.1,0c0,0-0.1,0-0.1,0c0,0-0.1,0-0.1,0c0,0,0,0,0,0c0,0,0,0,0,0c0,0-0.1,0-0.1,0l0,0 c0,0,0,0-0.1,0c0,0-0.1,0-0.1,0c0,0,0,0,0,0c-0.1,0-0.2,0-0.3,0c0,0,0,0,0,0c0,0-0.1,0-0.1,0c0,0,0,0,0,0l0,0 c-0.1,0-0.1,0-0.2,0c0,0-0.1,0-0.1,0c0,0,0,0,0,0l0,0c-0.1,0-0.2,0-0.3,0c-0.1-0.1-0.1-0.3-0.1-0.5c0-0.7,0.6-1.4,1.3-1.4 C77.7,72,78.3,72.6,78.4,73.3z" class="st71"/></g><g class="st66"><path d="M76.8,72.3C76.8,72.3,76.8,72.3,76.8,72.3c0.2,0,0.2-0.1,0.2-0.2l0,0c0-0.1-0.1-0.1-0.2-0.1 c0,0-0.1,0-0.1,0c-0.1,0-0.1,0.1-0.1,0.2l0,0C76.6,72.3,76.7,72.4,76.8,72.3z" class="st0"/></g><g class="st66"><path d="M76.8,72.6C76.9,72.6,76.9,72.6,76.8,72.6c0.2,0,0.2-0.1,0.2-0.2l0,0c0-0.1-0.1-0.1-0.2-0.1 c0,0-0.1,0-0.1,0c-0.1,0-0.1,0.1-0.1,0.2l0,0C76.7,72.6,76.7,72.6,76.8,72.6z" class="st0"/></g><g class="st66"><path d="M76.9,72.9C76.9,72.9,77,72.9,76.9,72.9c0.2,0,0.2-0.1,0.2-0.2l0,0c0-0.1-0.1-0.1-0.2-0.1c0,0-0.1,0-0.1,0 c-0.1,0-0.1,0.1-0.1,0.2l0,0C76.7,72.9,76.8,72.9,76.9,72.9z" class="st0"/></g><g><path d="M75.9,73.9c0,0-0.1,0-0.1,0l0,0l0,0c-0.1-0.2-0.1-0.3-0.1-0.5c0-0.8,0.6-1.4,1.4-1.5 c0.8,0,1.4,0.6,1.5,1.4c0,0,0,0,0,0l0,0l0,0c0,0,0,0,0,0l0,0c-0.1,0-0.2,0.1-0.3,0.1c0,0,0,0-0.1,0c0,0-0.1,0-0.1,0 c0,0,0,0,0,0l0,0l-0.1,0c0,0,0,0,0,0c0,0,0,0,0,0c0,0-0.1,0-0.1,0l0,0c-0.1,0-0.1,0-0.2,0c0,0,0,0-0.1,0c0,0-0.1,0-0.1,0 c0,0-0.1,0-0.1,0c0,0,0,0,0,0l0,0c0,0-0.1,0-0.1,0l0,0c0,0,0,0-0.1,0l0,0c0,0-0.1,0-0.1,0l0,0c-0.1,0-0.2,0-0.3,0l0,0 c0,0,0,0,0,0c0,0-0.1,0-0.1,0l0,0c-0.1,0-0.1,0-0.2,0c0,0-0.1,0-0.1,0c0,0,0,0,0,0l0,0C76,73.9,76,73.9,75.9,73.9z M76.8,73.8 L76.8,73.8C76.8,73.8,76.8,73.8,76.8,73.8z M75.8,73.8c0.1,0,0.2,0,0.2,0l0,0c0,0,0,0,0,0c0,0,0.1,0,0.1,0c0.1,0,0.1,0,0.2,0 l0,0c0,0,0.1,0,0.1,0c0,0,0,0,0,0l0,0c0.1,0,0.2,0,0.3,0l0,0c0,0,0.1,0,0.1,0l0,0c0,0,0,0,0,0l0,0l0,0c0,0,0.1,0,0.1,0l0,0 c0,0,0,0,0,0c0,0,0.1,0,0.1,0c0,0,0.1,0,0.1,0c0,0,0,0,0.1,0c0.1,0,0.1,0,0.2,0l0,0l0,0c0,0,0.1,0,0.1,0c0,0,0,0,0,0l0,0l0.1,0 c0,0,0.1,0,0.1,0c0,0,0.1,0,0.1,0c0,0,0,0,0.1,0c0.1,0,0.2-0.1,0.3-0.1l0,0c0-0.7-0.6-1.3-1.3-1.2c-0.7,0-1.3,0.6-1.2,1.3 C75.7,73.5,75.8,73.7,75.8,73.8z M76.8,73.7C76.8,73.7,76.8,73.7,76.8,73.7L76.8,73.7z" class="st68"/></g><g><path d="M76.1,73.9L76.1,73.9c-0.1-0.2-0.1-0.3-0.1-0.5c0-0.6,0.5-1.1,1.1-1.1c0.6,0,1.1,0.5,1.1,1.1 c0,0,0,0.1,0,0.1l0,0l0,0c0,0,0,0-0.1,0c0,0-0.1,0-0.1,0c0,0,0,0,0,0l0,0l-0.1,0c0,0,0,0,0,0c0,0,0,0,0,0c0,0-0.1,0-0.1,0l0,0 c-0.1,0-0.1,0-0.2,0c0,0,0,0-0.1,0c0,0-0.1,0-0.1,0c0,0-0.1,0-0.1,0c0,0,0,0,0,0l0,0c0,0-0.1,0-0.1,0l0,0c0,0,0,0-0.1,0l0,0 c0,0-0.1,0-0.1,0l0,0c-0.1,0-0.2,0-0.3,0l0,0c0,0,0,0,0,0c0,0-0.1,0-0.1,0l0,0c-0.1,0-0.1,0-0.2,0 C76.2,73.9,76.1,73.9,76.1,73.9L76.1,73.9z M76.8,73.8L76.8,73.8C76.8,73.8,76.8,73.8,76.8,73.8z M77,72.4c-0.5,0-1,0.5-1,1 c0,0.1,0,0.3,0.1,0.4c0,0,0,0,0.1,0c0.1,0,0.1,0,0.2,0l0,0c0,0,0.1,0,0.1,0c0,0,0,0,0,0l0,0c0.1,0,0.2,0,0.3,0l0,0 c0,0,0.1,0,0.1,0l0,0c0,0,0,0,0.1,0l0,0l0,0c0,0,0.1,0,0.1,0l0,0c0,0,0,0,0,0c0,0,0.1,0,0.1,0c0,0,0.1,0,0.1,0c0,0,0,0,0.1,0 c0.1,0,0.1,0,0.2,0l0,0l0,0c0,0,0.1,0,0.1,0c0,0,0,0,0,0l0,0l0,0c0,0,0.1,0,0.1,0c0,0,0.1,0,0.1,0c0,0,0,0,0,0c0,0,0-0.1,0-0.1 C78,72.8,77.5,72.3,77,72.4z M76.8,73.7C76.8,73.7,76.8,73.7,76.8,73.7L76.8,73.7z" class="st68"/></g><g><path d="M76.4,73.9L76.4,73.9c-0.1-0.2-0.2-0.3-0.2-0.5c0-0.4,0.3-0.8,0.8-0.8c0.4,0,0.8,0.3,0.8,0.8 c0,0.1,0,0.2,0,0.2l0,0l0,0c0,0,0,0,0,0c0,0-0.1,0-0.1,0l0,0c-0.1,0-0.1,0-0.2,0c0,0,0,0-0.1,0c0,0-0.1,0-0.1,0 c0,0-0.1,0-0.1,0c0,0,0,0,0,0l0,0c0,0-0.1,0-0.1,0l0,0c0,0,0,0-0.1,0l0,0c0,0-0.1,0-0.1,0l0,0c-0.1,0-0.2,0-0.3,0l0,0 c0,0,0,0,0,0C76.5,73.9,76.5,73.9,76.4,73.9L76.4,73.9z M76.8,73.8L76.8,73.8C76.8,73.8,76.8,73.8,76.8,73.8z M77,72.7 c-0.4,0-0.7,0.3-0.7,0.7c0,0.1,0.1,0.3,0.1,0.4c0,0,0,0,0.1,0c0,0,0,0,0,0l0,0c0.1,0,0.2,0,0.3,0l0,0c0,0,0.1,0,0.1,0l0,0 c0,0,0,0,0.1,0l0,0l0,0c0,0,0.1,0,0.1,0l0,0c0,0,0,0,0,0c0,0,0.1,0,0.1,0c0,0,0.1,0,0.1,0c0,0,0,0,0.1,0c0.1,0,0.1,0,0.2,0l0,0 l0,0c0,0,0.1,0,0.1,0c0,0,0,0,0,0c0-0.1,0-0.1,0-0.2C77.7,73,77.4,72.7,77,72.7z M76.8,73.7C76.8,73.7,76.8,73.7,76.8,73.7 L76.8,73.7z" class="st68"/></g><g><path d="M76.8,73.8L76.8,73.8c-0.2-0.1-0.3-0.3-0.3-0.4c0-0.3,0.2-0.5,0.5-0.5c0.3,0,0.5,0.2,0.5,0.5 c0,0.1,0,0.3-0.1,0.4l0,0l0,0c0,0-0.1,0-0.1,0c0,0-0.1,0-0.1,0c0,0,0,0,0,0l0,0c0,0-0.1,0-0.1,0l0,0c0,0,0,0-0.1,0l0,0 C76.9,73.8,76.9,73.8,76.8,73.8L76.8,73.8z M77,73c-0.2,0-0.4,0.2-0.4,0.4c0,0.1,0.1,0.3,0.2,0.3c0,0,0.1,0,0.1,0l0,0 c0,0,0,0,0.1,0l0,0l0,0c0,0,0.1,0,0.1,0l0,0c0,0,0,0,0,0c0,0,0.1,0,0.1,0c0,0,0,0,0.1,0c0.1-0.1,0.1-0.2,0.1-0.3 C77.4,73.1,77.2,73,77,73z" class="st68"/></g></g><g><g><path d="M79.7,73.8C79.7,73.8,79.7,73.8,79.7,73.8C79.7,73.8,79.7,73.8,79.7,73.8c-0.1,0.1-0.2,0.1-0.3,0.1 c0,0,0,0-0.1,0c0,0-0.1,0-0.1,0c0,0-0.1,0-0.1,0c0,0,0,0,0,0c0,0,0,0,0,0h0l0,0c0,0,0,0,0,0c0,0,0,0,0,0c0,0-0.1,0-0.1,0 c0,0,0,0,0,0c-0.1,0-0.1,0-0.2,0c0,0,0,0-0.1,0c0,0-0.1,0-0.1,0c0,0-0.1,0-0.1,0c0,0,0,0,0,0c0,0,0,0,0,0c0,0-0.1,0-0.1,0l0,0 c0,0,0,0-0.1,0c0,0-0.1,0-0.1,0c0,0,0,0,0,0c-0.1,0-0.2,0-0.3,0c0,0,0,0,0,0c0,0-0.1,0-0.1,0c0,0,0,0,0,0l0,0 c-0.1,0-0.1,0-0.2,0c0,0-0.1,0-0.1,0c0,0,0,0,0,0l0,0c-0.1,0-0.2,0-0.3,0C77,74.1,77,73.9,77,73.8c0-0.7,0.6-1.3,1.3-1.3 C79.1,72.4,79.7,73,79.7,73.8z" class="st71"/></g><g class="st66"><path d="M78.2,72.7C78.2,72.7,78.2,72.7,78.2,72.7c0.2,0,0.2-0.1,0.2-0.2l0,0c0-0.1-0.1-0.2-0.2-0.1 c0,0-0.1,0-0.1,0c-0.1,0-0.1,0.1-0.1,0.2l0,0C78,72.7,78.1,72.7,78.2,72.7z" class="st0"/></g><g class="st66"><path d="M78.2,73C78.2,73,78.2,73,78.2,73c0.2,0,0.2-0.1,0.2-0.2l0,0c0-0.1-0.1-0.2-0.2-0.1c0,0-0.1,0-0.1,0 c-0.1,0-0.1,0.1-0.1,0.2l0,0C78,73,78.1,73,78.2,73z" class="st0"/></g><g class="st66"><path d="M78.2,73.3C78.3,73.3,78.3,73.3,78.2,73.3c0.2,0,0.2-0.1,0.2-0.2l0,0c0-0.1-0.1-0.2-0.2-0.1 c0,0-0.1,0-0.1,0c-0.1,0-0.1,0.1-0.1,0.2v0C78.1,73.3,78.2,73.3,78.2,73.3z" class="st0"/></g><g><path d="M77.2,74.3c0,0-0.1,0-0.1,0l0,0l0,0C77,74.1,77,73.9,77,73.8c0-0.8,0.6-1.4,1.4-1.4 c0.8,0,1.4,0.6,1.4,1.4c0,0,0,0,0,0l0,0l0,0c0,0,0,0,0,0l0,0c-0.1,0-0.2,0.1-0.3,0.1c0,0,0,0-0.1,0c0,0-0.1,0-0.1,0 c0,0,0,0,0,0v0l-0.1,0c0,0,0,0,0,0c0,0,0,0,0,0c0,0-0.1,0-0.1,0l0,0c-0.1,0-0.1,0-0.2,0c0,0,0,0-0.1,0c0,0-0.1,0-0.1,0 c0,0-0.1,0-0.1,0c0,0,0,0,0,0l0,0c0,0-0.1,0-0.1,0l0,0c0,0,0,0-0.1,0l0,0c0,0-0.1,0-0.1,0l0,0c-0.1,0-0.2,0-0.3,0l0,0 c0,0,0,0,0,0c0,0-0.1,0-0.1,0l0,0c-0.1,0-0.1,0-0.2,0c0,0-0.1,0-0.1,0c0,0,0,0,0,0l0,0C77.3,74.3,77.3,74.3,77.2,74.3z M78.2,74.2L78.2,74.2C78.2,74.2,78.2,74.2,78.2,74.2z M77.1,74.2c0.1,0,0.2,0,0.2,0l0,0c0,0,0,0,0,0c0,0,0.1,0,0.1,0 c0.1,0,0.1,0,0.2,0l0,0c0,0,0.1,0,0.1,0c0,0,0,0,0,0l0,0c0.1,0,0.2,0,0.3,0l0,0c0,0,0.1,0,0.1,0l0,0c0,0,0,0,0.1,0l0,0l0,0 c0,0,0.1,0,0.1,0l0,0c0,0,0,0,0,0c0,0,0.1,0,0.1,0c0,0,0.1,0,0.1,0c0,0,0,0,0.1,0c0.1,0,0.1,0,0.2,0l0,0l0,0c0,0,0.1,0,0.1,0 c0,0,0,0,0,0v0l0.1,0c0,0,0.1,0,0.1,0c0,0,0.1,0,0.1,0c0,0,0,0,0.1,0c0.1,0,0.2-0.1,0.3-0.1l0,0c0-0.7-0.6-1.3-1.3-1.3 c-0.7,0-1.3,0.6-1.3,1.3C77.1,73.9,77.1,74,77.1,74.2z M78.1,74.1C78.1,74.1,78.1,74.1,78.1,74.1L78.1,74.1z" class="st68"/></g><g><path d="M77.4,74.3L77.4,74.3c-0.1-0.2-0.1-0.3-0.1-0.5c0-0.6,0.5-1.1,1.1-1.1c0.6,0,1.1,0.5,1.1,1.1 c0,0,0,0.1,0,0.1l0,0l0,0c0,0,0,0-0.1,0c0,0-0.1,0-0.1,0c0,0,0,0,0,0v0l-0.1,0c0,0,0,0,0,0c0,0,0,0,0,0c0,0-0.1,0-0.1,0l0,0 c-0.1,0-0.1,0-0.2,0c0,0,0,0-0.1,0c0,0-0.1,0-0.1,0c0,0-0.1,0-0.1,0c0,0,0,0,0,0l0,0c0,0-0.1,0-0.1,0l0,0c0,0,0,0-0.1,0l0,0 c0,0-0.1,0-0.1,0l0,0c-0.1,0-0.2,0-0.3,0l0,0c0,0,0,0,0,0c0,0-0.1,0-0.1,0l0,0c-0.1,0-0.1,0-0.2,0 C77.5,74.3,77.5,74.3,77.4,74.3L77.4,74.3z M78.2,74.2L78.2,74.2C78.2,74.2,78.2,74.2,78.2,74.2z M78.4,72.8c-0.5,0-1,0.4-1,1 c0,0.1,0,0.3,0.1,0.4c0,0,0,0,0.1,0c0.1,0,0.1,0,0.2,0l0,0c0,0,0.1,0,0.1,0c0,0,0,0,0,0l0,0c0.1,0,0.2,0,0.3,0l0,0 c0,0,0.1,0,0.1,0l0,0c0,0,0,0,0.1,0l0,0l0,0c0,0,0.1,0,0.1,0l0,0c0,0,0,0,0,0c0,0,0.1,0,0.1,0c0,0,0.1,0,0.1,0c0,0,0,0,0.1,0 c0.1,0,0.1,0,0.2,0l0,0l0,0c0,0,0.1,0,0.1,0c0,0,0,0,0,0v0l0,0c0,0,0.1,0,0.1,0c0,0,0.1,0,0.1,0c0,0,0,0,0,0c0,0,0-0.1,0-0.1 C79.4,73.2,78.9,72.8,78.4,72.8z M78.1,74.1C78.1,74.1,78.1,74.1,78.1,74.1L78.1,74.1z" class="st68"/></g><g><path d="M77.7,74.2L77.7,74.2c-0.1-0.2-0.2-0.3-0.2-0.5c0-0.4,0.4-0.8,0.8-0.8c0.4,0,0.8,0.4,0.8,0.8 c0,0.1,0,0.2,0,0.2l0,0l0,0c0,0,0,0,0,0c0,0-0.1,0-0.1,0l0,0c-0.1,0-0.1,0-0.2,0c0,0,0,0-0.1,0c0,0-0.1,0-0.1,0 c0,0-0.1,0-0.1,0c0,0,0,0,0,0l0,0c0,0-0.1,0-0.1,0l0,0c0,0,0,0-0.1,0l0,0c0,0-0.1,0-0.1,0l0,0c-0.1,0-0.2,0-0.3,0l0,0 c0,0,0,0,0,0C77.8,74.2,77.8,74.2,77.7,74.2L77.7,74.2z M78.2,74.2L78.2,74.2C78.2,74.2,78.2,74.2,78.2,74.2z M78.4,73.1 c-0.4,0-0.7,0.3-0.7,0.7c0,0.1,0,0.3,0.1,0.4c0,0,0,0,0.1,0c0,0,0,0,0,0l0,0c0.1,0,0.2,0,0.3,0l0,0c0,0,0.1,0,0.1,0l0,0 c0,0,0,0,0.1,0l0,0l0,0c0,0,0.1,0,0.1,0l0,0c0,0,0,0,0,0c0,0,0.1,0,0.1,0c0,0,0.1,0,0.1,0c0,0,0,0,0.1,0c0.1,0,0.1,0,0.2,0l0,0 l0,0c0,0,0.1,0,0.1,0c0,0,0,0,0,0c0-0.1,0-0.1,0-0.2C79.1,73.4,78.7,73.1,78.4,73.1z M78.1,74.1C78.1,74.1,78.1,74.1,78.1,74.1 L78.1,74.1z" class="st68"/></g><g><path d="M78.1,74.2L78.1,74.2c-0.2-0.1-0.3-0.3-0.3-0.5c0-0.3,0.2-0.5,0.5-0.5c0.3,0,0.5,0.2,0.5,0.5 c0,0.1,0,0.3-0.1,0.3l0,0l0,0c0,0-0.1,0-0.1,0c0,0-0.1,0-0.1,0c0,0,0,0,0,0l0,0c0,0-0.1,0-0.1,0l0,0c0,0,0,0-0.1,0l0,0 C78.2,74.2,78.2,74.2,78.1,74.2L78.1,74.2z M78.4,73.4c-0.2,0-0.4,0.2-0.4,0.4c0,0.1,0.1,0.3,0.2,0.3c0,0,0.1,0,0.1,0l0,0 c0,0,0,0,0.1,0l0,0l0,0c0,0,0.1,0,0.1,0l0,0c0,0,0,0,0,0c0,0,0.1,0,0.1,0c0,0,0,0,0.1,0c0.1-0.1,0.1-0.2,0.1-0.3 C78.8,73.5,78.6,73.4,78.4,73.4z" class="st68"/></g></g><g><g><path d="M78.4,74.1c0,0-0.1,0-0.1,0l0,0c0,0,0,0-0.1,0c0,0-0.1,0-0.1,0c-0.1,0-0.2,0-0.3,0c0,0,0,0,0,0 c0,0-0.1,0-0.1,0l0,0c-0.1,0-0.1,0-0.2,0c0,0-0.1,0-0.1,0l0,0c-0.2,0-0.4,0-0.5,0c0,0-0.1,0-0.1,0c-0.1,0-0.2,0-0.3,0h0l0,0h0 l0,0c0,0,0,0-0.1,0c-0.1,0-0.2,0-0.3-0.1c0,0,0,0,0,0c0,0-0.1,0-0.1,0c-0.1,0-0.1,0-0.2-0.1c0.2-0.5,0.7-0.9,1.3-0.9 c0.3,0,0.7,0.1,0.9,0.3C78.2,73.6,78.4,73.8,78.4,74.1z" class="st71"/></g><g class="st66"><path d="M76.9,73.4C76.9,73.4,76.9,73.4,76.9,73.4c0.2,0,0.2-0.1,0.2-0.2l0,0c0-0.1-0.1-0.1-0.2-0.1 c0,0-0.1,0-0.1,0c-0.1,0-0.1,0.1-0.1,0.2l0,0C76.7,73.4,76.8,73.4,76.9,73.4z" class="st0"/></g><g class="st66"><path d="M77,73.7C77,73.7,77,73.7,77,73.7c0.2,0,0.2-0.1,0.2-0.2l0,0c0-0.1-0.1-0.2-0.2-0.2c0,0-0.1,0-0.1,0 c-0.1,0-0.1,0.1-0.1,0.2l0,0C76.8,73.7,76.9,73.7,77,73.7z" class="st0"/></g><g class="st66"><path d="M77,74C77.1,74,77.1,74,77,74c0.2,0,0.2-0.1,0.2-0.2l0,0c0-0.1-0.1-0.2-0.2-0.2c0,0-0.1,0-0.1,0 c-0.1,0-0.1,0.1-0.1,0.2l0,0C76.9,73.9,76.9,74,77,74z" class="st0"/></g><g><path d="M77.2,74.3c-0.2,0-0.3,0-0.5,0c-0.1,0-0.2,0-0.3,0l0,0c0,0,0,0-0.1,0c-0.1,0-0.2,0-0.3-0.1c0,0,0,0,0,0 l0,0c0,0-0.1,0-0.1,0c-0.1,0-0.1,0-0.2-0.1l-0.1,0l0-0.1c0.2-0.6,0.7-1,1.3-1c0.6,0,1.2,0.4,1.4,1.1l0,0.1l-0.1,0 c0,0-0.1,0-0.1,0l0,0c0,0,0,0-0.1,0c0,0-0.1,0-0.1,0c-0.1,0-0.2,0-0.3,0l0,0c0,0,0,0,0,0c0,0-0.1,0-0.1,0l0,0 c-0.1,0-0.1,0-0.2,0c0,0-0.1,0-0.1,0l0,0C77.3,74.3,77.3,74.3,77.2,74.3z M76.5,74.1L76.5,74.1c0.1,0,0.2,0,0.3,0 c0.2,0,0.4,0,0.6,0l0,0l0,0c0,0,0.1,0,0.1,0c0.1,0,0.1,0,0.2,0l0,0c0,0,0.1,0,0.1,0c0,0,0,0,0,0l0,0c0.1,0,0.2,0,0.3,0 c0,0,0.1,0,0.1,0c0,0,0,0,0.1,0l0,0l0,0c0,0,0,0,0.1,0c-0.2-0.5-0.7-0.9-1.2-0.9c-0.5,0-1,0.3-1.2,0.8c0,0,0.1,0,0.1,0 c0,0,0.1,0,0.1,0l0,0C76.3,74.1,76.4,74.1,76.5,74.1C76.5,74.1,76.5,74.1,76.5,74.1L76.5,74.1z" class="st68"/></g><g><path d="M77.2,74.3c-0.2,0-0.3,0-0.5,0c-0.1,0-0.2,0-0.3,0l0,0c0,0,0,0-0.1,0c-0.1,0-0.2,0-0.3-0.1l-0.1,0l0-0.1 c0.2-0.4,0.6-0.7,1-0.7c0.5,0,0.9,0.3,1.1,0.8l0,0.1l-0.1,0c-0.1,0-0.2,0-0.3,0l0,0c0,0,0,0,0,0c0,0-0.1,0-0.1,0l0,0 c-0.1,0-0.1,0-0.2,0c0,0-0.1,0-0.1,0l0,0C77.3,74.3,77.3,74.3,77.2,74.3z M76.5,74.1L76.5,74.1c0.1,0,0.2,0,0.3,0 c0.2,0,0.4,0,0.6,0l0,0l0,0c0,0,0.1,0,0.1,0c0.1,0,0.1,0,0.2,0l0,0c0,0,0.1,0,0.1,0c0,0,0,0,0,0l0,0c0.1,0,0.1,0,0.2,0 c-0.1-0.4-0.5-0.7-0.9-0.7c-0.4,0-0.8,0.2-0.9,0.6C76.3,74.1,76.4,74.1,76.5,74.1C76.5,74.1,76.5,74.1,76.5,74.1L76.5,74.1z" class="st68"/></g><g><path d="M77.2,74.3c-0.2,0-0.3,0-0.5,0c-0.1,0-0.2,0-0.3,0l0,0c0,0,0,0-0.1,0l-0.1,0l0-0.1 c0.1-0.3,0.4-0.5,0.7-0.5c0.3,0,0.6,0.2,0.8,0.5l0,0.1l-0.1,0c0,0-0.1,0-0.1,0l0,0c-0.1,0-0.1,0-0.2,0c0,0-0.1,0-0.1,0l0,0 C77.3,74.3,77.3,74.3,77.2,74.3z M76.5,74.1c0.1,0,0.2,0,0.2,0c0.2,0,0.4,0,0.6,0l0,0l0,0c0,0,0.1,0,0.1,0c0.1,0,0.1,0,0.2,0 l0,0c0,0,0,0,0,0c-0.1-0.2-0.4-0.4-0.6-0.4C76.9,73.7,76.6,73.9,76.5,74.1z" class="st68"/></g><g><path d="M77.2,74.3c-0.2,0-0.3,0-0.5,0l-0.1,0l0-0.1c0.1-0.1,0.3-0.2,0.4-0.2c0.2,0,0.3,0.1,0.4,0.2l0,0.1l-0.1,0 c0,0-0.1,0-0.1,0l0,0C77.3,74.3,77.3,74.3,77.2,74.3z M76.9,74.2c0.2,0,0.3,0,0.5,0l0,0l0,0c0,0,0,0,0,0 c-0.1-0.1-0.2-0.1-0.3-0.1C77,74,76.9,74.1,76.9,74.2z" class="st68"/></g><g class="st67"><path d="M78.4,74.1c0,0-0.1,0-0.1,0l0,0c0,0,0,0-0.1,0c0,0-0.1,0-0.1,0c-0.1,0-0.2,0-0.3,0c0,0,0,0,0,0 c0,0-0.1,0-0.1,0l0,0c-0.1,0-0.1,0-0.2,0c0,0-0.1,0-0.1,0l0,0c-0.2,0-0.4,0-0.5,0c0.4,0,0.8-0.2,1.2-0.8 C78.2,73.6,78.4,73.8,78.4,74.1z" class="st68"/></g></g><g><g><path d="M80.9,73.2c0,0-0.1,0.1-0.1,0.1c0,0-0.1,0.1-0.1,0.1c0,0,0,0-0.1,0c-0.1,0-0.1,0.1-0.2,0.1c0,0,0,0-0.1,0 c0,0,0,0-0.1,0c0,0,0,0,0,0c0,0-0.1,0-0.1,0.1c-0.1,0.1-0.2,0.1-0.4,0.1c0,0-0.1,0-0.1,0c-0.1,0-0.2,0.1-0.3,0.1 c0,0-0.1,0-0.1,0c0,0-0.1,0-0.1,0c0,0,0,0,0,0c0,0,0,0,0,0h0l0,0c0,0,0,0-0.1,0c0,0-0.1,0-0.1,0c0,0,0,0,0,0 c-0.1,0-0.1,0-0.2,0c0,0-0.1,0-0.1,0c0,0-0.1,0-0.1,0c0,0,0,0,0,0c0-0.1,0-0.1,0-0.2c0-0.1,0-0.2,0-0.2 c0.1-0.6,0.7-1.1,1.3-1.1c0.1,0,0.2,0,0.3,0C80.4,72.6,80.7,72.9,80.9,73.2z" class="st71"/></g><g class="st66"><path d="M79.3,73C79.3,73,79.3,72.9,79.3,73c0.2-0.1,0.2-0.2,0.2-0.2l0,0c0-0.1-0.1-0.1-0.2-0.1c0,0-0.1,0-0.1,0.1 c-0.1,0-0.1,0.1,0,0.2l0,0C79.1,73,79.2,73,79.3,73z" class="st0"/></g><g class="st66"><path d="M79.4,73.2C79.4,73.2,79.5,73.2,79.4,73.2c0.2-0.1,0.2-0.2,0.2-0.2l0,0c0-0.1-0.1-0.1-0.2-0.1 c0,0-0.1,0-0.1,0.1c-0.1,0-0.1,0.1,0,0.2l0,0C79.3,73.2,79.3,73.3,79.4,73.2z" class="st0"/></g><g class="st66"><path d="M79.5,73.5C79.6,73.5,79.6,73.4,79.5,73.5c0.2-0.1,0.2-0.1,0.2-0.2l0,0c0-0.1-0.1-0.1-0.2-0.1 c0,0-0.1,0-0.1,0c-0.1,0-0.1,0.1-0.1,0.2l0,0C79.4,73.5,79.5,73.5,79.5,73.5z" class="st0"/></g><g class="st67"><path d="M80.9,73.2c0,0-0.1,0.1-0.1,0.1c0,0-0.1,0.1-0.1,0.1c0,0,0,0-0.1,0c-0.1,0-0.1,0.1-0.2,0.1c0,0,0,0-0.1,0 c0,0,0,0-0.1,0c0,0,0,0,0,0c0,0-0.1,0-0.1,0.1c-0.1,0.1-0.2,0.1-0.4,0.1c0,0-0.1,0-0.1,0c-0.1,0-0.2,0.1-0.3,0.1 c0,0-0.1,0-0.1,0c0,0-0.1,0-0.1,0c0,0,0,0,0,0c0,0,0,0,0,0h0l0,0c0,0,0,0-0.1,0c0,0-0.1,0-0.1,0c0,0,0,0,0,0 c-0.1,0-0.1,0-0.2,0c0,0-0.1,0-0.1,0c0,0-0.1,0-0.1,0c0,0,0,0,0,0c0-0.1,0-0.1,0-0.2c0-0.1,0-0.2,0-0.2 c1.2,0.2,1.8-0.1,1.6-1.1C80.4,72.6,80.7,72.9,80.9,73.2z" class="st68"/></g><g><path d="M78.4,74.2L78.4,74.2c0-0.1,0-0.2,0-0.3c0-0.8,0.6-1.4,1.4-1.4c0.5,0,0.9,0.2,1.2,0.7l0,0l0,0 c0,0-0.1,0.1-0.1,0.1c0,0-0.1,0.1-0.1,0.1c0,0,0,0-0.1,0c-0.1,0-0.1,0.1-0.2,0.1c0,0-0.1,0-0.1,0c0,0,0,0-0.1,0l0,0 c0,0-0.1,0-0.1,0.1c-0.1,0.1-0.2,0.1-0.4,0.2c0,0-0.1,0-0.1,0c-0.1,0-0.2,0.1-0.3,0.1c0,0-0.1,0-0.1,0c0,0,0,0,0,0v0l0,0 c0,0,0,0,0,0l0,0c0,0,0,0,0,0c0,0-0.1,0-0.1,0l0,0c-0.1,0-0.1,0-0.2,0c0,0-0.1,0-0.1,0c0,0-0.1,0-0.1,0 C78.5,74.2,78.5,74.2,78.4,74.2L78.4,74.2z M79.8,72.6c-0.7,0-1.3,0.6-1.3,1.3c0,0.1,0,0.1,0,0.2c0,0,0.1,0,0.1,0 c0.1,0,0.1,0,0.1,0c0.1,0,0.1,0,0.2,0l0,0l0,0c0,0,0.1,0,0.1,0c0,0,0,0,0,0v0l0.1,0c0,0,0.1,0,0.1,0c0,0,0.1,0,0.1,0 c0.1,0,0.2-0.1,0.3-0.1c0,0,0.1,0,0.1,0c0.1,0,0.3-0.1,0.4-0.1c0,0,0.1,0,0.1-0.1l0,0c0,0,0,0,0.1,0c0,0,0,0,0.1,0 c0.1,0,0.1-0.1,0.2-0.1c0,0,0,0,0.1,0c0,0,0.1-0.1,0.1-0.1c0,0,0,0,0.1,0C80.6,72.8,80.2,72.6,79.8,72.6z" class="st68"/></g><g><path d="M78.7,74.1L78.7,74.1c0-0.1,0-0.2,0-0.2c0-0.6,0.5-1.1,1.1-1.1c0.4,0,0.7,0.2,0.9,0.5l0,0l0,0 c0,0,0,0-0.1,0c-0.1,0-0.1,0.1-0.2,0.1c0,0,0,0-0.1,0c0,0,0,0-0.1,0l0,0c0,0-0.1,0-0.1,0.1c-0.1,0.1-0.2,0.1-0.4,0.2 c0,0-0.1,0-0.1,0c-0.1,0-0.2,0.1-0.3,0.1c0,0-0.1,0-0.1,0c0,0,0,0,0,0v0l0,0c0,0,0,0,0,0l0,0c0,0,0,0,0,0c0,0-0.1,0-0.1,0l0,0 C78.9,74.1,78.8,74.1,78.7,74.1L78.7,74.1z M79.8,72.9c-0.5,0-1,0.4-1,1c0,0,0,0.1,0,0.1c0,0,0.1,0,0.1,0l0,0l0,0 c0,0,0.1,0,0.1,0c0,0,0,0,0,0v0l0,0c0,0,0.1,0,0.1,0c0,0,0.1,0,0.1,0c0.1,0,0.2-0.1,0.3-0.1c0,0,0.1,0,0.1,0 c0.1,0,0.3-0.1,0.4-0.1c0,0,0.1,0,0.1-0.1l0,0c0,0,0,0,0.1,0c0,0,0,0,0.1,0c0.1,0,0.1-0.1,0.2-0.1c0,0,0,0,0,0 C80.4,73.1,80.1,72.9,79.8,72.9z" class="st68"/></g><g><path d="M79,74.1L79,74.1c0-0.1,0-0.1,0-0.2c0-0.4,0.4-0.8,0.8-0.8c0.3,0,0.5,0.1,0.7,0.4l0,0l-0.1,0 c0,0,0,0-0.1,0c0,0,0,0-0.1,0l0,0c0,0-0.1,0-0.1,0.1c-0.1,0.1-0.2,0.1-0.4,0.2c0,0-0.1,0-0.1,0c-0.1,0-0.2,0.1-0.3,0.1 c0,0-0.1,0-0.1,0c0,0,0,0,0,0v0l0,0c0,0,0,0,0,0l0,0C79.1,74,79.1,74,79,74.1L79,74.1z M79.8,73.2c-0.4,0-0.7,0.3-0.7,0.7 c0,0,0,0,0,0l0,0c0,0,0.1,0,0.1,0c0,0,0.1,0,0.1,0c0.1,0,0.2-0.1,0.3-0.1c0,0,0.1,0,0.1,0c0.1,0,0.3-0.1,0.4-0.1 c0,0,0.1,0,0.1-0.1l0,0c0,0,0,0,0.1,0c0,0,0,0,0,0C80.2,73.3,80,73.2,79.8,73.2z" class="st68"/></g><g><path d="M79.3,74L79.3,74c0-0.1,0-0.1,0-0.1c0-0.3,0.2-0.5,0.5-0.5c0.2,0,0.3,0.1,0.4,0.2l0,0.1l-0.1,0 c-0.1,0.1-0.2,0.1-0.4,0.2c0,0-0.1,0-0.1,0C79.6,73.9,79.5,73.9,79.3,74L79.3,74z M79.8,73.5c-0.2,0-0.4,0.2-0.4,0.4 c0.1,0,0.2-0.1,0.3-0.1c0,0,0.1,0,0.1,0c0.1,0,0.2-0.1,0.3-0.1C80,73.5,79.9,73.5,79.8,73.5z" class="st68"/></g></g><g><g><path d="M77.2,74.3c-0.3,0-0.5,0-0.7,0l0,0l0,0c-0.1,0-0.3,0-0.4-0.1c0,0-0.1,0-0.1,0c-0.1,0-0.2-0.1-0.3-0.1 c-0.1-0.1-0.2-0.1-0.3-0.2c0,0,0-0.1,0-0.1c0,0,0.1,0,0.1,0c0.1,0.1,0.1,0.1,0.3,0.2c0.1,0,0.2,0.1,0.3,0.1c0,0,0.1,0,0.1,0 c0.1,0,0.2,0.1,0.4,0.1l0,0c0.3,0,0.6,0.1,0.9,0l0,0c0.1,0,0.2,0,0.3,0l0,0c0,0,0.1,0,0.1,0c0.1,0,0.2,0,0.4,0c0,0,0,0,0.1,0 c0.1,0,0.1,0,0.2,0c0,0,0.1,0,0.1,0c0.1,0,0.2,0,0.3-0.1l0,0l0,0c0,0,0.1,0,0.1,0l0,0l0.1,0c0,0,0.1,0,0.1,0 c0.2,0,0.3-0.1,0.5-0.1c0,0,0.1,0,0.1,0c0.2-0.1,0.3-0.1,0.5-0.2c0,0,0,0,0,0c0,0,0,0,0.1,0c0.1,0,0.2-0.1,0.3-0.1 c0.1,0,0.1-0.1,0.2-0.1c0.3-0.2,0.4-0.4,0.4-0.5c0,0,0-0.1,0-0.1c0,0,0.1,0,0.1,0c0,0.2-0.1,0.4-0.5,0.6 c-0.1,0-0.1,0.1-0.2,0.1c-0.1,0.1-0.2,0.1-0.3,0.1c0,0,0,0-0.1,0c0,0,0,0,0,0c-0.2,0.1-0.3,0.1-0.5,0.2c0,0-0.1,0-0.1,0 c-0.2,0.1-0.3,0.1-0.5,0.1c0,0,0,0-0.1,0l0,0c0,0,0,0,0,0l0,0c-0.1,0-0.1,0-0.2,0l0,0l0,0c-0.1,0-0.2,0-0.3,0.1 c0,0-0.1,0-0.1,0c-0.1,0-0.1,0-0.2,0c0,0,0,0-0.1,0c-0.1,0-0.3,0-0.4,0c0,0-0.1,0-0.1,0l0,0c-0.1,0-0.2,0-0.3,0l0,0 C77.3,74.3,77.3,74.3,77.2,74.3z" class="st68"/></g></g><g><g><g><path d="M77.2,74.3c-0.3,0-0.5,0-0.7,0l0,0l0,0c-0.1,0-0.3,0-0.4-0.1c0,0-0.1,0-0.1,0c-0.1,0-0.2-0.1-0.3-0.1 c-0.1-0.1-0.2-0.1-0.3-0.2c0,0,0-0.1,0-0.1c0,0,0.1,0,0.1,0c0.1,0.1,0.1,0.1,0.3,0.2c0.1,0,0.2,0.1,0.3,0.1c0,0,0.1,0,0.1,0 c0.1,0,0.2,0.1,0.4,0.1l0,0c0.3,0,0.6,0.1,0.9,0l0,0l0,0c0.1,0,0.2,0,0.3,0l0,0c0,0,0.1,0,0.1,0c0.1,0,0.2,0,0.4,0 c0,0,0,0,0.1,0c0.1,0,0.1,0,0.2,0c0,0,0.1,0,0.1,0c0.1,0,0.2,0,0.3-0.1l0,0l0,0c0,0,0.1,0,0.1,0l0,0l0.1,0c0,0,0.1,0,0.1,0 c0.2,0,0.3-0.1,0.5-0.1c0,0,0.1,0,0.1,0c0.2-0.1,0.3-0.1,0.5-0.2c0,0,0,0,0,0c0,0,0,0,0.1,0c0.1,0,0.2-0.1,0.3-0.1 c0.1,0,0.1-0.1,0.2-0.1c0.3-0.2,0.4-0.4,0.4-0.5c0,0,0-0.1,0-0.1c0,0,0.1,0,0.1,0c0,0.2-0.1,0.4-0.5,0.6 c-0.1,0-0.1,0.1-0.2,0.1c-0.1,0.1-0.2,0.1-0.3,0.1c0,0,0,0-0.1,0c0,0,0,0,0,0c-0.2,0.1-0.3,0.1-0.5,0.2c0,0-0.1,0-0.1,0 c-0.2,0.1-0.3,0.1-0.5,0.1c0,0,0,0-0.1,0l0,0c0,0,0,0,0,0l0,0c-0.1,0-0.1,0-0.2,0l0,0l0,0c-0.1,0-0.2,0-0.3,0.1 c0,0-0.1,0-0.1,0c-0.1,0-0.1,0-0.2,0c0,0,0,0-0.1,0c-0.1,0-0.3,0-0.4,0c0,0-0.1,0-0.1,0l0,0c-0.1,0-0.2,0-0.3,0l0,0 C77.3,74.3,77.3,74.3,77.2,74.3z" class="st68"/></g></g></g></g></g><rect width="243.9" height="3.6" x="4.5" y="79.8" class="st72"/><g><polygon points="178.8 44.1 180 48.3 217.5 56.6 237.4 35.3 237.2 31.3" class="st73"/><polygon points="175.8 42.4 175.4 45.5 216.6 54.8 239.4 32.5 237.5 28.9 204.1 27.1" class="st74"/><polygon points="175.8 42.4 175.4 45.5 216.7 54.9 204.1 27.1" class="st75"/><polygon points="214.6 50 175.8 42.4 204.1 27.1 237.5 28.9" class="st76"/><polygon points="214.6 50 204.1 27.1 237.5 28.9" class="st77"/><g><path d="M221.3,32.5c0.3,0,0.7-0.4,0-0.3C220.7,32.4,221.1,32.6,221.3,32.5z" class="st78"/><path d="M209.7,29.2l-0.1,0.7C209.5,29.9,213.7,29,209.7,29.2z" class="st78"/><path d="M189.8,37c-2.6,1.4-3.6,3.3-2,4.5C186.5,39.8,189.1,37.4,189.8,37z" class="st78"/><path d="M219,40.5c-7.3,3.9-14.3,3.3-16,3.1C208.1,44.8,214.5,43.3,219,40.5z" class="st78"/><path d="M195.4,35c-4.2,2-5.5,3.3-5.8,5.5l17.8-2.9L195.4,35z M196,35.8c2.1-0.5,2.9,0.5,0.9,0.8 C195,36.9,193.9,36.2,196,35.8z M193.6,37.2l0.4-0.3l0.7,0.2l-0.5,0.3L193.6,37.2z M192.7,39.6l-0.7-0.2l1-0.5l0.7,0.2 L192.7,39.6z M195.9,38.7c-2,0.5-3.7-0.6-0.8-1.1C197.7,37.1,198.2,38.1,195.9,38.7z M198.3,37.1l0.5-0.4l0.8,0.2l-0.5,0.4 L198.3,37.1z M201.2,37.3c2.7-0.5,2.4,0.2,0.5,0.8C199.6,38.6,199.5,37.6,201.2,37.3z" class="st78"/><path d="M211.8,30.9l1.8-0.1c0,0-0.2-0.5,0.3-1.1h-0.7L211.8,30.9z" class="st78"/><path d="M217.2,29.9l-2.9,0.9c1.5,0,2.2,0.2,3.1,0.4l0.5-0.6c-0.8-0.2-2-0.2-2-0.2l2.5-0.6 c-0.2-0.2-1.3-0.3-2.5-0.3l-0.7,0.6C215.4,30.2,217.2,29.9,217.2,29.9z" class="st78"/><path d="M219.5,32.3l0.8-0.6c-0.4-0.4-1.2-0.5-1.2-0.5l2.3-0.2c-0.1-0.2-0.6-0.5-1.4-0.8l-1,0.5 c0.2,0,1.6,0.1,1.6,0.1l-2.8,0.5C218.8,31.6,219.1,31.8,219.5,32.3z" class="st78"/><path d="M221,32.8c0.2-0.1,0.3-0.2,0.6-0.2c0.2,0,0.4-0.1,0.5-0.1c0.3-0.3,0.2-0.6-0.8-0.5 C219.4,32.2,220.3,32.7,221,32.8z M221.4,32.3c0.6-0.1,0.2,0.2,0,0.3C221.1,32.6,220.7,32.4,221.4,32.3z" class="st78"/><path d="M221.8,32.7L221.8,32.7L221.8,32.7z" class="st78"/><path d="M221,32.8c-0.3,0.2-0.4,0.3-0.4,0.3l0.5,0.1c0.1-0.1,0.2-0.3,0.5-0.5c-0.1,0-0.2,0.1-0.3,0.1 C221.3,32.8,221.2,32.8,221,32.8z" class="st78"/><path d="M221.8,32.7c0.2-0.1,0.2-0.1,0.5-0.2c0.8-0.2,1.4-0.8,0.8-1.1l-0.8,0.3c0,0,0.9,0.5-0.2,0.8 C222,32.6,222,32.6,221.8,32.7z" class="st78"/><path d="M221,32.8c0.2,0,0.3,0,0.4,0s0.2,0,0.3-0.1h0.1c0.2-0.1,0.2-0.1,0.3-0.2c-0.2,0-0.3,0.1-0.5,0.1 C221.3,32.7,221.2,32.7,221,32.8z" class="st78"/><path d="M209.7,31.2l-0.3-1c0,0,2.2,0,3.3-0.7c0.8-0.5,0.3-1.4-3.9-0.9l-2,3.2L209.7,31.2z M209.7,29.2 c4.1-0.2-0.1,0.7-0.1,0.7L209.7,29.2z" class="st78"/><path d="M214.1,29.6c0.6-0.2,0.5-0.5-0.1-0.3C213.7,29.3,213.6,29.7,214.1,29.6z" class="st78"/><path d="M213.2,41.9l-2.1-4.2l2.5,4c0.9-0.3,3.5-1.1,4.2-1.4c2.6-1.3,3.7-2.8,3.7-4.2l-9.6,1.1l9.6-1.3 c-0.1-1.2-1.1-2.4-2.9-3.1l-7,4.3l6.7-4.5c-1.1-0.5-2.4-0.7-3.9-0.8c-1.1-0.1-2.3-0.1-3.4,0.1v5.2l-0.5-5.2 c-3.6,0.5-7.4,1.8-9.9,3.3l9.7,2.2L196.8,40c0.4,1.5,2,2.4,4.3,2.7l9.2-5l-8.9,5.1C205.4,43.5,209.4,43.1,213.2,41.9z M211.2,40.9c0.5,0,0.7,0.3,0.4,0.7s-1,0.7-1.5,0.7s-0.7-0.3-0.4-0.7C210.1,41.2,210.8,40.9,211.2,40.9z M208.4,42.2l-0.1,0.3 l-0.7,0.1l0.1-0.3L208.4,42.2z M209.9,40.5l0.5,0.2l-0.6,0.3l-0.5-0.2L209.9,40.5z M207.6,41.9c-0.6,0.3-1.5,0.5-2,0.4 c-0.5-0.2-0.3-0.5,0.3-0.8s1.5-0.5,2-0.4C208.4,41.1,208.3,41.6,207.6,41.9z M210.4,38.9c0.4,0,0.5,0.2,0.2,0.5s-0.8,0.6-1.2,0.6 s-0.5-0.2-0.2-0.5C209.4,39.2,210,38.9,210.4,38.9z M208.1,40.1l-0.1,0.3l-0.7,0.1l0.1-0.3L208.1,40.1z M218.6,38.1v0.2l-0.3,0.1 v-0.2L218.6,38.1z M217,39.8c-0.9,0.5-3.6,0.8-1.4-0.4C217,38.7,217.9,39.3,217,39.8z M213.5,39.3l-0.5-0.2l0.6-0.3l0.5,0.2 L213.5,39.3z M216.3,37.4c2.1-0.6,2.3,0.3,0.7,0.7C215.3,38.5,214.1,38.1,216.3,37.4z M213.1,37.5c1.2-0.4,1.4,0.2,0.4,0.4 C212.6,38.1,211.9,37.8,213.1,37.5z M219.6,35.3c1.2-0.2,0.8,0.5-0.2,0.5C218.6,35.9,218.4,35.5,219.6,35.3z M219.4,34.7v0.2 l-0.3,0.1v-0.2L219.4,34.7z M215.6,36.4c-1,0.2-1.6,0-0.4-0.4C216.4,35.6,216.5,36.2,215.6,36.4z M216.3,35.2l0.3-0.1v0.2 l-0.3,0.1V35.2z M219,34.4c-0.9,0.5-2.3,0.7-1.4-0.1C218.6,33.5,219.9,33.8,219,34.4z M213.5,36.6v0.2l-0.3,0.1v-0.2L213.5,36.6z M212.5,32.7l0.1-0.3l0.7-0.1l-0.1,0.3L212.5,32.7z M213.1,33.8v-0.2l0.3-0.1v0.2L213.1,33.8z M216.2,32.8c1.8,0.2-0.1,1.3-1.2,1 C213.8,33.4,214.4,32.5,216.2,32.8z M212.3,35.4c-0.1-0.4,0.8-0.8,1.1-0.4C213.9,35.5,212.5,35.8,212.3,35.4z M204.9,34.3 l-0.5-0.2l0.4-0.2l0.5,0.2L204.9,34.3z M204.1,35.6c-0.7-0.4,0.2-1.1,1.4-0.8S204.8,35.9,204.1,35.6z M208.4,33.9 c-1.4,0.2-2-0.4-0.1-0.8C210.3,32.8,209.9,33.7,208.4,33.9z M208.4,34.7v-0.2l0.3-0.1v0.2L208.4,34.7z M206.7,36.2l0.1-0.3 l0.7-0.1l-0.1,0.3L206.7,36.2z M208.7,36.2c-0.1-0.4,0.8-0.8,1.1-0.4C210.3,36.2,208.8,36.6,208.7,36.2z M200.2,40.6l0.1-0.3 l0.7-0.1l-0.1,0.3L200.2,40.6z M205.5,38.8c1.6,0,0.2,0.7-1.3,0.8C202.7,39.6,204.1,38.8,205.5,38.8z M200.7,41.3 c1.4-1.1,3.3-0.7,2.3-0.1C201.8,41.8,199.3,42.2,200.7,41.3z" class="st78"/></g><polygon points="224.2 41.1 214.3 49.5 204.3 48 214.5 50.3" class="st73"/><path d="M224.4,40.9c0.2,1,1.7,0.7,3.7-1.2s1.1-3,1.1-3L224.4,40.9z" class="st73"/><path d="M225.5,40c0.2,0.6,1.1,0.4,2.2-0.8c1.2-1.1,0.7-1.8,0.7-1.8L225.5,40z" class="st74"/><path d="M213.2,25.3c-3.3-1-10.3-7.1,0.9-8c11.2-1,22.1-11,5.7-9.6s-20.5,0.6-17.4-1.8c0,0-11.6,4.6,16.9,5.4 c3,0.1,8.6,3.9-11.8,5.8C200.5,17.7,208.1,24.2,213.2,25.3z" class="st79"/></g><g><path d="M103.3,57c-3,0-5.3-0.6-6.4-2c-1-1.3-0.7-3,1-5.3c3.4-4,5.5-4.3,6.6-3.9c3.5,1.3,1.2,5.2-0.7,5.7 c1.1-0.4,1.6-1.8,1.6-2.9c0-0.9-0.3-2-1.2-2.4c-0.8-0.3-2.6-0.2-6.1,3.8c-1.5,2-1.8,3.6-1,4.7c3.8,5,19.2-0.7,22.7-1.2 C114.5,55.6,108.1,57,103.3,57z" class="st0"/></g></g></svg>