<svg xmlns="http://www.w3.org/2000/svg" xmlns:v="https://vecta.io/nano" xmlns:xlink="http://www.w3.org/1999/xlink" id="Layer_1" x="0" y="0" version="1.1" viewBox="0 0 64 64" xml:space="preserve" style="enable-background:new 0 0 64 64"><style type="text/css">.st0{fill:#f7af41}.st1{opacity:.3}.st2{fill:#6c184e}.st3{fill:#ffce00}.st4{opacity:.65}.st5{fill:#fff}.st6{fill:#ee1822}.st7{fill:#bd1622}.st8{fill:#f6c547}.st9{fill:#48c75a}.st10{fill:#661a47}.st11{fill:#651b47}.st12{fill:none}.st13{fill:#eb984e}.st14{fill:#6d184e}</style><g><g><g><path d="M2.1,52.9c0,0-1.3,4.1,8.3-1.8S43.8,40.8,55,42.2c11.3,1.4,3.3-25.4-5.1-29.7S15.4,26.8,2.1,52.9z" class="st0"/></g><g class="st1"><path d="M2.8,52c0,0-2,5,7.5-0.9S43.8,40.8,55,42.2c11.3,1.4,3.3-25.4-5.1-29.7S16.2,25.9,2.8,52z" class="st2"/></g><g><path d="M3.7,54.4c-0.5,0-0.9-0.1-1.2-0.4c-0.9-0.7-0.4-2.1-0.4-2.2c0,0,0,0,0-0.1c6.1-12,14-20.8,19.6-26 c7-6.7,14.5-11.6,20.4-13.5c3.4-1.1,6.1-1.2,8-0.2c3,1.6,6.2,6,8.5,12c2.2,5.8,3,11.5,1.9,14.9c-0.8,2.4-2.4,3.7-4.7,3.7 c-0.3,0-0.6,0-0.9-0.1c-11.6-1.5-35.3,3.2-44.4,8.8C7.4,53.4,5.1,54.4,3.7,54.4z M3,52.1c-0.1,0.3-0.2,0.9,0.1,1.2 c0.3,0.2,1.6,0.7,7-2.6c4.5-2.8,12.5-5.4,21.8-7.2c9.1-1.8,17.7-2.4,23.1-1.7c2.4,0.3,3.9-0.7,4.6-3c1-3.2,0.3-8.7-1.9-14.3 c-2.2-5.6-5.3-10-8.1-11.5c-1.7-0.9-4.2-0.8-7.4,0.2c-5.8,1.9-13.1,6.7-20.1,13.3C16.9,31.6,9,40.3,3,52.1z" class="st2"/></g><g><g><path d="M50.6,17.7c-1.3-0.3,0.1-0.8-1.6-2.6c-1.8-1.8-3.7-0.3-3.7-0.3c0.3-0.6,0.4-1.2,0-1.7 c-1.5-2.1-5.5-0.8-6.9-2.5c-1.5-1.7-4.9-0.1-4.9-0.1S12.7,22.8,6.8,37.1C0.8,51.3,1.3,55.7,3.9,54.7s4.5-3.2,6.4-1.5 c1.9,1.8-0.5,5,1.8,6.7c1.3,0.9,4.2-0.7,2.8-3.1c-1.4-2.4-3.3-6.9-0.1-9.3s10.5-3.7,10.1-0.3c-1.1,8.4,7.9,4.8,5.1,1.3 c-2.4-3-0.2-8.3,5.1-5.4c4.4,2.4,3.9-0.9,8.2-2.3c3.2-1.1,9.2-1.1,9.2-1.1c4.2-2.5,0.4-3.7,0.4-3.7s3.5-2.7,2.6-4.6 c-0.9-1.9-0.5-4.8-0.4-7.8C55.2,20.5,51.9,18,50.6,17.7z" class="st3"/></g><g class="st1"><path d="M50.6,17.7c-1.3-0.3,0.1-0.8-1.6-2.6c-1.8-1.8-3.7-0.3-3.7-0.3c0.3-0.6,0.4-1.2,0-1.7 c-1.5-2.1-5.5-0.8-6.9-2.5c-1.5-1.7-4.9-0.1-4.9-0.1s-0.5,0.3-1.3,0.8C38.6,13,52,18.4,49.5,37.9c0,0-25.9,1.9-33,6.3 c-5.1,3.2-10.3,9.2-14.3,9.9c0.3,0.7,0.9,0.9,1.6,0.6c2.6-1,4.5-3.2,6.4-1.5c1.9,1.8-0.5,5,1.8,6.7c1.3,0.9,4.2-0.7,2.8-3.1 c-1.4-2.4-3.3-6.9-0.1-9.3c3.2-2.4,10.5-3.7,10.1-0.3c-1.1,8.4,7.9,4.8,5.1,1.3c-2.4-3-0.2-8.3,5.1-5.4c4.4,2.4,3.9-0.9,8.2-2.3 c3.2-1.1,9.2-1.1,9.2-1.1c4.2-2.5,0.4-3.7,0.4-3.7s3.5-2.7,2.6-4.6c-0.9-1.9-0.5-4.8-0.4-7.8C55.2,20.5,51.9,18,50.6,17.7z" class="st2"/></g><g class="st4"><g><path d="M51.7,18.3c0.1,0,0.2,0.1,0.4,0.1c-0.4-0.3-0.7-0.5-1-0.6C51.1,18.1,51.2,18.2,51.7,18.3z" class="st5"/></g><g><path d="M54,36.6C54,36.6,54,36.6,54,36.6C54,36.6,54,36.6,54,36.6C54,36.6,54,36.6,54,36.6z" class="st5"/></g><g><path d="M46.4,15.5c0,0,1.1-0.8,2.5-0.5c-0.8-0.7-1.6-0.8-2.2-0.7C46.7,14.6,46.6,15,46.4,15.5z" class="st5"/></g><g><path d="M45,12.7c-1.3-1.3-3.8-0.9-5.5-1.4C40.7,12.5,43.2,12.1,45,12.7z" class="st5"/></g><g><path d="M33.4,10.4c0,0-9.2,5.5-17.1,13.4c-0.2,0.1-0.3,0.2-0.4,0.4c-0.1,0.1-0.2,0.2-0.2,0.3 c-3.7,3.8-7,8.1-8.9,12.5C1.2,50.4,1.3,55.1,3.4,54.8C2.7,53.1,3.7,48,7.9,37.7c1.6-3.8,4.3-7.6,7.3-10.9 c0.1,0.1,0.1,0.2,0.2,0.3c0.7,0.6,2,0.4,2.8-0.6c0.9-1,1.1-2.2,0.4-2.9c-0.1-0.1-0.1-0.1-0.2-0.2c7.6-7.3,15.5-13,15.5-13 s2.7-0.4,4.3,0C36.9,8.9,33.4,10.4,33.4,10.4z" class="st5"/></g></g><g><path d="M12.9,60.6c-0.4,0-0.8-0.1-1.1-0.3c-1.4-1-1.3-2.5-1.2-3.8c0.1-1.1,0.1-2.2-0.6-2.9c-1.1-1-2.1-0.5-3.8,0.5 c-0.7,0.4-1.4,0.8-2.1,1.1c-0.9,0.4-1.5,0.1-1.8-0.3c-1.9-2,1.2-10.9,4.1-18c3.1-7.4,10.2-14.3,15.7-18.8c5.9-4.8,11.1-8,11.2-8 c0,0,0,0,0,0c0.2-0.1,3.8-1.7,5.4,0.3c0.6,0.7,1.7,0.8,2.9,0.9c1.5,0.2,3.1,0.3,4,1.6c0.2,0.3,0.3,0.7,0.3,1.1 c0.9-0.3,2.2-0.3,3.3,0.8c1.1,1.1,1.1,1.8,1.1,2.2c0,0.1,0,0.1,0,0.2c0,0,0.1,0.1,0.3,0.1l0,0c1.5,0.4,4.9,3.1,4.9,6.3 c0,0.7-0.1,1.3-0.1,2c-0.1,2.2-0.2,4.3,0.4,5.6c0.8,1.7-1.2,3.7-2.2,4.6c0.5,0.3,1.1,0.8,1.2,1.5c0.1,0.9-0.6,1.8-2.2,2.7 c-0.1,0-0.1,0.1-0.2,0.1c-0.1,0-5.9,0-9.1,1.1c-1.6,0.5-2.4,1.3-3.2,1.9c-1.4,1.2-2.5,1.9-5.3,0.3c-2-1.1-3.7-1.1-4.6,0.1 c-1,1.2-1,3.2,0.1,4.6c0.8,1,0.8,2.2,0.1,3.2c-0.9,1.2-2.7,1.7-4,1.2c-1-0.4-2.5-1.6-2-5.4c0.1-0.6-0.1-0.9-0.6-1.2 c-1.7-1-6.4,0.1-8.8,1.9c-3.1,2.3-0.9,6.9,0.2,8.8c0.7,1.2,0.6,2.4-0.4,3.3C14.3,60.3,13.6,60.6,12.9,60.6z M8.7,52.2 c0.6,0,1.2,0.2,1.8,0.8c1.1,1,1,2.3,0.9,3.6c-0.1,1.3-0.1,2.4,0.9,3.1c0.5,0.3,1.4,0.2,2-0.4c0.4-0.3,0.9-1.1,0.2-2.2 c-1.2-2.1-3.6-7.2,0-9.9c2.5-1.9,7.6-3.2,9.8-2c0.8,0.4,1.1,1.2,1,2.1c-0.3,2.4,0.2,4,1.4,4.5c1,0.4,2.3,0,3-0.9 c0.3-0.4,0.7-1.2-0.1-2.1c-1.3-1.7-1.4-4.2-0.1-5.8c1.3-1.5,3.4-1.6,5.7-0.3c2.5,1.4,3.1,0.8,4.3-0.2c0.8-0.7,1.8-1.5,3.5-2.1 c3.1-1,8.4-1.1,9.2-1.1c1.5-0.9,1.7-1.5,1.7-1.8c-0.1-0.5-1-0.9-1.3-1c-0.2-0.1-0.3-0.2-0.3-0.3c0-0.2,0-0.3,0.2-0.4 c0.8-0.6,3.1-2.8,2.5-4c-0.7-1.6-0.6-3.7-0.5-6.1c0-0.6,0.1-1.3,0.1-1.9c0.1-2.7-2.9-5.1-4.2-5.4c-0.8-0.2-1-0.5-1-1.1 c0-0.3,0-0.8-0.9-1.6c-1.5-1.5-3.1-0.3-3.1-0.3c-0.2,0.1-0.4,0.1-0.5,0c-0.2-0.1-0.2-0.3-0.1-0.5c0.4-0.8,0.2-1.2,0.1-1.3 c-0.7-1-2-1.1-3.4-1.2c-1.3-0.1-2.7-0.3-3.5-1.2c-1-1.2-3.5-0.4-4.4,0c-0.4,0.2-5.4,3.3-11,7.9C17.2,23.2,10.2,30,7.2,37.2 C5,42.4,3.6,46.6,2.9,49.7c-0.7,3.4-0.3,4.4,0,4.6c0.1,0.1,0.3,0.3,0.9,0c0.7-0.3,1.4-0.7,2-1C6.7,52.7,7.7,52.2,8.7,52.2z" class="st2"/></g></g><g><path d="M36.6,39.3c2.5-0.5,5-0.9,7.6-1.2c1.3-0.2,2.5-0.3,3.8-0.4c1.3-0.1,2.6-0.2,3.8-0.2c0.2,0,0.4,0.2,0.4,0.4 c0,0.2-0.2,0.4-0.4,0.4c0,0,0,0,0,0h0c-1.3,0-2.5,0-3.8,0s-2.5,0.1-3.8,0.2C41.6,38.7,39.1,39,36.6,39.3z" class="st2"/></g></g><g class="st1"><g><path d="M44.7,12.5C44.7,12.5,44.7,12.5,44.7,12.5C44.7,12.5,44.7,12.5,44.7,12.5C44.7,12.5,44.7,12.5,44.7,12.5z" class="st2"/></g><g><path d="M54.5,21.2c-0.1,3-0.5,5.9,0.4,7.8c0,0.1,0.1,0.2,0.1,0.3c-0.2-1.7,0.1-3.7,0.1-5.8 C55.1,22.7,54.9,21.9,54.5,21.2C54.5,21.2,54.5,21.2,54.5,21.2z" class="st2"/></g><g><path d="M55,29.7c0,1.8-2.8,3.9-2.8,3.9s1.5,0.5,1.6,1.4c1-1,2.2-2.5,1.7-3.7C55.3,30.8,55.1,30.3,55,29.7z" class="st2"/></g></g><g><g><ellipse cx="36.3" cy="19.3" class="st6" rx="6.4" ry="5.1" transform="matrix(0.8397 -0.543 0.543 0.8397 -4.6548 22.7771)"/></g><g class="st4"><path d="M37.2,24.3c-3.1,0.8-5.9-0.8-6.1-3.5c-0.3-2.8,2.1-5.6,5.2-6.5c2.3-0.6,4.4,0.1,5.5,1.6 c-1-1.8-3.4-2.6-5.9-1.9c-3.3,0.9-5.8,3.9-5.5,6.8c0.3,2.9,3.2,4.6,6.5,3.7c0.9-0.2,1.7-0.6,2.4-1.1 C38.6,23.8,37.9,24.1,37.2,24.3z" class="st5"/></g><g><path d="M36.8,15.2l0.7,7.7c2-0.9,3.4-2.9,3.3-4.8C40.6,16.2,38.9,15,36.8,15.2z" class="st7"/></g><g><path d="M34.9,15.7c-2,0.9-3.3,2.9-3.2,4.8c0.2,1.9,1.8,3.1,3.9,2.9L34.9,15.7z" class="st7"/></g><g><path d="M34.9,15.7c-2,0.9-3.3,2.9-3.2,4.8c0.2,1.9,1.8,3.1,3.9,2.9L34.9,15.7z" class="st7"/></g><g><path d="M35.2,18.3c-0.6,0.3-1.1,0.9-1,1.6c0.1,0.6,0.6,1,1.3,1L35.2,18.3z" class="st6"/></g><g><path d="M37,17.8c0.7,0,1.2,0.3,1.3,1c0.1,0.6-0.4,1.3-1,1.6L37,17.8z" class="st6"/></g><g><path d="M35,25.2c-1.2,0-2.3-0.3-3.2-1c-1.1-0.8-1.8-2-1.9-3.3c-0.3-3.1,2.3-6.3,5.8-7.2c1.9-0.5,3.7-0.2,5.1,0.7 c1.1,0.8,1.8,2,1.9,3.3c0.3,3.1-2.3,6.3-5.8,7.2C36.2,25.1,35.6,25.2,35,25.2z M37.5,14.1c-0.5,0-1.1,0.1-1.6,0.2 c-3.1,0.8-5.5,3.7-5.2,6.4c0.1,1.1,0.7,2.1,1.6,2.8c1.2,0.8,2.8,1,4.4,0.6c3.1-0.8,5.5-3.7,5.2-6.4c-0.1-1.1-0.7-2.1-1.6-2.8 C39.5,14.4,38.5,14.1,37.5,14.1z" class="st2"/></g><g><g><path d="M34.3,21.7c0,0.1,0.1,0.2,0.1,0.3c0,0.1,0,0.2,0,0.3c0,0.1-0.1,0.3-0.3,0.2c-0.1,0-0.3-0.1-0.2-0.3 c0,0,0,0,0-0.1c0-0.1,0.1-0.2,0.2-0.3C34.1,21.9,34.2,21.8,34.3,21.7z" class="st8"/></g><g><path d="M33.4,20.9c0,0.1,0,0.2-0.1,0.3c0,0.1-0.1,0.2-0.1,0.3c-0.1,0.1-0.2,0.2-0.4,0.1c-0.1-0.1-0.2-0.2-0.1-0.4 c0,0,0,0,0-0.1c0.1-0.1,0.2-0.1,0.3-0.2C33.2,21,33.3,20.9,33.4,20.9z" class="st8"/></g><g><path d="M33.2,19.7c-0.1,0.1-0.1,0.2-0.2,0.2c-0.1,0.1-0.2,0.1-0.2,0.2c-0.1,0.1-0.3,0-0.4-0.1 c-0.1-0.1,0-0.3,0.1-0.4c0,0,0.1,0,0.1,0c0.1,0,0.2,0,0.3,0C33,19.6,33.1,19.6,33.2,19.7z" class="st8"/></g><g><path d="M33.6,18.4c-0.1,0-0.2,0-0.3,0.1c-0.1,0-0.2,0-0.3,0c-0.1,0-0.2-0.2-0.2-0.3c0-0.1,0.2-0.2,0.3-0.2 c0,0,0.1,0,0.1,0c0.1,0,0.1,0.1,0.2,0.2C33.5,18.2,33.6,18.3,33.6,18.4z" class="st8"/></g><g><path d="M34.7,17.5c-0.1,0-0.2-0.1-0.3-0.2c-0.1-0.1-0.2-0.1-0.2-0.2c-0.1-0.1-0.1-0.3,0.1-0.4s0.3-0.1,0.4,0.1 c0,0,0,0,0,0.1c0,0.1,0,0.2,0,0.3C34.7,17.3,34.7,17.4,34.7,17.5z" class="st8"/></g></g><g><g><path d="M38.6,20.5c0.1,0.1,0.2,0.1,0.3,0.2c0.1,0.1,0.2,0.1,0.2,0.2c0.1,0.1,0,0.3-0.1,0.4c-0.1,0.1-0.3,0-0.4-0.1 c0,0,0,0,0-0.1c0-0.1,0-0.2,0-0.3C38.6,20.8,38.6,20.7,38.6,20.5z" class="st8"/></g><g><path d="M39.3,19.4c0.1,0,0.2,0,0.3,0c0.1,0,0.2,0,0.3,0c0.1,0,0.2,0.2,0.2,0.3c0,0.1-0.2,0.2-0.3,0.2 c0,0-0.1,0-0.1,0c-0.1-0.1-0.1-0.1-0.2-0.2C39.4,19.5,39.3,19.5,39.3,19.4z" class="st8"/></g><g><path d="M39.2,18c0.1-0.1,0.1-0.2,0.2-0.2c0.1-0.1,0.2-0.1,0.2-0.2c0.1-0.1,0.3,0,0.3,0.2c0.1,0.1,0,0.3-0.2,0.3 c0,0-0.1,0-0.1,0c-0.1,0-0.2,0-0.3,0C39.4,18.1,39.3,18.1,39.2,18z" class="st8"/></g><g><path d="M38.6,17.1c0-0.1,0.1-0.2,0.1-0.3c0-0.1,0.1-0.2,0.1-0.3c0.1-0.1,0.3-0.1,0.4-0.1c0.1,0.1,0.1,0.3,0.1,0.4 c0,0,0,0-0.1,0.1c-0.1,0.1-0.2,0.1-0.3,0.1C38.8,17,38.7,17,38.6,17.1z" class="st8"/></g><g><path d="M37.5,16.7c0-0.1-0.1-0.2-0.1-0.3c0-0.1,0-0.2,0-0.3c0-0.1,0.2-0.3,0.3-0.2c0.1,0,0.3,0.2,0.2,0.3 c0,0,0,0,0,0.1c0,0.1-0.1,0.2-0.2,0.3C37.6,16.6,37.5,16.7,37.5,16.7z" class="st8"/></g></g><g><path d="M37.5,23.3c-0.1,0-0.1,0-0.2-0.1c-0.1-0.1-0.2-0.2-0.2-0.3l-0.7-7.7c0-0.1,0-0.2,0.1-0.3 c0.1-0.1,0.2-0.1,0.3-0.1c2.3-0.2,4.2,1.2,4.4,3.3c0.2,2-1.3,4.2-3.5,5.2C37.6,23.3,37.5,23.3,37.5,23.3z M37.2,15.5l0.6,6.8 c1.7-0.9,2.7-2.6,2.6-4.2C40.2,16.6,38.9,15.5,37.2,15.5C37.2,15.5,37.2,15.5,37.2,15.5z" class="st7"/></g><g><path d="M35.3,23.8c-2.1,0-3.8-1.3-3.9-3.3c-0.2-2,1.2-4.1,3.4-5.1c0.1-0.1,0.2,0,0.3,0c0.1,0.1,0.2,0.2,0.2,0.3 l0.7,7.7c0,0.1,0,0.2-0.1,0.3c-0.1,0.1-0.2,0.1-0.3,0.1C35.6,23.7,35.5,23.8,35.3,23.8z M34.6,16.3c-1.6,0.9-2.6,2.6-2.5,4.1 c0.1,1.5,1.4,2.6,3.1,2.6L34.6,16.3z" class="st7"/></g></g><g><g><ellipse cx="22.9" cy="33" class="st6" rx="6" ry="4.8" transform="matrix(0.8397 -0.543 0.543 0.8397 -14.267 17.7523)"/></g><g class="st4"><path d="M23.8,37.8c-2.9,0.8-5.5-0.7-5.7-3.3c-0.2-2.6,1.9-5.3,4.9-6c2.2-0.6,4.1,0.1,5.1,1.5 c-1-1.7-3.2-2.4-5.6-1.8c-3.1,0.8-5.4,3.7-5.2,6.4c0.3,2.7,3,4.3,6.1,3.5c0.8-0.2,1.6-0.6,2.3-1C25.1,37.3,24.5,37.6,23.8,37.8z" class="st5"/></g><g><path d="M23.4,29.2l0.7,7.2c1.9-0.8,3.2-2.7,3-4.5C27,30.2,25.4,29.1,23.4,29.2z" class="st7"/></g><g><path d="M21.7,29.7c-1.9,0.8-3.1,2.7-3,4.5c0.2,1.8,1.7,2.9,3.6,2.7L21.7,29.7z" class="st7"/></g><g><path d="M21.7,29.7c-1.9,0.8-3.1,2.7-3,4.5c0.2,1.8,1.7,2.9,3.6,2.7L21.7,29.7z" class="st7"/></g><g><path d="M22,32.1c-0.6,0.3-1,0.9-1,1.5c0.1,0.6,0.6,0.9,1.2,0.9L22,32.1z" class="st6"/></g><g><path d="M23.6,31.7c0.6,0,1.1,0.3,1.2,0.9c0.1,0.6-0.4,1.2-1,1.5L23.6,31.7z" class="st6"/></g><g><path d="M21.8,38.6c-1.1,0-2.2-0.3-3.1-0.9c-1-0.7-1.7-1.8-1.8-3.1c-0.3-2.9,2.2-6,5.4-6.8c1.8-0.5,3.5-0.2,4.8,0.7 c1,0.7,1.7,1.8,1.8,3.1l0,0c0.3,2.9-2.2,6-5.4,6.8C22.9,38.5,22.3,38.6,21.8,38.6z M24.1,28.3c-0.5,0-1,0.1-1.5,0.2 c-2.9,0.8-5.1,3.4-4.9,6c0.1,1.1,0.6,2,1.5,2.6c1.1,0.8,2.6,1,4.1,0.6c2.9-0.8,5.1-3.4,4.9-6l0,0c-0.1-1.1-0.6-2-1.5-2.6 C26,28.5,25.1,28.3,24.1,28.3z" class="st2"/></g><g><g><path d="M21.6,35.4c0.1,0.1,0.1,0.2,0.1,0.3c0,0.1,0.1,0.2,0.1,0.3c0,0.1-0.1,0.2-0.2,0.3s-0.2-0.1-0.3-0.2 c0,0,0,0,0-0.1c0-0.1,0-0.2,0.1-0.3C21.5,35.6,21.6,35.5,21.6,35.4z" class="st8"/></g><g><path d="M20.6,35c0,0.1,0,0.2,0,0.3c0,0.1,0,0.2-0.1,0.3c0,0.1-0.2,0.2-0.3,0.1s-0.2-0.2-0.1-0.3c0,0,0,0,0,0 c0.1-0.1,0.1-0.1,0.2-0.2C20.4,35.1,20.5,35.1,20.6,35z" class="st8"/></g><g><path d="M20.1,34c0,0.1-0.1,0.2-0.2,0.3c-0.1,0.1-0.1,0.2-0.2,0.2c-0.1,0.1-0.2,0.1-0.3,0c-0.1-0.1-0.1-0.2,0-0.3 c0,0,0,0,0,0c0.1,0,0.2-0.1,0.3-0.1C19.9,34,20,34,20.1,34z" class="st8"/></g><g><path d="M20.2,32.8c-0.1,0.1-0.2,0.1-0.2,0.1c-0.1,0-0.2,0.1-0.2,0.1c-0.1,0-0.2-0.1-0.2-0.2c0-0.1,0.1-0.2,0.2-0.2 c0,0,0,0,0.1,0c0.1,0,0.2,0,0.2,0.1C20,32.7,20.1,32.7,20.2,32.8z" class="st8"/></g><g><path d="M20.9,31.7c-0.1,0-0.2,0-0.3-0.1c-0.1,0-0.2-0.1-0.2-0.1c-0.1-0.1-0.1-0.2-0.1-0.3c0.1-0.1,0.2-0.1,0.3-0.1 c0,0,0,0,0,0c0.1,0.1,0.1,0.1,0.1,0.2C20.9,31.6,20.9,31.7,20.9,31.7z" class="st8"/></g></g><g><g><path d="M25.1,34.2c0.1,0.1,0.2,0.1,0.2,0.2c0.1,0.1,0.1,0.1,0.2,0.2c0.1,0.1,0,0.2-0.1,0.3c-0.1,0.1-0.2,0-0.3-0.1 c0,0,0,0,0-0.1c0-0.1,0-0.2,0-0.3C25.1,34.4,25.1,34.3,25.1,34.2z" class="st8"/></g><g><path d="M25.7,33.1c0.1,0,0.2,0,0.3,0c0.1,0,0.2,0,0.3,0c0.1,0,0.2,0.2,0.1,0.3c0,0.1-0.2,0.2-0.3,0.1 c0,0,0,0-0.1,0c-0.1,0-0.1-0.1-0.2-0.2C25.8,33.3,25.8,33.2,25.7,33.1z" class="st8"/></g><g><path d="M25.7,31.9c0.1-0.1,0.1-0.1,0.2-0.2c0.1-0.1,0.1-0.1,0.2-0.1c0.1,0,0.2,0,0.3,0.1c0,0.1,0,0.2-0.1,0.3 c0,0,0,0-0.1,0c-0.1,0-0.2,0-0.3,0C25.9,32,25.8,31.9,25.7,31.9z" class="st8"/></g><g><path d="M25.1,31c0-0.1,0.1-0.2,0.1-0.3c0-0.1,0.1-0.2,0.1-0.3c0.1-0.1,0.2-0.1,0.3,0c0.1,0.1,0.1,0.2,0,0.3 c0,0,0,0,0,0c-0.1,0.1-0.2,0.1-0.3,0.1C25.3,30.9,25.2,30.9,25.1,31z" class="st8"/></g><g><path d="M24.1,30.7c0-0.1,0-0.2-0.1-0.3c0-0.1,0-0.2,0-0.3c0-0.1,0.1-0.2,0.2-0.2c0.1,0,0.2,0.1,0.2,0.2 c0,0,0,0,0,0.1c0,0.1-0.1,0.2-0.2,0.3C24.2,30.5,24.1,30.6,24.1,30.7z" class="st8"/></g></g><g><path d="M24.1,36.8c-0.1,0-0.1,0-0.2-0.1c-0.1-0.1-0.2-0.2-0.2-0.3L23,29.3c0-0.1,0-0.2,0.1-0.3 c0.1-0.1,0.2-0.1,0.3-0.1c2.2-0.2,4,1.1,4.1,3.1c0.2,1.9-1.2,4-3.3,4.9C24.2,36.8,24.1,36.8,24.1,36.8z M23.8,29.6l0.6,6.3 c1.5-0.9,2.5-2.4,2.3-3.9C26.6,30.6,25.4,29.6,23.8,29.6z" class="st7"/></g><g><path d="M22.1,37.3c-2,0-3.5-1.3-3.7-3.1c-0.2-1.9,1.1-3.9,3.2-4.8c0.1-0.1,0.2,0,0.4,0c0.1,0.1,0.2,0.2,0.2,0.3 l0.7,7.2c0,0.1,0,0.2-0.1,0.3c-0.1,0.1-0.2,0.1-0.3,0.1C22.3,37.3,22.2,37.3,22.1,37.3z M21.4,30.3c-1.5,0.9-2.4,2.4-2.2,3.8 c0.1,1.4,1.3,2.4,2.8,2.4L21.4,30.3z" class="st7"/></g></g><g><g><g><path d="M15.1,32.3c-4.1,0.2-4.1,2.2-2.8,5.4C14.7,36.6,16.3,34.9,15.1,32.3z" class="st9"/></g><g><path d="M12.1,38.4c-0.1,0-0.1,0-0.2,0c-0.1,0-0.2-0.1-0.2-0.2c-0.6-1.8-1.1-3.7-0.2-4.9c0.6-0.9,1.8-1.3,3.5-1.3 c0.1,0,0.3,0.1,0.4,0.2c0.5,1,0.6,2,0.3,3c-0.5,1.3-1.7,2.5-3.4,3.3C12.2,38.4,12.2,38.4,12.1,38.4z M14.8,32.7 c-1.4,0.1-2.2,0.4-2.7,1c-0.6,0.9-0.3,2.4,0.2,3.8c1.3-0.7,2.3-1.6,2.6-2.6C15.2,34.1,15.2,33.4,14.8,32.7z" class="st10"/></g><g><path d="M15.2,32.6c-0.3,0.1-0.5,0.3-0.8,0.5c-0.2,0.2-0.5,0.4-0.7,0.7c-0.4,0.5-0.8,1.1-1.1,1.8 c0-0.4,0.1-0.7,0.1-1.1c0.1-0.4,0.2-0.7,0.4-1c0.2-0.3,0.4-0.7,0.7-0.9c0.3-0.3,0.6-0.5,1-0.6c0.2-0.1,0.4,0.1,0.5,0.3 C15.5,32.4,15.4,32.5,15.2,32.6L15.2,32.6z" class="st11"/></g></g><g><g><path d="M22.4,21.2c3.6-1.9,4.7-0.2,5.2,3.2C25,24.8,22.7,24,22.4,21.2z" class="st9"/></g><g><path d="M27,25.1c-1.5,0-2.8-0.4-3.7-1.2c-0.8-0.7-1.2-1.6-1.3-2.7c0-0.1,0.1-0.3,0.2-0.4c1.5-0.9,2.8-1.1,3.7-0.6 c1.4,0.6,1.9,2.5,2.3,4.3c0,0.1,0,0.2-0.1,0.3C28.1,25,28,25,27.9,25C27.6,25.1,27.3,25.1,27,25.1z M22.8,21.4 c0.1,0.8,0.4,1.5,1,1.9c0.8,0.7,2.1,1,3.6,1c-0.3-1.5-0.8-2.9-1.8-3.4C24.9,20.6,24,20.8,22.8,21.4z" class="st10"/></g><g><path d="M22.3,20.8c0.4-0.1,0.8-0.1,1.2,0c0.4,0.1,0.7,0.3,1.1,0.5c0.3,0.2,0.6,0.4,0.9,0.7 c0.3,0.3,0.5,0.5,0.7,0.9c-0.6-0.4-1.2-0.8-1.8-1c-0.3-0.1-0.6-0.2-0.9-0.2c-0.3-0.1-0.6-0.1-0.9,0l0,0c-0.2,0-0.4-0.1-0.4-0.3 C22,21,22.2,20.9,22.3,20.8z" class="st11"/></g></g><g><g><path d="M38.4,34c-2.8-2.6-4.2-1.3-5.5,1.7C35.2,36.6,37.5,36.5,38.4,34z" class="st9"/></g><g><path d="M35.1,36.6c-0.8,0-1.6-0.2-2.5-0.5c-0.1,0-0.2-0.1-0.2-0.2c0-0.1,0-0.2,0-0.3c0.8-1.6,1.7-3.1,3.1-3.4 c1-0.2,2,0.3,3.2,1.4c0.1,0.1,0.1,0.2,0.1,0.4c-0.3,1-0.9,1.7-1.8,2.1C36.4,36.5,35.7,36.6,35.1,36.6z M33.2,35.6 c1.3,0.4,2.6,0.4,3.5,0c0.6-0.3,1.1-0.8,1.4-1.5c-0.9-0.9-1.7-1.2-2.4-1.1C34.6,33.1,33.8,34.3,33.2,35.6z" class="st10"/></g><g><path d="M38.2,34.3c-0.3-0.1-0.5-0.2-0.8-0.2c-0.3,0-0.6,0-0.9,0c-0.6,0.1-1.3,0.2-1.9,0.5 c0.2-0.2,0.5-0.4,0.8-0.6c0.3-0.2,0.6-0.3,1-0.4c0.3-0.1,0.7-0.2,1.1-0.2c0.4,0,0.8,0.1,1.1,0.3c0.2,0.1,0.2,0.3,0.1,0.5 C38.6,34.3,38.4,34.3,38.2,34.3L38.2,34.3z" class="st11"/></g></g><g><g><path d="M6.6,40.5c0.2,0,0.4,0,0.6,0.1c0.2,0,0.4,0.1,0.6,0.1c0.2,0,0.4,0.1,0.7,0.1c0.2,0.1,0.4,0.1,0.7,0.3l0,0 c0.3,0.2,0.3,0.5,0.2,0.7C9.3,42.1,9,42.1,8.7,42c0,0-0.1,0-0.1-0.1c-0.1-0.1-0.3-0.2-0.4-0.2c-0.2-0.1-0.3-0.1-0.5-0.2 c-0.2-0.1-0.4-0.1-0.6-0.2c-0.2-0.1-0.4-0.1-0.6-0.1l0,0c-0.2,0-0.3-0.2-0.3-0.4C6.3,40.6,6.5,40.5,6.6,40.5z" class="st9"/></g><g class="st1"><path d="M6.6,40.5c0.2,0,0.4,0,0.6,0.1c0.2,0,0.4,0.1,0.6,0.1c0.2,0,0.4,0.1,0.7,0.1c0.2,0.1,0.4,0.1,0.7,0.3l0,0 c0.3,0.2,0.3,0.5,0.2,0.7C9.3,42.1,9,42.1,8.7,42c0,0-0.1,0-0.1-0.1c-0.1-0.1-0.3-0.2-0.4-0.2c-0.2-0.1-0.3-0.1-0.5-0.2 c-0.2-0.1-0.4-0.1-0.6-0.2c-0.2-0.1-0.4-0.1-0.6-0.1l0,0c-0.2,0-0.3-0.2-0.3-0.4C6.3,40.6,6.5,40.5,6.6,40.5z" class="st2"/></g><g><path d="M9,42.4c-0.1,0-0.3,0-0.4-0.1c0,0-0.1-0.1-0.1-0.1c0,0-0.1-0.1-0.3-0.2c-0.1-0.1-0.3-0.1-0.5-0.2 c-0.2-0.1-0.4-0.1-0.5-0.2c-0.2-0.1-0.4-0.1-0.6-0.1c-0.2,0-0.3-0.1-0.4-0.3C6,41,5.9,40.9,6,40.7c0.1-0.3,0.4-0.5,0.7-0.5l0,0 c0.2,0,0.4,0,0.7,0.1c0.2,0,0.4,0.1,0.7,0.1c0.3,0,0.5,0.1,0.7,0.2c0.3,0.1,0.5,0.2,0.8,0.3l0,0c0.4,0.2,0.5,0.8,0.3,1.2 C9.6,42.2,9.3,42.4,9,42.4z M6.6,40.8C6.6,40.8,6.6,40.8,6.6,40.8C6.6,40.8,6.6,40.8,6.6,40.8C6.6,40.9,6.6,40.9,6.6,40.8 C6.8,40.9,7,41,7.2,41c0.2,0.1,0.4,0.1,0.6,0.2c0.2,0.1,0.4,0.1,0.6,0.2c0.2,0.1,0.4,0.2,0.5,0.3c0,0,0,0,0,0 c0.1,0.1,0.2,0,0.3-0.1c0.1-0.1,0-0.2-0.1-0.3l0,0c-0.2-0.1-0.4-0.2-0.6-0.3C8.3,41,8.1,41,7.9,40.9c-0.2,0-0.4-0.1-0.6-0.1 C7,40.8,6.8,40.8,6.6,40.8C6.6,40.8,6.6,40.8,6.6,40.8z" class="st10"/></g><g><g><path d="M7.1,40.9c-1.2-4.5-6.4-0.8-6.4-0.8S4.8,45,7.1,40.9z" class="st9"/></g><g class="st4"><path d="M7.1,40.9C7.1,40.9,7.1,40.9,7.1,40.9c-1.2-4.6-6.4-0.9-6.4-0.9s0.1,0.2,0.4,0.4C2,39.8,5.8,37.7,7.1,40.9 z" class="st5"/></g><g><path d="M4.7,42.8c-2.3,0-4.5-2.4-4.6-2.5C0,40.2,0,40.1,0,40s0.1-0.2,0.1-0.2c0.1-0.1,3.2-2.1,5.4-1.3 c0.9,0.3,1.5,1.1,1.9,2.3c0,0.1,0,0.2,0,0.2C6.8,42.1,6,42.7,5,42.8C4.9,42.8,4.8,42.8,4.7,42.8z M0.8,40.1 c0.7,0.7,2.5,2.2,4.1,2.1c0.7-0.1,1.4-0.5,1.9-1.3C6.5,40,6,39.4,5.4,39.1C3.8,38.5,1.6,39.6,0.8,40.1z" class="st10"/></g><g><g><line x1="7.1" x2="3.6" y1="40.9" y2="40.4" class="st12"/></g><g><path d="M7.1,41.2c-0.3,0-0.6-0.1-0.9-0.1c-0.3,0-0.6-0.1-0.9-0.2c-0.6-0.1-1.1-0.3-1.7-0.5c0.6,0,1.2,0,1.8,0 c0.3,0,0.6,0,0.9,0c0.3,0,0.6,0.1,0.9,0.1c0.2,0,0.3,0.2,0.2,0.4C7.4,41.1,7.2,41.2,7.1,41.2z" class="st11"/></g></g></g><g><path d="M4.6,42.8c0.4-0.3,0.8-0.7,1.2-1c0.4-0.3,0.8-0.7,1.2-1c0.1-0.1,0.3-0.1,0.4,0.1c0.1,0.1,0.1,0.3-0.1,0.4 c0,0,0,0,0,0l0,0c-0.5,0.2-0.9,0.5-1.4,0.7C5.5,42.3,5,42.5,4.6,42.8z" class="st10"/></g><g><g><path d="M7.1,40.9c0,0-2.6,0.2-3.2,4.7C3.9,45.7,9.3,44,7.1,40.9z" class="st9"/></g><g class="st4"><path d="M4.7,45.3c0.5-3.7,2.6-3.9,2.7-3.9c-0.1-0.1-0.1-0.2-0.2-0.4c0,0-2.6,0.2-3.2,4.7c0,0,1.2-0.4,2.2-1.1 C5.4,45,4.7,45.3,4.7,45.3z" class="st5"/></g><g><path d="M3.9,46c-0.1,0-0.1,0-0.2-0.1c-0.1-0.1-0.1-0.2-0.1-0.3c0.6-4.8,3.4-5,3.5-5c0.1,0,0.2,0,0.3,0.1 c0.5,0.8,0.7,1.5,0.4,2.3C7.2,44.9,4.1,45.9,3.9,46C4,46,3.9,46,3.9,46z M7,41.3c-0.5,0.1-2.1,0.7-2.7,3.9 c0.9-0.3,2.6-1.2,3-2.4C7.4,42.3,7.3,41.8,7,41.3z" class="st10"/></g><g><path d="M5.7,42.9c0.2-0.4,0.4-0.7,0.6-1.1c0.2-0.4,0.4-0.7,0.7-1.1c0.1-0.1,0.3-0.2,0.4-0.1 c0.1,0.1,0.2,0.3,0.1,0.4c0,0,0,0-0.1,0.1c-0.3,0.3-0.6,0.6-0.9,0.9C6.2,42.3,5.9,42.6,5.7,42.9z" class="st10"/></g></g><g><g><path d="M7.1,40.9c0,0-2.5-1-1.6-5.5C5.5,35.4,10.1,38.7,7.1,40.9z" class="st9"/></g><g class="st4"><path d="M6.2,36c-0.4-0.4-0.7-0.6-0.7-0.6c-0.8,4.5,1.6,5.5,1.6,5.5c0,0,0.1-0.1,0.1-0.1C6.7,40.5,5.5,39.2,6.2,36 z" class="st5"/></g><g><path d="M7.1,41.2c0,0-0.1,0-0.1,0c-0.1,0-2.7-1.1-1.8-5.8c0-0.1,0.1-0.2,0.2-0.2s0.2,0,0.3,0 c0.1,0.1,2.7,2,2.8,4c0,0.8-0.4,1.5-1.1,2C7.3,41.2,7.2,41.2,7.1,41.2z M5.7,36c-0.4,3.2,0.9,4.3,1.4,4.6 c0.5-0.4,0.7-0.9,0.7-1.4C7.8,37.9,6.4,36.6,5.7,36z" class="st10"/></g><g><path d="M6.3,38.6c0.2,0.4,0.3,0.8,0.5,1.1c0.2,0.4,0.4,0.7,0.6,1.1c0.1,0.1,0,0.3-0.1,0.4 c-0.1,0.1-0.3,0-0.4-0.1c0,0,0,0,0-0.1c-0.1-0.4-0.2-0.8-0.3-1.2C6.5,39.4,6.4,39,6.3,38.6z" class="st10"/></g></g></g></g><g><path d="M2.5,53.3C2.5,53.3,2.5,53.3,2.5,53.3c0,0,0.1,0.1,0.1,0.1c0.1,0,0.2,0,0.3,0c0.2,0,0.5-0.1,0.8-0.2 c0.5-0.2,1-0.5,1.5-0.8c1-0.6,1.9-1.3,2.9-2c0.9-0.7,1.8-1.5,2.7-2.2c0.2-0.2,0.4-0.4,0.7-0.6c0.2-0.2,0.4-0.4,0.7-0.6 c0.1-0.1,0.2-0.2,0.3-0.3l0.3-0.3l0.2-0.1l0.2-0.1l0.4-0.3c2-1.4,4.1-2.4,6.3-3.2c1.1-0.4,2.3-0.7,3.4-1c1.1-0.3,2.3-0.5,3.5-0.7 c-2.3,0.5-4.6,1.1-6.8,2c-1.1,0.4-2.2,0.9-3.2,1.5c-1,0.5-2,1.2-3,1.9l-0.3,0.3l-0.2,0.1L13,46.7L12.7,47 c-0.1,0.1-0.2,0.2-0.3,0.3c-0.2,0.2-0.4,0.4-0.6,0.6c-0.2,0.2-0.4,0.4-0.7,0.6c-0.9,0.8-1.8,1.6-2.7,2.3c-0.9,0.7-1.9,1.5-2.9,2.1 c-0.5,0.3-1,0.6-1.6,0.9C3.6,54,3.3,54.1,3,54.1c-0.2,0-0.4,0-0.6,0c-0.1,0-0.2-0.1-0.3-0.1c-0.1-0.1-0.2-0.2-0.3-0.3 c-0.1-0.2,0-0.4,0.1-0.5C2.1,53.1,2.3,53.1,2.5,53.3L2.5,53.3z" class="st2"/></g><g><g class="st1"><ellipse cx="47" cy="35.2" class="st2" rx=".6" ry=".4" transform="matrix(0.968 -0.2508 0.2508 0.968 -7.3303 12.9087)"/></g><g class="st1"><ellipse cx="44.2" cy="33.6" class="st2" rx="1" ry=".7" transform="matrix(0.968 -0.2508 0.2508 0.968 -7.0275 12.1501)"/></g><g class="st1"><ellipse cx="37.8" cy="29.4" class="st2" rx=".8" ry=".6" transform="matrix(0.9355 -0.3532 0.3532 0.9355 -7.9447 15.2394)"/></g><g class="st1"><ellipse cx="45.1" cy="21.9" class="st2" rx=".5" ry=".4" transform="matrix(0.9355 -0.3532 0.3532 0.9355 -4.8412 17.3621)"/></g><g class="st1"><ellipse cx="46.1" cy="27.5" class="st2" rx=".6" ry=".5" transform="matrix(0.9355 -0.3532 0.3532 0.9355 -6.7501 18.0643)"/></g><g class="st1"><path d="M40.3,25.6c0.1,0.2-0.1,0.4-0.3,0.5c-0.3,0.1-0.5,0-0.6-0.2c-0.1-0.2,0.1-0.4,0.3-0.5 C40,25.3,40.2,25.4,40.3,25.6z" class="st2"/></g><g class="st1"><ellipse cx="31.3" cy="32.7" class="st2" rx=".6" ry=".4" transform="matrix(0.8111 -0.5849 0.5849 0.8111 -13.2269 24.4702)"/></g><g class="st1"><ellipse cx="32.5" cy="27.4" class="st2" rx=".6" ry=".4" transform="matrix(0.8111 -0.5849 0.5849 0.8111 -9.8909 24.1923)"/></g><g class="st1"><ellipse cx="15.7" cy="41.4" class="st2" rx=".7" ry=".6" transform="matrix(0.8111 -0.5849 0.5849 0.8111 -21.2677 16.9861)"/></g><g class="st1"><ellipse cx="16" cy="37.5" class="st2" rx=".6" ry=".5" transform="matrix(0.8111 -0.5849 0.5849 0.8111 -18.9299 16.4611)"/></g><g class="st1"><ellipse cx="10.1" cy="45.1" class="st2" rx=".4" ry=".3" transform="matrix(0.8111 -0.5849 0.5849 0.8111 -24.4907 14.4426)"/></g><g class="st1"><ellipse cx="16.2" cy="30.4" class="st2" rx=".6" ry=".5" transform="matrix(0.8111 -0.5849 0.5849 0.8111 -14.7546 15.2006)"/></g><g class="st1"><ellipse cx="21.6" cy="26.6" class="st2" rx=".8" ry=".6" transform="matrix(0.8111 -0.5849 0.5849 0.8111 -11.4662 17.6236)"/></g></g><g><g><g><g><path d="M52.3,36.3c-0.8,4.4,9.3,5.1,9.3,5.1s6.4-14.9-3.9-27.6S33.5,3.1,32,6.1s1.5,4.4,1.5,4.4 S56.5,12.5,52.3,36.3z" class="st13"/></g><g class="st4"><path d="M57.7,13.8C47.4,1.1,33.5,3.1,32,6.1c-1.4,2.7,0.9,4.1,1.4,4.3c-0.6-0.7-1.1-1.7-0.3-3.3 c0.3-0.7,1.3-1.3,2.7-1.6c-0.3,0.2-0.5,0.4-0.5,0.7c0.1,0.4,1,0.6,2.1,0.5c1.1-0.2,1.9-0.7,1.8-1.2c0-0.2-0.2-0.3-0.4-0.4 c5-0.1,12.2,2,18.1,9.3C66.5,26.2,60.6,40,60.6,40S54,39.5,52.3,37c0.2,3.9,9.3,4.5,9.3,4.5S68,26.6,57.7,13.8z" class="st5"/></g><g class="st1"><path d="M61.6,41.5c0,0,0.9-2,1.4-5.2c-1.1-1-2.6-1.8-4.3-2.5c-1.5-0.6-2.4-2.1-2.3-3.7c0.4-4.1,0.3-9.3-3.2-13.7 c-8-9.9-18.9-8.6-20.4-6.3c0.3,0.2,0.6,0.3,0.6,0.3s23.1,2,18.9,25.9C51.6,40.7,61.6,41.5,61.6,41.5z" class="st2"/></g><g><path d="M61.6,41.9C61.6,41.9,61.6,41.9,61.6,41.9c-0.3,0-7-0.5-9.1-3.2c-0.6-0.7-0.8-1.5-0.6-2.4 c1.2-7.1,0.2-12.9-3.2-17.3c-5.5-7.1-15.2-8.1-15.3-8.1c0,0-0.1,0-0.1,0c-0.1,0-1.5-0.7-2-2.1c-0.3-0.9-0.2-1.8,0.3-2.8 c0.6-1.2,2.6-2.1,5.3-2.4c5.8-0.6,14.4,1.7,21.2,10.1c5.4,6.7,6.2,13.9,5.9,18.9c-0.3,5.3-1.9,9-1.9,9.2 C61.9,41.8,61.8,41.9,61.6,41.9z M52.3,36.3l0.4,0.1c-0.1,0.6,0,1.2,0.4,1.7c1.6,2.1,6.8,2.7,8.1,2.9c0.4-1,1.5-4.3,1.7-8.6 c0.3-4.8-0.5-11.8-5.7-18.2C50.8,6,42.5,3.8,36.9,4.4c-2.7,0.3-4.2,1.2-4.6,1.9c-0.4,0.8-0.5,1.5-0.3,2.1 c0.3,0.9,1.2,1.5,1.5,1.6c0.5,0,2.8,0.3,5.7,1.4c3,1.1,7.1,3.1,10.1,7c3.5,4.6,4.7,10.7,3.4,18L52.3,36.3z" class="st2"/></g></g><g><path d="M61.6,41.5c0,0-2,2.2-5.8,1c-3.9-1.2-4.8-3.9-3.4-6.1S64.4,36.9,61.6,41.5z" class="st0"/></g><g class="st1"><path d="M61.6,41.5c0,0-2,2.2-5.8,1c-3.9-1.2-4.8-3.9-3.4-6.1S64.4,36.9,61.6,41.5z" class="st2"/></g><g><path d="M58,43.3c-0.7,0-1.5-0.1-2.4-0.4c-2.7-0.8-3.7-2.2-4.1-3.2c-0.4-1.1-0.3-2.4,0.4-3.5c0.5-0.9,1.9-1,2.9-1 c2.7,0.1,6.2,1.4,7.3,3.5c0.5,1,0.5,2.1-0.2,3.1c0,0,0,0,0,0.1C61.9,41.8,60.6,43.3,58,43.3z M54.6,36c-1,0-1.7,0.2-1.9,0.6 c-0.6,0.9-0.7,1.9-0.4,2.8c0.4,1.2,1.7,2.1,3.5,2.7c3.4,1,5.1-0.6,5.4-0.9c0.5-0.8,0.5-1.5,0.1-2.2c-0.9-1.7-4.1-2.9-6.6-3 C54.7,36,54.7,36,54.6,36z M61.6,41.5L61.6,41.5L61.6,41.5z" class="st2"/></g></g><g><g><path d="M38.9,8.5c-0.1-0.2-0.1-0.4-0.1-0.6c0-0.2,0-0.4,0.1-0.6c0.1-0.2,0.2-0.4,0.4-0.6c0.2-0.2,0.4-0.3,0.6-0.3 c-0.1,0.2-0.2,0.4-0.3,0.5c-0.1,0.2-0.2,0.3-0.2,0.5c-0.1,0.2-0.1,0.3-0.2,0.5C39,8.1,39,8.3,38.9,8.5z" class="st14"/></g><g><path d="M40.1,9.3c-0.1-0.3,0-0.6,0-0.9c0.1-0.3,0.1-0.6,0.3-0.8c0.1-0.3,0.3-0.5,0.6-0.7c0.1,0,0.1-0.1,0.2-0.1 c0.1,0,0.1-0.1,0.2-0.1c0.1,0,0.1-0.1,0.2-0.1c0.1,0,0.1,0,0.2-0.1c-0.2,0.2-0.4,0.4-0.6,0.6c-0.2,0.2-0.3,0.4-0.5,0.6 c-0.1,0.2-0.2,0.5-0.4,0.7C40.3,8.8,40.2,9,40.1,9.3z" class="st14"/></g></g><g><g><path d="M56.5,28c0.2-0.2,0.5-0.3,0.8-0.4c0.3-0.1,0.6-0.1,0.9-0.1c0.3,0,0.6,0.1,0.9,0.2c0.1,0,0.1,0.1,0.2,0.1 c0.1,0,0.1,0.1,0.2,0.1c0.1,0,0.1,0.1,0.2,0.2c0.1,0.1,0.1,0.1,0.2,0.2c-0.3-0.1-0.6-0.2-0.9-0.2c-0.3-0.1-0.6-0.1-0.8-0.1 c-0.3,0-0.6,0-0.9,0C57.1,27.9,56.8,28,56.5,28z" class="st14"/></g><g><path d="M56,30.1c0.4-0.2,0.8-0.3,1.2-0.4c0.4-0.1,0.9-0.1,1.3,0c0.1,0,0.2,0,0.3,0.1c0.1,0,0.2,0.1,0.3,0.1 c0.1,0,0.2,0.1,0.3,0.1l0.2,0.1l0.1,0.1c0.1,0.1,0.2,0.1,0.3,0.2c0.1,0.1,0.2,0.1,0.3,0.2c0,0,0.1,0.1,0.1,0.1l0.1,0.1 c0.1,0.1,0.1,0.2,0.2,0.2c-0.4-0.2-0.7-0.4-1.1-0.5l-0.1-0.1l-0.1,0c-0.1,0-0.2-0.1-0.3-0.1c-0.1,0-0.2,0-0.3-0.1 c-0.1,0-0.2,0-0.3-0.1C58.1,30,57.7,30,57.3,30C56.8,30,56.4,30,56,30.1z" class="st14"/></g></g></g><g><g><path d="M43.5,26.5c3.1-1.6,4.1-0.1,4.5,2.8C45.7,29.6,43.7,29,43.5,26.5z" class="st9"/></g><g><path d="M47.4,29.9c-1.3,0-2.4-0.3-3.2-1c-0.7-0.6-1-1.4-1.1-2.4c0-0.1,0.1-0.2,0.2-0.3c1.3-0.7,2.4-0.9,3.2-0.5 c1.2,0.6,1.7,2.1,2,3.8c0,0.1,0,0.2-0.1,0.3c-0.1,0.1-0.1,0.1-0.2,0.1C47.9,29.9,47.7,29.9,47.4,29.9z M43.8,26.7 c0.1,0.7,0.4,1.3,0.9,1.7c0.7,0.6,1.8,0.9,3.1,0.8c-0.3-1.3-0.7-2.5-1.5-2.9C45.7,26.1,44.9,26.2,43.8,26.7z" class="st10"/></g><g><path d="M43.4,26.2c0.4-0.1,0.7-0.1,1,0c0.3,0.1,0.6,0.2,0.9,0.4c0.3,0.2,0.5,0.4,0.8,0.6c0.2,0.2,0.4,0.5,0.6,0.7 c-0.5-0.4-1-0.7-1.6-0.9c-0.3-0.1-0.5-0.2-0.8-0.2c-0.3,0-0.5,0-0.8,0l0,0c-0.2,0-0.3-0.1-0.4-0.3C43.1,26.4,43.2,26.3,43.4,26.2 z" class="st11"/></g></g></g></svg>