<svg xmlns="http://www.w3.org/2000/svg" xmlns:v="https://vecta.io/nano" xmlns:xlink="http://www.w3.org/1999/xlink" id="Layer_1" x="0" y="0" version="1.1" viewBox="0 0 193 230" xml:space="preserve" style="enable-background:new 0 0 193 230"><style type="text/css">.st0{clip-path:url(#SVGID_2_)}.st1{opacity:.1}.st2{fill:#f7af41}.st3{opacity:.3}.st4{fill:#6c184e}.st5{fill:#ffce00}.st6{opacity:.65}.st7{fill:#fff}.st8{fill:#ee1822}.st9{fill:#bd1622}.st10{fill:#f6c547}.st11{fill:#48c75a}.st12{fill:#661a47}.st13{fill:#651b47}.st14{fill:none}.st15{fill:#eb984e}.st16{fill:#6d184e}</style><g><defs><rect id="SVGID_1_" width="192.2" height="230"/></defs><clipPath id="SVGID_2_"><use xlink:href="#SVGID_1_" style="overflow:visible"/></clipPath><g class="st0"><g class="st1"><g><g><g><path d="M0.1,190c0,0-4.6,14.7,29.7-6.3s120.1-37.1,160.6-31.9c40.6,5.1,11.9-91.3-18.2-106.7S48.1,96.3,0.1,190z" class="st2"/></g><g class="st3"><path d="M2.9,186.7c0,0-7.3,17.9,27-3.1s120.1-37.1,160.6-31.9c40.6,5.1,11.9-91.3-18.2-106.7S50.8,93,2.9,186.7z" class="st4"/></g><g><path d="M6.1,195.4c-1.8,0-3.2-0.4-4.3-1.3c-3.2-2.6-1.5-7.7-1.4-7.9c0-0.1,0.1-0.1,0.1-0.2 c22-43.1,50.5-74.6,70.4-93.4c25.3-23.9,52-41.5,73.3-48.4c12.3-3.9,22-4.2,28.9-0.6c10.9,5.6,22.3,21.7,30.5,43 c8,20.9,10.6,41.4,6.9,53.6c-2.7,8.8-8.5,13.3-16.9,13.3c-1,0-2.1-0.1-3.2-0.2C148.6,148,63.6,164.9,30.7,185 C19.3,191.9,11.2,195.4,6.1,195.4z M3.3,187.3c-0.3,0.9-0.8,3.4,0.5,4.4c1,0.8,5.8,2.5,25.3-9.4c16.3-10,44.9-19.4,78.5-26 c32.5-6.3,63.6-8.7,83.1-6.2c8.5,1.1,14.1-2.6,16.7-10.9c3.6-11.5,1-31.3-6.8-51.5c-7.8-20.3-18.9-36.1-29-41.3 c-6-3.1-15.2-2.8-26.5,0.8C124.3,53.9,98,71.2,73.1,94.8C53.3,113.5,25.1,144.7,3.3,187.3z" class="st4"/></g><g><g><path d="M174.5,63.4c-4.8-1.1,0.5-2.9-5.8-9.2c-6.3-6.3-13.3-1.1-13.3-1.1c1.1-2.3,1.4-4.5,0.2-6.2 c-5.4-7.6-19.7-2.8-24.9-9c-5.2-6.1-17.7-0.5-17.7-0.5s-74.5,44.5-95.8,95.7c-21.3,51.2-19.7,66.9-10.4,63.4 c9.3-3.5,16.1-11.5,22.9-5.2c6.8,6.3-1.7,18.1,6.5,23.9c4.6,3.3,15.2-2.6,10.1-11.3c-5.1-8.7-11.9-24.9-0.4-33.6 c11.5-8.7,37.8-13.3,36.3-1.1c-3.9,30.2,28.3,17.4,18.3,4.6c-8.5-10.8-0.7-29.9,18.2-19.4c15.9,8.8,13.8-3.2,29.5-8.3 c11.7-3.8,33.1-4,33.1-4c15.1-8.9,1.4-13.2,1.4-13.2s12.6-9.7,9.5-16.4c-3.2-6.7-1.6-17.3-1.4-28S179.2,64.5,174.5,63.4z" class="st5"/></g><g class="st3"><path d="M174.5,63.4c-4.8-1.1,0.5-2.9-5.8-9.2c-6.3-6.3-13.3-1.1-13.3-1.1c1.1-2.3,1.4-4.5,0.2-6.2 c-5.4-7.6-19.7-2.8-24.9-9c-5.2-6.1-17.7-0.5-17.7-0.5s-1.7,1-4.7,3c23.3,6.1,71.4,25.8,62.6,95.7c0,0-93,6.7-118.6,22.6 c-18.4,11.4-36.9,32.9-51.2,35.7c1,2.6,3.1,3.2,5.8,2.2c9.3-3.5,16.1-11.5,22.9-5.2s-1.7,18.1,6.5,23.9 c4.6,3.3,15.2-2.6,10.1-11.3c-5.1-8.7-11.9-24.9-0.4-33.6c11.5-8.7,37.8-13.3,36.3-1.1c-3.9,30.2,28.3,17.4,18.3,4.6 c-8.5-10.8-0.7-29.9,18.2-19.4c15.9,8.8,13.8-3.2,29.5-8.3c11.7-3.8,33.1-4,33.1-4c15.1-8.9,1.4-13.2,1.4-13.2 s12.6-9.7,9.5-16.4c-3.2-6.7-1.6-17.3-1.4-28S179.2,64.5,174.5,63.4z" class="st4"/></g><g class="st6"><g><path d="M178.5,65.8c0.4,0.1,0.9,0.3,1.4,0.5c-1.3-1-2.6-1.7-3.7-2.2C176.4,64.9,176.7,65.4,178.5,65.8z" class="st7"/></g><g><path d="M186.8,131.4C186.8,131.4,186.8,131.3,186.8,131.4c-0.1-0.1-0.1,0-0.1,0S186.7,131.4,186.8,131.4z" class="st7"/></g><g><path d="M159.4,55.5c0,0,4.1-3,8.8-1.6c-2.8-2.5-5.6-3-7.9-2.7C160.5,52.5,160.2,54,159.4,55.5z" class="st7"/></g><g><path d="M154.4,45.7c-4.7-4.5-13.6-3.2-19.6-5.1C138.9,45,148,43.4,154.4,45.7z" class="st7"/></g><g><path d="M112.9,37.5c0,0-33.2,19.8-61.6,48.2c-0.6,0.4-1.1,0.9-1.6,1.4c-0.3,0.3-0.6,0.7-0.9,1.1 c-13.2,13.6-25.1,29-31.8,45C-3,181.3-2.7,198,5,197c-2.7-6.2,0.8-24.7,16.1-61.4c5.8-13.8,15.4-27.2,26.4-39.3 c0.2,0.4,0.5,0.8,0.9,1.1c2.4,2.3,7,1.3,10.2-2.2c3.2-3.4,3.8-8.1,1.4-10.3c-0.2-0.2-0.5-0.4-0.8-0.6 C86.7,58,115,37.7,115,37.7s9.6-1.3,15.5,0.2C125.2,31.9,112.9,37.5,112.9,37.5z" class="st7"/></g></g><g><path d="M39.2,217.7c-1.5,0-2.9-0.4-4.1-1.2c-5-3.5-4.7-9-4.4-13.8c0.2-4,0.4-7.8-2.3-10.3 c-3.8-3.5-7.4-1.7-13.5,1.7c-2.4,1.4-4.9,2.8-7.7,3.8c-3.4,1.3-5.4,0.2-6.4-0.9c-7-7.2,4.2-39.1,14.9-64.6 C26.8,105.8,52.4,81,72,64.9c21.1-17.4,39.9-28.7,40.1-28.8c0.1,0,0.1-0.1,0.2-0.1c0.6-0.2,13.6-6,19.5,0.9 c2.1,2.4,6.1,2.8,10.5,3.3c5.3,0.6,11.2,1.2,14.5,5.8c0.8,1.2,1.2,2.5,1.1,4.1c3.3-1,7.8-1,11.8,3c3.8,3.8,3.9,6.3,4,7.8 c0,0.2,0,0.5,0,0.6c0.1,0.1,0.4,0.2,1.1,0.4l0,0c5.5,1.3,17.8,11.1,17.5,22.7c-0.1,2.4-0.2,4.7-0.3,7 c-0.4,7.9-0.8,15.4,1.5,20.3c2.9,6.1-4.2,13.4-7.9,16.7c1.8,1,4,2.7,4.2,5.3c0.4,3.2-2.2,6.4-7.8,9.7 c-0.2,0.1-0.5,0.2-0.8,0.2c-0.2,0-21.4,0.2-32.7,3.9c-5.6,1.8-8.8,4.6-11.6,7c-5.2,4.5-8.9,6.9-19.2,1.2 c-7.1-3.9-13.1-3.8-16.6,0.3c-3.7,4.3-3.5,11.7,0.4,16.7c2.9,3.7,3,8,0.3,11.5c-3.2,4.3-9.5,6.1-14.3,4.2 c-3.4-1.4-8.9-5.8-7.1-19.6c0.3-2-0.4-3.4-2-4.3c-6-3.5-22.9,0.2-31.7,6.9c-11,8.3-3.1,24.8,0.8,31.5c2.5,4.3,2,8.7-1.4,11.8 C44.2,216.7,41.6,217.7,39.2,217.7z M24.1,187.4c2.2,0,4.4,0.8,6.5,2.8c3.8,3.5,3.5,8.4,3.3,12.8c-0.3,4.5-0.5,8.5,3.1,11 c1.7,1.2,4.9,0.6,7.1-1.3c1.3-1.2,3.2-3.8,0.8-7.9c-4.4-7.4-13.1-25.8,0-35.6c9.1-6.9,27.5-11.6,35.2-7.1 c2.7,1.6,4,4.2,3.6,7.4c-1.1,8.7,0.7,14.4,5.2,16.2c3.5,1.4,8.2,0,10.6-3.1c1-1.4,2.4-4.2-0.3-7.7c-4.8-6.2-5-15.3-0.3-20.7 c4.5-5.3,12.2-5.7,20.6-1.1c8.9,4.9,11.1,3,15.6-0.9c2.9-2.5,6.4-5.5,12.7-7.6c11-3.6,30-4,33.2-4c5.4-3.3,6.1-5.4,5.9-6.4 c-0.2-1.9-3.4-3.4-4.5-3.8c-0.6-0.2-1-0.7-1.1-1.2c-0.1-0.6,0.1-1.2,0.6-1.5c3-2.3,11.1-10,9-14.5 c-2.6-5.6-2.2-13.5-1.8-21.8c0.1-2.3,0.2-4.6,0.3-6.9c0.2-9.6-10.6-18.5-15-19.5c-2.9-0.7-3.5-1.9-3.6-3.9 c-0.1-1.2-0.1-2.8-3.1-5.7c-5.3-5.2-11-1.1-11.2-1c-0.6,0.4-1.4,0.4-1.9-0.1c-0.6-0.5-0.7-1.2-0.4-1.9c1.4-3,0.6-4.1,0.3-4.5 c-2.5-3.5-7.2-4-12.3-4.5c-4.8-0.5-9.7-1-12.6-4.4c-3.6-4.2-12.5-1.6-15.8-0.1c-1.3,0.8-19.4,11.8-39.7,28.5 c-19.3,15.9-44.5,40.3-55.4,66.4c-7.8,18.7-13,33.8-15.4,44.6c-2.7,12.3-1,15.6-0.2,16.5c0.2,0.2,0.9,1,3.1,0.2 c2.6-1,5-2.3,7.3-3.6C16.9,189.4,20.5,187.4,24.1,187.4z" class="st4"/></g></g><g><path d="M124.1,141.1c9-1.6,18.1-3.1,27.2-4.3c4.5-0.6,9.1-1.1,13.7-1.5c4.6-0.4,9.2-0.7,13.8-0.8 c0.8,0,1.4,0.6,1.4,1.4c0,0.8-0.6,1.4-1.4,1.4c0,0,0,0-0.1,0h0c-4.5-0.1-9.1-0.1-13.6,0.1c-4.6,0.2-9.1,0.5-13.7,0.8 C142.3,138.9,133.2,140,124.1,141.1z" class="st4"/></g></g><g class="st3"><g><path d="M153.2,44.9c0,0,0,0,0.1-0.1c0,0,0,0-0.1,0C153.3,44.8,153.2,44.8,153.2,44.9z" class="st4"/></g><g><path d="M188.6,76.3c-0.3,10.7-1.8,21.3,1.4,28c0.2,0.4,0.3,0.7,0.4,1.1c-0.6-6.1,0.2-13.5,0.4-20.9 c0.1-3-0.8-5.8-2.1-8.4C188.6,76.2,188.6,76.2,188.6,76.3z" class="st4"/></g><g><path d="M190.5,106.6c0.1,6.4-10,14.2-10,14.2s5.3,1.7,5.6,5.1c3.5-3.4,8-9,6-13.3 C191.2,110.8,190.7,108.8,190.5,106.6z" class="st4"/></g></g><g><g><ellipse cx="123" cy="69.2" class="st8" rx="23" ry="18.3" transform="matrix(0.8397 -0.543 0.543 0.8397 -17.8775 77.8782)"/></g><g class="st6"><path d="M126.3,87.3c-11.3,2.9-21.1-2.7-22.1-12.6c-0.9-9.9,7.4-20.3,18.7-23.2c8.3-2.1,15.8,0.3,19.6,5.8 c-3.8-6.3-12.1-9.4-21.4-7c-11.9,3.1-20.8,14.1-19.8,24.6c1,10.5,11.5,16.5,23.4,13.4c3.2-0.8,6.1-2.2,8.7-4 C131.3,85.6,128.9,86.6,126.3,87.3z" class="st7"/></g><g><path d="M124.8,54.5l2.6,27.8c7.3-3.2,12.3-10.4,11.7-17.3C138.4,58.2,132.3,53.9,124.8,54.5z" class="st9"/></g><g><path d="M118.3,56.3c-7.1,3.3-12,10.3-11.4,17.1c0.6,6.8,6.6,11,14,10.5L118.3,56.3z" class="st9"/></g><g><path d="M118.3,56.3c-7.1,3.3-12,10.3-11.4,17.1c0.6,6.8,6.6,11,14,10.5L118.3,56.3z" class="st9"/></g><g><path d="M119.3,65.6c-2.3,1.1-3.9,3.4-3.7,5.6c0.2,2.2,2.2,3.6,4.6,3.5L119.3,65.6z" class="st8"/></g><g><path d="M125.5,63.9c2.4-0.2,4.4,1.2,4.6,3.5c0.2,2.2-1.4,4.5-3.7,5.6L125.5,63.9z" class="st8"/></g><g><path d="M118.6,90.4c-4.3,0-8.4-1.2-11.7-3.5c-4-2.8-6.4-7-6.9-12c-1-11.1,8.3-22.8,20.8-26 c6.7-1.7,13.3-0.8,18.2,2.6c4,2.8,6.4,7,6.9,12c1,11.1-8.3,22.8-20.8,26C122.9,90.1,120.7,90.4,118.6,90.4z M127.4,50.8 c-1.9,0-3.9,0.3-5.9,0.8c-11.3,2.9-19.8,13.3-18.8,23.2c0.4,4.1,2.4,7.7,5.8,10c4.2,2.9,10,3.7,16,2.2 c11.3-2.9,19.8-13.3,18.8-23.2c-0.4-4.1-2.4-7.7-5.8-10C134.7,51.8,131.2,50.8,127.4,50.8z" class="st4"/></g><g><g><path d="M115.8,77.9c0.2,0.4,0.3,0.8,0.3,1.2c0.1,0.4,0.2,0.8,0.1,1.1c0,0.5-0.5,0.9-1,0.9 c-0.5,0-0.9-0.5-0.9-1c0-0.1,0-0.2,0.1-0.3c0.1-0.3,0.3-0.7,0.6-1C115.2,78.5,115.5,78.2,115.8,77.9z" class="st10"/></g><g><path d="M112.7,75.1c-0.1,0.4-0.2,0.8-0.3,1.2c-0.1,0.4-0.2,0.7-0.4,1.1c-0.3,0.4-0.9,0.6-1.3,0.3 c-0.4-0.3-0.6-0.9-0.3-1.3c0-0.1,0.1-0.1,0.2-0.2c0.3-0.2,0.6-0.4,1-0.6C111.9,75.3,112.3,75.2,112.7,75.1z" class="st10"/></g><g><path d="M111.9,70.6c-0.2,0.3-0.5,0.6-0.8,0.9c-0.3,0.3-0.5,0.5-0.8,0.6c-0.5,0.2-1.1,0-1.3-0.5 c-0.2-0.5,0-1.1,0.5-1.3c0.1,0,0.2-0.1,0.3-0.1c0.3,0,0.7,0,1.1,0.1C111.1,70.4,111.5,70.5,111.9,70.6z" class="st10"/></g><g><path d="M113.6,66c-0.4,0.1-0.7,0.2-1.1,0.2c-0.3,0.1-0.7,0.1-1,0c-0.5-0.1-0.9-0.6-0.7-1.2 c0.1-0.5,0.6-0.9,1.2-0.7c0.1,0,0.2,0.1,0.3,0.1c0.3,0.2,0.5,0.4,0.7,0.7C113.2,65.4,113.4,65.7,113.6,66z" class="st10"/></g><g><path d="M117.3,63c-0.4-0.2-0.7-0.4-1-0.6c-0.3-0.2-0.6-0.4-0.8-0.7c-0.3-0.4-0.2-1,0.2-1.4 c0.4-0.3,1-0.2,1.4,0.2c0.1,0.1,0.1,0.2,0.1,0.3c0.1,0.3,0.1,0.7,0.1,1C117.3,62.2,117.3,62.6,117.3,63z" class="st10"/></g></g><g><g><path d="M131.4,73.8c0.3,0.2,0.7,0.4,0.9,0.7c0.3,0.2,0.6,0.5,0.7,0.7c0.3,0.5,0.2,1-0.3,1.3s-1,0.2-1.3-0.3 c-0.1-0.1-0.1-0.2-0.1-0.3c-0.1-0.3-0.1-0.7-0.1-1C131.3,74.6,131.3,74.2,131.4,73.8z" class="st10"/></g><g><path d="M133.8,69.5c0.4-0.1,0.7-0.1,1.1-0.1c0.4,0,0.7,0,1,0.1c0.5,0.2,0.8,0.7,0.6,1.2 c-0.2,0.5-0.7,0.8-1.2,0.6c-0.1,0-0.2-0.1-0.3-0.1c-0.2-0.2-0.5-0.5-0.6-0.7C134.1,70.2,133.9,69.9,133.8,69.5z" class="st10"/></g><g><path d="M133.7,64.8c0.3-0.3,0.5-0.5,0.8-0.8c0.3-0.2,0.6-0.4,0.9-0.6c0.5-0.2,1.1,0.1,1.3,0.6 c0.2,0.5-0.1,1.1-0.6,1.3c-0.1,0-0.2,0.1-0.3,0.1c-0.3,0-0.7,0-1-0.2C134.4,65.1,134.1,65,133.7,64.8z" class="st10"/></g><g><path d="M131.3,61.3c0.1-0.4,0.2-0.8,0.3-1.2c0.1-0.4,0.3-0.7,0.5-1c0.3-0.4,0.9-0.5,1.4-0.2 c0.4,0.3,0.5,0.9,0.2,1.4c-0.1,0.1-0.1,0.1-0.2,0.2c-0.3,0.2-0.6,0.4-1,0.5C132.1,61.1,131.7,61.2,131.3,61.3z" class="st10"/></g><g><path d="M127.3,60.1c-0.1-0.4-0.2-0.8-0.3-1.2c-0.1-0.4-0.1-0.8-0.1-1.1c0.1-0.5,0.5-0.9,1.1-0.8 c0.5,0.1,0.9,0.5,0.8,1.1c0,0.1,0,0.2-0.1,0.3c-0.1,0.3-0.4,0.6-0.6,0.9C127.9,59.5,127.6,59.8,127.3,60.1z" class="st10"/></g></g><g><path d="M127.4,83.6c-0.2,0-0.5-0.1-0.7-0.2c-0.4-0.2-0.6-0.6-0.7-1l-2.6-27.8c0-0.4,0.1-0.7,0.3-1 c0.2-0.3,0.6-0.4,0.9-0.5c8.4-0.7,15,4.2,15.8,11.7c0.7,7.3-4.6,15.1-12.5,18.6C127.8,83.6,127.6,83.6,127.4,83.6z M126.3,55.8l2.3,24.4c5.9-3.3,9.7-9.4,9.2-15.1C137.2,59.6,132.5,55.8,126.3,55.8C126.3,55.8,126.3,55.8,126.3,55.8z" class="st9"/></g><g><path d="M119.7,85.3c-7.6,0-13.5-4.8-14.1-11.8c-0.7-7.3,4.3-14.9,12.1-18.4c0.4-0.2,0.9-0.2,1.2,0.1 c0.4,0.2,0.6,0.6,0.7,1l2.6,27.6c0,0.4-0.1,0.7-0.3,1c-0.2,0.3-0.6,0.4-0.9,0.5C120.5,85.3,120.1,85.3,119.7,85.3z M117.1,58.4c-5.7,3.3-9.4,9.3-8.9,14.9c0.5,5.5,5,9.2,11.2,9.4L117.1,58.4z" class="st9"/></g></g><g><g><ellipse cx="75.1" cy="118.7" class="st8" rx="21.5" ry="17.1" transform="matrix(0.8397 -0.543 0.543 0.8397 -52.4214 59.8201)"/></g><g class="st6"><path d="M78.3,135.6c-10.5,2.7-19.8-2.6-20.6-11.8s7-19,17.5-21.7c7.7-2,14.8,0.3,18.3,5.4 c-3.5-5.9-11.3-8.8-20-6.5c-11.2,2.9-19.5,13.2-18.6,23c0.9,9.8,10.7,15.4,21.9,12.5c2.9-0.8,5.7-2,8.1-3.7 C82.9,134,80.6,135,78.3,135.6z" class="st7"/></g><g><path d="M76.8,105l2.4,26c6.8-3,11.5-9.7,10.9-16.1C89.6,108.4,83.8,104.4,76.8,105z" class="st9"/></g><g><path d="M70.7,106.6c-6.7,3-11.2,9.7-10.6,16c0.6,6.3,6.2,10.3,13.1,9.9L70.7,106.6z" class="st9"/></g><g><path d="M70.7,106.6c-6.7,3-11.2,9.7-10.6,16c0.6,6.3,6.2,10.3,13.1,9.9L70.7,106.6z" class="st9"/></g><g><path d="M71.6,115.3c-2.2,1-3.7,3.2-3.5,5.2c0.2,2.1,2,3.4,4.3,3.2L71.6,115.3z" class="st8"/></g><g><path d="M77.5,113.8c2.3-0.2,4.1,1.2,4.3,3.2c0.2,2.1-1.3,4.2-3.5,5.2L77.5,113.8z" class="st8"/></g><g><path d="M71,138.6c-4.1,0-7.9-1.1-11-3.3c-3.8-2.6-6.1-6.6-6.5-11.3c-1-10.4,7.8-21.4,19.6-24.5 c6.3-1.6,12.6-0.7,17.1,2.5c3.8,2.6,6.1,6.6,6.5,11.3l0,0c1,10.4-7.8,21.4-19.6,24.5C75.1,138.4,73,138.6,71,138.6z M79.3,101.6c-1.8,0-3.6,0.2-5.5,0.7c-10.5,2.7-18.4,12.4-17.5,21.5c0.4,3.8,2.3,7.1,5.3,9.3c3.9,2.7,9.3,3.5,14.8,2 c10.5-2.7,18.4-12.4,17.5-21.5l0,0c-0.4-3.8-2.3-7.1-5.3-9.3C86,102.5,82.8,101.6,79.3,101.6z" class="st4"/></g><g><g><path d="M70.3,127.2c0.2,0.3,0.4,0.6,0.5,0.9c0.2,0.3,0.3,0.6,0.4,0.9c0.1,0.4-0.2,0.8-0.6,0.9 c-0.4,0.1-0.8-0.2-0.9-0.6c0-0.1,0-0.1,0-0.2c0-0.3,0.1-0.7,0.2-1C70,127.9,70.1,127.5,70.3,127.2z" class="st10"/></g><g><path d="M66.7,125.8c0,0.4,0,0.8,0,1.1c0,0.4-0.1,0.7-0.2,1c-0.2,0.4-0.6,0.6-1,0.5c-0.4-0.2-0.6-0.6-0.5-1 c0-0.1,0.1-0.1,0.1-0.2c0.2-0.3,0.5-0.5,0.7-0.8C66.1,126.2,66.4,126,66.7,125.8z" class="st10"/></g><g><path d="M64.8,122.2c-0.2,0.3-0.4,0.6-0.5,0.9s-0.4,0.6-0.6,0.8c-0.3,0.3-0.8,0.2-1.1-0.1 c-0.3-0.3-0.2-0.8,0.1-1.1c0,0,0.1-0.1,0.2-0.1c0.3-0.1,0.6-0.2,1-0.3C64.1,122.3,64.5,122.2,64.8,122.2z" class="st10"/></g><g><path d="M65.3,117.8c-0.3,0.2-0.6,0.3-0.9,0.5c-0.3,0.1-0.6,0.2-0.9,0.3c-0.4,0-0.8-0.3-0.9-0.7 s0.3-0.8,0.7-0.9c0.1,0,0.1,0,0.2,0c0.3,0,0.6,0.2,0.9,0.3C64.7,117.4,65,117.6,65.3,117.8z" class="st10"/></g><g><path d="M67.9,114c-0.3,0-0.7-0.1-1-0.2c-0.3-0.1-0.6-0.2-0.8-0.4c-0.4-0.2-0.5-0.7-0.2-1.1 c0.2-0.4,0.7-0.5,1.1-0.2c0.1,0,0.1,0.1,0.2,0.1c0.2,0.2,0.3,0.5,0.4,0.8C67.7,113.4,67.8,113.7,67.9,114z" class="st10"/></g></g><g><g><path d="M83,123c0.3,0.2,0.6,0.4,0.8,0.6c0.3,0.2,0.5,0.5,0.7,0.7c0.2,0.4,0.1,0.9-0.3,1.1 c-0.4,0.2-0.9,0.1-1.1-0.3c0-0.1-0.1-0.1-0.1-0.2c-0.1-0.3-0.1-0.6-0.1-1C82.9,123.7,83,123.3,83,123z" class="st10"/></g><g><path d="M85.2,119c0.3,0,0.7,0,1,0c0.3,0,0.6,0,0.9,0.1c0.4,0.1,0.6,0.6,0.5,1c-0.1,0.4-0.6,0.6-1,0.5 c-0.1,0-0.1-0.1-0.2-0.1c-0.2-0.2-0.4-0.4-0.6-0.7C85.5,119.6,85.4,119.3,85.2,119z" class="st10"/></g><g><path d="M85.2,114.6c0.2-0.3,0.5-0.5,0.8-0.7c0.3-0.2,0.5-0.4,0.8-0.5c0.4-0.1,0.9,0.1,1,0.5 c0.1,0.4-0.1,0.9-0.5,1c-0.1,0-0.1,0-0.2,0c-0.3,0-0.6,0-0.9-0.1C85.8,114.8,85.5,114.7,85.2,114.6z" class="st10"/></g><g><path d="M82.9,111.3c0.1-0.4,0.2-0.7,0.3-1c0.1-0.3,0.3-0.7,0.5-0.9c0.3-0.3,0.8-0.4,1.1-0.2 c0.3,0.3,0.4,0.8,0.2,1.1c0,0.1-0.1,0.1-0.1,0.1c-0.3,0.2-0.6,0.4-0.9,0.5C83.6,111,83.2,111.2,82.9,111.3z" class="st10"/></g><g><path d="M79.2,110.2c-0.1-0.4-0.2-0.7-0.2-1.1c-0.1-0.4-0.1-0.7,0-1.1c0.1-0.4,0.5-0.7,0.9-0.7 c0.4,0.1,0.7,0.5,0.7,0.9c0,0.1,0,0.1,0,0.2c-0.1,0.3-0.3,0.6-0.5,0.9C79.7,109.6,79.4,109.9,79.2,110.2z" class="st10"/></g></g><g><path d="M79.2,132.3c-0.2,0-0.5-0.1-0.7-0.2c-0.4-0.2-0.6-0.6-0.7-1.1l-2.4-26c0-0.4,0.1-0.7,0.3-1 c0.2-0.3,0.6-0.5,0.9-0.5c7.9-0.7,14.2,4,14.9,11.1c0.6,6.9-4.3,14.3-11.8,17.5C79.6,132.3,79.4,132.3,79.2,132.3z M78.3,106.3l2.1,22.5c5.4-3.1,8.9-8.7,8.4-13.9C88.3,109.8,84,106.4,78.3,106.3z" class="st9"/></g><g><path d="M72.1,133.9c-7.2,0-12.7-4.5-13.4-11.1c-0.6-6.9,4.1-14,11.4-17.4c0.4-0.2,0.9-0.2,1.3,0.1 c0.4,0.2,0.6,0.6,0.7,1.1l2.4,25.9c0,0.4-0.1,0.7-0.3,1c-0.2,0.3-0.6,0.5-1,0.5C72.8,133.9,72.4,133.9,72.1,133.9z M69.5,108.8c-5.2,3.1-8.6,8.6-8.1,13.7c0.5,5.1,4.6,8.5,10.2,8.6L69.5,108.8z" class="st9"/></g></g><g><g><g><path d="M46.8,115.9c-14.6,0.6-14.9,8-10.2,19.4C45.4,131.7,51.2,125.2,46.8,115.9z" class="st11"/></g><g><path d="M36.2,137.9c-0.2,0-0.4,0-0.5-0.1c-0.4-0.2-0.6-0.5-0.8-0.8c-2.2-6.5-3.9-13.2-0.7-17.6 c2.2-3.1,6.3-4.7,12.6-4.8c0.5,0,1,0.3,1.3,0.8c1.8,3.7,2.2,7.3,0.9,10.8c-1.6,4.7-6,8.8-12.2,11.7 C36.6,137.8,36.4,137.9,36.2,137.9z M46,117.3c-4.9,0.2-8,1.4-9.5,3.6c-2.2,3.1-1.1,8.5,0.6,13.6c4.7-2.5,8.1-5.9,9.4-9.4 C47.3,122.6,47.1,120,46,117.3z" class="st12"/></g><g><path d="M47.3,117.2c-0.9,0.4-1.9,1-2.7,1.7c-0.9,0.7-1.7,1.5-2.5,2.5c-1.5,1.9-2.8,4-3.8,6.4 c0-1.3,0.2-2.6,0.5-3.9c0.3-1.3,0.8-2.5,1.4-3.7c0.6-1.2,1.4-2.4,2.4-3.3c1-1,2.3-1.8,3.7-2.2c0.7-0.2,1.5,0.3,1.7,1 C48.3,116.3,47.9,116.9,47.3,117.2L47.3,117.2z" class="st13"/></g></g><g><g><path d="M73.2,76.1c12.9-6.8,16.9-0.6,18.6,11.6C82.4,89,74.2,86.3,73.2,76.1z" class="st11"/></g><g><path d="M89.7,90.1c-5.5,0-10.1-1.4-13.3-4.1c-2.8-2.4-4.3-5.7-4.6-9.8c0-0.5,0.2-1,0.7-1.3 c5.5-3.1,9.9-3.8,13.3-2.2c4.9,2.3,6.9,8.8,8.2,15.6c0.1,0.4,0,0.8-0.2,1.1c-0.2,0.3-0.6,0.5-1,0.5 C91.8,90.1,90.7,90.1,89.7,90.1z M74.7,76.9c0.3,2.9,1.5,5.3,3.6,7c2.9,2.4,7.5,3.7,12.8,3.4c-1.1-5.3-2.9-10.5-6.3-12.1 C82.3,74.1,79,74.6,74.7,76.9z" class="st12"/></g><g><path d="M73,74.8c1.5-0.4,3-0.3,4.3,0c1.4,0.3,2.6,1,3.8,1.7c1.1,0.7,2.2,1.6,3.1,2.5c0.9,0.9,1.8,2,2.4,3.1 c-2.1-1.5-4.3-2.7-6.5-3.6c-1.1-0.4-2.3-0.7-3.4-0.9c-1.1-0.2-2.2-0.2-3.2-0.1l0,0C72.7,77.5,72,77,72,76.2 C71.9,75.5,72.3,74.9,73,74.8z" class="st13"/></g></g><g><g><path d="M130.7,122c-10-9.3-15.1-4.6-19.6,6C119.2,131.4,127.3,131,130.7,122z" class="st11"/></g><g><path d="M118.7,131.5c-2.8,0-5.9-0.6-9.1-1.8c-0.3-0.1-0.6-0.4-0.7-0.7c-0.1-0.3-0.1-0.7,0-1 c2.9-5.8,6.2-11.2,11.2-12.1c3.5-0.6,7.2,1.1,11.5,5.2c0.4,0.3,0.5,0.9,0.3,1.3c-1.2,3.6-3.4,6.2-6.5,7.7 C123.4,131,121.2,131.5,118.7,131.5z M111.9,127.8c4.8,1.5,9.2,1.5,12.4,0c2.2-1.1,3.9-2.9,4.9-5.4c-3.4-3.1-6.2-4.4-8.7-3.9 C117,119,114.2,123.3,111.9,127.8z" class="st12"/></g><g><path d="M130.1,123.1c-0.9-0.3-1.9-0.6-2.9-0.7c-1-0.1-2.1-0.1-3.2,0c-2.2,0.2-4.5,0.8-6.8,1.7 c0.9-0.9,1.9-1.6,2.9-2.2c1.1-0.6,2.2-1.1,3.4-1.5c1.2-0.4,2.5-0.6,3.8-0.6c1.3,0,2.7,0.3,3.9,1c0.6,0.4,0.8,1.2,0.4,1.8 C131.4,123.2,130.7,123.4,130.1,123.1L130.1,123.1z" class="st13"/></g></g><g><g><path d="M16.6,145.4c0.8,0,1.5,0.1,2.3,0.2c0.8,0.1,1.5,0.2,2.3,0.3c0.8,0.1,1.5,0.3,2.3,0.5 c0.8,0.2,1.6,0.5,2.5,1l0.1,0.1c0.9,0.6,1.2,1.7,0.6,2.6c-0.6,0.9-1.7,1.2-2.6,0.6c-0.1-0.1-0.2-0.1-0.3-0.2 c-0.3-0.3-0.9-0.6-1.5-0.9c-0.6-0.3-1.2-0.5-1.9-0.7c-0.7-0.2-1.4-0.4-2-0.6c-0.7-0.2-1.4-0.4-2.1-0.5l0,0 c-0.7-0.1-1.1-0.8-1-1.5C15.4,145.8,16,145.4,16.6,145.4z" class="st11"/></g><g class="st3"><path d="M16.6,145.4c0.8,0,1.5,0.1,2.3,0.2c0.8,0.1,1.5,0.2,2.3,0.3c0.8,0.1,1.5,0.3,2.3,0.5 c0.8,0.2,1.6,0.5,2.5,1l0.1,0.1c0.9,0.6,1.2,1.7,0.6,2.6c-0.6,0.9-1.7,1.2-2.6,0.6c-0.1-0.1-0.2-0.1-0.3-0.2 c-0.3-0.3-0.9-0.6-1.5-0.9c-0.6-0.3-1.2-0.5-1.9-0.7c-0.7-0.2-1.4-0.4-2-0.6c-0.7-0.2-1.4-0.4-2.1-0.5l0,0 c-0.7-0.1-1.1-0.8-1-1.5C15.4,145.8,16,145.4,16.6,145.4z" class="st4"/></g><g><path d="M25.1,152.2c-0.5,0-1.1-0.1-1.6-0.4c-0.2-0.1-0.3-0.2-0.5-0.3c-0.1-0.1-0.4-0.3-1.2-0.7 c-0.5-0.2-1.1-0.5-1.8-0.7c-0.6-0.2-1.3-0.4-2-0.6c-0.7-0.2-1.4-0.3-2-0.5c-0.6-0.1-1.2-0.5-1.5-1s-0.5-1.2-0.3-1.8 c0.2-1.1,1.3-1.9,2.4-1.9l0,0c0.8,0,1.5,0.1,2.4,0.2c0.8,0.1,1.6,0.2,2.4,0.3c0.9,0.2,1.7,0.3,2.5,0.6 c0.9,0.3,1.8,0.6,2.8,1.2l0.1,0.1c1.4,0.9,1.9,2.7,1,4.2C27.1,151.7,26.1,152.2,25.1,152.2z M16.5,146.5 c-0.1,0-0.1,0-0.2,0.1c0,0.1,0,0.1,0,0.1s0,0.1,0.1,0.1c0.7,0.1,1.4,0.3,2.2,0.5c0.7,0.2,1.4,0.4,2.1,0.6 c0.8,0.3,1.4,0.5,2,0.8c0.8,0.4,1.4,0.7,1.8,1.1c0,0,0.1,0.1,0.1,0.1c0.4,0.2,0.9,0.1,1.1-0.3c0.2-0.4,0.1-0.9-0.3-1.1 l-0.1-0.1c-0.7-0.5-1.4-0.7-2.2-0.9c-0.7-0.2-1.4-0.4-2.2-0.5c-0.7-0.1-1.5-0.2-2.2-0.3C17.9,146.6,17.2,146.6,16.5,146.5 C16.5,146.5,16.5,146.5,16.5,146.5z" class="st12"/></g><g><g><path d="M18.3,146.9c-4.4-16.3-23.1-3-23.1-3S9.9,161.5,18.3,146.9z" class="st11"/></g><g class="st6"><path d="M18.2,147.1c0-0.1,0.1-0.1,0.1-0.2c-4.4-16.3-23.1-3-23.1-3s0.5,0.6,1.4,1.5 C0.1,143.2,13.6,135.5,18.2,147.1z" class="st7"/></g><g><path d="M9.5,153.8c-8.1,0-16.2-8.8-16.6-9.2c-0.2-0.2-0.3-0.6-0.3-0.9c0-0.3,0.2-0.6,0.5-0.8 c0.5-0.3,11.6-7.5,19.5-4.5c3.3,1.2,5.5,4,6.7,8.2c0.1,0.3,0,0.6-0.1,0.8c-2.2,3.8-5.1,5.9-8.6,6.3 C10.3,153.8,9.9,153.8,9.5,153.8z M-4.4,144.1c2.4,2.3,9,8.1,14.9,7.4c2.7-0.3,4.9-1.9,6.7-4.8c-1-3.2-2.7-5.3-5.2-6.3 C6.4,138.4-1.5,142.4-4.4,144.1z" class="st12"/></g><g><g><line x1="18.3" x2="5.8" y1="146.9" y2="145.3" class="st14"/></g><g><path d="M18.2,148c-1.1,0-2.1-0.2-3.1-0.4s-2.1-0.4-3.1-0.6c-2.1-0.5-4.1-1-6.2-1.7c2.1-0.1,4.3-0.1,6.4-0.1 c1.1,0,2.1,0.1,3.2,0.2c1.1,0.1,2.1,0.2,3.1,0.4c0.6,0.1,1,0.7,0.8,1.3C19.2,147.7,18.7,148,18.2,148z" class="st13"/></g></g></g><g><path d="M9.1,153.8c1.4-1.3,2.8-2.5,4.3-3.7c1.4-1.2,2.9-2.4,4.4-3.6c0.5-0.4,1.2-0.3,1.6,0.2 c0.4,0.5,0.3,1.2-0.2,1.6c-0.1,0-0.1,0.1-0.2,0.1l0,0c-1.7,0.8-3.3,1.7-5,2.7C12.4,151.9,10.8,152.8,9.1,153.8z" class="st12"/></g><g><g><path d="M18.4,147.1c0,0-9.5,0.6-11.7,17C6.7,164.1,26.1,158,18.4,147.1z" class="st11"/></g><g class="st6"><path d="M9.4,162.6c1.8-13.5,9.5-14.2,9.7-14.2c-0.2-0.4-0.5-0.8-0.8-1.3c0,0-9.5,0.6-11.7,17 c0,0,4.2-1.3,7.9-3.8C11.9,161.8,9.4,162.6,9.4,162.6z" class="st7"/></g><g><path d="M6.7,165.2c-0.3,0-0.5-0.1-0.7-0.3c-0.3-0.2-0.4-0.6-0.4-1c2.3-17.1,12.3-17.9,12.7-18 c0.4,0,0.7,0.2,1,0.5c2,2.7,2.5,5.5,1.6,8.1C18.6,161.4,7.5,165,7,165.2C6.9,165.2,6.8,165.2,6.7,165.2z M17.9,148.3 c-1.9,0.4-7.7,2.7-9.8,14.1c3.1-1.2,9.3-4.2,10.7-8.5C19.4,152.1,19.1,150.3,17.9,148.3z" class="st12"/></g><g><path d="M13,154.3c0.7-1.3,1.4-2.7,2.2-4c0.7-1.3,1.5-2.6,2.4-3.9c0.3-0.5,1-0.6,1.5-0.3 c0.5,0.3,0.6,1,0.3,1.5c0,0.1-0.1,0.1-0.2,0.2c-1.1,1-2.1,2-3.1,3.1C15,152,14,153.2,13,154.3z" class="st12"/></g></g><g><g><path d="M18.3,147.1c0,0-8.8-3.5-5.8-19.8C12.5,127.3,29,139.2,18.3,147.1z" class="st11"/></g><g class="st6"><path d="M15,129.4c-1.5-1.3-2.6-2.1-2.6-2.1c-3,16.3,5.8,19.8,5.8,19.8c0.1-0.1,0.3-0.2,0.4-0.3 C16.9,145.5,12.3,140.9,15,129.4z" class="st7"/></g><g><path d="M18.3,148.2c-0.1,0-0.3,0-0.4-0.1c-0.4-0.2-9.7-4-6.5-21c0.1-0.4,0.3-0.7,0.7-0.8 c0.3-0.1,0.7-0.1,1.1,0.1c0.4,0.3,9.8,7.1,9.9,14.3c0,2.8-1.3,5.2-4,7.2C18.8,148.1,18.5,148.2,18.3,148.2z M13.2,129.3 c-1.6,11.5,3.2,15.5,4.9,16.4c1.8-1.5,2.6-3.1,2.6-5C20.8,136.2,15.8,131.4,13.2,129.3z" class="st12"/></g><g><path d="M15.4,138.6c0.6,1.4,1.2,2.7,1.9,4.1c0.6,1.3,1.3,2.7,2,3.9c0.3,0.5,0.1,1.2-0.4,1.5 c-0.5,0.3-1.2,0.1-1.5-0.4c0-0.1-0.1-0.2-0.1-0.3c-0.4-1.5-0.7-3-1-4.5C15.9,141.6,15.7,140.1,15.4,138.6z" class="st12"/></g></g></g></g><g><path d="M1.5,191.6c0,0.1,0.1,0.1,0.1,0.1c0,0,0.1,0.1,0.2,0.1c0.2,0.1,0.6,0.1,1.1,0c0.9-0.1,1.8-0.5,2.7-0.8 c1.8-0.8,3.7-1.8,5.4-2.9c3.5-2.2,7-4.7,10.3-7.2c3.3-2.6,6.6-5.3,9.8-8c0.8-0.7,1.6-1.4,2.4-2.1c0.8-0.7,1.5-1.4,2.4-2.1 c0.4-0.4,0.8-0.7,1.2-1.1l1.3-1L39,166l0.6-0.5l1.3-1c7-5,14.8-8.7,22.8-11.5c4-1.4,8.1-2.7,12.2-3.7c4.1-1,8.3-1.9,12.5-2.5 c-8.3,1.7-16.5,4.1-24.3,7.2c-3.9,1.5-7.8,3.3-11.5,5.2c-3.7,2-7.3,4.2-10.7,6.7l-1.2,1l-0.6,0.5l-0.6,0.5l-1.2,1 c-0.4,0.3-0.8,0.7-1.2,1.1c-0.8,0.7-1.5,1.5-2.3,2.2c-0.8,0.7-1.6,1.5-2.3,2.2c-3.1,2.9-6.4,5.7-9.7,8.4 c-3.3,2.7-6.7,5.3-10.4,7.6c-1.8,1.2-3.7,2.3-5.7,3.2c-1,0.4-2.1,0.9-3.3,1.1c-0.6,0.1-1.3,0.2-2.1,0c-0.4-0.1-0.8-0.2-1.2-0.5 c-0.4-0.3-0.7-0.6-0.9-1c-0.4-0.7-0.2-1.5,0.5-1.9C0.3,190.7,1.1,190.9,1.5,191.6L1.5,191.6z" class="st4"/></g><g><g class="st3"><ellipse cx="161.5" cy="126.5" class="st4" rx="2.2" ry="1.6" transform="matrix(0.968 -0.2508 0.2508 0.968 -26.5665 44.5554)"/></g><g class="st3"><ellipse cx="151.4" cy="120.9" class="st4" rx="3.6" ry="2.6" transform="matrix(0.968 -0.2508 0.2508 0.968 -25.4785 41.8291)"/></g><g class="st3"><ellipse cx="128.5" cy="105.6" class="st4" rx="2.8" ry="2.2" transform="matrix(0.9355 -0.3532 0.3532 0.9355 -29.008 52.1813)"/></g><g class="st3"><ellipse cx="154.9" cy="78.8" class="st4" rx="1.9" ry="1.5" transform="matrix(0.9355 -0.3532 0.3532 0.9355 -17.8548 59.8096)"/></g><g class="st3"><ellipse cx="158.4" cy="98.9" class="st4" rx="2.2" ry="1.7" transform="matrix(0.9355 -0.3532 0.3532 0.9355 -24.7148 62.3333)"/></g><g class="st3"><path d="M137.6,92c0.3,0.7-0.3,1.6-1.2,2c-0.9,0.4-1.9,0-2.2-0.7c-0.3-0.7,0.3-1.6,1.2-2 C136.3,90.9,137.3,91.2,137.6,92z" class="st4"/></g><g class="st3"><ellipse cx="105.1" cy="117.5" class="st4" rx="2" ry="1.6" transform="matrix(0.8111 -0.5849 0.5849 0.8111 -48.8911 83.655)"/></g><g class="st3"><ellipse cx="109.5" cy="98.5" class="st4" rx="2" ry="1.6" transform="matrix(0.8111 -0.5849 0.5849 0.8111 -36.9024 82.6565)"/></g><g class="st3"><ellipse cx="49" cy="148.8" class="st4" rx="2.6" ry="2.1" transform="matrix(0.8111 -0.5849 0.5849 0.8111 -77.7875 56.7592)"/></g><g class="st3"><ellipse cx="50.3" cy="134.9" class="st4" rx="2.2" ry="1.7" transform="matrix(0.8111 -0.5849 0.5849 0.8111 -69.3862 54.8723)"/></g><g class="st3"><ellipse cx="29" cy="162.2" class="st4" rx="1.5" ry="1.1" transform="matrix(0.8111 -0.5849 0.5849 0.8111 -89.3703 47.6184)"/></g><g class="st3"><ellipse cx="50.8" cy="109.4" class="st4" rx="2.2" ry="1.7" transform="matrix(0.8111 -0.5849 0.5849 0.8111 -54.3811 50.3425)"/></g><g class="st3"><ellipse cx="70.1" cy="95.4" class="st4" rx="2.9" ry="2.3" transform="matrix(0.8111 -0.5849 0.5849 0.8111 -42.5635 59.0501)"/></g></g><g><g><g><g><path d="M180.8,130.6c-2.8,15.8,33.3,18.4,33.3,18.4s22.9-53.5-14-99.2S113,11,107.5,21.8s5.4,15.7,5.4,15.7 S195.9,44.8,180.8,130.6z" class="st15"/></g><g class="st6"><path d="M200.1,49.7C163.2,4,113,11,107.5,21.8c-4.9,9.6,3.2,14.6,5,15.5c-2.2-2.4-4-6.2-1.2-11.8 c1.2-2.4,4.7-4.5,9.8-5.9c-1.2,0.7-1.8,1.6-1.7,2.4c0.3,1.6,3.7,2.3,7.6,1.6c3.9-0.7,6.9-2.6,6.6-4.2 c-0.1-0.6-0.6-1-1.4-1.4c17.9-0.4,43.9,7.1,65.1,33.4c34.3,42.5,13,92.2,13,92.2s-23.8-1.7-29.8-11 c0.7,13.9,33.5,16.2,33.5,16.2S237,95.4,200.1,49.7z" class="st7"/></g><g class="st3"><path d="M214.1,148.9c0,0,3.1-7.3,5.2-18.8c-3.8-3.6-9.5-6.6-15.5-9c-5.3-2.1-8.6-7.5-8.1-13.2 c1.3-14.8,1.2-33.4-11.6-49.2c-28.8-35.7-67.9-30.9-73.2-22.5c1.1,0.8,2,1.2,2,1.2s83,7.3,67.9,93.1 C178,146.4,214.1,148.9,214.1,148.9z" class="st4"/></g><g><path d="M214.1,150.5c0,0-0.1,0-0.1,0c-1-0.1-25-1.9-32.6-11.6c-2-2.6-2.7-5.5-2.2-8.6 c4.5-25.5,0.6-46.4-11.5-62.2c-19.6-25.6-54.6-29-55-29c-0.2,0-0.4-0.1-0.5-0.1c-0.2-0.1-5.4-2.5-7.2-7.7 c-1.1-3.1-0.7-6.6,1.1-10.2c2.1-4.2,9.4-7.5,19-8.5c20.9-2.2,51.9,6.1,76.2,36.2c19.4,24,22.2,50.1,21.2,67.8 c-1.1,19.1-6.7,32.4-6.9,33C215.3,150.2,214.7,150.5,214.1,150.5z M180.8,130.6l1.6,0.3c-0.4,2.3,0.1,4.3,1.6,6.1 c5.9,7.5,24.4,9.8,29.2,10.3c1.3-3.5,5.4-15.4,6.3-31c1-17.1-1.8-42.4-20.5-65.5c-23.5-29.1-53.3-37.2-73.4-35 c-9.5,1-15.2,4.1-16.5,6.8c-1.4,2.8-1.7,5.4-0.9,7.7c1.2,3.4,4.5,5.3,5.3,5.8c1.7,0.2,10,1.2,20.5,4.9 c10.7,3.8,25.7,11.3,36.4,25.2c12.7,16.5,16.8,38.3,12.1,64.7L180.8,130.6z" class="st4"/></g></g><g><path d="M214.1,148.9c0,0-7.1,8-21,3.6c-14-4.3-17.2-14-12.3-22C185.7,122.5,224.1,132.7,214.1,148.9z" class="st2"/></g><g class="st3"><path d="M214.1,148.9c0,0-7.1,8-21,3.6c-14-4.3-17.2-14-12.3-22C185.7,122.5,224.1,132.7,214.1,148.9z" class="st4"/></g><g><path d="M201.1,155.5c-2.5,0-5.3-0.4-8.5-1.4c-9.7-3-13.3-8-14.7-11.7c-1.5-4.1-1-8.6,1.5-12.7 c1.9-3.1,6.7-3.7,10.3-3.6c9.5,0.2,22.3,5.1,26.3,12.4c1.9,3.5,1.7,7.4-0.6,11.1c0,0.1-0.1,0.2-0.2,0.2 C215,150.3,210.3,155.5,201.1,155.5z M189,129.3c-3.5,0-6.1,0.8-6.9,2.1c-2,3.3-2.5,6.8-1.3,9.9c1.6,4.2,6.1,7.7,12.7,9.8 c12.1,3.7,18.4-2.2,19.3-3.1c1.6-2.8,1.8-5.3,0.4-7.9c-3.3-6.2-14.9-10.6-23.6-10.8C189.4,129.3,189.2,129.3,189,129.3z M214.1,148.9L214.1,148.9L214.1,148.9z" class="st4"/></g></g><g><g><path d="M132.5,30.6c-0.3-0.7-0.4-1.5-0.4-2.2c0-0.8,0.1-1.5,0.4-2.3c0.3-0.7,0.7-1.4,1.3-2 c0.6-0.6,1.3-1,2-1.1c-0.4,0.7-0.8,1.3-1.1,1.9c-0.3,0.6-0.6,1.2-0.9,1.8c-0.3,0.6-0.5,1.2-0.7,1.9 C132.9,29.2,132.7,29.9,132.5,30.6z" class="st16"/></g><g><path d="M136.7,33.4c-0.2-1-0.2-2.1,0-3.1c0.2-1,0.5-2.1,1-3c0.5-0.9,1.2-1.8,2-2.5c0.2-0.2,0.4-0.3,0.6-0.5 c0.2-0.1,0.5-0.3,0.7-0.4c0.2-0.1,0.5-0.2,0.7-0.3c0.3-0.1,0.5-0.1,0.8-0.2c-0.7,0.8-1.4,1.4-2,2.2c-0.6,0.7-1.2,1.5-1.6,2.3 c-0.5,0.8-0.9,1.7-1.3,2.6C137.3,31.5,137,32.4,136.7,33.4z" class="st16"/></g></g><g><g><path d="M195.7,100.7c0.9-0.7,1.9-1.2,3-1.5c1.1-0.3,2.2-0.5,3.4-0.5c1.1,0,2.3,0.2,3.3,0.7 c0.3,0.1,0.5,0.2,0.8,0.4c0.2,0.2,0.5,0.3,0.7,0.5c0.2,0.2,0.4,0.4,0.6,0.6c0.2,0.2,0.4,0.4,0.6,0.6 c-1.1-0.3-2.1-0.7-3.1-0.8c-1-0.2-2-0.4-3-0.4c-1-0.1-2,0-3.1,0.1C197.9,100.4,196.8,100.5,195.7,100.7z" class="st16"/></g><g><path d="M194,108c1.4-0.7,2.9-1.1,4.4-1.3c1.5-0.2,3.1-0.2,4.7,0c0.4,0.1,0.8,0.1,1.2,0.2 c0.4,0.1,0.8,0.2,1.1,0.3c0.4,0.1,0.7,0.3,1.1,0.4l0.5,0.2l0.5,0.3c0.3,0.2,0.7,0.4,1,0.6c0.3,0.2,0.6,0.5,0.9,0.7 c0.1,0.1,0.3,0.2,0.4,0.4l0.4,0.4c0.3,0.3,0.5,0.6,0.7,0.9c-1.4-0.7-2.6-1.5-4-2l-0.5-0.2l-0.5-0.2c-0.3-0.1-0.7-0.2-1-0.3 c-0.4-0.1-0.7-0.2-1-0.3c-0.3-0.1-0.7-0.1-1.1-0.2c-1.4-0.3-2.9-0.4-4.4-0.4C197,107.7,195.5,107.8,194,108z" class="st16"/></g></g></g><g><g><path d="M148.9,95.3c11.2-5.9,14.6-0.5,16.1,10.1C156.9,106.5,149.7,104.2,148.9,95.3z" class="st11"/></g><g><path d="M163.2,107.5c-4.7,0-8.8-1.2-11.5-3.6c-2.4-2.1-3.8-4.9-4-8.5c0-0.5,0.2-0.9,0.6-1.1 c4.8-2.7,8.6-3.3,11.5-1.9c4.3,2,5.9,7.7,7.1,13.5c0.1,0.3,0,0.7-0.2,0.9c-0.2,0.3-0.5,0.4-0.8,0.5 C165,107.4,164,107.5,163.2,107.5z M150.2,96c0.3,2.5,1.3,4.6,3.1,6c2.5,2.1,6.5,3.2,11.1,3c-1-4.6-2.5-9.1-5.5-10.5 C156.7,93.6,153.9,94.1,150.2,96z" class="st12"/></g><g><path d="M148.7,94.2c1.3-0.4,2.6-0.3,3.8,0c1.2,0.3,2.3,0.8,3.3,1.4c1,0.6,1.9,1.4,2.7,2.2 c0.8,0.8,1.5,1.7,2.1,2.7c-1.8-1.3-3.7-2.4-5.7-3.1c-1-0.4-2-0.6-2.9-0.8c-1-0.2-1.9-0.2-2.8-0.1l0,0 c-0.7,0.1-1.2-0.4-1.3-1.1C147.7,94.8,148.1,94.3,148.7,94.2z" class="st13"/></g></g></g></g></g></g></svg>