<svg xmlns="http://www.w3.org/2000/svg" xmlns:v="https://vecta.io/nano" xmlns:xlink="http://www.w3.org/1999/xlink" id="Layer_1" x="0" y="0" version="1.1" viewBox="0 0 202 134" xml:space="preserve" style="enable-background:new 0 0 202 134"><style type="text/css">.st0{fill:#a8844f}.st1{fill:#bc6c37}.st2{fill:#874b22}.st3{fill:#e2824d}.st4{fill:#b56031}.st5{opacity:.7}.st6{opacity:.25;fill:#2b2b2b}.st7{fill:#ddcc50}.st8{fill:#f4c84d}.st9{fill:#f9efa5}.st10{fill:#64842c}.st11{fill:#badd4e}.st12{fill:#83b23f}.st13{fill:#e2422d}.st14{fill:#b2301f}.st15{fill:#ed4f35}.st16{fill:#f4915b}.st17{fill:#3b3d24}.st18{fill:#677239}.st19{fill:#b5c16c}.st20{fill:#d3a7bc}.st21{fill:#bf416f}.st22{fill:#f96797}.st23{fill:#f9b4cd}.st24{fill:#f7e7ee}.st25{fill:#f7e863}.st26{fill:#f9ed95}.st27{fill:#c1932b}.st28{fill:#d85f2a}.st29{fill:#fc7e3f}</style><g><path d="M155.5,102.8c11.5-4.7-42.4-59.5-53.6-54.9l-60.5,29C33,80.9,32,90.1,39,97.7l22,23.6 c7.2,7.7,20.3,11.2,29.4,7.6L155.5,102.8z" class="st0"/><path d="M152.9,102.5c11.1-4.6-40.4-56.9-51.2-52.5L43.4,77.9c-8.1,3.9-9.1,12.7-2.5,19.9l21,22.5 c6.9,7.4,19.5,10.7,28.2,7.2L152.9,102.5z" class="st1"/><path d="M47.7,115.5c5.7-2.8,13-4.9,21.3-7.4l-6.4-6.9c-6.8,3.6-13,7.1-19.5,9.3c-15,5-16.7,3.1-24.1,6.1 c-17,7-7.2,17.5,9.7,10.4C38.2,123.1,35.1,121.7,47.7,115.5z M18.3,124.1c-1.2-1.3-0.6-3,1.4-3.9c2-0.8,4.6-0.4,5.8,0.9 c1.2,1.3,0.6,3-1.4,3.9C22.1,125.8,19.5,125.4,18.3,124.1z" class="st2"/><path d="M47,115.3c5.4-2.6,12.3-4.6,20.1-7.1l-5.6-6.1c-6.5,3.4-12.4,6.7-18.6,8.8c-14.1,4.8-15.6,3.1-22.7,6 c-16.1,6.6-7.5,15.8,8.5,9.2C37.9,122.4,35.1,121.2,47,115.3z M19.4,123.7c-1.2-1.3-0.7-3,1.2-3.8c1.9-0.8,4.4-0.3,5.6,1 c1.2,1.3,0.7,3-1.2,3.8C23.1,125.4,20.6,125,19.4,123.7z" class="st3"/><path d="M101.8,83.8c-11.1-6.9-20.6-14.2-28.1-21.4l-31,14.8c-8.2,3.9-9.2,12.9-2.4,20.2l21.4,22.9 c7,7.5,19.8,10.9,28.6,7.4l57.3-22.9C133.4,100.6,117.3,93.4,101.8,83.8z" class="st4"/><path d="M64.9,119.5c-0.5-0.1-0.9,0-1.2,0.3c-0.3,0.2-0.3,0.6-0.1,0.9c3.1,3.6,13.5,11.7,28.5,5.3 c0.5-0.2,0.8-0.6,0.7-1c-0.1-0.4-0.5-0.7-1.1-0.8L64.9,119.5z" class="st1"/><path d="M52.4,76.5c0.2-0.3,0.1-0.6-0.3-0.8c-0.3-0.2-0.9-0.3-1.3-0.1c-5.7,1.7-18.9,7.7-11,18.3 c0.3,0.4,0.8,0.6,1.4,0.6c0.6,0,1.1-0.3,1.3-0.6L52.4,76.5z" class="st1"/><path d="M101.6,49L42.8,77.2c-8.2,3.9-9.2,12.9-2.4,20.2l21.4,22.9c7,7.5,19.8,10.9,28.6,7.4l63.4-25.3 C165,97.9,112.6,44.6,101.6,49z M90.2,127.6c-8.7,3.5-21.3,0.2-28.2-7.2l-21-22.5c-6.7-7.2-5.6-16.1,2.5-19.9L101.7,50 c10.8-4.4,62.4,47.9,51.2,52.5L90.2,127.6z" class="st3"/><path d="M46.7,114.9c5.4-2.6,12.3-4.7,20-7.2l-4.6-4.9c-6.6,3.3-12.6,6.4-18.7,8.6c-14,5-15.6,3.1-22.6,6 c-16.1,6.6-8.3,15,7.7,8.3C37.5,121.9,34.5,120.7,46.7,114.9z M19.4,123.7c-1.1-1.2-0.5-2.8,1.4-3.5c1.9-0.8,4.3-0.4,5.4,0.7 c1.1,1.2,0.5,2.8-1.4,3.5C22.9,125.2,20.5,124.8,19.4,123.7z" class="st4"/><path d="M38.4,117.4c-3.4-0.6-6.6-1.3-9.6-2.1c-2.7,0.5-4.8,0.8-8.1,2.1c-16.1,6.6-8.3,15,7.7,8.3 c7.2-3,6.8-4.4,12.6-7.8C40.2,117.7,39.3,117.5,38.4,117.4z M24.8,124.4c-1.9,0.8-4.3,0.4-5.4-0.7c-1.1-1.2-0.5-2.8,1.4-3.5 c1.9-0.8,4.3-0.4,5.4,0.7C27.3,122.1,26.6,123.6,24.8,124.4z" class="st1"/><path d="M26.9,120.5c-1.3-1.4-4.1-1.8-6.3-0.9c-2.2,0.9-2.9,2.8-1.7,4.2c1.3,1.4,4.1,1.8,6.3,0.9 C27.4,123.8,28.2,121.9,26.9,120.5z M24.8,124.3c-1.9,0.8-4.2,0.4-5.3-0.7c-1.1-1.2-0.5-2.7,1.4-3.5c1.9-0.8,4.2-0.4,5.3,0.7 C27.3,122,26.7,123.5,24.8,124.3z" class="st3"/><g class="st5"><path d="M61.8,74c12.2-5.5,22.9-9.6,32.7-12.4c4.9-1.4,8.8-2.4,12.5-3.2c0.5-0.1,1-0.2,1.5-0.4 c1.2-0.3,2.6-0.7,3.8-0.7c-1.6,1.1-3.8,1.8-6,2.5c-1,0.3-2,0.7-3,1c-7.9,3.1-15.4,6.8-22.6,10.4l-1,0.5 c-6.2,3.1-12.7,6.7-20.4,11.2c-0.3,0.2-0.6,0.4-0.9,0.6c-2.9,1.7-6.1,3.6-7.7,5.8l-0.1,0.2l0.3,0c2.4,0.2,5.3-1,7.5-1.9 c0.7-0.3,1.4-0.6,2-0.8c7.6-2.7,15-5.8,22.1-8.8c2.5-1.1,5.2-2.2,7.8-3.3c11.6-4.8,23.7-9.3,35.6-13.6c-0.1-0.1-0.2-0.1-0.2-0.2 c-11.8,4.3-24,8.8-35.5,13.6c-2.6,1.1-5.2,2.2-7.8,3.3c-7.1,3-14.4,6.1-22,8.8c-0.6,0.2-1.3,0.5-2,0.8c-2.2,0.9-4.8,2-7,1.9 c1.6-2.1,4.8-4,7.5-5.6c0.3-0.2,0.6-0.4,0.9-0.6c7.6-4.5,14.1-8.1,20.3-11.2l1-0.5c7.2-3.6,14.6-7.3,22.5-10.4 c0.9-0.4,1.9-0.7,2.9-1c2.3-0.8,4.7-1.6,6.4-2.8l0.3-0.2l-0.4,0c-1.4-0.1-3,0.3-4.4,0.7c-0.5,0.1-1,0.3-1.5,0.4 c-3.7,0.8-7.7,1.8-12.5,3.2c-9.9,2.8-20.6,6.9-32.8,12.4l-0.1,0c-9.2,4.2-18.6,8.5-27.2,13.4c0,0.1,0,0.2,0,0.3 C43,82.6,52.5,78.2,61.8,74L61.8,74z" class="st2"/><path d="M41.3,111.4c0.1-0.1,0.1-0.2,0.1-0.3c-0.2,0.1-0.3,0.1-0.5,0.1c0,0,0,0.1,0,0.1c-0.9,1.9-7.2,7.9-13.8,14.4 c-1,1-2,2-3,2.9c0.2-0.1,0.4-0.1,0.6-0.2c0.9-0.9,1.8-1.7,2.7-2.6C34,119.4,40.3,113.3,41.3,111.4z" class="st2"/><path d="M60.9,98c0.8-0.3,1.5-0.6,2.3-0.9c3-1.2,6.1-2.5,8.7-3.9c0.9-0.5,2.3-1.3,2.9-2.2l0.1-0.1l-0.2,0 c-1.8-0.3-4.8,0.5-7,1.1c-0.6,0.2-1.1,0.3-1.5,0.4c-1.8,0.4-3.6,0.9-5.4,1.3c-3.9,0.9-7.9,1.9-11.9,2.8c-3.2,0.7-6.4,1.2-9.6,1.8 l0.2,0.2c3.1-0.5,6.3-1.1,9.5-1.7c4-0.8,8-1.8,11.9-2.8c1.8-0.4,3.6-0.9,5.4-1.3c0.4-0.1,0.9-0.2,1.5-0.4c2-0.6,4.8-1.3,6.5-1.1 c-0.6,0.8-1.8,1.5-2.7,2c-2.6,1.5-5.7,2.7-8.7,3.9c-0.8,0.3-1.5,0.6-2.3,0.9l-0.8,0.3c-4.7,2-10,4.1-14.1,6.9l0.2,0.2 c4.1-2.8,9.3-4.9,14.1-6.9L60.9,98z" class="st2"/><path d="M127.3,70.9c-5.9,2.5-12.2,5.3-17.9,8.5c-0.5,0.3-1.1,0.6-1.7,0.9c-2.6,1.4-5.9,3.1-6.8,4.8l-0.1,0.2l0.2,0 c2.6,0.2,5.6-0.7,8.3-1.6c0.8-0.3,1.6-0.5,2.3-0.7c5.5-1.5,11.1-2.6,16.6-3.7c2.3-0.5,4.6-0.9,6.9-1.4c2.2-0.5,4.3-0.9,6.5-1.4 c-0.1-0.1-0.1-0.2-0.2-0.2c-2.1,0.5-4.2,1-6.4,1.4c-2.3,0.5-4.7,1-6.9,1.4c-5.5,1.1-11.2,2.2-16.7,3.7c-0.7,0.2-1.5,0.4-2.3,0.7 c-2.6,0.8-5.5,1.7-7.9,1.6c1-1.6,4.2-3.3,6.6-4.6c0.6-0.3,1.2-0.6,1.7-0.9c5.6-3.2,11.9-6,17.8-8.5c2.2-0.9,4.3-1.8,6.4-2.6 c-0.1-0.1-0.1-0.1-0.2-0.2C131.6,69.1,129.5,69.9,127.3,70.9z" class="st2"/><path d="M76.6,96c5.1-1.9,10.4-2.9,17.8-3.2c13.8-0.6,28.4-1.6,42.4-6.3c3.5-1.2,7-2.3,10.7-3.3 c-0.1-0.1-0.1-0.2-0.2-0.2c-3.6,1-7.2,2.1-10.7,3.3c-13.9,4.7-28.5,5.7-42.2,6.2c-7.4,0.3-12.8,1.3-18,3.2c-5.4,2-13.8,5.6-19.5,9 c-5,3-11.8,9.6-16.9,15.1c0.4-0.3,0.8-0.5,1.2-0.8c5-5.2,11.3-11.3,15.9-14.1C62.8,101.6,71.2,98,76.6,96z" class="st2"/><path d="M118.6,69.3c-1.7,0.6-3.4,1.3-5.1,2.1c-2.4,0.9-5.1,1.9-7.9,2.8c-1.8,0.6-3.7,1.2-5.5,1.9 c-12.4,4.4-10.1,2.2-18.4,9c0,0-4.2,3.6-3.2,4.4c0.1,0.1,0.2,0.1,0.4,0.1c0.5,0.1,1.3-0.1,2.4-0.5c2-0.7,4-2,5.7-3.1 c0.5-0.3,1-0.6,1.4-0.9l1.2-0.7c3.8-2.3,7.4-4.6,11.6-6.6c1.6-0.8,3.2-1.6,4.9-2.5c2.5-1.3,5-2.6,7.6-3.8c1.9-0.7,3.6-1.4,5.1-2.1 L118.6,69.3z M105.8,75.2c-1.7,0.9-3.3,1.7-4.9,2.5c-4.1,2-7.8,4.2-11.6,6.6L88.1,85c-0.5,0.3-0.9,0.6-1.4,0.9 C84.9,87,83,88.3,81,89c-1.8,0.6-2.2,0.5-2.3,0.4c-0.6-0.5,1.8-2.9,3.2-4.1c8.2-6.7,5.5-4.5,18.3-9c1.8-0.6,3.7-1.3,5.5-1.9 c1.6-0.5,3.2-1.1,4.7-1.6C108.8,73.6,107.3,74.4,105.8,75.2z" class="st2"/><path d="M94.7,57c6-0.7,12.3-1.4,18-3.4c0.8-0.3,1.6-0.6,2.4-0.8c-0.1-0.1-0.2-0.1-0.3-0.2c-0.7,0.3-1.5,0.5-2.3,0.8 c-5.6,1.9-11.6,2.6-17.9,3.3l-0.4,0c-7.2,0.8-13.4,2.1-18.8,3.7l-1.8,0.9c5.9-2,12.7-3.4,20.7-4.4L94.7,57z" class="st2"/><path d="M88.1,113.7c1.2-0.6,2.4-1.2,3.6-1.8c2.4-1.2,5-2.4,7.4-3.5c1.7-0.8,3.4-1.6,5.1-2.4c0.2-0.1,0.5-0.2,0.9-0.4 c1.5-0.7,3.9-1.6,4-2.6c0-0.4-0.1-0.7-0.5-0.9c-1.1-0.8-3.9-0.8-5.6-0.7c-0.3,0-0.5,0-0.7,0c-2.4,0-4.7-0.2-7.1-0.3 c-5.5-0.3-11.3-0.6-16.8,0.6c-6.6,1.5-12.3,4.4-17.8,7.2c-1.7,0.9-3.4,1.8-5.2,2.6c-0.7,0.3-1.6,1-2.5,1.8c0.1,0,0.2-0.1,0.4-0.1 l0.1,0.1c0.9-0.7,1.6-1.3,2.3-1.6c1.7-0.8,3.5-1.7,5.2-2.6c5.5-2.8,11.1-5.7,17.6-7.1c5.5-1.2,11.2-0.9,16.7-0.6 c2.3,0.1,4.7,0.3,7.1,0.3c0.2,0,0.5,0,0.7,0c1.6,0,4.3,0,5.3,0.7c0.3,0.2,0.4,0.4,0.4,0.7c-0.1,0.9-2.4,1.8-3.8,2.4 c-0.4,0.2-0.7,0.3-0.9,0.4c-1.7,0.8-3.5,1.6-5.1,2.4c-2.4,1.1-5,2.3-7.4,3.5c-1.2,0.6-2.4,1.2-3.6,1.8c-7.8,3.8-15.1,7.3-21,12.4 c0,0,0,0,0,0c0.1,0.1,0.2,0.1,0.3,0.2c0,0,0,0,0.1-0.1C73,120.9,80.3,117.4,88.1,113.7z" class="st2"/><path d="M110.8,119.4c-2.7,0.1-5.2,0.2-7.8-0.5c0-1.2,3.2-2.7,5.1-3.6c0.5-0.2,0.9-0.4,1.3-0.6 c4.7-2.5,8.8-5.3,12.8-8.6c0.7-0.6,1.3-1.1,2-1.7c5.1-4.3,10.3-8.7,16.2-12.8c2.6-1.8,5.8-3.7,10-4.6c-0.1-0.1-0.1-0.2-0.2-0.2 c-4.3,1-7.5,2.9-10.1,4.7c-5.9,4-11.2,8.5-16.2,12.8c-0.7,0.6-1.3,1.1-2,1.7c-3.9,3.3-8,6.1-12.7,8.6c-0.3,0.2-0.7,0.4-1.2,0.6 c-2.1,1-5.4,2.6-5.3,3.9l0,0.1l0.1,0c0.5,0.1,0.9,0.2,1.4,0.3c2.2,0.4,4.4,0.3,6.7,0.2l0.6,0c0.7,0,1.4,0,2.2-0.1l0.7-0.3 c-1,0-1.9,0-2.9,0.1L110.8,119.4z" class="st2"/><path d="M122.6,95.8c0.1-0.6-0.3-1.1-1.1-1.4c-2.8-1-8.8,0.3-12,1c-0.3,0.1-0.6,0.1-0.8,0.2c-2.5,0.5-7.3,1.5-9.3,2.3 l0.2,0.2l0,0c1.3,0.3,2.8,0.4,4.2,0.6c4.2,0.5,8.2,0.9,9.9,3.8l0.1,0.1l0.2,0C116.1,102,122.4,98.1,122.6,95.8z M114,102.2 c-1.8-2.9-6.1-3.4-10.2-3.9c-1.3-0.1-2.5-0.3-3.7-0.5c2.1-0.7,6.4-1.6,8.7-2.1c0.2-0.1,0.5-0.1,0.8-0.2c3.2-0.7,9.1-2,11.7-1 c0.7,0.2,1,0.6,0.9,1.1C122,97.9,116.2,101.6,114,102.2z" class="st2"/><path d="M149,93.3c-1.4,0.9-2.9,1.8-4.3,2.6c-2.5,1.5-5.2,3-7.6,4.7c-3.6,2.5-6.6,5-9.1,7.3c-0.1,0.1-0.3,0.3-0.5,0.4 c-0.7,0.6-1.5,1.3-1.7,2.1l0,0.2l0.3,0c3.7-0.3,7.3-1.8,10.7-3.3c1.8-0.7,3.4-1.5,5-2c5.3-1.7,10.4-3.4,15.3-5.5 c0-0.1,0-0.2,0-0.3c-4.9,2.1-10.1,3.8-15.4,5.6c-1.7,0.5-3.3,1.2-5.1,2c-3.3,1.4-6.8,2.9-10.3,3.2c0.2-0.6,0.9-1.2,1.6-1.8 c0.2-0.2,0.3-0.3,0.5-0.4c2.5-2.3,5.5-4.8,9.1-7.3c2.4-1.7,5-3.2,7.5-4.7c1.4-0.8,2.9-1.7,4.3-2.6c0.6-0.4,1.1-0.7,1.6-1.1 c0.7-0.5,1.4-1,2.2-1.5c-0.1-0.1-0.1-0.2-0.2-0.2c-0.8,0.5-1.6,1-2.3,1.5C150.1,92.6,149.5,92.9,149,93.3z" class="st2"/><path d="M150.5,98.3c-1.7,1-3.6,2.1-5.3,2.4c0.6-0.4,1.2-0.9,1.8-1.4c1.7-1.3,3.5-2.7,5.4-3.7l-0.2-0.2 c-2,1-3.8,2.4-5.5,3.8c-0.7,0.6-1.5,1.2-2.2,1.7l-0.4,0.3l0.6-0.1c2-0.2,4.2-1.5,6.1-2.6c0.7-0.4,1.4-0.8,2-1.1 c1-0.5,2.1-1,3.2-1.5c0-0.1-0.1-0.2-0.1-0.3c-1.1,0.5-2.2,1-3.3,1.5C151.9,97.5,151.2,97.9,150.5,98.3z" class="st2"/><path d="M89.7,122.8c0.9-1.6,2.6-2.9,4.2-4.1c0.5-0.4,1-0.7,1.4-1.1c0.4-0.3,0.9-0.7,1.4-1c1.3-0.9,2.9-2,3.2-3.1 l0.1-0.2l-0.3,0.1c-1.5,0.3-2.8,1-4.1,1.6c-0.4,0.2-0.8,0.4-1.2,0.6l-1.1,0.5c-3.3,1.5-6.8,3.1-10,4.8c-3.5,1.8-6.7,4-9.8,6.1 c-0.5,0.3-1,0.6-1.4,1c-0.1,0.1-0.3,0.2-0.4,0.3c0.1,0,0.2,0.1,0.3,0.1c0.1-0.1,0.2-0.2,0.3-0.2c0.5-0.3,1-0.6,1.4-1 c3.1-2.1,6.3-4.2,9.8-6.1c3.2-1.7,6.6-3.3,10-4.8l1.1-0.5c0.4-0.2,0.8-0.4,1.3-0.6c1.2-0.6,2.4-1.2,3.7-1.5c-0.5,1-1.8,1.9-3,2.8 c-0.5,0.4-1,0.7-1.4,1c-0.5,0.4-0.9,0.7-1.4,1.1c-1.7,1.3-3.4,2.6-4.3,4.2c-1.3,2.3,1.1,3.2,3.1,3.9c0.6,0.2,1.2,0.5,1.7,0.7 l0.4-0.1c-0.6-0.3-1.2-0.5-1.9-0.8C90.5,125.6,88.5,124.9,89.7,122.8z" class="st2"/><path d="M72.6,114c2.6-1.5,5.4-3,8.2-4.3c2.6-1.3,5.3-2.7,7.8-4.1l0.3-0.2l-0.3-0.1c-2-0.4-4.6,0.2-6.7,0.7 c-0.5,0.1-0.9,0.2-1.3,0.3c-4.5,0.9-8.8,2.3-14.2,4.5c-3.6,1.5-7.3,3-10.7,4.8l0.2,0.2c3.1-1.7,6.7-3.2,10.7-4.8 c5.3-2.2,9.7-3.5,14.1-4.5c0.4-0.1,0.8-0.2,1.3-0.3c1.9-0.5,4.3-1,6.1-0.8c-2.4,1.4-5,2.7-7.5,4c-2.7,1.4-5.6,2.8-8.2,4.4 c-2.6,1.5-5.2,3.2-7.7,4.8c-1.3,0.8-2.6,1.7-3.9,2.5l0.1,0.1c0,0,0.1,0.1,0.1,0.1c1.3-0.8,2.6-1.7,3.9-2.5 C67.4,117.2,70,115.5,72.6,114z" class="st2"/><path d="M28.2,116.9c-0.4,0.7-0.8,1.5-1.1,2.2c-0.4,0.8-0.8,1.7-1.3,2.5c0.1,0.1,0.1,0.3,0.2,0.4 c0.5-0.9,1-1.9,1.5-2.8c0.4-0.7,0.7-1.5,1.1-2.2c0.4-0.8,0.8-1.7,1.3-2.6c0.1-0.1,0.1-0.2,0.2-0.4c-0.1,0-0.3,0.1-0.4,0.1 c0,0.1-0.1,0.1-0.1,0.2C29,115.3,28.6,116.1,28.2,116.9z" class="st2"/><path d="M23.9,125.1c-0.2,0.1-0.4,0.1-0.6,0.2c-0.5,0.6-1.1,1.1-1.8,1.7c-0.8,0.6-2.3,1.6-4,2.4c0.2,0,0.4,0,0.6,0 c1.6-0.8,2.9-1.7,3.7-2.3C22.6,126.5,23.3,125.8,23.9,125.1z" class="st2"/><path d="M18.4,120.1c1.8-1.2,5.3-3.4,5.7-5c-0.1,0-0.3,0.1-0.4,0.1c-0.5,1.6-3.9,3.7-5.5,4.7 c-0.3,0.2-0.6,0.4-0.8,0.5c-2.2,1.5-4.6,2.9-7.2,4.1c0,0.1,0,0.2,0,0.3c2.6-1.2,5.1-2.6,7.5-4.2C17.7,120.5,18,120.3,18.4,120.1z" class="st2"/></g></g><g><path d="M160,78.4c1.9,16.9-24.2,34.4-54.3,37.8c-30.1,3.4-58.4-10.4-60.3-27.3C43.5,72.6,74,55.3,103.2,51.1 c1.6-0.2,3,1.1,2.9,2.7c-0.7,7.8-0.5,18.6-0.5,18.6c10.9,0.9,34.1-11.1,45.3-10.4C159.1,62.6,159.4,72.8,160,78.4z" class="st6"/><path d="M46.1,81.3c0,0-4.5,15.3,16.2,24c4.8,4.9,18.5,8.5,29.9,7.1c7,2,29.6-1.5,33.3-5c5.3-0.3,15.5-6,18.2-9 c6.3-2.8,10.1-7.9,11.9-10.9c6-5.7,2.4-19.8,1.5-19.8C156.1,67.6,46.1,81.3,46.1,81.3z" class="st7"/><path d="M104.5,48.6c-16,0.6-31.1,5.9-40.6,13.5l39.3,11.3L104.5,48.6z" class="st8"/><polygon points="103.1 73.4 103.1 73.4 103.1 73.4" class="st8"/><path d="M103.1,73.4L63.8,62.1c-4.9,4-8.4,8.7-9.6,13.7c-1.3,5.3-0.1,10.3,3.3,14.7L103.1,73.4L103.1,73.4z" class="st8"/><path d="M145.5,85.6c3.6-4.6,5.3-9.5,4.6-14.5c-0.7-4.8-3.4-9-7.6-12.4l-39.4,14.8L145.5,85.6z" class="st8"/><path d="M103.1,73.4l-1.7,31c19.7-1.2,36.3-9,44.1-18.8L103.1,73.4L103.1,73.4z" class="st8"/><path d="M57.5,90.5c7.2,9.3,23.9,15.2,43.9,13.9l1.7-31L57.5,90.5z" class="st8"/><path d="M85.7,99.4c2.1-1.5-8.3-8.3-6.9-10.4c1.4-2.2,2.9-5,6-4.1c3.1,0.9,6.8,1.6,8.1-0.2c1.3-1.8,1.9-4.6,4.5-5.8 c1.3-0.6,3.9,0.4,5.8-0.2c2-0.7,5.4-0.5,5.8-2.2c0.4-1.7,3.2-4.3,4.9-4.8c1.7-0.5,5.1-4.1,7-3.9c2,0.1,4.7,1.2,5.8,0 c1.2-1.2,6.1-3.6,7.3-4.1s7.7-1.5,9.1,0.4c1.3,1.9,4.1,4.7,4.5,6.5c0.4,1.8-0.7,6.9-4.2,8.2c-3.5,1.2-6.1,2.8-7.4-0.5 c-1.3-3.3-1.3-5.6-1.9-6.6c-0.6-1.1-4.4-1.1-4.3,0.6c0.1,1.6,0.1,6.4,1.8,7.7c1.7,1.3,6,4.3,7.3,2.9c1.3-1.4,2.7-2.5,3.3-0.7 c0.6,1.8,0.5,3.4,0.3,4.7c-0.1,1.2,0.9,4.4-2.3,5.5c-3.2,1.1-5.3,3-7.6,0.7c-2.4-2.3-3.3-4.1-3.5-5.3c-0.3-1.2-0.5-2.2-1.4-3.6 c-0.9-1.4-5.3-2.4-4.9,2.9c0.4,5.4,3.6,12.4,2.4,13.4c-1.2,1-4.6,3.5-7.4-0.7c-2.7-4.2-1.7-5.6-3.3-7.4c-1.6-1.8-0.3-1.1-4.3-1.5 c-4-0.4-1,3-1.3,4.4c-0.3,1.4-4.8,0.1-2.4,4c2.5,3.8,0.9,1.9-3.3,5.4c-4.1,3.5-17.9,2.7-19,0.7C83.1,103.2,81.4,102.5,85.7,99.4z" class="st9"/><path d="M103.1,73.4c0,0,0,11.6,0.3,11.9c0.3,0.3-1.1,18.6-1.1,18.6l-0.8,0.5h-1.2c0,0,1.3-3.3,1.4-3.8 c0.1-0.5,0.9-10.1,0.9-10.6c0-0.5,0.1-8.5,0.1-8.5L103.1,73.4z" class="st6"/><path d="M68.3,66.5c2.2,0.5,0.1-5.5,3.3-5.6c3.1-0.1,7.2,0.7,8.8,0c1.5-0.7,5.4-6.7,7.7-6.5c2.4,0.1,3.9-4,6.7-1.7 c2.7,2.3,3.9-1.2,5.2-0.6c1.3,0.5,4.8,5,1.9,6.5c-2.8,1.5-3.1,3.9-2.2,4.8c0.9,0.9,1,2.7,0.4,3.3c-0.7,0.5,3.6,1.6,2.9,2.9 c-0.7,1.3-4.3,6.1-6.5,3.8c-2.2-2.3-0.9-3.2-1-5.4c-0.1-2.2-0.5-6.9-2.1-3.8c-1.6,3.1-2,13.6-5.9,13.9c-3.9,0.3-5.5-2.2-4.6-4.6 c0.9-2.4,2.9-5,1.3-5.8c-1.6-0.8-5.2-0.8-5.8,0.9c-0.5,1.7,0.7,7.8,1.4,9.4c0.8,1.7,1.1,5.9,0.4,8c-0.7,2-5.6,10.3-7.7,10.1 c-2.1-0.3-13-2.6-12.7-8c0.3-5.4,11.9-4.6,13.1-7.2s-10.9-0.5-12-3.3s-1.4-6.5,0.8-8.1C63.9,67.8,64.9,65.7,68.3,66.5z" class="st9"/><g><polygon points="69.1 64.7 70.7 63.9 71 65.3 70 65.8" class="st10"/><polygon points="66.2 67.4 68 67.4 67.1 68.3" class="st11"/><polygon points="66.5 64.7 67.6 64.7 68 65.3 67.3 65.7" class="st12"/><polygon points="69.7 67.7 69.7 69.8 70.5 69.8 71.3 69.3" class="st11"/><polygon points="70.6 67 71 68.2 72 68.2 72.3 67 71.4 66.4" class="st11"/><polygon points="71.7 65.7 72.5 65.8 72.8 66.3 71.6 66.3" class="st10"/><polygon points="69.3 66.8 69.8 65.9 70 66.5" class="st12"/><polygon points="68.3 69.2 68.9 69.6 68.9 70.6 67.9 70.2" class="st10"/><polygon points="74 63.5 75.6 63.5 75.6 64.4 74 64.8" class="st12"/><polygon points="73.6 67.2 74.8 67.3 74.5 68.4 73.6 68.2" class="st12"/></g><path d="M104.5,48.5c0,0,1,2.5-0.1,2.6c-1.2,0-1.5-0.8-2-1c-0.5-0.2-2.3-0.2-2.3-0.2s-0.8,0.1-1,0.5 c-0.2,0.4-0.4,0.8-1.2,0.7c-0.7,0-1.1-0.3-1.9,0.1c-0.7,0.3-1.1-0.2-1.8,0c-0.7,0.2-1.6-0.8-1.7,0.1c-0.1,0.9-0.2,1.4-0.7,1.6 c-0.5,0.3-1.6,0.4-1.8,0c-0.3-0.4,0.1-1.3-0.7-1c-0.8,0.3-0.9,0-1.4,0.7c-0.5,0.7-0.9,1.3-1.3,1.4c-0.4,0.1-0.5,0.7-1,0 c-0.5-0.7-0.8-1.6-1.2-0.9c-0.5,0.7-0.7,0.8-1.2,1.3c-0.5,0.5-0.4-0.3-0.5,0.5c-0.1,0.8,0.4,1-0.6,1c-1,0-0.5-0.1-1.5-0.2 c-1-0.2-3.7,0.3-4.6,1.2c-0.9,1-2,3.1-3.4,3.1c-1.4,0-3.3-0.8-3.5,0.2c-0.3,1-1.2,0.9-2.2,2.2c-1.1,1.3-2.6,1.3-3.3,2.5 c-0.7,1.2-5.7,6-5.7,6s-2.2,3.7-1.5,3.9c0.8,0.3,1.1,0.6,2.1,0.9c1,0.3,1.2,1.1,0.6,1.3c-0.7,0.3-2.8,1.7-2.8,1.7v1 c0,0-0.6,1.9,0,2.3s1.6,0.2,1.6,0.2v1.1l-0.9,1.2c0,0-0.5,1.5-0.3,1.9c0.3,0.4,1.2,1.5,1.2,1.5s-0.1,1.3,0.6,1.5 c0.7,0.1,5.9,7.6,6.4,8.4c0.5,0.8-9.7-7.1-10-7.5c-0.3-0.4-2.5-11.7-2.3-13.8c0.3-2.1,4.8-10.5,6.2-11.5c1.4-1,10.3-7.6,10.7-8.1 c0.4-0.5,12.4-5.6,13.1-5.7c0.7,0,10.7-2.5,10.7-2.5h5.8C98.8,48.6,103.1,47.2,104.5,48.5z" class="st13"/><path d="M63.8,62.1l28.1,8.1c0,0-1.8-1.8-2.7-1.8c-0.9,0-2.4-0.9-2.7-0.7c-0.4,0.2-7.6-1.5-7.6-1.5s-5.8-2.9-6.4-2.7 c-0.6,0.2-3.6-0.8-4.7-1C66.6,62.2,65.1,61,63.8,62.1z" class="st6"/><path d="M57.5,90.5l45.6-17.1c0,0-2.3,0.4-2.9,0.4c-0.7,0-3.4,0.9-3.4,0.9S93.2,76,93,76.2c-0.1,0.3-7.3,2.3-7.9,2.6 c-0.5,0.4-10.6,5-11.2,5c-0.7,0-7.5,2.4-8.3,2.4c-0.8,0-3.1,1.2-3.1,1.2L59.9,88l-3.2,1.4L57.5,90.5z" class="st6"/><g><path d="M101.2,93.8c-0.1,2.3-3.1,4-6.7,3.8c-3.6-0.2-6.4-2.2-6.2-4.5c0.1-2.3,3.1-4,6.7-3.8 C98.5,89.5,101.3,91.5,101.2,93.8z" class="st14"/><path d="M101,93.3c-0.1,2.2-3,3.9-6.5,3.7c-3.5-0.2-6.2-2.1-6.1-4.4c0.1-2.2,3-3.9,6.5-3.7 C98.4,89.1,101.1,91.1,101,93.3z" class="st15"/><path d="M96.8,90.7c0,0.7-0.9,1.2-2,1.1c-1-0.1-1.9-0.6-1.8-1.3c0-0.7,0.9-1.2,2-1.1C96,89.5,96.8,90.1,96.8,90.7z" class="st16"/><path d="M92,92c0,0.3-0.4,0.6-0.9,0.5c-0.5,0-0.9-0.3-0.9-0.6c0-0.3,0.4-0.6,0.9-0.5C91.6,91.4,92,91.7,92,92z" class="st16"/><path d="M98.2,95.3c0,0.3-0.4,0.6-0.9,0.5c-0.5,0-0.9-0.3-0.9-0.6c0-0.3,0.4-0.6,0.9-0.5 C97.8,94.7,98.2,95,98.2,95.3z" class="st16"/><path d="M99.1,92.9c0,0.5-0.6,0.8-1.3,0.8c-0.7,0-1.3-0.4-1.2-0.9c0-0.5,0.6-0.8,1.3-0.8 C98.6,92,99.1,92.4,99.1,92.9z" class="st16"/><path d="M95.8,93.5c0,0.4-0.5,0.7-1.1,0.6c-0.6,0-1.1-0.4-1-0.8c0-0.4,0.5-0.7,1.1-0.6 C95.3,92.8,95.8,93.1,95.8,93.5z" class="st16"/><path d="M94.2,95.1c0,0.5-0.6,0.8-1.4,0.8c-0.7,0-1.3-0.5-1.3-0.9c0-0.5,0.6-0.8,1.4-0.8 C93.7,94.2,94.2,94.6,94.2,95.1z" class="st16"/></g><g><path d="M128.4,92.5c-0.1,2.3-3.1,4-6.7,3.8c-3.6-0.2-6.4-2.2-6.2-4.5c0.1-2.3,3.1-4,6.7-3.8 C125.7,88.1,128.5,90.2,128.4,92.5z" class="st14"/><path d="M128.2,92c-0.1,2.2-3,3.9-6.5,3.7c-3.5-0.2-6.2-2.1-6.1-4.4c0.1-2.2,3-3.9,6.5-3.7 C125.6,87.8,128.3,89.7,128.2,92z" class="st15"/><path d="M124,89.4c0,0.7-0.9,1.2-2,1.1c-1-0.1-1.9-0.6-1.8-1.3c0-0.7,0.9-1.2,2-1.1C123.2,88.1,124,88.7,124,89.4z" class="st16"/><path d="M119.1,90.6c0,0.3-0.4,0.6-0.9,0.5c-0.5,0-0.9-0.3-0.9-0.6c0-0.3,0.4-0.6,0.9-0.5 C118.8,90,119.2,90.3,119.1,90.6z" class="st16"/><path d="M125.4,94c0,0.3-0.4,0.6-0.9,0.5c-0.5,0-0.9-0.3-0.9-0.6c0-0.3,0.4-0.6,0.9-0.5 C125,93.4,125.4,93.7,125.4,94z" class="st16"/><path d="M126.3,91.5c0,0.5-0.6,0.8-1.3,0.8c-0.7,0-1.3-0.4-1.2-0.9c0-0.5,0.6-0.8,1.3-0.8 C125.8,90.7,126.3,91.1,126.3,91.5z" class="st16"/><path d="M123,92.2c0,0.4-0.5,0.7-1.1,0.6c-0.6,0-1.1-0.4-1-0.8c0-0.4,0.5-0.7,1.1-0.6C122.5,91.4,123,91.8,123,92.2z" class="st16"/><path d="M121.4,93.8c0,0.5-0.6,0.8-1.4,0.8c-0.7,0-1.3-0.5-1.3-0.9c0-0.5,0.6-0.8,1.4-0.8 C120.8,92.9,121.4,93.3,121.4,93.8z" class="st16"/></g><g><path d="M144.1,63.2c-0.1,2.3-3.1,4-6.7,3.8c-3.6-0.2-6.4-2.2-6.2-4.5c0.1-2.3,3.1-4,6.7-3.8 C141.4,58.9,144.2,60.9,144.1,63.2z" class="st14"/><path d="M143.9,62.7c-0.1,2.2-3,3.9-6.5,3.7c-3.5-0.2-6.2-2.1-6.1-4.4c0.1-2.2,3-3.9,6.5-3.7 C141.3,58.5,144,60.5,143.9,62.7z" class="st15"/><path d="M139.7,60.2c0,0.7-0.9,1.2-2,1.1c-1-0.1-1.9-0.6-1.8-1.3c0-0.7,0.9-1.2,2-1.1 C138.9,58.9,139.7,59.5,139.7,60.2z" class="st16"/><path d="M134.8,61.4c0,0.3-0.4,0.6-0.9,0.5c-0.5,0-0.9-0.3-0.9-0.6c0-0.3,0.4-0.6,0.9-0.5 C134.5,60.8,134.9,61.1,134.8,61.4z" class="st16"/><path d="M141.1,64.7c0,0.3-0.4,0.6-0.9,0.5c-0.5,0-0.9-0.3-0.9-0.6c0-0.3,0.4-0.6,0.9-0.5 C140.7,64.1,141.1,64.4,141.1,64.7z" class="st16"/><path d="M142,62.3c0,0.5-0.6,0.8-1.3,0.8c-0.7,0-1.3-0.4-1.2-0.9c0-0.5,0.6-0.8,1.3-0.8 C141.5,61.4,142,61.8,142,62.3z" class="st16"/><path d="M138.7,62.9c0,0.4-0.5,0.7-1.1,0.6c-0.6,0-1.1-0.4-1-0.8c0-0.4,0.5-0.7,1.1-0.6 C138.2,62.2,138.7,62.6,138.7,62.9z" class="st16"/><path d="M137.1,64.5c0,0.5-0.6,0.8-1.4,0.8c-0.7,0-1.3-0.5-1.3-0.9c0-0.5,0.6-0.8,1.4-0.8 C136.5,63.6,137.1,64,137.1,64.5z" class="st16"/></g><g><path d="M99.3,75c-0.1,2.3-3.1,4-6.7,3.8c-3.6-0.2-6.4-2.2-6.2-4.5c0.1-2.3,3.1-4,6.7-3.8 C96.7,70.7,99.5,72.7,99.3,75z" class="st14"/><path d="M99.1,74.5c-0.1,2.2-3,3.9-6.5,3.7c-3.5-0.2-6.2-2.1-6.1-4.4c0.1-2.2,3-3.9,6.5-3.7 C96.5,70.3,99.3,72.3,99.1,74.5z" class="st15"/><path d="M94.9,71.9c0,0.7-0.9,1.2-2,1.1c-1-0.1-1.9-0.6-1.8-1.3c0-0.7,0.9-1.2,2-1.1C94.1,70.6,94.9,71.2,94.9,71.9z" class="st16"/><path d="M90.1,73.2c0,0.3-0.4,0.6-0.9,0.5c-0.5,0-0.9-0.3-0.9-0.6c0-0.3,0.4-0.6,0.9-0.5 C89.7,72.6,90.1,72.8,90.1,73.2z" class="st16"/><path d="M96.3,76.5c0,0.3-0.4,0.6-0.9,0.5c-0.5,0-0.9-0.3-0.9-0.6c0-0.3,0.4-0.6,0.9-0.5 C96,75.9,96.3,76.2,96.3,76.5z" class="st16"/><path d="M97.2,74c0,0.5-0.6,0.8-1.3,0.8c-0.7,0-1.3-0.4-1.2-0.9c0-0.5,0.6-0.8,1.3-0.8C96.7,73.2,97.3,73.6,97.2,74z" class="st16"/><path d="M93.9,74.7c0,0.4-0.5,0.7-1.1,0.6c-0.6,0-1.1-0.4-1-0.8c0-0.4,0.5-0.7,1.1-0.6C93.5,74,93.9,74.3,93.9,74.7z" class="st16"/><path d="M92.3,76.3c0,0.5-0.6,0.8-1.4,0.8c-0.7,0-1.3-0.5-1.3-0.9c0-0.5,0.6-0.8,1.4-0.8 C91.8,75.4,92.4,75.8,92.3,76.3z" class="st16"/></g><g><path d="M84,91c-0.1,2.3-3.1,4-6.7,3.8c-3.6-0.2-6.4-2.2-6.2-4.5c0.1-2.3,3.1-4,6.7-3.8C81.4,86.7,84.2,88.7,84,91z" class="st14"/><path d="M83.8,90.5c-0.1,2.2-3,3.9-6.5,3.7c-3.5-0.2-6.2-2.1-6.1-4.4c0.1-2.2,3-3.9,6.5-3.7 C81.2,86.3,84,88.3,83.8,90.5z" class="st15"/><path d="M79.6,87.9c0,0.7-0.9,1.2-2,1.1c-1-0.1-1.9-0.6-1.8-1.3c0-0.7,0.9-1.2,2-1.1C78.8,86.7,79.6,87.2,79.6,87.9z" class="st16"/><path d="M74.8,89.2c0,0.3-0.4,0.6-0.9,0.5c-0.5,0-0.9-0.3-0.9-0.6c0-0.3,0.4-0.6,0.9-0.5 C74.4,88.6,74.8,88.9,74.8,89.2z" class="st16"/><path d="M81,92.5c0,0.3-0.4,0.6-0.9,0.5c-0.5,0-0.9-0.3-0.9-0.6c0-0.3,0.4-0.6,0.9-0.5C80.6,91.9,81,92.2,81,92.5z" class="st16"/><path d="M81.9,90c0,0.5-0.6,0.8-1.3,0.8c-0.7,0-1.3-0.4-1.2-0.9c0-0.5,0.6-0.8,1.3-0.8C81.4,89.2,82,89.6,81.9,90z" class="st16"/><path d="M78.6,90.7c0,0.4-0.5,0.7-1.1,0.6c-0.6,0-1.1-0.4-1-0.8c0-0.4,0.5-0.7,1.1-0.6C78.2,90,78.6,90.3,78.6,90.7z" class="st16"/><path d="M77,92.3c0,0.5-0.6,0.8-1.4,0.8s-1.3-0.5-1.3-0.9c0-0.5,0.6-0.8,1.4-0.8C76.5,91.4,77.1,91.8,77,92.3z" class="st16"/></g><g><path d="M88.2,63.4c-0.1,2.3-3.1,4-6.7,3.8c-3.6-0.2-6.4-2.2-6.2-4.5c0.1-2.3,3.1-4,6.7-3.8 C85.5,59.1,88.3,61.1,88.2,63.4z" class="st14"/><path d="M88,62.9c-0.1,2.2-3,3.9-6.5,3.7c-3.5-0.2-6.2-2.1-6.1-4.4c0.1-2.2,3-3.9,6.5-3.7 C85.4,58.7,88.1,60.7,88,62.9z" class="st15"/><path d="M83.7,60.3c0,0.7-0.9,1.2-2,1.1c-1-0.1-1.9-0.6-1.8-1.3c0-0.7,0.9-1.2,2-1.1C82.9,59.1,83.8,59.7,83.7,60.3z" class="st16"/><path d="M78.9,61.6c0,0.3-0.4,0.6-0.9,0.5c-0.5,0-0.9-0.3-0.9-0.6c0-0.3,0.4-0.6,0.9-0.5 C78.6,61,78.9,61.3,78.9,61.6z" class="st16"/><path d="M85.1,64.9c0,0.3-0.4,0.6-0.9,0.5c-0.5,0-0.9-0.3-0.9-0.6c0-0.3,0.4-0.6,0.9-0.5 C84.8,64.3,85.2,64.6,85.1,64.9z" class="st16"/><path d="M86.1,62.5c0,0.5-0.6,0.8-1.3,0.8c-0.7,0-1.3-0.4-1.2-0.9c0-0.5,0.6-0.8,1.3-0.8 C85.5,61.6,86.1,62,86.1,62.5z" class="st16"/><path d="M82.7,63.1c0,0.4-0.5,0.7-1.1,0.6c-0.6,0-1.1-0.4-1-0.8c0-0.4,0.5-0.7,1.1-0.6 C82.3,62.4,82.8,62.7,82.7,63.1z" class="st16"/><path d="M81.2,64.7c0,0.5-0.6,0.8-1.4,0.8s-1.3-0.5-1.3-0.9c0-0.5,0.6-0.8,1.4-0.8C80.6,63.8,81.2,64.2,81.2,64.7z" class="st16"/></g><g><path d="M115.2,83.4c-0.1,2.3-3.1,4-6.7,3.8c-3.6-0.2-6.4-2.2-6.2-4.5c0.1-2.3,3.1-4,6.7-3.8 C112.6,79.1,115.4,81.1,115.2,83.4z" class="st14"/><path d="M115.1,82.9c-0.1,2.2-3,3.9-6.5,3.7c-3.5-0.2-6.2-2.1-6.1-4.4c0.1-2.2,3-3.9,6.5-3.7 C112.5,78.7,115.2,80.7,115.1,82.9z" class="st15"/><path d="M110.8,80.4c0,0.7-0.9,1.2-2,1.1c-1-0.1-1.9-0.6-1.8-1.3c0-0.7,0.9-1.2,2-1.1 C110,79.1,110.9,79.7,110.8,80.4z" class="st16"/><path d="M106,81.6c0,0.3-0.4,0.6-0.9,0.5c-0.5,0-0.9-0.3-0.9-0.6c0-0.3,0.4-0.6,0.9-0.5C105.6,81,106,81.3,106,81.6z" class="st16"/><path d="M112.2,84.9c0,0.3-0.4,0.6-0.9,0.5c-0.5,0-0.9-0.3-0.9-0.6c0-0.3,0.4-0.6,0.9-0.5 C111.9,84.3,112.3,84.6,112.2,84.9z" class="st16"/><path d="M113.2,82.5c0,0.5-0.6,0.8-1.3,0.8c-0.7,0-1.3-0.4-1.2-0.9c0-0.5,0.6-0.8,1.3-0.8 C112.6,81.6,113.2,82,113.2,82.5z" class="st16"/><path d="M109.8,83.1c0,0.4-0.5,0.7-1.1,0.6c-0.6,0-1.1-0.4-1-0.8c0-0.4,0.5-0.7,1.1-0.6 C109.4,82.4,109.9,82.7,109.8,83.1z" class="st16"/><path d="M108.3,84.7c0,0.5-0.6,0.8-1.4,0.8c-0.7,0-1.3-0.5-1.3-0.9c0-0.5,0.6-0.8,1.4-0.8 C107.7,83.8,108.3,84.2,108.3,84.7z" class="st16"/></g><g><path d="M130.9,74.7c-0.1,2.3-3.1,4-6.7,3.8c-3.6-0.2-6.4-2.2-6.2-4.5c0.1-2.3,3.1-4,6.7-3.8 C128.3,70.4,131.1,72.4,130.9,74.7z" class="st14"/><path d="M130.8,74.2c-0.1,2.2-3,3.9-6.5,3.7c-3.5-0.2-6.2-2.1-6.1-4.4c0.1-2.2,3-3.9,6.5-3.7 C128.2,70.1,130.9,72,130.8,74.2z" class="st15"/><path d="M126.5,71.7c0,0.7-0.9,1.2-2,1.1c-1-0.1-1.9-0.6-1.8-1.3c0-0.7,0.9-1.2,2-1.1 C125.7,70.4,126.6,71,126.5,71.7z" class="st16"/><path d="M121.7,72.9c0,0.3-0.4,0.6-0.9,0.5c-0.5,0-0.9-0.3-0.9-0.6c0-0.3,0.4-0.6,0.9-0.5 C121.3,72.3,121.7,72.6,121.7,72.9z" class="st16"/><path d="M127.9,76.2c0,0.3-0.4,0.6-0.9,0.5c-0.5,0-0.9-0.3-0.9-0.6c0-0.3,0.4-0.6,0.9-0.5 C127.6,75.6,127.9,75.9,127.9,76.2z" class="st16"/><path d="M128.8,73.8c0,0.5-0.6,0.8-1.3,0.8c-0.7,0-1.3-0.4-1.2-0.9s0.6-0.8,1.3-0.8 C128.3,72.9,128.9,73.3,128.8,73.8z" class="st16"/><path d="M125.5,74.4c0,0.4-0.5,0.7-1.1,0.6c-0.6,0-1.1-0.4-1-0.8c0-0.4,0.5-0.7,1.1-0.6 C125.1,73.7,125.6,74.1,125.5,74.4z" class="st16"/><path d="M124,76c0,0.5-0.6,0.8-1.4,0.8c-0.7,0-1.3-0.5-1.3-0.9c0-0.5,0.6-0.8,1.4-0.8C123.4,75.1,124,75.6,124,76z" class="st16"/></g><path d="M142.4,58.7l-1.4,0.5l2.3,1.8l1.4,1.6c0,0,0.3,1.7,0.7,2c0.3,0.3,1.2,1.9,1.2,1.9V69v1.6v1.2 c0,0,0.8,1,0.8,1.4c0,0.3,0.4,4.4,0,4.8c-0.4,0.4-1.3,1.8-1.3,1.8s-0.6,2.3-0.6,2.9c0,0.5-1.6,2.8-1.2,2.9c0.3,0.2-0.7,3.3-0.7,3.3 l4-3.3c0,0,2.7-7.8,2.6-9.2c-0.2-1.3,0.1-4.1-0.1-5.3c-0.3-1.2,0.6-3.1,0.1-4.4c-0.5-1.3-1.3-3.6-1.3-3.6s-3.4-2.6-3.8-3.2 C144.7,59.3,142.4,58.7,142.4,58.7z" class="st13"/><polygon points="103.1 73.4 145.5 85.6 145.7 84.6" class="st6"/><g><path d="M74.7,77.4c-0.1,2.3-3.1,4-6.7,3.8c-3.6-0.2-6.4-2.2-6.2-4.5c0.1-2.3,3.1-4,6.7-3.8 C72,73.1,74.8,75.1,74.7,77.4z" class="st14"/><path d="M74.5,76.9c-0.1,2.2-3,3.9-6.5,3.7c-3.5-0.2-6.2-2.1-6.1-4.4c0.1-2.2,3-3.9,6.5-3.7 C71.9,72.7,74.7,74.7,74.5,76.9z" class="st15"/><path d="M70.3,74.3c0,0.7-0.9,1.2-2,1.1c-1-0.1-1.9-0.6-1.8-1.3c0-0.7,0.9-1.2,2-1.1C69.5,73,70.3,73.6,70.3,74.3z" class="st16"/><path d="M65.5,75.6c0,0.3-0.4,0.6-0.9,0.5c-0.5,0-0.9-0.3-0.9-0.6c0-0.3,0.4-0.6,0.9-0.5 C65.1,75,65.5,75.2,65.5,75.6z" class="st16"/><path d="M71.7,78.9c0,0.3-0.4,0.6-0.9,0.5c-0.5,0-0.9-0.3-0.9-0.6c0-0.3,0.4-0.6,0.9-0.5 C71.3,78.3,71.7,78.6,71.7,78.9z" class="st16"/><path d="M72.6,76.4c0,0.5-0.6,0.8-1.3,0.8c-0.7,0-1.3-0.4-1.2-0.9c0-0.5,0.6-0.8,1.3-0.8 C72.1,75.6,72.7,76,72.6,76.4z" class="st16"/><path d="M69.3,77.1c0,0.4-0.5,0.7-1.1,0.6c-0.6,0-1.1-0.4-1-0.8c0-0.4,0.5-0.7,1.1-0.6 C68.9,76.4,69.3,76.7,69.3,77.1z" class="st16"/><path d="M67.7,78.7c0,0.5-0.6,0.8-1.4,0.8c-0.7,0-1.3-0.5-1.3-0.9c0-0.5,0.6-0.8,1.4-0.8 C67.2,77.8,67.8,78.2,67.7,78.7z" class="st16"/></g><g><path d="M144.2,82.9c-0.1,2.3-3.1,4-6.7,3.8c-3.6-0.2-6.4-2.2-6.2-4.5c0.1-2.3,3.1-4,6.7-3.8 C141.6,78.6,144.4,80.6,144.2,82.9z" class="st14"/><path d="M144,82.4c-0.1,2.2-3,3.9-6.5,3.7s-6.2-2.1-6.1-4.4c0.1-2.2,3-3.9,6.5-3.7C141.4,78.2,144.2,80.2,144,82.4z" class="st15"/><path d="M139.8,79.8c0,0.7-0.9,1.2-2,1.1c-1-0.1-1.9-0.6-1.8-1.3c0-0.7,0.9-1.2,2-1.1 C139,78.6,139.8,79.2,139.8,79.8z" class="st16"/><path d="M135,81.1c0,0.3-0.4,0.6-0.9,0.5c-0.5,0-0.9-0.3-0.9-0.6c0-0.3,0.4-0.6,0.9-0.5 C134.6,80.5,135,80.8,135,81.1z" class="st16"/><path d="M141.2,84.4c0,0.3-0.4,0.6-0.9,0.5c-0.5,0-0.9-0.3-0.9-0.6c0-0.3,0.4-0.6,0.9-0.5 C140.9,83.8,141.2,84.1,141.2,84.4z" class="st16"/><path d="M142.1,82c0,0.5-0.6,0.8-1.3,0.8c-0.7,0-1.3-0.4-1.2-0.9c0-0.5,0.6-0.8,1.3-0.8 C141.6,81.1,142.2,81.5,142.1,82z" class="st16"/><path d="M138.8,82.6c0,0.4-0.5,0.7-1.1,0.6c-0.6,0-1.1-0.4-1-0.8c0-0.4,0.5-0.7,1.1-0.6 C138.4,81.9,138.8,82.2,138.8,82.6z" class="st16"/><path d="M137.2,84.2c0,0.5-0.6,0.8-1.4,0.8c-0.7,0-1.3-0.5-1.3-0.9c0-0.5,0.6-0.8,1.4-0.8 C136.7,83.3,137.3,83.7,137.2,84.2z" class="st16"/></g><path d="M68,70.7c-0.7,1.3-0.6,4.1,0.6,4.7c1.3,0.5,4.1,2,4.9,1.4c0.8-0.7,1.9-1.1,1.9-2c0-1,0-2.3-1.1-3 C73.2,71,69.5,68,68,70.7z" class="st9"/><path d="M111.1,81.5c-1.1,2.1-0.9,6.6,1,7.4c2,0.8,6.4,3.2,7.6,2.2c1.2-1.1,2.9-1.7,2.9-3.3c0-1.5,0-3.6-1.7-4.8 C119.3,82,113.4,77.2,111.1,81.5z" class="st9"/><g><path d="M79.3,73.2c-1.7,1.3-4.1,1.3-5.1-0.1c-1.1-1.4-0.6-3.7,1.2-5c1.7-1.3,4.1-1.3,5.1,0.1 C81.5,69.6,81,71.9,79.3,73.2z" class="st17"/><path d="M80.2,70.5c-0.6,0.4-1.5,0.2-2.1-0.5c-0.6-0.7-0.5-1.7,0-2.1c0.6-0.4,1.5-0.2,2.1,0.5 C80.8,69.1,80.8,70,80.2,70.5z" class="st18"/><path d="M80,69.8c-0.4,0.3-1,0.1-1.3-0.3c-0.4-0.5-0.3-1.1,0-1.4c0.4-0.3,1-0.1,1.3,0.3C80.4,68.9,80.4,69.5,80,69.8 z" class="st19"/><path d="M79.9,69.6c-0.3,0.2-0.8,0.1-1.1-0.3c-0.3-0.4-0.3-0.9,0-1.2c0.3-0.2,0.8-0.1,1.1,0.3 C80.3,68.9,80.3,69.4,79.9,69.6z" class="st17"/></g><g><path d="M91.6,57.6c-1.7,1.3-4.1,1.3-5.1-0.1c-1.1-1.4-0.6-3.7,1.2-5c1.7-1.3,4.1-1.3,5.1,0.1 C93.9,54,93.3,56.2,91.6,57.6z" class="st17"/><path d="M92.5,54.8c-0.6,0.4-1.5,0.2-2.1-0.5c-0.6-0.7-0.5-1.7,0-2.1c0.6-0.4,1.5-0.2,2.1,0.5 C93.1,53.4,93.1,54.4,92.5,54.8z" class="st18"/><path d="M92.4,54.1c-0.4,0.3-1,0.1-1.3-0.3c-0.4-0.5-0.4-1.1,0-1.4c0.4-0.3,1-0.1,1.3,0.3 C92.7,53.2,92.7,53.8,92.4,54.1z" class="st19"/><path d="M92.3,54c-0.3,0.2-0.8,0.1-1.1-0.3c-0.3-0.4-0.3-0.9,0-1.2c0.3-0.2,0.8-0.1,1.1,0.3 C92.6,53.2,92.6,53.7,92.3,54z" class="st17"/></g><g><path d="M65,90.3c-0.2-2.2,1.1-4.1,2.9-4.3c1.8-0.2,3.4,1.5,3.6,3.7c0.2,2.2-1.1,4.1-2.9,4.3 C66.8,94.2,65.1,92.5,65,90.3z" class="st17"/><path d="M66.7,92.6c-0.1-0.7,0.6-1.4,1.5-1.5c0.9-0.1,1.7,0.4,1.8,1.2c0.1,0.7-0.6,1.4-1.5,1.5 C67.6,93.8,66.8,93.3,66.7,92.6z" class="st18"/><path d="M67.4,92.8c0-0.5,0.4-0.9,1-0.9c0.6-0.1,1.1,0.3,1.1,0.8c0,0.5-0.4,0.9-1,0.9C68,93.6,67.5,93.3,67.4,92.8z" class="st19"/><path d="M67.6,92.8c0-0.4,0.3-0.8,0.8-0.8c0.5,0,0.9,0.2,1,0.6c0,0.4-0.3,0.8-0.8,0.8C68.1,93.5,67.6,93.2,67.6,92.8 z" class="st17"/></g><g><polygon points="77.3 70.8 78.8 70.6 78.5 72 77.6 72.1" class="st10"/><polygon points="74 72.3 75.3 72.9 74.3 73.3" class="st11"/><polygon points="75.5 69.9 76.4 70.3 76.4 71 75.7 71" class="st12"/><polygon points="76.5 73.7 75.7 75.6 76.3 75.9 77.1 75.8" class="st11"/><polygon points="77.5 73.4 77.3 74.6 78 75 78.8 74 78.3 73.2" class="st11"/><polygon points="78.8 72.6 79.5 73 79.5 73.5 78.6 73.1" class="st10"/><polygon points="76.6 72.8 77.4 72.1 77.3 72.7" class="st12"/><polygon points="74.8 74.6 75.1 75.2 74.7 76.1 74.1 75.4" class="st10"/><path d="M81.8,71.6C81.8,71.6,81.8,71.6,81.8,71.6c0.1,0.1,0.2,0.1,0.3,0.2c0.2,0.1,0.5,0.3,0.9,0.6 c0.3,0.3,0.7,0.7,0.9,1.1c0.1,0.2,0.2,0.3,0.3,0.5c0.1,0.1,0.1,0.2,0.1,0.2l-0.8,0.4c0,0,0-0.1-0.1-0.1c-0.1-0.1-0.1-0.2-0.2-0.3 c-0.2-0.3-0.5-0.6-0.8-0.8c-0.3-0.2-0.6-0.3-0.8-0.4c-0.1,0-0.2-0.1-0.2-0.1c-0.1,0-0.1,0-0.1,0L81.8,71.6z" class="st12"/><path d="M79.7,74.6c0,0,0.2,0.1,0.4,0.3c0.2,0.1,0.3,0.3,0.3,0.3s-0.2,0.2-0.4,0.4c-0.2,0.2-0.4,0.4-0.4,0.4 s0-0.1-0.1-0.2c-0.1-0.1-0.2-0.2-0.2-0.2L79.7,74.6z" class="st12"/></g><g><path d="M114,86.3c0,0,0.1-0.3,0.2-0.7c0.1-0.3,0.2-0.7,0.2-0.7l1.1,0.9l-0.2,0.8c0,0-0.3-0.1-0.6-0.2 C114.3,86.4,114,86.3,114,86.3z" class="st10"/><path d="M114.5,89.7c0,0,0.2-0.2,0.4-0.4c0.2-0.2,0.4-0.4,0.4-0.4s0,0.3,0.1,0.5c0,0.3,0.1,0.5,0.1,0.5 s-0.3,0-0.5-0.1C114.8,89.8,114.5,89.7,114.5,89.7z" class="st11"/><path d="M112.7,87.7l0.6-0.6l0.6,0.3l-0.1,0.6c0,0-0.3-0.1-0.5-0.2C113,87.7,112.7,87.7,112.7,87.7z" class="st12"/><path d="M116.4,88.2l1.4,1.6l0.4-0.3l0.1-0.7c0,0-0.5-0.1-0.9-0.3C116.9,88.3,116.4,88.2,116.4,88.2z" class="st11"/><path d="M116.4,87.3l1,0.7l0.5-0.4l-0.6-1.1c0,0-0.2,0-0.5,0c-0.2,0-0.5,0-0.5,0L116.4,87.3z" class="st11"/><polygon points="116.1 85.8 116.7 85.5 117.1 85.7 116.5 86.3" class="st10"/><polygon points="115.6 87.8 115.2 86.8 115.8 87.2" class="st12"/><polygon points="116.8 89.9 117.4 90 118 90.7 117.3 90.9" class="st10"/><path d="M116.1,83c0,0,0.2-0.2,0.5-0.4c0.2-0.2,0.5-0.4,0.5-0.4l0.5,0.7c0,0-0.2,0.3-0.4,0.5 c-0.2,0.3-0.3,0.5-0.3,0.5L116.1,83z" class="st12"/><polygon points="118.2 86.1 118.8 85.7 119.3 86.7 118.7 86.9" class="st12"/></g><g><path d="M86.8,94.9c0,0,0.3-0.1,0.7-0.2c0.3-0.1,0.7-0.2,0.7-0.2L88,95.8l-0.8,0.3c0,0-0.1-0.3-0.2-0.6 C86.9,95.2,86.8,94.9,86.8,94.9z" class="st10"/><path d="M83.7,96.8c0,0,0.4,0.1,0.7,0.2c0.4,0.1,0.7,0.2,0.7,0.2s-0.2,0.1-0.5,0.3c-0.2,0.1-0.5,0.3-0.5,0.3 s-0.1-0.3-0.2-0.5C83.8,97.1,83.7,96.8,83.7,96.8z" class="st11"/><path d="M84.9,94.3l0.8,0.3l0.1,0.7l-0.6,0.1c0,0-0.1-0.3-0.1-0.6C85,94.6,84.9,94.3,84.9,94.3z" class="st12"/><path d="M86.4,97.9l-0.6,2l0.7,0.2l0.8-0.3c0,0-0.2-0.5-0.5-1C86.7,98.4,86.4,97.9,86.4,97.9z" class="st11"/><path d="M87.3,97.5l0,1.2l0.8,0.2l0.5-1.1c0,0-0.2-0.2-0.3-0.4C88.2,97.2,88,97,88,97L87.3,97.5z" class="st11"/><polygon points="88.4 96.4 89.1 96.6 89.2 97.1 88.3 96.9" class="st10"/><polygon points="86.4 97 87 96.2 87 96.8" class="st12"/><polygon points="84.9 99 85.3 99.6 85 100.5 84.2 99.9" class="st10"/><path d="M90.7,94.6c0,0,0.3,0,0.6,0.1c0.3,0,0.6,0.1,0.6,0.1l-0.1,0.9c0,0-0.3,0.1-0.6,0.1c-0.3,0-0.6,0.1-0.6,0.1 L90.7,94.6z" class="st12"/><polygon points="89.7 98.1 90.6 98.4 90.2 99.5 89.5 99.1" class="st12"/></g><g><polygon points="134.6 68.5 135.4 67.2 136.3 68.3 135.8 69.1" class="st10"/><polygon points="133.8 72.1 135.1 71.4 134.8 72.5" class="st11"/><polygon points="132.8 69.5 133.6 69.1 134.1 69.5 133.8 70.1" class="st12"/><polygon points="136.5 70.9 137.5 72.8 138.1 72.5 138.5 71.8" class="st11"/><polygon points="136.8 70 137.7 70.9 138.4 70.5 138.1 69.4 137.1 69.2" class="st11"/><polygon points="137 68.4 137.7 68.2 138.1 68.5 137.2 68.9" class="st10"/><polygon points="135.8 70.4 135.7 69.3 136.2 69.8" class="st12"/><polygon points="136.1 72.8 136.8 73 137.3 73.8 136.3 73.9" class="st10"/><polygon points="137.7 65.6 138.9 65 139.3 65.8 138.3 66.7" class="st12"/><polygon points="139.2 69 140 68.7 140.3 69.7 139.6 69.8" class="st12"/></g><g><polygon points="92.4 56.3 94.1 56.3 93.6 57.6 92.6 57.6" class="st10"/><polygon points="88.9 57.4 90.3 58.2 89.2 58.6" class="st11"/><polygon points="90.5 55.2 91.3 55.7 91.3 56.4 90.6 56.4" class="st12"/><polygon points="91.5 59.2 90.4 61 91 61.4 91.9 61.3" class="st11"/><polygon points="92.4 59 92.2 60.2 92.9 60.6 93.8 59.8 93.3 58.8" class="st11"/><polygon points="93.9 58.3 94.5 58.8 94.5 59.3 93.6 58.8" class="st10"/><polygon points="91.6 58.3 92.4 57.6 92.3 58.3" class="st12"/><polygon points="89.6 59.9 89.9 60.5 89.4 61.4 88.8 60.6" class="st10"/><polygon points="96.8 57.4 98 58.1 97.6 58.9 96.2 58.6" class="st12"/><polygon points="94.7 60.5 95.5 61 94.7 61.9 94.2 61.3" class="st12"/></g><g><polygon points="100.2 79.5 101.4 79.2 101 80.5 100.3 80.7" class="st10"/><polygon points="97.4 81.2 98.4 81.7 97.6 82.2" class="st11"/><polygon points="98.8 78.8 99.4 79.1 99.3 79.8 98.8 79.9" class="st12"/><polygon points="99.3 82.4 98.3 84.3 98.8 84.5 99.4 84.3" class="st11"/><polygon points="100 82 99.7 83.2 100.2 83.4 101 82.5 100.7 81.7" class="st11"/><polygon points="101.2 81.1 101.6 81.4 101.6 81.9 100.9 81.6" class="st10"/><polygon points="99.4 81.5 100.1 80.8 100 81.4" class="st12"/><polygon points="97.8 83.3 98 83.9 97.6 84.8 97.2 84.2" class="st10"/><polygon points="103.4 79.7 104.3 80.1 103.9 81 102.8 80.9" class="st12"/><polygon points="101.6 83 102.2 83.4 101.5 84.3 101.2 83.8" class="st12"/></g><g><path d="M68.2,84c0,0,0.5,0.2,1,0.3c0.5,0.2,1,0.3,1,0.3s-0.1,0.3-0.3,0.7c-0.1,0.3-0.3,0.7-0.3,0.7 s-0.3-0.1-0.6-0.2c-0.3-0.1-0.6-0.2-0.6-0.2s-0.1-0.4-0.1-0.8C68.3,84.4,68.2,84,68.2,84z" class="st10"/><path d="M63.5,84.1c0,0,0.1,0,0.3,0.1c0.2,0.1,0.4,0.2,0.7,0.3c0.5,0.3,0.9,0.7,0.9,0.7s-0.4,0-0.7,0 c-0.3,0-0.6,0.1-0.6,0.1s-0.1-0.3-0.2-0.6C63.7,84.4,63.5,84.1,63.5,84.1z" class="st11"/><path d="M64.8,81.7c0,0,0.1,0.1,0.3,0.1c0.2,0.1,0.4,0.2,0.7,0.3c0.5,0.3,0.8,0.5,0.8,0.5s0,0.2,0,0.4 c0,0.2,0,0.4,0,0.4s-0.3-0.1-0.5-0.2c-0.3-0.1-0.6-0.2-0.6-0.2s-0.1-0.4-0.3-0.7C65.1,82.1,64.8,81.7,64.8,81.7z" class="st12"/><path d="M67,86.8l-1.3,1.7c0,0,0.2,0.2,0.4,0.3c0.2,0.2,0.4,0.3,0.4,0.3s0.3,0.1,0.6,0.2c0.3,0.1,0.6,0.1,0.6,0.1 s-0.2-0.7-0.4-1.3C67.1,87.5,67,86.8,67,86.8z" class="st11"/><path d="M68.3,87c0,0-0.1,0.3-0.1,0.6C68.1,88,68,88.3,68,88.3s0.3,0.2,0.5,0.4c0.3,0.2,0.6,0.4,0.6,0.4 s0.3-0.2,0.5-0.4c0.3-0.2,0.5-0.4,0.5-0.4s-0.2-0.3-0.4-0.6c-0.2-0.3-0.3-0.6-0.3-0.6s-0.3,0-0.6-0.1C68.6,87.1,68.3,87,68.3,87z" class="st11"/><path d="M70.2,86.8c0,0,0.2,0.2,0.4,0.3c0.2,0.2,0.4,0.3,0.4,0.3l0.1,0.6c0,0-0.3-0.2-0.6-0.4 c-0.3-0.2-0.6-0.4-0.6-0.4L70.2,86.8z" class="st10"/><polygon points="67.1 85.8 68.2 85.5 68 86.1" class="st12"/><path d="M64.6,86.8c0,0,0.1,0.2,0.2,0.4c0.1,0.2,0.2,0.5,0.2,0.5l-0.6,0.7c0,0-0.2-0.3-0.4-0.6 c-0.2-0.3-0.4-0.5-0.4-0.5s0.2-0.1,0.5-0.3C64.3,86.9,64.6,86.8,64.6,86.8z" class="st10"/><path d="M73.6,86.2c0,0,0.1,0,0.2,0.1c0.1,0.1,0.3,0.1,0.5,0.2c0.2,0.1,0.4,0.1,0.5,0.2c0.1,0,0.2,0.1,0.2,0.1 l-0.3,0.9c0,0-0.1,0-0.3,0c-0.2,0-0.4,0-0.6-0.1c-0.2,0-0.4-0.1-0.6-0.1c-0.2,0-0.3-0.1-0.3-0.1L73.6,86.2z" class="st12"/><path d="M71.6,89.3c0,0,0.1,0,0.2,0.1c0.1,0.1,0.3,0.2,0.4,0.3c0.3,0.2,0.7,0.4,0.7,0.4s-0.2,0.2-0.4,0.4 c-0.2,0.2-0.4,0.4-0.4,0.4s-0.3-0.2-0.5-0.4c-0.2-0.2-0.5-0.4-0.5-0.4L71.6,89.3z" class="st12"/></g><g><path d="M131.3,84.8c0,0,0.2-0.4,0.5-0.8c0.1-0.2,0.2-0.4,0.3-0.6c0.1-0.2,0.2-0.3,0.2-0.3s0.3,0.2,0.5,0.5 c0.3,0.2,0.5,0.5,0.5,0.5s-0.2,0.2-0.3,0.5c-0.1,0.2-0.3,0.5-0.3,0.5s-0.3-0.1-0.7-0.2C131.6,84.9,131.3,84.8,131.3,84.8z" class="st10"/><path d="M130.6,88.8c0,0,0.4-0.3,0.7-0.5c0.4-0.3,0.7-0.5,0.7-0.5l-0.2,1.2L130.6,88.8z" class="st11"/><path d="M129.2,86.3l0.8-0.6l0.7,0.3c0,0-0.1,0.2-0.2,0.3c-0.1,0.2-0.2,0.3-0.2,0.3L129.2,86.3z" class="st12"/><path d="M133.5,86.9l1.2,1.7l0.6-0.4c0,0,0.1-0.2,0.2-0.4c0.1-0.2,0.2-0.4,0.2-0.4s-0.5-0.2-1.1-0.3 C134.1,87,133.5,86.9,133.5,86.9z" class="st11"/><path d="M133.9,85.9c0,0,0.2,0.2,0.5,0.4c0.2,0.2,0.5,0.4,0.5,0.4s0.2-0.1,0.4-0.2c0.2-0.1,0.4-0.2,0.4-0.2 s-0.1-0.3-0.1-0.6c-0.1-0.3-0.1-0.6-0.1-0.6s-0.3,0-0.6,0c-0.3,0-0.6,0-0.6,0s-0.1,0.2-0.2,0.5C133.9,85.7,133.9,85.9,133.9,85.9z" class="st11"/><path d="M134.1,84.2c0,0,0.2-0.1,0.4-0.2c0.2-0.1,0.4-0.2,0.4-0.2l0.5,0.3c0,0-0.3,0.1-0.5,0.3 c-0.3,0.2-0.5,0.3-0.5,0.3L134.1,84.2z" class="st10"/><polygon points="132.7 86.4 132.6 85.4 133.1 85.7" class="st12"/><polygon points="133.3 88.9 134 88.9 134.6 89.7 133.6 90" class="st10"/><path d="M135.3,81c0,0,0.4-0.2,0.8-0.4c0.4-0.2,0.8-0.3,0.8-0.3l0.3,0.9c0,0-0.4,0.2-0.7,0.5 c-0.4,0.3-0.7,0.5-0.7,0.5L135.3,81z" class="st12"/><path d="M136.5,84.5c0,0,0.3-0.1,0.5-0.2c0.3-0.1,0.5-0.2,0.5-0.2s0,0.3,0.1,0.6c0,0.3,0.1,0.6,0.1,0.6s-0.2,0-0.4,0 c-0.2,0-0.4,0-0.4,0L136.5,84.5z" class="st12"/></g><g><path d="M133.9,68.5c0,0,0.3,0.2,0.6,0.4c0.3,0.2,0.6,0.4,0.6,0.4l-1.2,0.7l-0.7-0.5c0,0,0.2-0.3,0.4-0.6 C133.7,68.8,133.9,68.5,133.9,68.5z" class="st10"/><path d="M131,68.3C131,68.3,131,68.3,131,68.3c0,0,0.1,0,0.1,0c0.1,0,0.1,0,0.2,0c0.1-0.1,0.2-0.2,0.2-0.3 c0-0.2,0-0.3-0.1-0.3c0,0-0.1-0.1-0.1-0.1c0,0-0.1-0.1-0.3-0.1c-0.1,0-0.1,0-0.2,0c-0.1,0-0.1,0.1-0.2,0.1c0,0,0,0-0.1,0.1 c0,0,0,0.1-0.1,0.1c-0.1,0.1-0.1,0.3,0,0.3c0,0.2,0.1,0.3,0.1,0.3c0.1,0.3,0.3,0.6,0.3,0.6l-1-0.2c0,0,0,0,0.1-0.2 c0-0.1,0-0.2,0-0.3c0-0.1,0-0.3,0.1-0.6c0.1-0.1,0.1-0.2,0.3-0.4l0,0c0.1-0.1,0.1-0.1,0.2-0.1c0.1,0,0.3-0.1,0.4,0 c0.3,0.1,0.4,0.2,0.4,0.3c0.1,0.1,0.1,0.2,0.1,0.2c0,0.1,0,0.2,0,0.3c0,0,0,0.1,0,0.1c0,0,0,0.1-0.1,0.1c-0.1,0.1-0.2,0.1-0.2,0.1 C131.2,68.3,131.1,68.3,131,68.3C131.1,68.3,131.1,68.3,131,68.3C131,68.3,131,68.3,131,68.3z" class="st11"/><path d="M131.1,67.9C131.1,67.9,131.1,67.9,131.1,67.9c0,0,0,0,0.1,0c0.1,0,0.2,0,0.4-0.1l0.1,0l0,0l1.4-0.7l0,0l0,0 l0,0.1c0.1,0.2,0.2,0.4,0.2,0.4l-0.5,0.5c0,0-0.1-0.1-0.3-0.2c-0.1-0.1-0.3-0.2-0.3-0.2s0-0.1,0.1-0.1c0,0,0.1-0.1,0.1-0.1 c0,0,0-0.1,0.1-0.1c-0.3,0.1-0.6,0.3-0.9,0.4l-0.1,0C131.4,67.9,131.2,67.9,131.1,67.9C131.1,67.9,131.1,67.9,131.1,67.9 C131.1,67.9,131.1,67.9,131.1,67.9z" class="st12"/><path d="M131.3,70.2l-1.9,0.8l0.2,0.5l0.6,0.3c0,0,0.3-0.4,0.6-0.8C131,70.6,131.3,70.2,131.3,70.2z" class="st11"/><path d="M132.1,70.5l-1,0.7l0.3,0.6l1.2-0.2c0,0,0.1-0.2,0.2-0.4c0.1-0.2,0.2-0.4,0.2-0.4L132.1,70.5z" class="st11"/><polygon points="133.7 70.8 133.8 71.4 133.4 71.8 133.1 70.9" class="st10"/><polygon points="131.9 69.6 133 69.5 132.5 69.9" class="st12"/><path d="M129.5,69.8l-0.2,0.6l-0.9,0.4l0-0.8c0,0,0.3-0.1,0.5-0.1C129.3,69.9,129.5,69.8,129.5,69.8z" class="st10"/><path d="M136.4,71.7c0,0,0.1,0.3,0.2,0.6c0.1,0.3,0.2,0.6,0.2,0.6l-0.9,0.3c0,0-0.2-0.3-0.4-0.5 c-0.2-0.3-0.4-0.5-0.4-0.5L136.4,71.7z" class="st12"/><polygon points="132.8 72.6 132.9 73.5 131.8 73.6 131.8 73" class="st12"/></g><g><path d="M82.9,59.8c0,0,0.3,0.1,0.7,0.2c0.3,0.1,0.7,0.2,0.7,0.2l-1,1c0,0-0.2-0.1-0.4-0.1c-0.2-0.1-0.4-0.1-0.4-0.1 s0.1-0.3,0.2-0.6C82.7,60.1,82.9,59.8,82.9,59.8z" class="st10"/><path d="M79.5,60.2c0,0,0.2,0.2,0.4,0.4c0.2,0.2,0.4,0.4,0.4,0.4s-0.3,0-0.5,0.1c-0.2,0-0.5,0.1-0.5,0.1 s0.1-0.2,0.1-0.5C79.4,60.5,79.5,60.2,79.5,60.2z" class="st11"/><path d="M81.6,58.5c0,0,0.1,0.1,0.3,0.3c0.1,0.1,0.3,0.3,0.3,0.3l-0.3,0.6l-0.6-0.1c0,0,0.1-0.3,0.2-0.5 C81.6,58.8,81.6,58.5,81.6,58.5z" class="st12"/><path d="M80.8,62.1l-1.7,1.3l0.3,0.4c0,0,0.2,0,0.3,0c0.2,0,0.3,0.1,0.3,0.1s0.2-0.4,0.4-0.9 C80.6,62.5,80.8,62.1,80.8,62.1z" class="st11"/><path d="M81.6,62.1c0,0-0.2,0.2-0.4,0.5C81,62.8,80.8,63,80.8,63s0.1,0.1,0.2,0.2c0.1,0.1,0.2,0.2,0.2,0.2l1.1-0.5 c0,0,0-0.2,0.1-0.4c0-0.2,0.1-0.4,0.1-0.4s-0.2,0-0.4,0C81.8,62.1,81.6,62.1,81.6,62.1z" class="st11"/><path d="M83.1,61.9c0,0,0.1,0.1,0.1,0.3c0.1,0.1,0.1,0.3,0.1,0.3l-0.3,0.4c0,0-0.1-0.2-0.2-0.3 c-0.1-0.2-0.2-0.3-0.2-0.3L83.1,61.9z" class="st10"/><path d="M81.3,61.3c0,0,0.2-0.1,0.5-0.2c0.2-0.1,0.5-0.2,0.5-0.2l-0.4,0.5c0,0-0.1,0-0.3-0.1 C81.4,61.4,81.3,61.3,81.3,61.3z" class="st12"/><path d="M79.1,62.3c0,0,0,0.1-0.1,0.3c0,0.1-0.1,0.3-0.1,0.3l-0.7,0.6c0,0,0-0.2,0-0.3c0-0.2,0-0.3,0-0.3 s0.2-0.1,0.5-0.3C78.8,62.5,79.1,62.3,79.1,62.3z" class="st10"/><path d="M85.9,62.1c0,0,0.1,0.3,0.3,0.5c0.1,0.3,0.3,0.5,0.3,0.5l-0.8,0.4c0,0-0.2-0.2-0.4-0.4 c-0.2-0.2-0.5-0.4-0.5-0.4L85.9,62.1z" class="st12"/><path d="M82.6,63.8c0,0,0.1,0.2,0.1,0.3c0.1,0.2,0.1,0.3,0.1,0.3l-1,0.4l0-0.6L82.6,63.8z" class="st12"/></g><g><path d="M113.1,73.5c0,0,0.3-0.1,0.5-0.1c0.2-0.1,0.5-0.1,0.5-0.1l-0.6,1.2c0,0-0.2,0-0.3,0.1 c-0.2,0-0.3,0.1-0.3,0.1s0-0.3,0.1-0.6C113,73.8,113.1,73.5,113.1,73.5z" class="st10"/><path d="M110.3,74.9c0,0,0.2,0.1,0.4,0.3c0.2,0.1,0.4,0.3,0.4,0.3s-0.2,0.1-0.4,0.2c-0.2,0.1-0.4,0.2-0.4,0.2 s0-0.2,0.1-0.5C110.3,75.2,110.3,74.9,110.3,74.9z" class="st11"/><path d="M112.1,72.9l0.4,0.3l-0.2,0.6l-0.5,0.1c0,0,0.1-0.3,0.2-0.5C112,73.1,112.1,72.9,112.1,72.9z" class="st12"/><path d="M111.7,76.2l-1.1,1.8l0.4,0.3c0,0,0.2,0,0.3-0.1c0.2,0,0.3-0.1,0.3-0.1s0-0.5,0-0.9 C111.7,76.7,111.7,76.2,111.7,76.2z" class="st11"/><path d="M112.4,75.9l-0.4,1.1l0.5,0.3l0.7-0.9c0,0,0-0.2-0.1-0.4c0-0.2-0.1-0.4-0.1-0.4s-0.2,0.1-0.3,0.2 C112.6,75.9,112.4,75.9,112.4,75.9z" class="st11"/><path d="M113.6,75l0.3,0.3l-0.1,0.5c0,0-0.1-0.1-0.3-0.1c-0.1-0.1-0.3-0.1-0.3-0.1L113.6,75z" class="st10"/><path d="M112,75.4c0,0,0.2-0.2,0.4-0.3c0.2-0.2,0.4-0.3,0.4-0.3l-0.2,0.6L112,75.4z" class="st12"/><path d="M110.2,77l0.1,0.6l-0.5,0.8c0,0-0.1-0.2-0.2-0.3c-0.1-0.2-0.2-0.3-0.2-0.3L110.2,77z" class="st10"/><path d="M115.5,73.6c0,0,0.1,0.1,0.3,0.1c0.2,0.1,0.3,0.1,0.3,0.1l-0.4,0.8c0,0-0.2,0-0.4,0c-0.2,0-0.4,0-0.4,0 L115.5,73.6z" class="st12"/><polygon points="113.7 76.8 114.2 77.2 113.6 78.1 113.3 77.7" class="st12"/></g><path d="M133.1,66.2c-1.1,2.1-0.9,6.6,1,7.4c2,0.8,6.4,3.2,7.6,2.2c1.2-1.1,2.9-1.7,2.9-3.3c0-1.5,0-3.6-1.7-4.8 C141.3,66.6,135.4,61.8,133.1,66.2z" class="st9"/><g><path d="M138.9,69c2.5,0,4.5,1.6,4.5,3.5c0,1.9-2,3.5-4.5,3.5c-2.5,0-4.5-1.6-4.5-3.5C134.4,70.6,136.4,69,138.9,69 M138.9,68.6c-2.8,0-5.1,1.8-5.1,3.9c0,2.2,2.3,3.9,5.1,3.9c2.8,0,5.1-1.8,5.1-3.9C144,70.3,141.7,68.6,138.9,68.6L138.9,68.6z" class="st20"/><path d="M138.9,77c-3.2,0-5.8-2-5.8-4.5c0-2.5,2.6-4.5,5.8-4.5s5.8,2,5.8,4.5C144.7,75,142.1,77,138.9,77z M138.9,68.4c-2.9,0-5.3,1.8-5.3,4.1c0,2.3,2.4,4.1,5.3,4.1c2.9,0,5.3-1.8,5.3-4.1C144.1,70.3,141.8,68.4,138.9,68.4z" class="st21"/><path d="M138.9,76.6c-3.2,0-5.8-2-5.8-4.5c0-2.5,2.6-4.5,5.8-4.5s5.8,2,5.8,4.5C144.7,74.6,142.1,76.6,138.9,76.6z M138.9,68c-2.9,0-5.3,1.8-5.3,4.1s2.4,4.1,5.3,4.1c2.9,0,5.3-1.8,5.3-4.1S141.8,68,138.9,68z" class="st22"/><path d="M138.9,76.4c-3,0-5.4-1.9-5.4-4.2s2.4-4.2,5.4-4.2c3,0,5.4,1.9,5.4,4.2S141.9,76.4,138.9,76.4z M138.9,68.2 c-2.8,0-5.1,1.8-5.1,3.9c0,2.2,2.3,3.9,5.1,3.9c2.8,0,5.1-1.8,5.1-3.9C144,70,141.7,68.2,138.9,68.2z" class="st23"/><path d="M138.9,68.6c2.5,0,4.5,1.6,4.5,3.5c0,1.9-2,3.5-4.5,3.5c-2.5,0-4.5-1.6-4.5-3.5 C134.4,70.2,136.4,68.6,138.9,68.6 M138.9,68.2c-2.8,0-5.1,1.8-5.1,3.9c0,2.2,2.3,3.9,5.1,3.9c2.8,0,5.1-1.8,5.1-3.9 C144,70,141.7,68.2,138.9,68.2L138.9,68.2z" class="st24"/></g><g><path d="M89,81.2c2.5,0,4.5,1.6,4.5,3.5c0,1.9-2,3.5-4.5,3.5c-2.5,0-4.5-1.6-4.5-3.5C84.5,82.8,86.5,81.2,89,81.2 M89,80.8c-2.8,0-5.1,1.8-5.1,3.9c0,2.2,2.3,3.9,5.1,3.9c2.8,0,5.1-1.8,5.1-3.9C94.1,82.5,91.8,80.8,89,80.8L89,80.8z" class="st20"/><path d="M89,89.2c-3.2,0-5.8-2-5.8-4.5c0-2.5,2.6-4.5,5.8-4.5c3.2,0,5.8,2,5.8,4.5C94.8,87.2,92.2,89.2,89,89.2z M89,80.6c-2.9,0-5.3,1.8-5.3,4.1c0,2.3,2.4,4.1,5.3,4.1c2.9,0,5.3-1.8,5.3-4.1C94.3,82.4,91.9,80.6,89,80.6z" class="st21"/><path d="M89,88.8c-3.2,0-5.8-2-5.8-4.5c0-2.5,2.6-4.5,5.8-4.5c3.2,0,5.8,2,5.8,4.5C94.8,86.8,92.2,88.8,89,88.8z M89,80.2c-2.9,0-5.3,1.8-5.3,4.1s2.4,4.1,5.3,4.1c2.9,0,5.3-1.8,5.3-4.1S91.9,80.2,89,80.2z" class="st22"/><path d="M89,88.5c-3,0-5.4-1.9-5.4-4.2s2.4-4.2,5.4-4.2c3,0,5.4,1.9,5.4,4.2S92,88.5,89,88.5z M89,80.4 c-2.8,0-5.1,1.8-5.1,3.9c0,2.2,2.3,3.9,5.1,3.9c2.8,0,5.1-1.8,5.1-3.9C94.1,82.1,91.8,80.4,89,80.4z" class="st23"/><path d="M89,80.8c2.5,0,4.5,1.6,4.5,3.5c0,1.9-2,3.5-4.5,3.5c-2.5,0-4.5-1.6-4.5-3.5C84.5,82.4,86.5,80.8,89,80.8 M89,80.4c-2.8,0-5.1,1.8-5.1,3.9c0,2.2,2.3,3.9,5.1,3.9c2.8,0,5.1-1.8,5.1-3.9C94.1,82.1,91.8,80.4,89,80.4L89,80.4z" class="st24"/></g><g><path d="M93.5,60.4c2.5,0,4.5,1.6,4.5,3.5c0,1.9-2,3.5-4.5,3.5S89,65.9,89,63.9C89,62,91,60.4,93.5,60.4 M93.5,60 c-2.8,0-5.1,1.8-5.1,3.9c0,2.2,2.3,3.9,5.1,3.9c2.8,0,5.1-1.8,5.1-3.9C98.6,61.7,96.3,60,93.5,60L93.5,60z" class="st20"/><path d="M93.5,68.4c-3.2,0-5.8-2-5.8-4.5c0-2.5,2.6-4.5,5.8-4.5c3.2,0,5.8,2,5.8,4.5C99.3,66.4,96.7,68.4,93.5,68.4z M93.5,59.8c-2.9,0-5.3,1.8-5.3,4.1c0,2.3,2.4,4.1,5.3,4.1c2.9,0,5.3-1.8,5.3-4.1C98.8,61.7,96.4,59.8,93.5,59.8z" class="st21"/><path d="M93.5,68c-3.2,0-5.8-2-5.8-4.5c0-2.5,2.6-4.5,5.8-4.5c3.2,0,5.8,2,5.8,4.5C99.3,66,96.7,68,93.5,68z M93.5,59.4c-2.9,0-5.3,1.8-5.3,4.1s2.4,4.1,5.3,4.1c2.9,0,5.3-1.8,5.3-4.1S96.4,59.4,93.5,59.4z" class="st22"/><path d="M93.5,67.8c-3,0-5.4-1.9-5.4-4.2s2.4-4.2,5.4-4.2c3,0,5.4,1.9,5.4,4.2S96.5,67.8,93.5,67.8z M93.5,59.6 c-2.8,0-5.1,1.8-5.1,3.9c0,2.2,2.3,3.9,5.1,3.9c2.8,0,5.1-1.8,5.1-3.9C98.6,61.4,96.3,59.6,93.5,59.6z" class="st23"/><path d="M93.5,60c2.5,0,4.5,1.6,4.5,3.5c0,1.9-2,3.5-4.5,3.5S89,65.5,89,63.5C89,61.6,91,60,93.5,60 M93.5,59.6 c-2.8,0-5.1,1.8-5.1,3.9c0,2.2,2.3,3.9,5.1,3.9c2.8,0,5.1-1.8,5.1-3.9C98.6,61.4,96.3,59.6,93.5,59.6L93.5,59.6z" class="st24"/></g><g><path d="M66.4,64.9c2.5,0,4.5,1.6,4.5,3.5c0,1.9-2,3.5-4.5,3.5c-2.5,0-4.5-1.6-4.5-3.5 C61.9,66.4,63.9,64.9,66.4,64.9 M66.4,64.4c-2.8,0-5.1,1.8-5.1,3.9s2.3,3.9,5.1,3.9c2.8,0,5.1-1.8,5.1-3.9S69.2,64.4,66.4,64.4 L66.4,64.4z" class="st20"/><path d="M66.4,72.9c-3.2,0-5.8-2-5.8-4.5s2.6-4.5,5.8-4.5c3.2,0,5.8,2,5.8,4.5S69.6,72.9,66.4,72.9z M66.4,64.3 c-2.9,0-5.3,1.8-5.3,4.1s2.4,4.1,5.3,4.1c2.9,0,5.3-1.8,5.3-4.1S69.3,64.3,66.4,64.3z" class="st21"/><path d="M66.4,72.5c-3.2,0-5.8-2-5.8-4.5c0-2.5,2.6-4.5,5.8-4.5c3.2,0,5.8,2,5.8,4.5C72.2,70.5,69.6,72.5,66.4,72.5z M66.4,63.9c-2.9,0-5.3,1.8-5.3,4.1s2.4,4.1,5.3,4.1c2.9,0,5.3-1.8,5.3-4.1S69.3,63.9,66.4,63.9z" class="st22"/><path d="M66.4,72.2c-3,0-5.4-1.9-5.4-4.2c0-2.3,2.4-4.2,5.4-4.2c3,0,5.4,1.9,5.4,4.2C71.8,70.3,69.4,72.2,66.4,72.2z M66.4,64c-2.8,0-5.1,1.8-5.1,3.9c0,2.2,2.3,3.9,5.1,3.9c2.8,0,5.1-1.8,5.1-3.9C71.5,65.8,69.2,64,66.4,64z" class="st23"/><path d="M66.4,64.5c2.5,0,4.5,1.6,4.5,3.5c0,1.9-2,3.5-4.5,3.5c-2.5,0-4.5-1.6-4.5-3.5 C61.9,66.1,63.9,64.5,66.4,64.5 M66.4,64c-2.8,0-5.1,1.8-5.1,3.9c0,2.2,2.3,3.9,5.1,3.9c2.8,0,5.1-1.8,5.1-3.9 C71.5,65.8,69.2,64,66.4,64L66.4,64z" class="st24"/></g><g><path d="M105.3,58.6c-0.1,2.3-3.1,4-6.7,3.8c-3.6-0.2-6.4-2.2-6.2-4.5c0.1-2.3,3.1-4,6.7-3.8 C102.6,54.3,105.4,56.3,105.3,58.6z" class="st14"/><path d="M105.1,58.2c-0.1,2.2-3,3.9-6.5,3.7c-3.5-0.2-6.2-2.1-6.1-4.4c0.1-2.2,3-3.9,6.5-3.7 C102.5,54,105.2,55.9,105.1,58.2z" class="st15"/><path d="M100.9,55.6c0,0.7-0.9,1.2-2,1.1c-1-0.1-1.9-0.6-1.8-1.3c0-0.7,0.9-1.2,2-1.1 C100.1,54.3,100.9,54.9,100.9,55.6z" class="st16"/><path d="M96.1,56.8c0,0.3-0.4,0.6-0.9,0.5c-0.5,0-0.9-0.3-0.9-0.6c0-0.3,0.4-0.6,0.9-0.5 C95.7,56.2,96.1,56.5,96.1,56.8z" class="st16"/><path d="M102.3,60.2c0,0.3-0.4,0.6-0.9,0.5c-0.5,0-0.9-0.3-0.9-0.6c0-0.3,0.4-0.6,0.9-0.5 C101.9,59.6,102.3,59.8,102.3,60.2z" class="st16"/><path d="M103.2,57.7c0,0.5-0.6,0.8-1.3,0.8c-0.7,0-1.3-0.4-1.2-0.9c0-0.5,0.6-0.8,1.3-0.8 C102.7,56.8,103.2,57.2,103.2,57.7z" class="st16"/><path d="M99.9,58.4c0,0.4-0.5,0.7-1.1,0.6c-0.6,0-1.1-0.4-1-0.8c0-0.4,0.5-0.7,1.1-0.6C99.4,57.6,99.9,58,99.9,58.4z" class="st16"/><path d="M98.3,59.9c0,0.5-0.6,0.8-1.4,0.8c-0.7,0-1.3-0.5-1.3-0.9c0-0.5,0.6-0.8,1.4-0.8 C97.8,59.1,98.3,59.5,98.3,59.9z" class="st16"/></g><path d="M83.3,57.4c-0.7,1.3-0.6,4.1,0.6,4.7c1.3,0.5,4.1,2,4.9,1.4c0.8-0.7,1.9-1.1,1.9-2c0-1,0-2.3-1.1-3 C88.6,57.6,84.8,54.6,83.3,57.4z" class="st9"/><path d="M82.6,88.1c-0.8,1.6-0.7,4.8,0.8,5.5c1.5,0.6,4.8,2.4,5.7,1.6c0.9-0.8,2.2-1.3,2.2-2.4c0-1.1,0-2.6-1.3-3.5 C88.8,88.4,84.3,84.9,82.6,88.1z" class="st9"/><g><path d="M108.9,96c2.5,0,4.5,1.6,4.5,3.5c0,1.9-2,3.5-4.5,3.5c-2.5,0-4.5-1.6-4.5-3.5C104.4,97.6,106.4,96,108.9,96 M108.9,95.6c-2.8,0-5.1,1.8-5.1,3.9c0,2.2,2.3,3.9,5.1,3.9c2.8,0,5.1-1.8,5.1-3.9C114,97.4,111.7,95.6,108.9,95.6L108.9,95.6z" class="st20"/><path d="M108.9,104.1c-3.2,0-5.8-2-5.8-4.5c0-2.5,2.6-4.5,5.8-4.5c3.2,0,5.8,2,5.8,4.5 C114.7,102,112.1,104.1,108.9,104.1z M108.9,95.5c-2.9,0-5.3,1.8-5.3,4.1c0,2.3,2.4,4.1,5.3,4.1c2.9,0,5.3-1.8,5.3-4.1 C114.2,97.3,111.8,95.5,108.9,95.5z" class="st21"/><path d="M108.9,103.7c-3.2,0-5.8-2-5.8-4.5c0-2.5,2.6-4.5,5.8-4.5c3.2,0,5.8,2,5.8,4.5 C114.7,101.6,112.1,103.7,108.9,103.7z M108.9,95.1c-2.9,0-5.3,1.8-5.3,4.1c0,2.3,2.4,4.1,5.3,4.1c2.9,0,5.3-1.8,5.3-4.1 C114.2,96.9,111.8,95.1,108.9,95.1z" class="st22"/><path d="M108.9,103.4c-3,0-5.4-1.9-5.4-4.2s2.4-4.2,5.4-4.2c3,0,5.4,1.9,5.4,4.2S111.9,103.4,108.9,103.4z M108.9,95.2c-2.8,0-5.1,1.8-5.1,3.9c0,2.2,2.3,3.9,5.1,3.9c2.8,0,5.1-1.8,5.1-3.9C114,97,111.7,95.2,108.9,95.2z" class="st23"/><path d="M108.9,95.6c2.5,0,4.5,1.6,4.5,3.5c0,1.9-2,3.5-4.5,3.5c-2.5,0-4.5-1.6-4.5-3.5 C104.4,97.2,106.4,95.6,108.9,95.6 M108.9,95.2c-2.8,0-5.1,1.8-5.1,3.9c0,2.2,2.3,3.9,5.1,3.9c2.8,0,5.1-1.8,5.1-3.9 C114,97,111.7,95.2,108.9,95.2L108.9,95.2z" class="st24"/></g><g><polygon points="139.4 71.3 141 70.6 141.3 71.9 140.3 72.4" class="st10"/><polygon points="136.5 74.1 138.3 74.1 137.4 75" class="st11"/><polygon points="136.8 71.4 137.9 71.4 138.3 72 137.6 72.4" class="st12"/><polygon points="140 74.4 140 76.5 140.8 76.5 141.6 76" class="st11"/><polygon points="140.9 73.7 141.3 74.9 142.3 74.9 142.6 73.7 141.7 73.1" class="st11"/><polygon points="142 72.4 142.8 72.5 143.1 72.9 141.9 72.9" class="st10"/><polygon points="139.6 73.5 140.1 72.5 140.3 73.2" class="st12"/><polygon points="138.6 75.8 139.2 76.3 139.2 77.3 138.2 76.9" class="st10"/><polygon points="144.3 70.2 145.9 70.2 145.9 71.1 144.3 71.5" class="st12"/><polygon points="143.9 73.9 145.1 74 144.8 75.1 143.9 74.8" class="st12"/></g><g><path d="M85.1,77.9c0,0,0.3,0.2,0.6,0.4c0.3,0.2,0.6,0.4,0.6,0.4l-1.1,0.9l-0.8-0.5L85.1,77.9z" class="st13"/><path d="M81.7,76.9c0,0,0.1,0.3,0.3,0.7c0.2,0.3,0.3,0.7,0.3,0.7s-0.3-0.1-0.5-0.2c-0.3-0.1-0.5-0.2-0.5-0.2 L81.7,76.9z" class="st13"/><path d="M84.3,76.1c0,0,0.1,0.2,0.2,0.4c0.1,0.2,0.2,0.4,0.2,0.4l-0.5,0.6l-0.6-0.4L84.3,76.1z" class="st13"/><path d="M82.7,79.7c0,0-0.5,0.2-1,0.4c-0.5,0.2-1,0.4-1,0.4l0.3,0.6l0.8,0.4c0,0,0.2-0.5,0.4-1 C82.5,80.2,82.7,79.7,82.7,79.7z" class="st13"/><path d="M83.6,80.1l-0.9,0.8l0.4,0.7c0,0,0.3-0.1,0.6-0.1c0.3-0.1,0.6-0.1,0.6-0.1l0.1-1c0,0-0.2-0.1-0.4-0.1 C83.8,80.2,83.6,80.1,83.6,80.1z" class="st13"/><path d="M85.2,80.3l0.3,0.7l-0.3,0.4c0,0-0.1-0.2-0.3-0.4c-0.1-0.2-0.3-0.4-0.3-0.4L85.2,80.3z" class="st13"/><path d="M83.3,79c0,0,0.3,0,0.5,0c0.3,0,0.5,0,0.5,0l-0.4,0.4L83.3,79z" class="st13"/><path d="M80.8,79.2l-0.2,0.7l-0.9,0.4l0-1c0,0,0.3,0,0.6,0C80.5,79.2,80.8,79.2,80.8,79.2z" class="st13"/><path d="M88.2,81C88.2,81,88.2,81.1,88.2,81c0.1,0.1,0.1,0.2,0.2,0.3c0.1,0.2,0.3,0.6,0.4,1c0.1,0.4,0.2,1,0.3,1.4 c0,0.2,0,0.4,0,0.5c0,0.1,0,0.2,0,0.2l-1-0.1c0,0,0-0.1,0-0.2c0-0.1,0-0.3,0-0.4c-0.1-0.3-0.2-0.8-0.3-1.1 c-0.2-0.3-0.3-0.6-0.5-0.8c-0.1-0.1-0.1-0.2-0.1-0.2c0,0-0.1-0.1-0.1-0.1s0.3-0.2,0.6-0.3C87.9,81.2,88.2,81,88.2,81z" class="st13"/><path d="M84.8,82.4c0,0,0.1,0.2,0.2,0.4c0.1,0.2,0.1,0.4,0.1,0.4s-0.3,0-0.6,0c-0.3,0-0.6,0.1-0.6,0.1s0-0.1,0-0.2 c0-0.1,0-0.3,0-0.3L84.8,82.4z" class="st13"/></g><g><path d="M77.2,95.6c0,0,0.3,0.1,0.6,0.2c0.3,0.1,0.6,0.2,0.6,0.2l-0.7,1.2c0,0-0.2,0-0.4-0.1c-0.2,0-0.4-0.1-0.4-0.1 L77.2,95.6z" class="st13"/><path d="M73.9,95.8c0,0,0.2,0.3,0.4,0.6c0.2,0.3,0.4,0.6,0.4,0.6s-0.3,0-0.5,0c-0.3,0-0.5,0-0.5,0L73.9,95.8z" class="st13"/><path d="M76.1,94.2c0,0,0.1,0.2,0.3,0.3c0.1,0.2,0.3,0.3,0.3,0.3l-0.3,0.7l-0.6-0.2L76.1,94.2z" class="st13"/><path d="M75.5,98.1c0,0-0.4,0.4-0.8,0.7c-0.4,0.4-0.8,0.7-0.8,0.7s0.1,0.1,0.2,0.3c0.1,0.1,0.2,0.3,0.2,0.3l0.8,0.2 c0,0,0.1-0.5,0.2-1.1C75.4,98.6,75.5,98.1,75.5,98.1z" class="st13"/><path d="M76.4,98.2l-0.6,1.1l0.6,0.6c0,0,0.3-0.2,0.5-0.3c0.3-0.2,0.5-0.3,0.5-0.3s0-0.2-0.1-0.5 c0-0.2-0.1-0.5-0.1-0.5s-0.2,0-0.4,0C76.6,98.2,76.4,98.2,76.4,98.2z" class="st13"/><path d="M77.9,97.8c0,0,0.1,0.1,0.2,0.3c0.1,0.1,0.2,0.3,0.2,0.3l-0.1,0.5c0,0-0.2-0.2-0.3-0.3 c-0.2-0.2-0.3-0.3-0.3-0.3L77.9,97.8z" class="st13"/><path d="M75.9,97.3c0,0,0.2-0.1,0.5-0.2c0.2-0.1,0.5-0.2,0.5-0.2l-0.3,0.6L75.9,97.3z" class="st13"/><path d="M73.6,98.2l0,0.7l-0.7,0.6c0,0-0.1-0.2-0.1-0.5c-0.1-0.2-0.1-0.5-0.1-0.5s0.3-0.1,0.5-0.2 C73.4,98.3,73.6,98.2,73.6,98.2z" class="st13"/><path d="M80.7,97.6C80.7,97.6,80.7,97.6,80.7,97.6c0.1,0.1,0.2,0.2,0.2,0.3c0.2,0.2,0.4,0.4,0.6,0.8 c0.2,0.4,0.5,0.8,0.6,1.2c0.1,0.2,0.1,0.4,0.2,0.5c0,0.1,0.1,0.2,0.1,0.2s-0.2,0.1-0.4,0.1c-0.2,0.1-0.4,0.1-0.4,0.1 s0-0.1-0.1-0.2c0-0.1-0.1-0.2-0.2-0.4c-0.1-0.3-0.4-0.7-0.6-0.9c-0.2-0.3-0.4-0.4-0.6-0.6c-0.1-0.1-0.1-0.1-0.2-0.1 c0,0-0.1,0-0.1,0s0.2-0.2,0.4-0.5C80.5,97.8,80.7,97.6,80.7,97.6z" class="st13"/><path d="M78,100c0,0,0.1,0.2,0.3,0.4c0.1,0.2,0.2,0.4,0.2,0.4s-0.3,0.1-0.5,0.2c-0.3,0.1-0.5,0.3-0.5,0.3 s0-0.1,0-0.2c0-0.1-0.1-0.3-0.1-0.3L78,100z" class="st13"/></g><g><path d="M112.3,94.7c0,0,0.3-0.1,0.6-0.3c0.3-0.1,0.6-0.3,0.6-0.3l0.2,1.4l-0.7,0.4L112.3,94.7z" class="st13"/><path d="M109.9,97.1c0,0,0.3,0.1,0.7,0.1c0.3,0.1,0.7,0.1,0.7,0.1l-0.8,0.7L109.9,97.1z" class="st13"/><polygon points="110.5 94.4 111.3 94.6 111.6 95.2 111 95.5" class="st13"/><path d="M112.6,97.8c0,0,0,0.5-0.1,1c0,0.5-0.1,1-0.1,1l0.6,0.1l0.7-0.4c0,0-0.3-0.4-0.6-0.9 C112.9,98.2,112.6,97.8,112.6,97.8z" class="st13"/><path d="M113.3,97.2l0.3,1.2l0.8,0.1c0,0,0.1-0.3,0.2-0.6c0.1-0.3,0.2-0.6,0.2-0.6l-0.7-0.7L113.3,97.2z" class="st13"/><polygon points="114.2 96 114.8 96.1 115 96.6 114.1 96.5" class="st13"/><polygon points="112.3 96.9 112.7 96 112.9 96.6" class="st13"/><polygon points="111.4 99.1 111.8 99.6 111.7 100.5 110.9 100" class="st13"/><path d="M116.1,94C116.1,94,116.2,94,116.1,94c0.2,0,0.2,0,0.4,0.1c0.2,0,0.6,0.1,1,0.3c0.4,0.1,0.9,0.4,1.2,0.6 c0.2,0.1,0.3,0.2,0.4,0.3c0.1,0.1,0.2,0.1,0.2,0.1l-0.5,0.7c0,0,0,0-0.1-0.1c-0.1-0.1-0.2-0.1-0.4-0.2c-0.3-0.2-0.7-0.3-1-0.4 c-0.3-0.1-0.6-0.1-0.8-0.1c-0.1,0-0.2,0-0.2,0c-0.1,0-0.1,0-0.1,0s0-0.3,0-0.6C116.1,94.3,116.1,94,116.1,94z" class="st13"/><path d="M115.7,97.6c0,0,0.2,0,0.4,0.1c0.2,0.1,0.4,0.2,0.4,0.2s-0.1,0.2-0.2,0.5c-0.1,0.3-0.2,0.5-0.2,0.5 s-0.1-0.1-0.2-0.2c-0.1-0.1-0.3-0.2-0.3-0.2L115.7,97.6z" class="st13"/></g><g><polygon points="130.5 88.9 131.3 87.8 132.1 88.9 131.7 89.6" class="st13"/><polygon points="129.7 92 131 91.6 130.7 92.6" class="st13"/><polygon points="128.9 89.5 129.6 89.2 130.2 89.6 129.8 90.1" class="st13"/><polygon points="132.3 91.3 133.2 93.2 133.8 93 134.2 92.4" class="st13"/><polygon points="132.6 90.6 133.4 91.5 134.1 91.2 133.9 90.1 132.9 89.8" class="st13"/><polygon points="132.8 89.1 133.4 88.9 133.8 89.3 133 89.6" class="st13"/><polygon points="131.7 90.7 131.6 89.7 132 90.2" class="st13"/><polygon points="131.9 93 132.6 93.3 133 94.1 132.1 94.1" class="st13"/><path d="M133.6,86.5C133.6,86.5,133.7,86.5,133.6,86.5c0.1,0,0.2-0.1,0.3-0.1c0.2-0.1,0.5-0.1,1-0.2 c0.4,0,0.9,0,1.3,0.1c0.2,0,0.4,0.1,0.5,0.1c0.1,0,0.2,0.1,0.2,0.1l-0.2,0.8c0,0-0.1,0-0.2,0c-0.1,0-0.2,0-0.4-0.1 c-0.3,0-0.7,0-1.1,0.1c-0.3,0.1-0.6,0.2-0.7,0.3c-0.1,0-0.1,0.1-0.2,0.1c0,0-0.1,0-0.1,0L133.6,86.5z" class="st13"/><path d="M134.8,89.9c0,0,0.2,0,0.4-0.1c0.2,0,0.4,0,0.4,0s0,0.3,0,0.5c0,0.3,0.1,0.5,0.1,0.5s-0.1,0-0.2-0.1 c-0.1,0-0.3,0-0.3,0L134.8,89.9z" class="st13"/></g><g><polygon points="124.9 78.2 126.2 78.5 125.5 79.7 124.7 79.5" class="st13"/><polygon points="121.6 78.6 122.6 79.6 121.5 79.7" class="st13"/><polygon points="123.7 76.9 124.3 77.5 124.1 78.2 123.5 78" class="st13"/><polygon points="123.3 80.8 121.9 82.3 122.3 82.8 123 82.9" class="st13"/><polygon points="124.2 80.8 123.6 81.9 124.1 82.4 125.1 81.7 125 80.8" class="st13"/><polygon points="125.6 80.4 126 80.9 125.9 81.4 125.2 80.8" class="st13"/><polygon points="123.6 79.9 124.5 79.5 124.2 80.1" class="st13"/><polygon points="121.5 81 121.6 81.7 120.9 82.4 120.6 81.6" class="st13"/><path d="M128.4,80.2C128.4,80.2,128.4,80.2,128.4,80.2c0.1,0.1,0.2,0.2,0.2,0.3c0.1,0.2,0.3,0.5,0.5,0.8 c0.2,0.4,0.4,0.9,0.5,1.3c0,0.2,0.1,0.4,0.1,0.5c0,0.1,0,0.2,0,0.2l-0.8,0.1c0,0,0-0.1,0-0.2c0-0.1-0.1-0.2-0.1-0.4 c-0.1-0.3-0.3-0.7-0.5-0.9c-0.2-0.3-0.4-0.5-0.5-0.6c-0.1-0.1-0.1-0.1-0.2-0.1c0,0-0.1,0-0.1,0L128.4,80.2z" class="st13"/><path d="M125.7,82.6c0,0,0.1,0.2,0.2,0.4c0.1,0.2,0.2,0.4,0.2,0.4s-0.2,0.1-0.5,0.2c-0.2,0.1-0.5,0.3-0.5,0.3 s0-0.1,0-0.2c0-0.1-0.1-0.3-0.1-0.3L125.7,82.6z" class="st13"/></g><g><path d="M132.6,67.3c0,0,0.1,0.3,0.3,0.7c0.1,0.3,0.2,0.7,0.2,0.7s-0.3,0-0.7,0c-0.3,0-0.7,0-0.7,0s-0.1-0.2-0.2-0.4 c-0.1-0.2-0.2-0.4-0.2-0.4s0.3-0.2,0.6-0.3C132.3,67.4,132.6,67.3,132.6,67.3z" class="st13"/><path d="M130,65.1c0,0,0,0.3,0,0.7c0,0.3,0,0.7,0,0.7s-0.2-0.1-0.4-0.3c-0.2-0.1-0.4-0.3-0.4-0.3s0.2-0.2,0.4-0.4 C129.8,65.3,130,65.1,130,65.1z" class="st13"/><path d="M132.8,65.3c0,0,0,0.2,0,0.5c0,0.2,0,0.5,0,0.5l-0.7,0.3c0,0-0.1-0.2-0.1-0.3c-0.1-0.2-0.2-0.3-0.2-0.3 L132.8,65.3z" class="st13"/><path d="M129.6,67.6c0,0-0.5,0-1,0c-0.5,0-1,0.1-1,0.1s0,0.1,0,0.2c0,0.1-0.1,0.2-0.1,0.2s0.1,0.1,0.2,0.2 c0.1,0.1,0.2,0.2,0.2,0.2s0.5-0.2,0.9-0.5C129.2,67.9,129.6,67.6,129.6,67.6z" class="st13"/><path d="M130.1,68.2l-1.2,0.2c0,0,0,0.2-0.1,0.3c0,0.2-0.1,0.3-0.1,0.3s0.3,0.1,0.5,0.1c0.3,0.1,0.5,0.2,0.5,0.2 s0.2-0.1,0.4-0.3c0.2-0.1,0.4-0.3,0.4-0.3s-0.1-0.1-0.2-0.3C130.2,68.4,130.1,68.2,130.1,68.2z" class="st13"/><path d="M131.2,69.1c0,0-0.1,0.1-0.1,0.3c-0.1,0.1-0.1,0.3-0.1,0.3l-0.5,0.1c0,0,0.1-0.2,0.1-0.4 c0.1-0.2,0.1-0.4,0.1-0.4L131.2,69.1z" class="st13"/><path d="M130.5,67.4c0,0,0.2,0.1,0.4,0.2c0.2,0.1,0.4,0.2,0.4,0.2l-0.6,0.1c0,0-0.1-0.1-0.1-0.3 C130.5,67.5,130.5,67.4,130.5,67.4z" class="st13"/><path d="M128.3,66.8l-0.5,0.5c0,0-0.2,0-0.5,0.1c-0.2,0-0.5,0.1-0.5,0.1s0.1-0.2,0.2-0.3c0.1-0.2,0.2-0.4,0.2-0.4 s0.2,0,0.5,0C128.1,66.7,128.3,66.8,128.3,66.8z" class="st13"/><path d="M132.6,71.5C132.6,71.5,132.6,71.5,132.6,71.5c-0.1,0.1-0.1,0.2-0.2,0.3c-0.1,0.2-0.3,0.5-0.6,0.8 c-0.3,0.3-0.7,0.6-1.1,0.7c-0.2,0.1-0.3,0.1-0.5,0.2c-0.1,0-0.2,0.1-0.2,0.1s-0.1-0.2-0.2-0.3c-0.1-0.2-0.2-0.3-0.2-0.3 s0.1,0,0.1-0.1c0.1,0,0.2-0.1,0.3-0.2c0.3-0.2,0.6-0.4,0.8-0.7c0.2-0.3,0.3-0.5,0.4-0.7c0-0.1,0.1-0.2,0.1-0.2c0,0,0-0.1,0-0.1 s0.3,0.1,0.6,0.2C132.3,71.4,132.6,71.5,132.6,71.5z" class="st13"/><path d="M129.4,70.2c0,0-0.1,0.2-0.2,0.3c-0.1,0.1-0.3,0.3-0.3,0.3s-0.2-0.1-0.4-0.2c-0.2-0.1-0.4-0.2-0.4-0.2 s0.1,0,0.2-0.1c0.1-0.1,0.2-0.2,0.2-0.2s0.2,0,0.5,0.1C129.1,70.2,129.4,70.2,129.4,70.2z" class="st13"/></g><g><polygon points="102.7 73.7 103.8 74 103 75.2 102.4 75" class="st13"/><polygon points="99.9 74.2 100.6 75.1 99.7 75.3" class="st13"/><polygon points="101.8 72.4 102.3 73 102 73.6 101.5 73.5" class="st13"/><polygon points="101.1 76.2 99.8 77.7 100 78.2 100.6 78.2" class="st13"/><polygon points="101.8 76.2 101.2 77.3 101.5 77.8 102.4 77.1 102.4 76.2" class="st13"/><polygon points="103 75.8 103.2 76.4 103 76.8 102.6 76.2" class="st13"/><polygon points="101.4 75.4 102.2 74.9 101.9 75.5" class="st13"/><polygon points="99.6 76.5 99.6 77.2 99 77.9 98.9 77.1" class="st13"/><path d="M105.3,75.8C105.3,75.8,105.4,75.8,105.3,75.8c0.1,0.1,0.1,0.2,0.1,0.3c0.1,0.2,0.2,0.5,0.3,0.9 c0.1,0.4,0.1,0.9,0.1,1.3c0,0.2,0,0.4-0.1,0.5c0,0.1,0,0.2,0,0.2l-0.7,0.1c0,0,0-0.1,0-0.2c0-0.1,0-0.2,0-0.4 c0-0.3-0.1-0.7-0.2-0.9c-0.1-0.3-0.2-0.5-0.3-0.6c0-0.1-0.1-0.1-0.1-0.1c0,0,0-0.1,0-0.1L105.3,75.8z" class="st13"/><path d="M102.7,77.9c0,0,0.1,0.2,0.1,0.3c0.1,0.2,0.1,0.4,0.1,0.4s-0.2,0.1-0.4,0.2c-0.2,0.1-0.4,0.3-0.4,0.3 s0-0.1,0-0.2c0-0.1,0-0.3,0-0.3L102.7,77.9z" class="st13"/></g><g><path d="M88.2,56.8c0,0,0.1,0.1,0.2,0.2c0.1,0.1,0.2,0.2,0.4,0.4c0.3,0.3,0.6,0.5,0.6,0.5L88,58.5 c0,0-0.2-0.2-0.4-0.3c-0.2-0.2-0.4-0.3-0.4-0.3L88.2,56.8z" class="st13"/><path d="M85.1,54.9c0,0,0,0.4,0,0.8c0,0.2,0,0.4,0.1,0.5c0,0.1,0,0.2,0,0.2s-0.1,0-0.2-0.1c-0.1-0.1-0.2-0.2-0.3-0.2 c-0.1-0.1-0.2-0.2-0.3-0.3c-0.1-0.1-0.1-0.1-0.1-0.1s0.2-0.2,0.4-0.4C84.9,55.1,85.1,54.9,85.1,54.9z" class="st13"/><path d="M87.8,54.9c0,0,0,0.2,0.1,0.4c0,0.2,0.1,0.4,0.1,0.4l-0.6,0.4c0,0-0.1-0.1-0.2-0.3c-0.1-0.1-0.2-0.3-0.2-0.3 s0.2-0.2,0.4-0.4C87.6,55.1,87.8,54.9,87.8,54.9z" class="st13"/><path d="M85.3,58c0,0-0.5,0.1-1.1,0.2c-0.5,0.1-1.1,0.1-1.1,0.1s0,0.2,0.1,0.4c0.1,0.2,0.1,0.4,0.1,0.4s0,0,0.1,0.1 c0.1,0.1,0.2,0.2,0.2,0.2c0.2,0.2,0.4,0.3,0.4,0.3s0.3-0.5,0.6-0.9C85,58.4,85.3,58,85.3,58z" class="st13"/><path d="M86.2,58.6l-1.1,0.6l0.3,0.9c0,0,0.3,0,0.6,0c0.3,0,0.6,0,0.6,0l0.3-1c0,0-0.2-0.1-0.4-0.2 C86.4,58.8,86.2,58.6,86.2,58.6z" class="st13"/><polygon points="87.8 59.2 88 59.9 87.6 60.3 87.3 59.3" class="st13"/><path d="M86.1,57.5c0,0,0.3,0,0.5,0.1c0.3,0,0.5,0.1,0.5,0.1L86.6,58c0,0-0.1-0.1-0.3-0.3 C86.2,57.6,86.1,57.5,86.1,57.5z" class="st13"/><path d="M83.5,56.9c0,0-0.1,0.2-0.2,0.3c-0.1,0.2-0.2,0.3-0.2,0.3s-0.3,0-0.5,0c-0.3,0-0.5,0-0.5,0s0-0.3,0.1-0.5 c0.1-0.3,0.1-0.5,0.1-0.5s0.3,0.1,0.6,0.2C83.2,56.8,83.5,56.9,83.5,56.9z" class="st13"/><path d="M90.7,60.9c0,0,0,0,0,0.1c0,0.1,0,0.2,0.1,0.3c0.1,0.3,0.1,0.7,0.1,1.2c0,0.5-0.1,1-0.3,1.4 c-0.1,0.2-0.2,0.4-0.2,0.5c-0.1,0.1-0.1,0.2-0.1,0.2s-0.2-0.1-0.4-0.2c-0.2-0.1-0.4-0.2-0.4-0.2s0-0.1,0.1-0.1 c0-0.1,0.1-0.2,0.1-0.4c0.1-0.3,0.1-0.8,0.1-1.1c0-0.4-0.1-0.7-0.2-0.9c0-0.1-0.1-0.2-0.1-0.2c0-0.1,0-0.1,0-0.1s0.3-0.1,0.7-0.1 C90.4,60.9,90.7,60.9,90.7,60.9z" class="st13"/><path d="M86.9,61.3c0,0,0,0.2,0.1,0.5c0,0.2,0,0.4,0,0.4s-0.3-0.1-0.6-0.1c-0.3,0-0.6,0-0.6,0s0.1-0.1,0.1-0.2 c0-0.1,0-0.3,0-0.3L86.9,61.3z" class="st13"/></g><g><path d="M142.8,76c0,0,0.1-0.1,0.2-0.3c0.1-0.1,0.2-0.3,0.2-0.3s0.2,0.3,0.4,0.6c0.2,0.3,0.4,0.6,0.4,0.6l-0.2,0.3 L142.8,76z" class="st13"/><path d="M142.8,78.1c0,0,0.2,0,0.4,0c0.2,0,0.4,0,0.4,0s0,0.2,0,0.3c0,0.2,0,0.3,0,0.3L142.8,78.1z" class="st13"/><path d="M141.5,76c0,0,0.1,0,0.3,0c0.1,0,0.3,0,0.3,0l0.5,0.5l-0.2,0.3L141.5,76z" class="st13"/><path d="M144.5,78.4c0,0,0.3,0.4,0.6,0.8c0.3,0.4,0.6,0.8,0.6,0.8L146,80l0.1-0.3c0,0-0.4-0.3-0.8-0.7 C144.9,78.7,144.5,78.4,144.5,78.4z" class="st13"/><path d="M144.6,77.9l0.8,0.9c0,0,0.1,0,0.2,0c0.1,0,0.2,0,0.2,0s-0.1-0.2-0.2-0.4c-0.1-0.2-0.2-0.5-0.2-0.5 s-0.2-0.1-0.4-0.3c-0.2-0.1-0.4-0.3-0.4-0.3s0,0.1,0,0.2C144.6,77.8,144.6,77.9,144.6,77.9z" class="st13"/><path d="M144.5,76.9c0,0,0.1,0,0.2,0.1c0.1,0,0.2,0.1,0.2,0.1l0.3,0.4c0,0-0.1,0-0.3-0.1c-0.1,0-0.3,0-0.3,0 L144.5,76.9z" class="st13"/><path d="M143.9,77.7c0,0-0.1-0.2-0.1-0.4c-0.1-0.2-0.1-0.4-0.1-0.4l0.4,0.5L143.9,77.7z" class="st13"/><path d="M144.7,79.4l0.5,0.4l0.6,0.7c0,0-0.2-0.1-0.3-0.2c-0.2-0.1-0.3-0.2-0.3-0.2s-0.1-0.2-0.2-0.4 C144.8,79.6,144.7,79.4,144.7,79.4z" class="st13"/><path d="M144.9,75.3C144.9,75.3,144.9,75.3,144.9,75.3c0.1,0,0.2,0.1,0.2,0.1c0.2,0.1,0.4,0.2,0.7,0.3 c0.3,0.2,0.6,0.5,0.9,0.7c0.1,0.1,0.2,0.3,0.3,0.4c0.1,0.1,0.1,0.1,0.1,0.1s0,0.1,0,0.2c0,0.1,0,0.2,0,0.2s0,0-0.1-0.1 c-0.1-0.1-0.2-0.2-0.3-0.3c-0.2-0.2-0.5-0.4-0.7-0.5c-0.2-0.1-0.4-0.1-0.5-0.2c-0.1,0-0.1,0-0.1,0c0,0,0,0,0,0s-0.1-0.3-0.2-0.6 C145,75.6,144.9,75.3,144.9,75.3z" class="st13"/><path d="M146,78.3c0,0,0.1,0.1,0.3,0.1c0.1,0.1,0.3,0.2,0.3,0.2s0,0.2,0.1,0.4c0.1,0.2,0.1,0.4,0.1,0.4 s-0.1-0.1-0.2-0.2c-0.1-0.1-0.2-0.2-0.2-0.2s-0.1-0.2-0.2-0.4C146.1,78.5,146,78.3,146,78.3z" class="st13"/></g><g><path d="M103.4,88.4c0,0,0.3,0.2,0.7,0.4c0.3,0.2,0.7,0.4,0.7,0.4s-0.3,0.2-0.5,0.5c-0.3,0.2-0.5,0.4-0.5,0.4 s-0.2-0.1-0.4-0.3c-0.2-0.1-0.4-0.3-0.4-0.3L103.4,88.4z" class="st13"/><path d="M99.1,87.5c0,0,0.4,0.3,0.7,0.6c0.3,0.3,0.5,0.7,0.5,0.7s-0.3-0.1-0.6-0.1c-0.3,0-0.6,0-0.6,0s0-0.3,0-0.6 C99.1,87.8,99.1,87.5,99.1,87.5z" class="st13"/><path d="M102.1,86.4c0,0,0.2,0.3,0.4,0.5c0.2,0.3,0.4,0.5,0.4,0.5l-0.4,0.6c0,0-0.2-0.1-0.4-0.2 c-0.2-0.1-0.4-0.3-0.4-0.3s0.1-0.3,0.2-0.5C102,86.7,102.1,86.4,102.1,86.4z" class="st13"/><path d="M100.9,90.3c0,0-0.5,0.2-1,0.5c-0.5,0.2-0.9,0.5-0.9,0.5l0.3,0.6c0,0,0.2,0.1,0.4,0.2 c0.2,0.1,0.4,0.2,0.4,0.2s0.2-0.5,0.4-1C100.7,90.7,100.9,90.3,100.9,90.3z" class="st13"/><path d="M101.9,90.7l-0.9,0.8c0,0,0.1,0.2,0.2,0.4c0.1,0.2,0.3,0.4,0.3,0.4s0.3-0.1,0.6-0.1c0.3-0.1,0.6-0.1,0.6-0.1 s0-0.3,0-0.5c0-0.3,0-0.5,0-0.5s-0.2-0.1-0.5-0.2C102.2,90.8,101.9,90.7,101.9,90.7z" class="st13"/><path d="M103.7,90.9l0.4,0.7l-0.3,0.4c0,0-0.2-0.2-0.3-0.5c-0.2-0.2-0.3-0.5-0.3-0.5L103.7,90.9z" class="st13"/><path d="M101.5,89.6c0,0,0.3,0,0.6,0c0.3,0,0.6,0,0.6,0l-0.4,0.4L101.5,89.6z" class="st13"/><path d="M99.1,90c0,0,0,0.2,0,0.3c0,0.2-0.1,0.3-0.1,0.3s-0.2,0.2-0.3,0.3c-0.2,0.2-0.3,0.3-0.3,0.3s0-0.2,0-0.4 c0-0.2,0-0.4,0-0.4s0.1-0.2,0.3-0.3C98.8,90.1,99.1,90,99.1,90z" class="st13"/><path d="M107,91.7C107,91.7,107,91.7,107,91.7c0.1,0.2,0.2,0.2,0.2,0.4c0.1,0.2,0.3,0.6,0.5,1c0.2,0.4,0.4,1,0.5,1.4 c0,0.2,0.1,0.4,0.1,0.5c0,0.1,0,0.2,0,0.2s-0.3,0-0.5,0c-0.3,0-0.5,0-0.5,0s0-0.1,0-0.2c0-0.1-0.1-0.3-0.1-0.4 c-0.1-0.4-0.3-0.8-0.5-1.1c-0.2-0.3-0.4-0.6-0.6-0.8c-0.1-0.1-0.1-0.2-0.2-0.2c0,0-0.1-0.1-0.1-0.1s0.3-0.2,0.6-0.3 C106.7,91.9,107,91.7,107,91.7z" class="st13"/><path d="M103.4,93.2c0,0,0.1,0.2,0.2,0.5c0.1,0.2,0.2,0.4,0.2,0.4s-0.3,0-0.6,0c-0.3,0-0.6,0.1-0.6,0.1s0-0.1,0-0.3 c0-0.1-0.1-0.3-0.1-0.3L103.4,93.2z" class="st13"/></g><g><polygon points="87.6 89 88.4 89.1 87.9 90.3 87.4 90.3" class="st13"/><polygon points="85.5 90 86 90.8 85.4 91.1" class="st13"/><polygon points="86.8 87.9 87.2 88.4 87 89.1 86.6 89.1" class="st13"/><polygon points="86.4 91.8 85.5 93.5 85.7 93.9 86.1 93.8" class="st13"/><polygon points="86.9 91.6 86.5 92.8 86.8 93.2 87.5 92.4 87.4 91.5" class="st13"/><polygon points="87.9 91 88.1 91.5 88 91.9 87.6 91.4" class="st13"/><polygon points="86.7 90.9 87.2 90.3 87 90.9" class="st13"/><polygon points="85.3 92.4 85.3 93 84.9 93.8 84.7 93.1" class="st13"/><path d="M89.6,90.4C89.6,90.4,89.6,90.4,89.6,90.4c0.1,0.1,0.1,0.2,0.1,0.2c0.1,0.2,0.2,0.4,0.3,0.7 c0.1,0.3,0.2,0.8,0.2,1.2c0,0.2,0,0.4,0,0.5c0,0.1,0,0.2,0,0.2l-0.5,0.2c0,0,0-0.1,0-0.1c0-0.1,0-0.2,0-0.4c0-0.3-0.1-0.6-0.2-0.9 c-0.1-0.2-0.2-0.4-0.3-0.5c0-0.1-0.1-0.1-0.1-0.1c0,0,0,0,0,0L89.6,90.4z" class="st13"/><path d="M87.8,93.1c0,0,0.1,0.1,0.1,0.3c0.1,0.2,0.1,0.3,0.1,0.3s-0.2,0.1-0.3,0.3c-0.2,0.2-0.3,0.3-0.3,0.3 s0-0.1,0-0.2c0-0.1,0-0.3,0-0.3L87.8,93.1z" class="st13"/></g><g><polygon points="60.2 77.5 61.4 77.5 61 78.8 60.3 78.9" class="st13"/><polygon points="57.5 78.7 58.5 79.5 57.6 79.8" class="st13"/><polygon points="59 76.5 59.6 77 59.5 77.7 58.9 77.7" class="st13"/><path d="M59.3,80.4c0,0-0.2,0.5-0.5,0.9c-0.2,0.5-0.5,0.9-0.5,0.9l0.4,0.3l0.6-0.1L59.3,80.4z" class="st13"/><polygon points="60 80.2 59.7 81.4 60.3 81.8 61 80.9 60.7 80" class="st13"/><polygon points="61.2 79.5 61.6 79.9 61.6 80.4 60.9 80" class="st13"/><polygon points="59.4 79.5 60.1 78.9 60 79.5" class="st13"/><polygon points="57.8 81.1 58 81.7 57.5 82.6 57.1 81.8" class="st13"/><path d="M63.5,78.6C63.5,78.6,63.5,78.7,63.5,78.6c0.1,0.1,0.2,0.1,0.2,0.2c0.2,0.1,0.4,0.4,0.6,0.7 c0.2,0.3,0.5,0.7,0.6,1.1c0.1,0.2,0.1,0.3,0.2,0.5c0,0.1,0.1,0.2,0.1,0.2l-0.7,0.3c0,0,0-0.1-0.1-0.1c0-0.1-0.1-0.2-0.2-0.4 c-0.2-0.3-0.4-0.6-0.6-0.8c-0.2-0.2-0.4-0.4-0.6-0.4c-0.1,0-0.1-0.1-0.2-0.1c0,0-0.1,0-0.1,0L63.5,78.6z" class="st13"/><path d="M61.6,81.6c0,0,0.1,0.1,0.3,0.3c0.1,0.1,0.2,0.3,0.2,0.3s-0.2,0.2-0.4,0.3c-0.2,0.2-0.3,0.4-0.3,0.4 s0-0.1-0.1-0.2c0-0.1-0.1-0.3-0.1-0.3L61.6,81.6z" class="st13"/></g><g><path d="M73.9,82.8c0,0-0.3-0.2-0.6-0.4c-0.3-0.2-0.6-0.4-0.6-0.4l1.1-0.8l0.7,0.5L73.9,82.8z" class="st13"/><path d="M77.2,83.6c0,0-0.1-0.3-0.3-0.6c-0.1-0.3-0.3-0.6-0.3-0.6l1,0.2L77.2,83.6z" class="st13"/><polygon points="74.6 84.6 74.2 83.8 74.7 83.2 75.3 83.6" class="st13"/><path d="M76.4,81.1c0,0,0.5-0.2,0.9-0.5c0.5-0.2,0.9-0.5,0.9-0.5L78,79.6l-0.6-0.3L76.4,81.1z" class="st13"/><polygon points="75.6 80.7 76.5 80 76.3 79.3 75.2 79.5 74.9 80.5" class="st13"/><polygon points="74.2 80.5 74 79.9 74.4 79.5 74.7 80.4" class="st13"/><polygon points="75.8 81.7 74.8 81.8 75.3 81.4" class="st13"/><polygon points="78.1 81.4 78.3 80.7 79.1 80.3 79.1 81.1" class="st13"/><path d="M71.6,79.4C71.6,79.4,71.6,79.4,71.6,79.4c0-0.2,0-0.2-0.1-0.4c0-0.2-0.1-0.6,0-1c0-0.4,0.1-0.9,0.3-1.3 c0.1-0.2,0.1-0.4,0.2-0.5c0.1-0.1,0.1-0.2,0.1-0.2l0.8,0.3c0,0,0,0.1-0.1,0.1c0,0.1-0.1,0.2-0.1,0.4c-0.1,0.3-0.1,0.7-0.1,1.1 c0,0.3,0.1,0.6,0.2,0.8c0,0.1,0.1,0.2,0.1,0.2c0,0,0,0.1,0,0.1L71.6,79.4z" class="st13"/><path d="M75,78.6c0,0,0-0.2,0-0.4c0-0.2,0-0.4,0-0.4s0.3,0,0.5,0c0.3,0,0.5-0.1,0.5-0.1s-0.1,0.1-0.1,0.2 c0,0.1-0.1,0.3-0.1,0.3L75,78.6z" class="st13"/></g><g><path d="M62.7,71.3c0,0,0.3,0.2,0.6,0.3c0.3,0.2,0.6,0.3,0.6,0.3s-0.2,0.3-0.5,0.5C63.3,72.7,63,73,63,73 s-0.2-0.1-0.4-0.2c-0.2-0.1-0.4-0.2-0.4-0.2s0.1-0.3,0.2-0.6C62.6,71.6,62.7,71.3,62.7,71.3z" class="st13"/><path d="M59.2,70.6c0,0,0.2,0.3,0.3,0.7c0.2,0.3,0.3,0.7,0.3,0.7s-0.3-0.1-0.6-0.1c-0.3-0.1-0.6-0.2-0.6-0.2 s0.1-0.3,0.2-0.5C59.1,70.9,59.2,70.6,59.2,70.6z" class="st13"/><path d="M61.8,69.7c0,0,0.1,0.2,0.2,0.4c0.1,0.2,0.2,0.4,0.2,0.4L61.9,71c0,0-0.1-0.1-0.3-0.2 c-0.1-0.1-0.3-0.2-0.3-0.2L61.8,69.7z" class="st13"/><path d="M60.4,73.4c0,0-0.5,0.3-0.9,0.5c-0.5,0.3-1,0.5-1,0.5s0.1,0.2,0.2,0.3c0.1,0.2,0.2,0.3,0.2,0.3 s0.2,0.1,0.4,0.2c0.2,0.1,0.4,0.2,0.4,0.2s0.2-0.5,0.3-1C60.3,73.9,60.4,73.4,60.4,73.4z" class="st13"/><path d="M61.4,73.7l-0.8,0.9c0,0,0.1,0.2,0.3,0.4c0.1,0.2,0.3,0.4,0.3,0.4s0.3-0.1,0.6-0.2c0.3-0.1,0.6-0.2,0.6-0.2 s0-0.3,0-0.5c0-0.3,0-0.5,0-0.5s-0.2-0.1-0.4-0.1C61.6,73.7,61.4,73.7,61.4,73.7z" class="st13"/><path d="M63,73.7c0,0,0.1,0.2,0.2,0.3c0.1,0.2,0.2,0.3,0.2,0.3l-0.2,0.5c0,0-0.2-0.2-0.3-0.4 c-0.2-0.2-0.3-0.4-0.3-0.4L63,73.7z" class="st13"/><path d="M61,72.7c0,0,0.3,0,0.5-0.1c0.3,0,0.5-0.1,0.5-0.1L61.6,73c0,0-0.2-0.1-0.3-0.2C61.1,72.7,61,72.7,61,72.7z" class="st13"/><path d="M58.5,73l-0.1,0.7c0,0-0.2,0.1-0.4,0.2c-0.2,0.1-0.5,0.2-0.5,0.2s0-0.3-0.1-0.5c0-0.2-0.1-0.5-0.1-0.5 s0.3,0,0.6,0C58.2,73,58.5,73,58.5,73z" class="st13"/><path d="M66.1,74C66.1,74,66.1,74,66.1,74c0.1,0.1,0.2,0.2,0.2,0.3c0.1,0.2,0.4,0.5,0.6,0.9c0.2,0.4,0.4,0.9,0.5,1.3 c0.1,0.2,0.1,0.4,0.1,0.5c0,0.1,0,0.2,0,0.2s-0.2,0-0.5,0c-0.2,0-0.5,0-0.5,0s0-0.1,0-0.2c0-0.1-0.1-0.2-0.1-0.4 c-0.1-0.3-0.3-0.7-0.6-1c-0.2-0.3-0.4-0.5-0.6-0.7c-0.1-0.1-0.1-0.1-0.2-0.2c0,0-0.1-0.1-0.1-0.1s0.3-0.2,0.5-0.4 C65.8,74.2,66.1,74,66.1,74z" class="st13"/><path d="M62.9,75.9c0,0,0.1,0.2,0.2,0.4c0.1,0.2,0.2,0.4,0.2,0.4s-0.3,0-0.6,0.1c-0.3,0.1-0.6,0.2-0.6,0.2 s0-0.1,0-0.3c0-0.1-0.1-0.3-0.1-0.3s0.2-0.1,0.4-0.3C62.7,76,62.9,75.9,62.9,75.9z" class="st13"/></g><g><path d="M79.3,58.6c0,0,0.1,0.1,0.3,0.3c0.1,0.1,0.3,0.2,0.3,0.2s-0.3,0.2-0.6,0.4c-0.3,0.2-0.6,0.4-0.6,0.4 l-0.4-0.3L79.3,58.6z" class="st13"/><path d="M77.1,58c0,0,0,0.2-0.1,0.5C77,58.7,77,59,77,59s-0.2-0.1-0.3-0.1c-0.2-0.1-0.3-0.1-0.3-0.1L77.1,58z" class="st13"/><path d="M79.5,57.4c0,0,0,0.1,0,0.3c0,0.1,0,0.3,0,0.3l-0.6,0.4l-0.2-0.3L79.5,57.4z" class="st13"/><path d="M76.7,60c0,0-0.5,0.2-0.9,0.3c-0.5,0.2-0.9,0.3-0.9,0.3l0,0.5l0.4,0.3c0,0,0.4-0.4,0.7-0.7 C76.3,60.4,76.7,60,76.7,60z" class="st13"/><path d="M77.2,60.3l-1,0.6l0,0.6c0,0,0.3-0.1,0.5-0.1c0.3-0.1,0.5-0.1,0.5-0.1s0.1-0.2,0.3-0.4 c0.1-0.2,0.3-0.4,0.3-0.4s-0.1,0-0.3-0.1C77.4,60.3,77.2,60.3,77.2,60.3z" class="st13"/><path d="M78.4,60.3c0,0,0,0.1,0,0.3c0,0.1,0,0.3,0,0.3l-0.4,0.3c0,0,0-0.2,0-0.3c0-0.2,0-0.3,0-0.3L78.4,60.3z" class="st13"/><path d="M77.5,59.5c0,0,0.2,0,0.4,0c0.2,0,0.4,0,0.4,0l-0.5,0.3L77.5,59.5z" class="st13"/><path d="M75.4,59.6L75,60.1l-0.9,0.3c0,0,0.1-0.2,0.2-0.4c0.1-0.2,0.2-0.4,0.2-0.4s0.2,0,0.5,0 C75.2,59.7,75.4,59.6,75.4,59.6z" class="st13"/><path d="M80.2,60.8C80.2,60.8,80.2,60.8,80.2,60.8c0,0.1,0,0.2,0,0.3c0,0.2,0,0.4-0.1,0.8c-0.1,0.3-0.2,0.8-0.3,1.1 c-0.1,0.2-0.1,0.3-0.2,0.4c-0.1,0.1-0.1,0.2-0.1,0.2s-0.2,0-0.3,0c-0.2,0-0.3,0-0.3,0s0-0.1,0.1-0.1c0-0.1,0.1-0.2,0.1-0.4 c0.1-0.3,0.2-0.6,0.2-0.9c0-0.3,0-0.5,0-0.6c0-0.1,0-0.1,0-0.1c0,0,0-0.1,0-0.1s0.3-0.1,0.5-0.3C79.9,60.9,80.2,60.8,80.2,60.8z" class="st13"/><path d="M77.1,62.1c0,0,0,0.2,0,0.3c0,0.2-0.1,0.3-0.1,0.3s-0.2,0-0.4,0c-0.2,0-0.5,0.1-0.5,0.1s0.1-0.1,0.1-0.2 c0.1-0.1,0.1-0.2,0.1-0.2L77.1,62.1z" class="st13"/></g><g><path d="M115,77.8c0,0,0.1-0.3,0.2-0.6c0.1-0.3,0.2-0.6,0.2-0.6s0.3,0.2,0.5,0.4c0.3,0.2,0.6,0.4,0.6,0.4 s0,0.2-0.1,0.3c0,0.2-0.1,0.3-0.1,0.3s-0.3-0.1-0.6-0.2C115.3,77.9,115,77.8,115,77.8z" class="st13"/><path d="M115.8,80.5c0,0,0.2-0.2,0.4-0.4c0.2-0.2,0.4-0.4,0.4-0.4s0.1,0.2,0.1,0.4c0.1,0.2,0.2,0.4,0.2,0.4 s-0.3,0-0.6,0C116.1,80.5,115.8,80.5,115.8,80.5z" class="st13"/><path d="M113.7,78.9c0,0,0.1-0.2,0.3-0.3c0.1-0.1,0.3-0.3,0.3-0.3l0.7,0.2c0,0,0,0.1-0.1,0.3c0,0.1,0,0.3,0,0.3 L113.7,78.9z" class="st13"/><path d="M117.6,79.3c0,0,0.4,0.3,0.8,0.5c0.4,0.3,0.9,0.5,0.9,0.5s0.1-0.1,0.2-0.1c0.1,0,0.2-0.1,0.2-0.1 s0-0.1,0-0.2c0-0.1,0-0.2,0-0.2s-0.5-0.1-1-0.2C118.1,79.4,117.6,79.3,117.6,79.3z" class="st13"/><path d="M117.5,78.7l1.1,0.5c0,0,0.1-0.1,0.2-0.1c0.1-0.1,0.2-0.1,0.2-0.1s-0.2-0.2-0.3-0.4 c-0.2-0.2-0.3-0.4-0.3-0.4s-0.2,0-0.5-0.1c-0.2,0-0.5-0.1-0.5-0.1s0,0.1,0,0.3C117.5,78.5,117.5,78.7,117.5,78.7z" class="st13"/><path d="M117.1,77.5c0,0,0.1,0,0.3-0.1c0.1,0,0.3-0.1,0.3-0.1l0.5,0.2c0,0-0.2,0.1-0.3,0.2c-0.2,0.1-0.3,0.2-0.3,0.2 L117.1,77.5z" class="st13"/><path d="M116.8,79c0,0-0.1-0.2-0.3-0.4c-0.1-0.2-0.2-0.4-0.2-0.4l0.6,0.3c0,0,0,0.1,0,0.2 C116.8,78.9,116.8,79,116.8,79z" class="st13"/><path d="M118.2,80.4c0,0,0.2,0,0.3,0c0.2,0,0.3,0,0.3,0s0.2,0.1,0.4,0.2c0.2,0.1,0.4,0.2,0.4,0.2s-0.2,0-0.4,0.1 c-0.2,0-0.4,0.1-0.4,0.1s-0.2-0.1-0.4-0.3C118.3,80.6,118.2,80.4,118.2,80.4z" class="st13"/><path d="M117.3,75.2C117.3,75.2,117.3,75.2,117.3,75.2c0.1,0,0.2-0.1,0.3-0.1c0.2,0,0.5-0.1,0.9-0.1 c0.4,0,0.8,0.1,1.2,0.3c0.2,0.1,0.3,0.1,0.4,0.2c0.1,0.1,0.2,0.1,0.2,0.1s0,0.1,0,0.3c0,0.1,0,0.3,0,0.3s0,0-0.1-0.1 c-0.1,0-0.2-0.1-0.4-0.1c-0.3-0.1-0.6-0.1-0.9-0.1c-0.3,0-0.5,0.1-0.6,0.2c-0.1,0-0.1,0.1-0.2,0.1c0,0-0.1,0-0.1,0 s-0.2-0.2-0.4-0.5C117.5,75.5,117.3,75.2,117.3,75.2z" class="st13"/><path d="M119.2,78c0,0,0.2,0,0.3,0c0.2,0,0.3,0,0.3,0s0.1,0.2,0.2,0.4c0.1,0.2,0.3,0.4,0.3,0.4s-0.1,0-0.2-0.1 c-0.1,0-0.3,0-0.3,0s-0.2-0.1-0.3-0.3C119.3,78.2,119.2,78,119.2,78z" class="st13"/></g><g><path d="M98.1,97.9c0,0,0.1,0,0.2,0c0.1,0,0.3,0,0.4-0.1c0.3-0.1,0.7-0.1,0.7-0.1L99.2,99l-0.8,0.1L98.1,97.9z" class="st13"/><path d="M95.3,99.1c0,0,0.2,0.2,0.5,0.4c0.1,0.1,0.3,0.2,0.4,0.3c0.1,0.1,0.2,0.1,0.2,0.1s-0.1,0-0.2,0.1 c-0.1,0-0.2,0.1-0.3,0.1c-0.1,0-0.3,0.1-0.4,0.1c-0.1,0-0.2,0-0.2,0s0-0.3,0-0.6C95.3,99.4,95.3,99.1,95.3,99.1z" class="st13"/><path d="M96.7,97c0,0,0.1,0.1,0.3,0.2c0.2,0.1,0.3,0.2,0.3,0.2l0,0.7c0,0-0.1,0-0.3,0c-0.1,0-0.3,0-0.3,0 s0-0.3,0-0.6C96.7,97.3,96.7,97,96.7,97z" class="st13"/><path d="M97.4,100.8c0,0-0.2,0.5-0.5,0.9c-0.2,0.5-0.5,0.9-0.5,0.9s0.2,0.1,0.3,0.2c0.2,0.1,0.3,0.2,0.3,0.2 s0.1,0,0.1,0c0.1,0,0.2,0,0.3,0c0.2,0,0.4-0.1,0.4-0.1s-0.2-0.5-0.3-1C97.5,101.3,97.4,100.8,97.4,100.8z" class="st13"/><path d="M98.3,100.5l-0.1,1.2l0.7,0.3c0,0,0.2-0.2,0.3-0.5c0.2-0.2,0.3-0.5,0.3-0.5l-0.5-0.9c0,0-0.2,0.1-0.4,0.2 C98.5,100.5,98.3,100.5,98.3,100.5z" class="st13"/><polygon points="99.5 99.6 100.1 100 100.2 100.5 99.3 100.1" class="st13"/><path d="M97.5,99.9c0,0,0.2-0.2,0.3-0.4c0.2-0.2,0.3-0.4,0.3-0.4l0,0.6c0,0-0.2,0-0.3,0 C97.6,99.9,97.5,99.9,97.5,99.9z" class="st13"/><path d="M95.6,101.5c0,0,0.1,0.2,0.1,0.3c0.1,0.2,0.1,0.3,0.1,0.3s-0.1,0.2-0.3,0.4c-0.2,0.2-0.3,0.4-0.3,0.4 s-0.2-0.2-0.3-0.4c-0.2-0.2-0.3-0.4-0.3-0.4s0.3-0.2,0.5-0.3c0.1-0.1,0.2-0.2,0.3-0.2C95.6,101.6,95.6,101.5,95.6,101.5z" class="st13"/><path d="M102.2,98.4C102.2,98.4,102.3,98.5,102.2,98.4c0.1,0.1,0.2,0.1,0.3,0.2c0.2,0.1,0.5,0.4,0.8,0.7 c0.3,0.3,0.6,0.8,0.7,1.2c0.1,0.2,0.1,0.4,0.1,0.5c0,0.1,0,0.2,0,0.2s-0.2,0.1-0.4,0.1c-0.2,0.1-0.3,0.1-0.3,0.1s0-0.1,0-0.1 c0-0.1-0.1-0.2-0.2-0.4c-0.1-0.3-0.4-0.6-0.7-0.8c-0.3-0.2-0.5-0.3-0.7-0.4c-0.1,0-0.2-0.1-0.2-0.1c-0.1,0-0.1,0-0.1,0 s0.1-0.3,0.3-0.6C102.1,98.7,102.2,98.4,102.2,98.4z" class="st13"/><path d="M100.4,101.6c0,0,0.2,0.1,0.3,0.2c0.2,0.1,0.3,0.3,0.3,0.3s-0.2,0.2-0.3,0.4c-0.2,0.2-0.3,0.4-0.3,0.4 s0-0.1-0.1-0.2c-0.1-0.1-0.2-0.2-0.2-0.2L100.4,101.6z" class="st13"/></g><g><path d="M145.5,55.7c-2.5,0.7-3.1,2.9-3.1,2.9c2.3,1.9,4.2,4,5.5,6.3c-0.6,4.2,0.6,9.5,1.7,12.6 c-2.9,2.5-3.3,4.8-4.2,8l6.7,1.9c3.3-1.9,5.8-5.5,4.7-9.7c2-1.5,1.3-11.9-2.6-14.4C153.9,59.5,148.4,54.9,145.5,55.7z" class="st25"/><path d="M54.2,75.8c1.3-5.1,4.7-9.7,9.6-13.7l-5.7-1.6C54.6,61,50,65.2,50,68.9c-4,2.2-5.8,10.4-3.9,12.3 c-1.3,4.3,1.8,9.2,3.9,12l7.5-2.8C54.1,86.1,52.8,81.1,54.2,75.8z" class="st25"/><path d="M104.5,48.6c2.8,0,2.3-3.1,0-4.2c-3-1.4-12.1-0.7-15.5,1.9c-6.7-0.8-14.7,3.2-16.1,5.8 c-5.8-0.2-13.4,4.4-14.7,8.4l5.7,1.6C73.3,54.4,95.3,48.6,104.5,48.6z" class="st25"/><path d="M57.5,90.5L50,93.3c8.2,11,27.5,18,51.2,16.5l0.3-5.4c-2.3-2.2-13-2.7-17.3-0.8c-2.4-3-12.5-5.5-16.3-5.1 C65.7,94.3,60.8,90.5,57.5,90.5z" class="st25"/><path d="M101.5,104.4l-0.3,5.4c23.3-1.5,42.3-10.7,51-22.3l-6.7-1.9c-3.1,0.3-9.4,4.6-11.4,9.5 c-6.2,0.3-12.3,3.6-15.3,6.4C113.6,100.2,104.5,102.2,101.5,104.4z" class="st25"/><path d="M56.4,90.5c0,0,5.5,1.3,7.4,3.8c1.9,2.5,3.5,4.8,3.8,4.8c0.3,0,10.2,1.2,11.9,2.6c1.7,1.4,4.1,2.7,4.5,2.8 c0.4,0.2,6.5-1.8,8.7-1.4c2.3,0.4,6.8,0.8,7.3,1.4c0.5,0.6,4-1.1,6.3-1.2c2.3-0.1,8.2-1.5,10.3-0.9c2.2,0.6,3.5-1.1,4.5-1.7 c1-0.6,6.5-3.4,8.4-3.7c2-0.3,5.4-1.4,5.9-2.1c0.5-0.7,5.6-6,6.3-6.5c0.7-0.5,3.9-2.9,4.5-2.5c0.6,0.4,0,0.8,0,0.8 s-6.4,4.9-6.8,5.7c-0.4,0.8-2,2.5-2.7,2.9c-0.7,0.4-2.5,1.4-3.1,1.5s-4,1.1-4.4,1.3s-6.6,3.2-7.3,3.4c-0.7,0.2-4.2,2.1-4.7,2 c-0.5-0.1-2.5-0.6-3.1-0.4c-0.7,0.2-7.5,0.8-7.8,0.9c-0.3,0.1-5,1.4-5,1.4s-2.6-0.6-3.4-0.9c-0.8-0.3-6-0.4-6.8-0.3 c-0.8,0.1-6,0.7-6.4,0.7c-0.4,0-2.2-0.1-2.6-0.3c-0.5-0.2-3.1-2.7-4.1-2.8s-8.8-1.3-9.9-1.6c-1.1-0.3-2.7-1.2-3.1-1.7 c-0.4-0.5-3.3-4.2-4.1-4.8c-0.8-0.6-3.5-0.3-4.6-1.4C55.4,91.2,55,90.1,56.4,90.5z" class="st26"/><path d="M145.5,85.6c0,0,4.9-1.4,8.3,4.5l0,0c0.5-0.8,0.5-1.8-0.1-2.5C152.3,85.8,149.4,83.1,145.5,85.6z" class="st6"/><path d="M101.5,104.4c0,0-1.1,4.9,0,8.5l-1.2,0.1c0,0-1.1-4.8,0.6-9L101.5,104.4z" class="st6"/><path d="M57.5,90.5c0,0-4.7-1.2-7.5,2.8c0,0-1,0.6-1,2L48.4,95l1-2.6c0,0,1.9-3.3,7.4-3L57.5,90.5z" class="st6"/><path d="M143.8,57.7c0,0,4.7,5.4,5.1,6.8c0.4,1.4,1,9.7,1.3,12.3c0.3,2.6-3.7,7-3.2,8c0.5,0.9,3-1,2.9-1.8 c-0.2-0.8,1.1-5,1.3-5.5c0.1-0.5,0.3-2.9,0-5.2c-0.3-2.4-0.6-6.4-1.3-7.7c-0.7-1.3-1.5-4.6-2.3-5.3 C146.7,58.7,145.1,56.9,143.8,57.7z" class="st26"/><path d="M54.3,89.4c0,0-3.1-3.5-2.8-5.5c0.3-2,0-3.1,0-3.9c0-0.8-0.1-11.5,1.5-13.3c1.6-1.9,3.9-3.7,4.6-4.1 c0.7-0.4,3.9-3.9,5.4-5.1c1.4-1.2,6.5-4,7.3-4.1c0.8-0.1,4.9-1,5.5-1.6c0.6-0.5,5.2-3.7,7.7-4.2c2.5-0.5,5.5,0.4,6,0 c0.5-0.4,7.7-3,8.9-3.1c0,0,5.1-0.1,4.8,0.9c-0.3,1-4.6,0.4-5.5,0.5c-0.9,0.1-6.4,2.4-7.1,2.5c-0.7,0.1-4.1,0.7-5.1,0.8 c-1,0.1-4.1,0.7-4.5,0.8c-0.4,0.1-4.1,3-4.6,2.9c-0.5-0.1-6,1.6-6.7,1.7c-0.7,0.1-4.2,2.6-5,2.9c-0.8,0.4-1.2,1.8-2.7,2.9 c-1.6,1.1-3,3.5-4,3.9c-1,0.4-3.3,1.5-3.6,2.7c-0.3,1.1-1.6,5.2-1.6,5.9c0,0.7,0,5.2,0,5.9c0,0.8-0.8,5.2,0,6.3 C53.7,86.2,56,89.9,54.3,89.4z" class="st26"/><path d="M63.8,62.1c0,0-2.6-2.5-5.7-1.6c0,0,1.2-2,3.7-1.2C64.3,60,63.8,62.1,63.8,62.1z" class="st6"/></g><g><path d="M97.5,61.6c0,1.7-1.4,3.1-3.2,3.2c-1.8,0-3.3-1.4-3.3-3.1c0-1.7,1.4-3.1,3.2-3.2 C96,58.5,97.5,59.8,97.5,61.6z" class="st17"/><path d="M95.9,59.7c0,0.6-0.7,1-1.6,1.1c-0.9,0-1.7-0.4-1.7-1c0-0.6,0.7-1,1.6-1.1C95.1,58.7,95.9,59.1,95.9,59.7z" class="st18"/><path d="M95.2,59.5c0,0.4-0.5,0.7-1.1,0.7c-0.6,0-1.1-0.3-1.1-0.7c0-0.4,0.5-0.7,1.1-0.7 C94.7,58.8,95.2,59.1,95.2,59.5z" class="st19"/><path d="M95,59.5c0,0.3-0.4,0.6-0.9,0.6c-0.5,0-0.9-0.2-0.9-0.6c0-0.3,0.4-0.6,0.9-0.6C94.6,58.9,95,59.2,95,59.5z" class="st17"/></g><g><path d="M126.2,83.1c1.4,1.4,1.5,3.6,0.2,4.9c-1.3,1.2-3.5,1.1-4.8-0.3c-1.4-1.4-1.5-3.6-0.2-4.9 C122.6,81.5,124.8,81.6,126.2,83.1z" class="st17"/><path d="M123.6,82.6c0.5,0.5,0.3,1.4-0.4,2c-0.7,0.6-1.6,0.8-2,0.3c-0.5-0.5-0.3-1.4,0.4-2S123.1,82.2,123.6,82.6z" class="st18"/><path d="M122.9,82.9c0.3,0.3,0.2,0.9-0.2,1.3c-0.4,0.4-1,0.5-1.3,0.2c-0.3-0.3-0.2-0.9,0.2-1.3 C122,82.7,122.6,82.6,122.9,82.9z" class="st19"/><path d="M122.8,83c0.3,0.3,0.2,0.8-0.2,1.1c-0.4,0.4-0.9,0.4-1.1,0.2c-0.3-0.3-0.2-0.8,0.2-1.1 C122,82.8,122.5,82.7,122.8,83z" class="st17"/></g><g><path d="M112.9,73.5c-1.8,0.9-3.9,0.4-4.7-1.2c-0.8-1.6-0.1-3.6,1.7-4.6c1.8-0.9,3.9-0.4,4.7,1.2 C115.4,70.5,114.7,72.5,112.9,73.5z" class="st17"/><path d="M114.1,71.1c-0.6,0.3-1.4-0.1-1.8-0.9c-0.4-0.8-0.3-1.7,0.3-2c0.6-0.3,1.4,0.1,1.8,0.9 C114.8,69.8,114.7,70.8,114.1,71.1z" class="st18"/><path d="M114,70.3c-0.4,0.2-0.9-0.1-1.2-0.6c-0.3-0.5-0.2-1.1,0.2-1.3c0.4-0.2,0.9,0.1,1.2,0.6 C114.5,69.5,114.4,70.1,114,70.3z" class="st19"/><path d="M114,70.2c-0.3,0.2-0.8-0.1-1-0.5c-0.2-0.4-0.2-0.9,0.2-1.1c0.3-0.2,0.8,0.1,1,0.5 C114.3,69.5,114.3,70,114,70.2z" class="st17"/></g><g><path d="M91.8,84.4c0.1,2-1.3,3.7-3.1,3.8c-1.8,0.1-3.3-1.5-3.4-3.5c-0.1-2,1.3-3.7,3.1-3.8 C90.2,80.9,91.7,82.4,91.8,84.4z" class="st17"/><path d="M90.1,82.3c0,0.7-0.7,1.2-1.6,1.3c-0.9,0-1.7-0.5-1.7-1.1s0.7-1.2,1.6-1.3C89.3,81.1,90.1,81.6,90.1,82.3z" class="st18"/><path d="M89.4,82.1c0,0.4-0.4,0.8-1,0.8c-0.6,0-1.1-0.3-1.1-0.7c0-0.4,0.4-0.8,1-0.8C88.9,81.3,89.4,81.6,89.4,82.1z" class="st19"/><path d="M89.3,82.1c0,0.4-0.4,0.7-0.9,0.7c-0.5,0-0.9-0.3-0.9-0.6c0-0.4,0.4-0.7,0.9-0.7 C88.8,81.4,89.3,81.7,89.3,82.1z" class="st17"/></g><g><path d="M113.1,97.2c0.1,2-1.3,3.7-3.1,3.8c-1.8,0.1-3.3-1.5-3.4-3.5c-0.1-2,1.3-3.7,3.1-3.8 C111.5,93.6,113,95.2,113.1,97.2z" class="st17"/><path d="M111.4,95.1c0,0.7-0.7,1.2-1.6,1.3c-0.9,0-1.7-0.5-1.7-1.1c0-0.7,0.7-1.2,1.6-1.3 C110.6,93.9,111.4,94.4,111.4,95.1z" class="st18"/><path d="M110.7,94.8c0,0.4-0.4,0.8-1,0.8c-0.6,0-1.1-0.3-1.1-0.7c0-0.4,0.4-0.8,1-0.8 C110.2,94.1,110.7,94.4,110.7,94.8z" class="st19"/><path d="M110.5,94.8c0,0.4-0.4,0.7-0.9,0.7c-0.5,0-0.9-0.3-0.9-0.6c0-0.4,0.4-0.7,0.9-0.7 C110.1,94.2,110.5,94.5,110.5,94.8z" class="st17"/></g><g><path d="M137.6,66.8c0.2,2-1.2,3.7-2.9,3.9c-1.8,0.1-3.4-1.4-3.5-3.4c-0.2-2,1.2-3.7,2.9-3.9 C135.9,63.3,137.4,64.8,137.6,66.8z" class="st17"/><path d="M135.8,64.8c0.1,0.7-0.6,1.3-1.6,1.3c-0.9,0.1-1.7-0.4-1.7-1.1c-0.1-0.7,0.6-1.3,1.6-1.3 C135,63.7,135.8,64.1,135.8,64.8z" class="st18"/><path d="M135.1,64.6c0,0.4-0.4,0.8-1,0.9c-0.6,0-1.1-0.3-1.1-0.7c0-0.4,0.4-0.8,1-0.9 C134.6,63.8,135.1,64.1,135.1,64.6z" class="st19"/><path d="M135,64.6c0,0.4-0.4,0.7-0.9,0.7c-0.5,0-0.9-0.2-1-0.6c0-0.4,0.4-0.7,0.9-0.7C134.5,64,135,64.2,135,64.6z" class="st17"/></g></g><g><path d="M150.7,22l6.9-2.6c-0.5-4-10-9.3-16.5-9c-2.6-4.1-15.5-7.4-20.6-5c-3.8-2.7-14.8-3.2-17.7-1.2 c-3.1,2.2-0.1,5.1-0.1,5.1C122.5,8.5,140.4,13.5,150.7,22z" class="st25"/><path d="M103,6.3c0,0,0.7-1.3,2.5-1.6c1.8-0.3,7.5-0.4,8,0c0.5,0.4,6,1.6,6,1.6s9,0.5,10.1,0.7c1,0.1,7.7,2,8.5,2.4 c0.8,0.4,3.4,2.1,3.4,2.1s10.8,2.2,11.4,3.7c0.5,1.4-0.5,1.4-1.4,1c-0.9-0.4-9-3-9.8-3.4c-0.8-0.4-4.7-3-5.6-3.3 c-0.9-0.3-10.2-1.8-11.1-1.8c-0.9,0-6.3-0.3-6.3-0.3s-6.8-1.4-8.1-1.6C109.1,5.6,103.1,8.4,103,6.3z" class="st26"/><path d="M102.8,9.3l-1.7,31.3l0,0L150.7,22C140.4,13.5,122.7,8.5,102.8,9.3z" class="st8"/><path d="M101.1,40.6L101.1,40.6c0.4,0.9,1.5,1.3,2.4,0.9c0,0,4.4-2.3,6.1-2.5c3.3-0.5,6.9-3.2,9.3-3.4 c3.8-0.3,7.8-3.9,10.5-3.8c3.3,0,6.8-3.4,9.2-3.2c2.9,0.3,5.9-2.9,8-2.8c2.3,0,4.3-0.9,4.3-0.9l-0.2-2.9L101.1,40.6z" class="st27"/><path d="M150.7,22c0,0,0.2-5.6,3.6-5.6c2.7,0,3.1,2.2,3.3,3c0.3,1.5,0.3,5.2-6.8,5.5L150.7,22z" class="st27"/><g><path d="M157.2,21.8c-0.8,1.6-2.7,2.2-4.1,1.5c-1.4-0.8-1.9-2.6-1.1-4.2c0.8-1.6,2.7-2.2,4.1-1.5 C157.5,18.4,158,20.3,157.2,21.8z" class="st6"/><path d="M156.7,21.6c-0.7,1.3-2.2,1.9-3.4,1.2c-1.2-0.6-1.6-2.2-0.9-3.5c0.7-1.3,2.2-1.9,3.4-1.2 C157,18.7,157.4,20.3,156.7,21.6z" class="st28"/><polygon points="157 19 155.8 18.1 153.2 19.9 152.8 22.5 154 23.4" class="st28"/><path d="M157.7,22.3c-0.7,1.3-2.2,1.9-3.4,1.2c-1.2-0.6-1.6-2.2-0.9-3.5c0.7-1.3,2.2-1.9,3.4-1.2 C158,19.5,158.4,21,157.7,22.3z" class="st28"/><path d="M157.5,22.2c-0.6,1.2-2,1.7-3.1,1.1c-1.1-0.6-1.4-2-0.8-3.2c0.6-1.2,2-1.7,3.1-1.1S158.1,21,157.5,22.2z" class="st29"/></g><path d="M101.1,40.6c3.4,32,2,36.7,2,36.7l2.4-0.9c0,0,0.2-4.2-1-14.3c-1.1-9,0-21.7,0-22.4c0-1.4,1.7-4.7,3.5-4.2 c1.8,0.4,2.3,4.8,2.5,6.7c0.1,1.9-0.6,7.1,0,8.3c0.9,1.9,2.8,1.1,2-1.4c-0.4-1.1-0.6-3.6-0.6-4.7c0-1.2-0.5-3.9-0.3-5 c0.2-1.1,1.3-1.7,2.1-0.7c0.9,1,0.7,2.4,1.1,4c0.4,1.6,0.3,3.4,1,5.3c0.7,1.9,1,5.7,1.2,7.1c0.2,1.3-2.1,5.5-1.4,8.3 c0.7,2.8,0,8.6-0.5,9.3c-1,1.4,2.4,4.5,2.8,0.1c0.1-0.6-1.2-9.2-1-10.4c0.1-1.2,0.1-2.8,1.2-2.1c1.1,0.7,5.7,9,6.2,9.6 c1.3,1.5,5.4,3.9,5.4,1.8c0-1.9-6.2-3.2-9.6-11.4c-0.6-1.4-1.2-3.1-1.2-4.1s-0.6-4.7-0.7-7.2c-0.1-2.5-2-6.2-1.6-8 c0.4-1.9,0.1-3,1-4.7c0.4-0.7,2.4-2,2.3-2.9c-0.1-0.9-1.7-1.5-1.9-2.8c-0.1-1.3,0-1.9,0.1-3.1c0.1-1.2-0.1-2.6-0.9-3.2 c-1.2-1-3.5-0.5-4.4,0.5c-0.9,1-1.5,1.9-3.2,2.3c-1.8,0.4-3.8,0.3-5.1,0.7c-0.5,0.2-1,0.3-1.5,0.4c-0.9,0.2-1.7,0.8-2.1,1.7 c-0.2,0.5-0.4,1-0.7,1.7c-0.9,2.3-2,3.7-1.8,4.9C98.9,37.9,101,39.9,101.1,40.6z" class="st9"/><path d="M150.7,22c-2.6-1.8-6-0.9-7-1.2c-1-0.3-1.9-0.8-3.9-1.3c-2-0.4-1.3,1.9-2.2,2.5c-0.9,0.6-2.6,0.4-3.9-0.8 c-1.3-1.2-2.2-2.9-4.1-0.6c-1.9,2.3,1.1,7.2,1.5,8.7c0.4,1.5,1.5,3,3.4,4c1.9,1,4.8,14,5.5,15.8c0.7,1.8,1.6,10.4,1.3,11.4 c-0.3,1-3,2.8-4.1,3.7c-1.4,1.1-6.6,1.7-4.9,3.3c1.8,1.7,3-0.6,4.5-1.6c0.5-0.3,3.4-1.9,4.1-2.2c0.7-0.3-1.2,1.5-1.1,3.4 c0.1,1.9,3.9,1.7,3.7-2.3C143.1,58.4,150.7,22,150.7,22z M143,56.2c-0.4,0-5.3-19.6-5.9-21.4c-0.6-1.8-1.2-3.2-0.8-4.2 c0.6-1.5,2.9-1.2,2.9-1.2s5.3,4.7,5.9,6c0.6,1.3,0,7.2,0.1,8.8C145.2,45.9,143.4,56.2,143,56.2z M144,32.6 c-0.4-0.2-2.5-3.5-1.5-4.4c0.6-0.5,1.1-0.7,1.7-0.7c1.7-0.2,3.1,1.5,2.6,3.2c0,0.1-0.1,0.3-0.1,0.4C146.1,32.4,145.7,33.3,144,32.6 z" class="st9"/><path d="M103.5,9.1c0,0,0.9-0.6,6.2-0.5c5.2,0.1,32.2,2.6,41,13.4c0,0,0.5,3.1,0.2,4.2c-0.4,1.2-2.5,0.7-2.2,0 c0.3-0.7,0.8-2.9,0.7-3.4c-0.1-0.5-0.7-0.6-1.2-0.8c-0.5-0.2-0.4,0.4-1.2,0.6c-0.9,0.1-2,0-1.6-0.6c0.3-0.6,1-0.9,1-1.5 c0-0.6-1-0.5-1-1.1c0-0.6,0-0.7-0.7-0.6c-0.7,0.1-1.3,0.8-1.5,0c0-0.1-0.1-0.4-0.3-0.7c-0.3-0.6-1-0.8-1.6-0.4 c-0.2,0.1-0.4,0.1-0.6,0c-0.4-0.3-1.1-0.9-2-1.1c-0.9-0.2-1.1-0.5-1-1.3c0.1-0.8-1.4-1.1-2-1.2c-0.7-0.1-1.2-0.9-2.2-0.5 c-1,0.4-2.5,0-2.5,0s-0.8-0.3-1-0.5c-1.5-1.3-4.9-0.8-6.3-1.1c-1.4-0.2-1.3-1-2.4-1.4c-1.1-0.4-2.7,0-4.5,0c-1.7,0-1.8,0.4-3.1,0.4 c-1.3,0-2.1,0.1-2.7-0.5c-0.7-0.7-0.9-1.4-1.8-0.4c-0.8,1-0.9,0.7-2.4,0.8c-1.6,0.1-3.8,0.4-3.7,0C102.8,10.4,102.8,9.6,103.5,9.1z" class="st13"/><path d="M114.7,10.3c0,0-9-1.9-11.8-0.2c-2.8,1.7-0.5,5.1,0.4,5c0.9-0.2,4.1,4.2,6.2,3.6c2.1-0.6,4.8-2.5,4.4-3.4 c-0.5-0.9,1.4-0.9,2.1-1.8C116.7,12.6,116.5,10.1,114.7,10.3z" class="st9"/><g><path d="M118.5,15.8c-0.1,2.3-3.1,4-6.7,3.8c-3.6-0.2-6.4-2.2-6.2-4.5c0.1-2.3,3.1-4,6.7-3.8 C115.9,11.5,118.7,13.5,118.5,15.8z" class="st14"/><path d="M118.4,15.3c-0.1,2.2-3,3.9-6.5,3.7c-3.5-0.2-6.2-2.1-6.1-4.4c0.1-2.2,3-3.9,6.5-3.7 C115.8,11.1,118.5,13.1,118.4,15.3z" class="st15"/><path d="M114.1,12.7c0,0.7-0.9,1.2-2,1.1c-1-0.1-1.9-0.6-1.8-1.3c0-0.7,0.9-1.2,2-1.1 C113.3,11.5,114.2,12.1,114.1,12.7z" class="st16"/><path d="M109.3,14c0,0.3-0.4,0.6-0.9,0.5c-0.5,0-0.9-0.3-0.9-0.6c0-0.3,0.4-0.6,0.9-0.5 C108.9,13.4,109.3,13.7,109.3,14z" class="st16"/><path d="M115.5,17.3c0,0.3-0.4,0.6-0.9,0.5c-0.5,0-0.9-0.3-0.9-0.6c0-0.3,0.4-0.6,0.9-0.5 C115.2,16.7,115.6,17,115.5,17.3z" class="st16"/><path d="M116.5,14.9c0,0.5-0.6,0.8-1.3,0.8c-0.7,0-1.3-0.4-1.2-0.9c0-0.5,0.6-0.8,1.3-0.8 C115.9,14,116.5,14.4,116.5,14.9z" class="st16"/><path d="M113.1,15.5c0,0.4-0.5,0.7-1.1,0.6c-0.6,0-1.1-0.4-1-0.8c0-0.4,0.5-0.7,1.1-0.6 C112.7,14.8,113.2,15.1,113.1,15.5z" class="st16"/><path d="M111.6,17.1c0,0.5-0.6,0.8-1.4,0.8c-0.7,0-1.3-0.5-1.3-0.9c0-0.5,0.6-0.8,1.4-0.8 C111,16.2,111.6,16.6,111.6,17.1z" class="st16"/></g><path d="M114.2,14.1c0.9-0.4,3.9-1.1,5.6,0c1.7,1.1,2.4,3.5,4.2,3.3c1.8-0.2,6.8-2.1,7.9-1.9c1.1,0.2,3.3,0.5,3.8,1.9 c0.5,1.4,1.3,2.9,0,2.9c-1.3,0-3.1-0.8-4.1,0.3c-1,1-1.9,2.2-3.6,2.5c-1.7,0.3-3.6-2.1-5.2,0c-1.6,2.1-1.9,4.4-3.2,4.6 c-1.3,0.2-2.5-0.6-3.6-1.9c-1.1-1.3-2.2-1.1-4.7-1.3c-2.4-0.2-4.1-0.3-3.4-2.7c0.7-2.4,1.7-3.4,3-3.6C112,18,111.4,15.3,114.2,14.1 z" class="st9"/><g><path d="M116.6,23c2.9,0,5.3,1.9,5.3,4.2c0,2.3-2.4,4.2-5.3,4.2c-2.9,0-5.3-1.9-5.3-4.2 C111.3,24.8,113.7,23,116.6,23 M116.6,22.5c-3.3,0-6,2.1-6,4.7c0,2.6,2.7,4.7,6,4.7c3.3,0,6-2.1,6-4.7 C122.6,24.6,119.9,22.5,116.6,22.5L116.6,22.5z" class="st20"/><path d="M116.6,32.5c-3.8,0-6.9-2.4-6.9-5.3c0-2.9,3.1-5.3,6.9-5.3s6.9,2.4,6.9,5.3 C123.5,30.1,120.4,32.5,116.6,32.5z M116.6,22.3c-3.4,0-6.2,2.2-6.2,4.8c0,2.7,2.8,4.8,6.2,4.8c3.4,0,6.2-2.2,6.2-4.8 C122.9,24.5,120.1,22.3,116.6,22.3z" class="st21"/><path d="M116.6,32c-3.8,0-6.9-2.4-6.9-5.3s3.1-5.3,6.9-5.3s6.9,2.4,6.9,5.3S120.4,32,116.6,32z M116.6,21.8 c-3.4,0-6.2,2.2-6.2,4.8c0,2.7,2.8,4.8,6.2,4.8c3.4,0,6.2-2.2,6.2-4.8C122.9,24,120.1,21.8,116.6,21.8z" class="st22"/><path d="M116.6,31.7c-3.6,0-6.4-2.2-6.4-5c0-2.8,2.9-5,6.4-5s6.4,2.2,6.4,5C123.1,29.4,120.2,31.7,116.6,31.7z M116.6,22c-3.3,0-6,2.1-6,4.7c0,2.6,2.7,4.7,6,4.7c3.3,0,6-2.1,6-4.7C122.6,24.1,119.9,22,116.6,22z" class="st23"/><path d="M116.6,22.5c2.9,0,5.3,1.9,5.3,4.2c0,2.3-2.4,4.2-5.3,4.2c-2.9,0-5.3-1.9-5.3-4.2 C111.3,24.4,113.7,22.5,116.6,22.5 M116.6,22c-3.3,0-6,2.1-6,4.7c0,2.6,2.7,4.7,6,4.7c3.3,0,6-2.1,6-4.7 C122.6,24.1,119.9,22,116.6,22L116.6,22z" class="st24"/></g><g><path d="M140.3,21c-0.1,2.2-2.9,3.8-6.3,3.6c-3.4-0.2-6-2.1-5.9-4.2c0.1-2.2,2.9-3.8,6.3-3.6 C137.8,16.9,140.4,18.8,140.3,21z" class="st14"/><path d="M140.1,20.5c-0.1,2.1-2.8,3.7-6.1,3.5c-3.3-0.2-5.8-2-5.7-4.1c0.1-2.1,2.8-3.7,6.1-3.5 C137.7,16.6,140.2,18.4,140.1,20.5z" class="st15"/><path d="M136.1,18.1c0,0.6-0.9,1.1-1.8,1.1c-1-0.1-1.8-0.6-1.7-1.2c0-0.6,0.9-1.1,1.8-1.1 C135.4,16.9,136.2,17.4,136.1,18.1z" class="st16"/><path d="M131.6,19.3c0,0.3-0.4,0.5-0.9,0.5c-0.5,0-0.8-0.3-0.8-0.6c0-0.3,0.4-0.5,0.9-0.5 C131.3,18.7,131.6,19,131.6,19.3z" class="st16"/><path d="M137.5,22.4c0,0.3-0.4,0.5-0.9,0.5s-0.8-0.3-0.8-0.6c0-0.3,0.4-0.5,0.9-0.5 C137.1,21.8,137.5,22.1,137.5,22.4z" class="st16"/><path d="M138.3,20.1c0,0.4-0.6,0.7-1.2,0.7c-0.7,0-1.2-0.4-1.2-0.8c0-0.4,0.6-0.7,1.2-0.7 C137.8,19.3,138.4,19.6,138.3,20.1z" class="st16"/><path d="M135.2,20.7c0,0.4-0.5,0.6-1.1,0.6c-0.6,0-1-0.3-1-0.7c0-0.4,0.5-0.6,1.1-0.6 C134.8,20,135.2,20.3,135.2,20.7z" class="st16"/><path d="M133.7,22.2c0,0.4-0.6,0.8-1.3,0.7c-0.7,0-1.2-0.4-1.2-0.9c0-0.4,0.6-0.8,1.3-0.7 C133.2,21.3,133.8,21.7,133.7,22.2z" class="st16"/></g><path d="M123.5,26.3c0.2-1.7,4.9,0.2,5.4,2.3c0.5,2-0.8,5.1-0.8,6.1c0,1.1-1.7,7.2-1,8.8c0.8,1.6,1.3,6.9-0.1,7.1 c-1.5,0.2-0.7-3-0.4-4.6c0.4-1.6-0.5-5.1-0.7-6.3c-0.1-0.9,1.4-4.8,0.7-7.1c-0.3-0.9-2.6-1.7-3.5-1.3l-0.3,0.1 c-0.9,0.3-2-0.3-2.1-1.2c-0.1-0.4,0.1-0.8,0.6-1.1C122.5,28.5,123.3,28,123.5,26.3z" class="st9"/><g><path d="M104.6,29.1c0,0-0.1-0.3-0.2-0.7c-0.1-0.3-0.2-0.7-0.2-0.7l1.4,0.2l0.3,0.8L104.6,29.1z" class="st10"/><polygon points="106.7 31.8 107 30.6 107.7 31.4" class="st11"/><polygon points="104.1 30.9 104.3 30.1 105 30.1 105.2 30.6" class="st12"/><path d="M107.6,29.6l2,0.6l0.2-0.5l-0.3-0.6c0,0-0.5,0.1-0.9,0.2C108.1,29.5,107.6,29.6,107.6,29.6z" class="st11"/><polygon points="107.2 28.8 108.4 28.9 108.6 28.3 107.5 27.7 106.7 28.2" class="st11"/><polygon points="106.1 27.7 106.4 27.2 106.9 27.2 106.6 27.9" class="st10"/><polygon points="106.7 29.6 105.9 29 106.5 29" class="st12"/><polygon points="108.7 30.9 109.3 30.6 110.2 30.9 109.7 31.4" class="st10"/><polygon points="104.6 25.4 105 24.4 105.8 24.7 105.8 25.9" class="st12"/><polygon points="108 26.9 108.3 26.3 109.3 26.8 108.9 27.3" class="st12"/></g><g><polygon points="122.6 16 123.8 15.1 124.1 16.5 123.4 17" class="st10"/><polygon points="120.5 18.9 121.9 18.8 121.3 19.7" class="st11"/><polygon points="120.7 16.1 121.5 16.1 121.8 16.7 121.3 17.1" class="st12"/><polygon points="123.3 18.9 123.4 21 124.1 21 124.7 20.5" class="st11"/><polygon points="123.9 18.3 124.3 19.4 125.1 19.4 125.3 18.2 124.5 17.6" class="st11"/><polygon points="124.7 16.9 125.4 16.9 125.6 17.4 124.7 17.4" class="st10"/><polygon points="122.9 18.1 123.2 17.1 123.5 17.7" class="st12"/><polygon points="122.2 20.5 122.8 20.9 122.8 21.9 122 21.6" class="st10"/><polygon points="126.3 14.6 127.5 14.5 127.6 15.4 126.4 15.9" class="st12"/><polygon points="126.3 18.3 127.2 18.3 127.1 19.4 126.4 19.2" class="st12"/></g><g><path d="M109.7,26.5c-1.7,1.3-4.1,1.3-5.1-0.1c-1.1-1.4-0.6-3.7,1.2-5c1.7-1.3,4.1-1.3,5.1,0.1 C112,22.9,111.5,25.1,109.7,26.5z" class="st17"/><path d="M110.6,23.8c-0.6,0.4-1.5,0.2-2.1-0.5c-0.6-0.7-0.5-1.7,0-2.1c0.6-0.4,1.5-0.2,2.1,0.5 C111.2,22.4,111.2,23.3,110.6,23.8z" class="st18"/><path d="M110.5,23c-0.4,0.3-1,0.1-1.3-0.3c-0.4-0.5-0.4-1.1,0-1.4c0.4-0.3,1-0.1,1.3,0.3 C110.9,22.1,110.9,22.7,110.5,23z" class="st19"/><path d="M110.4,22.9c-0.3,0.2-0.8,0.1-1.1-0.3c-0.3-0.4-0.3-0.9,0-1.2c0.3-0.2,0.8-0.1,1.1,0.3 C110.7,22.1,110.7,22.7,110.4,22.9z" class="st17"/></g><g><path d="M128.1,13c0.1,2-1.3,3.7-3.1,3.8c-1.8,0.1-3.3-1.5-3.4-3.5c-0.1-2,1.3-3.7,3.1-3.8 C126.4,9.4,128,11,128.1,13z" class="st17"/><path d="M126.4,10.9c0,0.7-0.7,1.2-1.6,1.3c-0.9,0-1.7-0.5-1.7-1.1c0-0.7,0.7-1.2,1.6-1.3 C125.6,9.7,126.3,10.2,126.4,10.9z" class="st18"/><path d="M125.7,10.6c0,0.4-0.4,0.8-1,0.8c-0.6,0-1.1-0.3-1.1-0.7c0-0.4,0.4-0.8,1-0.8 C125.2,9.9,125.7,10.2,125.7,10.6z" class="st19"/><path d="M125.5,10.6c0,0.4-0.4,0.7-0.9,0.7c-0.5,0-0.9-0.3-0.9-0.6c0-0.4,0.4-0.7,0.9-0.7 C125.1,10,125.5,10.3,125.5,10.6z" class="st17"/></g><g><path d="M138.8,21.1c0,0,0.3-0.1,0.5-0.1c0.3-0.1,0.5-0.1,0.5-0.1l-0.5,1.3l-0.6,0.2c0,0,0-0.3,0-0.6 C138.7,21.4,138.8,21.1,138.8,21.1z" class="st10"/><path d="M136.7,23.1C136.7,23.1,136.7,23.1,136.7,23.1C136.7,23,136.7,23,136.7,23.1C136.7,23,136.7,23,136.7,23.1 C136.7,23.1,136.7,23.1,136.7,23.1C136.7,23.1,136.7,23.1,136.7,23.1l0,0.1c0,0,0,0,0,0c0,0,0,0,0,0c0.1,0,0.1,0,0.2,0.1 c0.1,0,0.1,0.1,0.1,0.1s0,0-0.1,0.1c0,0-0.1,0.1-0.1,0.1c0,0-0.1,0.1-0.1,0.1c0,0-0.1,0.1-0.1,0.1c0,0,0,0.1,0,0.1c0,0,0,0,0-0.1 c0-0.1,0-0.2,0-0.2C136.7,23.6,136.7,23.3,136.7,23.1C136.7,23.1,136.7,23,136.7,23.1C136.7,23,136.7,23,136.7,23.1 C136.7,23.1,136.7,23.1,136.7,23.1z" class="st11"/><path d="M135.8,20.6c0,0,0.1,0,0.2-0.1c0.1,0,0.3-0.1,0.4-0.1c0.3,0,0.7,0,0.9,0c0.2,0,0.4,0.1,0.6,0.2 c0.1,0.1,0.2,0.1,0.2,0.1s0,0,0,0.1c0,0.1,0,0.1,0,0.2c0,0.2-0.1,0.3-0.1,0.3s0,0-0.1,0c0,0,0,0-0.1,0l0,0l-0.1,0 c-0.2,0-0.4,0-0.4,0s0-0.1-0.1-0.2c-0.1-0.1-0.2-0.3-0.3-0.4c-0.2-0.1-0.4-0.3-0.7-0.3c-0.1,0-0.2,0-0.3,0 C135.8,20.6,135.8,20.6,135.8,20.6z" class="st12"/><path d="M137.6,23.9l-1,1.9l0.3,0.2l0.5-0.2c0,0,0-0.4,0.1-0.9C137.6,24.3,137.6,23.9,137.6,23.9z" class="st11"/><polygon points="138.3 23.5 137.9 24.6 138.3 24.9 139 23.9 138.9 23.2" class="st11"/><polygon points="139.4 22.6 139.7 22.9 139.6 23.3 139.1 23.1" class="st10"/><polygon points="137.9 23.1 138.5 22.3 138.3 22.9" class="st12"/><path d="M136.4,24.9l0,0.5l-0.4,0.9c0,0-0.1-0.1-0.1-0.3c0-0.1-0.1-0.1-0.1-0.2c0-0.1,0-0.1,0-0.1L136.4,24.9z" class="st10"/><polygon points="141.5 21.3 142.2 21.7 141.7 22.5 140.8 22.4" class="st12"/><polygon points="139.4 24.4 139.8 24.7 139.1 25.6 138.9 25.2" class="st12"/></g><g><polygon points="112.7 13.4 114.3 13.8 113.6 15.1 112.6 14.8" class="st10"/><polygon points="110.1 13.8 109.7 13.4 109.2 14 110.1 14.8 108.9 14.9 108.9 14.3 110.1 13.1" class="st11"/><polygon points="107.8 15.4 107.7 15.3 111 11.9 111.7 12.5 111.5 13.2 110.8 13 110.9 12.1 107.9 15.2" class="st12"/><polygon points="111.1 16.1 109.7 17.6 110.3 18.1 111.1 18.3" class="st11"/><polygon points="112.1 16.1 111.6 17.2 112.3 17.8 113.3 17.2 113.1 16.2" class="st11"/><polygon points="113.8 15.8 114.3 16.4 114.2 16.9 113.4 16.2" class="st10"/><polygon points="111.4 15.2 112.4 14.8 112.1 15.4" class="st12"/><polygon points="109.1 16.3 109.3 17 108.6 17.7 108.2 16.8" class="st10"/><polygon points="116.9 15.6 117.9 16.6 117.3 17.3 116 16.6" class="st12"/><polygon points="114.1 18.1 114.8 18.9 113.9 19.5 113.5 18.8" class="st12"/></g><g><path d="M115.4,22.5c0,0,0.3,0.2,0.6,0.4c0.3,0.2,0.6,0.4,0.6,0.4l-1.1,0.9l-0.8-0.5L115.4,22.5z" class="st13"/><path d="M111.9,21.5c0,0,0.1,0.3,0.3,0.7c0.2,0.3,0.3,0.7,0.3,0.7s-0.3-0.1-0.5-0.2c-0.3-0.1-0.5-0.2-0.5-0.2 L111.9,21.5z" class="st13"/><path d="M114.6,20.7c0,0,0.1,0.2,0.2,0.4c0.1,0.2,0.2,0.4,0.2,0.4l-0.5,0.6l-0.6-0.4L114.6,20.7z" class="st13"/><path d="M112.9,24.3c0,0-0.5,0.2-1,0.4c-0.5,0.2-1,0.4-1,0.4l0.3,0.6l0.8,0.4c0,0,0.2-0.5,0.4-1 C112.7,24.8,112.9,24.3,112.9,24.3z" class="st13"/><path d="M113.8,24.7l-0.9,0.8l0.4,0.7c0,0,0.3-0.1,0.6-0.1c0.3-0.1,0.6-0.1,0.6-0.1l0.1-1c0,0-0.2-0.1-0.4-0.2 C114,24.8,113.8,24.7,113.8,24.7z" class="st13"/><path d="M115.5,24.9l0.3,0.7l-0.3,0.4c0,0-0.1-0.2-0.3-0.4c-0.1-0.2-0.3-0.4-0.3-0.4L115.5,24.9z" class="st13"/><path d="M113.5,23.7c0,0,0.3,0,0.5,0c0.3,0,0.5,0,0.5,0l-0.4,0.4L113.5,23.7z" class="st13"/><path d="M111,23.8l-0.2,0.7l-0.9,0.4l0-1c0,0,0.3,0,0.6,0C110.7,23.8,111,23.8,111,23.8z" class="st13"/><path d="M118.5,25.7C118.5,25.7,118.5,25.7,118.5,25.7c0.1,0.1,0.1,0.2,0.2,0.3c0.1,0.2,0.3,0.6,0.4,1 c0.1,0.4,0.2,1,0.3,1.4c0,0.2,0,0.4,0,0.5c0,0.1,0,0.2,0,0.2l-1-0.1c0,0,0-0.1,0-0.2c0-0.1,0-0.3,0-0.4c-0.1-0.3-0.2-0.8-0.3-1.1 c-0.2-0.3-0.3-0.6-0.5-0.8c-0.1-0.1-0.1-0.2-0.1-0.2c0,0-0.1-0.1-0.1-0.1s0.3-0.2,0.6-0.3C118.2,25.8,118.5,25.7,118.5,25.7z" class="st13"/><path d="M115,27.1c0,0,0.1,0.2,0.2,0.4c0.1,0.2,0.1,0.4,0.1,0.4s-0.3,0-0.6,0c-0.3,0-0.6,0.1-0.6,0.1s0-0.1,0-0.2 c0-0.1,0-0.3,0-0.3L115,27.1z" class="st13"/></g><g><path d="M120.6,12.4c0,0,0.3,0.2,0.5,0.3c0.3,0.2,0.5,0.3,0.5,0.3l-0.9,0.7l-0.6-0.4L120.6,12.4z" class="st13"/><path d="M117.8,11.6c0,0,0.1,0.3,0.2,0.6c0.1,0.3,0.3,0.6,0.3,0.6s-0.2-0.1-0.4-0.1c-0.2-0.1-0.4-0.2-0.4-0.2 L117.8,11.6z" class="st13"/><path d="M120,10.9c0,0,0.1,0.2,0.2,0.3c0.1,0.2,0.2,0.3,0.2,0.3l-0.4,0.4l-0.5-0.3L120,10.9z" class="st13"/><path d="M118.6,13.8c0,0-0.4,0.2-0.8,0.4c-0.4,0.2-0.8,0.3-0.8,0.3l0.3,0.5l0.6,0.4c0,0,0.2-0.4,0.3-0.8 C118.4,14.2,118.6,13.8,118.6,13.8z" class="st13"/><path d="M119.4,14.1l-0.7,0.7l0.3,0.6c0,0,0.2-0.1,0.5-0.1c0.2-0.1,0.5-0.1,0.5-0.1l0.1-0.8c0,0-0.2-0.1-0.3-0.1 C119.5,14.2,119.4,14.1,119.4,14.1z" class="st13"/><path d="M120.7,14.3l0.2,0.6l-0.2,0.3c0,0-0.1-0.2-0.2-0.4c-0.1-0.2-0.2-0.4-0.2-0.4L120.7,14.3z" class="st13"/><path d="M119.1,13.3c0,0,0.2,0,0.4,0c0.2,0,0.4,0,0.4,0l-0.4,0.4L119.1,13.3z" class="st13"/><path d="M117.1,13.4l-0.1,0.6l-0.7,0.3l0-0.8c0,0,0.2,0,0.5,0C116.9,13.4,117.1,13.4,117.1,13.4z" class="st13"/><path d="M123.1,14.9C123.1,14.9,123.1,14.9,123.1,14.9c0.1,0.1,0.1,0.2,0.1,0.3c0.1,0.2,0.2,0.5,0.3,0.8 c0.1,0.3,0.2,0.8,0.2,1.1c0,0.2,0,0.3,0,0.4c0,0.1,0,0.2,0,0.2l-0.8-0.1c0,0,0,0,0-0.1c0-0.1,0-0.2,0-0.3c0-0.3-0.1-0.6-0.3-0.9 c-0.1-0.3-0.3-0.5-0.4-0.6c-0.1-0.1-0.1-0.1-0.1-0.2c0,0,0-0.1,0-0.1s0.2-0.1,0.5-0.3C122.9,15,123.1,14.9,123.1,14.9z" class="st13"/><path d="M120.3,16c0,0,0.1,0.2,0.1,0.4c0.1,0.2,0.1,0.3,0.1,0.3s-0.2,0-0.5,0c-0.2,0-0.5,0.1-0.5,0.1s0-0.1,0-0.2 c0-0.1,0-0.3,0-0.3L120.3,16z" class="st13"/></g></g></svg>