<svg xmlns="http://www.w3.org/2000/svg" xmlns:v="https://vecta.io/nano" xmlns:xlink="http://www.w3.org/1999/xlink" id="Layer_1" x="0" y="0" version="1.1" viewBox="0 0 135 135" xml:space="preserve" style="enable-background:new 0 0 135 135"><style type="text/css">.st0{fill:#2ac4c4}.st1{fill:#fff}</style><path d="M45.3,23L112,89.7V135L0,23H45.3z" class="st0"/><path d="M40,49.5l7.3-7.3l5.3,5.3l-1.4,1.4l-3.5-3.5L46.2,47l3.1,3.1l-1.4,1.4l-3.1-3.1l-2.9,2.9L40,49.5L40,49.5z M52.8,49.8l1.4-1.4l2,2l-1.4,1.4L52.8,49.8z M46.7,56.2l4-4l-0.8-0.8l1.5-1.2l2.5,2.5L48.5,58L46.7,56.2L46.7,56.2z M50,59.5	l5.4-5.4l1.7,1.7l-0.4,0.5c0.4,0.1,0.8,0.2,1.2,0.4c0.5,0.2,0.9,0.5,1.2,0.9c0.7,0.7,1,1.4,1,2s-0.4,1.3-1.1,2l-3.4,3.4l-1.8-1.8	l3.3-3.3c0.3-0.3,0.5-0.6,0.5-0.8s-0.2-0.5-0.5-0.9c-0.2-0.2-0.4-0.3-0.7-0.5s-0.6-0.2-0.8-0.2l-3.7,3.7L50,59.5L50,59.5z M63.7,60.7l1.4-1.4l2,2l-1.4,1.4L63.7,60.7z M57.6,67.1l4-4l-0.8-0.8l1.5-1.2l2.5,2.5l-5.4,5.4L57.6,67.1L57.6,67.1z M62.8,72.5	c-0.4-0.4-0.8-0.9-1.1-1.3s-0.6-0.8-0.7-1.1l1.4-1.4c0.2,0.4,0.4,0.8,0.7,1.2s0.6,0.7,0.8,1c0.3,0.3,0.6,0.5,0.7,0.7	c0.2,0.1,0.3,0.1,0.5,0c0.2-0.2,0.1-0.4,0-0.7l-0.7-1.3c-0.3-0.7-0.5-1.2-0.5-1.7c0-0.5,0.2-0.9,0.7-1.4c0.5-0.5,1.1-0.7,1.8-0.6	c0.7,0.1,1.5,0.6,2.3,1.5c0.3,0.3,0.7,0.7,0.9,1.1s0.5,0.7,0.6,1l-1.4,1.4c-0.1-0.3-0.3-0.6-0.5-0.9s-0.4-0.6-0.7-0.8	c-0.3-0.3-0.5-0.5-0.8-0.7c-0.2-0.2-0.4-0.2-0.5,0c-0.1,0.1-0.1,0.3,0,0.6L67,70c0.3,0.6,0.5,1,0.6,1.4c0.1,0.4,0.1,0.7,0,1	s-0.3,0.6-0.6,0.9c-0.5,0.5-1.2,0.7-1.9,0.6S63.6,73.3,62.8,72.5L62.8,72.5z M66.7,76.2l7.6-7.6l1.8,1.8L73.5,73	c0.4,0.1,0.7,0.2,1.1,0.4c0.4,0.2,0.8,0.5,1.1,0.8c0.7,0.7,1.1,1.4,1.1,2.1c0,0.7-0.3,1.4-1.1,2.1l-3.4,3.4L70.5,80l3.3-3.3	c0.3-0.3,0.5-0.6,0.5-0.8s-0.2-0.6-0.5-0.9c-0.2-0.2-0.4-0.3-0.7-0.5c-0.3-0.1-0.6-0.2-0.8-0.2L68.5,78L66.7,76.2L66.7,76.2z M76.5,86.2c-0.9-0.9-1.5-1.9-1.6-2.9c-0.1-1,0.3-2,1.3-3c0.9-0.9,1.8-1.3,2.7-1.3s1.9,0.4,2.9,1.3c0.9,0.9,1.3,1.7,1.3,2.6	s-0.3,1.7-1.1,2.5l-1,1l-3.8-3.8c-0.3,0.4-0.3,0.9-0.2,1.3c0.2,0.4,0.5,0.9,1.1,1.5c0.3,0.3,0.6,0.6,1,0.8c0.4,0.3,0.7,0.4,1,0.6	l-1.2,1.2c-0.4-0.1-0.8-0.4-1.2-0.7C77.3,86.9,76.9,86.6,76.5,86.2L76.5,86.2z M78.3,81.5l2.2,2.2l0.2-0.2c0.3-0.3,0.4-0.6,0.4-0.9	c0-0.3-0.2-0.7-0.6-1c-0.4-0.4-0.8-0.7-1.2-0.6C79,80.9,78.7,81.1,78.3,81.5L78.3,81.5z M82.4,92.1c-0.5-0.5-0.9-1-1.1-1.6	s-0.2-1.1,0-1.7c0.2-0.6,0.6-1.2,1.2-1.8c0.7-0.7,1.3-1.1,2-1.3c0.7-0.2,1.3-0.2,1.9-0.1c0.6,0.2,1.2,0.5,1.7,1	c0.3,0.3,0.5,0.6,0.7,0.8c0.2,0.3,0.3,0.6,0.4,0.9l2.5-2.5l1.8,1.8l-7.6,7.6l-1.6-1.6l0.3-0.6c-0.4,0-0.8-0.1-1.2-0.3	C83.1,92.7,82.7,92.4,82.4,92.1L82.4,92.1z M84.2,91.3c0.4,0.4,0.9,0.6,1.4,0.6l2.2-2.2c0-0.5-0.2-0.9-0.6-1.3	c-0.4-0.4-0.8-0.5-1.3-0.4c-0.5,0.1-1,0.4-1.5,0.9c-0.5,0.5-0.8,0.9-0.7,1.3C83.6,90.5,83.8,90.9,84.2,91.3L84.2,91.3z" class="st1"/></svg>