<svg xmlns="http://www.w3.org/2000/svg" xmlns:v="https://vecta.io/nano" xmlns:xlink="http://www.w3.org/1999/xlink" id="Layer_1" x="0" y="0" style="enable-background:new 0 0 193 230" opacity=".1" version="1.1" viewBox="0 0 193 230" xml:space="preserve"><style type="text/css">.st0{fill:#f7e9cd}.st1{fill:url(#SVGID_1_)}.st2{fill:#dabc8b}.st3{fill:#fd5a70}.st4{fill:#ffcb39}</style><g><g><path d="M218.1,80.9l-0.2,0.3c-18.6,15.8-37.7,31.8-56.4,47.1c-10.9,9-21.7,18.1-32.6,27.1c0,0-0.2,0.3-0.5,0.2 c-0.5,0.2-1.3,0.2-1.9-0.5c-8-9.5-21-10.2-31.5-1.8c-0.2,0.3-0.5,0.2-0.8,0s-0.7-0.3-0.9-0.8c0,0-0.3-0.2-0.2-0.5 c-0.3-0.2-0.3-0.2-0.3-0.2c-3.5-4.1-7.1-8.7-10.6-12.8c-7.1-8.7-14.5-17.9-22.2-26.1c-0.3-0.2-0.3-0.2-0.2-0.5c0,0,0,0-0.2-0.5 c0,0-0.4-1-0.2-1.3l0.2-0.3c2.3-2.2,4.2-4.7,5.7-6.9c4.2-8,3.4-17.1-2.7-24.5c-0.2-0.5-0.2-0.5,0-0.8s0.2-0.3,0.3-0.7L63,77 c18.6-15.8,37.5-31.5,55.9-46.9c11-9.4,22.2-18.3,33.2-27.7l0.5-0.2c0.5-0.2,1.3-0.2,1.9,0.5c8,9.5,21,10.2,31.5,1.8 c0.5-0.2,0.5-0.2,1-0.4c0.3,0.2,0.7,0.3,0.9,0.8c0,0,0.2,0.5,0.5,0.7l0.3,0.2c7.6,8.5,15.1,17.4,22.2,26.1 c3.5,4.1,7.1,8.7,10.6,12.8c0.5,0.7,0.7,1.2,0.4,1.8l0,0l-0.2,0.3c-2.3,2.2-4.2,4.7-5.7,6.9c-4.2,8-3.4,17.1,2.7,24.5 c0.2,0.5,0.2,0.5,0,0.8C218.2,80.5,218.2,80.5,218.1,80.9z" class="st0"/><linearGradient id="SVGID_1_" x1="25.296" x2="255.404" y1="78.592" y2="78.592" gradientUnits="userSpaceOnUse"><stop offset="0" style="stop-color:#f45b75"/><stop offset="1" style="stop-color:#f35369"/></linearGradient><path d="M193.2-28.6c-2.6,2.1-5.3,3.3-7.7,3.1c-2.5,0.1-5.1-0.7-7.5-2.7c-0.7-0.3-1-0.5-1.7,0 C151.8-7.7,127.1,13.2,102.5,34C78,54.5,53.5,75,28.8,95.9l-0.2,0.3c-0.2,0.3-0.3,0.7-0.1,1.2c1.8,3.3,1.9,6.7,0.1,10.4 c-1,1.2-2.1,2.7-3.2,4.3l0,0c-0.2,0.3-0.1,1.2,0.2,1.3l3,4.3c0.5,0.7,1,0.5,1.5,0.3c2.6-2.1,5.3-3.3,7.7-3.1 c3.4-0.1,6.1,1.2,8.9,4.1l0.3,0.2c0,0,0.3,0.2,0.2,0.5c0,0,0,0,0.2,0.5c2.1,3.5,2.5,7,0.3,10.9c-0.6,1.4-1.8,2.9-3.2,4.3l-0.2,0.3 c-0.2,0.3-0.1,1.2,0.2,1.3l3.5,4.1c0.5,0.7,1,0.5,1.5,0.3c2.6-2.1,5.3-3.3,7.7-3.1c3.4-0.1,6.1,1.2,8.5,4l0,0c0,0,0,0,0.3,0.2 c0,0,0.3,0.2,0.2,0.5c0,0,0,0,0.2,0.5c2.1,3.5,2.5,7,0.3,10.9c-0.6,1.4-1.8,2.9-3.2,4.3l-0.2,0.3c-0.2,0.3-0.1,1.2,0.2,1.3 l3.5,4.1c0.5,0.7,1,0.5,1.5,0.3c2.6-2.1,5.3-3.3,7.7-3.1c3.4-0.1,6.1,1.2,8.5,4c0,0,0,0,0.3,0.2c0,0,0,0,0.3,0.2 c0,0,0.3,0.2,0.2,0.5c0,0,0,0,0.2,0.5c2.1,3.5,2.5,7,0.3,10.9c-0.6,1.4-1.8,2.9-3.2,4.3l-0.2,0.3c-0.2,0.3-0.1,1.2,0.2,1.3 l3.2,1.9c0.5,0.7,1,0.5,1.5,0.3c2.6-2.1,5.3-3.3,7.7-3.1c2.5-0.1,5.1,0.7,7.1,2.5c0.7,0.3,1,0.5,1.7,0c24.5-20.5,49-41,73.5-61.6 C201.9,104,227,83,251.7,62.1l0.2-0.3c0.2-0.3,0.3-0.7,0.1-1.2c-2.1-3.5-2.2-6.8-0.1-10.4c0.6-1.4,1.8-2.9,3.2-4.3l0.2-0.3 c0.2-0.3,0.1-1.2-0.2-1.3l-3.5-4.1c-0.5-0.7-1-0.5-1.5-0.3c-2.6,2.1-5.3,3.3-7.7,3.1c-3.4,0.1-5.7-1-8.5-4l0,0l-0.3-0.2 c-0.3-0.2-0.2-0.5-0.2-0.5s0,0-0.2-0.5c-2.1-3.5-2.5-7-0.3-10.9c0.6-1.4,1.8-2.9,3.2-4.3l0.2-0.3c0.2-0.3,0.1-1.2-0.2-1.3 l-3.5-4.1c-0.5-0.7-1-0.5-1.5-0.3c-2.6,2.1-5.3,3.3-7.7,3.1c-3.4,0.1-6.1-1.2-8.5-4l0,0c0,0,0,0-0.3-0.2c0,0-0.3-0.2-0.2-0.5 c0,0,0,0-0.2-0.5c-2.1-3.5-2.5-7-0.3-10.9c0.6-1.4,1.8-2.9,3.2-4.3l0.2-0.3c0.2-0.3,0.1-1.2-0.2-1.3l-3.5-4.1 c-0.5-0.7-1-0.5-1.5-0.3c-2.6,2.1-5.3,3.3-7.7,3.1c-3.4,0.1-6.1-1.2-8.5-4c0,0,0,0-0.3-0.2c0,0,0,0-0.3-0.2 c-0.3-0.2-0.2-0.5-0.2-0.5s0,0-0.2-0.5c-2.1-3.5-2.5-7-0.3-10.9c0.6-1.4,1.8-2.9,3.2-4.3l0.2-0.3c0.2-0.3,0.1-1.2-0.2-1.3 l-2.9-2.6C194.2-29,193.5-29.3,193.2-28.6z M187.6,5.7c0,0,0.2,0.5,0.5,0.7l0.3,0.2c7.6,8.5,15.1,17.4,22.2,26.1 c3.5,4.1,7.1,8.7,10.6,12.8c0.5,0.7,0.7,1.2,0.4,1.8l-0.2,0.3c-2.3,2.2-4.2,4.7-5.7,6.9c-4.2,8-3.4,17.1,2.7,24.5 c0.2,0.5,0.2,0.5,0,0.8s-0.2,0.3-0.3,0.7l-0.2,0.3c-18.6,15.8-37.7,31.8-56.4,47.1c-10.9,9-21.7,18.1-32.6,27.1 c0,0-0.2,0.3-0.5,0.2c-0.5,0.2-1.3,0.2-1.9-0.5c-8-9.5-21-10.2-31.5-1.8c-0.2,0.3-0.5,0.2-0.8,0s-0.7-0.3-0.9-0.8 c0,0-0.3-0.2-0.2-0.5c-0.3-0.2-0.3-0.2-0.3-0.2c-3.5-4.1-7.1-8.7-10.6-12.8c-7.1-8.7-14.5-17.9-22.2-26.1 c-0.3-0.2-0.3-0.2-0.2-0.5c0,0,0,0-0.2-0.5c0,0-0.4-1-0.2-1.3l0.2-0.3c2.3-2.2,4.2-4.7,5.7-6.9c4.2-8,3.4-17.1-2.7-24.5 c-0.2-0.5-0.2-0.5,0-0.8s0.2-0.3,0.3-0.7l0.2-0.3c18.6-15.8,37.5-31.5,55.9-46.9c11-9.4,22.2-18.3,33.2-27.7l0.5-0.2 c0.5-0.2,1.3-0.2,1.9,0.5c8,9.5,21,10.2,31.5,1.8c0.5-0.2,0.5-0.2,1-0.4C187.1,5,187.2,5.5,187.6,5.7z" class="st1"/><g><g><path d="M188.6,5.3C188,3.8,186.3,3,185,4.1c-9.2,7.3-22,8-30-1.5c-0.9-0.8-2-1-3-0.6c-0.5,0.2-0.5,0.2-1,0.4 C121.6,27.3,91.1,51.6,61.9,77c-0.7,0.5-0.8,0.9-0.8,1.7c-0.3,0.7-0.1,1.2,0.4,1.8c8,9.5,6.1,21.5-3.1,29.7c-0.8,0.9-1,2-0.6,3 c0.2,0.5,0,0.8,0.7,1.2c11.6,12.5,21.9,26,32.9,39c0.3,0.2,0.7,0.3,0.5,0.7c0.7,1.2,2.1,1.8,3.4,0.7c9.2-7.3,22-8,30,1.5 c0.9,0.8,2,1,3,0.6c0.5-0.2,0.5-0.2,1-0.4c29.4-24.9,59.9-49.2,89.1-74.6c0.7-0.5,0.8-0.9,0.8-1.7c0.3-0.7,0.1-1.2-0.4-1.8 c-8-9.5-6.1-21.5,3.1-29.7c1.3-1,0.9-2.9,0.1-3.7l0,0c-11-13-21.6-26.7-32.9-39C188.9,5.5,188.9,5.5,188.6,5.3z M217,46.8 c-8.8,9.2-11,22.7-3.5,33.2c-28.3,24.2-57.2,48-85.8,72c-9.2-8.8-22.5-9.6-33-2.1c-10.4-12.3-20.2-25.2-31.3-37 c8.8-9.2,11.3-22.5,3.5-33.2c28.3-24.2,57.2-48,85.8-72c9.2,8.8,22.5,9.6,33,2.1C196.8,21.6,206.9,34.6,217,46.8z" class="st2"/><path d="M212.9,45.7L212.9,45.7c-9-10.9-17.2-21.7-26.6-31.9c-0.5-0.7-1.5-1.1-2.2-0.6c-8.6,6.8-22.5,8.2-30-0.7 c-0.5-0.7-1-0.5-1.4-0.6c-0.3-0.2-0.8,0-1.3,0.2c-26,21.9-52.5,43.2-78.6,65.4c-0.2,0.3-0.3,0.7-0.3,0.7c-0.7,0.5-0.6,1.4-0.1,2 c7.5,8.9,5,22.2-3.6,29.9c-0.2,0.3-0.3,0.7-0.3,0.7c-0.3,0.7-0.5,1,0,1.7c9,10,17.4,20.6,26.2,30.9c0.3,0.2,0.3,0.2,0.7,0.3 c0.5,0.7,1.4,0.6,2,0.1c8.4-6.5,22.9-4.7,30.2,2.9c0.9,0.8,1.9,0.5,2.2-0.2l0.5-0.2c26.6-22.4,53.3-44,79.8-66.9 c0.7-0.5,0.5-1,0.6-1.4c0.2-0.3,0.5-1,0-1.7c-7.5-8.9-5.3-21.6,3.1-28.8c0.5-0.2,0.3-0.7,0.5-1l0,0l0,0 C213.4,46.4,213.1,46.2,212.9,45.7z M206.4,78.3c-25.8,22.4-52.3,43.7-78.3,65.6c-8.1-7.5-22.8-9-32.2-3 c-8-9.5-15.7-19.8-24.3-28.8c8.5-8.5,11.2-22.2,3.8-32.2c25.5-21.7,51.3-42.4,76.8-64.2c8.7,9,22.6,8.5,32.5,1.5 c8.8,9.5,16.5,19.7,24.9,29.4C201,55.1,198.5,68.5,206.4,78.3z" class="st2"/></g><g><path d="M145.9,81.7l-0.4,40.9c-11.8-1.4-17.6-4.9-24.6-14.8L145.9,81.7z M130.6,104.8c0.2-4-5.6-3-5,1.8 C126,111,130.7,109,130.6,104.8z M142.1,113.1l-1.5,1.4l1.4,2.3l1.1-1.5L142.1,113.1z M134.7,109.2c0.2,6.7,8,3.3,7.2-1.2 C139.9,102.5,133.9,103,134.7,109.2z M136.8,100.3l-1.7-1.6l-2.1,1.9l1.5,1.1L136.8,100.3z M132.9,111.3l-1.4-1.5l-1.5,1.4 l1.7,0.8L132.9,111.3z M143.1,94.9c-1.1-4.7-4.5-5.4-4.5,0.8C138.5,99.4,144.4,99.2,143.1,94.9z" class="st3"/><g><path d="M108.8,66l4.6,3.4l1.6-4.2c0,0-3,0.3-5.6-1.4L108.8,66z" class="st3"/><path d="M109.7,59.8c1.3-2.7,2.7-5,4.2-5.5l1,5.9c0,0,0.8-2.5,2.7-4.1l3.2,1.1c-2.1,1.9-3.6,3.3-4.9,6.9l-2.2-6.8 c0,0-0.7,4.2-0.4,4.4L109.7,59.8z" class="st3"/><path d="M116.7,51c2-1.6,4.6-2.8,5.5-2.8l-0.9,5.4c0,0,1.6-1.7,4.1-2.6l2.4,2c-2.8,0.8-4.3,1.3-6.8,3.9l-0.2-6.7 c0,0-1.9,3.2-2.1,3.6L116.7,51z" class="st3"/><path d="M131.9,48.6c0,1.7-4.9,5.2-4-0.2C127.9,45.5,132.3,46.7,131.9,48.6z M129.4,48.7c0,1.7,1.7,0.8,1.2,0.1 C130.9,48.1,129.2,47.3,129.4,48.7z" class="st3"/><path d="M133.9,49.5c-0.7-0.3-2.2-0.6-2.1-2.6c0.1-2-3-3.5-5.1-2.4l0.9,1.7c0,0,4.1-2.6,3.7,1.7 c0,1.7,1.4,2.3,1.4,2.3L133.9,49.5z" class="st3"/><path d="M113.2,74.3l0.5,6.9l-15.6-5.6c0.7-9.6,6.6-10.6,8.2-8.6c2.8,3,0.5,7.7,0.5,7.7L113.2,74.3z M105.7,74.5 c0,0-0.9-9.6-3.5-0.4L105.7,74.5z" class="st3"/><path d="M106.1,63.9c-0.2-1.3,1.5-1.4,2,0.1C108.3,65.4,106.4,64.9,106.1,63.9z" class="st3"/></g><path d="M169.9,59.7c-4.9-6.4-11.9-9.3-19.4-9.9l-2.3,21.8l1.6-22.1c-6.6-0.2-14.1,1.7-19.5,5.4l17.8,17l-17.9-16.7 c-3.1,2.3-6.1,5-8.2,8.6c-1.5,2.2-2.4,5.1-2.7,7.5l28.6,1.7l-28.6-0.9c-0.6,8.4,3.3,16.9,8.9,23.6l20.6-21.1l2.2,30.9 c8.4-0.2,14.5-3.6,18.4-8.4L150.3,75L170,96.7c6.5-8.6,7.8-17.5,4.8-26.4l-24.6,3l24.3-4C172.9,67.3,171.3,61.1,169.9,59.7z" class="st3"/><path d="M169,82.9c-1.4-1.5-3.2-1.9-4.6-0.9c-1.3,1-1.1,3.2,0,4.5c1.4,1.5,3.2,1.9,4.6,0.9 C170.8,86.2,170.4,84.4,169,82.9z" class="st4"/><path d="M158.7,74.8c-1.7-0.8-2.7-0.4-3.5,0.4c-0.5,1,0.6,2.3,1.9,3c1.7,0.8,2.7,0.4,3.5-0.4 C160.9,77.1,160.2,75.9,158.7,74.8z" class="st4"/><path d="M171.1,73.9c-2-1-3.5-0.4-3.9,0.3c-0.6,1.4,0.8,2.8,2.3,4c2,1,3.4,0.7,3.9-0.3 C173.9,76,172.5,74.6,171.1,73.9z" class="st4"/><path d="M159.5,98c-4.6-3.4-0.5-7.7,1.5-5.1C163.6,95.3,163.8,101.2,159.5,98z" class="st4"/><path d="M150.4,86.3c-1.3,2.7,2,6.3,2.8,3C154.5,86.5,152.3,83,150.4,86.3z" class="st4"/><path d="M152.6,62c-1.5-4.8,4.1-5.2,4.3-1.3S154.1,66.8,152.6,62z" class="st4"/><path d="M150.3,68.8c-0.8-2.8,2.1-2.7,2.5-0.9C153,70,151.4,71.8,150.3,68.8z" class="st4"/><path d="M143.8,64.1c-0.8-2.8,2.1-2.7,2.5-0.9C146.5,65.3,145,66.7,143.8,64.1z" class="st4"/><path d="M136.7,57.9c-3.1-2.3-0.5-5.2,1.8-2.9C140.4,57.1,139.8,60.1,136.7,57.9z" class="st4"/><path d="M144.1,53.5c0.4-2.7,3.2-1.4,2.5,0.8C146.2,56.1,144,56.3,144.1,53.5z" class="st4"/><path d="M127.2,60.5c2.7-4.1,6.7,0.7,4.3,3.2C128.3,66,124.4,64.6,127.2,60.5z" class="st4"/><path d="M136.9,67.1c2.8-0.8,3.4,2.4,1.1,3C136,70,134.1,67.9,136.9,67.1z" class="st4"/><path d="M138,75.5c2.8-0.8,3.4,2.4,1.1,3C136.6,78.6,135.2,76.3,138,75.5z" class="st4"/><path d="M122.3,78.1c-0.5-4.4,4.6-2.8,4,0.2C126.1,81.5,122.7,82.5,122.3,78.1z" class="st4"/><path d="M128.7,84.8c3.3-2.6,5.8,1.9,3.1,3.1C128.8,89.9,125.4,87.5,128.7,84.8z" class="st4"/><path d="M162.8,64.2c-3-3.5,1.2-5.2,3.5-3C168.6,63.2,167.4,69.3,162.8,64.2z" class="st4"/><rect width="1.5" height="1.9" x="158.2" y="67.5" class="st4" transform="matrix(0.766 -0.6428 0.6428 0.766 -6.8154 118.1913)"/><rect width="1.5" height="1.1" x="123.5" y="85.4" class="st4" transform="matrix(0.766 -0.6428 0.6428 0.766 -26.1912 99.9897)"/><rect width="1.5" height="1.9" x="163.8" y="76.6" class="st4" transform="matrix(0.766 -0.6428 0.6428 0.766 -11.3366 123.9172)"/><polygon points="171.1 81 171.2 82.7 173 83.1 173 81.4" class="st4"/><polygon points="159.9 81.1 159.9 82.8 161.6 82.8 161.4 81.4" class="st4"/><polygon points="136 80.8 135.7 82.3 137.5 82.7 137.5 81.1" class="st4"/><polygon points="122 67.2 121.8 68.4 123.5 69.2 123.7 67.1" class="st4"/><polygon points="129.8 77.9 129.9 78.8 130.7 78.7 130.7 77.9" class="st4"/><polygon points="129.5 67 129.6 67.8 130.4 67.8 130.4 67" class="st4"/><polygon points="145.4 67.7 145.4 68.6 146.2 68.5 146.2 67.7" class="st4"/><polygon points="140.6 60.1 140.3 60.8 141.3 61.3 141 60.3" class="st4"/><polygon points="141.1 53.7 141 54.9 141.8 54.9 141.8 54" class="st4"/><polygon points="159 57.1 159.1 57.9 159.9 57.9 159.7 57.4" class="st4"/><polygon points="153.7 96.9 153.8 98.6 155.5 98.6 155.6 97.4" class="st4"/></g></g></g></g></svg>