<svg xmlns="http://www.w3.org/2000/svg" xmlns:v="https://vecta.io/nano" xmlns:xlink="http://www.w3.org/1999/xlink" id="Layer_1" x="0" y="0" version="1.1" viewBox="0 0 64 64" xml:space="preserve" style="enable-background:new 0 0 64 64"><style type="text/css">.st0{fill:#ffd283}.st1{fill:#f7e9cd}.st2{fill:url(#SVGID_1_)}.st3{fill:#dabc8b}.st4{fill:#fd5a70}.st5{fill:#ffcb39}</style><g><circle cx="32" cy="32" r="32" class="st0"/></g><g><g><path d="M37.7,45.2L37.7,45.2c-4.2-1.9-8.4-3.9-12.5-5.8c-2.4-1.1-4.8-2.3-7.2-3.4c0,0-0.1,0-0.1-0.1 c-0.1-0.1-0.1-0.2-0.1-0.3c1-2.1,0.1-4.3-2.2-5.5c-0.1,0-0.1-0.1-0.1-0.1c0-0.1,0-0.1,0-0.2v-0.1v-0.1c0.4-0.9,0.9-1.9,1.3-2.8 c0.9-1.9,1.9-3.9,2.7-5.8c0,0,0-0.1,0.1-0.1l0,0c0,0,0.1-0.1,0.2-0.1h0.1c0.5,0.2,1.1,0.4,1.6,0.4c1.7,0.1,3.2-0.8,3.9-2.4 c0-0.1,0.1-0.1,0.1-0.1c0.1,0,0.1,0,0.1,0h0.1c4.1,1.9,8.3,3.8,12.3,5.7c2.4,1.1,4.8,2.3,7.3,3.4c0,0,0.1,0,0.1,0.1 c0.1,0.1,0.1,0.2,0.1,0.3c-1,2.1-0.1,4.3,2.2,5.4c0.1,0,0.1,0.1,0.1,0.1c0,0.1,0,0.1-0.1,0.2c0,0,0,0.1-0.1,0.1v0.1 c-0.8,2-1.8,3.9-2.7,5.8c-0.4,0.9-0.9,1.9-1.3,2.8c-0.1,0.1-0.2,0.2-0.3,0.2l0,0h-0.1c-0.5-0.2-1.1-0.4-1.6-0.4 c-1.7-0.1-3.2,0.8-3.9,2.4c0,0.1-0.1,0.1-0.1,0.1C37.8,45.2,37.8,45.2,37.7,45.2z" class="st1"/><linearGradient id="SVGID_1_" x1="9.659" x2="54.4" y1="31.95" y2="31.95" gradientUnits="userSpaceOnUse"><stop offset="0" style="stop-color:#f45b75"/><stop offset="1" style="stop-color:#f35369"/></linearGradient><path d="M54.3,32.4c-0.6-0.3-0.9-0.6-1.2-1c-0.2-0.5-0.3-0.9-0.1-1.5c0-0.1,0-0.2-0.1-0.3c-5.4-2.5-10.9-5-16.3-7.6 c-5.4-2.5-10.9-5-16.3-7.6h-0.1c-0.1,0-0.2,0-0.2,0.1c-0.4,0.6-1,0.9-1.7,0.8c-0.3,0-0.6-0.1-1-0.2c0,0,0,0-0.1,0s-0.2,0-0.2,0.1 l-0.4,0.9c0,0.1,0,0.2,0.1,0.3c0.6,0.3,1,0.6,1.2,1c0.3,0.5,0.3,1.1,0,1.8v0.1c0,0,0,0.1-0.1,0.1l0,0c-0.4,0.6-1,0.9-1.8,0.9 c-0.3,0-0.6-0.1-1-0.2c0,0,0,0-0.1,0s-0.2,0-0.2,0.1l-0.4,0.9c-0.1,0.1,0,0.2,0.1,0.3c0.6,0.3,1,0.6,1.2,1c0.3,0.5,0.3,1.1,0,1.8 l0,0c0,0,0,0,0,0.1c0,0,0,0.1-0.1,0.1l0,0c-0.4,0.6-1,1-1.8,0.9c-0.3,0-0.6-0.1-1-0.2c0,0,0,0-0.1,0s-0.2,0-0.2,0.1l-0.4,1 c-0.1,0.1,0,0.2,0.1,0.3c0.6,0.3,1,0.6,1.2,1c0.3,0.5,0.3,1.1,0,1.8l0,0c0,0,0,0,0,0.1c0,0,0,0.1-0.1,0.1l0,0 c-0.4,0.6-1,1-1.8,0.9c-0.3,0-0.6-0.1-1-0.2c0,0,0,0-0.1,0s-0.2,0-0.2,0.1l-0.4,0.9c-0.1,0.1,0,0.2,0.1,0.3c0.6,0.3,0.9,0.6,1.2,1 c0.2,0.4,0.3,0.9,0.1,1.4c0,0.1,0,0.2,0.1,0.3c5.4,2.5,10.8,5,16.2,7.6c5.4,2.5,10.9,5.1,16.3,7.7h0.1c0.1,0,0.2,0,0.2-0.1 c0.4-0.6,1-0.9,1.8-0.9c0.3,0,0.6,0.1,1,0.2c0,0,0,0,0.1,0s0.2,0,0.2-0.1l0.4-0.9c0.1-0.1,0-0.2-0.1-0.3c-0.6-0.3-0.9-0.6-1.2-1 c-0.3-0.5-0.3-1.1,0-1.8l0,0l0,0c0,0,0-0.1,0.1-0.1l0,0c0.4-0.6,1-1,1.8-0.9c0.3,0,0.6,0.1,1,0.2c0,0,0,0,0.1,0s0.2,0,0.2-0.1 l0.4-0.9c0.1-0.1,0-0.2-0.1-0.3c-0.6-0.3-1-0.6-1.2-1c-0.3-0.5-0.3-1.1,0-1.8l0,0c0,0,0,0,0-0.1c0,0,0-0.1,0.1-0.1c0,0,0,0,0-0.1 c0.4-0.6,1-0.9,1.8-0.9c0.3,0,0.6,0.1,1,0.2c0,0,0,0,0.1,0s0.2,0,0.2-0.1l0.4-0.9c0.1-0.1,0-0.2-0.1-0.3c-0.6-0.3-0.9-0.6-1.2-1 c-0.3-0.5-0.3-1.1,0-1.7l0,0c0,0,0,0,0-0.1c0,0,0-0.1,0.1-0.1l0,0c0.4-0.6,1-0.9,1.8-0.9c0.3,0,0.6,0.1,1,0.2c0,0,0,0,0.1,0 s0.2,0,0.2-0.1l0.4-0.9C54.4,32.6,54.4,32.4,54.3,32.4z M48,34.2C48,34.2,48,34.3,48,34.2l-0.1,0.2c-0.8,2-1.8,3.9-2.7,5.8 c-0.4,0.9-0.9,1.9-1.3,2.8c-0.1,0.1-0.2,0.2-0.3,0.2h-0.1c-0.5-0.2-1.1-0.4-1.6-0.4c-1.7-0.1-3.2,0.8-3.9,2.4 c0,0.1-0.1,0.1-0.1,0.1c-0.1,0-0.1,0-0.1,0h-0.1c-4.2-1.9-8.4-3.9-12.4-5.8c-2.4-1.1-4.8-2.3-7.2-3.4c0,0-0.1,0-0.1-0.1 c-0.1-0.1-0.1-0.2-0.1-0.3c1-2.1,0.1-4.3-2.2-5.5c-0.1,0-0.1-0.1-0.1-0.1c0-0.1,0-0.1,0-0.2v-0.1v-0.1c0.4-0.9,0.9-1.9,1.3-2.8 c0.9-1.9,1.9-3.9,2.7-5.8c0,0,0-0.1,0.1-0.1l0,0c0,0,0.1-0.1,0.2-0.1H20c0.5,0.2,1.1,0.4,1.6,0.4c1.7,0.1,3.2-0.8,3.9-2.4 c0-0.1,0.1-0.1,0.1-0.1c0.1,0,0.1,0,0.1,0h0.1c4.1,1.9,8.3,3.8,12.3,5.7c2.4,1.1,4.8,2.3,7.3,3.4c0,0,0.1,0,0.1,0.1 c0.1,0.1,0.1,0.2,0.1,0.3c-1,2.1-0.1,4.3,2.2,5.4c0.1,0,0.1,0.1,0.1,0.1C48.1,34,48.1,34.1,48,34.2z" class="st2"/><g><g><path d="M48.2,34.3c0.2-0.2,0.2-0.5-0.1-0.7c-2-1-3-3-2.1-5.2c0.1-0.2,0-0.4-0.1-0.5c0-0.1-0.1-0.1-0.2-0.1 c-6.5-3-13-6.2-19.6-9.2c-0.1-0.1-0.2-0.1-0.3,0c-0.1,0-0.2,0.1-0.3,0.2c-1,2.1-3.2,2.7-5.2,1.8c-0.2-0.1-0.4,0-0.6,0.1 c-0.1,0-0.1,0.1-0.1,0.2c-1.2,2.9-2.7,5.8-4,8.6c0,0.1,0,0.1,0,0.2c-0.1,0.2-0.1,0.5,0.1,0.6c2,1,3,3,2.1,5.2 c-0.1,0.2,0,0.4,0.1,0.5c0,0.1,0.1,0.1,0.2,0.1c6.5,3,13,6.2,19.6,9.2c0.1,0.1,0.2,0.1,0.3,0c0.1,0,0.2-0.1,0.3-0.2 c1-2.1,3.2-2.7,5.2-1.8c0.3,0.1,0.6-0.1,0.7-0.3l0,0c1.3-2.9,2.8-5.7,4-8.6C48.2,34.4,48.2,34.3,48.2,34.3z M43.4,42.4 c-2.2-0.8-4.7-0.1-5.8,2c-6.3-2.9-12.6-5.9-18.9-8.8c0.8-2.3-0.2-4.5-2.2-5.8c1.3-2.7,2.6-5.4,3.8-8.2c2.3,0.8,4.7,0.1,5.9-2 c6.3,2.9,12.6,5.9,18.9,8.8c-0.8,2.3,0.2,4.5,2.2,5.7C46.1,37,44.7,39.7,43.4,42.4z" class="st3"/><path d="M43.3,41.6L43.3,41.6c1.1-2.4,2.3-4.6,3.3-7c0.1-0.1,0.1-0.3-0.1-0.4c-1.8-0.9-3.2-3.1-2.2-5.1 c0.1-0.1,0-0.2,0-0.3c0-0.1,0-0.2-0.2-0.2c-5.7-2.7-11.4-5.5-17.2-8.1c-0.1,0-0.1,0-0.2,0s-0.3,0-0.3,0.1 c-0.9,2-3.4,2.6-5.3,1.8c-0.1,0-0.1,0-0.2,0s-0.2,0-0.3,0.2c-1,2.3-2.1,4.6-3.2,6.8v0.1c0,0.1,0,0.3,0.1,0.3 c1.8,0.9,2.6,3.5,1.9,5.3c-0.1,0.2,0,0.3,0.2,0.4c0,0,0,0,0.1,0c5.8,2.7,11.7,5.5,17.5,8.2c0.1,0.1,0.2,0,0.3,0s0.2,0,0.3-0.2 c0.9-1.9,3.2-2.6,5.1-1.7c0.1,0,0.2,0,0.2,0l0,0l0,0C43.2,41.7,43.2,41.7,43.3,41.6z M37.3,43c-5.8-2.6-11.5-5.4-17.3-8 c0.6-1.9-0.3-4.6-2-5.7c1-2.1,2.1-4.2,3-6.4c2.1,0.7,4.6,0.1,5.7-1.9c5.7,2.6,11.2,5.3,16.8,7.9c-0.8,2.2,0.4,4.5,2.3,5.6 c-0.9,2.2-2,4.4-3,6.5C40.7,40.3,38.3,41,37.3,43z" class="st3"/></g><g><path d="M31.9,33.1L25,36.3c-0.7-2.1-0.6-3.4,0.5-5.4L31.9,33.1z M26.8,32.4c0.7-0.3,0.1-1.2-0.7-0.7 C25.4,32.1,26.1,32.7,26.8,32.4z M26.4,34.9L26,34.8l-0.3,0.5l0.3,0.1L26.4,34.9z M26.4,33.4c-1.1,0.6,0.1,1.6,0.8,1.1 C28,33.7,27.4,32.8,26.4,33.4z M28.1,33.1l0.1-0.4l-0.5-0.2v0.4L28.1,33.1z M25.9,33.2l0.1-0.3l-0.4-0.2V33L25.9,33.2z M29.5,33.7c0.7-0.6,0.5-1.2-0.5-0.7C28.4,33.3,28.8,34.3,29.5,33.7z" class="st4"/><g><path d="M31.6,25.6l-0.2,1.1l0.8-0.1c0,0-0.3-0.5-0.2-1H31.6z" class="st4"/><path d="M32.8,25.3c0.5,0,1.1,0.1,1.2,0.3l-0.9,0.6c0,0,0.5-0.1,0.9,0.1v0.6c-0.5-0.2-0.8-0.3-1.6-0.3l1-0.9 c0,0-0.8,0.2-0.8,0.3L32.8,25.3z" class="st4"/><path d="M34.8,25.8c0.4,0.2,0.9,0.5,0.9,0.7l-1,0.3c0,0,0.5,0.1,0.8,0.5l-0.1,0.6c-0.3-0.4-0.5-0.6-1.2-0.9 l1.1-0.5l-0.7-0.1L34.8,25.8z" class="st4"/><path d="M36.4,28.2c-0.3,0.1-1.3-0.4-0.3-0.7C36.6,27.2,36.8,28.1,36.4,28.2z M36.2,27.7c-0.3,0.1,0,0.3,0.1,0.2 C36.4,28,36.4,27.6,36.2,27.7z" class="st4"/><path d="M36.4,28.6c0-0.1-0.1-0.4,0.3-0.6c0.3-0.2,0.4-0.8,0-1.1l-0.2,0.3c0,0,0.8,0.5,0,0.8 c-0.3,0.1-0.3,0.5-0.3,0.5L36.4,28.6z" class="st4"/><path d="M30.6,27l-1.1,0.7l-0.3-3.1c1.7-0.7,2.3,0.3,2.1,0.7C31.1,26,30.1,26,30.1,26L30.6,27z M30,25.8 c0,0,1.5-0.9-0.2-0.6L30,25.8z" class="st4"/><path d="M31.8,25c0.2-0.2,0.4,0.2,0.2,0.3C31.8,25.5,31.6,25.2,31.8,25z" class="st4"/></g><path d="M37.5,35.4c0.7-1.3,0.6-2.7,0.1-4l-3.9,1.3l3.8-1.5c-0.5-1.1-1.4-2.2-2.4-2.9l-1.5,4.3l1.4-4.4 c-0.6-0.4-1.3-0.6-2.1-0.7c-0.5,0-1,0-1.5,0.1l1.9,4.9l-2.1-4.9c-1.4,0.6-2.6,1.9-3.3,3.4l5.1,1.8l-5,2.8 c0.7,1.4,1.8,2.2,2.9,2.5l2.3-5l-2.1,5c2,0.4,3.5,0,4.8-1.3l-2.5-3.9l2.6,3.8C36.5,36.5,37.4,35.8,37.5,35.4z" class="st4"/><path d="M33.6,37.1c0.1-0.3,0.1-0.7-0.2-0.8s-0.6,0-0.8,0.4c-0.1,0.3-0.1,0.7,0.2,0.8S33.4,37.4,33.6,37.1z" class="st5"/><path d="M34.1,34.8c0-0.3-0.1-0.5-0.3-0.5s-0.3,0.3-0.3,0.6s0.1,0.5,0.3,0.5C33.9,35.3,34,35.1,34.1,34.8z" class="st5"/><path d="M35.2,36.7c0-0.4-0.2-0.6-0.4-0.6c-0.3,0-0.4,0.3-0.5,0.7c0,0.4,0.2,0.6,0.4,0.6 C35.1,37.4,35.2,37.1,35.2,36.7z" class="st5"/><path d="M30.2,36.7c0.2-1.1,1.2-0.7,1-0.1C31,37.2,30,37.7,30.2,36.7z" class="st5"/><path d="M31.5,34.3c-0.6,0-0.9,0.8-0.3,0.7C31.8,34.9,32.2,34.3,31.5,34.3z" class="st5"/><path d="M35.8,32.7c0.7-0.7,1.2,0.3,0.5,0.6C35.7,33.7,35.1,33.4,35.8,32.7z" class="st5"/><path d="M34.4,32.8c0.4-0.4,0.6,0.2,0.4,0.4C34.4,33.4,34,33.2,34.4,32.8z" class="st5"/><path d="M34.7,31.4c0.4-0.4,0.6,0.2,0.4,0.4C34.7,31.9,34.4,31.8,34.7,31.4z" class="st5"/><path d="M35.3,29.7c0.1-0.7,0.8-0.5,0.6,0C35.7,30.2,35.1,30.4,35.3,29.7z" class="st5"/><path d="M36.5,30.6c0.5-0.2,0.5,0.4,0.1,0.5C36.3,31.2,36,30.8,36.5,30.6z" class="st5"/><path d="M34,28.3c0.9,0.2,0.4,1.2-0.2,1C33.2,28.9,33.1,28.1,34,28.3z" class="st5"/><path d="M33.7,30.5c0.3,0.4-0.2,0.8-0.4,0.4S33.3,30,33.7,30.5z" class="st5"/><path d="M32.4,31.3c0.3,0.4-0.2,0.8-0.4,0.4S32,30.9,32.4,31.3z" class="st5"/><path d="M30.7,28.9c0.7-0.4,0.9,0.5,0.3,0.7C30.4,29.8,30,29.3,30.7,28.9z" class="st5"/><path d="M30,30.5c0.7,0.3,0.1,1.1-0.3,0.8C29.2,30.9,29.3,30.1,30,30.5z" class="st5"/><path d="M36.2,34.6c0.3-0.7,1-0.2,0.8,0.4C36.8,35.5,35.7,35.8,36.2,34.6z" class="st5"/><rect width=".4" height=".3" x="34.9" y="34.1" class="st5" transform="matrix(0.4226 -0.9063 0.9063 0.4226 -10.7446 51.619)"/><rect width=".2" height=".3" x="29.4" y="29.7" class="st5" transform="matrix(0.4226 -0.9063 0.9063 0.4226 -9.9903 43.977)"/><rect width=".4" height=".3" x="33.9" y="35.8" class="st5" transform="matrix(0.4226 -0.9063 0.9063 0.4226 -12.9157 51.6851)"/><polygon points="34 37.3 33.8 37.5 33.8 37.8 34.1 37.7" class="st5"/><polygon points="33.1 35.4 32.8 35.6 33 35.9 33.2 35.7" class="st5"/><polygon points="31.3 31.4 31 31.4 31.1 31.8 31.3 31.7" class="st5"/><polygon points="32.5 27.9 32.3 28 32.3 28.3 32.6 28.2" class="st5"/><polygon points="31.3 30.1 31.2 30.2 31.3 30.3 31.4 30.2" class="st5"/><polygon points="33.1 29.2 33 29.2 33 29.4 33.2 29.3" class="st5"/><polygon points="34.2 31.9 34.1 32 34.2 32.1 34.3 32.1" class="st5"/><polygon points="35.1 30.5 35 30.6 35 30.7 35.1 30.6" class="st5"/><polygon points="36.2 30.1 36.1 30.2 36.1 30.3 36.2 30.2" class="st5"/><polygon points="37.1 33.4 37 33.4 37 33.6 37.1 33.5" class="st5"/><polygon points="30 35.7 29.7 35.8 29.8 36.1 30 36" class="st5"/></g></g></g></g></svg>