<?xml version="1.0" encoding="utf-8"?>
<!-- Generator: Adobe Illustrator 23.0.5, SVG Export Plug-In . SVG Version: 6.00 Build 0)  -->
<svg version="1.1" id="Layer_1" xmlns:v="https://vecta.io/nano"
	 xmlns="http://www.w3.org/2000/svg" xmlns:xlink="http://www.w3.org/1999/xlink" x="0px" y="0px" viewBox="0 0 64 64"
	 enable-background="new 0 0 64 64" xml:space="preserve">
<path fill="#F7E9CD" d="M61,22.9c0.6,0.6,0.7,1.7,0.2,2.4c-9.5,13.6-21.3,25.5-34.8,35.1l-1.1,0.8c-0.8,0.6-1.9,0.5-2.5-0.2L18,56.2
	c2.9-3,2.8-7.7-0.2-10.6c-2.9-2.8-7.5-2.8-10.5,0l-4.4-4.4c-0.8-0.8-0.7-2.2,0.2-2.9l1.1-0.8c13.2-9.4,24.7-21,34-34.3
	c0.6-0.8,1.7-1,2.5-0.4c0.2,0,0.3,0.1,0.3,0.1l4.5,4.5c-2.9,3-2.8,7.7,0.2,10.6c2.9,2.8,7.5,2.8,10.4,0L61,22.9L61,22.9z"/>
<path fill="#E8C7AF" d="M63.2,24.3L46,46L23.7,62.9l-4.3-4.3l-1.5-1.9l1.5-2.2l0.5-2.2l-0.3-2.4l-0.9-2.2l-1.5-1.8l-1.8-1.2L13.6,44
	h-2.4l-2.5,0.9l-1.5,1.3l-3.6-4.3L9.4,41c18-2.7,35.1-10,49.5-21.1L63.2,24.3L63.2,24.3z"/>
<g>
	<path fill-rule="evenodd" clip-rule="evenodd" fill="#6B5B4F" d="M62.8,21.4L58,16.6c-1-1-2.5-0.9-3.4,0c-2,1.9-5.1,1.9-7.1,0
		c-2.1-2-2.2-5.3-0.2-7.3c0.9-1,0.9-2.5,0-3.4l-4.5-4.5c-0.2-0.2-0.4-0.4-0.6-0.5c-1.9-1.4-4.6-0.9-5.9,1
		c-9.1,13-20.4,24.4-33.4,33.7C2.6,35.8,2.3,36,2,36.1c-0.3,0.2-0.5,0.4-0.8,0.6c-1.7,1.7-1.7,4.4,0,6.1l4.6,4.6
		c1,0.9,2.5,0.9,3.4,0c2-1.9,5.1-1.9,7.1,0c2.1,2,2.2,5.3,0.2,7.3c-0.4,0.5-0.7,1.1-0.7,1.7c0,0.6,0.3,1.3,0.8,1.8l4.6,4.6
		c1.5,1.5,3.9,1.7,5.6,0.5l1.1-0.8c13.7-9.8,25.7-21.9,35.4-35.7C64.5,25.2,64.3,22.9,62.8,21.4z M61.1,25.1
		c-9.5,13.6-21.3,25.5-34.8,35.1L25.2,61c-0.7,0.6-1.8,0.5-2.5-0.2l-4.6-4.6c2.9-2.9,2.9-7.7,0-10.6c-2.9-2.9-7.7-2.9-10.6,0L2.9,41
		c-0.9-0.8-0.8-2.2,0.2-2.9c0.3-0.2,0.7-0.5,1-0.7c5.6-3.8,12-8.9,18.6-15.6c6.6-6.6,11.6-13.1,15.5-18.7c0.1,0,0.1-0.1,0.2-0.2
		c0.7-0.7,1.9-0.7,2.6,0l4.5,4.4l-0.1,0.1c-2.9,2.9-2.9,7.6,0,10.5c2.9,3,7.6,3,10.6,0.1l0.1-0.1l4.8,4.8
		C61.5,23.3,61.6,24.4,61.1,25.1z"/>
	<g>
		<path id="A" fill-rule="evenodd" clip-rule="evenodd" fill="#6B5B4F" d="M32,11.3l1.1,1.1c0.5,0.5,0.5,1.2,0,1.7s-1.2,0.5-1.7,0
			L30.3,13c-0.5-0.5-0.5-1.2,0-1.7S31.5,10.8,32,11.3z"/>
	</g>
	<g>
		<path fill-rule="evenodd" clip-rule="evenodd" fill="#6B5B4F" d="M36.4,15.7l1.1,1.1c0.5,0.5,0.5,1.2,0,1.7s-1.2,0.5-1.7,0
			l-1.1-1.1c-0.5-0.5-0.5-1.2,0-1.7C35.2,15.2,35.9,15.2,36.4,15.7z"/>
	</g>
	<g>
		<path id="B" fill-rule="evenodd" clip-rule="evenodd" fill="#6B5B4F" d="M41.9,22.8c-0.5,0.5-1.2,0.5-1.7,0l0,0l-1.3-1.3
			c-0.5-0.5-0.5-1.2,0-1.7s1.2-0.5,1.7,0l1.3,1.3C42.3,21.6,42.3,22.4,41.9,22.8L41.9,22.8z"/>
	</g>
	<g>
		<path fill-rule="evenodd" clip-rule="evenodd" fill="#6B5B4F" d="M46.3,27.2c-0.5,0.5-1.2,0.5-1.7,0l0,0L43.4,26
			c-0.5-0.5-0.5-1.2,0-1.7s1.2-0.5,1.7,0l1.3,1.3C46.8,26,46.8,26.8,46.3,27.2L46.3,27.2z"/>
	</g>
	<path fill-rule="evenodd" clip-rule="evenodd" fill="#6B5B4F" d="M49.5,28.7l1.1,1.1c0.5,0.5,0.5,1.2,0,1.7c-0.5,0.5-1.2,0.5-1.7,0
		l-1.1-1.1c-0.5-0.5-0.5-1.2,0-1.7C48.2,28.3,49,28.3,49.5,28.7L49.5,28.7z"/>
	<g>
		<path fill-rule="evenodd" clip-rule="evenodd" fill="#6B5B4F" d="M53.9,33.1l1.1,1.1c0.5,0.5,0.5,1.2,0,1.7s-1.2,0.5-1.7,0
			l-1.1-1.1c-0.5-0.5-0.5-1.2,0-1.7S53.4,32.7,53.9,33.1z"/>
	</g>
	<g>
		<path fill="#FD5A70" d="M32.7,38.1l-8.3,9.8c-2.6-2.7-3.3-4.8-3-8.6L32.7,38.1z M24.4,40.6c0.9-1-0.7-1.9-1.6-0.6
			C22,41.2,23.5,41.7,24.4,40.6z M25.5,44.9h-0.7l-0.1,0.9l0.6-0.1L25.5,44.9z M24.4,42.5c-1.3,1.7,1.3,2.4,2,1.1
			C27.1,41.9,25.5,40.9,24.4,42.5z M26.8,40.8l-0.1-0.7h-0.9l0.2,0.6L26.8,40.8z M23.6,42.6V42h-0.7l0.2,0.5L23.6,42.6z M29.4,40.7
			c0.7-1.4,0-2.2-1.2-0.7C27.4,40.9,28.8,42.1,29.4,40.7z"/>
		<g>
			<path fill="#FD5A70" d="M26.9,26.8l0.4,1.8l1.2-0.7c0,0-0.8-0.6-1.1-1.4L26.9,26.8z"/>
			<path fill="#FD5A70" d="M28.4,25.5c0.8-0.4,1.7-0.6,2.1-0.5l-0.9,1.6c0,0,0.7-0.5,1.5-0.5l0.5,0.9c-0.9,0-1.5,0.1-2.6,0.7
				l0.8-2.1c0,0-1,0.9-1,1L28.4,25.5z"/>
			<path fill="#FD5A70" d="M31.9,24.8c0.8,0,1.7,0.2,1.9,0.4l-1.3,1.1c0,0,0.8-0.1,1.5,0.2l0.2,1c-0.8-0.4-1.3-0.6-2.4-0.5l1.3-1.6
				c0,0-1.1,0.4-1.2,0.4L31.9,24.8z"/>
			<path fill="#FD5A70" d="M36.1,27.3c-0.4,0.4-2.2,0.3-1-0.9C35.7,25.7,36.6,26.9,36.1,27.3z M35.4,26.8c-0.4,0.4,0.2,0.5,0.3,0.3
				C35.9,27,35.7,26.4,35.4,26.8z"/>
			<path fill="#FD5A70" d="M36.4,27.9c-0.1-0.2-0.4-0.6,0-1.1s0-1.5-0.8-1.6l-0.1,0.6c0,0,1.5,0.2,0.6,1.2c-0.4,0.4-0.1,0.9-0.1,0.9
				H36.4z"/>
			<path fill="#FD5A70" d="M26.4,29.7l-1.2,1.8L22.6,27c2.1-2.2,3.7-1.2,3.7-0.4c0.1,1.2-1.4,2-1.4,2L26.4,29.7z M24.5,28.2
				c0,0,1.7-2.5-0.8-0.8L24.5,28.2z"/>
			<path fill="#FD5A70" d="M26.7,25.8c0.2-0.4,0.7,0,0.5,0.4C27,26.5,26.6,26.1,26.7,25.8z"/>
		</g>
		<path fill="#FD5A70" d="M43,37.6c0.1-2.5-1-4.6-2.7-6.3l-5,4.8l4.8-5c-1.6-1.4-3.7-2.4-5.8-2.7l0.8,7.7l-1-7.7
			c-1.2-0.1-2.5,0-3.7,0.4c-0.8,0.3-1.6,0.7-2.2,1.3l6.5,6.2l-6.7-6c-1.8,1.9-2.6,4.8-2.6,7.5l9.2-0.9l-5.7,7.9
			c2.1,1.7,4.3,2.1,6.2,1.7L35,37.2l0.4,9.2c3.3-0.8,5.4-2.6,6.5-5.4l-6.6-4.2l6.7,3.9C42.2,40.1,43,38.3,43,37.6z"/>
		<path fill="#FFCB39" d="M38.1,43.1c0-0.6-0.4-1.1-0.9-1.1s-0.9,0.5-0.9,1.1s0.4,1.1,0.9,1.1C37.8,44.2,38.1,43.7,38.1,43.1z"/>
		<path fill="#FFCB39" d="M37.2,39.1c-0.2-0.5-0.6-0.7-0.9-0.6c-0.3,0.2-0.3,0.7-0.1,1.1c0.2,0.5,0.6,0.7,0.9,0.6
			C37.3,40.1,37.4,39.6,37.2,39.1z"/>
		<path fill="#FFCB39" d="M40.4,41.3c-0.3-0.6-0.7-0.8-1-0.7C39,40.8,39,41.4,39.2,42c0.3,0.6,0.7,0.8,1,0.7
			C40.6,42.4,40.6,41.8,40.4,41.3z"/>
		<path fill="#FFCB39" d="M32.7,44.8c-0.4-1.8,1.4-2,1.4-0.9C34.2,45,33.1,46.5,32.7,44.8z"/>
		<path fill="#FFCB39" d="M32.9,40.2c-0.9,0.4-0.8,1.9,0.1,1.3C33.8,41,34,39.7,32.9,40.2z"/>
		<path fill="#FFCB39" d="M38.4,34.7c0.6-1.5,2-0.4,1.3,0.6S37.8,36.2,38.4,34.7z"/>
		<path fill="#FFCB39" d="M36.4,35.9c0.4-0.9,1.1-0.2,0.8,0.3C36.8,36.8,36,36.8,36.4,35.9z"/>
		<path fill="#FFCB39" d="M35.8,33.4c0.4-0.9,1.1-0.2,0.8,0.3C36.2,34.3,35.5,34.3,35.8,33.4z"/>
		<path fill="#FFCB39" d="M35.4,30.5c-0.3-1.2,0.9-1.4,1-0.4C36.4,31,35.7,31.7,35.4,30.5z"/>
		<path fill="#FFCB39" d="M38,31c0.6-0.6,1.1,0.3,0.5,0.7C38,32,37.4,31.6,38,31z"/>
		<path fill="#FFCB39" d="M32.5,29.2c1.5-0.4,1.5,1.5,0.4,1.6C31.7,30.8,31,29.6,32.5,29.2z"/>
		<path fill="#FFCB39" d="M33.6,32.8c0.8,0.4,0.3,1.3-0.3,0.9C32.7,33.3,32.7,32.4,33.6,32.8z"/>
		<path fill="#FFCB39" d="M32.1,35c0.8,0.4,0.3,1.3-0.3,0.9C31.2,35.5,31.2,34.6,32.1,35z"/>
		<path fill="#FFCB39" d="M27.8,32.5c0.8-1.1,1.7,0.2,1,0.9C28,34.1,27,33.6,27.8,32.5z"/>
		<path fill="#FFCB39" d="M27.9,35.4c1.3,0,1,1.6,0.1,1.4C27,36.6,26.6,35.4,27.9,35.4z"/>
		<path fill="#FFCB39" d="M40.4,37.3c0-1.4,1.4-1,1.5,0S40.4,39.5,40.4,37.3z"/>
		<rect x="38.3" y="37.3" fill="#FFCB39" width="0.5" height="0.6"/>
		<rect x="26.4" y="34.6" fill="#FFCB39" width="0.5" height="0.4"/>
		<rect x="37.9" y="40.6" fill="#FFCB39" width="0.5" height="0.6"/>
		<polygon fill="#FFCB39" points="39,43.1 38.7,43.5 39,43.9 39.3,43.6 		"/>
		<polygon fill="#FFCB39" points="36.2,40.8 35.9,41.2 36.3,41.6 36.6,41.2 		"/>
		<polygon fill="#FFCB39" points="30.5,35.9 30.1,36.2 30.5,36.7 30.8,36.3 		"/>
		<polygon fill="#FFCB39" points="29.9,29.7 29.6,30 29.9,30.5 30.3,30.1 		"/>
		<polygon fill="#FFCB39" points="29.6,33.9 29.5,34.1 29.7,34.3 29.8,34.1 		"/>
		<polygon fill="#FFCB39" points="31.8,31.2 31.6,31.4 31.8,31.6 32,31.4 		"/>
		<polygon fill="#FFCB39" points="35.4,34.6 35.3,34.8 35.5,35 35.6,34.8 		"/>
		<polygon fill="#FFCB39" points="35.8,31.8 35.6,32 35.8,32.2 35.9,32 		"/>
		<polygon fill="#FFCB39" points="37.2,30.4 37,30.6 37.2,30.8 37.3,30.6 		"/>
		<polygon fill="#FFCB39" points="40.9,34.8 40.7,35 40.9,35.2 41,35 		"/>
		<polygon fill="#FFCB39" points="31.6,43.4 31.2,43.8 31.6,44.2 31.9,43.9 		"/>
	</g>
</g>
</svg>
