<svg xmlns="http://www.w3.org/2000/svg" xmlns:v="https://vecta.io/nano" xmlns:xlink="http://www.w3.org/1999/xlink" id="Layer_1" x="0" y="0" version="1.1" viewBox="0 0 64 64" xml:space="preserve" style="enable-background:new 0 0 64 64"><style type="text/css">.st0{fill:#f7e9cd}.st1{fill:url(#SVGID_1_)}.st2{fill:#dabc8b}.st3{fill:#fd5a70}.st4{fill:#ffcb39}</style><g><g><path d="M40.2,50.9L40.2,50.9c-6-2.7-12-5.5-17.8-8.3c-3.4-1.6-6.8-3.2-10.2-4.8c0,0-0.1,0-0.1-0.1 c-0.1-0.1-0.2-0.3-0.1-0.5c1.4-3,0.1-6.2-3.1-7.8c-0.1,0-0.1-0.1-0.1-0.2s0-0.2,0.1-0.3c0,0,0-0.1,0.1-0.1c0-0.1,0-0.1,0-0.1 c0.6-1.3,1.3-2.7,1.9-4c1.3-2.7,2.7-5.5,3.8-8.3c0-0.1,0-0.1,0.1-0.1c0,0,0,0,0.1-0.1c0,0,0.2-0.2,0.3-0.2h0.1 c0.8,0.3,1.6,0.5,2.3,0.6c2.4,0.1,4.5-1.1,5.6-3.4c0.1-0.1,0.1-0.1,0.2-0.1s0.1,0,0.2,0h0.1c5.9,2.7,11.8,5.5,17.6,8.2 c3.5,1.6,6.9,3.3,10.4,4.9l0.1,0.1c0.1,0.1,0.2,0.3,0.1,0.5c-1.4,3-0.1,6.2,3.1,7.8c0.1,0.1,0.1,0.1,0.2,0.2c0,0.1,0,0.2-0.1,0.3 c0,0-0.1,0.1-0.1,0.2v0.1c-1.2,2.8-2.5,5.6-3.8,8.3c-0.6,1.3-1.3,2.7-1.9,4c-0.1,0.2-0.2,0.3-0.4,0.3l0,0h-0.1 c-0.8-0.3-1.6-0.5-2.3-0.6c-2.4-0.1-4.5,1.1-5.6,3.4c-0.1,0.1-0.1,0.1-0.2,0.1C40.3,50.9,40.3,50.9,40.2,50.9z" class="st0"/><linearGradient id="SVGID_1_" x1="-.041" x2="64" y1="31.95" y2="31.95" gradientUnits="userSpaceOnUse"><stop offset="0" style="stop-color:#f45b75"/><stop offset="1" style="stop-color:#f35369"/></linearGradient><path d="M63.8,32.6c-0.8-0.4-1.4-0.9-1.6-1.5c-0.3-0.6-0.4-1.3-0.2-2.1c0-0.2,0-0.3-0.2-0.4 c-7.7-3.6-15.5-7.2-23.3-10.8C30.8,14.2,23.1,10.6,15.3,7h-0.1c-0.1,0-0.2,0-0.3,0.1c-0.6,0.8-1.4,1.2-2.5,1.2 C12,8.2,11.5,8.1,11,8l0,0c-0.1,0-0.3,0.1-0.3,0.2L10,9.4c-0.1,0.2,0,0.3,0.1,0.4c0.8,0.4,1.4,0.9,1.6,1.5c0.4,0.8,0.4,1.6,0,2.6 V14c0,0,0,0.1-0.1,0.1c0,0,0,0-0.1,0.1c-0.6,0.9-1.4,1.4-2.6,1.3c-0.4,0-0.9-0.1-1.4-0.3H7.4c-0.1,0-0.3,0.1-0.3,0.2l-0.6,1.3 c-0.1,0.2,0,0.3,0.1,0.4C7.4,17.5,8,18,8.2,18.6c0.4,0.8,0.4,1.6,0,2.5l0,0c0,0,0,0,0,0.1c0,0,0,0.1-0.1,0.1c0,0,0,0-0.1,0.1 c-0.6,0.9-1.4,1.4-2.6,1.3c-0.4,0-0.9-0.1-1.4-0.3H3.9c-0.1,0-0.3,0.1-0.3,0.2L3,23.9c-0.1,0.2,0,0.3,0.1,0.4 c0.8,0.4,1.4,0.9,1.6,1.5c0.4,0.8,0.4,1.6,0,2.5c0,0,0,0,0,0.1c0,0,0,0,0,0.1c0,0,0,0.1-0.1,0.1c0,0,0,0-0.1,0.1 c-0.6,0.9-1.4,1.4-2.6,1.3c-0.4,0-0.9-0.1-1.4-0.3H0.4c-0.1,0-0.3,0.1-0.3,0.2l-0.1,1c-0.1,0.2,0,0.3,0.1,0.4 c0.8,0.4,1.4,0.9,1.6,1.5c0.3,0.6,0.4,1.3,0.2,2c0,0.2,0,0.3,0.2,0.4c7.7,3.6,15.4,7.2,23.1,10.8c7.6,3.6,15.5,7.3,23.3,10.9h0.1 c0.1,0,0.2,0,0.3-0.1c0.6-0.9,1.4-1.3,2.5-1.2c0.4,0,0.9,0.1,1.4,0.3h0.1c0.1,0,0.3-0.1,0.3-0.2l0.6-1.3c0.1-0.2,0-0.3-0.1-0.4 c-0.8-0.4-1.4-0.9-1.6-1.5c-0.4-0.8-0.4-1.5,0-2.5l0,0v-0.1c0-0.1,0.1-0.1,0.1-0.1s0,0,0.1-0.1c0.6-0.9,1.4-1.4,2.6-1.3 c0.4,0,0.9,0.1,1.4,0.3h0.1c0.1,0,0.3-0.1,0.3-0.2l0.6-1.3c0.1-0.2,0-0.3-0.1-0.4c-0.8-0.4-1.4-0.9-1.6-1.5 c-0.4-0.8-0.4-1.6,0-2.5l0,0c0,0,0,0,0-0.1c0,0,0-0.1,0.1-0.1c0,0,0,0,0.1-0.1c0.6-0.9,1.4-1.4,2.6-1.3c0.4,0,0.9,0.1,1.4,0.3h0.1 c0.1,0,0.3-0.1,0.3-0.2l0.6-1.3c0.1-0.2,0-0.3-0.1-0.4c-0.8-0.4-1.4-0.9-1.6-1.5c-0.4-0.8-0.4-1.6,0-2.5c0,0,0,0,0-0.1 c0,0,0,0,0-0.1s0.1-0.1,0.1-0.1s0,0,0.1-0.1c0.6-0.9,1.4-1.4,2.6-1.3c0.4,0,0.9,0.1,1.4,0.3h0.1c0.1,0,0.3-0.1,0.3-0.2l0.3-1 C64,32.8,64,32.6,63.8,32.6z M54.9,35.1c0,0-0.1,0.1-0.1,0.2v0.1c-1.2,2.8-2.5,5.6-3.8,8.3c-0.6,1.3-1.3,2.7-1.9,4 C49,47.9,48.9,48,48.7,48h-0.1c-0.8-0.3-1.6-0.5-2.3-0.6c-2.4-0.1-4.5,1.1-5.6,3.4c-0.1,0.1-0.1,0.1-0.2,0.1c-0.1,0-0.1,0-0.2,0 h-0.1c-5.9-2.7-11.9-5.5-17.7-8.3c-3.4-1.6-6.8-3.2-10.2-4.8c0,0-0.1,0-0.1-0.1c-0.1-0.1-0.2-0.3-0.1-0.5c1.4-3,0.1-6.2-3.1-7.8 c-0.1,0-0.1-0.1-0.1-0.2s0-0.2,0.1-0.3c0,0,0-0.1,0.1-0.1c0-0.1,0-0.1,0-0.1c0.6-1.3,1.3-2.7,1.9-4c1.3-2.7,2.7-5.5,3.8-8.3 c0-0.1,0-0.1,0.1-0.1c0,0,0,0,0.1-0.1c0,0,0.2-0.2,0.3-0.2h0.1c0.8,0.3,1.6,0.5,2.3,0.6c2.4,0.1,4.5-1.1,5.6-3.4 c0.1-0.1,0.1-0.1,0.2-0.1s0.1,0,0.2,0h0.1c5.9,2.7,11.8,5.5,17.6,8.2c3.5,1.6,6.9,3.3,10.4,4.9l0.1,0.1c0.1,0.1,0.2,0.3,0.1,0.5 c-1.4,3-0.1,6.2,3.1,7.8c0.1,0.1,0.1,0.1,0.2,0.2C55,34.9,54.9,35,54.9,35.1z" class="st1"/><g><g><path d="M55.1,35.3c0.3-0.3,0.3-0.8-0.1-1c-2.8-1.4-4.4-4.4-3-7.4c0.1-0.3,0-0.6-0.2-0.8c-0.1-0.1-0.1-0.1-0.2-0.2 c-9.3-4.3-18.6-8.9-28-13.1c-0.2-0.1-0.3-0.1-0.5,0c-0.2,0-0.3,0.1-0.4,0.3c-1.4,3-4.5,3.9-7.5,2.6c-0.3-0.1-0.6,0-0.8,0.2 c-0.1,0.1-0.2,0.1-0.2,0.3c-1.7,4.2-3.8,8.2-5.7,12.3c0,0.1,0,0.2-0.1,0.2c-0.2,0.3-0.2,0.7,0.2,0.9c2.8,1.4,4.4,4.4,3,7.4 c-0.1,0.3,0,0.6,0.2,0.8c0.1,0.1,0.1,0.1,0.2,0.2c9.3,4.3,18.6,8.9,28,13.1c0.2,0.1,0.3,0.1,0.5,0c0.2,0,0.3-0.1,0.4-0.3 c1.4-3,4.5-3.9,7.5-2.6c0.4,0.2,0.8-0.1,0.9-0.4l0,0c1.9-4.1,4-8.2,5.7-12.3C55.1,35.4,55.1,35.4,55.1,35.3z M48.3,46.8 c-3.2-1.1-6.7-0.1-8.4,2.9c-9-4.1-18-8.4-27-12.6c1.1-3.2-0.2-6.5-3.2-8.2c1.8-3.9,3.8-7.7,5.4-11.7c3.2,1.1,6.7,0.2,8.4-2.9 c9,4.1,18,8.4,27,12.6c-1.1,3.2,0.2,6.5,3.2,8.2C52.1,39.1,50.1,43,48.3,46.8z" class="st2"/><path d="M48.1,45.7L48.1,45.7c1.6-3.4,3.3-6.6,4.7-10c0.1-0.2,0.1-0.5-0.1-0.6c-2.6-1.3-4.5-4.5-3.2-7.3 c0.1-0.2,0-0.3,0-0.4s-0.1-0.2-0.2-0.3c-8.2-3.8-16.3-7.8-24.6-11.6c-0.1,0-0.2,0-0.2,0c-0.2-0.1-0.4,0-0.5,0.2 c-1.3,2.8-4.8,3.7-7.6,2.5c-0.1,0-0.2,0-0.2,0c-0.2,0-0.3,0-0.4,0.2c-1.4,3.3-3,6.5-4.5,9.8c0,0.1,0,0.1,0,0.2 c-0.1,0.2,0,0.4,0.2,0.5c2.5,1.3,3.7,5,2.7,7.6c-0.1,0.3,0.1,0.5,0.3,0.5l0.1,0.1C23,41,31.2,45,39.7,48.8c0.2,0.1,0.3,0,0.4,0 c0.1,0,0.3,0,0.4-0.2c1.3-2.8,4.6-3.7,7.3-2.5c0.1,0.1,0.2,0,0.3,0l0,0l0,0C48,45.9,48,45.8,48.1,45.7z M39.5,47.8 c-8.3-3.7-16.4-7.7-24.6-11.5c0.9-2.8-0.4-6.5-2.9-8.1c1.4-3,3-6,4.2-9.1c3,1.1,6.6,0.2,8.2-2.7c8.1,3.7,16,7.6,24.1,11.3 c-1.2,3.1,0.5,6.4,3.3,8c-1.3,3.2-2.9,6.2-4.3,9.3C44.5,43.9,41,44.8,39.5,47.8z" class="st2"/></g><g><path d="M31.9,33.6L22,38.1c-1-3-0.8-4.8,0.8-7.6L31.9,33.6z M24.6,32.5c1-0.4,0.1-1.7-1-1 C22.6,32.1,23.6,33,24.6,32.5z M23.9,36.2L23.4,36L23,36.6l0.5,0.1L23.9,36.2z M24,34c-1.6,0.8,0.1,2.3,1.1,1.6 C26.2,34.5,25.4,33.1,24,34z M26.4,33.5l0.2-0.6l-0.7-0.3l-0.1,0.5L26.4,33.5z M23.3,33.8l0.2-0.5L23,33.1v0.5L23.3,33.8z M28.4,34.4c1-0.8,0.8-1.7-0.7-1C26.8,33.8,27.5,35.2,28.4,34.4z" class="st3"/><g><path d="M31.5,22.9l-0.3,1.5l1.2-0.1c0,0-0.4-0.7-0.3-1.5L31.5,22.9z" class="st3"/><path d="M33.1,22.4c0.8,0,1.5,0.1,1.8,0.4l-1.3,0.9c0,0,0.7-0.1,1.3,0.2l0.1,0.9c-0.7-0.3-1.2-0.5-2.2-0.4l1.4-1.3 c0,0-1.1,0.3-1.1,0.4V22.4z" class="st3"/><path d="M36,23.1c0.6,0.3,1.2,0.8,1.3,1l-1.4,0.4c0,0,0.6,0.2,1.1,0.7L36.8,26c-0.5-0.6-0.8-0.9-1.7-1.2l1.6-0.8 c0,0-1-0.1-1.1-0.1L36,23.1z" class="st3"/><path d="M38.3,26.5c-0.4,0.2-1.8-0.6-0.4-1C38.6,25.2,38.8,26.4,38.3,26.5z M38,25.9c-0.4,0.2,0,0.5,0.1,0.3 C38.3,26.2,38.3,25.7,38,25.9z" class="st3"/><path d="M38.3,27.1c0-0.2-0.1-0.6,0.4-0.8s0.5-1.1,0-1.5l-0.3,0.4c0,0,1.1,0.7,0,1.1C38,26.5,38,26.9,38,26.9 L38.3,27.1z" class="st3"/><path d="M30,24.9l-1.6,0.9L28,21.4c2.4-0.9,3.3,0.4,3,1c-0.4,1-1.8,1-1.8,1L30,24.9z M29.1,23.1 c0,0,2.2-1.3-0.3-0.9L29.1,23.1z" class="st3"/><path d="M31.7,22c0.3-0.2,0.5,0.2,0.2,0.5C31.6,22.7,31.5,22.2,31.7,22z" class="st3"/></g><path d="M39.9,36.9c1-1.9,0.9-3.9,0.2-5.8L34.6,33l5.5-2.1c-0.7-1.6-2-3.2-3.5-4.1L34.5,33l2-6.2 c-0.9-0.5-1.9-0.9-3-1c-0.7-0.1-1.5,0-2.1,0.2l2.8,7.1l-3-7c-2.1,0.8-3.7,2.7-4.7,4.8l7.4,2.6l-7.2,4c1,2,2.5,3.1,4.1,3.5 l3.2-7.1l-3,7.2c2.8,0.6,5.1-0.1,6.9-1.8l-3.5-5.6l3.7,5.4C38.4,38.5,39.7,37.4,39.9,36.9z" class="st3"/><path d="M34.2,39.3c0.2-0.5,0.1-1-0.3-1.2c-0.4-0.2-0.9,0.1-1.1,0.5c-0.2,0.5-0.1,1,0.3,1.2 C33.6,40.1,34,39.8,34.2,39.3z" class="st4"/><path d="M35,35.9c0-0.5-0.2-0.7-0.5-0.8c-0.3,0-0.5,0.4-0.5,0.8c0,0.5,0.2,0.7,0.5,0.8C34.7,36.7,34.9,36.4,35,35.9 z" class="st4"/><path d="M36.6,38.8c0-0.6-0.3-0.9-0.5-0.9c-0.4,0-0.6,0.5-0.7,1c0,0.6,0.2,0.9,0.5,0.9 C36.4,39.7,36.6,39.2,36.6,38.8z" class="st4"/><path d="M29.5,38.7c0.3-1.5,1.8-1,1.4-0.2C30.6,39.4,29.2,40.1,29.5,38.7z" class="st4"/><path d="M31.3,35.2c-0.8,0-1.3,1.2-0.4,1C31.7,36.2,32.3,35.3,31.3,35.2z" class="st4"/><path d="M37.4,33c1-0.9,1.7,0.4,0.8,0.9S36.4,33.9,37.4,33z" class="st4"/><path d="M35.5,33.2c0.6-0.5,0.9,0.2,0.5,0.5C35.5,34,34.9,33.8,35.5,33.2z" class="st4"/><path d="M35.9,31.1c0.6-0.5,0.9,0.2,0.5,0.5C35.9,31.9,35.4,31.7,35.9,31.1z" class="st4"/><path d="M36.6,28.7c0.2-1,1.2-0.7,0.9,0.1C37.2,29.5,36.4,29.7,36.6,28.7z" class="st4"/><path d="M38.5,30c0.7-0.2,0.7,0.6,0.1,0.7C38.1,30.8,37.8,30.3,38.5,30z" class="st4"/><path d="M34.9,26.7c1.3,0.2,0.6,1.7-0.3,1.4C33.7,27.6,33.6,26.5,34.9,26.7z" class="st4"/><path d="M34.4,29.8c0.5,0.6-0.2,1.1-0.6,0.6C33.6,29.9,33.9,29.2,34.4,29.8z" class="st4"/><path d="M32.5,31c0.5,0.6-0.2,1.1-0.6,0.6C31.6,31,32,30.4,32.5,31z" class="st4"/><path d="M30.1,27.5c1-0.6,1.2,0.8,0.4,1C29.7,28.8,29.1,28.1,30.1,27.5z" class="st4"/><path d="M29.2,29.8c1,0.5,0.2,1.6-0.4,1.1C28,30.4,28.2,29.3,29.2,29.8z" class="st4"/><path d="M38,35.7c0.5-1.1,1.4-0.3,1.1,0.5C38.9,37,37.3,37.4,38,35.7z" class="st4"/><rect width=".5" height=".4" x="36.3" y="35.1" class="st4" transform="matrix(0.4226 -0.9063 0.9063 0.4226 -10.8494 53.4881)"/><rect width=".3" height=".4" x="28.3" y="28.7" class="st4" transform="matrix(0.4226 -0.9063 0.9063 0.4226 -9.7422 42.4432)"/><rect width=".5" height=".4" x="34.7" y="37.4" class="st4" transform="matrix(0.4226 -0.9063 0.9063 0.4226 -13.8929 53.4355)"/><polygon points="34.9 39.6 34.5 39.8 34.6 40.3 35 40.1" class="st4"/><polygon points="33.6 36.9 33.2 37.1 33.4 37.5 33.7 37.3" class="st4"/><polygon points="31 31.1 30.6 31.2 30.7 31.7 31.1 31.5" class="st4"/><polygon points="32.7 26.2 32.4 26.3 32.4 26.8 32.9 26.6" class="st4"/><polygon points="31 29.3 30.8 29.4 30.9 29.6 31.1 29.5" class="st4"/><polygon points="33.6 28 33.4 28.1 33.5 28.3 33.7 28.2" class="st4"/><polygon points="35.2 31.9 35 32 35.1 32.2 35.3 32.1" class="st4"/><polygon points="36.5 29.9 36.3 29.9 36.3 30.2 36.5 30" class="st4"/><polygon points="38.1 29.3 37.8 29.4 37.9 29.6 38.1 29.5" class="st4"/><polygon points="39.3 34 39.1 34.1 39.2 34.3 39.3 34.2" class="st4"/><polygon points="29.1 37.2 28.7 37.4 28.9 37.8 29.2 37.7" class="st4"/></g></g></g></g></svg>