<?xml version="1.0" encoding="utf-8"?>
<!-- Generator: Adobe Illustrator 23.0.5, SVG Export Plug-In . SVG Version: 6.00 Build 0)  -->
<svg version="1.1" id="Layer_1" xmlns:v="https://vecta.io/nano"
	 xmlns="http://www.w3.org/2000/svg" xmlns:xlink="http://www.w3.org/1999/xlink" x="0px" y="0px" viewBox="0 0 64 64"
	 enable-background="new 0 0 64 64" xml:space="preserve">
<circle fill-rule="evenodd" clip-rule="evenodd" fill="#EE4F7A" cx="32" cy="32" r="32"/>
<path fill="#F7E9CD" d="M51.9,25.8c0.4,0.4,0.5,1.2,0.1,1.6c-6.5,9.3-14.6,17.5-23.9,24.1l-0.8,0.5c-0.5,0.4-1.3,0.3-1.7-0.1
	l-3.3-3.3c2-2.1,1.9-5.3-0.1-7.3c-2-1.9-5.1-1.9-7.2,0l-3-3c-0.5-0.5-0.5-1.5,0.1-2l0.8-0.5c9.1-6.4,16.9-14.4,23.3-23.5
	c0.4-0.5,1.2-0.7,1.7-0.3c0.1,0,0.2,0.1,0.2,0.1l3.1,3.1c-2,2.1-1.9,5.3,0.1,7.3c2,1.9,5.1,1.9,7.1,0L51.9,25.8L51.9,25.8z"/>
<path fill="#E8C7AF" d="M53.4,26.7L41.6,41.6L26.3,53.2l-2.9-2.9l-1-1.3l1-1.5l0.3-1.5l-0.2-1.6l-0.6-1.5l-1-1.2l-1.2-0.8l-1.2-0.5
	h-1.6L16,40.9l-1,0.9l-2.5-2.9l4-0.6c12.3-1.9,24.1-6.9,33.9-14.5L53.4,26.7L53.4,26.7z"/>
<g>
	<path fill-rule="evenodd" clip-rule="evenodd" fill="#6B5B4F" d="M53.1,24.8l-3.3-3.3c-0.7-0.7-1.7-0.6-2.3,0
		c-1.4,1.3-3.5,1.3-4.9,0c-1.4-1.4-1.5-3.6-0.1-5c0.6-0.7,0.6-1.7,0-2.3L39.4,11c-0.1-0.1-0.3-0.3-0.4-0.3c-1.3-1-3.2-0.6-4,0.7
		C28.7,20.3,21,28.1,12,34.5c-0.2,0.1-0.4,0.2-0.6,0.4c-0.2,0.1-0.4,0.3-0.6,0.4c-1.2,1.2-1.2,3,0,4.2l3.2,3.2
		c0.7,0.6,1.7,0.6,2.3,0c1.4-1.3,3.5-1.3,4.9,0c1.4,1.4,1.5,3.6,0.1,5c-0.3,0.3-0.5,0.8-0.5,1.2c0,0.4,0.2,0.9,0.5,1.2l3.2,3.2
		c1,1,2.7,1.2,3.8,0.3l0.8-0.5c9.4-6.7,17.6-15,24.3-24.5C54.3,27.4,54.2,25.8,53.1,24.8z M52,27.3c-6.5,9.3-14.6,17.5-23.9,24.1
		l-0.8,0.5c-0.5,0.4-1.2,0.3-1.7-0.1l-3.2-3.2c2-2,2-5.3,0-7.3c-2-2-5.3-2-7.3,0L12,38.2c-0.6-0.5-0.5-1.5,0.1-2
		c0.2-0.2,0.5-0.3,0.7-0.5c3.8-2.6,8.3-6.1,12.8-10.7c4.5-4.5,8-9,10.6-12.8c0.1,0,0.1-0.1,0.1-0.1c0.5-0.5,1.3-0.5,1.8,0l3.1,3
		l-0.1,0.1c-2,2-2,5.2,0,7.2c2,2.1,5.2,2.1,7.3,0.1l0.1-0.1l3.3,3.3C52.2,26.1,52.3,26.8,52,27.3z"/>
	<g>
		<path id="A" fill-rule="evenodd" clip-rule="evenodd" fill="#6B5B4F" d="M32,17.8l0.8,0.8c0.3,0.3,0.3,0.8,0,1.2s-0.8,0.3-1.2,0
			L30.8,19c-0.3-0.3-0.3-0.8,0-1.2S31.7,17.5,32,17.8z"/>
	</g>
	<g>
		<path fill-rule="evenodd" clip-rule="evenodd" fill="#6B5B4F" d="M35,20.8l0.8,0.8c0.3,0.3,0.3,0.8,0,1.2s-0.8,0.3-1.2,0L33.9,22
			c-0.3-0.3-0.3-0.8,0-1.2S34.7,20.5,35,20.8z"/>
	</g>
	<g>
		<path id="B" fill-rule="evenodd" clip-rule="evenodd" fill="#6B5B4F" d="M38.8,25.7c-0.3,0.3-0.8,0.3-1.2,0l0,0l-0.9-0.9
			c-0.3-0.3-0.3-0.8,0-1.2s0.8-0.3,1.2,0l0.9,0.9C39.1,24.9,39.1,25.4,38.8,25.7L38.8,25.7z"/>
	</g>
	<g>
		<path fill-rule="evenodd" clip-rule="evenodd" fill="#6B5B4F" d="M41.8,28.7c-0.3,0.3-0.8,0.3-1.2,0l0,0l-0.8-0.8
			c-0.3-0.3-0.3-0.8,0-1.2c0.3-0.3,0.8-0.3,1.2,0l0.9,0.9C42.2,27.9,42.2,28.5,41.8,28.7L41.8,28.7z"/>
	</g>
	<path fill-rule="evenodd" clip-rule="evenodd" fill="#6B5B4F" d="M44,29.8l0.8,0.8c0.3,0.3,0.3,0.8,0,1.2s-0.8,0.3-1.2,0l-0.8-0.8
		c-0.3-0.3-0.3-0.8,0-1.2C43.1,29.5,43.7,29.5,44,29.8L44,29.8z"/>
	<g>
		<path fill-rule="evenodd" clip-rule="evenodd" fill="#6B5B4F" d="M47,32.8l0.8,0.8c0.3,0.3,0.3,0.8,0,1.2s-0.8,0.3-1.2,0l-0.8-0.8
			c-0.3-0.3-0.3-0.8,0-1.2S46.7,32.5,47,32.8z"/>
	</g>
	<g>
		<path fill="#FD5A70" d="M32.5,36.2l-5.7,6.7c-1.8-1.9-2.3-3.3-2.1-5.9L32.5,36.2z M26.8,37.9c0.6-0.7-0.5-1.3-1.1-0.4
			C25.1,38.3,26.2,38.7,26.8,37.9z M27.5,40.9h-0.5L27,41.5l0.4-0.1L27.5,40.9z M26.8,39.2c-0.9,1.2,0.9,1.6,1.4,0.8
			C28.6,38.8,27.5,38.1,26.8,39.2z M28.4,38.1l-0.1-0.5h-0.6l0.1,0.4L28.4,38.1z M26.2,39.3v-0.4h-0.5l0.1,0.3L26.2,39.3z M30.2,38
			c0.5-1,0-1.5-0.8-0.5C28.8,38.1,29.8,39,30.2,38z"/>
		<g>
			<path fill="#FD5A70" d="M28.5,28.5l0.3,1.2l0.8-0.5c0,0-0.5-0.4-0.8-1L28.5,28.5z"/>
			<path fill="#FD5A70" d="M29.5,27.6c0.5-0.3,1.2-0.4,1.4-0.3l-0.6,1.1c0,0,0.5-0.3,1-0.3l0.3,0.6c-0.6,0-1,0.1-1.8,0.5l0.5-1.4
				c0,0-0.7,0.6-0.7,0.7L29.5,27.6z"/>
			<path fill="#FD5A70" d="M31.9,27.1c0.5,0,1.2,0.1,1.3,0.3l-0.9,0.8c0,0,0.5-0.1,1,0.1l0.1,0.7c-0.5-0.3-0.9-0.4-1.6-0.3l0.9-1.1
				c0,0-0.8,0.3-0.8,0.3L31.9,27.1z"/>
			<path fill="#FD5A70" d="M34.8,28.8c-0.3,0.3-1.5,0.2-0.7-0.6C34.5,27.7,35.2,28.5,34.8,28.8z M34.3,28.5
				c-0.3,0.3,0.1,0.3,0.2,0.2C34.7,28.6,34.5,28.2,34.3,28.5z"/>
			<path fill="#FD5A70" d="M35,29.2c-0.1-0.1-0.3-0.4,0-0.8s0-1-0.5-1.1l-0.1,0.4c0,0,1,0.1,0.4,0.8c-0.3,0.3-0.1,0.6-0.1,0.6H35z"
				/>
			<path fill="#FD5A70" d="M28.2,30.5l-0.8,1.2l-1.8-3.1c1.4-1.5,2.5-0.8,2.5-0.3c0.1,0.8-1,1.4-1,1.4L28.2,30.5z M26.9,29.4
				c0,0,1.2-1.7-0.5-0.5L26.9,29.4z"/>
			<path fill="#FD5A70" d="M28.4,27.8c0.1-0.3,0.5,0,0.3,0.3C28.6,28.3,28.3,28,28.4,27.8z"/>
		</g>
		<path fill="#FD5A70" d="M39.5,35.9c0.1-1.7-0.7-3.2-1.9-4.3l-3.4,3.3l3.3-3.4c-1.1-1-2.5-1.6-4-1.9l0.5,5.3l-0.7-5.3
			c-0.8-0.1-1.7,0-2.5,0.3c-0.5,0.2-1.1,0.5-1.5,0.9l4.5,4.3l-4.6-4.1c-1.2,1.3-1.8,3.3-1.8,5.1l6.3-0.6l-3.9,5.4
			c1.4,1.2,2.9,1.4,4.3,1.2l-0.1-6.4l0.3,6.3c2.3-0.5,3.7-1.8,4.5-3.7l-4.5-2.9l4.6,2.7C39,37.6,39.5,36.3,39.5,35.9z"/>
		<path fill="#FFCB39" d="M36.2,39.6c0-0.4-0.3-0.8-0.6-0.8s-0.6,0.3-0.6,0.8s0.3,0.8,0.6,0.8C36,40.4,36.2,40.1,36.2,39.6z"/>
		<path fill="#FFCB39" d="M35.6,36.9c-0.1-0.3-0.4-0.5-0.6-0.4c-0.2,0.1-0.2,0.5-0.1,0.8c0.1,0.3,0.4,0.5,0.6,0.4
			C35.6,37.6,35.7,37.2,35.6,36.9z"/>
		<path fill="#FFCB39" d="M37.8,38.4c-0.2-0.4-0.5-0.5-0.7-0.5c-0.3,0.1-0.3,0.5-0.1,1c0.2,0.4,0.5,0.5,0.7,0.5
			C37.9,39.2,37.9,38.7,37.8,38.4z"/>
		<path fill="#FFCB39" d="M32.5,40.8c-0.3-1.2,1-1.4,1-0.6C33.5,40.9,32.8,42,32.5,40.8z"/>
		<path fill="#FFCB39" d="M32.6,37.7c-0.6,0.3-0.5,1.3,0.1,0.9C33.2,38.2,33.4,37.3,32.6,37.7z"/>
		<path fill="#FFCB39" d="M36.4,33.9c0.4-1,1.4-0.3,0.9,0.4S36,34.9,36.4,33.9z"/>
		<path fill="#FFCB39" d="M35,34.7c0.3-0.6,0.8-0.1,0.5,0.2C35.3,35.3,34.7,35.3,35,34.7z"/>
		<path fill="#FFCB39" d="M34.6,33c0.3-0.6,0.8-0.1,0.5,0.2C34.9,33.6,34.4,33.6,34.6,33z"/>
		<path fill="#FFCB39" d="M34.3,31c-0.2-0.8,0.6-1,0.7-0.3C35,31.3,34.5,31.8,34.3,31z"/>
		<path fill="#FFCB39" d="M36.1,31.3c0.4-0.4,0.8,0.2,0.3,0.5C36.1,32,35.7,31.8,36.1,31.3z"/>
		<path fill="#FFCB39" d="M32.3,30.1c1-0.3,1,1,0.3,1.1C31.8,31.2,31.3,30.4,32.3,30.1z"/>
		<path fill="#FFCB39" d="M33.1,32.6c0.5,0.3,0.2,0.9-0.2,0.6C32.5,32.9,32.5,32.3,33.1,32.6z"/>
		<path fill="#FFCB39" d="M32.1,34.1c0.5,0.3,0.2,0.9-0.2,0.6C31.5,34.4,31.5,33.8,32.1,34.1z"/>
		<path fill="#FFCB39" d="M29.1,32.4c0.5-0.8,1.2,0.1,0.7,0.6C29.3,33.5,28.6,33.1,29.1,32.4z"/>
		<path fill="#FFCB39" d="M29.2,34.4c0.9,0,0.7,1.1,0.1,1C28.6,35.2,28.3,34.4,29.2,34.4z"/>
		<path fill="#FFCB39" d="M37.8,35.7c0-1,1-0.7,1,0C38.9,36.3,37.8,37.2,37.8,35.7z"/>
		<rect x="36.3" y="35.7" fill="#FFCB39" width="0.3" height="0.4"/>
		<rect x="28.2" y="33.8" fill="#FFCB39" width="0.3" height="0.3"/>
		<rect x="36" y="37.9" fill="#FFCB39" width="0.3" height="0.4"/>
		<polygon fill="#FFCB39" points="36.8,39.6 36.6,39.9 36.8,40.2 37,40 		"/>
		<polygon fill="#FFCB39" points="34.9,38.1 34.7,38.3 34.9,38.6 35.2,38.3 		"/>
		<polygon fill="#FFCB39" points="31,34.7 30.7,34.9 31,35.3 31.2,35 		"/>
		<polygon fill="#FFCB39" points="30.6,30.5 30.4,30.7 30.6,31 30.8,30.7 		"/>
		<polygon fill="#FFCB39" points="30.4,33.3 30.3,33.5 30.4,33.6 30.5,33.5 		"/>
		<polygon fill="#FFCB39" points="31.9,31.5 31.7,31.6 31.9,31.8 32,31.6 		"/>
		<polygon fill="#FFCB39" points="34.3,33.8 34.3,33.9 34.4,34.1 34.5,33.9 		"/>
		<polygon fill="#FFCB39" points="34.6,31.9 34.5,32 34.6,32.2 34.7,32 		"/>
		<polygon fill="#FFCB39" points="35.6,30.9 35.4,31.1 35.6,31.2 35.6,31.1 		"/>
		<polygon fill="#FFCB39" points="38.1,33.9 38,34.1 38.1,34.2 38.2,34.1 		"/>
		<polygon fill="#FFCB39" points="31.7,39.8 31.5,40.1 31.7,40.4 31.9,40.2 		"/>
	</g>
</g>
</svg>
