<?xml version="1.0" encoding="utf-8"?>
<!-- Generator: Adobe Illustrator 23.0.5, SVG Export Plug-In . SVG Version: 6.00 Build 0)  -->
<svg version="1.1" id="Layer_1" xmlns:v="https://vecta.io/nano"
	 xmlns="http://www.w3.org/2000/svg" xmlns:xlink="http://www.w3.org/1999/xlink" x="0px" y="0px" viewBox="0 0 437 112"
	 style="enable-background:new 0 0 437 112;" xml:space="preserve">
<style type="text/css">
	.st0{clip-path:url(#SVGID_2_);fill:#FFFFFF;}
	.st1{fill:#FFE2A9;}
	.st2{fill:#F4CE89;}
	.st3{fill:#FFEFD4;}
	.st4{fill:#FF3964;}
	.st5{fill:#352D2D;}
	.st6{font-family:'Kefa-Bold';}
	.st7{font-size:33.0453px;}
</style>
<g>
	<defs>
		<rect id="SVGID_1_" width="437" height="112"/>
	</defs>
	<clipPath id="SVGID_2_">
		<use xlink:href="#SVGID_1_"  style="overflow:visible;"/>
	</clipPath>
	<rect x="-18" y="-15" class="st0" width="465" height="137"/>
</g>
<polygon class="st1" points="379.6,-6.5 3.1,-5 -26,110.5 395,110.5 "/>
<polygon class="st2" points="379.6,-6.5 457.6,4.7 474,110.5 391.5,110.5 "/>
<polygon class="st3" points="154.8,-5.6 79.9,-5.3 67.6,110.5 151.3,110.5 "/>
<polygon class="st3" points="328.5,-6.4 253.6,-6.1 254.9,110.5 338.6,110.5 "/>
<polygon class="st1" points="409.8,-2.2 440.8,2.3 458.7,110.5 426.3,110.5 "/>
<g>
	<path class="st4" d="M138.8,29.1c-1.3,11-12.4,13.2-16.3,13.2c-1.9,0-5.3,0.2-8.3,0.4c-1.7,0.1-3.6,0.3-5.5,0.4
		c-0.5,3.4-1,6.5-1.3,9.2c-0.6,4.7-1.2,9.6-1,10.4c0.3,1.5-2.1,2.4-3.2,2c-0.3-0.1-0.8-0.1-1.5-0.1c-1.6,0-4.3,0.1-5.8,0.3
		c-2.2,0.2-2.2-1-2-2.4c0.2-1.4,0.9-6,1.3-9.1c0.3-2.6,3.7-24.4,4.7-33c0.2-1.5,0.3-2.6,0.3-3.2c0-0.8,0-1.4,0.1-1.9
		c0.2-1.5,0.7-2,1.3-1.9c0.8,0.1,3.4,0.1,5.7,0.1c1,0,5.2-0.1,9.9-0.1c3,0,6.2,0.1,9.1,0.2C133.7,13.8,140.2,18.1,138.8,29.1z
		 M120.7,36.9c3.2,0,9.2-1.1,10-7.4c0.8-6.3-2.3-8.9-7.6-9.8c-5.4-0.9-9.1-1-10.5-0.9c-0.1,1-0.3,2.1-0.5,3.1
		c-0.3,1.8-0.7,3.9-1.2,5.9c-0.5,2-0.8,4.1-0.9,5.8l-0.2,2.9l4.2,0.2C116.4,36.9,118.9,36.9,120.7,36.9z"/>
	<path class="st4" d="M149.9,24.2c-0.5,4-2.7,16.5-3.2,20.3c-0.5,3.8-1.8,16.7-1.7,18.5c0,0.4,0,0.7,0,1c-0.1,0.8-0.5,1-1,1.2
		c-0.6,0.3-1.7,0.3-2.8,0.3c-3,0-2.2,0.3-1.8-3.1c0.3-2.8,2.8-20.2,3.4-25.1c0.6-4.9,3.2-19.1,3.2-20.9c0.1-0.5,0-1,0.1-1.5
		c0.1-1,0.5-1.9,1.7-1.9c0.6,0,2,0.1,3.3,0.1c0.7,0,0.8,0.4,0.8,1c-0.1,0.5-0.3,1.2-0.4,1.8C150.9,17.4,150.5,20.2,149.9,24.2z"/>
	<path class="st4" d="M184.2,17.5c-2.3,0-12.2-0.2-18.7-0.2c-2.6,0-4.7,0.1-5.5,0.1c-3,0.2-3.4-0.5-3.3-1c0.1-0.5,0.2-1.5,0.7-2.9
		c0.2-0.5,0.6-0.7,1.2-0.7c0.9,0,2,0.4,3.2,0.4l8.8-0.1c2.4,0,7,0.1,9.8,0.1c2.8,0,9.4,0,12.2,0.2c2.1,0.1,5,0.4,7.3,0.4
		c0.7,0,1.4,0,1.9-0.1c0.3,0,0.5-0.1,0.6-0.1c1.2,0,0.7,0.6,0.7,1c-0.1,0.5-0.2,1.2-0.7,2.7c-0.5,1.5-3.1,3.2-5.6,5.4
		c-2.5,2.4-8.3,8.5-10.6,10.9c-2.2,2.4-9.8,9.5-11.4,11c-1.6,1.5-6.3,6-8.3,7.8c-1.1,0.9-2.6,2.8-4.2,4.5l-2.7,3.2
		c4.2,0.1,8.1,0.1,11.4,0.1c5.8,0,11.7,0.1,12.5,0.1c1.4,0,6.3,0.3,8,0.3l6-0.1c0.1,0,0.1,0,0.2,0c0.8,0,0.6,0.4,0.5,0.7
		c0,0.3-0.1,1.5-0.2,2.4c-0.1,0.7-0.5,0.9-1.3,0.9c-0.4,0-0.8-0.1-1.3-0.1c-1.7-0.2-3.7-0.3-5.7-0.2c-2.2,0-17.8,0.4-21.1,0.4
		c-3.2,0-13.4,0-15.7,0.2c-0.2,0-0.5,0-0.5,0c-1.5,0-1.1-0.8-1-1.3c0.1-0.6,0.6-1.6,2-3c1.2-1.2,12.2-12.1,14.6-14.1
		c2.5-2.2,12.6-11.8,17.6-16.2c2.5-2.3,5.5-5.4,7.9-7.9l4.2-4.6h-5.4C189.2,17.6,185.9,17.6,184.2,17.5z"/>
	<path class="st4" d="M227.7,19c-1.4,0-3.8,0.1-5.5,0.1c-0.6,0-1.3,0-1.6-0.1c-0.8-0.1-3.8-0.1-6.4-0.1c-1.7,0-3.2,0-3.8,0
		c-1.3-0.1-0.9-0.4-0.9-1c0.1-0.5,0.1-1.5,0.1-2.9c0.1-1.4,1.5-1,2.8-1c2.9,0,7.7-0.3,11.4-0.3c3.6,0,13.1,0.3,15.1,0.3
		c0.9,0,3,0,5.3,0c3.6,0,7.8,0,9-0.1c0.3,0,0.5-0.1,0.6-0.1c1.4,0,1.1,0.7,1,1.2c-0.1,0.6-0.1,2.6-1.3,3.8
		c-1.1,1.2-10.4,10.9-14.2,14.6c-2,2-7.3,7.4-12.5,12.4l-9.7,9.6c1.2,0.1,2.5,0.3,3.7,0.4c2,0.2,4.6,0.3,6.5,0.3
		c3.9,0,6.3-0.1,9.9-0.1c3.5,0,13-0.4,15-0.4c1.9,0,1.5,1.2,1.4,2.3c-0.1,1.1-0.7,4.1-0.8,5.4c0,0.1,0,0.3-0.1,0.4
		c-0.1,1-0.2,1-1.4,1.1c-1.2,0.2-2.9,0-6.8,0.5c-1.3,0.1-3.2,0.1-5.3,0.1c-4.1,0-9-0.1-11.4-0.1h-22.1c-3.4,0-2.6-1.3-2.5-2.4
		c0.1-1,1.1-5.2,1.2-6.5c0.1-1.2,2.3-2.6,4.4-4.4c1.9-1.8,12.2-11.6,14.2-14c1.9-2.3,8.5-8.5,11-10.9c1.2-1.2,2.6-3.1,3.8-4.8l2-2.9
		c-0.3,0-0.5,0-0.8-0.1l-1.8-0.1L227.7,19z"/>
	<path class="st4" d="M284.3,12.2c0.5-0.7,0.9-0.9,1.3-0.5c0.6,0.4,0.7,1.2,0.9,2.1c0.1,1,2.7,6.6,3.7,8.8c1.1,2.3,2,4.9,2.9,7.9
		c0.8,2.9,4.5,10.4,6,14c1.5,3.4,5.2,10.5,6.2,12.5c0.9,1.9,2.3,5.4,3.4,6.6c0.2,0.4,0.4,0.7,0.3,1c-0.1,0.5-0.9,0.6-1.7,0.6H301
		c-0.7,0-1-1.3-1.5-2.4c-0.6-1.1-2.3-6.4-2.6-7.6c-0.3-1.1-1.3-3-1.7-4.2c-0.3-1.3-0.7-1.5-1.4-1.5c-0.6,0-2.1,0.1-3.6,0.2
		c-1.5,0.2-7.1,0.1-9.7,0.3c-0.8,0.1-1.9,0.1-2.9,0.1c-2.2,0-4.3-0.1-4.8-0.1c-0.8,0-1,0.8-1.4,1.6c-0.3,0.7-2.3,5.4-2.7,6.8
		l-1.4,3.2l-1,2.1c-0.5,1.1-0.7,1.4-1.3,1.4h-5.3c-0.4,0-0.4-0.1-0.4-0.3c0-0.2,0.3-0.6,0.5-1c0.4-0.7,0.6-0.8,1.6-2.8
		c1-2,4.3-8.8,5.4-11.9c1.1-3.3,3.2-7.2,4.5-9.5c1-2.4,1.6-3.6,3.2-7.1c1.6-3.5,3.3-7,4.6-9.6l3-5.9C282.9,14.7,283.8,13,284.3,12.2
		z M290.3,38.9c0-0.1-0.1-0.3-0.2-0.6c-0.5-0.9-2.7-6.2-3.3-8.3c-0.9-2.3-1.4-4.2-1.6-4.6c-0.5-1.1-0.5-1.5-1-1.5
		c-0.4,0-0.8,1.4-1.4,2.8c-0.6,1.2-2.5,5.1-3.1,6.5c-0.6,1.5-2,3.7-2.6,4.9c-0.2,0.5-0.4,0.9-0.4,1.2c0,0.3,0.1,0.4,0.8,0.4
		c1.1,0,9.2-0.1,10.8-0.4C289.4,39.1,290.2,39.3,290.3,38.9z"/>
</g>
<text transform="matrix(1 0 0 1 38.3945 98.1816)" class="st5 st6 st7">Initial Farm Offerings</text>
</svg>
