<svg xmlns="http://www.w3.org/2000/svg" xmlns:v="https://vecta.io/nano" xmlns:xlink="http://www.w3.org/1999/xlink" id="Layer_1" x="0" y="0" version="1.1" viewBox="0 0 437 112" xml:space="preserve" style="enable-background:new 0 0 437 112"><style type="text/css">.st0{clip-path:url(#SVGID_2_);fill:#fff}.st1{fill:#ffe2a9}.st2{fill:#f4ce89}.st3{fill:#ffefd4}.st4{fill:#ff3964}.st5{enable-background:new}.st6{fill:#352d2d}</style><g><g><defs><rect id="SVGID_1_" width="437" height="112"/></defs><clipPath id="SVGID_2_"><use xlink:href="#SVGID_1_" style="overflow:visible"/></clipPath><rect width="465" height="137" x="-18" y="-15" class="st0"/></g></g><polygon points="379.6 -6.5 3.1 -5 -26 110.5 395 110.5" class="st1"/><polygon points="379.6 -6.5 457.6 4.7 474 110.5 391.5 110.5" class="st2"/><polygon points="154.8 -5.6 79.9 -5.3 67.6 110.5 151.3 110.5" class="st3"/><polygon points="328.5 -6.4 253.6 -6.1 254.9 110.5 338.6 110.5" class="st3"/><polygon points="409.8 -2.2 440.8 2.3 458.7 110.5 426.3 110.5" class="st1"/><g><path d="M138.8,29.1c-1.3,11-12.4,13.2-16.3,13.2c-1.9,0-5.3,0.2-8.3,0.4c-1.7,0.1-3.6,0.3-5.5,0.4 c-0.5,3.4-1,6.5-1.3,9.2c-0.6,4.7-1.2,9.6-1,10.4c0.3,1.5-2.1,2.4-3.2,2c-0.3-0.1-0.8-0.1-1.5-0.1c-1.6,0-4.3,0.1-5.8,0.3 c-2.2,0.2-2.2-1-2-2.4s0.9-6,1.3-9.1c0.3-2.6,3.7-24.4,4.7-33c0.2-1.5,0.3-2.6,0.3-3.2c0-0.8,0-1.4,0.1-1.9c0.2-1.5,0.7-2,1.3-1.9 c0.8,0.1,3.4,0.1,5.7,0.1c1,0,5.2-0.1,9.9-0.1c3,0,6.2,0.1,9.1,0.2C133.7,13.8,140.2,18.1,138.8,29.1z M120.7,36.9 c3.2,0,9.2-1.1,10-7.4s-2.3-8.9-7.6-9.8c-5.4-0.9-9.1-1-10.5-0.9c-0.1,1-0.3,2.1-0.5,3.1c-0.3,1.8-0.7,3.9-1.2,5.9 s-0.8,4.1-0.9,5.8l-0.2,2.9l4.2,0.2C116.4,36.9,118.9,36.9,120.7,36.9z" class="st4"/><path d="M149.9,24.2c-0.5,4-2.7,16.5-3.2,20.3S144.9,61.2,145,63c0,0.4,0,0.7,0,1c-0.1,0.8-0.5,1-1,1.2 c-0.6,0.3-1.7,0.3-2.8,0.3c-3,0-2.2,0.3-1.8-3.1c0.3-2.8,2.8-20.2,3.4-25.1c0.6-4.9,3.2-19.1,3.2-20.9c0.1-0.5,0-1,0.1-1.5 c0.1-1,0.5-1.9,1.7-1.9c0.6,0,2,0.1,3.3,0.1c0.7,0,0.8,0.4,0.8,1c-0.1,0.5-0.3,1.2-0.4,1.8C150.9,17.4,150.5,20.2,149.9,24.2z" class="st4"/><path d="M184.2,17.5c-2.3,0-12.2-0.2-18.7-0.2c-2.6,0-4.7,0.1-5.5,0.1c-3,0.2-3.4-0.5-3.3-1c0.1-0.5,0.2-1.5,0.7-2.9 c0.2-0.5,0.6-0.7,1.2-0.7c0.9,0,2,0.4,3.2,0.4l8.8-0.1c2.4,0,7,0.1,9.8,0.1s9.4,0,12.2,0.2c2.1,0.1,5,0.4,7.3,0.4 c0.7,0,1.4,0,1.9-0.1c0.3,0,0.5-0.1,0.6-0.1c1.2,0,0.7,0.6,0.7,1c-0.1,0.5-0.2,1.2-0.7,2.7s-3.1,3.2-5.6,5.4 c-2.5,2.4-8.3,8.5-10.6,10.9c-2.2,2.4-9.8,9.5-11.4,11c-1.6,1.5-6.3,6-8.3,7.8c-1.1,0.9-2.6,2.8-4.2,4.5l-2.7,3.2 c4.2,0.1,8.1,0.1,11.4,0.1c5.8,0,11.7,0.1,12.5,0.1c1.4,0,6.3,0.3,8,0.3l6-0.1c0.1,0,0.1,0,0.2,0c0.8,0,0.6,0.4,0.5,0.7 c0,0.3-0.1,1.5-0.2,2.4c-0.1,0.7-0.5,0.9-1.3,0.9c-0.4,0-0.8-0.1-1.3-0.1c-1.7-0.2-3.7-0.3-5.7-0.2c-2.2,0-17.8,0.4-21.1,0.4 c-3.2,0-13.4,0-15.7,0.2c-0.2,0-0.5,0-0.5,0c-1.5,0-1.1-0.8-1-1.3c0.1-0.6,0.6-1.6,2-3c1.2-1.2,12.2-12.1,14.6-14.1 c2.5-2.2,12.6-11.8,17.6-16.2c2.5-2.3,5.5-5.4,7.9-7.9l4.2-4.6h-5.4C189.2,17.6,185.9,17.6,184.2,17.5z" class="st4"/><path d="M227.7,19c-1.4,0-3.8,0.1-5.5,0.1c-0.6,0-1.3,0-1.6-0.1c-0.8-0.1-3.8-0.1-6.4-0.1c-1.7,0-3.2,0-3.8,0 c-1.3-0.1-0.9-0.4-0.9-1c0.1-0.5,0.1-1.5,0.1-2.9c0.1-1.4,1.5-1,2.8-1c2.9,0,7.7-0.3,11.4-0.3c3.6,0,13.1,0.3,15.1,0.3 c0.9,0,3,0,5.3,0c3.6,0,7.8,0,9-0.1c0.3,0,0.5-0.1,0.6-0.1c1.4,0,1.1,0.7,1,1.2c-0.1,0.6-0.1,2.6-1.3,3.8 c-1.1,1.2-10.4,10.9-14.2,14.6c-2,2-7.3,7.4-12.5,12.4l-9.7,9.6c1.2,0.1,2.5,0.3,3.7,0.4c2,0.2,4.6,0.3,6.5,0.3 c3.9,0,6.3-0.1,9.9-0.1c3.5,0,13-0.4,15-0.4c1.9,0,1.5,1.2,1.4,2.3s-0.7,4.1-0.8,5.4c0,0.1,0,0.3-0.1,0.4c-0.1,1-0.2,1-1.4,1.1 c-1.2,0.2-2.9,0-6.8,0.5c-1.3,0.1-3.2,0.1-5.3,0.1c-4.1,0-9-0.1-11.4-0.1h-22.1c-3.4,0-2.6-1.3-2.5-2.4c0.1-1,1.1-5.2,1.2-6.5 c0.1-1.2,2.3-2.6,4.4-4.4c1.9-1.8,12.2-11.6,14.2-14c1.9-2.3,8.5-8.5,11-10.9c1.2-1.2,2.6-3.1,3.8-4.8l2-2.9c-0.3,0-0.5,0-0.8-0.1 l-1.8-0.1L227.7,19z" class="st4"/><path d="M284.3,12.2c0.5-0.7,0.9-0.9,1.3-0.5c0.6,0.4,0.7,1.2,0.9,2.1c0.1,1,2.7,6.6,3.7,8.8c1.1,2.3,2,4.9,2.9,7.9 c0.8,2.9,4.5,10.4,6,14c1.5,3.4,5.2,10.5,6.2,12.5c0.9,1.9,2.3,5.4,3.4,6.6c0.2,0.4,0.4,0.7,0.3,1c-0.1,0.5-0.9,0.6-1.7,0.6H301 c-0.7,0-1-1.3-1.5-2.4c-0.6-1.1-2.3-6.4-2.6-7.6c-0.3-1.1-1.3-3-1.7-4.2c-0.3-1.3-0.7-1.5-1.4-1.5c-0.6,0-2.1,0.1-3.6,0.2 c-1.5,0.2-7.1,0.1-9.7,0.3c-0.8,0.1-1.9,0.1-2.9,0.1c-2.2,0-4.3-0.1-4.8-0.1c-0.8,0-1,0.8-1.4,1.6c-0.3,0.7-2.3,5.4-2.7,6.8 l-1.4,3.2l-1,2.1c-0.5,1.1-0.7,1.4-1.3,1.4h-5.3c-0.4,0-0.4-0.1-0.4-0.3c0-0.2,0.3-0.6,0.5-1c0.4-0.7,0.6-0.8,1.6-2.8 s4.3-8.8,5.4-11.9c1.1-3.3,3.2-7.2,4.5-9.5c1-2.4,1.6-3.6,3.2-7.1s3.3-7,4.6-9.6l3-5.9C282.9,14.7,283.8,13,284.3,12.2z M290.3,38.9c0-0.1-0.1-0.3-0.2-0.6c-0.5-0.9-2.7-6.2-3.3-8.3c-0.9-2.3-1.4-4.2-1.6-4.6c-0.5-1.1-0.5-1.5-1-1.5 c-0.4,0-0.8,1.4-1.4,2.8c-0.6,1.2-2.5,5.1-3.1,6.5c-0.6,1.5-2,3.7-2.6,4.9c-0.2,0.5-0.4,0.9-0.4,1.2s0.1,0.4,0.8,0.4 c1.1,0,9.2-0.1,10.8-0.4C289.4,39.1,290.2,39.3,290.3,38.9z" class="st4"/></g><g class="st5"><path d="M40.8,76.2h8.8c0.2,0.4,0.3,0.8,0.3,1.2c0,0.4-0.1,0.7-0.2,0.8c-0.1,0.1-0.4,0.2-0.7,0.2h-1.6 c-0.1,1.4-0.1,3.6-0.1,6.8c0,5.8,0,9.4,0.1,10.8h2.2c0.2,0.4,0.3,0.8,0.3,1.2c0,0.4-0.1,0.6-0.2,0.8c-0.1,0.2-0.4,0.2-0.7,0.2h-8.9 c-0.2-0.5-0.3-0.9-0.3-1.4c0-0.3,0.1-0.5,0.2-0.6c0.2-0.1,0.4-0.2,0.7-0.2h1.5c0.1-1.4,0.1-5,0.1-10.8c0-3.2,0-5.4-0.1-6.8h-2.1 c-0.2-0.5-0.3-0.9-0.3-1.4c0-0.3,0.1-0.5,0.2-0.7C40.3,76.2,40.5,76.2,40.8,76.2z" class="st6"/><path d="M58.3,83.8c1.2-0.7,2.3-1.3,3.4-1.6s2-0.5,2.7-0.5c1.5,0,2.6,0.3,3.4,1c0.7,0.7,1.1,2,1.1,4 c0,5.3,0.1,8.1,0.3,8.6s0.6,0.6,1.3,0.6c0.2,0.4,0.2,0.8,0.2,1.2c0,0.4-0.1,0.7-0.4,0.8s-0.7,0.2-1.4,0.2c-1.7,0-2.8,0-3.3-0.1 c-0.5-0.1-0.8-0.2-1-0.5c-0.2-0.3-0.3-0.8-0.3-1.5v-5.7c0-2.2-0.2-3.7-0.6-4.4c-0.4-0.7-1.1-1.1-2-1.1c-0.8,0-1.4,0.2-1.8,0.7 c-0.4,0.4-0.7,1.4-0.7,2.8v3.2c0,1.4,0,2.8,0.1,4.4h1.9c0.2,0.4,0.3,0.8,0.3,1.2c0,0.4-0.1,0.6-0.2,0.8s-0.5,0.2-0.9,0.2h-7.6 c-0.2-0.5-0.3-0.9-0.3-1.3c0-0.3,0.1-0.6,0.2-0.7c0.2-0.1,0.4-0.2,0.7-0.2h1.2c0.1-1.8,0.1-3.6,0.1-5.5c0-3-0.1-4.8-0.4-5.3 s-0.8-0.8-1.5-0.8c-0.2-0.4-0.3-0.9-0.3-1.3c0-0.4,0.1-0.6,0.4-0.8s2.1-0.2,5.3-0.3C58.3,82.4,58.3,83,58.3,83.8z" class="st6"/><path d="M79.5,96h1.9c0.2,0.4,0.3,0.8,0.3,1.2c0,0.4-0.1,0.6-0.2,0.8c-0.2,0.2-0.5,0.2-0.9,0.2h-7.7 c-0.2-0.5-0.3-0.9-0.3-1.3c0-0.3,0.1-0.6,0.2-0.7c0.2-0.1,0.4-0.2,0.7-0.2h1.3c0.1-1.4,0.1-2.8,0.1-4.4c0-2.4,0-4-0.1-4.7 c0-0.8-0.1-1.3-0.2-1.7c-0.1-0.4-0.3-0.6-0.6-0.7c-0.3-0.1-0.7-0.1-1.2-0.1c-0.2-0.3-0.3-0.7-0.3-1c0-0.6,0.2-1,0.7-1.1 c0.5-0.1,1.5-0.2,3-0.2c1.1,0,1.9,0,2.3,0.1s0.7,0.3,0.7,0.5c0.1,0.3,0.1,0.6,0.1,1.1v7.9C79.4,93.1,79.4,94.6,79.5,96z M76.5,79.8 c-1,0-1.7-0.2-2.1-0.6c-0.4-0.4-0.6-0.9-0.6-1.6c0-0.7,0.3-1.3,0.8-1.8c0.5-0.5,1.3-0.7,2.3-0.7c1,0,1.8,0.2,2.2,0.6 c0.4,0.4,0.6,0.9,0.6,1.5c0,0.7-0.3,1.3-0.8,1.7C78.5,79.6,77.6,79.8,76.5,79.8z" class="st6"/><path d="M84,82.2h1.1l1.6-4.9c0.5,0.2,1.1,0.4,1.5,0.6s0.8,0.6,1.1,0.9c0.2,0.3,0.4,1.2,0.4,2.5v0.9h5.5 c0.2,0.4,0.3,0.9,0.3,1.4c0,0.4-0.1,0.7-0.2,0.8s-0.4,0.2-0.9,0.2h-4.6V91c0,1.9,0.2,3.1,0.5,3.8c0.3,0.7,0.8,1,1.6,1 c0.7,0,1.6-0.2,2.7-0.8c0.3,0.4,0.5,0.9,0.5,1.4c0,0.7-0.4,1.2-1.2,1.5c-0.8,0.3-2,0.4-3.6,0.4c-1.8,0-3-0.4-3.8-1.1 c-0.8-0.7-1.1-2.1-1.1-4.1v-2.8c0-1.8-0.1-3.7-0.2-5.7h-1.6c-0.2-0.5-0.3-0.9-0.3-1.4c0-0.4,0.1-0.6,0.2-0.8 C83.5,82.3,83.7,82.2,84,82.2z" class="st6"/><path d="M103.9,96h1.9c0.2,0.4,0.3,0.8,0.3,1.2c0,0.4-0.1,0.6-0.2,0.8c-0.2,0.2-0.5,0.2-0.9,0.2h-7.7 c-0.2-0.5-0.3-0.9-0.3-1.3c0-0.3,0.1-0.6,0.2-0.7c0.2-0.1,0.4-0.2,0.7-0.2h1.3c0.1-1.4,0.1-2.8,0.1-4.4c0-2.4,0-4-0.1-4.7 c0-0.8-0.1-1.3-0.2-1.7c-0.1-0.4-0.3-0.6-0.6-0.7c-0.3-0.1-0.7-0.1-1.2-0.1c-0.2-0.3-0.3-0.7-0.3-1c0-0.6,0.2-1,0.7-1.1 c0.5-0.1,1.5-0.2,3-0.2c1.1,0,1.9,0,2.3,0.1s0.7,0.3,0.7,0.5c0.1,0.3,0.1,0.6,0.1,1.1v7.9C103.8,93.1,103.8,94.6,103.9,96z M100.9,79.8c-1,0-1.7-0.2-2.1-0.6c-0.4-0.4-0.6-0.9-0.6-1.6c0-0.7,0.3-1.3,0.8-1.8c0.5-0.5,1.3-0.7,2.3-0.7c1,0,1.8,0.2,2.2,0.6 c0.4,0.4,0.6,0.9,0.6,1.5c0,0.7-0.3,1.3-0.8,1.7C102.9,79.6,102,79.8,100.9,79.8z" class="st6"/><path d="M118,96.9c-0.8,0.4-1.7,0.8-2.8,1.1s-2,0.5-2.9,0.5c-1.6,0-2.7-0.4-3.4-1.1c-0.7-0.7-1.1-1.7-1.1-3 c0-1.8,0.6-3.2,1.9-4c1.2-0.9,3.2-1.3,5.9-1.3h1.8c-0.1-1.7-0.4-2.8-0.8-3.4c-0.5-0.6-1.1-0.9-2-0.9c-0.5,0-1,0.1-1.6,0.2 c-0.4,0.7-0.6,1.1-0.7,1.1c-0.1,0-0.4,0.1-1.1,0.3c-0.7,0.2-1.1,0.1-1.4-0.1c-0.3-0.2-0.6-0.7-0.8-1.3s-0.4-1.2-0.4-1.6 c0-0.3,0.1-0.5,0.3-0.6c0.2-0.2,1-0.3,2.4-0.5c1.4-0.2,2.9-0.3,4.5-0.3c1.9,0,3.4,0.3,4.5,1c1.1,0.7,1.6,1.9,1.6,3.8V91 c0,2.4,0.1,3.8,0.3,4.4s0.6,0.8,1.1,0.6c0.2,0.3,0.2,0.6,0.2,0.9c0,0.5-0.3,0.9-0.9,1.1c-0.6,0.3-1.4,0.4-2.3,0.4 c-0.4,0-0.8-0.1-1-0.2S118.5,97.7,118,96.9z M117.4,91.6c-0.8-0.2-1.6-0.2-2.4-0.2c-0.9,0-1.5,0.2-1.9,0.5 c-0.4,0.3-0.6,0.9-0.6,1.7c0,0.7,0.2,1.3,0.6,1.7s0.9,0.6,1.7,0.6c0.6,0,1.1-0.1,1.5-0.4c0.4-0.2,0.7-0.6,0.9-1.1s0.2-1.1,0.2-1.8 V91.6z" class="st6"/><path d="M127.7,90.4c0-4.9,0-7.9-0.1-9.2s-0.1-2.1-0.2-2.6s-0.3-0.8-0.6-0.9c-0.3-0.1-0.7-0.2-1.2-0.2 c-0.2-0.4-0.3-0.9-0.3-1.3c0-0.5,0.2-0.7,0.5-0.9s1.4-0.2,3.3-0.2c1.1,0,1.9,0,2.3,0.1c0.4,0.1,0.7,0.3,0.7,0.5 c0.1,0.2,0.1,0.6,0.1,1v12.4c0,3.1,0,5.3,0.1,6.7h2.1c0.2,0.4,0.3,0.8,0.3,1.2c0,0.4-0.1,0.6-0.2,0.8s-0.5,0.2-0.9,0.2h-7.9 c-0.2-0.5-0.3-0.9-0.3-1.3c0-0.3,0.1-0.6,0.2-0.7c0.2-0.1,0.4-0.2,0.7-0.2h1.3C127.6,94.6,127.7,92.7,127.7,90.4z" class="st6"/><path d="M145.6,76.2h6.8c4.9,0,8.2,0.8,10,2.3c1.8,1.5,2.7,4.1,2.7,7.7c0,4-0.9,7-2.8,9s-5,3-9.5,3l-7.9,0 c-0.2-0.5-0.3-0.9-0.3-1.4c0-0.3,0.1-0.5,0.2-0.6c0.2-0.1,0.4-0.2,0.7-0.2h1.2c0.1-1.4,0.1-5,0.1-10.8c0-3.2,0-5.4-0.1-6.8H145 c-0.2-0.5-0.3-0.9-0.3-1.4c0-0.3,0.1-0.5,0.2-0.7C145.1,76.2,145.3,76.2,145.6,76.2z M154,79.3c-0.8,0-1.4,0.1-2,0.2 c-0.1,1.5-0.1,5-0.1,10.5c0,2.5,0.2,4.1,0.5,4.5c0.3,0.5,1.1,0.7,2.4,0.7c1.6,0,2.7-0.5,3.6-1.5c0.8-1,1.2-3.1,1.2-6.2 c0-3-0.5-5.2-1.4-6.3C157.2,79.8,155.8,79.3,154,79.3z" class="st6"/><path d="M176.3,81.8c2.2,0,3.9,0.5,4.9,1.5c1,1,1.5,2.6,1.5,4.8c0,1.1-0.2,1.9-0.6,2.3c-0.4,0.5-1.4,0.7-2.8,0.7h-6 c0,1.4,0.3,2.5,1,3.3c0.6,0.8,1.7,1.2,3.2,1.2c1.5,0,3-0.4,4.6-1.3c0.6,0.5,0.8,1.1,0.8,1.8c0,0.9-0.6,1.5-1.9,1.8 c-1.3,0.3-2.7,0.5-4.4,0.5c-2.9,0-5.1-0.6-6.4-1.8c-1.3-1.2-2-3.1-2-5.9c0-2.8,0.7-5,2.2-6.6C171.8,82.6,173.8,81.8,176.3,81.8z M175.7,84.5c-0.8,0-1.4,0.3-1.8,1c-0.4,0.6-0.6,1.8-0.6,3.4h0.9c1.2,0,2.1,0,2.7-0.1c0.6-0.1,1-0.2,1.1-0.4s0.2-0.4,0.2-0.8 c0-1-0.2-1.7-0.6-2.3C177,84.8,176.4,84.5,175.7,84.5z" class="st6"/><path d="M186.2,96c0.5-0.7,1.9-2.7,4.1-6c-1-1.5-1.7-2.6-2.2-3.3c-0.5-0.7-0.9-1.3-1.2-1.6s-0.6-0.6-0.8-0.7 c-0.3-0.1-0.6-0.1-1-0.1c-0.2-0.3-0.3-0.7-0.3-1.2c0-0.5,0.3-0.8,0.8-1c0.5-0.1,1.7-0.2,3.5-0.2c0.4,0,0.8,0.1,1.3,0.2 s0.8,0.4,1.1,0.8c0.2,0.4,0.5,1,1,2c0.4,0.9,1.1,2.1,1.9,3.5c0.9-1.5,1.6-2.8,2.1-3.8h-0.7c-0.2-0.4-0.3-0.8-0.3-1.2 c0-0.4,0.1-0.7,0.2-0.9s0.4-0.3,0.8-0.3h4.9c0.2,0.4,0.3,0.8,0.3,1.2c0,0.5-0.1,0.8-0.3,1s-0.5,0.3-1,0.3h-0.1 c-1.3,1.6-2.7,3.5-4.1,5.7c2.2,3.3,3.5,5.1,3.8,5.3s0.8,0.4,1.4,0.4c0.2,0.2,0.2,0.6,0.2,1c0,0.5-0.2,0.8-0.6,1 c-0.4,0.1-1,0.2-1.9,0.2c-1.5,0-2.4,0-2.8-0.1c-0.4-0.1-0.7-0.2-1-0.5c-0.2-0.3-1.3-2.2-3.3-5.6c-1.2,1.9-1.8,3.2-2.1,4.1h1.1 c0.2,0.4,0.3,0.8,0.3,1.2c0,0.4-0.1,0.6-0.2,0.8c-0.2,0.2-0.5,0.2-0.9,0.2H185c-0.2-0.5-0.3-0.9-0.3-1.3c0-0.3,0.1-0.6,0.2-0.7 c0.2-0.1,0.4-0.2,0.7-0.2H186.2z" class="st6"/><path d="M212.7,88.2c0-4.2,1-7.3,2.9-9.3c2-2,4.6-3,8-3c3.2,0,5.6,0.7,7.3,2.2c1.7,1.5,2.5,4.2,2.5,8.1 c0,4.2-1,7.3-2.9,9.3c-2,2-4.7,3-8.1,3c-3.1,0-5.5-0.7-7.1-2.2C213.6,94.8,212.7,92.1,212.7,88.2z M218.3,86.6c0,3.5,0.4,5.8,1.3,7 c0.9,1.2,2.1,1.8,3.6,1.8c1.6,0,2.8-0.6,3.5-1.8c0.7-1.2,1.1-3.1,1.1-5.9c0-3.5-0.4-5.9-1.3-7.1c-0.9-1.2-2.1-1.7-3.7-1.7 c-1.6,0-2.8,0.6-3.5,1.8S218.3,83.8,218.3,86.6z" class="st6"/><path d="M243,96h2.5c0.2,0.4,0.3,0.8,0.3,1.2c0,0.4-0.1,0.6-0.2,0.8s-0.5,0.2-0.9,0.2h-8.4c-0.2-0.5-0.3-0.9-0.3-1.3 c0-0.3,0.1-0.6,0.2-0.7c0.2-0.1,0.4-0.2,0.7-0.2h1.3c0.1-1.4,0.1-2.8,0.1-4.4v-6.9h-2.1c-0.2-0.5-0.3-0.9-0.3-1.4 c0-0.4,0.1-0.6,0.2-0.8c0.1-0.2,0.4-0.2,0.7-0.2h1.4c0.1-2.6,0.7-4.5,1.9-5.5s3.1-1.5,5.8-1.5c1.5,0,2.7,0.1,3.4,0.4 c0.7,0.3,1.1,0.8,1.1,1.5s-0.3,1.4-0.9,2.1c-2.2-0.9-3.7-1.4-4.8-1.4c-0.9,0-1.4,0.3-1.7,0.8c-0.2,0.6-0.4,1.5-0.4,2.7v0.8h4.4 c0.2,0.4,0.3,0.9,0.3,1.4c0,0.4-0.1,0.7-0.2,0.8c-0.2,0.1-0.4,0.2-0.9,0.2h-3.5v6.9C242.9,93.1,242.9,94.6,243,96z" class="st6"/><path d="M256.4,96h2.5c0.2,0.4,0.3,0.8,0.3,1.2c0,0.4-0.1,0.6-0.2,0.8s-0.5,0.2-0.9,0.2h-8.4c-0.2-0.5-0.3-0.9-0.3-1.3 c0-0.3,0.1-0.6,0.2-0.7c0.2-0.1,0.4-0.2,0.7-0.2h1.3c0.1-1.4,0.1-2.8,0.1-4.4v-6.9h-2.1c-0.2-0.5-0.3-0.9-0.3-1.4 c0-0.4,0.1-0.6,0.2-0.8c0.1-0.2,0.4-0.2,0.7-0.2h1.4c0.1-2.6,0.7-4.5,1.9-5.5s3.1-1.5,5.8-1.5c1.5,0,2.7,0.1,3.4,0.4 c0.7,0.3,1.1,0.8,1.1,1.5s-0.3,1.4-0.9,2.1c-2.2-0.9-3.7-1.4-4.8-1.4c-0.9,0-1.4,0.3-1.7,0.8c-0.2,0.6-0.4,1.5-0.4,2.7v0.8h4.4 c0.2,0.4,0.3,0.9,0.3,1.4c0,0.4-0.1,0.7-0.2,0.8c-0.2,0.1-0.4,0.2-0.9,0.2h-3.5v6.9C256.4,93.1,256.4,94.6,256.4,96z" class="st6"/><path d="M271.5,81.8c2.2,0,3.9,0.5,4.9,1.5c1,1,1.5,2.6,1.5,4.8c0,1.1-0.2,1.9-0.6,2.3c-0.4,0.5-1.4,0.7-2.8,0.7h-6 c0,1.4,0.3,2.5,1,3.3c0.6,0.8,1.7,1.2,3.2,1.2c1.5,0,3-0.4,4.6-1.3c0.6,0.5,0.8,1.1,0.8,1.8c0,0.9-0.6,1.5-1.9,1.8 c-1.3,0.3-2.7,0.5-4.4,0.5c-2.9,0-5.1-0.6-6.4-1.8c-1.3-1.2-2-3.1-2-5.9c0-2.8,0.7-5,2.2-6.6C267,82.6,269,81.8,271.5,81.8z M270.8,84.5c-0.8,0-1.4,0.3-1.8,1c-0.4,0.6-0.6,1.8-0.6,3.4h0.9c1.2,0,2.1,0,2.7-0.1c0.6-0.1,1-0.2,1.1-0.4s0.2-0.4,0.2-0.8 c0-1-0.2-1.7-0.6-2.3C272.2,84.8,271.6,84.5,270.8,84.5z" class="st6"/><path d="M280.3,83c0-0.4,0.1-0.6,0.4-0.8s2.1-0.2,5.3-0.3c0.1,0.5,0.1,1.1,0,1.9c1.4-0.8,2.6-1.3,3.7-1.6 c1.1-0.3,2.1-0.4,2.9-0.4c0.4,0,0.6,0,0.8,0.1c0.1,0.1,0.2,0.3,0.2,0.6c0,0.6-0.1,1.2-0.3,1.8c-0.2,0.6-0.4,1.1-0.7,1.2 c-0.3,0.2-0.7,0.3-1.2,0.4c-0.6,0.1-0.9,0.1-1,0.1c-0.1,0-0.4-0.4-0.9-1.1c-0.8,0-1.4,0.3-1.8,0.9c-0.4,0.6-0.6,2.1-0.6,4.4 c0,2.2,0,4.1,0.1,5.6h2.5c0.2,0.4,0.3,0.8,0.3,1.2c0,0.4-0.1,0.6-0.2,0.8c-0.2,0.2-0.5,0.2-0.9,0.2h-8.2c-0.2-0.5-0.3-0.9-0.3-1.3 c0-0.3,0.1-0.6,0.2-0.7c0.2-0.1,0.4-0.2,0.7-0.2h1.2c0.1-1.6,0.1-3.4,0.1-5.5c0-3-0.1-4.8-0.4-5.3s-0.8-0.8-1.5-0.8 C280.4,83.9,280.3,83.4,280.3,83z" class="st6"/><path d="M302,96h1.9c0.2,0.4,0.3,0.8,0.3,1.2c0,0.4-0.1,0.6-0.2,0.8c-0.2,0.2-0.5,0.2-0.9,0.2h-7.7 c-0.2-0.5-0.3-0.9-0.3-1.3c0-0.3,0.1-0.6,0.2-0.7c0.2-0.1,0.4-0.2,0.7-0.2h1.3c0.1-1.4,0.1-2.8,0.1-4.4c0-2.4,0-4-0.1-4.7 c0-0.8-0.1-1.3-0.2-1.7c-0.1-0.4-0.3-0.6-0.6-0.7c-0.3-0.1-0.7-0.1-1.2-0.1c-0.2-0.3-0.3-0.7-0.3-1c0-0.6,0.2-1,0.7-1.1 c0.5-0.1,1.5-0.2,3-0.2c1.1,0,1.9,0,2.3,0.1s0.7,0.3,0.7,0.5c0.1,0.3,0.1,0.6,0.1,1.1v7.9C301.9,93.1,302,94.6,302,96z M299.1,79.8 c-1,0-1.7-0.2-2.1-0.6c-0.4-0.4-0.6-0.9-0.6-1.6c0-0.7,0.3-1.3,0.8-1.8c0.5-0.5,1.3-0.7,2.3-0.7c1,0,1.8,0.2,2.2,0.6 c0.4,0.4,0.6,0.9,0.6,1.5c0,0.7-0.3,1.3-0.8,1.7C301,79.6,300.2,79.8,299.1,79.8z" class="st6"/><path d="M311.7,83.8c1.2-0.7,2.3-1.3,3.4-1.6s2-0.5,2.7-0.5c1.5,0,2.6,0.3,3.4,1c0.7,0.7,1.1,2,1.1,4 c0,5.3,0.1,8.1,0.3,8.6s0.6,0.6,1.3,0.6c0.2,0.4,0.2,0.8,0.2,1.2c0,0.4-0.1,0.7-0.4,0.8s-0.7,0.2-1.4,0.2c-1.7,0-2.8,0-3.3-0.1 c-0.5-0.1-0.8-0.2-1-0.5c-0.2-0.3-0.3-0.8-0.3-1.5v-5.7c0-2.2-0.2-3.7-0.6-4.4c-0.4-0.7-1.1-1.1-2-1.1c-0.8,0-1.4,0.2-1.8,0.7 c-0.4,0.4-0.7,1.4-0.7,2.8v3.2c0,1.4,0,2.8,0.1,4.4h1.9c0.2,0.4,0.3,0.8,0.3,1.2c0,0.4-0.1,0.6-0.2,0.8s-0.5,0.2-0.9,0.2h-7.6 c-0.2-0.5-0.3-0.9-0.3-1.3c0-0.3,0.1-0.6,0.2-0.7c0.2-0.1,0.4-0.2,0.7-0.2h1.2c0.1-1.8,0.1-3.6,0.1-5.5c0-3-0.1-4.8-0.4-5.3 s-0.8-0.8-1.5-0.8c-0.2-0.4-0.3-0.9-0.3-1.3c0-0.4,0.1-0.6,0.4-0.8s2.1-0.2,5.3-0.3C311.8,82.4,311.8,83,311.7,83.8z" class="st6"/><path d="M339.6,83.9c0.5,1.1,0.8,2.2,0.8,3.3c0,1.9-0.6,3.4-1.9,4.6c-1.3,1.1-3.1,1.7-5.6,1.7c-1.1,0-1.7,0.1-2,0.3 s-0.4,0.5-0.4,0.9c0,0.4,0.2,0.7,0.5,0.9s2.1,0.3,5.2,0.3c2.7,0,4.5,0.3,5.4,0.9c0.9,0.6,1.3,1.5,1.3,2.7c0,1.8-1,3.2-2.9,4.2 c-1.9,1-4.9,1.5-8.9,1.5c-1.9,0-3.1-0.2-3.7-0.7s-0.9-1.1-0.9-2c0-0.6,0.2-1.3,0.5-1.9c0.3-0.6,0.8-1.2,1.4-1.8 c-0.5-0.2-1-0.5-1.3-0.9c-0.3-0.4-0.5-1-0.5-1.6c0-0.8,0.3-1.4,0.8-2c0.5-0.6,1.2-1,2-1.4c-0.7-0.3-1.3-0.8-1.8-1.6 c-0.5-0.8-0.7-1.7-0.7-2.9c0-1.9,0.6-3.5,1.9-4.7c1.3-1.3,3.1-1.9,5.7-1.9c1.3,0,2.5,0.2,3.7,0.6c1.5-0.7,2.5-1.1,2.7-1.1 c1.6,0,2.4,0,2.6,0.1c0.2,0.1,0.2,0.2,0.2,0.4c0,0.3-0.2,0.8-0.5,1.4c-0.3,0.6-0.6,0.9-0.9,0.9c-0.3,0-1.1-0.3-2.4-0.8L339.6,83.9z M331.1,99.1c-0.2,0.3-0.4,0.6-0.6,1c-0.1,0.4-0.2,0.8-0.2,1.1c0,0.6,0.2,1.1,0.6,1.3s1.2,0.4,2.4,0.4c1.7,0,2.9-0.2,3.7-0.6 c0.8-0.4,1.2-0.9,1.2-1.7c0-0.6-0.3-1.1-0.9-1.3C336.7,99.2,334.6,99.1,331.1,99.1z M333.6,84.1c-0.8,0-1.3,0.2-1.7,0.7 c-0.4,0.5-0.6,1.4-0.6,2.9c0,1.3,0.2,2.2,0.6,2.7c0.4,0.5,1,0.8,1.7,0.8c0.8,0,1.4-0.2,1.7-0.7c0.4-0.5,0.6-1.4,0.6-2.9 c0-1.2-0.2-2.1-0.6-2.7S334.4,84.1,333.6,84.1z" class="st6"/><path d="M353.1,81.8c1.6,0,2.9,0.2,3.8,0.5c0.9,0.3,1.3,0.8,1.3,1.5c0,0.8-0.3,1.5-0.9,2.3c-2.3-1-4.1-1.5-5.3-1.5 c-0.7,0-1.1,0.1-1.5,0.4c-0.3,0.2-0.5,0.6-0.5,1.1c0,0.5,0.2,0.9,0.6,1.3c0.4,0.4,1.4,0.8,2.9,1.4c1.8,0.6,3.1,1.3,3.8,2 s1.1,1.7,1.1,2.9c0,1.6-0.7,2.9-2,3.7c-1.3,0.9-3.1,1.3-5.3,1.3c-2.1,0-3.6-0.1-4.4-0.4c-0.9-0.3-1.3-0.9-1.3-1.8 c0-0.7,0.3-1.3,0.8-2c2.1,0.9,4,1.4,5.7,1.4c0.7,0,1.2-0.1,1.6-0.3c0.4-0.2,0.6-0.6,0.6-1.1c0-0.6-0.3-1.1-1-1.5 c-0.7-0.4-1.7-0.8-3.2-1.4c-1.6-0.6-2.7-1.3-3.4-1.9c-0.7-0.7-1-1.6-1-2.7c0-1.5,0.7-2.7,2-3.7C348.9,82.2,350.8,81.8,353.1,81.8z" class="st6"/></g></svg>