<svg xmlns="http://www.w3.org/2000/svg" xmlns:v="https://vecta.io/nano" xmlns:xlink="http://www.w3.org/1999/xlink" id="Layer_1" x="0" y="0" version="1.1" viewBox="0 0 64 64" xml:space="preserve" style="enable-background:new 0 0 64 64"><style type="text/css">.st0{fill:#e9eaeb}.st1{fill:#c4c4c4;filter:url(#Adobe_OpacityMaskFilter)}.st2{mask:url(#A_1_)}.st3{fill:#6c184e}.st4{fill:#ffce00}.st5{opacity:.3}.st6{fill:#ee1822}.st7{fill:#f6c547}.st8{fill:#661a47}.st9{fill:#651b47}.st10{fill:none}.st11{fill:#eb984e}.st12{fill:#f7af41}.st13{fill:#6d184e}.st14,.st15{fill:#bdc2c4}.st15{fill-rule:evenodd;clip-rule:evenodd}</style><path d="M64,32c0,17.7-14.3,32-32,32S0,49.7,0,32S14.3,0,32,0S64,14.3,64,32z" class="st0"/><defs><filter id="Adobe_OpacityMaskFilter" width="56" height="69.6" x="8.1" y="8" filterUnits="userSpaceOnUse"><feColorMatrix type="matrix" values="1 0 0 0 0 0 1 0 0 0 0 0 1 0 0 0 0 0 1 0"/></filter></defs><mask id="A_1_" width="56" height="69.6" x="8.1" y="8" maskUnits="userSpaceOnUse"><path d="M60.7,32c0,15.8-12.8,28.7-28.7,28.7S3.3,47.8,3.3,32S16.2,3.3,32,3.3S60.7,16.2,60.7,32z" class="st1"/></mask><g class="st2"><g><g><g><g><path d="M11.4,72.2c-0.4,0-0.8-0.1-1-0.3C9.6,71.2,10,70,10,69.9c0,0,0,0,0,0c5.4-10.5,12.3-18.1,17.1-22.7 c6.2-5.8,12.7-10.1,17.8-11.8c3-1,5.3-1,7-0.1c2.7,1.4,5.4,5.3,7.4,10.5c1.9,5.1,2.6,10.1,1.7,13C60.5,60.9,59,62,57,62 c-0.3,0-0.5,0-0.8-0.1c-10.2-1.3-30.8,2.8-38.8,7.7C14.6,71.3,12.6,72.2,11.4,72.2z M10.7,70.2c-0.1,0.2-0.2,0.8,0.1,1.1 c0.2,0.2,1.4,0.6,6.2-2.3c4-2.4,10.9-4.7,19.1-6.3c7.9-1.5,15.5-2.1,20.2-1.5c2.1,0.3,3.4-0.6,4.1-2.7 c0.9-2.8,0.2-7.6-1.7-12.5c-1.9-4.9-4.6-8.8-7.1-10.1c-1.5-0.8-3.7-0.7-6.4,0.2c-5.1,1.6-11.5,5.9-17.5,11.6 C22.9,52.3,16,59.8,10.7,70.2z" class="st3"/></g><g><g><path d="M52.4,40.1c-1.2-0.3,0.1-0.7-1.4-2.2c-1.5-1.5-3.2-0.3-3.2-0.3c0.3-0.6,0.3-1.1,0-1.5 c-1.3-1.9-4.8-0.7-6.1-2.2c-1.3-1.5-4.3-0.1-4.3-0.1S19.3,44.6,14.1,57c-5.2,12.5-4.8,16.3-2.5,15.4s3.9-2.8,5.6-1.3 c1.7,1.5-0.4,4.4,1.6,5.8c1.1,0.8,3.7-0.6,2.5-2.8c-1.2-2.1-2.9-6.1-0.1-8.2c2.8-2.1,9.2-3.2,8.8-0.3 c-0.9,7.3,6.9,4.2,4.5,1.1c-2.1-2.6-0.2-7.3,4.4-4.7c3.9,2.1,3.4-0.8,7.2-2c2.8-0.9,8.1-1,8.1-1c3.7-2.2,0.4-3.2,0.4-3.2 s3.1-2.4,2.3-4c-0.8-1.6-0.4-4.2-0.3-6.8C56.4,42.6,53.5,40.3,52.4,40.1z" class="st4"/></g><g class="st5"><path d="M52.4,40.1c-1.2-0.3,0.1-0.7-1.4-2.2c-1.5-1.5-3.2-0.3-3.2-0.3c0.3-0.6,0.3-1.1,0-1.5 c-1.3-1.9-4.8-0.7-6.1-2.2c-1.3-1.5-4.3-0.1-4.3-0.1S37,34,36.2,34.5c5.7,1.5,17.4,6.3,15.2,23.3c0,0-22.6,1.6-28.9,5.5 c-4.5,2.8-9,8-12.5,8.7c0.2,0.6,0.7,0.8,1.4,0.5c2.3-0.9,3.9-2.8,5.6-1.3c1.7,1.5-0.4,4.4,1.6,5.8c1.1,0.8,3.7-0.6,2.5-2.8 c-1.2-2.1-2.9-6.1-0.1-8.2c2.8-2.1,9.2-3.2,8.8-0.3c-0.9,7.3,6.9,4.2,4.5,1.1c-2.1-2.6-0.2-7.3,4.4-4.7c3.9,2.1,3.4-0.8,7.2-2 c2.8-0.9,8.1-1,8.1-1c3.7-2.2,0.4-3.2,0.4-3.2s3.1-2.4,2.3-4c-0.8-1.6-0.4-4.2-0.3-6.8C56.4,42.6,53.5,40.3,52.4,40.1z" class="st3"/></g><g><path d="M19.5,77.6c-0.4,0-0.7-0.1-1-0.3c-1.2-0.9-1.1-2.2-1.1-3.3c0.1-1,0.1-1.9-0.5-2.5 c-0.9-0.9-1.8-0.4-3.3,0.4c-0.6,0.3-1.2,0.7-1.9,0.9c-0.8,0.3-1.3,0.1-1.6-0.2c-1.7-1.7,1-9.5,3.6-15.7 c2.7-6.5,9-12.5,13.7-16.5c5.1-4.2,9.7-7,9.8-7c0,0,0,0,0,0c0.1-0.1,3.3-1.5,4.8,0.2c0.5,0.6,1.5,0.7,2.6,0.8 c1.3,0.1,2.7,0.3,3.5,1.4c0.2,0.3,0.3,0.6,0.3,1c0.8-0.3,1.9-0.2,2.9,0.7c0.9,0.9,1,1.5,1,1.9c0,0,0,0.1,0,0.1 c0,0,0.1,0,0.3,0.1l0,0c1.3,0.3,4.3,2.7,4.3,5.5c0,0.6,0,1.2-0.1,1.7c-0.1,1.9-0.2,3.7,0.4,4.9c0.7,1.5-1,3.3-1.9,4.1 c0.4,0.2,1,0.7,1,1.3c0.1,0.8-0.5,1.5-1.9,2.4c-0.1,0-0.1,0.1-0.2,0.1c-0.1,0-5.2,0-7.9,0.9c-1.4,0.5-2.1,1.1-2.8,1.7 c-1.3,1.1-2.2,1.7-4.7,0.3c-1.7-1-3.2-0.9-4,0.1c-0.9,1.1-0.9,2.8,0.1,4.1c0.7,0.9,0.7,1.9,0.1,2.8c-0.8,1-2.3,1.5-3.5,1 c-0.8-0.3-2.2-1.4-1.7-4.8c0.1-0.5-0.1-0.8-0.5-1c-1.5-0.8-5.6,0-7.7,1.7c-2.7,2-0.8,6,0.2,7.7c0.6,1,0.5,2.1-0.3,2.9 C20.7,77.4,20,77.6,19.5,77.6z M15.8,70.2c0.5,0,1.1,0.2,1.6,0.7c0.9,0.9,0.9,2.1,0.8,3.1c-0.1,1.1-0.1,2.1,0.8,2.7 c0.4,0.3,1.2,0.1,1.7-0.3c0.3-0.3,0.8-0.9,0.2-1.9c-1.1-1.8-3.2-6.3,0-8.7c2.2-1.7,6.7-2.8,8.6-1.7c0.7,0.4,1,1,0.9,1.8 c-0.3,2.1,0.2,3.5,1.3,3.9c0.8,0.3,2,0,2.6-0.8c0.3-0.3,0.6-1-0.1-1.9c-1.2-1.5-1.2-3.7-0.1-5c1.1-1.3,3-1.4,5-0.3 c2.2,1.2,2.7,0.7,3.8-0.2c0.7-0.6,1.6-1.3,3.1-1.8c2.7-0.9,7.3-1,8.1-1c1.3-0.8,1.5-1.3,1.4-1.6c-0.1-0.5-0.8-0.8-1.1-0.9 c-0.1,0-0.2-0.2-0.3-0.3c0-0.1,0-0.3,0.1-0.4c0.7-0.6,2.7-2.4,2.2-3.5c-0.6-1.4-0.5-3.3-0.4-5.3c0-0.6,0.1-1.1,0.1-1.7 c0.1-2.3-2.6-4.5-3.7-4.7c-0.7-0.2-0.8-0.5-0.9-0.9c0-0.3,0-0.7-0.7-1.4c-1.3-1.3-2.7-0.3-2.7-0.2c-0.1,0.1-0.3,0.1-0.5,0 c-0.1-0.1-0.2-0.3-0.1-0.5c0.4-0.7,0.1-1,0.1-1.1c-0.6-0.8-1.8-1-3-1.1c-1.2-0.1-2.4-0.2-3.1-1.1c-0.9-1-3-0.4-3.8,0 c-0.3,0.2-4.7,2.9-9.7,6.9c-4.7,3.9-10.8,9.8-13.5,16.2c-1.9,4.6-3.2,8.2-3.7,10.9c-0.7,3-0.2,3.8,0,4c0.1,0.1,0.2,0.2,0.7,0 c0.6-0.2,1.2-0.6,1.8-0.9C14,70.7,14.9,70.2,15.8,70.2z" class="st3"/></g></g><g><path d="M40.1,59c2.2-0.4,4.4-0.8,6.6-1c1.1-0.1,2.2-0.3,3.3-0.4c1.1-0.1,2.2-0.2,3.4-0.2c0.2,0,0.3,0.1,0.3,0.3 c0,0.2-0.1,0.3-0.3,0.3c0,0,0,0,0,0h0c-1.1,0-2.2,0-3.3,0c-1.1,0-2.2,0.1-3.3,0.2C44.5,58.5,42.3,58.7,40.1,59z" class="st3"/></g></g><g class="st5"><g><path d="M47.2,35.6C47.2,35.6,47.2,35.6,47.2,35.6C47.2,35.5,47.2,35.5,47.2,35.6C47.2,35.5,47.2,35.6,47.2,35.6z" class="st3"/></g><g><path d="M55.8,43.2c-0.1,2.6-0.4,5.2,0.3,6.8c0,0.1,0.1,0.2,0.1,0.3c-0.1-1.5,0-3.3,0.1-5.1 C56.3,44.5,56.1,43.8,55.8,43.2C55.8,43.2,55.8,43.2,55.8,43.2z" class="st3"/></g><g><path d="M56.3,50.6c0,1.6-2.4,3.5-2.4,3.5s1.3,0.4,1.4,1.2c0.8-0.8,1.9-2.2,1.5-3.2C56.5,51.6,56.3,51.1,56.3,50.6 z" class="st3"/></g></g><g><g><ellipse cx="39.8" cy="41.5" class="st6" rx="5.6" ry="4.5" transform="matrix(0.8397 -0.543 0.543 0.8397 -16.1418 28.2853)"/></g><g><path d="M38.8,46.6c-1.1,0-2-0.3-2.8-0.8c-1-0.7-1.6-1.7-1.7-2.9c-0.3-2.7,2-5.5,5.1-6.3c1.6-0.4,3.2-0.2,4.4,0.6 c1,0.7,1.6,1.7,1.7,2.9c0.3,2.7-2,5.5-5.1,6.3C39.8,46.6,39.3,46.6,38.8,46.6z M40.9,37c-0.5,0-0.9,0.1-1.4,0.2 c-2.8,0.7-4.8,3.2-4.6,5.6c0.1,1,0.6,1.9,1.4,2.4c1,0.7,2.4,0.9,3.9,0.5c2.8-0.7,4.8-3.2,4.6-5.6c-0.1-1-0.6-1.9-1.4-2.4 C42.7,37.2,41.8,37,40.9,37z" class="st3"/></g><g><g><path d="M38.1,43.6c0,0.1,0.1,0.2,0.1,0.3c0,0.1,0,0.2,0,0.3c0,0.1-0.1,0.2-0.3,0.2c-0.1,0-0.2-0.1-0.2-0.3 c0,0,0,0,0-0.1c0-0.1,0.1-0.2,0.1-0.2C38,43.7,38,43.7,38.1,43.6z" class="st7"/></g><g><path d="M37.3,42.9c0,0.1,0,0.2-0.1,0.3c0,0.1-0.1,0.2-0.1,0.3c-0.1,0.1-0.2,0.1-0.3,0.1s-0.1-0.2-0.1-0.3 c0,0,0,0,0,0c0.1-0.1,0.2-0.1,0.2-0.1C37.2,43,37.2,42.9,37.3,42.9z" class="st7"/></g><g><path d="M37.1,41.8C37.1,41.9,37,42,37,42c-0.1,0.1-0.1,0.1-0.2,0.2c-0.1,0.1-0.3,0-0.3-0.1 c-0.1-0.1,0-0.3,0.1-0.3c0,0,0,0,0.1,0c0.1,0,0.2,0,0.3,0C37,41.8,37.1,41.8,37.1,41.8z" class="st7"/></g><g><path d="M37.6,40.7c-0.1,0-0.2,0-0.3,0.1c-0.1,0-0.2,0-0.2,0c-0.1,0-0.2-0.2-0.2-0.3c0-0.1,0.2-0.2,0.3-0.2 c0,0,0,0,0.1,0c0.1,0,0.1,0.1,0.2,0.2C37.5,40.6,37.5,40.6,37.6,40.7z" class="st7"/></g><g><path d="M38.5,40c-0.1,0-0.2-0.1-0.2-0.1c-0.1,0-0.1-0.1-0.2-0.2c-0.1-0.1-0.1-0.3,0-0.3c0.1-0.1,0.3-0.1,0.3,0 c0,0,0,0,0,0.1c0,0.1,0,0.2,0,0.2C38.5,39.8,38.5,39.9,38.5,40z" class="st7"/></g></g><g><g><path d="M41.9,42.6c0.1,0,0.2,0.1,0.2,0.2c0.1,0.1,0.1,0.1,0.2,0.2c0.1,0.1,0,0.3-0.1,0.3c-0.1,0.1-0.3,0-0.3-0.1 c0,0,0,0,0-0.1c0-0.1,0-0.2,0-0.3C41.9,42.8,41.9,42.7,41.9,42.6z" class="st7"/></g><g><path d="M42.5,41.6c0.1,0,0.2,0,0.3,0c0.1,0,0.2,0,0.2,0c0.1,0,0.2,0.2,0.2,0.3c0,0.1-0.2,0.2-0.3,0.2 c0,0,0,0-0.1,0c-0.1,0-0.1-0.1-0.2-0.2C42.5,41.7,42.5,41.6,42.5,41.6z" class="st7"/></g><g><path d="M42.5,40.4c0.1-0.1,0.1-0.1,0.2-0.2c0.1-0.1,0.1-0.1,0.2-0.1c0.1,0,0.3,0,0.3,0.1c0,0.1,0,0.3-0.1,0.3 c0,0,0,0-0.1,0c-0.1,0-0.2,0-0.2,0C42.6,40.5,42.5,40.5,42.5,40.4z" class="st7"/></g><g><path d="M41.9,39.5c0-0.1,0-0.2,0.1-0.3c0-0.1,0.1-0.2,0.1-0.2c0.1-0.1,0.2-0.1,0.3-0.1c0.1,0.1,0.1,0.2,0.1,0.3 c0,0,0,0,0,0c-0.1,0.1-0.2,0.1-0.2,0.1C42.1,39.5,42,39.5,41.9,39.5z" class="st7"/></g><g><path d="M40.9,39.3c0-0.1-0.1-0.2-0.1-0.3c0-0.1,0-0.2,0-0.3c0-0.1,0.1-0.2,0.3-0.2c0.1,0,0.2,0.1,0.2,0.3 c0,0,0,0,0,0.1c0,0.1-0.1,0.2-0.2,0.2C41,39.1,41,39.2,40.9,39.3z" class="st7"/></g></g></g><g><g><ellipse cx="28.2" cy="53.5" class="st6" rx="5.2" ry="4.2" transform="matrix(0.8397 -0.543 0.543 0.8397 -24.5462 23.8918)"/></g><g><path d="M27.2,58.4c-1,0-1.9-0.3-2.7-0.8c-0.9-0.6-1.5-1.6-1.6-2.7c-0.2-2.5,1.9-5.2,4.8-6 c1.5-0.4,3.1-0.2,4.2,0.6c0.9,0.6,1.5,1.6,1.6,2.7l0,0c0.2,2.5-1.9,5.2-4.8,6C28.2,58.3,27.7,58.4,27.2,58.4z M29.2,49.4 c-0.4,0-0.9,0.1-1.3,0.2c-2.6,0.7-4.5,3-4.3,5.2c0.1,0.9,0.5,1.7,1.3,2.3c0.9,0.7,2.3,0.8,3.6,0.5c2.6-0.7,4.5-3,4.3-5.2l0,0 c-0.1-0.9-0.5-1.7-1.3-2.3C30.9,49.6,30.1,49.4,29.2,49.4z" class="st3"/></g><g><g><path d="M27,55.6c0.1,0.1,0.1,0.2,0.1,0.2c0,0.1,0.1,0.2,0.1,0.2c0,0.1-0.1,0.2-0.2,0.2c-0.1,0-0.2-0.1-0.2-0.2 c0,0,0,0,0,0c0-0.1,0-0.2,0.1-0.2C27,55.8,27,55.7,27,55.6z" class="st7"/></g><g><path d="M26.2,55.2c0,0.1,0,0.2,0,0.3c0,0.1,0,0.2,0,0.3c0,0.1-0.1,0.2-0.2,0.1c-0.1,0-0.2-0.1-0.1-0.2 c0,0,0,0,0,0c0-0.1,0.1-0.1,0.2-0.2C26,55.4,26.1,55.3,26.2,55.2z" class="st7"/></g><g><path d="M25.7,54.4c0,0.1-0.1,0.2-0.1,0.2c0,0.1-0.1,0.1-0.2,0.2c-0.1,0.1-0.2,0.1-0.3,0c-0.1-0.1-0.1-0.2,0-0.3 c0,0,0,0,0,0c0.1,0,0.2-0.1,0.2-0.1C25.5,54.4,25.6,54.4,25.7,54.4z" class="st7"/></g><g><path d="M25.8,53.3c-0.1,0-0.1,0.1-0.2,0.1c-0.1,0-0.1,0.1-0.2,0.1c-0.1,0-0.2-0.1-0.2-0.2c0-0.1,0.1-0.2,0.2-0.2 c0,0,0,0,0.1,0c0.1,0,0.1,0,0.2,0.1C25.7,53.2,25.7,53.3,25.8,53.3z" class="st7"/></g><g><path d="M26.4,52.4c-0.1,0-0.2,0-0.2-0.1c-0.1,0-0.1,0-0.2-0.1c-0.1-0.1-0.1-0.2-0.1-0.3s0.2-0.1,0.3-0.1 c0,0,0,0,0,0c0,0.1,0.1,0.1,0.1,0.2C26.4,52.2,26.4,52.3,26.4,52.4z" class="st7"/></g></g><g><g><path d="M30.1,54.6c0.1,0,0.1,0.1,0.2,0.2c0.1,0.1,0.1,0.1,0.2,0.2c0.1,0.1,0,0.2-0.1,0.3c-0.1,0.1-0.2,0-0.3-0.1 c0,0,0,0,0,0c0-0.1,0-0.2,0-0.2C30.1,54.7,30.1,54.7,30.1,54.6z" class="st7"/></g><g><path d="M30.7,53.6c0.1,0,0.2,0,0.2,0c0.1,0,0.2,0,0.2,0c0.1,0,0.2,0.1,0.1,0.2c0,0.1-0.1,0.2-0.2,0.1 c0,0,0,0,0,0c-0.1,0-0.1-0.1-0.2-0.2C30.7,53.7,30.7,53.7,30.7,53.6z" class="st7"/></g><g><path d="M30.6,52.5c0.1-0.1,0.1-0.1,0.2-0.2c0.1,0,0.1-0.1,0.2-0.1c0.1,0,0.2,0,0.2,0.1c0,0.1,0,0.2-0.1,0.2 c0,0,0,0,0,0c-0.1,0-0.2,0-0.2,0C30.8,52.6,30.7,52.6,30.6,52.5z" class="st7"/></g><g><path d="M30.1,51.7c0-0.1,0-0.2,0.1-0.3c0-0.1,0.1-0.2,0.1-0.2c0.1-0.1,0.2-0.1,0.3,0c0.1,0.1,0.1,0.2,0,0.3 c0,0,0,0,0,0c-0.1,0.1-0.1,0.1-0.2,0.1C30.3,51.7,30.2,51.7,30.1,51.7z" class="st7"/></g><g><path d="M29.2,51.5c0-0.1,0-0.2-0.1-0.3c0-0.1,0-0.2,0-0.3c0-0.1,0.1-0.2,0.2-0.2s0.2,0.1,0.2,0.2c0,0,0,0,0,0 c0,0.1-0.1,0.1-0.1,0.2C29.3,51.3,29.2,51.4,29.2,51.5z" class="st7"/></g></g></g><g><g><g><path d="M18.7,58.2c0,0-0.1,0-0.1,0c-0.1,0-0.2-0.1-0.2-0.2c-0.5-1.6-0.9-3.2-0.2-4.3c0.5-0.8,1.5-1.1,3.1-1.2 c0.1,0,0.2,0.1,0.3,0.2c0.4,0.9,0.5,1.8,0.2,2.6c-0.4,1.1-1.4,2.1-3,2.8C18.8,58.2,18.8,58.2,18.7,58.2z M21.1,53.2 c-1.2,0.1-1.9,0.3-2.3,0.9c-0.5,0.8-0.3,2.1,0.1,3.3c1.2-0.6,2-1.4,2.3-2.3C21.4,54.5,21.4,53.8,21.1,53.2z" class="st8"/></g><g><path d="M21.4,53.2c-0.2,0.1-0.5,0.2-0.7,0.4c-0.2,0.2-0.4,0.4-0.6,0.6c-0.4,0.5-0.7,1-0.9,1.6 c0-0.3,0-0.6,0.1-0.9c0.1-0.3,0.2-0.6,0.3-0.9c0.2-0.3,0.3-0.6,0.6-0.8c0.2-0.2,0.6-0.4,0.9-0.5c0.2,0,0.4,0.1,0.4,0.2 C21.7,52.9,21.6,53.1,21.4,53.2L21.4,53.2z" class="st9"/></g></g><g><g><path d="M31.7,46.6c-1.3,0-2.5-0.3-3.2-1c-0.7-0.6-1.1-1.4-1.1-2.4c0-0.1,0.1-0.3,0.2-0.3 c1.3-0.7,2.4-0.9,3.2-0.5c1.2,0.6,1.7,2.2,2,3.8c0,0.1,0,0.2-0.1,0.3c-0.1,0.1-0.1,0.1-0.2,0.1C32.3,46.6,32,46.6,31.7,46.6z M28.1,43.4c0.1,0.7,0.4,1.3,0.9,1.7c0.7,0.6,1.8,0.9,3.1,0.8c-0.3-1.3-0.7-2.6-1.5-2.9C29.9,42.7,29.1,42.8,28.1,43.4z" class="st8"/></g><g><path d="M27.7,42.8c0.4-0.1,0.7-0.1,1.1,0c0.3,0.1,0.6,0.2,0.9,0.4c0.3,0.2,0.5,0.4,0.8,0.6 c0.2,0.2,0.4,0.5,0.6,0.8c-0.5-0.4-1-0.7-1.6-0.9c-0.3-0.1-0.5-0.2-0.8-0.2c-0.3,0-0.5,0-0.8,0l0,0c-0.2,0-0.3-0.1-0.4-0.3 C27.4,43,27.5,42.9,27.7,42.8z" class="st9"/></g></g><g><g><path d="M38.8,56.6c-0.7,0-1.4-0.1-2.2-0.4c-0.1,0-0.1-0.1-0.2-0.2c0-0.1,0-0.2,0-0.3c0.7-1.4,1.5-2.7,2.7-2.9 c0.8-0.1,1.8,0.3,2.8,1.3c0.1,0.1,0.1,0.2,0.1,0.3c-0.3,0.9-0.8,1.5-1.6,1.9C40,56.5,39.4,56.6,38.8,56.6z M37.1,55.7 c1.2,0.4,2.2,0.4,3,0c0.5-0.3,0.9-0.7,1.2-1.3c-0.8-0.7-1.5-1.1-2.1-1C38.4,53.6,37.7,54.6,37.1,55.7z" class="st8"/></g><g><path d="M41.6,54.6c-0.2-0.1-0.5-0.1-0.7-0.2c-0.3,0-0.5,0-0.8,0c-0.5,0.1-1.1,0.2-1.6,0.4 c0.2-0.2,0.5-0.4,0.7-0.5c0.3-0.1,0.5-0.3,0.8-0.4c0.3-0.1,0.6-0.2,0.9-0.1c0.3,0,0.7,0.1,1,0.3c0.1,0.1,0.2,0.3,0.1,0.4 C41.9,54.6,41.7,54.7,41.6,54.6L41.6,54.6z" class="st9"/></g></g><g><g><path d="M16,61.7c-0.1,0-0.3,0-0.4-0.1c0,0-0.1-0.1-0.1-0.1c0,0-0.1-0.1-0.3-0.2c-0.1-0.1-0.3-0.1-0.4-0.2 c-0.2-0.1-0.3-0.1-0.5-0.1c-0.2,0-0.3-0.1-0.5-0.1c-0.2,0-0.3-0.1-0.4-0.2s-0.1-0.3-0.1-0.4c0.1-0.3,0.3-0.5,0.6-0.5l0,0 c0.2,0,0.4,0,0.6,0c0.2,0,0.4,0,0.6,0.1c0.2,0,0.4,0.1,0.6,0.1c0.2,0.1,0.4,0.1,0.7,0.3l0,0c0.3,0.2,0.5,0.7,0.2,1 C16.5,61.6,16.3,61.7,16,61.7z M13.9,60.3C13.9,60.3,13.9,60.3,13.9,60.3C13.9,60.3,13.9,60.3,13.9,60.3 C13.9,60.4,13.9,60.4,13.9,60.3c0.2,0.1,0.3,0.2,0.5,0.2c0.2,0,0.3,0.1,0.5,0.2c0.2,0.1,0.3,0.1,0.5,0.2 c0.2,0.1,0.3,0.2,0.4,0.3c0,0,0,0,0,0c0.1,0.1,0.2,0,0.3-0.1c0.1-0.1,0-0.2-0.1-0.3l0,0c-0.2-0.1-0.3-0.2-0.5-0.2 c-0.2,0-0.3-0.1-0.5-0.1c-0.2,0-0.4-0.1-0.5-0.1C14.3,60.3,14.1,60.3,13.9,60.3C13.9,60.3,13.9,60.3,13.9,60.3z" class="st8"/></g><g><g><path d="M12.2,62.1c-2,0-3.9-2.1-4-2.2c-0.1-0.1-0.1-0.1-0.1-0.2c0-0.1,0.1-0.1,0.1-0.2c0.1-0.1,2.8-1.8,4.8-1.1 c0.8,0.3,1.3,1,1.6,2c0,0.1,0,0.1,0,0.2c-0.5,0.9-1.2,1.4-2.1,1.5C12.4,62.1,12.3,62.1,12.2,62.1z M8.8,59.7 c0.6,0.6,2.2,2,3.6,1.8c0.6-0.1,1.2-0.5,1.6-1.2c-0.2-0.8-0.7-1.3-1.3-1.5C11.5,58.3,9.6,59.3,8.8,59.7z" class="st8"/></g><g><g><line x1="14.4" x2="11.3" y1="60.4" y2="60" class="st10"/></g><g><path d="M14.3,60.7c-0.3,0-0.5,0-0.8-0.1c-0.3,0-0.5-0.1-0.8-0.2c-0.5-0.1-1-0.2-1.5-0.4c0.5,0,1,0,1.6,0 c0.3,0,0.5,0,0.8,0c0.3,0,0.5,0.1,0.8,0.1c0.1,0,0.2,0.2,0.2,0.3C14.6,60.6,14.5,60.7,14.3,60.7z" class="st9"/></g></g></g><g><path d="M12.1,62.1c0.3-0.3,0.7-0.6,1-0.9c0.4-0.3,0.7-0.6,1.1-0.9c0.1-0.1,0.3-0.1,0.4,0c0.1,0.1,0.1,0.3,0,0.4 c0,0,0,0,0,0l0,0c-0.4,0.2-0.8,0.4-1.2,0.6C12.9,61.6,12.5,61.8,12.1,62.1z" class="st8"/></g><g><g><path d="M11.6,64.8c-0.1,0-0.1,0-0.2-0.1c-0.1-0.1-0.1-0.1-0.1-0.2c0.6-4.2,3-4.4,3.1-4.4c0.1,0,0.2,0,0.2,0.1 c0.5,0.7,0.6,1.3,0.4,2C14.5,63.9,11.8,64.8,11.6,64.8C11.6,64.8,11.6,64.8,11.6,64.8z M14.3,60.7c-0.5,0.1-1.9,0.6-2.4,3.4 c0.7-0.3,2.3-1,2.6-2.1C14.6,61.7,14.6,61.2,14.3,60.7z" class="st8"/></g><g><path d="M13.1,62.2c0.2-0.3,0.3-0.6,0.5-1c0.2-0.3,0.4-0.6,0.6-1c0.1-0.1,0.3-0.2,0.4-0.1 c0.1,0.1,0.2,0.3,0.1,0.4c0,0,0,0,0,0.1c-0.3,0.2-0.5,0.5-0.8,0.8C13.6,61.6,13.3,61.9,13.1,62.2z" class="st8"/></g></g><g><g><path d="M14.4,60.7C14.3,60.7,14.3,60.7,14.4,60.7c-0.2-0.1-2.4-1-1.7-5.1c0-0.1,0.1-0.2,0.2-0.2s0.2,0,0.3,0 c0.1,0.1,2.4,1.7,2.4,3.5c0,0.7-0.3,1.3-1,1.8C14.5,60.7,14.4,60.7,14.4,60.7z M13.1,56.1c-0.4,2.8,0.8,3.8,1.2,4 c0.4-0.4,0.6-0.8,0.6-1.2C15,57.8,13.8,56.6,13.1,56.1z" class="st8"/></g><g><path d="M13.7,58.4c0.1,0.3,0.3,0.7,0.5,1c0.2,0.3,0.3,0.7,0.5,1c0.1,0.1,0,0.3-0.1,0.4c-0.1,0.1-0.3,0-0.4-0.1 c0,0,0,0,0-0.1c-0.1-0.4-0.2-0.7-0.3-1.1C13.8,59.1,13.7,58.7,13.7,58.4z" class="st8"/></g></g></g></g><g><path d="M10.3,71.3C10.3,71.3,10.3,71.3,10.3,71.3C10.3,71.3,10.4,71.3,10.3,71.3c0.1,0.1,0.2,0.1,0.3,0.1 c0.2,0,0.4-0.1,0.7-0.2c0.4-0.2,0.9-0.4,1.3-0.7c0.9-0.5,1.7-1.1,2.5-1.8c0.8-0.6,1.6-1.3,2.4-2c0.2-0.2,0.4-0.3,0.6-0.5 c0.2-0.2,0.4-0.3,0.6-0.5c0.1-0.1,0.2-0.2,0.3-0.3l0.3-0.2l0.2-0.1l0.2-0.1l0.3-0.2c1.7-1.2,3.6-2.1,5.6-2.8c1-0.3,2-0.6,3-0.9 c1-0.3,2-0.5,3-0.6c-2,0.4-4,1-5.9,1.7c-1,0.4-1.9,0.8-2.8,1.3c-0.9,0.5-1.8,1-2.6,1.6l-0.3,0.2l-0.2,0.1l-0.1,0.1l-0.3,0.2 C19.1,65.8,19,65.9,19,66c-0.2,0.2-0.4,0.4-0.6,0.5c-0.2,0.2-0.4,0.4-0.6,0.5c-0.8,0.7-1.5,1.4-2.4,2c-0.8,0.7-1.6,1.3-2.5,1.8 c-0.4,0.3-0.9,0.6-1.4,0.8c-0.3,0.1-0.5,0.2-0.8,0.3c-0.2,0-0.3,0-0.5,0c-0.1,0-0.2-0.1-0.3-0.1c-0.1-0.1-0.2-0.2-0.2-0.2 c-0.1-0.2,0-0.4,0.1-0.5C10,71,10.2,71.1,10.3,71.3L10.3,71.3z" class="st3"/></g><g><g class="st5"><ellipse cx="49.2" cy="55.4" class="st3" rx=".5" ry=".4" transform="matrix(0.968 -0.2508 0.2508 0.968 -12.3276 14.1164)"/></g><g class="st5"><ellipse cx="46.8" cy="54.1" class="st3" rx=".9" ry=".6" transform="matrix(0.968 -0.2508 0.2508 0.968 -12.0628 13.4531)"/></g><g class="st5"><ellipse cx="41.2" cy="50.3" class="st3" rx=".7" ry=".5" transform="matrix(0.9355 -0.3532 0.3532 0.9355 -15.1229 17.7887)"/></g><g class="st5"><ellipse cx="47.6" cy="43.8" class="st3" rx=".5" ry=".4" transform="matrix(0.9355 -0.3532 0.3532 0.9355 -12.4094 19.6446)"/></g><g class="st5"><ellipse cx="48.5" cy="48.7" class="st3" rx=".5" ry=".4" transform="matrix(0.9355 -0.3532 0.3532 0.9355 -14.0784 20.2586)"/></g><g class="st5"><path d="M43.4,47c0.1,0.2-0.1,0.4-0.3,0.5c-0.2,0.1-0.5,0-0.5-0.2c-0.1-0.2,0.1-0.4,0.3-0.5 C43.1,46.8,43.3,46.8,43.4,47z" class="st3"/></g><g class="st5"><ellipse cx="35.5" cy="53.2" class="st3" rx=".5" ry=".4" transform="matrix(0.8111 -0.5849 0.5849 0.8111 -24.4356 30.8117)"/></g><g class="st5"><ellipse cx="36.6" cy="48.6" class="st3" rx=".5" ry=".4" transform="matrix(0.8111 -0.5849 0.5849 0.8111 -21.5188 30.5687)"/></g><g class="st5"><ellipse cx="21.8" cy="60.8" class="st3" rx=".6" ry=".5" transform="matrix(0.8111 -0.5849 0.5849 0.8111 -31.466 24.268)"/></g><g class="st5"><ellipse cx="22.2" cy="57.5" class="st3" rx=".5" ry=".4" transform="matrix(0.8111 -0.5849 0.5849 0.8111 -29.422 23.809)"/></g><g class="st5"><ellipse cx="17" cy="64.1" class="st3" rx=".4" ry=".3" transform="matrix(0.8111 -0.5849 0.5849 0.8111 -34.284 22.0441)"/></g><g class="st5"><ellipse cx="22.3" cy="51.3" class="st3" rx=".5" ry=".4" transform="matrix(0.8111 -0.5849 0.5849 0.8111 -25.7713 22.7069)"/></g><g class="st5"><ellipse cx="27" cy="47.9" class="st3" rx=".7" ry=".6" transform="matrix(0.8111 -0.5849 0.5849 0.8111 -22.8961 24.8254)"/></g></g><g><g><g><g><path d="M53.9,56.4c-0.7,3.8,8.1,4.5,8.1,4.5s5.6-13-3.4-24.1s-21.2-9.4-22.5-6.8c-1.3,2.6,1.3,3.8,1.3,3.8 S57.6,35.5,53.9,56.4z" class="st11"/></g><g><path d="M62,61.3C62,61.3,62,61.3,62,61.3c-0.3,0-6.1-0.5-8-2.8c-0.5-0.6-0.7-1.3-0.5-2.1 c1.1-6.2,0.1-11.3-2.8-15.1C46,35,37.4,34.2,37.4,34.1c0,0-0.1,0-0.1,0c-0.1,0-1.3-0.6-1.8-1.9c-0.3-0.8-0.2-1.6,0.3-2.5 c0.5-1,2.3-1.8,4.6-2.1c5.1-0.5,12.6,1.5,18.5,8.8c4.7,5.8,5.4,12.2,5.2,16.5c-0.3,4.7-1.6,7.9-1.7,8 C62.3,61.2,62.2,61.3,62,61.3z M53.9,56.4l0.4,0.1c-0.1,0.5,0,1,0.4,1.5c1.4,1.8,5.9,2.4,7.1,2.5c0.3-0.9,1.3-3.7,1.5-7.5 c0.2-4.2-0.4-10.3-5-15.9c-5.7-7.1-13-9-17.9-8.5c-2.3,0.2-3.7,1-4,1.7c-0.3,0.7-0.4,1.3-0.2,1.9c0.3,0.8,1.1,1.3,1.3,1.4 c0.4,0,2.4,0.3,5,1.2c2.6,0.9,6.2,2.7,8.8,6.1c3.1,4,4.1,9.3,2.9,15.7L53.9,56.4z" class="st3"/></g></g><g><path d="M62,60.9c0,0-1.7,1.9-5.1,0.9c-3.4-1.1-4.2-3.4-3-5.4C55.1,54.5,64.4,56.9,62,60.9z" class="st12"/></g><g><path d="M58.9,62.5c-0.6,0-1.3-0.1-2.1-0.3c-2.3-0.7-3.2-1.9-3.6-2.8c-0.4-1-0.2-2.1,0.4-3.1 c0.5-0.8,1.6-0.9,2.5-0.9c2.3,0.1,5.4,1.2,6.4,3c0.5,0.9,0.4,1.8-0.1,2.7c0,0,0,0,0,0.1C62.2,61.2,61.1,62.5,58.9,62.5z M55.9,56.1c-0.9,0-1.5,0.2-1.7,0.5c-0.5,0.8-0.6,1.6-0.3,2.4c0.4,1,1.5,1.9,3.1,2.4c2.9,0.9,4.5-0.5,4.7-0.8 c0.4-0.7,0.4-1.3,0.1-1.9c-0.8-1.5-3.6-2.6-5.7-2.6C56,56.1,56,56.1,55.9,56.1z M62,60.9L62,60.9L62,60.9z" class="st3"/></g></g><g><g><path d="M42.2,32.1c-0.1-0.2-0.1-0.4-0.1-0.5c0-0.2,0-0.4,0.1-0.6c0.1-0.2,0.2-0.3,0.3-0.5 c0.1-0.1,0.3-0.2,0.5-0.3c-0.1,0.2-0.2,0.3-0.3,0.5c-0.1,0.1-0.2,0.3-0.2,0.4c-0.1,0.1-0.1,0.3-0.2,0.5 C42.3,31.8,42.2,31.9,42.2,32.1z" class="st13"/></g><g><path d="M43.2,32.8c-0.1-0.2,0-0.5,0-0.8c0-0.3,0.1-0.5,0.3-0.7c0.1-0.2,0.3-0.4,0.5-0.6c0.1,0,0.1-0.1,0.2-0.1 c0.1,0,0.1-0.1,0.2-0.1c0.1,0,0.1-0.1,0.2-0.1c0.1,0,0.1,0,0.2,0c-0.2,0.2-0.3,0.4-0.5,0.5c-0.1,0.2-0.3,0.4-0.4,0.6 c-0.1,0.2-0.2,0.4-0.3,0.6C43.3,32.3,43.3,32.5,43.2,32.8z" class="st13"/></g></g><g><g><path d="M57.5,49.1c0.2-0.2,0.5-0.3,0.7-0.4c0.3-0.1,0.5-0.1,0.8-0.1c0.3,0,0.6,0.1,0.8,0.2 c0.1,0,0.1,0.1,0.2,0.1c0.1,0,0.1,0.1,0.2,0.1c0.1,0,0.1,0.1,0.2,0.1c0,0,0.1,0.1,0.1,0.2c-0.3-0.1-0.5-0.2-0.7-0.2 c-0.2-0.1-0.5-0.1-0.7-0.1c-0.2,0-0.5,0-0.8,0C58.1,49.1,57.8,49.1,57.5,49.1z" class="st13"/></g><g><path d="M57.1,50.9c0.3-0.2,0.7-0.3,1.1-0.3c0.4-0.1,0.8-0.1,1.1,0c0.1,0,0.2,0,0.3,0.1c0.1,0,0.2,0.1,0.3,0.1 c0.1,0,0.2,0.1,0.3,0.1l0.1,0.1l0.1,0.1c0.1,0,0.2,0.1,0.2,0.1c0.1,0.1,0.1,0.1,0.2,0.2c0,0,0.1,0.1,0.1,0.1l0.1,0.1 c0.1,0.1,0.1,0.1,0.2,0.2c-0.3-0.2-0.6-0.4-1-0.5l-0.1-0.1l-0.1,0c-0.1,0-0.2-0.1-0.3-0.1c-0.1,0-0.2,0-0.3-0.1 c-0.1,0-0.2,0-0.3-0.1c-0.3-0.1-0.7-0.1-1.1-0.1C57.8,50.9,57.5,50.9,57.1,50.9z" class="st13"/></g></g></g><g><g><path d="M49.6,50.8c-1.2,0-2.1-0.3-2.8-0.9c-0.6-0.5-0.9-1.2-1-2.1c0-0.1,0.1-0.2,0.1-0.3c1.2-0.6,2.1-0.8,2.8-0.5 c1,0.5,1.4,1.9,1.7,3.3c0,0.1,0,0.2-0.1,0.2c0,0.1-0.1,0.1-0.2,0.1C50.1,50.8,49.8,50.8,49.6,50.8z M46.5,48 c0.1,0.6,0.3,1.1,0.7,1.5c0.6,0.5,1.6,0.8,2.7,0.7c-0.2-1.1-0.6-2.2-1.3-2.5C48.1,47.4,47.4,47.5,46.5,48z" class="st8"/></g><g><path d="M46.1,47.6c0.3-0.1,0.6-0.1,0.9,0c0.3,0.1,0.6,0.2,0.8,0.4c0.2,0.2,0.5,0.3,0.7,0.5 c0.2,0.2,0.4,0.4,0.5,0.7c-0.4-0.3-0.9-0.6-1.4-0.8c-0.2-0.1-0.5-0.1-0.7-0.2c-0.2,0-0.5,0-0.7,0l0,0c-0.2,0-0.3-0.1-0.3-0.3 C45.9,47.7,46,47.6,46.1,47.6z" class="st9"/></g></g></g></g><g><path d="M30.2,23.1v-0.6c0-0.8,0.2-1.5,0.5-2.1c0.4-0.6,0.8-1.1,1.4-1.7c0.5-0.5,1-0.9,1.6-1.4 c0.5-0.4,1-0.8,1.3-1.2c0.3-0.4,0.5-0.9,0.5-1.5c0-0.8-0.3-1.4-0.9-1.7c-0.6-0.4-1.5-0.5-2.9-0.5c-0.9,0-1.8,0.1-2.6,0.3 c-0.9,0.2-1.6,0.5-2.2,0.8V9.2c0.8-0.4,1.7-0.7,2.8-0.9C30.8,8.1,32,8,33.2,8c2.4,0,4.3,0.5,5.6,1.6c1.3,1.1,1.9,2.5,1.9,4.4 c0,1.2-0.2,2.1-0.7,2.9c-0.5,0.7-1.2,1.5-2.1,2.2l-2,1.7c-0.5,0.5-0.8,1.1-0.8,1.9v0.4L30.2,23.1L30.2,23.1z M30,28.7V25h5.3v3.7 C35.4,28.7,30,28.7,30,28.7z" class="st14"/></g></g><path d="M64,33l-2-0.1l0-0.9l0-0.9l2-0.1l0,1L64,33z M63.9,29.1l-2,0.2l-0.2-1.8l2-0.3L63.9,29.1z M63.3,25.3l-2,0.4	l-0.4-1.8l1.9-0.5L63.3,25.3L63.3,25.3z M62.3,21.6l-1.9,0.7l-0.6-1.7l1.8-0.8L62.3,21.6L62.3,21.6z M60.8,18L59,18.9l-0.8-1.6	l1.7-1L60.8,18L60.8,18z M58.9,14.6l-1.7,1.1l-1-1.5l1.6-1.2L58.9,14.6L58.9,14.6z M56.6,11.5L55,12.8l-1.2-1.4l1.5-1.4L56.6,11.5	L56.6,11.5z M53.9,8.7l-1.4,1.5L51.2,9l1.3-1.5L53.9,8.7z M51,6.2l-1.2,1.6l-1.5-1l1.1-1.7L51,6.2L51,6.2z M47.7,4.1l-1,1.7L45.1,5	L46,3.2L47.7,4.1L47.7,4.1z M44.2,2.4l-0.8,1.8l-1.7-0.6l0.7-1.9L44.2,2.4z M40.6,1.2l-0.5,1.9l-1.8-0.4l0.4-2L40.6,1.2L40.6,1.2z M36.8,0.4l-0.3,2l-1.8-0.2l0.2-2L36.8,0.4L36.8,0.4z M33,0l-1,0l-1,0l0.1,2L32,2l0.9,0C32.9,2,33,0,33,0z M29.1,0.1l0.2,2l-1.8,0.2	l-0.3-2C27.2,0.4,29.1,0.1,29.1,0.1z M25.3,0.7l0.4,2l-1.8,0.4l-0.5-1.9L25.3,0.7L25.3,0.7z M21.6,1.7l0.7,1.9l-1.7,0.6l-0.8-1.8	C19.8,2.4,21.6,1.7,21.6,1.7z M18,3.2L18.9,5l-1.6,0.8l-1-1.7L18,3.2L18,3.2z M14.6,5.1l1.1,1.7l-1.5,1L13,6.2L14.6,5.1L14.6,5.1z M11.5,7.4L12.8,9l-1.4,1.2l-1.4-1.5L11.5,7.4L11.5,7.4z M8.7,10.1l1.5,1.4L9,12.8l-1.5-1.3L8.7,10.1z M6.2,13l1.6,1.2l-1,1.5	l-1.7-1.1L6.2,13L6.2,13z M4.1,16.3l1.7,1L5,18.9L3.2,18L4.1,16.3L4.1,16.3z M2.4,19.8l1.8,0.8l-0.6,1.7l-1.9-0.7	C1.7,21.6,2.4,19.8,2.4,19.8z M1.2,23.4l1.9,0.5l-0.4,1.8l-2-0.4L1.2,23.4L1.2,23.4z M0.4,27.2l2,0.3l-0.2,1.8l-2-0.2	C0.1,29.1,0.4,27.2,0.4,27.2z M0,31l0,1l0,1l2-0.1L2,32l0-0.9C2,31.1,0,31,0,31z M0.1,34.9l2-0.2l0.2,1.8l-2,0.3L0.1,34.9L0.1,34.9z M0.7,38.7l2-0.4l0.4,1.8l-1.9,0.5L0.7,38.7L0.7,38.7z M1.7,42.4l1.9-0.7l0.6,1.7l-1.8,0.8C2.4,44.2,1.7,42.4,1.7,42.4z M3.2,46	L5,45.1l0.8,1.6l-1.7,1L3.2,46L3.2,46z M5.1,49.4l1.7-1.1l1,1.5L6.2,51L5.1,49.4L5.1,49.4z M7.4,52.5L9,51.2l1.2,1.4l-1.5,1.4	L7.4,52.5L7.4,52.5z M10.1,55.3l1.4-1.5l1.4,1.2l-1.3,1.5L10.1,55.3L10.1,55.3z M13,57.8l1.2-1.6l1.5,1l-1.1,1.7L13,57.8L13,57.8z M16.3,59.9l1-1.7l1.6,0.8L18,60.8L16.3,59.9L16.3,59.9z M19.8,61.6l0.8-1.8l1.7,0.6l-0.7,1.9L19.8,61.6L19.8,61.6z M23.4,62.8	l0.5-1.9l1.8,0.4l-0.4,2L23.4,62.8L23.4,62.8z M27.2,63.6l0.3-2l1.8,0.2l-0.2,2L27.2,63.6z M31,64l0.1-2l0.9,0l0.9,0l0.1,2l-1,0	C31.7,64,31.4,64,31,64L31,64z M34.9,63.9l-0.2-2l1.8-0.2l0.3,2L34.9,63.9L34.9,63.9z M38.7,63.3l-0.4-2l1.8-0.4l0.5,1.9L38.7,63.3	L38.7,63.3z M42.4,62.3l-0.7-1.9l1.7-0.6l0.8,1.8L42.4,62.3L42.4,62.3z M46,60.8L45.1,59l1.6-0.8l1,1.7L46,60.8L46,60.8z M49.4,58.9	l-1.1-1.7l1.5-1l1.2,1.6L49.4,58.9L49.4,58.9z M52.5,56.6L51.2,55l1.4-1.2l1.4,1.5L52.5,56.6L52.5,56.6z M55.3,53.9l-1.5-1.4	l1.2-1.4l1.5,1.3L55.3,53.9L55.3,53.9z M57.8,51l-1.6-1.2l1-1.5l1.7,1.1L57.8,51L57.8,51z M59.9,47.7l-1.7-1l0.8-1.6l1.8,0.9	L59.9,47.7L59.9,47.7z M61.6,44.2l-1.8-0.8l0.6-1.7l1.9,0.7L61.6,44.2L61.6,44.2z M62.8,40.6l-1.9-0.5l0.4-1.8l2,0.4L62.8,40.6	L62.8,40.6z M63.6,36.8l-2-0.3l0.2-1.8l2,0.2L63.6,36.8L63.6,36.8z" class="st15"/></svg>