<svg xmlns="http://www.w3.org/2000/svg" xmlns:xlink="http://www.w3.org/1999/xlink" id="Layer_1" x="0" y="0" version="1.1" viewBox="0 0 128 128" xml:space="preserve" style="enable-background:new 0 0 128 128"><style type="text/css">.st0{fill:url(#SVGID_1_)}.st1{fill:#f2ce36}.st2,.st3,.st4{opacity:.15;fill:#fff;enable-background:new}.st3,.st4{opacity:.25;fill:#e2b440}.st4{opacity:.33}.st5{fill:#c67640}.st6{fill:#2a9e3a}.st7{fill:#3dad55}</style><linearGradient id="SVGID_1_" x1="64" x2="64" y1="2" y2="130" gradientTransform="matrix(1 0 0 -1 0 130)" gradientUnits="userSpaceOnUse"><stop offset="0" style="stop-color:#724d3d"/><stop offset="1" style="stop-color:#876553"/></linearGradient><circle cx="64" cy="64" r="64" class="st0"/><g><path d="M101.1,64.3c-1.1,5.9-4,11.5-6.9,16.8c-9.6,16-28,19.5-45.9,20c-4.8,0-9.9,0-14.4-1.6c-1.1-0.5-8.5-4-9.6-10.4 c-1.1-5.3,3.7-8.3,9.1-16.8c9.3-14.4,4.5-19.7,13.3-31.2c3.2-4.3,8.3-10.7,16.8-13.1c10.1-2.9,21.6,0.8,28.8,8 c6.4,6.1,10.4,17.9,9.1,26.4C101.3,63.2,101.3,63.7,101.1,64.3z" class="st1"/><path d="M81.3,42.7c-6.7,0.8-13.1,3.2-18.4,6.9c-1.9,1.3-4.3,2.7-6.4,1.3c-0.5-0.3-0.8-1.1-1.1-1.6 c-1.6-3.7,0.8-8,4-10.7c5.6-4.8,13.9-6.9,21.3-5.6C89.9,35.2,91.2,41.3,81.3,42.7z" class="st2"/><path d="M56.3,97.9c0.3,0,0.5-0.3,0.5-0.3c0.3-0.3,0-0.8,0-1.1c-1.1-1.9-3.5-2.1-5.3-2.1c-4.3-0.3-8.8-1.6-12.5-3.7 c-3.5-1.9-6.9-4.8-10.7-4.5c-0.5,0-0.8,0-1.3,0.3c-0.3,0.3-0.5,0.5-0.5,1.1c-0.5,1.9,0.3,4,1.6,5.3c1.3,1.3,2.9,2.1,4.8,2.9 C40.5,98.7,48.5,100.3,56.3,97.9z" class="st3"/><path d="M94.1,39.7c-0.3,0.3-0.3,0.8-0.5,1.1c0,1.1,0.8,2.9,1.3,3.7c0.3,0.5,1.1,1.1,1.6,1.1h0.3l0.3-0.3 c0.3-1.6-1.1-2.7-1.6-4.3c-0.3-0.3-0.3-0.8-0.5-1.1C94.9,39.5,94.4,39.5,94.1,39.7z" class="st4"/><path d="M94.9,41.3c0.5-1.1,2.9-2.1,4-1.1c0,0.3,0.3,0.3,0.3,0.5c0.3,0.3,0.3,0.8,0.3,1.1c-0.3,0.8-2.1,1.1-2.7,1.3 c-0.3,0-0.3,0.3-0.5,0.3c-0.3,0-0.5-0.3-0.5-0.3C94.9,42.4,94.7,41.9,94.9,41.3z" class="st5"/><g><path d="M92.5,49.1c-2.4,7.5-2.1,15.7,0.3,23.5s6.4,14.9,11.2,21.3c-1.6-8.5,0-17.6,0.3-26.1 c0.3-5.9-0.3-12.3-2.7-17.9c-0.5-1.3-2.7-6.9-4.5-6.9C94.7,42.4,92.8,47.5,92.5,49.1z" class="st6"/><path d="M96.8,42.7c-1.9-1.1-4,5.3-4.3,6.4c-2.4,7.5-2.1,15.7,0.3,23.5c2.1,7.5,6.1,14.9,10.9,21.1 c-1.1-1.3-1.1-3.2-1.6-4.8c-0.5-1.9-1.3-3.7-1.9-5.3c-2.7-8.5-3.2-17.9-2.7-26.7c0.3-2.4,0.5-4.8,0.5-6.9c0-1.3,0-2.4-0.3-3.7 C97.6,45.6,97.3,43.2,96.8,42.7L96.8,42.7z" class="st7"/></g></g></svg>