<svg xmlns="http://www.w3.org/2000/svg" xmlns:v="https://vecta.io/nano" xmlns:xlink="http://www.w3.org/1999/xlink" id="Layer_1" x="0" y="0" version="1.1" viewBox="0 0 437 112" xml:space="preserve" style="enable-background:new 0 0 437 112"><style type="text/css">.st0{clip-path:url(#SVGID_2_);fill:#fff}.st1{fill:url(#SVGID_3_)}.st2{fill:#00b77e}.st3{fill:#00846c}.st4{fill:#55ce5a}.st5{fill:#73d861}.st6{fill:#29a868}.st7{fill:#127f5b}.st8{fill:#49270f}.st9{fill:#f9d641}.st10{fill:#eaa11f}.st11{fill:#fff1b6}.st12{fill:#f2ce36}.st13,.st14,.st15{opacity:.15;fill:#fff;enable-background:new}.st14,.st15{opacity:.25;fill:#e2b440}.st15{opacity:.33}.st16{fill:#c67640}.st17{fill:#2a9e3a}.st18{fill:#3dad55}.st19{fill:#876553}.st20{fill:#724d3d}.st21{fill:#fff}</style><g><g><g><defs><rect id="SVGID_1_" width="437" height="112"/></defs><clipPath id="SVGID_2_"><use xlink:href="#SVGID_1_" style="overflow:visible"/></clipPath><rect width="465" height="137" x="-18" y="-15" class="st0"/></g></g></g><linearGradient id="SVGID_3_" x1=".637" x2="436.363" y1="114.376" y2="-2.376" gradientUnits="userSpaceOnUse"><stop offset="0" style="stop-color:#03846c"/><stop offset="1" style="stop-color:#26a58c"/></linearGradient><rect width="437" height="112" class="st1"/><g><g><path d="M517.7,247.7c1.5,1.4,5.7,5.8,5,9.9c-0.5,1.9-2.1,4.7-9,6.9c-17,5.5-64.7,8.5-75,9.1 c-40.2,0.5-148.8,1.4-189.6-3.9c-17.6-2.2-25.2-5.9-26.1-10.9c-0.9-5,4.8-10.3,8.6-13.2c6.5-2.1,15.5-4.8,26.4-7.2 c14.4-3.2,26.7-4.8,42.6-6.3c33.6-3,60.5-3.4,70.1-3.4C370.2,228.8,497.6,227.5,517.7,247.7z" class="st2"/><path d="M517.7,250.9c1.7,1.3,5,4.3,5,6.7c-1.2,21.3-297.1,27-299.9,1.3c-0.2-2.1,1.4-5.3,1.7-5.9 c4.8-9.6,17.1-11.9,32-14.3c17.9-2.9,32.7-5,43.7-6.4c0.8,6.9,7.8,21.2,56.3,18.5c69.9-3.9,96.2,17.5,132.5,2.1 C493.4,250.8,508.4,243.9,517.7,250.9z" class="st3"/><path d="M303.9,238.9c2.3,2.9,6.2,4,8.9,3.9c2.7-0.3,2.1-1.3,0.3-3c-2-1.8-2.7-2.7-5.6-3.2 C304.4,235.9,302.1,236.5,303.9,238.9z" class="st3"/><path d="M317.1,245.2c1.5,1.9,4.2,2.7,6,2.6c1.8-0.2,1.5-0.8,0.2-2.1c-1.4-1.3-1.8-1.9-3.9-2.2 C317.4,243.1,315.8,243.6,317.1,245.2z" class="st3"/><path d="M342,243.4c-6.3,1.8-6,3.9-2.9,5.8c3.2,1.8,14.4,0.2,22.4,0.2s5.1-4.8-0.5-5.8 C355.5,242.8,345.3,242.4,342,243.4z" class="st3"/><path d="M486.7,249.8c6.2,1.3,7.7,3,14.9,3c7.1,0,5.6-3.2,1.5-4.2c-4.1-1-7.5-2.1-16.1-3.2 C478.4,244.4,479.5,248.2,486.7,249.8z" class="st3"/></g><g><g><path d="M465.5,108c0-6.3-3-11.7-7.5-14.9c1.7-2.9,2.7-6.3,2.7-9.8c0-7.4-4.2-13.8-10.2-16.5 c0.5-0.8,0.8-1.8,0.8-2.9c0-2.4-1.5-4.5-3.5-5.3c0.9-1.9,1.5-4,1.5-6.3c0-7.1-5.1-12.8-11.7-13.3c0-0.2,0-0.3,0-0.3 c0-2.9-2-5.3-4.5-5.8c0.2-1,0.3-2.1,0.3-3.2c0-8.2-6.2-14.8-13.8-14.8c-1.2,0-2.3,0.2-3.3,0.5c-1.1-4.7-5-8.2-9.6-8.2h-0.2 c-2-7.1-8.1-12.2-15.5-12.2c-5,0-9.3,2.4-12.3,6.1c-1.7-1.8-4.1-2.9-6.6-2.9c-1.5,0-2.9,0.3-4.1,1c-2.3-1.4-4.8-2.2-7.7-2.2 c-7.5,0-13.7,6.1-14.4,14c-0.5,0-1.1-0.2-1.7-0.2c-4.7,0-8.9,2.4-11.4,6.3c-1.1-0.3-2.1-0.5-3.2-0.5c-7.4,0-13.4,6.4-13.4,14.3 c0,1,0.2,1.8,0.3,2.7c-5.3,0.6-9.3,5.5-9.3,11.2c0,1,0.2,1.9,0.3,2.9c-7.2,0.8-12.8,7.4-12.8,15.4c0,2.2,0.5,4.3,1.2,6.3 c-2,1.4-3.3,4-3.3,6.7c0,1,0.2,1.8,0.5,2.6c-7.5,1-13.4,7.7-13.4,16c0,4.8,2,9,5,12c-1.4,1.8-2.3,4.2-2.3,6.7 c0,4.5,2.7,8.5,6.5,9.9c-1.8,2.6-2.9,5.8-2.9,9.3c0,7.1,4.4,13.2,10.5,15.2c1.1,2.2,3.2,3.7,5.6,3.9c0,0.3,0,0.5,0,0.8 c0,8,6.2,14.6,13.7,14.6c2.4,0,4.7-0.6,6.8-1.9c1.5,1.4,3.5,2.4,5.7,2.4c0.6,0,1.4-0.2,2-0.3c0.8,4.3,4.4,7.7,8.7,7.7 c2.1,0,4.1-0.8,5.7-2.1c1.1,0.8,2.4,1.4,3.8,1.4c2,0,3.6-1,4.7-2.4c1.4,3,4.2,5.1,7.4,5.1c1.7,0,3.2-0.5,4.5-1.4 c1.5,0.5,3,1,4.5,1c2.4,0,4.7-1.1,6.2-3c2.1,2.9,5.3,4.8,8.9,4.8c3.9,0,7.4-2.1,9.3-5.3c1.2,0.6,2.4,1,3.9,1c2.7,0,5-1.3,6.5-3.4 c2.1,2.6,5.1,4.3,8.6,4.3c5.1,0,9.3-3.7,10.7-8.5h0.2c2.7,0,5-1.4,6.3-3.7c1.8,1.3,3.9,2.1,6.3,2.1c6.2,0,11.1-5.3,11.1-11.9 c0-0.6,0-1.1-0.2-1.8c5.6-0.8,9.8-5.8,9.8-11.7c0-2.2-0.6-4.3-1.7-6.1c2.1-1.4,3.6-3.9,3.6-6.7c0-1.3-0.3-2.6-0.9-3.7 C462.7,119.5,465.5,114.1,465.5,108" class="st4"/><path d="M465.5,108c0-6.3-3-11.7-7.5-14.9c1.7-2.9,2.7-6.3,2.7-9.8c0-7.4-4.2-13.8-10.2-16.5 c0.5-0.8,0.8-1.8,0.8-2.9c0-2.4-1.5-4.5-3.5-5.3c0.9-1.9,1.5-4,1.5-6.3c0-7.1-5.1-12.8-11.7-13.3c0-0.2,0-0.3,0-0.3 c0-2.9-2-5.3-4.5-5.8c0.2-1,0.3-2.1,0.3-3.2c0-8.2-6.2-14.8-13.8-14.8c-1.2,0-2.3,0.2-3.3,0.5c-1.1-4.7-5-8.2-9.6-8.2h-0.2 c-2-7.1-8.1-12.2-15.5-12.2c-5,0-9.3,2.4-12.3,6.1c-1.7-1.8-4.1-2.9-6.6-2.9c-1.5,0-2.9,0.3-4.1,1c-2.3-1.4-4.8-2.2-7.7-2.2 c-7.5,0-13.7,6.1-14.4,14c-0.5,0-1.1-0.2-1.7-0.2c-4.7,0-8.9,2.4-11.4,6.3c-1.1-0.3-2.1-0.5-3.2-0.5c-7.4,0-13.4,6.4-13.4,14.3 c0,1,0.2,1.8,0.3,2.7c-5.3,0.6-9.3,5.5-9.3,11.2c0,1,0.2,1.9,0.3,2.9c-7.2,0.8-12.8,7.4-12.8,15.4c0,2.2,0.5,4.3,1.2,6.3 c-2,1.4-3.3,4-3.3,6.7c0,1,0.2,1.8,0.5,2.6c-7.5,1-13.4,7.7-13.4,16c0,4.8,2,9,5,12c-1.4,1.8-2.3,4.2-2.3,6.7 c0,4.5,2.7,8.5,6.5,9.9c-1.8,2.6-2.9,5.8-2.9,9.3c0,7.1,4.4,13.2,10.5,15.2c1.1,2.2,3.2,3.7,5.6,3.9c0,0.3,0,0.5,0,0.8 c0,8,6.2,14.6,13.7,14.6c2.4,0,4.7-0.6,6.8-1.9c1.5,1.4,3.5,2.4,5.7,2.4c0.6,0,1.4-0.2,2-0.3c0.8,4.3,4.4,7.7,8.7,7.7 c2.1,0,4.1-0.8,5.7-2.1c1.1,0.8,2.4,1.4,3.8,1.4c2,0,3.6-1,4.7-2.4c1.4,3,4.2,5.1,7.4,5.1c1.7,0,3.2-0.5,4.5-1.4 c1.5,0.5,3,1,4.5,1c2.4,0,4.7-1.1,6.2-3c2.1,2.9,5.3,4.8,8.9,4.8c3.9,0,7.4-2.1,9.3-5.3c1.2,0.6,2.4,1,3.9,1c2.7,0,5-1.3,6.5-3.4 c2.1,2.6,5.1,4.3,8.6,4.3c5.1,0,9.3-3.7,10.7-8.5h0.2c2.7,0,5-1.4,6.3-3.7c1.8,1.3,3.9,2.1,6.3,2.1c6.2,0,11.1-5.3,11.1-11.9 c0-0.6,0-1.1-0.2-1.8c5.6-0.8,9.8-5.8,9.8-11.7c0-2.2-0.6-4.3-1.7-6.1c2.1-1.4,3.6-3.9,3.6-6.7c0-1.3-0.3-2.6-0.9-3.7 C462.7,119.5,465.5,114.1,465.5,108" class="st4"/><path d="M345.8,17c1.7-3.4,4.4-6.3,8-4.3c0.5-5.6,7.2-9.3,11.6-5.6c0.6,0.5,1.2,1.1,1.5,1.8c0.2,0.2,0.9-0.6,1.2-0.8 c1.2-0.6,2.4-1.1,3.8-1c2.4,0.2,3,2.6,2.6,4.8c2-1.1,3.9-1.4,5.9,0.2c1.8,1.4,2.7,3.7,3.5,5.9c1.8-2.6,4.7-4.3,7.8-3.5 c1.4,0.3,2.9,1,3.6,2.2c0.6,1.1,0.8,2.6,0.9,3.9c3.5-1.9,9.5-3.7,9.9,1.9c3.8-2.2,8.1,0.5,7.4,5.3c2.9,0.6,6.2-0.6,8.6,1.8 c2,2.1,2.4,4.2,2.1,6.9c1.7-0.3,3.8-0.3,5,1.1c1.2,1.3,1.2,3,0.9,4.7c3.8-2.4,8.9,1.9,8.7,6.4c1.5-1.3,3.2-0.6,4.2,1.3 c1.4,2.6,0.5,5.1-0.8,7.5c1.8-0.6,4.2-0.5,6,0.5c0.8-1.8,1.2-3.7,1.2-5.8c0-7.1-5.1-12.8-11.7-13.3c0-0.2,0-0.3,0-0.3 c0-2.9-2-5.3-4.5-5.8c0.2-1,0.3-2.1,0.3-3.2c0-8.2-6.2-14.8-13.8-14.8c-1.2,0-2.3,0.2-3.3,0.5c-1.1-4.7-5-8.2-9.6-8.2h-0.2 c-2-7.1-8.1-12.2-15.5-12.2c-5,0-9.3,2.4-12.3,6.1c-1.7-1.8-4.1-2.9-6.6-2.9c-1.5,0-2.9,0.3-4.1,1c-2.3-1.4-4.8-2.2-7.7-2.2 c-7.5,0-13.7,6.1-14.4,14c-0.5,0-1.1-0.2-1.7-0.2c-4.1,0-7.7,1.8-10.1,4.7C338.4,13.4,342.8,13.9,345.8,17z" class="st5"/><path d="M413.5,37.7c1.5-1.1,0.9-2.6-0.3-3.4c0.2,0.5,0.2,1.1-0.3,1.8s-1.4,0.6-2.3,0.5c1.2,1.3,1.7,3,1.1,5 c-0.6,1.8-2.4,2.7-4.1,3c2.3,1.9,2.1,5.3-0.9,6.4c0.9,1.9,1.7,4.3-0.5,5.8c-1.7,1.3-3.9,1.3-5.7,0.2c-0.6,2.2-2.3,4-4.5,4.2 c-1.8,0.2-2.7-1.1-3.2-2.7c-1.7,2.7-5.6,3.4-7.7,0.8c-0.2,1.1,0,2.6,0.8,3.5c0.8,0.6,1.5,0.5,2.4,0.3c0.2,0,0.5,0.2,0.3,0.3 c-0.6,1.8-0.2,3.9,2,4.2c1.4,0.2,2.6-0.5,3.8-1c0.2,0,0.3,0,0.5,0.2c1.2,2.1,3.2,1.8,5,0.6c1.5-0.8,2.4-2.1,3.5-3.5 c0.3-0.5,1.1-0.5,1.7-0.2c2.3,1.1,2.6-1.8,2.6-3.4c0-0.2,0.2-0.3,0.3-0.3c3.2-0.5,5.3-4.7,4.1-7.9c-0.2-0.3,0.3-0.6,0.5-0.5 c2.4-1.1,3-5.3,0.2-6.1c-0.3-0.2-0.3-0.5,0-0.6c1.7-0.5,3.2-1.9,3-3.9c-0.2-1.3-1.1-2.1-1.8-3C413.3,38,413.3,37.8,413.5,37.7z" class="st6"/><path d="M334.1,35.6c0.2,0,0.3,0.2,0.3,0.5c-0.9,2.6-1.5,5.6,0.5,7.9c1.5,1.6,3.6,2.2,5.6,1.4c0.2,0,0.5,0.2,0.5,0.3 c0,2.9,2.7,4.5,5.1,3.2c1.4-0.8,2.4-1.8,3.5-2.9c0.2-0.2,0.3-0.2,0.5,0c3,2.6,6.6-0.2,7.2-3.7c-2,1.8-5.1,3.2-5.7-0.3 c-2.9,1.4-7.1,2.7-8.4-1.3c-4.2,1.8-8-3.7-4.8-6.9c-2.4-0.5-3-2.9-2.1-5.3s3.2-4,5.4-3.9c-0.9-1.3-0.9-3.2-0.2-4.5 c-2.3,0.6-5.4,2.4-3.8,4.5c0.2,0.2,0.2,0.5-0.2,0.5c-2.9,0.5-6,1.8-6.8,5C329.9,33,331.4,35.3,334.1,35.6z" class="st6"/><path d="M354,81.2c-1.2-1.6-0.5-3.2,0.5-4.7c-1.7,0.3-3.5-1-3.8-2.9c-2.1,2.7-6.8,4.8-7.7,0.6 c-1.8,2.9-6,5.6-8.3,1.9c-1.4,2.1-3.8,3.2-6.2,2.1c-2.4-1.1-3.6-3.7-3.5-6.4c-2.6,1.4-5.6,2.2-7.7-0.5c-1.5-2.1-1.1-5.5,0.3-7.5 c-3.9,0.5-6-4.2-4.4-7.7c-1.8,1.3-3.6,3.4-3.5,5.8c0,2.1,1.1,4.3,3.3,3.5c0.2,0,0.3,0.2,0.3,0.3c0.2,0.2,0.2,0.5-0.2,0.5 c-4.1,1.1-5.3,10.3,0.2,9.3c0.2,0,0.5,0.2,0.3,0.3c-0.3,1.3-1.1,3.2-0.3,4.5c1.4,2.2,3.9,1.6,5.3-0.2c0.2-0.3,0.5,0,0.5,0.2 c0.2,0.8,0.3,1.9,0.9,2.4c1.2,1.1,2.1,0,3-0.8c0.2-0.2,0.5,0,0.5,0.2c-0.2,5.3,7.8,6.1,9.5,1.4c0.2-0.3,0.8-0.2,0.6,0.2v0.2 c0,0,0,0,0.2,0.2c0.6,1.3,1.5,2.4,3,1.4c0.8-0.5,1.4-1.1,2-1.9c0.2-0.2,0.5-0.2,0.6,0c0.9,2.6,2.4-0.2,3.3-1.1 c0.2-0.2,0.3-0.2,0.5,0c0.9,1,1.7,2.2,3.2,2.1c1.7-0.2,3-1.1,4.1-2.6c0.2-0.2,0.5-0.2,0.6,0c0.5,2.2,2.1,4.2,4.4,3.2 c1.7-0.6,3.6-2.2,3.6-4.3C357.6,81.8,355.2,82.8,354,81.2z" class="st6"/><path d="M465.5,108c0-6.3-3-11.7-7.5-14.9c1.7-2.9,2.7-6.3,2.7-9.8c0-2.6-0.5-5-1.4-7.1c0.8,3.7,0.5,7.5-1.1,11.4 c-1.7,4-4.8,8-8.7,9.6c0,0,0,0,0.2,0c2.1,1,4.2,3.9,2.1,6.1c-1.5,1.8-3.9,1.3-5.9,1.1c2,2.7,3.6,6.1,1.4,9.1 c-1.5,2.2-4.7,2.1-6.6,0.6c-1.7,2.4-4.5,1.4-5.4-1c-0.9,4.2-1.8,9-6.3,9.8c-3.3,0.6-7.7-1.6-6.9-5.6c-1.2,0.5-2.4-0.5-3-1.9 c-2.6,2.4-7.4,1.4-8-2.1c-1.7,1.1-4.4,0.6-5.1-1.3c-0.9,1.9-2.6,3.5-4.4,4.3c-1.7,0.8-2.7,0.2-3.2-1.1c-0.6,2.7-1.8,5.6-4.5,6.3 c-1.8,0.3-4.1,0-4.7-1.8c-1.4,2.4-3.5,4.5-6.3,4.3c-2.4-0.2-4.5-1.4-5-4c-2,1.8-5.1,1.4-7.1-0.5c-2,3.5-6.5,3.9-9.8,2.4 c-1.7-0.8-3.3-2.1-3.9-4c-0.2-0.6-0.3-1.3-0.3-1.9c-1.7,1.9-4.1,3.4-6.5,3.2c-2.6,0-4.1-1.4-4.8-3.5c-1.8,2.7-5.3,5.1-8.3,4 c-3.5-1.3-4.5-5.8-4.7-9.5c-1.1,1.4-2.9,2.7-4.5,1.4c-0.8-0.5-1.1-1.3-1.2-2.1c-2.3,1.8-4.8,2.9-7.5,2.4 c-2.9-0.5-4.2-2.9-4.7-5.5c-2,1.9-4.5,4-7.1,2.2c-1.7-1.1-2.4-3-2.3-5c-3.9,2.4-9.8,4.2-12.6-0.2c-2.7-4.2,0.3-9.8,2.9-13.5 c-3.2,1.1-6.5,0.3-7.4-3.5c-0.8-3,0.3-6.3,2.6-8c-6.3,1.9-11,8.2-11,15.6c0,4.8,2,9,5,12c-1.4,1.8-2.3,4.2-2.3,6.7 c0,4.5,2.7,8.5,6.5,9.9c-1.8,2.6-2.9,5.8-2.9,9.3c0,7.1,4.4,13.2,10.5,15.2c1.1,2.2,3.2,3.7,5.6,3.9c0,0.3,0,0.5,0,0.8 c0,8,6.2,14.6,13.7,14.6c2.4,0,4.7-0.6,6.8-1.9c1.5,1.4,3.5,2.4,5.7,2.4c0.6,0,1.4-0.2,2-0.3c0.8,4.3,4.4,7.7,8.7,7.7 c2.1,0,4.1-0.8,5.7-2.1c1.1,0.8,2.4,1.4,3.8,1.4c2,0,3.6-1,4.7-2.4c1.4,3,4.2,5.1,7.4,5.1c1.7,0,3.2-0.5,4.5-1.4 c1.2,0.8,2.7,1.3,4.2,1.3c2.4,0,4.7-1.1,6.2-3c2.1,2.9,5.3,4.8,8.9,4.8c3.9,0,7.4-2.1,9.3-5.3c1.2,0.6,2.4,1,3.9,1 c2.7,0,5-1.3,6.5-3.4c2.1,2.6,5.1,4.3,8.6,4.3c5.1,0,9.3-3.7,10.7-8.5h0.2c2.7,0,5-1.4,6.3-3.7c1.8,1.3,3.9,2.1,6.3,2.1 c6.2,0,11.1-5.3,11.1-11.9c0-0.6,0-1.1-0.2-1.8c5.6-0.8,9.8-5.8,9.8-11.7c0-2.2-0.6-4.3-1.7-6.1c2.1-1.4,3.6-3.9,3.6-6.7 c0-1.3-0.3-2.6-0.9-3.7C462.7,119.5,465.5,114.1,465.5,108z" class="st6"/><path d="M331.8,121.9c-1.4,2.2-3.5,4.3-6,2.6c-0.8-0.5-0.6-1-1.4-0.5c-0.5,0.3-0.9,0.5-1.5,0.5c-1.4,0-2.6-0.6-3.9-1 c-1.5,4.3-6.2,4.8-8.9,1.4c-1.8,2.2-5.4,2.2-7.7,0.6c0,0.3,0.2,0.5,0.3,0.8c0.8,2.1,2.7,4.2,5.1,3.5c1.2-0.3,2.6-1.1,3.5,0.3 c2.3,3.4,5.1,1.1,7.4-0.8c0.2-0.2,0.3-0.2,0.5,0c1.8,2.7,5.1,1.1,6.6-1.1c0.1-0.2,0.5-0.2,0.6,0c1.5,4.8,6.3,2.6,7.4-1.3 c0-0.3,0.5-0.3,0.6,0c0.9,2.2,2.7,0.6,3.5-1c0.8-1.4,1.2-3,0.8-4.7C336.6,124.3,333.8,123.8,331.8,121.9z" class="st7"/><path d="M439.1,126.6c-1.1,4.3-6.8,7.4-9.5,3.2c-1.2,1.8-3,3.5-5.3,2.9c-2.3-0.6-3.6-2.7-4.5-4.8 c-1.5,1.9-4.2,3.4-6.6,2.4c-1.1-0.5-2.1-1.1-2.6-2.2c-0.5-1.1-0.5-2.4-0.6-3.7c-1.4,1-4.1,1.9-5.1,1.1c-0.5,1-0.9,2.4-0.8,3.4 c0.5,1.6,2.7,1,3.8,0.6c0.3,0,0.5,0.2,0.3,0.3c-0.3,1.8-0.2,4.2,1.7,5c1.5,0.6,3.3,0.3,4.8-0.3c0.2-0.2,0.5,0,0.5,0.3 c-0.3,5.9,6.5,5,9.2,1.9c0.2-0.2,0.5-0.2,0.5,0.2c0.9,4,5-0.8,5.9-2.4c0.2-0.2,0.3-0.2,0.5,0c2.9,3.5,9,0,9.5-4.2 c0-0.2,0.2-0.3,0.5-0.3c4.4,1.1,6.9-3.2,6.6-7.4C446.8,126.2,442.1,129.6,439.1,126.6z" class="st7"/><path d="M365.1,136.2c-1.7,0.3-3.2-1-4.1-2.2c-0.8,1.1-2,2.2-3.3,1.9c-1.4-0.2-2.1-1.4-2.4-2.7 c-1.4,1.1-4.2,2.1-5.1,1l0,0c-0.3,1.6,0.2,3.9,2,3.9c1.1,0,1.8-0.3,2.7-0.8c0.2-0.2,0.5,0,0.5,0.2c0.5,3.7,3.6,4.2,5.7,1.6 c0.2-0.2,0.5,0,0.5,0.2c2.7,7.1,9.8-1.1,8.4-6.3C368.7,134,367.1,135.7,365.1,136.2z" class="st7"/></g><g><g><path d="M392,29c-0.2,0-0.6-0.3-1.1-1c-0.5-0.6-0.6-1.8-0.6-2.6c0-0.5,0.2-0.8,0.2-1c0-0.3,0.2-0.5,0.3-0.5 c0.2-0.3,0.3-0.2,0.5-0.2s0.2,0.2,0.2,0.3c0,0,0,0.2,0,0.5c0,0.2,0,0.5-0.2,1c0,0.8,0,1.8,0.3,2.4C391.7,28.5,392.2,29,392,29" class="st8"/><path d="M391,26.4c-5.7,0.6-6.9,7.2-4.8,11.4c2.7,5.3,8.1,7.1,11,6.3c2.3-0.6,3-3.2,2.3-5.1c-1.2-2.7-0.3-4-1.2-7.2 C397.3,28.4,395.5,25.8,391,26.4" class="st9"/><path d="M399.4,38.9c-0.3-0.8-0.5-1.4-0.6-2.1c-0.2,0.3-0.3,0.5-0.5,0.8c-1.7,2.1-4.4,2.9-6.8,2.2 c-3.3-1-5.7-4-6.2-7.4c-0.3,1.8,0,3.9,0.9,5.5c2.7,5.3,8.1,7.1,11,6.3C399.4,43.4,400.1,40.9,399.4,38.9z" class="st10"/><path d="M388,30.8c0.2,0-0.2,1.3-0.2,1.9s-0.2,0.8-0.3,0.8s-0.3,0-0.3-0.8C387.4,31.7,387.8,30.6,388,30.8" class="st11"/><path d="M389.2,28.7c0.2,0.2,0,0.5-0.3,0.6c-0.1,0.3-0.5,0.5-0.6,0.3c-0.2-0.2,0-0.5,0.2-0.8 C388.7,28.7,389,28.5,389.2,28.7" class="st11"/></g><g><path d="M354.2,95.3c-0.2,0-0.6-0.5-1.1-1.4s-0.8-2.2-0.6-3.2c0-0.5,0.2-1,0.2-1.1c0.2-0.3,0.2-0.5,0.3-0.6 c0.3-0.3,0.3-0.2,0.5-0.2c0.2,0.2,0.2,0.2,0.2,0.3c0,0.2,0,0.3,0,0.5c0,0.3,0,0.6-0.2,1.1c0,1,0,2.1,0.3,2.9 C353.9,94.6,354.3,95.3,354.2,95.3" class="st8"/><path d="M354,92.2c-5.6-1.6-10.2,5.6-10.1,10.4c0.2,7.4,3.9,11.6,6.9,11.9c2.4,0.3,3.5-2.1,3.3-4.2 c-0.2-3,0.9-5.3,2.7-7.9C359.3,98.8,358.5,93.5,354,92.2" class="st9"/><path d="M357.8,95.6c0.2,0.8,0.2,1.8,0.2,2.6c0,1.1-0.3,2.4-1.1,3.4c-0.9,1.1-2.3,1.4-3.3,2.2 c-1.4,1-2.1,2.9-3.6,3.4c-1.4,0.5-2.6-0.2-3.6-1.1c-1.5-1.4-2.1-3-2.3-4.8c0,0.5-0.2,1-0.2,1.3c0.2,7.4,3.9,11.6,6.9,11.9 c2.4,0.3,3.5-2.1,3.3-4.2c-0.2-3,0.9-5.3,2.7-7.9C358.4,100.4,358.7,97.8,357.8,95.6z" class="st10"/><path d="M347.9,96.9c0.2,0.2-0.6,1.1-0.9,1.8c-0.3,0.6-0.5,0.6-0.6,0.6s-0.3-0.2,0-1 C346.8,97.5,347.7,96.7,347.9,96.9" class="st11"/><path d="M350,94.8c0,0.2-0.3,0.6-0.6,1c-0.5,0.3-0.8,0.5-0.9,0.3c-0.2-0.2,0.1-0.6,0.6-1.1 C349.5,94.6,350,94.6,350,94.8" class="st11"/></g><g><path d="M314.7,143.9c0,0.2-0.6-0.2-1.1-1c-0.5-0.6-0.8-1.8-0.8-2.6c0-0.5,0-0.8,0-1c0-0.3,0.1-0.5,0.1-0.6 c0.2-0.3,0.3-0.2,0.5-0.2c0.1,0,0.1,0.2,0.1,0.3c0,0,0,0.2,0,0.5c0,0.2,0,0.5,0,1c0,0.8,0.2,1.6,0.5,2.4 C314.6,143.4,314.9,143.9,314.7,143.9" class="st8"/><path d="M313.7,141.3c-5.1,1.1-5.9,7.9-3.6,11.9c2.9,5,8,6.4,10.5,5.3c2.1-0.8,2.6-3.5,1.7-5.3 c-1.4-2.6-0.6-4-1.7-7.1C319.7,142.9,317.7,140.5,313.7,141.3" class="st9"/><path d="M322.2,153.4c-0.5-0.8-0.6-1.6-0.8-2.2c-0.6,2.1-2.1,3.7-4.5,4c-2.6,0.3-5.6-0.5-7.1-2.9 c-0.3-0.5-0.6-1-0.8-1.4c0.2,1,0.5,1.8,0.9,2.6c2.9,5,8,6.4,10.5,5.3C322.5,157.7,323.1,155,322.2,153.4z" class="st10"/><path d="M311.3,146c0.2,0,0,1.3,0,1.9c0,0.8,0,0.8-0.2,0.8s-0.3,0-0.3-0.8C310.7,146.9,311.1,145.8,311.3,146" class="st11"/><path d="M312.2,143.7c0.2,0.2,0,0.5-0.2,0.8c-0.2,0.3-0.5,0.5-0.5,0.5c-0.2,0-0.2-0.5,0.2-0.8 C311.7,143.9,312,143.7,312.2,143.7" class="st11"/></g><g><path d="M362.7,8.5c0-0.5-0.2-1-0.2-1.3c-0.2-0.3-0.2-0.5-0.3-0.6c-0.3-0.3-0.3-0.2-0.5-0.2c0,0.2,0,0.2,0,0.3 s0,0.3,0,0.5c0,0.3,0.2,0.6,0.2,1.1c0.2,1,0,2.1-0.2,3c-0.2,1-0.5,1.6-0.5,1.6c0.2,0.2,0.6-0.3,1.1-1.3 C362.7,10.9,362.9,9.6,362.7,8.5" class="st8"/><path d="M370.2,18.4c-0.3-5.1-5-11.2-10.2-8.5c-4.2,2.2-3.6,9.6-1.5,11.4c2.4,2.1,0.8,3.5,1.5,6.6 c0.5,2.1,2.9,2.2,4.1,1.6C366.8,28.2,370.4,24.8,370.2,18.4" class="st9"/><path d="M370.2,18.4c-0.2-2.4-1.2-5-2.9-6.9c2.1,3.4,2.1,8.5,0.5,11.9c-1.1,2.1-3.3,4.3-5.6,3.4 c-1.2-0.5-1.8-1.6-2.4-2.6c0,1-0.3,2.1,0.2,3.7c0.5,2.1,2.9,2.2,4.1,1.6C366.8,28.2,370.4,24.8,370.2,18.4z" class="st10"/><path d="M359.9,13.3c0.2,0.2,0.2,0.5,0,1c-0.2,0.5-0.5,0.8-0.6,0.6c-0.1,0-0.3-0.5,0-1 C359.4,13.4,359.7,13.3,359.9,13.3" class="st11"/><path d="M359,16c0.2,0,0.3,0.3,0.5,0.8c0.2,0.5,0.2,0.8,0,1s-0.5-0.2-0.6-0.8C358.7,16.5,358.8,16,359,16" class="st11"/></g><g><path d="M328.1,41.4c0-0.5,0-1,0-1.3s-0.2-0.5-0.2-0.6c-0.2-0.3-0.3-0.3-0.5-0.2c-0.2,0-0.2,0.2-0.2,0.3 c0,0.2,0,0.3,0,0.5c0,0.3,0,0.6,0,1.1c0,1-0.3,2.1-0.6,3c-0.3,0.8-0.8,1.4-0.6,1.6c0,0.2,0.6-0.3,1.2-1.1 C327.6,43.8,328.1,42.5,328.1,41.4" class="st8"/><path d="M331.4,53.5c1.8-4.8,0.5-11.6-5.4-11.4c-4.7,0.2-8,5-7.5,9c0.3,4-0.3,3.7-0.8,6.9c-0.5,2.1,2,3,3.3,3 C324,61.1,329,59.5,331.4,53.5" class="st9"/><path d="M328.1,42.5c2.9,3,1.8,9.1-0.5,12.4c-1.5,2.2-4.4,4.3-7.1,3.9c-1.2-0.2-2.1-0.8-2.7-1.8 c0,0.3-0.2,0.6-0.2,1.1c-0.5,2.1,2,3,3.3,3c3,0,8-1.6,10.4-7.5C333,49.4,332.1,43.8,328.1,42.5z" class="st10"/><path d="M324.6,44.7c0.2,0.2-0.3,0.5-0.6,0.8c-0.5,0.3-0.9,0.3-1.1,0.2c-0.2-0.2,0.1-0.6,0.6-1 C324,44.4,324.6,44.4,324.6,44.7" class="st11"/><path d="M322.2,46.5c0.2,0.2,0.2,0.6,0,1.1s-0.5,0.8-0.6,0.8s-0.3-0.5-0.2-1.1S321.9,46.3,322.2,46.5" class="st11"/></g><g><path d="M365.6,52.1c0-0.5,0-1-0.2-1.3c0-0.3-0.2-0.5-0.2-0.6c-0.2-0.3-0.3-0.3-0.5-0.2s-0.2,0.2-0.2,0.3 c0,0.2,0,0.3,0,0.5c0,0.3,0,0.6,0,1.1c0,1-0.2,2.1-0.5,3c-0.3,1-0.6,1.4-0.6,1.6c0.2,0.2,0.6-0.3,1.1-1.1 C365.3,54.5,365.6,53.2,365.6,52.1" class="st8"/><path d="M371.9,64c0.3-5.1-3.2-11.2-8.6-9.1c-4.4,1.8-4.2,7.9-3.3,10.6c1.1,3.2-0.2,4,0.3,7.1 c0.3,2.1,2.6,2.6,3.8,2.1C366.9,73.6,371.6,70.4,371.9,64" class="st9"/><path d="M364.5,54.5c5.7,1.8,6.5,12.5,1.2,16.5c-0.2,0.2-0.5,0-0.5-0.2c-0.5-1.4-1.5,0.8-2.1,1.1 c-0.6,0.5-1.4,1-2.3,0.6c-0.3-0.2-0.6-0.5-0.8-0.8c0,0.3,0,0.5,0,0.8c0.3,2.1,2.6,2.6,3.8,2.1c2.9-1.1,7.5-4.2,7.8-10.8 C372.2,59.2,369.3,53.5,364.5,54.5z" class="st10"/><path d="M363.8,57.2c0.2,0.2,0,0.6-0.2,1.1c-0.3,0.5-0.6,0.8-0.8,0.8c-0.2-0.2-0.2-0.6,0.2-1.1 C363.2,57.4,363.6,57.1,363.8,57.2" class="st11"/><path d="M362.4,60.3c0.3,0,0.5,0.5,0.5,1c0.2,0.5,0,1-0.2,1.1c-0.2,0-0.6-0.3-0.6-1 C362,60.8,362.1,60.3,362.4,60.3" class="st11"/></g><g><path d="M426.2,39.4c0-0.5,0-1,0-1.1c0-0.3,0-0.5-0.2-0.6c-0.2-0.3-0.3-0.3-0.3-0.2c-0.2,0-0.2,0.2-0.2,0.3 c0,0,0,0.3,0,0.5c0,0.3,0,0.6-0.2,1c-0.2,0.8-0.3,1.9-0.8,2.7c-0.3,0.8-0.8,1.3-0.6,1.4c0,0.2,0.6-0.2,1.2-1 C425.8,41.7,426.2,40.4,426.2,39.4" class="st8"/><path d="M431,50.2c0.8-4.8-2.3-11.4-7.5-10.1c-4.2,1.1-5.1,8-3.5,10.1c1.8,2.4,0,3.4,0,6.3c0,2.1,2.1,2.7,3.3,2.4 C426.1,58.4,430,56.1,431,50.2" class="st9"/><path d="M428.8,41.8c0.8,2.7,0.6,6.7,0,8.2c-0.9,2.2-3.2,3.9-5.4,3.5c-0.9-0.2-1.8-0.6-2.6-1.1 c0,1.1-0.8,2.2-0.8,4.2c0,2.1,2.1,2.7,3.3,2.4c2.7-0.6,6.6-2.9,7.7-8.8C431.5,47.3,430.6,43.9,428.8,41.8z" class="st10"/><path d="M422.8,42.8c0.2,0.2,0,0.5-0.3,0.8c-0.3,0.3-0.5,0.6-0.6,0.5c-0.2-0.2-0.2-0.5,0.2-1 C422.3,42.8,422.6,42.6,422.8,42.8" class="st11"/><path d="M421.4,45c0.2,0,0.3,0.3,0.3,0.8s0,0.8-0.2,0.8c-0.2,0-0.5-0.3-0.5-0.8C421.1,45.4,421.3,44.9,421.4,45" class="st11"/></g><g><path d="M438.1,71.7c0-0.6-0.2-1.1-0.3-1.4s-0.2-0.6-0.3-0.8c-0.3-0.3-0.5-0.3-0.5-0.2c-0.2,0.2-0.2,0.2-0.2,0.5 c0,0.2,0,0.3,0,0.6c0,0.3,0.2,0.6,0.2,1.3c0.2,1.1,0,2.4-0.2,3.4c-0.3,1-0.6,1.8-0.5,1.9c0.2,0.2,0.6-0.5,1.1-1.4 C437.9,74.4,438.2,73,438.1,71.7" class="st8"/><path d="M446.3,82.9c-0.3-5.8-4.1-12.2-11-9.6c-5,1.8-7.1,11.2-3.6,14.4c3.2,3,1.8,3.7,3,6.1 c0.8,1.4,3.2,2.2,4.5,1.6C442.4,93.8,446.6,90.3,446.3,82.9" class="st9"/><path d="M446.3,82.9c0-1.1-0.2-2.1-0.5-3.2c0.2,2.9-0.6,5.8-2.3,8.2c-1.1,1.4-2.7,3-4.5,2.9 c-1.8-0.2-3.3-1.1-4.5-2.4c-1.5-1.4-3.6-3.4-4.4-5.5c0,2.1,0.6,3.9,1.8,5c3.2,3,1.8,3.7,3,6.1c0.8,1.4,3.2,2.2,4.5,1.6 C442.4,93.8,446.6,90.3,446.3,82.9z" class="st10"/><path d="M435.7,75.9c0.2,0.2,0.2,0.6,0,1.1c-0.2,0.5-0.5,0.8-0.6,0.8c-0.2,0-0.3-0.5,0-1.1 C435.2,76,435.5,75.7,435.7,75.9" class="st11"/><path d="M433.9,79.2c0.2,0,0.3,0.5,0.3,1s-0.2,1-0.5,1c-0.2,0-0.5-0.5-0.3-1C433.3,79.5,433.6,79.1,433.9,79.2" class="st11"/></g><g><path d="M386,78.6c0-0.5-0.2-1-0.2-1.3c-0.2-0.3-0.2-0.5-0.3-0.6c-0.3-0.3-0.3-0.2-0.5-0.2 c-0.2,0.2-0.2,0.2-0.2,0.3s0,0.3,0,0.5c0,0.3,0.2,0.6,0.2,1.1c0.2,1,0,2.1-0.2,3c-0.2,1-0.5,1.6-0.5,1.6 c0.1,0.2,0.6-0.3,1.1-1.3C386,81,386.2,79.7,386,78.6" class="st8"/><path d="M394,89.2c-0.3-5.1-4.1-10.9-10.8-9.1c-4.5,1.1-5,7.4-4.1,10.1c1.1,3,4.4,5.9,5.1,9 c0.5,2.1,2.9,2.2,4.1,1.8C391.1,99.4,394.3,95.8,394,89.2" class="st9"/><path d="M391.9,97.2c-2.4,1.3-5.1-0.3-6.9-1.9c-2.3-1.9-4.7-3.5-5.7-6.7c-0.2-0.6-0.3-1.3-0.5-1.8 c-0.2,1.3,0,2.6,0.5,3.5c1.1,3,4.4,5.9,5.1,9c0.5,2.1,2.9,2.2,4.1,1.8c1.4-0.6,2.9-2.1,4.1-4C392.2,96.9,392,97,391.9,97.2z" class="st10"/><path d="M383,82.8c0.2,0.2,0.2,0.6-0.2,1.1s-0.6,0.8-0.8,0.8s-0.3-0.6,0-1.1C382.4,82.9,382.7,82.6,383,82.8" class="st11"/><path d="M381.1,86c0.2,0,0.3,0.5,0.2,1c0,0.5-0.2,0.8-0.3,0.8s-0.3-0.5-0.3-1C380.8,86.3,380.9,86,381.1,86" class="st11"/></g><g><path d="M306.6,91.6c0.2-0.5,0.2-1,0.2-1.3c0-0.3,0-0.5-0.2-0.8c-0.2-0.3-0.3-0.3-0.5-0.3s-0.2,0.2-0.2,0.3 c0,0.2,0,0.3-0.2,0.5c0,0.3,0,0.6-0.2,1.1c-0.2,1-0.5,2.1-0.9,2.9c-0.5,0.8-0.9,1.3-0.8,1.4c0,0.2,0.6-0.2,1.2-1 C306,93.8,306.5,92.5,306.6,91.6" class="st8"/><path d="M311.9,103.1c1.2-5-1.5-11.6-7.4-10.6c-4.7,0.8-8.3,5.3-7.1,10.1c0.8,3.2,1.5,3,0.6,7.2 c-0.5,2.1,3,3.2,4.4,3C305.4,112.4,310.4,109.4,311.9,103.1" class="st9"/><path d="M310.5,95.1c0.3,1,0.3,1.8,0.5,2.7c0.2,3.4-1.1,6.3-3.5,8.5c-2,1.9-4.7,3.2-7.2,2.1 c-0.8-0.3-1.4-0.8-1.8-1.3c0,0.6-0.2,1.6-0.5,2.9c-0.5,2.1,3,3.2,4.4,3c3-0.5,8.1-3.5,9.5-9.8C312.5,100.6,312,97.4,310.5,95.1z" class="st10"/><path d="M302.4,95.6c0.2,0.2-0.1,0.5-0.5,0.8c-0.3,0.3-0.8,0.3-0.9,0.3c-0.2-0.2,0-0.5,0.5-0.8 C302,95.4,302.3,95.4,302.4,95.6" class="st11"/><path d="M300.3,97.4c0.2,0.2,0.2,0.5,0,1c-0.2,0.5-0.3,0.8-0.5,0.8s-0.3-0.5-0.2-1 C299.9,97.5,300.2,97.2,300.3,97.4" class="st11"/></g><g><path d="M423.7,141.3c0.2-0.5,0.3-1,0.3-1.3c0-0.3,0-0.5,0-0.8c-0.2-0.5-0.3-0.3-0.3-0.3c-0.2,0-0.2,0.2-0.3,0.3 c0,0-0.2,0.3-0.2,0.5c0,0.3-0.2,0.6-0.3,1.1c-0.3,1-0.8,1.9-1.4,2.7s-1.1,1.3-1.1,1.3c0,0.2,0.8-0.2,1.4-0.8 C422.6,143.4,423.4,142.3,423.7,141.3" class="st8"/><path d="M426.7,153.5c1.7-4.8,1.1-11.7-5.9-11.4c-4.7,0.3-6.9,6.1-6.8,9c0.2,3,0.2,3.5-0.3,6.6 c-0.3,2.1,1.7,3.2,3,3.2C419.8,160.9,424.4,159.6,426.7,153.5" class="st9"/><path d="M425.2,143.4c1.8,3.2,0.3,8.7-2.4,10.8c-2.9,2.1-6.9,1.8-8.6-1c0,1.6,0,2.4-0.5,4.7 c-0.3,2.1,1.7,3.2,3,3.2c3-0.2,7.7-1.4,9.9-7.5C427.9,150,427.9,145.5,425.2,143.4z" class="st10"/><path d="M419.8,144.4c0,0.2-0.2,0.5-0.6,0.6c-0.3,0.2-0.8,0.3-0.9,0.2c-0.2-0.2,0.2-0.5,0.5-0.8 C419.3,144.2,419.8,144.2,419.8,144.4" class="st11"/><path d="M417.7,146c0.2,0.2,0.2,0.5,0,1c-0.2,0.5-0.5,0.8-0.6,0.6c-0.2,0-0.3-0.5,0-1 C417.2,146.1,417.5,145.8,417.7,146" class="st11"/></g></g><g><path d="M389.8,108.6c-0.2,0-0.5,0.5-0.9,1c-0.5,0.5-1.5,0.8-2.4,0.5c-0.9-0.3-1.5-1.1-1.8-1.8 c-0.2-0.6-0.2-1.3-0.3-1.3s-0.2,0-0.3,0.3c-0.2,0.2-0.3,0.6-0.2,1.1c0,0.5,0.2,1.1,0.6,1.6c0.5,0.5,1.1,1,1.7,1.3 c0.8,0.2,1.5,0.2,2.1-0.2s1.1-0.6,1.4-1.1C389.9,109.4,389.9,108.8,389.8,108.6" class="st7"/><g><path d="M347,43.3c-0.5,0-1.2,0-1.8-0.3c-0.6-0.3-1.4-0.8-1.7-1.6c0,0,0-0.2,0-0.5c0-0.2,0-0.3-0.3-0.5l-0.2-0.2 h-0.2c0,0-0.2,0-0.3,0s-0.3,0.2-0.3,0.2s-0.2,0-0.2,0.2c0,0-0.2,0.2-0.3,0.2s-0.3,0.2-0.5,0.2c-0.6,0.2-1.4,0.2-2.1,0 s-1.4-0.6-1.8-1.3s-0.6-1.6-0.5-2.4c0.2-0.5,0.3-1.1,0.6-1.4c0.2-0.2,0.3-0.3,0.8-1c0.2-0.2,0.2-0.5,0.2-0.8 c0-0.2-0.2-0.3-0.2-0.3l-0.3-0.3l-0.3-0.2l-0.1-0.2c-0.2,0-0.2-0.2-0.3-0.2c-0.2-0.2-0.3-0.3-0.5-0.3c-0.3-0.3-0.6-0.6-0.8-1 c-0.5-0.6-0.6-1.4-0.5-2.1c0-0.6,0.3-1.3,0.8-1.8c0.5-0.5,0.9-0.8,1.4-1.1c0.9-0.6,1.8-0.8,2.4-0.8c0.6-0.2,0.9-0.2,0.9-0.2 s-0.3-0.2-1.1-0.2c-0.6,0-1.7,0-2.7,0.6c-0.6,0.3-1.2,0.6-1.7,1.3c-0.5,0.6-1.1,1.3-1.1,2.2c-0.2,1,0,2.1,0.6,2.9 c0.3,0.5,0.6,0.8,0.9,1.1c0.2,0.2,0.3,0.3,0.6,0.5c0.2,0,0.2,0.2,0.3,0.2l0.2,0.2l0,0l0,0c0,0-0.3,0.3-0.5,0.5 c-0.5,0.6-0.8,1.3-0.9,1.9c-0.3,1.1,0,2.4,0.6,3.4s1.5,1.6,2.4,1.8c0.9,0.3,2,0.2,2.7,0c0.2,0,0.5-0.2,0.6-0.3l0.2-0.2 c0,0.2,0,0.2,0.2,0.3c0.6,1,1.5,1.6,2.3,1.9s1.5,0.2,2.1,0.2c1.2-0.3,1.7-0.8,1.7-0.8C348.6,43,348,43.3,347,43.3" class="st7"/><path d="M407.9,50.7L407.9,50.7c0.3-0.3,0.5-0.5,0.6-0.6c0.3-0.3,0.5-0.6,0.8-1.1c0.3-0.8,0.5-1.6,0.3-2.2 c-0.2-0.6-0.5-1.1-0.8-1.4c-0.8-0.6-1.2-0.6-1.2-0.6c0,0.2,0.3,0.3,0.9,1c0.2,0.3,0.5,0.8,0.5,1.3s0,1.1-0.5,1.8 c-0.2,0.3-0.3,0.6-0.6,0.8c-0.2,0.2-0.3,0.3-0.5,0.3l-0.2,0.2l0,0c0,0-0.1,0-0.3,0.2c-0.2,0-0.3,0-0.5,0.2 c-0.2,0-0.2,0.2-0.3,0.3v0.2c0,0,0,0.2,0,0.3c0.2,0.3,0.3,0.3,0.3,0.5c0.2,0.2,0.2,0,0.2,0l0,0l0.2,0.2c0.3,0.3,0.5,0.6,0.6,1.1 c0.3,0.8,0.2,1.8-0.3,2.6c-0.5,0.8-1.4,1.3-2.3,1.6c-0.8,0.2-1.5,0.2-2.1,0c-0.3-0.2-0.8-0.2-1.1-0.3l-0.5-0.2 c-0.2,0-0.3-0.2-0.5,0c-0.3,0-0.6,0.3-0.8,0.6l-0.2,0.3v0.2l-0.2,0.3c-0.2,0.2-0.2,0.3-0.3,0.5c-0.2,0.3-0.5,0.6-0.6,0.8 c-0.5,0.5-1.1,1-1.5,1.1c-1.1,0.5-2.3,0.5-3,0s-1.2-1.1-1.4-1.6s-0.2-0.8-0.3-0.8c0,0-0.2,0.3-0.2,1c0.2,0.6,0.5,1.4,1.4,2.2 c0.5,0.3,1.1,0.6,1.7,0.6c0.6,0,1.4,0,2.1-0.3s1.4-0.6,2-1.3c0.3-0.3,0.6-0.6,0.8-1c0.2-0.2,0.2-0.3,0.3-0.6l0.2-0.3V58l0,0l0,0 l0,0l0,0h0.2c0.5,0.2,0.8,0.3,1.2,0.5c0.9,0.2,1.8,0.2,2.7,0c1.2-0.3,2.3-1.1,2.9-2.2s0.8-2.4,0.5-3.5c-0.2-0.5-0.5-1.1-0.8-1.4 c0,0,0-0.2-0.2-0.2c0,0,0,0,0.2,0C407.8,50.8,407.9,50.7,407.9,50.7" class="st7"/><path d="M333.6,76c-0.2,0-0.3,0-0.8,0.5c-0.2,0.2-0.5,0.6-0.8,1c-0.5,0.5-0.9,1-1.8,1.3c-0.9,0.3-2,0.2-2.9-0.3 c-0.9-0.6-1.5-1.8-1.8-2.7c-0.3-1.1-0.3-2.1-0.2-2.7c0.2-0.6,0.2-1.1,0.2-1.1s-0.3,0.3-0.6,1c-0.2,0-0.3,0-0.5,0.2 c-0.3,0.2-0.6,0.3-1.1,0.5c-0.5,0.2-1.1,0.3-2,0.3c-0.8-0.2-1.7-0.5-2.3-1.3c-0.6-0.8-1.1-1.8-1.2-2.7c-0.2-1,0-1.9,0.2-2.6 c0.2-0.6,0.3-1,0.2-1.1c0,0-0.3,0.3-0.6,1s-0.6,1.6-0.6,2.7c0,0.6,0.2,1.1,0.3,1.8c0.2,0.6,0.5,1.1,0.9,1.8 c0.5,0.5,0.9,1,1.4,1.3c0.6,0.3,1.2,0.5,1.7,0.6c1.1,0.2,2-0.2,2.6-0.5c0.3-0.2,0.5-0.3,0.6-0.5c0,0.5-0.2,1.1,0,1.9 c0.2,1.3,0.8,2.7,2,3.7c0.6,0.5,1.2,0.8,2,0.8c0.8,0.2,1.4,0,2-0.2c1.2-0.5,2-1.1,2.3-1.8c0.5-0.6,0.6-1.1,0.8-1.4 C333.9,76.2,333.8,76,333.6,76" class="st7"/><path d="M357,80.8c-0.2,0-0.3,0.2-0.6,0.2s-0.6,0.2-0.9,0.2s-0.8-0.3-0.9-0.6c-0.2-0.5-0.3-1-0.2-1.4 c0.2-1,0.9-1.8,0.8-1.9c0,0-0.3,0-0.6,0.2c-0.3,0.2-0.8,0.6-1.1,1.3c-0.3,0.6-0.5,1.4-0.2,2.4c0.2,0.5,0.5,0.8,0.8,1.1 c0.3,0.3,0.8,0.5,1.1,0.5c0.8,0.2,1.2-0.2,1.7-0.3c0.3-0.2,0.6-0.3,0.6-0.5c0.2-0.3,0.2-0.5,0-0.6 C357.5,80.8,357.3,80.7,357,80.8" class="st7"/><path d="M415,89.2c-0.2-0.2-0.5,0.3-1.2,0.5c-0.6,0.2-1.7,0.3-2.4-0.3c-0.8-0.6-1.1-1.6-1.1-2.4 c0-0.8,0.3-1.3,0.2-1.3c0,0-0.2,0-0.5,0.2c-0.2,0.2-0.5,0.5-0.6,1s-0.2,1.1,0,1.8c0.2,0.6,0.6,1.3,1.2,1.8 c0.6,0.5,1.4,0.6,2,0.6s1.2-0.2,1.7-0.5C415,90,415.1,89.3,415,89.2" class="st7"/></g></g><g><path d="M360,233.4c-1.1,1-2.4,1.4-3.6,1.9c-4.1,1.3-7.7-1-10.7-3.7c-0.9-0.8-1.7-1.6-2.3-2.6 c-0.2-0.3-0.9-2.1-0.2-3.4c0.6-1.1,1.8-1,4.1-1.6c3.8-1.1,3.8-2.9,6.9-3.5c1.2-0.3,3-0.6,4.8,0.3c2.1,1.1,3.6,3.5,3.8,6.1 c0.2,2.1-0.9,4.8-2.4,6.3C360.2,233.3,360,233.3,360,233.4z" class="st12"/><path d="M359.9,226.4c-1.2-1-2.7-1.4-4.2-1.6c-0.5,0-1.2-0.2-1.2-0.8c0-0.2,0-0.3,0-0.5c0.3-1,1.4-1.3,2.3-1.3 c1.7,0,3.5,1,4.5,2.4C362.4,226.4,361.7,227.7,359.9,226.4z" class="st13"/><path d="M347.4,232.3h0.2l0.2-0.2c0.2-0.5-0.3-1-0.6-1.3c-0.8-0.8-1.2-1.6-1.7-2.7c-0.3-1-0.5-1.9-1.1-2.6 c0,0-0.1-0.2-0.3-0.2s-0.2,0-0.3,0.2c-0.3,0.3-0.5,0.8-0.5,1.3c0,0.5,0.2,1,0.3,1.3C344.6,229.9,345.8,231.5,347.4,232.3z" class="st14"/><path d="M362.4,227.8c-0.2,0-0.2,0-0.3,0.2s-0.3,0.6-0.3,0.8s0,0.3,0.2,0.5l0,0c0,0,0,0,0.2,0 c0.3-0.3,0.2-0.6,0.3-1c0-0.2,0-0.2,0.2-0.3C362.6,228,362.6,227.8,362.4,227.8z" class="st15"/><path d="M362.3,228.3c0.3-0.2,0.8,0.2,0.9,0.5v0.2c0,0.2,0,0.2-0.2,0.3c-0.2,0.2-0.5-0.2-0.8-0.2c0,0,0,0-0.2,0V229 C362.1,228.5,362.3,228.3,362.3,228.3z" class="st16"/><g><path d="M360.8,229.3c-1.5,1-2.7,2.6-3.5,4.3c-0.8,1.8-1.2,3.7-1.4,5.6c1.1-1.8,2.6-3.2,3.9-4.7 c0.9-1.1,1.8-2.2,2.3-3.7c0.2-0.3,0.6-1.6,0.3-1.9C362.1,228.5,361.1,229.1,360.8,229.3z" class="st17"/><path d="M362.4,228.8c-0.2-0.5-1.5,0.3-1.7,0.5c-1.5,1-2.7,2.6-3.5,4.3c-0.8,1.8-1.2,3.7-1.4,5.6 c0-0.5,0.3-0.8,0.5-1.1c0.2-0.5,0.3-0.8,0.5-1.3c0.9-1.9,2.1-3.7,3.5-5.3c0.3-0.5,0.8-0.8,1.2-1.1c0.2-0.2,0.3-0.5,0.5-0.6 C362.1,229.4,362.4,229,362.4,228.8L362.4,228.8z" class="st18"/></g></g><g><path d="M329.6,122.4l5.1-1c0,0,2.7,26,30,28.2l1.7-31.6l16.7,0.5l1.1,22.6c0,0,28.1-4.2,33.6-26.2l4.8,0.2 c0,0-2.6,26.8-38.4,36.6l4.5,86.7c0,0-0.9,3.5-12,3.5s-16.1-2.4-16.2-4c-0.2-1.6,4.1-79.4,4.1-79.4s-16.2,2.4-27.8-16.2 c0,0-14.1,3.2-21-16.4l2.7-2.9c0,0,0.6,12,15.6,14C333.8,137,330.8,134.4,329.6,122.4" class="st19"/><path d="M332,127.4c0.8-0.6,1.4-1,2.4-1.3c0.5-0.2,0.8-0.2,1.2-0.2c-0.8-2.6-0.9-4.3-0.9-4.3l-5.1,1 c0.3,2.2,0.6,4.2,0.9,5.8C330.9,128,331.5,127.7,332,127.4z" class="st20"/><path d="M321,130.3c-2.7-3.5-2.9-7.2-2.9-7.2l-2.7,2.9c0.8,2.1,1.7,4,2.6,5.6C319.1,131.2,320,130.7,321,130.3z" class="st20"/><path d="M422.3,115.2l-4.8-0.2c-5.6,22-33.6,26.2-33.6,26.2l-1.1-22.6l-16.7-0.5l-0.5,9.1c1.4-0.5,2.7-1.1,4.1-1.6 c0.2,0,0.3,0,0.3,0.2c0.8,1.9,3.5,0.8,5,1.4c1.5,0.6,2.3,2.1,2.3,3.7c0,2.6-0.8,4.8-1.2,7.2c-0.6,3.5-0.8,7.1-0.9,10.6 c-0.2,7.2,0.5,14.1,1.7,21.2c0.9,5.3,1.8,10.9,0.8,16.4c0.2,0,0.3,0.2,0.3,0.3c-0.5,8.8-1.2,17.8-0.8,26.8 c0.3,5,0.8,10.1,0.9,15.1c0,4.5-0.2,9.3-2,13.5h0.2c11.1,0,12-3.5,12-3.5l-4.5-86.7C419.9,142,422.3,115.2,422.3,115.2z" class="st20"/><path d="M416.9,120.1c0.2,0,0.3,0,0.3,0.2c0.8,1.4,1.8,2.1,3,2.2c1.8-4.5,2.1-7.5,2.1-7.5l-4.8-0.2 c-0.6,2.1-1.4,4.2-2.3,5.9C415.9,120.8,416.5,120.5,416.9,120.1z" class="st20"/></g><g><path d="M384.7,111.3c-3.3-0.6-6.5,0.6-7.7,3.2c-0.8-1.6-2.1-2.7-3.8-2.7c-1.8,0-3.5,1.4-3.9,3.4 c-0.9-1.9-3-3.2-5.6-3.2c-3.3,0-6,2.4-6,5.5c0,3,2.7,5.5,6,5.5c2.9,0,5.1-1.6,5.9-3.9c0.8,1.6,2.1,2.6,3.6,2.6 c1.5,0,2.7-0.8,3.5-2.1c0.9,2.2,2.9,4,5.6,4.7c3.9,0.8,7.7-1.3,8.3-4.8C391.3,115.7,388.6,112.3,384.7,111.3" class="st4"/><path d="M433.3,110.7c-2.3-2.1-6.2-1.3-8.7,1.8c-0.3,0.3-0.5,0.6-0.6,0.8c-0.5-0.6-1.2-1.1-2.1-1.1 c-0.2,0-0.3,0-0.3,0c0.6-1.9,0.3-3.9-0.9-5.1c-1.8-1.8-5-1.1-6.9,1.4l-0.2,0.2c-0.5-1.6-2-2.7-3.6-2.7c-2.1,0-3.8,1.8-3.8,4 s1.7,4,3.8,4c0.8,0,1.5-0.3,2.1-0.6c0.2,1.1,0.5,2.1,1.2,2.7c1.5,1.4,4.1,1.1,6-0.5c0.3,1.3,1.4,2.2,2.7,2.2c0.3,0,0.5,0,0.8-0.2 c0,1.6,0.5,3,1.7,4c2.3,2.1,6.2,1.3,8.7-1.8C435.4,117.1,435.5,112.9,433.3,110.7" class="st4"/><path d="M335.4,115.3c-1.7,0-3.2,1.1-3.8,2.7c-0.8-0.8-1.8-1.4-3.2-1.4c-1.2,0-2.3,0.5-3,1.3 c-0.8-1.1-2.1-1.9-3.5-1.9c-2.1,0-3.9,1.6-4.2,3.7c-1.2-0.6-2.7-0.8-4.2-0.3c-2.6,1-4.1,3.5-3.3,5.8c0.8,2.2,3.3,3.4,6,2.4 c1.8-0.6,3.2-2.1,3.5-3.7c0.6,0.5,1.5,0.8,2.4,0.8c1.2,0,2.3-0.5,3-1.3c0.8,1.1,2.1,1.9,3.5,1.9c1.8,0,3.3-1.1,3.9-2.7 c0.8,0.8,1.8,1.4,3,1.4c2.3,0,4.1-1.9,4.1-4.3C339.5,117.3,337.7,115.3,335.4,115.3" class="st4"/><g><path d="M390.5,119.2c0,0,0.2,0.6-0.3,1.4c-0.2,0.5-0.5,1-0.9,1.6c-0.5,0.5-1.1,1.1-1.8,1.4 c-1.5,0.8-3.6,1.3-5.9,0.6c-1.1-0.3-2.3-0.8-3.3-1.8c-0.5-0.5-0.9-1-1.4-1.4c-0.2-0.3-0.5-0.6-0.5-0.6l0,0l0,0l-0.2,0.2 c-0.2,0.2-0.2,0.2-0.3,0.3c-0.2,0.2-0.5,0.3-0.6,0.5c-0.5,0.3-0.9,0.5-1.5,0.6c-1.1,0.2-2.3,0-3.2-0.6c-0.5-0.3-0.9-0.6-1.2-1.1 l0,0l0,0l0,0l0,0l-0.2,0.2c-0.2,0.2-0.2,0.3-0.3,0.3c-0.2,0.3-0.5,0.5-0.6,0.6c-0.5,0.5-0.9,0.8-1.4,1c-1.1,0.5-2.1,0.8-3,0.8 c-2,0-3.8-0.6-4.8-1.6c-0.6-0.5-0.9-1-1.2-1.6c-0.3-0.5-0.5-1-0.5-1.4c-0.2-0.8,0-1.3,0-1.3c0.2,0,0.2,0.5,0.3,1.1 c0.2,0.3,0.3,0.8,0.6,1.3s0.8,0.8,1.2,1.3c1.1,0.8,2.6,1.3,4.2,1.3c0.9,0,1.8-0.3,2.6-0.8c0.5-0.2,0.8-0.5,1.2-0.8 c0.2-0.2,0.3-0.3,0.5-0.5c0-0.2,0.2-0.2,0.2-0.3l0.2-0.2l0.1-0.3c0.2-0.2,0.3-0.3,0.5-0.5c0.2-0.2,0.3-0.2,0.6-0.2 c0.2,0,0.3,0.2,0.5,0.3l0.2,0.3c0,0.2,0.2,0.2,0.2,0.2c0.3,0.3,0.6,0.6,0.9,0.8c0.6,0.5,1.5,0.6,2.3,0.5c0.5,0,0.8-0.2,1.1-0.5 c0.2-0.2,0.3-0.2,0.5-0.3l0.2-0.2c0,0,0,0,0.2-0.2c0,0,0.2-0.2,0.2-0.3c0.2-0.2,0.2-0.2,0.3-0.3c0.2,0,0.3-0.2,0.5-0.2 c0.3,0,0.6,0.2,0.8,0.3c0.5,0.6,0.5,0.8,0.6,1c0.3,0.5,0.8,1,1.2,1.3c0.9,0.8,1.8,1.3,2.9,1.6c2,0.6,3.9,0.3,5.3-0.3 c0.8-0.3,1.2-0.8,1.7-1.1c0.5-0.5,0.8-1,1.1-1.3C390.4,119.7,390.5,119.2,390.5,119.2" class="st7"/><path d="M448.7,108.4c-0.3-0.6-0.6-1.3-0.9-1.4c-0.3-0.3-0.5-0.3-0.6-0.3c-0.2,0.2,0.5,0.8,0.8,2.1 c0.2,0.6,0.2,1.4,0.2,2.2c-0.2,0.8-0.5,1.8-0.9,2.6c-0.6,0.8-1.4,1.3-2.1,1.4c-0.8,0.2-1.5,0-2-0.2c-0.8-0.3-1.2-0.8-1.5-1v-0.2 c0,0,0,0-0.2,0h-0.2c0,0,0,0,0,0.2c-0.2,0.2-0.5,0.3-0.8,0.6c-0.5,0.5-1.2,1.1-2,1c-0.2,0-0.5-0.2-0.6-0.2 c-0.2-0.2-0.3-0.2-0.5-0.3c-0.3-0.3-0.5-0.6-0.6-1c-0.3-0.6-0.3-1.1-0.6-1.1c-0.2,0-0.5,0.5-0.3,1.4c0,0.5,0.2,1,0.6,1.4 c0.2,0.3,0.5,0.5,0.8,0.6c0.3,0.2,0.6,0.3,0.9,0.3c0.3,0,0.8,0,1.1,0c0.3-0.2,0.6-0.3,0.9-0.5c0.5-0.3,0.8-0.8,0.9-1.3 c0.2-0.2,0.2-0.5,0.3-0.6c0.2,0.3,0.6,0.8,1.2,1.1c0.6,0.5,1.5,0.8,2.6,0.6c1.1-0.2,2.1-0.8,2.9-1.8c0.8-1,1.1-2.1,1.2-3.2 C449.3,110,449,109.1,448.7,108.4" class="st7"/><path d="M432.8,120.1c0,0-0.5,0.3-1.2,0.8c-0.3,0.3-0.8,0.6-1.4,0.8c-0.6,0.3-1.2,0.5-2,0.6 c-0.8,0.2-1.5,0.2-2.4-0.2c-0.8-0.3-1.7-0.8-2.1-1.6c-0.3-0.5-0.5-1-0.6-1.4c0-0.3-0.2-0.5-0.2-0.8c0-0.2,0-0.3,0-0.5v-0.2v-0.2 c0,0,0,0,0-0.2v-0.2c0-0.2-0.2-0.2-0.2-0.2s-0.2-0.2-0.3-0.2h-0.2h-0.2c-0.2,0-0.2,0-0.2,0l-0.2,0.2l0,0l0,0c0,0,0,0-0.2,0 c-0.3,0-0.5,0-0.6-0.2c-0.5-0.2-0.8-0.5-1.1-1l-0.2-0.5c-0.2-0.2-0.3-0.3-0.5-0.3c-0.3-0.2-0.8-0.2-1.1,0l-0.3,0.2l-0.3,0.2 c-0.2,0.2-0.3,0.2-0.5,0.2c-0.3,0.2-0.8,0.3-1.1,0.3c-0.8,0.2-1.4,0-2-0.3c-0.6-0.3-1.1-0.8-1.4-1.3c-0.2-0.2-0.2-0.3-0.2-0.5 c0,0,0-0.2-0.2-0.2v-0.2v-0.2c-0.2-0.6-0.8-1-1.4-0.6l-0.3,0.2h-0.2c-0.2,0-0.3,0-0.3,0.2c-0.3,0-0.5,0.2-0.8,0.2 c-0.5,0-0.9,0-1.2-0.2c-0.8-0.3-1.4-0.8-1.7-1.4c-0.3-0.5-0.5-1-0.6-1.4c-0.2-0.3-0.2-0.5-0.2-0.5s-0.2,0.2-0.2,0.6 c0,0.3,0.2,1,0.5,1.6c0.3,0.6,0.9,1.4,1.8,1.9c0.5,0.2,1.1,0.3,1.5,0.5c0.3,0,0.6,0,0.9,0c0.2,0,0.3,0,0.5-0.2h0.2h0.2h0.2l0,0 v0.2c0,0.2,0,0.2,0.2,0.3c0,0.2,0.2,0.3,0.3,0.6c0.3,0.8,1.1,1.4,1.8,1.9c0.8,0.5,1.8,0.5,2.6,0.5c0.5,0,0.9-0.2,1.4-0.3 c0.2,0,0.5-0.2,0.6-0.3l0.3-0.2l0.2-0.2l0,0l0,0v0.2c0.3,0.6,0.9,1.3,1.7,1.6c0.3,0.2,0.8,0.2,1.1,0.3c0.2,0,0.2,0,0.3,0l0,0 v0.2c0,0.3,0.2,0.6,0.2,1c0.2,0.6,0.5,1.3,0.8,1.8c0.8,1.1,1.8,1.8,2.7,1.9c1.1,0.3,2,0.2,2.9,0c0.9-0.2,1.5-0.5,2.1-1 c0.6-0.3,1.1-0.8,1.4-1.1C432.7,120.8,433,120.3,432.8,120.1" class="st7"/><path d="M339.5,119.7c0,0,0.2,0.3,0.2,0.8s-0.2,1.3-0.8,2.1c-0.6,0.8-1.5,1.6-2.9,1.8c-0.6,0.2-1.4,0-2.1-0.3 c-0.3-0.2-0.8-0.3-1.1-0.6c-0.2,0,0,0-0.2,0l0,0c0,0-0.2,0.2-0.2,0.3c-0.1,0.2-0.1,0.3-0.3,0.5c-0.3,0.3-0.5,0.5-0.8,0.8 c-0.6,0.5-1.4,0.6-2.1,0.8c-0.8,0.2-1.5,0-2.3-0.3c-0.3-0.2-0.8-0.3-1.1-0.6c-0.2-0.2-0.3-0.3-0.5-0.5c-0.2-0.2-0.3-0.3-0.3-0.3 l0,0c0,0-0.2,0.2-0.3,0.2c-0.2,0.2-0.3,0.2-0.3,0.2c-0.3,0.2-0.5,0.3-0.8,0.3c-0.9,0.6-1.5,0.6-2,0.6c-0.6,0-1.1-0.2-1.5-0.3 c-0.2,0-0.3-0.2-0.3-0.2l0,0l0,0l0,0v0.2l-0.5,0.3c-0.2,0.2-0.3,0.5-0.5,0.6c-0.3,0.3-0.6,0.6-0.9,1c-0.6,0.6-1.4,1-2.1,1.1 c-1.5,0.5-2.9,0.3-3.9-0.2c-1.1-0.5-1.7-1.3-2-1.8c-0.3-0.6-0.3-1-0.2-1c0,0,0.2,0.3,0.6,0.6c0.3,0.5,0.9,1,1.8,1.3 c0.9,0.3,2.1,0.3,3.3,0c0.6-0.2,1.2-0.6,1.8-1.1c0.3-0.3,0.5-0.5,0.8-0.8c0.2-0.2,0.2-0.3,0.3-0.5l0.2-0.3v-0.2 c0,0,0-0.2,0.2-0.3c0.2-0.2,0.2-0.3,0.3-0.5c0.2-0.2,0.3-0.2,0.6-0.2c0.2,0,0.5,0.2,0.6,0.2s0.2,0,0.3,0.2 c0.3,0.2,0.8,0.2,1.2,0.2c0.5,0,0.8,0,1.2-0.2c0.2,0,0.5-0.2,0.6-0.3c0.2,0,0.2-0.2,0.3-0.2s0.2-0.2,0.3-0.3 c0.3-0.3,0.9-0.3,1.2,0s0.3,0.3,0.5,0.5c0.2,0.2,0.3,0.2,0.3,0.3c0.3,0.2,0.5,0.3,0.8,0.5c0.6,0.2,1.2,0.3,1.8,0.2 c0.6,0,1.1-0.3,1.7-0.6c0.3-0.2,0.5-0.3,0.6-0.5c0.2-0.2,0.2-0.2,0.3-0.3c0.2-0.2,0.2-0.2,0.3-0.5c0.2-0.2,0.2-0.3,0.3-0.3 s0.3-0.2,0.5-0.2c0.3,0,0.6,0.3,0.8,0.5c0.3,0.2,0.5,0.3,0.8,0.5c0.6,0.3,1.1,0.3,1.7,0.3c1.1-0.2,2-0.6,2.6-1.3 s0.8-1.3,0.9-1.8C339.3,120,339.3,119.7,339.5,119.7" class="st7"/></g></g></g></g><g><path d="M440.6,232.5c-0.5,2.9-1.8,5.6-3.2,8c-4.4,7.7-12.6,9.5-20.6,9.6c-2.3,0-4.5,0-6.6-0.8 c-0.6-0.2-3.9-1.9-4.4-5c-0.5-2.7,1.7-4,4.1-8.2c4.2-7.1,2.1-9.5,6.2-15.1c1.5-2.1,3.6-5.1,7.5-6.3c4.7-1.4,9.8,0.5,13.1,3.9 c2.9,3,4.7,8.7,4.1,12.8C440.8,231.8,440.8,232.2,440.6,232.5z" class="st12"/><path d="M431.8,222.1c-3,0.5-5.9,1.6-8.3,3.4c-0.9,0.6-2,1.3-2.9,0.6c-0.3-0.2-0.5-0.5-0.5-0.8 c-0.8-1.8,0.5-3.9,1.8-5.1c2.6-2.4,6.3-3.4,9.6-2.7C435.7,218.4,436.1,221.4,431.8,222.1z" class="st13"/><path d="M420.5,248.5c0.2,0,0.3,0,0.3-0.2s0-0.3,0-0.5c-0.5-1-1.5-1-2.4-1c-2-0.2-3.9-0.8-5.7-1.8 c-1.7-1-3.2-2.2-4.8-2.2c-0.2,0-0.5,0-0.6,0.2s-0.3,0.3-0.3,0.5c-0.3,1,0.2,1.9,0.8,2.6c0.6,0.8,1.4,1.1,2.1,1.4 C413.3,249,417.1,249.8,420.5,248.5z" class="st14"/><path d="M437.6,220.6c-0.2,0.2-0.2,0.3-0.2,0.5c0,0.5,0.3,1.4,0.6,1.8c0.2,0.3,0.5,0.5,0.8,0.5h0.2v-0.2 c0-0.8-0.5-1.3-0.8-2.1c0-0.2-0.2-0.3-0.2-0.5C437.9,220.5,437.8,220.5,437.6,220.6z" class="st15"/><path d="M437.9,221.4c0.3-0.5,1.4-1,1.8-0.5c0,0,0.2,0.2,0.2,0.3c0,0.2,0.2,0.3,0.2,0.5c0,0.5-0.9,0.5-1.2,0.8 c0,0-0.2,0-0.3,0.2c-0.2,0-0.3,0-0.3-0.2C437.9,221.9,437.8,221.6,437.9,221.4z" class="st16"/><g><path d="M436.7,225.1c-1.1,3.7-0.9,7.7,0,11.4c1.1,3.7,2.9,7.2,5,10.3c-0.8-4.2,0-8.5,0.2-12.7 c0.2-2.9-0.2-5.9-1.2-8.7c-0.3-0.8-1.2-3.2-2.1-3.4C437.8,221.9,437,224.3,436.7,225.1z" class="st17"/><path d="M438.7,222.1c-0.9-0.5-1.8,2.6-2,3c-1.1,3.7-0.9,7.7,0,11.4c0.9,3.7,2.7,7.2,5,10.1 c-0.5-0.6-0.5-1.4-0.8-2.2c-0.3-0.8-0.6-1.8-0.9-2.7c-1.2-4.2-1.5-8.5-1.2-12.8c0-1.1,0.2-2.2,0.3-3.4c0-0.6,0-1.1,0-1.8 C439.1,223.3,439.1,222.2,438.7,222.1C438.8,222.1,438.7,222.1,438.7,222.1z" class="st18"/></g></g><g><path d="M289.7,242c0.3,2.2,0,4.5-0.6,6.6c-1.5,6.6-7.1,9.8-12.8,11.9c-1.5,0.6-3.2,1.1-4.8,1c-0.5,0-3.2-0.5-4.2-2.4 c-0.9-1.8,0.3-3.2,1.2-6.7c1.5-5.9-0.6-7.2,1.2-12.2c0.6-1.8,1.5-4.5,4.1-6.3c3-2.1,7.1-2.1,10.1-0.3c2.7,1.4,5.1,5,5.7,8.2 C289.7,241.6,289.7,241.8,289.7,242z" class="st12"/><path d="M281.1,236.8c-2.1,1-3.9,2.6-5.3,4.5c-0.5,0.6-1.2,1.4-1.8,1.1c-0.2,0-0.5-0.3-0.5-0.3 c-0.9-1.1-0.5-2.7,0.2-4c1.4-2.4,3.8-4,6.3-4.3C283.1,233.3,284.1,235.2,281.1,236.8z" class="st13"/><path d="M278.7,258.5l0.2-0.2c0-0.2,0-0.3-0.2-0.3c-0.5-0.5-1.4-0.3-2-0.2c-1.5,0.3-3,0.5-4.5,0.2 c-1.4-0.3-2.7-0.8-3.9-0.5c-0.2,0-0.3,0.2-0.3,0.3c-0.2,0.2-0.2,0.3-0.2,0.5c0,0.6,0.5,1.3,1.1,1.6s1.2,0.5,1.8,0.5 C273.8,260.4,276.5,260.1,278.7,258.5z" class="st14"/><path d="M285,234.3c0,0.2,0,0.3,0,0.5c0,0.3,0.5,1,0.8,1.1c0.2,0.2,0.5,0.3,0.8,0.2h0.2v-0.2 c-0.2-0.5-0.6-0.8-0.9-1.3c-0.2-0.2-0.2-0.2-0.3-0.3C285.2,234.3,285,234.3,285,234.3z" class="st15"/><path d="M285.5,234.7c0.2-0.5,0.8-1.1,1.2-0.8l0.2,0.2c0.2,0.2,0.2,0.2,0.2,0.3c0,0.3-0.6,0.6-0.8,0.8 c0,0,0,0-0.2,0.2c-0.2,0-0.2,0-0.3,0C285.5,235.2,285.3,234.9,285.5,234.7z" class="st16"/><g><path d="M285.3,237.8c0,2.9,0.9,5.6,2.4,8c1.5,2.4,3.6,4.5,5.7,6.1c-1.4-2.7-1.8-5.9-2.6-9.1 c-0.6-2.1-1.4-4.2-2.7-5.9c-0.3-0.5-1.5-2.1-2.3-1.9C285.5,235.2,285.3,237.1,285.3,237.8z" class="st17"/><path d="M286.1,235.1c-0.8-0.2-0.8,2.2-0.8,2.6c0,2.9,0.9,5.6,2.4,8c1.5,2.4,3.5,4.5,5.7,6.1c-0.5-0.3-0.8-1-1.1-1.4 c-0.5-0.5-0.8-1.1-1.2-1.8c-1.7-2.7-2.9-5.8-3.6-8.8c-0.2-0.8-0.3-1.6-0.6-2.4c-0.2-0.5-0.3-0.8-0.5-1.3 C286.7,236,286.4,235.2,286.1,235.1C286.2,235.1,286.1,235.1,286.1,235.1z" class="st18"/></g></g><g><path d="M325.8,259.1c0.8,1.3,2,2.4,3.2,3.2c3.8,2.9,9.3,1.9,14.3,0.3c1.4-0.5,2.9-1,3.9-1.8c0.3-0.2,2.1-1.8,2.1-3.4 c-0.2-1.4-1.7-1.6-3.8-3c-3.6-2.6-2.7-4.2-6-6.1c-1.2-0.6-3-1.8-5.6-1.4c-3.2,0.3-6,2.2-7.5,4.7c-1.4,2.1-1.7,5.1-0.8,7.1 C325.8,259,325.8,259.1,325.8,259.1z" class="st12"/><path d="M330,252.2c2-0.5,3.9-0.5,5.7-0.2c0.6,0.2,1.4,0.2,1.8-0.3c0.2-0.2,0.2-0.3,0.2-0.5c0.2-1-0.8-1.8-1.8-2.1 c-2-0.6-4.4-0.3-6.5,0.6C327,251.3,327,252.9,330,252.2z" class="st13"/><path d="M340.8,262.8c-0.2,0-0.2,0-0.2,0s-0.2-0.2,0-0.3c0.2-0.5,0.8-0.8,1.4-1c1.2-0.5,2.4-1.1,3.3-2.1 c0.9-0.8,1.7-1.8,2.7-2.1c0.2,0,0.3-0.2,0.5,0c0.2,0,0.2,0.2,0.3,0.2c0.3,0.3,0.2,1-0.2,1.4c-0.3,0.5-0.8,0.8-1.2,1.1 C345.3,261.5,343.2,262.7,340.8,262.8z" class="st14"/><path d="M326.1,252.7c0.2,0,0.2,0.2,0.2,0.2c0.2,0.3,0,0.8-0.2,1c0,0.2-0.2,0.3-0.5,0.5c0,0,0,0-0.2,0l0,0 c-0.2-0.3,0.2-0.8,0.2-1.1c0-0.2,0-0.2,0-0.3C326,252.7,326,252.7,326.1,252.7z" class="st15"/><path d="M326,253.2c-0.3-0.2-1.1-0.2-1.2,0.2v0.2c0,0.2,0,0.2,0,0.3c0.2,0.2,0.6,0,0.9,0.2h0.2c0,0,0.2,0,0.2-0.2 C326.1,253.5,326.1,253.3,326,253.2z" class="st16"/><g><path d="M327.3,254.8c1.2,1.6,1.7,3.5,1.7,5.6c-0.2,2.1-0.8,4.2-1.7,6.1c-0.2-2.2-1.2-4.2-2-6.1 c-0.5-1.4-0.8-2.9-0.5-4.5c0-0.5,0.3-1.9,0.8-2.1C326.1,253.5,327,254.5,327.3,254.8z" class="st17"/><path d="M325.7,253.7c0.5-0.5,1.5,0.8,1.7,1.1c1.2,1.6,1.7,3.5,1.7,5.6c0,1.9-0.8,4-1.7,6.1c0.2-0.5,0.2-0.8,0.2-1.3 c0-0.5,0.2-1,0.2-1.4c0.2-2.2-0.3-4.5-1.1-6.6c-0.2-0.5-0.5-1.1-0.6-1.6c-0.2-0.3-0.2-0.5-0.2-0.8 C325.5,254.5,325.4,253.8,325.7,253.7C325.5,253.7,325.7,253.7,325.7,253.7z" class="st18"/></g></g><g><path d="M76.3,53.6c-0.6,3.4-2.2,6.6-4,9.5c-5.5,9-15.9,11.1-26,11.3c-2.8,0.1-5.6,0-8.2-0.9 c-0.6-0.2-4.8-2.3-5.5-5.8c-0.5-3.1,2-4.7,5.1-9.6c5.2-8.2,2.5-11.1,7.6-17.7c1.9-2.4,4.6-6,9.5-7.4c5.8-1.7,12.2,0.5,16.4,4.5 c3.6,3.5,5.8,10.2,5.2,15C76.4,53,76.3,53.3,76.3,53.6z" class="st12"/><path d="M65,41.4c-3.7,0.5-7.3,1.8-10.4,4c-1.1,0.7-2.5,1.6-3.5,0.8c-0.3-0.2-0.5-0.5-0.7-0.9c-1-2.1,0.5-4.5,2.2-6 c3.2-2.8,7.8-4,12.1-3.1C70,37.1,70.6,40.7,65,41.4z" class="st13"/><path d="M50.8,72.7c0.1,0,0.2-0.1,0.3-0.2c0.1-0.2,0-0.4,0-0.6c-0.5-1-1.9-1.2-3-1.2c-2.5-0.1-4.9-0.9-7.2-2.1 c-2-1.1-3.9-2.7-6-2.6c-0.2,0-0.5,0-0.7,0.2s-0.3,0.4-0.3,0.6c-0.2,1,0.2,2.2,1,3c0.7,0.8,1.7,1.2,2.7,1.7 C41.9,73.2,46.4,74,50.8,72.7z" class="st14"/><path d="M72.4,39.8c-0.1,0.1-0.2,0.4-0.2,0.6C72,41,72.5,42,72.8,42.5c0.2,0.3,0.6,0.6,1,0.7c0.1,0,0.1,0,0.2,0 c0,0,0.1-0.1,0.1-0.2c0.1-0.8-0.6-1.6-0.9-2.4c-0.1-0.2-0.1-0.5-0.2-0.7C72.7,39.6,72.5,39.6,72.4,39.8z" class="st15"/><path d="M72.8,40.6c0.3-0.6,1.7-1.2,2.3-0.5c0.1,0.1,0.1,0.2,0.2,0.3c0.1,0.2,0.2,0.5,0.1,0.7 c-0.1,0.5-1.1,0.6-1.5,0.8c-0.1,0-0.2,0.1-0.2,0.1c-0.1,0-0.3-0.1-0.4-0.2C72.7,41.3,72.7,40.9,72.8,40.6z" class="st16"/><g><path d="M71.4,45c-1.4,4.3-1.2,9,0.1,13.3c1.2,4.4,3.5,8.4,6.3,12.1c-0.9-4.9,0-9.9,0.1-14.9c0.1-3.4-0.1-7-1.5-10.1 c-0.3-0.8-1.5-3.9-2.6-4C72.6,41.3,71.6,44.1,71.4,45z" class="st17"/><path d="M73.8,41.4c-1.1-0.6-2.3,3-2.5,3.5c-1.4,4.3-1.2,9,0.1,13.3c1.2,4.3,3.5,8.5,6.2,12 c-0.6-0.7-0.6-1.8-0.9-2.7c-0.4-1-0.7-2-1-3.1c-1.5-4.9-1.9-10.1-1.5-15.1c0.1-1.3,0.2-2.7,0.2-4c0-0.7,0-1.4-0.1-2.1 C74.3,43,74.2,41.7,73.8,41.4C73.9,41.4,73.8,41.4,73.8,41.4z" class="st18"/></g></g><g><path d="M87.5,63.2V43.5h4.9l3.2,8.8c0.2,0.6,0.4,1.2,0.6,1.8c0.2,0.6,0.4,1.2,0.6,1.8h0.1c0.2-0.6,0.4-1.2,0.5-1.8 s0.4-1.2,0.5-1.8l3.1-8.8h4.9v19.7h-4V56c0-0.5,0-1,0-1.6s0.1-1.2,0.2-1.7c0-0.6,0.1-1.2,0.2-1.7c0-0.6,0.1-1.1,0.2-1.6h-0.1 l-1.6,4.7l-2.8,7.5h-2.5L92.5,54L91,49.3h-0.1c0,0.5,0.1,1,0.2,1.6c0,0.6,0.1,1.2,0.2,1.7c0,0.6,0.1,1.2,0.2,1.7c0,0.6,0,1.1,0,1.6 v7.2H87.5z" class="st21"/><path d="M114,63.6c-0.7,0-1.3-0.1-1.9-0.3c-0.5-0.2-1-0.5-1.4-1s-0.7-0.9-0.9-1.4c-0.2-0.5-0.3-1.1-0.3-1.8 c0-1.6,0.7-2.8,2-3.7c1.3-0.9,3.5-1.5,6.5-1.8c0-0.7-0.2-1.2-0.6-1.6c-0.3-0.4-1-0.6-1.7-0.6c-0.7,0-1.3,0.1-1.9,0.4 c-0.6,0.2-1.3,0.6-2,1l-1.6-2.9c1-0.6,2-1,3-1.4s2.2-0.5,3.4-0.5c1.9,0,3.4,0.5,4.4,1.7c1,1.1,1.5,2.8,1.5,5.1v8.6h-3.6l-0.3-1.5 h-0.1c-0.6,0.6-1.3,1-2,1.4C115.6,63.4,114.8,63.6,114,63.6z M115.5,60.1c0.5,0,1-0.1,1.3-0.3c0.4-0.2,0.7-0.5,1.2-1v-2.6 c-1.6,0.2-2.7,0.5-3.2,1c-0.6,0.4-0.9,0.9-0.9,1.5c0,0.5,0.2,0.8,0.5,1.1C114.5,60,114.9,60.1,115.5,60.1z" class="st21"/><path d="M126.1,63.2v-15h3.6l0.3,1.9h0.1c0.6-0.6,1.3-1.1,2.1-1.6c0.7-0.5,1.7-0.7,2.7-0.7c1.6,0,2.8,0.5,3.5,1.6 c0.7,1.1,1.1,2.5,1.1,4.5v9.3h-4.5v-8.7c0-1.1-0.2-1.8-0.5-2.2c-0.3-0.4-0.7-0.6-1.4-0.6c-0.6,0-1,0.1-1.5,0.4s-0.8,0.6-1.3,1.1 v10.1H126.1z" class="st21"/><path d="M148.8,69.6c-0.9,0-1.7-0.1-2.5-0.2c-0.7-0.2-1.4-0.4-2-0.7c-0.6-0.3-1-0.7-1.3-1.2c-0.3-0.5-0.5-1-0.5-1.7 c0-1.2,0.7-2.2,2.2-3v-0.1c-0.4-0.2-0.7-0.6-1-1s-0.4-0.9-0.4-1.5c0-0.5,0.2-1.1,0.5-1.5c0.3-0.5,0.7-0.9,1.2-1.2v-0.1 c-0.5-0.4-1-0.9-1.4-1.5c-0.4-0.7-0.6-1.5-0.6-2.3c0-0.9,0.2-1.7,0.5-2.4c0.3-0.7,0.8-1.2,1.4-1.7c0.6-0.5,1.2-0.8,2-1 c0.7-0.2,1.5-0.3,2.3-0.3c0.9,0,1.7,0.1,2.3,0.4h5.5v3.1h-2.4c0.1,0.2,0.2,0.5,0.3,0.8c0.1,0.3,0.1,0.7,0.1,1.1 c0,0.9-0.2,1.6-0.5,2.2c-0.3,0.6-0.7,1.2-1.2,1.6c-0.5,0.4-1.2,0.7-1.9,0.9c-0.7,0.2-1.5,0.3-2.3,0.3c-0.6,0-1.2-0.1-1.8-0.3 c-0.2,0.2-0.3,0.3-0.4,0.5c-0.1,0.2-0.1,0.4-0.1,0.6c0,0.4,0.2,0.7,0.5,0.8c0.3,0.2,0.9,0.3,1.7,0.3h2.4c1.9,0,3.3,0.3,4.2,0.9 c1,0.6,1.5,1.6,1.5,2.9c0,0.8-0.2,1.5-0.6,2.2c-0.4,0.7-1,1.2-1.7,1.7c-0.7,0.5-1.6,0.8-2.6,1.1C151.2,69.5,150.1,69.6,148.8,69.6z M149.4,66.8c1,0,1.8-0.2,2.5-0.5c0.6-0.3,1-0.8,1-1.3c0-0.5-0.2-0.8-0.6-1c-0.4-0.2-1-0.2-1.7-0.2h-1.5c-0.5,0-1,0-1.3,0 s-0.6-0.1-0.8-0.1c-0.5,0.5-0.8,1-0.8,1.5c0,0.6,0.3,1,0.9,1.3C147.7,66.7,148.4,66.8,149.4,66.8z M149.1,55.8 c0.6,0,1.1-0.2,1.5-0.6c0.4-0.4,0.6-1,0.6-1.9c0-0.8-0.2-1.4-0.6-1.8c-0.4-0.4-0.9-0.6-1.5-0.6c-0.6,0-1.1,0.2-1.5,0.6 c-0.4,0.4-0.6,1-0.6,1.8c0,0.8,0.2,1.5,0.6,1.9C148,55.5,148.5,55.8,149.1,55.8z" class="st21"/><path d="M165.5,63.6c-1,0-1.9-0.2-2.7-0.5c-0.9-0.3-1.7-0.9-2.3-1.5c-0.7-0.7-1.2-1.5-1.6-2.5c-0.4-1-0.6-2.1-0.6-3.3 s0.2-2.4,0.6-3.3c0.4-1,1-1.8,1.6-2.5c0.7-0.7,1.5-1.2,2.3-1.5c0.9-0.3,1.8-0.5,2.7-0.5c1,0,1.9,0.2,2.7,0.5 c0.9,0.3,1.7,0.9,2.3,1.5c0.7,0.7,1.2,1.5,1.6,2.5c0.4,1,0.6,2.1,0.6,3.3s-0.2,2.4-0.6,3.3c-0.4,1-1,1.8-1.6,2.5 c-0.7,0.7-1.5,1.2-2.3,1.5C167.3,63.4,166.4,63.6,165.5,63.6z M165.5,60c0.9,0,1.6-0.4,2-1.2c0.5-0.7,0.7-1.8,0.7-3.1 s-0.2-2.3-0.7-3.1c-0.5-0.7-1.2-1.2-2-1.2c-0.9,0-1.6,0.4-2.1,1.2c-0.5,0.7-0.7,1.8-0.7,3.1s0.2,2.3,0.7,3.1 C163.9,59.6,164.5,60,165.5,60z" class="st21"/><path d="M182.2,63.2V43.5h12.5v3.7h-8v4.6h6.8v3.7h-6.8v7.7H182.2z" class="st21"/><path d="M199.9,46c-0.7,0-1.4-0.2-1.8-0.7c-0.5-0.4-0.7-1-0.7-1.7s0.2-1.2,0.7-1.7c0.5-0.4,1.1-0.6,1.8-0.6 c0.7,0,1.4,0.2,1.9,0.6c0.5,0.4,0.7,1,0.7,1.7c0,0.7-0.2,1.2-0.7,1.7C201.3,45.8,200.7,46,199.9,46z M197.7,63.2v-15h4.5v15H197.7z" class="st21"/><path d="M206.1,63.2v-15h3.6l0.3,1.9h0.1c0.6-0.6,1.3-1.1,2.1-1.6c0.7-0.5,1.7-0.7,2.7-0.7c1.6,0,2.8,0.5,3.5,1.6 c0.7,1.1,1.1,2.5,1.1,4.5v9.3h-4.5v-8.7c0-1.1-0.2-1.8-0.5-2.2c-0.3-0.4-0.7-0.6-1.4-0.6c-0.6,0-1,0.1-1.5,0.4 c-0.4,0.2-0.8,0.6-1.3,1.1v10.1H206.1z" class="st21"/><path d="M227.2,63.6c-0.7,0-1.3-0.1-1.9-0.3c-0.5-0.2-1-0.5-1.4-1s-0.7-0.9-0.9-1.4c-0.2-0.5-0.3-1.1-0.3-1.8 c0-1.6,0.7-2.8,2-3.7c1.3-0.9,3.5-1.5,6.5-1.8c0-0.7-0.2-1.2-0.6-1.6s-1-0.6-1.7-0.6c-0.7,0-1.3,0.1-1.9,0.4c-0.6,0.2-1.3,0.6-2,1 l-1.6-2.9c1-0.6,2-1,3-1.4c1-0.4,2.2-0.5,3.4-0.5c1.9,0,3.4,0.5,4.4,1.7c1,1.1,1.5,2.8,1.5,5.1v8.6H232l-0.3-1.5h-0.1 c-0.6,0.6-1.3,1-2,1.4C228.8,63.4,228,63.6,227.2,63.6z M228.7,60.1c0.5,0,1-0.1,1.3-0.3c0.4-0.2,0.7-0.5,1.2-1v-2.6 c-1.6,0.2-2.7,0.5-3.2,1c-0.6,0.4-0.9,0.9-0.9,1.5c0,0.5,0.2,0.8,0.5,1.1C227.7,60,228.1,60.1,228.7,60.1z" class="st21"/><path d="M239.4,63.2v-15h3.6l0.3,1.9h0.1c0.6-0.6,1.3-1.1,2.1-1.6c0.7-0.5,1.7-0.7,2.7-0.7c1.6,0,2.8,0.5,3.5,1.6 c0.7,1.1,1.1,2.5,1.1,4.5v9.3h-4.5v-8.7c0-1.1-0.2-1.8-0.5-2.2c-0.3-0.4-0.7-0.6-1.4-0.6c-0.6,0-1,0.1-1.5,0.4s-0.8,0.6-1.3,1.1 v10.1H239.4z" class="st21"/><path d="M263.2,63.6c-1,0-2-0.2-2.9-0.5c-0.9-0.3-1.7-0.9-2.3-1.5c-0.7-0.7-1.2-1.5-1.6-2.5c-0.4-1-0.6-2.1-0.6-3.3 s0.2-2.4,0.6-3.3c0.4-1,1-1.8,1.7-2.5c0.7-0.7,1.5-1.2,2.5-1.5c1-0.3,1.9-0.5,3-0.5c0.9,0,1.7,0.2,2.5,0.5s1.4,0.7,1.9,1.2 l-2.1,2.9c-0.7-0.6-1.4-0.9-2-0.9c-1.1,0-2,0.4-2.6,1.2c-0.6,0.7-1,1.8-1,3.1c0,1.3,0.3,2.3,1,3.1c0.6,0.7,1.4,1.2,2.4,1.2 c0.5,0,1-0.1,1.4-0.3c0.5-0.2,0.9-0.5,1.3-0.8l1.7,2.9c-0.7,0.7-1.5,1.1-2.4,1.4C264.8,63.4,264,63.6,263.2,63.6z" class="st21"/><path d="M276.6,63.6c-1.1,0-2.1-0.2-3-0.5c-0.9-0.3-1.7-0.9-2.4-1.5S270,60,269.6,59c-0.4-1-0.6-2.1-0.6-3.3 c0-1.2,0.2-2.3,0.6-3.3c0.4-1,0.9-1.8,1.6-2.5c0.7-0.7,1.4-1.2,2.2-1.5c0.8-0.4,1.7-0.5,2.6-0.5c1.1,0,2,0.2,2.8,0.5 c0.8,0.4,1.5,0.9,2,1.5c0.5,0.7,0.9,1.4,1.2,2.3c0.2,0.9,0.4,1.8,0.4,2.9c0,0.4,0,0.8,0,1.2c0,0.4-0.1,0.6-0.1,0.8h-9 c0.2,1.1,0.7,1.9,1.3,2.4c0.7,0.5,1.5,0.8,2.5,0.8c1.1,0,2.2-0.3,3.2-1L282,62c-0.7,0.5-1.6,1-2.5,1.2 C278.5,63.4,277.6,63.6,276.6,63.6z M273.3,54h5.4c0-0.8-0.2-1.5-0.6-2c-0.4-0.5-1-0.8-1.9-0.8c-0.7,0-1.3,0.2-1.9,0.7 C273.8,52.4,273.5,53.1,273.3,54z" class="st21"/></g><g><path d="M182.2,101.2c-0.5,2.7-1.8,5.2-3.2,7.6c-4.4,7.2-12.6,8.8-20.6,9c-2.2,0.1-4.5,0-6.5-0.7 c-0.5-0.2-3.8-1.8-4.3-4.6c-0.4-2.4,1.6-3.8,4.1-7.6c4.2-6.5,2-8.8,6-14c1.5-1.9,3.7-4.8,7.5-5.8c4.6-1.3,9.7,0.4,13,3.6 c2.8,2.8,4.6,8.1,4.1,11.9C182.3,100.7,182.2,100.9,182.2,101.2z" class="st12"/><path d="M173.3,91.5c-3,0.4-5.8,1.5-8.3,3.1c-0.9,0.6-2,1.3-2.8,0.6c-0.2-0.2-0.4-0.4-0.5-0.7 c-0.8-1.7,0.4-3.6,1.8-4.8c2.6-2.2,6.2-3.1,9.6-2.5C177.2,88.1,177.7,90.9,173.3,91.5z" class="st13"/><path d="M162,116.3c0.1,0,0.2-0.1,0.3-0.2c0.1-0.1,0-0.3,0-0.5c-0.4-0.8-1.5-0.9-2.4-1c-1.9-0.1-3.9-0.7-5.7-1.7 c-1.6-0.9-3.1-2.1-4.8-2.1c-0.2,0-0.4,0-0.5,0.1c-0.1,0.1-0.2,0.3-0.3,0.5c-0.2,0.8,0.2,1.8,0.8,2.4c0.6,0.6,1.4,1,2.1,1.3 C154.9,116.7,158.5,117.4,162,116.3z" class="st14"/><path d="M179.1,90.2c-0.1,0.1-0.2,0.3-0.2,0.5c-0.1,0.5,0.3,1.3,0.6,1.7c0.2,0.3,0.5,0.5,0.8,0.5c0.1,0,0.1,0,0.1,0 c0,0,0.1-0.1,0.1-0.2c0.1-0.7-0.5-1.3-0.7-1.9c-0.1-0.2-0.1-0.4-0.2-0.5C179.4,90.1,179.2,90.1,179.1,90.2z" class="st15"/><path d="M179.5,90.9c0.3-0.5,1.4-0.9,1.8-0.4c0.1,0.1,0.1,0.1,0.1,0.2c0.1,0.2,0.1,0.4,0.1,0.5 c-0.1,0.4-0.9,0.5-1.2,0.7c-0.1,0-0.1,0.1-0.2,0.1c-0.1,0-0.2-0.1-0.3-0.1C179.4,91.4,179.3,91.1,179.5,90.9z" class="st16"/><g><path d="M178.3,94.3c-1.1,3.4-0.9,7.1,0.1,10.6c1,3.5,2.8,6.7,5,9.6c-0.7-3.9,0-7.9,0.1-11.8c0.1-2.7-0.1-5.5-1.2-8 c-0.3-0.7-1.2-3.1-2.1-3.1C179.3,91.4,178.5,93.7,178.3,94.3z" class="st17"/><path d="M180.3,91.5c-0.9-0.5-1.8,2.3-1.9,2.8c-1.1,3.4-0.9,7.1,0.1,10.6c1,3.4,2.7,6.7,5,9.5 c-0.5-0.6-0.5-1.4-0.7-2.1c-0.3-0.8-0.6-1.6-0.8-2.4c-1.2-3.9-1.5-8-1.2-12c0.1-1.1,0.2-2.1,0.2-3.2c0-0.6,0-1.1-0.1-1.7 C180.6,92.8,180.6,91.7,180.3,91.5C180.3,91.5,180.3,91.5,180.3,91.5z" class="st18"/></g></g><g><path d="M20.8-5.8c2.3,1.5,4.2,3.6,5.8,5.8c5,6.7,3.4,15,0.6,22.5c-0.8,2.1-1.6,4.1-3.1,5.8c-0.4,0.4-3.1,2.8-5.9,2.3 c-2.4-0.5-2.9-2.9-5.5-6.6C8.2,17.6,5.3,18.7,2,13c-1.2-2.1-3-5.2-2.6-9.1c0.5-4.8,4-8.9,8.2-10.7c3.7-1.6,9.2-1.3,12.6,0.6 C20.4-6.1,20.6-6,20.8-5.8z" class="st12"/><path d="M8.5-1.2C7.7,1.7,7.7,4.8,8.3,7.7c0.2,1,0.4,2.3-0.5,2.8c-0.2,0.2-0.5,0.2-0.8,0.2C5.2,10.8,3.8,9,3.2,7.3 C2.2,4.1,2.7,0.4,4.5-2.5C6.8-6.1,9.6-5.5,8.5-1.2z" class="st13"/><path d="M27.3,18.5c0-0.1,0-0.2-0.1-0.3c-0.1-0.1-0.3-0.1-0.4-0.1c-0.9,0.1-1.4,1.1-1.8,1.9c-0.8,1.8-2.1,3.4-3.7,4.6 c-1.4,1.1-3.1,2.1-3.7,3.7c-0.1,0.2-0.1,0.4-0.1,0.5c0,0.2,0.2,0.3,0.3,0.4c0.7,0.5,1.7,0.5,2.5,0.2c0.8-0.3,1.4-0.9,2-1.5 C25,25.3,27,22.2,27.3,18.5z" class="st14"/><path d="M9.5-7.1c0.1,0.1,0.2,0.3,0.4,0.4c0.4,0.2,1.3,0.2,1.8,0.1c0.3-0.1,0.6-0.2,0.8-0.5c0-0.1,0-0.1,0-0.1 s-0.1-0.1-0.1-0.1c-0.6-0.3-1.3,0-2,0c-0.2,0-0.4,0-0.6,0C9.5-7.4,9.4-7.2,9.5-7.1z" class="st15"/><path d="M10.2-7.2C9.9-7.6,9.9-8.8,10.5-9c0.1,0,0.2,0,0.3,0c0.2,0,0.4,0,0.5,0.1c0.4,0.2,0.1,1,0.2,1.4 c0,0.1,0,0.1,0,0.2c0,0.1-0.1,0.2-0.2,0.2C10.7-6.9,10.4-6.9,10.2-7.2z" class="st16"/><g><path d="M13-4.8c2.7,2.3,6.3,3.5,9.8,3.9c3.6,0.4,7.2-0.1,10.8-1c-3.9-0.8-7.3-2.9-10.9-4.5c-2.4-1.1-5.2-2-7.9-1.9 c-0.7,0-3.3,0-3.7,0.8C10.7-6.8,12.5-5.2,13-4.8z" class="st17"/><path d="M11.1-7.6C10.4-7,12.6-5.1,13-4.8c2.7,2.3,6.3,3.5,9.8,3.9c3.5,0.4,7.2,0,10.7-1C32.8-1.7,32-2,31.3-2 c-0.9,0-1.7-0.1-2.6-0.1c-4-0.3-8-1.6-11.6-3.4c-1-0.5-1.9-1-2.9-1.4c-0.5-0.2-1-0.4-1.6-0.6C12.4-7.5,11.4-7.8,11.1-7.6 C11.1-7.7,11.1-7.6,11.1-7.6z" class="st18"/></g></g><g><path d="M250.7,7.3c1-2.6,2.8-4.8,4.6-6.8c5.7-6.1,14.1-6.1,22-4.7c2.2,0.4,4.4,0.9,6.3,2c0.4,0.3,3.4,2.5,3.3,5.4 c-0.1,2.5-2.3,3.4-5.5,6.6c-5.4,5.6-3.8,8.2-8.8,12.5c-1.8,1.6-4.6,3.9-8.5,4.2c-4.8,0.4-9.4-2.3-12-6.1c-2.2-3.3-2.9-8.8-1.6-12.5 C250.4,7.8,250.6,7.5,250.7,7.3z" class="st12"/><path d="M257.4,18.6c3,0.2,6-0.3,8.7-1.4c1-0.4,2.2-0.8,2.9,0c0.2,0.2,0.3,0.5,0.4,0.8c0.4,1.8-1.1,3.4-2.7,4.3 c-3,1.6-6.7,1.8-9.9,0.5C252.9,21.1,253,18.2,257.4,18.6z" class="st13"/><path d="M273.5-3.4c-0.1,0-0.2,0-0.3,0.1c-0.1,0.1-0.1,0.3-0.1,0.5c0.3,0.9,1.3,1.2,2.2,1.4c1.9,0.5,3.7,1.5,5.2,2.8 c1.3,1.2,2.6,2.7,4.3,3c0.2,0,0.4,0,0.5,0c0.1-0.1,0.3-0.2,0.4-0.4c0.4-0.8,0.2-1.7-0.3-2.5c-0.5-0.7-1.2-1.3-1.8-1.7 C280.5-2.4,277.1-3.8,273.5-3.4z" class="st14"/><path d="M251.5,18.7c0.1-0.1,0.2-0.3,0.3-0.4c0.2-0.5,0-1.3-0.2-1.8c-0.1-0.3-0.4-0.6-0.7-0.7c-0.1,0-0.1,0-0.1,0 c0,0-0.1,0.1-0.1,0.1c-0.2,0.6,0.2,1.3,0.3,2c0,0.2,0,0.4,0.1,0.6C251.2,18.8,251.3,18.8,251.5,18.7z" class="st15"/><path d="M251.3,18c-0.4,0.4-1.5,0.6-1.9,0.1c-0.1-0.1-0.1-0.1-0.1-0.3c0-0.2-0.1-0.4,0-0.5c0.2-0.4,1-0.3,1.3-0.4 c0.1,0,0.1,0,0.2-0.1c0.1,0,0.2,0.1,0.3,0.2C251.4,17.5,251.4,17.8,251.3,18z" class="st16"/><g><path d="M253.1,14.8c1.8-3.1,2.3-6.8,2.1-10.4c-0.3-3.6-1.4-7.1-3-10.4c-0.1,4-1.6,7.7-2.5,11.5 c-0.6,2.6-1,5.4-0.5,8.1c0.1,0.7,0.6,3.3,1.4,3.5C251.5,17.4,252.8,15.4,253.1,14.8z" class="st17"/><path d="M250.6,17.2c0.7,0.6,2.3-1.9,2.5-2.4c1.8-3.1,2.3-6.8,2.1-10.4c-0.3-3.5-1.3-7.1-2.9-10.3 c0.3,0.7,0.2,1.5,0.3,2.2c0.1,0.9,0.2,1.7,0.3,2.6c0.4,4-0.2,8.1-1.2,12c-0.3,1-0.6,2-0.8,3.1c-0.1,0.6-0.2,1.1-0.3,1.6 C250.5,15.8,250.4,16.9,250.6,17.2C250.6,17.1,250.6,17.2,250.6,17.2z" class="st18"/></g></g></svg>