<svg id="svg" version="1.1" xmlns="http://www.w3.org/2000/svg" xmlns:xlink="http://www.w3.org/1999/xlink" width="400" height="400" viewBox="0, 0, 400,400"><g id="svgg"><path id="path0" d="M215.500 84.321 C 188.853 86.405,169.865 97.500,149.809 122.705 C 134.822 141.540,130.908 149.643,124.692 174.700 C 117.404 204.076,110.933 217.050,89.134 245.984 C 80.864 256.960,78.520 260.550,76.792 264.883 C 70.962 279.498,80.039 296.368,99.883 307.799 C 109.705 313.457,121.929 315.694,142.900 315.670 C 221.581 315.580,269.476 295.173,295.489 250.656 L 297.033 248.013 295.234 243.556 C 283.177 213.706,280.438 184.659,287.207 158.449 C 289.721 148.717,294.013 138.935,297.323 135.396 L 298.236 134.420 297.724 133.749 C 295.986 131.470,296.211 129.397,298.414 127.396 L 299.410 126.492 298.054 124.496 C 283.347 102.844,257.750 87.917,229.800 84.693 C 227.236 84.397,217.699 84.149,215.500 84.321 " stroke="none" fill="#f3cc37" fill-rule="evenodd"></path><path id="path1" d="M188.200 0.221 C 75.250 7.050,-9.345 105.357,0.710 218.100 C 9.277 314.160,85.840 390.723,181.900 399.290 C 306.482 410.401,410.401 306.482,399.290 181.900 C 389.715 74.534,295.812 -6.285,188.200 0.221 M229.800 84.693 C 257.750 87.917,283.347 102.844,298.054 124.496 L 299.410 126.492 298.414 127.396 C 296.218 129.390,295.987 131.471,297.709 133.729 L 298.205 134.380 299.162 133.786 C 303.486 131.098,308.779 136.529,314.484 149.509 C 319.419 160.735,321.867 169.011,323.475 179.900 C 325.479 193.475,325.510 206.445,323.600 232.300 C 321.648 258.725,321.421 268.900,322.511 281.100 C 322.806 284.397,323.641 290.699,323.987 292.241 C 324.234 293.341,324.287 293.400,320.672 288.550 C 311.997 276.911,304.464 264.205,298.496 251.143 L 297.054 247.986 295.252 251.043 C 269.154 295.315,221.381 315.580,142.900 315.670 C 121.929 315.694,109.705 313.457,99.883 307.799 C 80.039 296.368,70.962 279.498,76.792 264.883 C 78.520 260.550,80.864 256.960,89.134 245.984 C 110.933 217.050,117.404 204.076,124.692 174.700 C 130.908 149.643,134.822 141.540,149.809 122.705 C 169.865 97.500,188.853 86.405,215.500 84.321 C 217.699 84.149,227.236 84.397,229.800 84.693 " stroke="none" fill="#84632e" fill-rule="evenodd"></path><path id="path2" d="M300.472 133.209 C 295.017 134.354,287.418 152.459,284.818 170.500 C 279.459 207.700,292.561 250.837,320.672 288.550 C 324.287 293.400,324.234 293.341,323.987 292.241 C 323.641 290.699,322.806 284.397,322.511 281.100 C 321.421 268.900,321.648 258.725,323.600 232.300 C 325.510 206.445,325.479 193.475,323.475 179.900 C 322.132 170.806,320.023 162.941,316.815 155.060 C 310.201 138.812,305.258 132.204,300.472 133.209 " stroke="none" fill="#34a448" fill-rule="evenodd"></path></g></svg>